<svg width="168" height="51" viewBox="0 0 168 51" fill="none" xmlns="http://www.w3.org/2000/svg">
<path d="M167.067 44.4998C167.067 47.1232 164.928 49.2481 162.283 49.2481H5.72386C3.07979 49.2481 0.933594 47.1232 0.933594 44.4998V6.63343C0.933594 4.01131 3.07979 1.87891 5.72386 1.87891H162.282C164.928 1.87891 167.066 4.01131 167.066 6.63343L167.067 44.4998Z" fill="black"/>
<path d="M161.778 1.93698C164.659 1.93698 167.003 4.25526 167.003 7.10426V44.0244C167.003 46.8734 164.659 49.1917 161.778 49.1917H6.22222C3.34133 49.1917 0.997111 46.8734 0.997111 44.0244V7.10426C0.997111 4.25526 3.34133 1.93698 6.22222 1.93698H161.778ZM161.778 0.950908H6.22222C2.80156 0.950908 0 3.72146 0 7.10426V44.0244C0 47.4072 2.80156 50.1777 6.22222 50.1777H161.778C165.198 50.1777 168 47.4072 168 44.0244V7.10426C168 3.72146 165.198 0.950908 161.778 0.950908Z" fill="#A6A6A6"/>
<path d="M37.4957 25.2981C37.4596 21.3316 40.7798 19.4019 40.9316 19.3121C39.0512 16.6009 36.1367 16.2305 35.1126 16.201C32.6647 15.9462 30.2903 17.6495 29.0434 17.6495C27.7716 17.6495 25.8514 16.2256 23.7819 16.2674C21.1188 16.308 18.6274 17.8328 17.261 20.2006C14.4411 25.0286 16.5442 32.1234 19.2459 36.0258C20.5974 37.9371 22.1766 40.071 24.2436 39.996C26.2658 39.9135 27.0212 38.721 29.4615 38.721C31.8795 38.721 32.5888 39.996 34.6969 39.948C36.8672 39.9135 38.2336 38.0281 39.5378 36.0997C41.0996 33.9091 41.7268 31.7517 41.7517 31.641C41.7007 31.6237 37.5367 30.0522 37.4957 25.2981Z" fill="white"/>
<path d="M33.5135 13.6338C34.6011 12.2887 35.3453 10.4586 35.1387 8.60156C33.5645 8.67048 31.5958 9.6784 30.4621 10.994C29.4591 12.1533 28.5631 14.0534 28.7945 15.8404C30.5629 15.9708 32.3785 14.958 33.5135 13.6338Z" fill="white"/>
<path d="M66.7587 39.7215H63.9325L62.3845 34.9108H57.0035L55.5288 39.7215H52.7773L58.1085 23.3438H61.4013L66.7587 39.7215ZM61.9178 32.8925L60.5178 28.6159C60.3697 28.1791 60.0922 27.1502 59.6828 25.5307H59.633C59.47 26.2272 59.2074 27.2561 58.8465 28.6159L57.4714 32.8925H61.9178Z" fill="white"/>
<path d="M80.4687 33.6719C80.4687 35.6804 79.9199 37.2679 78.8223 38.4334C77.8391 39.4708 76.6183 39.9889 75.1611 39.9889C73.5881 39.9889 72.4582 39.4302 71.77 38.3128H71.7202V44.5338H69.0671V31.8001C69.0671 30.5374 69.0335 29.2415 68.9688 27.9124H71.3021L71.4502 29.7842H71.5C72.3848 28.3739 73.7275 27.6699 75.5295 27.6699C76.9382 27.6699 78.1142 28.22 79.055 29.3215C79.9983 30.4242 80.4687 31.8739 80.4687 33.6719ZM77.7657 33.7679C77.7657 32.6184 77.5044 31.6708 76.9792 30.925C76.4056 30.1473 75.6352 29.7584 74.6695 29.7584C74.015 29.7584 73.4201 29.975 72.8887 30.402C72.3561 30.8327 72.0077 31.3952 71.8447 32.0917C71.7625 32.4166 71.7215 32.6824 71.7215 32.8917V34.8607C71.7215 35.7197 71.9878 36.4446 72.5204 37.0366C73.053 37.6285 73.7449 37.9239 74.5961 37.9239C75.5954 37.9239 76.3732 37.5424 76.9295 36.7818C77.487 36.02 77.7657 35.0158 77.7657 33.7679Z" fill="white"/>
<path d="M94.2018 33.6719C94.2018 35.6804 93.653 37.2679 92.5541 38.4334C91.5723 39.4708 90.3515 39.9889 88.8942 39.9889C87.3213 39.9889 86.1913 39.4302 85.5044 38.3128H85.4546V44.5338H82.8014V31.8001C82.8014 30.5374 82.7678 29.2415 82.7031 27.9124H85.0365L85.1846 29.7842H85.2343C86.1179 28.3739 87.4606 27.6699 89.2638 27.6699C90.6713 27.6699 91.8473 28.22 92.7906 29.3215C93.7302 30.4242 94.2018 31.8739 94.2018 33.6719ZM91.4989 33.7679C91.4989 32.6184 91.2363 31.6708 90.7111 30.925C90.1374 30.1473 89.3696 29.7584 88.4027 29.7584C87.7469 29.7584 87.1533 29.975 86.6206 30.402C86.088 30.8327 85.7408 31.3952 85.5778 32.0917C85.4969 32.4166 85.4546 32.6824 85.4546 32.8917V34.8607C85.4546 35.7197 85.7209 36.4446 86.251 37.0366C86.7837 37.6273 87.4756 37.9239 88.3293 37.9239C89.3286 37.9239 90.1063 37.5424 90.6626 36.7818C91.2201 36.02 91.4989 35.0158 91.4989 33.7679Z" fill="white"/>
<path d="M109.559 35.1284C109.559 36.5215 109.07 37.655 108.088 38.53C107.009 39.4862 105.507 39.9637 103.577 39.9637C101.795 39.9637 100.367 39.624 99.2852 38.9435L99.8999 36.7566C101.065 37.4531 102.343 37.8026 103.735 37.8026C104.735 37.8026 105.512 37.5787 106.071 37.1332C106.627 36.6877 106.905 36.0896 106.905 35.3438C106.905 34.6792 106.676 34.1193 106.217 33.6651C105.76 33.211 104.997 32.7889 103.932 32.3988C101.032 31.3293 99.5838 29.7627 99.5838 27.7025C99.5838 26.3562 100.092 25.2523 101.108 24.3933C102.121 23.533 103.473 23.1035 105.163 23.1035C106.67 23.1035 107.922 23.3632 108.921 23.8813L108.258 26.0202C107.324 25.5181 106.269 25.267 105.088 25.267C104.155 25.267 103.425 25.4947 102.903 25.9476C102.461 26.3525 102.239 26.846 102.239 27.4306C102.239 28.0779 102.492 28.6132 103 29.0341C103.442 29.423 104.244 29.8439 105.409 30.298C106.834 30.8654 107.881 31.5287 108.554 32.2892C109.225 33.0473 109.559 33.9962 109.559 35.1284Z" fill="white"/>
<path d="M118.331 29.8804H115.407V35.6141C115.407 37.0724 115.922 37.801 116.955 37.801C117.429 37.801 117.822 37.7603 118.133 37.6791L118.207 39.6716C117.684 39.8648 116.996 39.962 116.143 39.962C115.096 39.962 114.277 39.6457 113.686 39.0144C113.097 38.3818 112.801 37.321 112.801 35.8307V29.8779H111.059V27.9088H112.801V25.7465L115.407 24.9688V27.9088H118.331V29.8804Z" fill="white"/>
<path d="M131.525 33.7187C131.525 35.5339 131 37.0243 129.952 38.1897C128.853 39.3896 127.394 39.9877 125.576 39.9877C123.824 39.9877 122.429 39.413 121.389 38.2635C120.348 37.1141 119.828 35.6631 119.828 33.9143C119.828 32.0843 120.363 30.5854 121.437 29.4199C122.509 28.2533 123.955 27.6699 125.773 27.6699C127.525 27.6699 128.935 28.2446 129.999 29.3953C131.017 30.5115 131.525 31.9527 131.525 33.7187ZM128.772 33.8036C128.772 32.7144 128.537 31.7804 128.06 31.0013C127.504 30.0587 126.709 29.5885 125.678 29.5885C124.612 29.5885 123.802 30.0599 123.245 31.0013C122.769 31.7816 122.534 32.7304 122.534 33.8528C122.534 34.942 122.769 35.876 123.245 36.6538C123.819 37.5965 124.62 38.0666 125.655 38.0666C126.668 38.0666 127.463 37.5867 128.036 36.6292C128.526 35.8354 128.772 34.8915 128.772 33.8036Z" fill="white"/>
<path d="M140.151 30.2199C139.888 30.1719 139.608 30.1473 139.314 30.1473C138.381 30.1473 137.659 30.4955 137.152 31.1933C136.71 31.8087 136.488 32.5865 136.488 33.5255V39.7219H133.836L133.861 31.6315C133.861 30.2703 133.828 29.031 133.762 27.9136H136.073L136.17 30.1731H136.243C136.523 29.3966 136.965 28.7714 137.57 28.3025C138.161 27.8804 138.799 27.6699 139.487 27.6699C139.733 27.6699 139.954 27.6872 140.151 27.7179V30.2199Z" fill="white"/>
<path d="M152.015 33.2571C152.015 33.7272 151.984 34.1235 151.918 34.4472H143.958C143.99 35.6138 144.374 36.5061 145.113 37.1214C145.784 37.6715 146.651 37.9472 147.717 37.9472C148.895 37.9472 149.97 37.7614 150.937 37.3885L151.353 39.2099C150.223 39.6972 148.889 39.9397 147.35 39.9397C145.498 39.9397 144.044 39.4006 142.987 38.3238C141.931 37.2469 141.402 35.8009 141.402 33.9869C141.402 32.2061 141.894 30.7232 142.878 29.5405C143.909 28.2778 145.301 27.6465 147.053 27.6465C148.774 27.6465 150.077 28.2778 150.962 29.5405C151.663 30.5435 152.015 31.784 152.015 33.2571ZM149.485 32.5766C149.502 31.7988 149.329 31.1268 148.97 30.5595C148.511 29.8297 147.805 29.4654 146.855 29.4654C145.988 29.4654 145.283 29.8211 144.744 30.5349C144.302 31.1022 144.039 31.7828 143.958 32.5753H149.485V32.5766Z" fill="white"/>
<path d="M61.0392 13.2696C61.0392 14.7181 60.5999 15.8084 59.7226 16.5407C58.91 17.2163 57.7551 17.5548 56.2593 17.5548C55.5176 17.5548 54.8829 17.5228 54.3516 17.4588V9.54432C55.0447 9.43356 55.7914 9.37695 56.5978 9.37695C58.0227 9.37695 59.0966 9.68339 59.8209 10.2963C60.6323 10.9891 61.0392 11.9798 61.0392 13.2696ZM59.6641 13.3053C59.6641 12.3663 59.4127 11.6463 58.91 11.1442C58.4072 10.6433 57.673 10.3923 56.7061 10.3923C56.2954 10.3923 55.9457 10.4193 55.6557 10.4759V16.4927C55.8163 16.5173 56.11 16.5284 56.5368 16.5284C57.5349 16.5284 58.3052 16.2539 58.8477 15.7051C59.3903 15.1562 59.6641 14.3562 59.6641 13.3053Z" fill="white"/>
<path d="M68.3315 14.5333C68.3315 15.4256 68.0739 16.1566 67.5587 16.7301C67.0186 17.3196 66.3031 17.6137 65.4096 17.6137C64.5484 17.6137 63.8627 17.3319 63.3513 16.7658C62.8411 16.2009 62.5859 15.4883 62.5859 14.6293C62.5859 13.7309 62.8485 12.9938 63.3762 12.4215C63.9038 11.8492 64.6131 11.5625 65.5067 11.5625C66.3678 11.5625 67.0597 11.8443 67.5836 12.4092C68.0814 12.9581 68.3315 13.6669 68.3315 14.5333ZM66.9788 14.5752C66.9788 14.0398 66.8619 13.5808 66.6291 13.1981C66.3554 12.7353 65.9659 12.504 65.4594 12.504C64.9355 12.504 64.5372 12.7353 64.2634 13.1981C64.0295 13.5808 63.9138 14.0472 63.9138 14.5986C63.9138 15.1339 64.0307 15.5929 64.2634 15.9757C64.5459 16.4384 64.9392 16.6698 65.4469 16.6698C65.9447 16.6698 66.3354 16.4347 66.6167 15.9634C66.8581 15.5733 66.9788 15.1105 66.9788 14.5752Z" fill="white"/>
<path d="M78.105 11.6816L76.2695 17.483H75.0748L74.3144 14.9638C74.1216 14.335 73.9648 13.7098 73.8428 13.0895H73.8192C73.7059 13.727 73.5491 14.351 73.3475 14.9638L72.5399 17.483H71.3315L69.6055 11.6816H70.9457L71.609 14.4396C71.7696 15.0918 71.9015 15.7133 72.0072 16.3016H72.0309C72.128 15.8167 72.2885 15.1989 72.515 14.4519L73.3475 11.6829H74.4103L75.208 14.3928C75.4008 15.0537 75.5576 15.6899 75.6784 16.3028H75.7144C75.8028 15.7059 75.936 15.0697 76.1127 14.3928L76.8245 11.6829H78.105V11.6816Z" fill="white"/>
<path d="M84.8686 17.4818H83.5644V14.159C83.5644 13.1351 83.1712 12.6231 82.3822 12.6231C81.9952 12.6231 81.6828 12.7634 81.4402 13.0452C81.2 13.3271 81.078 13.6593 81.078 14.0396V17.4806H79.7738V13.3381C79.7738 12.8286 79.7577 12.2761 79.7266 11.678H80.8727L80.9337 12.585H80.9698C81.1216 12.3032 81.3481 12.0706 81.6455 11.8847C81.9989 11.6681 82.3946 11.5586 82.8277 11.5586C83.3753 11.5586 83.8307 11.7333 84.1929 12.0841C84.6433 12.5136 84.8686 13.1548 84.8686 14.0064V17.4818Z" fill="white"/>
<path d="M88.4631 17.4829H87.1602V9.01953H88.4631V17.4829Z" fill="white"/>
<path d="M96.1401 14.5333C96.1401 15.4256 95.8825 16.1566 95.3673 16.7301C94.8272 17.3196 94.1104 17.6137 93.2182 17.6137C92.3558 17.6137 91.6701 17.3319 91.1599 16.7658C90.6496 16.2009 90.3945 15.4883 90.3945 14.6293C90.3945 13.7309 90.6571 12.9938 91.1848 12.4215C91.7124 11.8492 92.4217 11.5625 93.314 11.5625C94.1764 11.5625 94.8671 11.8443 95.3922 12.4092C95.89 12.9581 96.1401 13.6669 96.1401 14.5333ZM94.7862 14.5752C94.7862 14.0398 94.6692 13.5808 94.4365 13.1981C94.164 12.7353 93.7732 12.504 93.268 12.504C92.7428 12.504 92.3446 12.7353 92.072 13.1981C91.8381 13.5808 91.7224 14.0472 91.7224 14.5986C91.7224 15.1339 91.8393 15.5929 92.072 15.9757C92.3545 16.4384 92.7478 16.6698 93.2555 16.6698C93.7533 16.6698 94.1428 16.4347 94.424 15.9634C94.6667 15.5733 94.7862 15.1105 94.7862 14.5752Z" fill="white"/>
<path d="M102.453 17.482H101.282L101.185 16.8138H101.149C100.748 17.3467 100.177 17.6137 99.4349 17.6137C98.8812 17.6137 98.4332 17.4377 98.0959 17.0882C97.7898 16.7707 97.6367 16.3757 97.6367 15.9068C97.6367 15.1979 97.9354 14.6576 98.5365 14.2835C99.1363 13.9094 99.98 13.726 101.066 13.7346V13.6263C101.066 12.8621 100.661 12.4806 99.8481 12.4806C99.2694 12.4806 98.7592 12.6246 98.3187 12.9101L98.0536 12.0634C98.5987 11.7299 99.2719 11.5625 100.066 11.5625C101.599 11.5625 102.368 12.3624 102.368 13.9623V16.0988C102.368 16.6784 102.397 17.1399 102.453 17.482ZM101.099 15.4883V14.5936C99.6602 14.569 98.9409 14.9592 98.9409 15.7628C98.9409 16.0655 99.023 16.292 99.191 16.4433C99.359 16.5947 99.5731 16.6698 99.8282 16.6698C100.114 16.6698 100.382 16.5799 100.626 16.4015C100.871 16.2218 101.022 15.9941 101.078 15.7148C101.091 15.652 101.099 15.5757 101.099 15.4883Z" fill="white"/>
<path d="M109.866 17.4829H108.708L108.647 16.5512H108.611C108.242 17.2601 107.612 17.6145 106.727 17.6145C106.02 17.6145 105.432 17.3401 104.965 16.7912C104.498 16.2423 104.266 15.5298 104.266 14.6548C104.266 13.7158 104.518 12.9552 105.026 12.3743C105.518 11.8328 106.12 11.5621 106.837 11.5621C107.624 11.5621 108.176 11.8242 108.489 12.3497H108.514V9.01953H109.82V15.9199C109.82 16.4848 109.835 17.0054 109.866 17.4829ZM108.514 15.0363V14.069C108.514 13.9016 108.502 13.7662 108.478 13.6629C108.405 13.3527 108.247 13.0918 108.006 12.8814C107.764 12.6709 107.471 12.5651 107.134 12.5651C106.647 12.5651 106.267 12.7558 105.987 13.1386C105.709 13.5213 105.569 14.0099 105.569 14.6068C105.569 15.1803 105.702 15.6455 105.969 16.0036C106.252 16.3851 106.633 16.5758 107.109 16.5758C107.537 16.5758 107.879 16.4171 108.14 16.0983C108.391 15.8042 108.514 15.4498 108.514 15.0363Z" fill="white"/>
<path d="M121.019 14.5333C121.019 15.4256 120.761 16.1566 120.246 16.7301C119.706 17.3196 118.992 17.6137 118.097 17.6137C117.237 17.6137 116.551 17.3319 116.039 16.7658C115.529 16.2009 115.273 15.4883 115.273 14.6293C115.273 13.7309 115.536 12.9938 116.064 12.4215C116.591 11.8492 117.301 11.5625 118.195 11.5625C119.055 11.5625 119.748 11.8443 120.271 12.4092C120.769 12.9581 121.019 13.6669 121.019 14.5333ZM119.668 14.5752C119.668 14.0398 119.551 13.5808 119.318 13.1981C119.043 12.7353 118.655 12.504 118.147 12.504C117.624 12.504 117.226 12.7353 116.951 13.1981C116.717 13.5808 116.601 14.0472 116.601 14.5986C116.601 15.1339 116.718 15.5929 116.951 15.9757C117.233 16.4384 117.627 16.6698 118.134 16.6698C118.632 16.6698 119.024 16.4347 119.305 15.9634C119.546 15.5733 119.668 15.1105 119.668 14.5752Z" fill="white"/>
<path d="M128.031 17.4818H126.728V14.159C126.728 13.1351 126.335 12.6231 125.545 12.6231C125.158 12.6231 124.846 12.7634 124.604 13.0452C124.363 13.3271 124.242 13.6593 124.242 14.0396V17.4806H122.937V13.3381C122.937 12.8286 122.922 12.2761 122.891 11.678H124.036L124.096 12.585H124.133C124.286 12.3032 124.512 12.0706 124.808 11.8847C125.163 11.6681 125.557 11.5586 125.992 11.5586C126.538 11.5586 126.994 11.7333 127.356 12.0841C127.807 12.5136 128.031 13.1548 128.031 14.0064V17.4818Z" fill="white"/>
<path d="M136.807 12.6472H135.371V15.4654C135.371 16.1817 135.626 16.5398 136.131 16.5398C136.365 16.5398 136.56 16.5201 136.713 16.4795L136.746 17.4579C136.489 17.5539 136.15 17.6019 135.733 17.6019C135.218 17.6019 134.817 17.4468 134.527 17.1367C134.236 16.8266 134.092 16.3048 134.092 15.5725V12.6472H133.234V11.6811H134.092V10.6178L135.37 10.2363V11.6799H136.806V12.6472H136.807Z" fill="white"/>
<path d="M143.712 17.4829H142.407V14.1847C142.407 13.1447 142.013 12.6242 141.226 12.6242C140.621 12.6242 140.208 12.9257 139.981 13.5287C139.943 13.6555 139.92 13.8105 139.92 13.9927V17.4816H138.617V9.01953H139.92V12.5159H139.945C140.356 11.8796 140.944 11.5621 141.707 11.5621C142.247 11.5621 142.694 11.7369 143.049 12.0876C143.49 12.5245 143.712 13.1743 143.712 14.0333V17.4829Z" fill="white"/>
<path d="M150.837 14.3082C150.837 14.5396 150.819 14.734 150.788 14.8928H146.877C146.894 15.4663 147.081 15.9032 147.443 16.2059C147.774 16.4766 148.201 16.612 148.723 16.612C149.302 16.612 149.83 16.521 150.305 16.3376L150.509 17.2335C149.953 17.4723 149.298 17.5916 148.541 17.5916C147.632 17.5916 146.917 17.327 146.399 16.7979C145.879 16.2687 145.621 15.5586 145.621 14.6676C145.621 13.7926 145.861 13.064 146.345 12.4831C146.851 11.8629 147.534 11.5527 148.396 11.5527C149.24 11.5527 149.881 11.8629 150.314 12.4831C150.664 12.9754 150.837 13.5846 150.837 14.3082ZM149.592 13.9747C149.602 13.592 149.516 13.2621 149.339 12.984C149.113 12.6259 148.768 12.4462 148.302 12.4462C147.876 12.4462 147.529 12.621 147.264 12.9717C147.047 13.2511 146.919 13.5846 146.877 13.9747H149.592Z" fill="white"/>
</svg>
