<svg width="400" height="315" viewBox="0 0 400 315" fill="none" xmlns="http://www.w3.org/2000/svg">
<g clip-path="url(#clip0_729_40226)">
<rect width="400" height="315" rx="16" fill="#1A1919"/>
<g filter="url(#filter0_f_729_40226)">
<path d="M105.525 -215.982C93.0184 -224.229 76.1162 -219.701 69.4086 -206.305L-22.3944 -22.9694C-25.4991 -16.7692 -31.0394 -12.1369 -37.6915 -10.1796L-273.869 59.3151C-293.409 65.0646 -298.241 90.5154 -282.168 103.026L-147.605 207.769C-138.777 214.641 -135.589 226.54 -139.798 236.904L-203.962 394.896C-211.626 413.767 -194.716 433.392 -174.919 428.602L64.3641 370.697C71.1036 369.066 78.2178 370.308 84.0066 374.125L255.178 486.997C267.685 495.244 284.587 490.715 291.295 477.319L383.098 293.983C386.202 287.783 391.743 283.151 398.395 281.194L634.572 211.699C654.112 205.949 658.944 180.499 642.872 167.988L508.308 63.2447C499.481 56.3734 496.292 44.4743 500.502 34.1099L564.665 -123.882C572.329 -142.753 555.419 -162.378 535.622 -157.587L296.339 -99.6828C289.6 -98.0519 282.486 -99.2934 276.697 -103.111L105.525 -215.982Z" fill="#C62323"/>
</g>
<g filter="url(#filter1_f_729_40226)">
<path d="M369.78 -65.9745C356.732 -76.0066 337.718 -70.9119 331.435 -55.7001L273.118 85.4814C270.242 92.4438 264.38 97.7382 257.161 99.8926L94.3843 148.477C75.6631 154.065 70.2987 178.004 84.8454 191.046L184.412 280.317C191.792 286.934 194.566 297.286 191.483 306.706L149.891 433.8C143.814 452.368 160.43 470.418 179.437 465.897L344.698 426.584C352.026 424.84 359.75 426.494 365.722 431.086L486.817 524.194C499.865 534.226 518.878 529.131 525.162 513.92L583.479 372.738C586.355 365.776 592.217 360.481 599.435 358.327L762.212 309.743C780.934 304.155 786.298 280.216 771.751 267.173L672.185 177.903C664.805 171.286 662.031 160.934 665.114 151.513L706.706 24.4194C712.782 5.85103 696.167 -12.1989 677.16 -7.67744L511.899 31.636C504.57 33.3793 496.846 31.7252 490.875 27.1336L369.78 -65.9745Z" fill="#D37200"/>
</g>
<path d="M48.0508 104.6C48.0508 95.6392 48.0508 91.1587 49.7947 87.7362C51.3287 84.7256 53.7763 82.2779 56.7869 80.7439C60.2095 79 64.6899 79 73.6508 79H709.364C718.324 79 722.805 79 726.227 80.7439C729.238 82.2779 731.686 84.7256 733.22 87.7362C734.964 91.1587 734.964 95.6392 734.964 104.6V315.448H48.0508V104.6Z" fill="#1F1F1F"/>
<text fill="#FAFAFA" xml:space="preserve" style="white-space: pre" font-family="Manrope" font-size="16" font-weight="500" letter-spacing="0em"><tspan x="64.0508" y="111.689">&#x410;&#x432;&#x442;&#x43e;&#x43c;&#x430;&#x442;&#x438;&#x447;&#x435;&#x441;&#x43a;&#x438;&#x435; &#x434;&#x435;&#x43b;&#x44c;&#x442;&#x430;-&#x43e;&#x431;&#x43d;&#x43e;&#x432;&#x43b;&#x435;&#x43d;&#x438;&#x44f; &#x43e;&#x441;&#x442;&#x430;&#x442;&#x43a;&#x43e;&#x432;</tspan></text>
<text fill="#C9C9C9" xml:space="preserve" style="white-space: pre" font-family="Manrope" font-size="12" letter-spacing="0em"><tspan x="64.0508" y="133.917">&#x415;&#x441;&#x43b;&#x438; &#x432;&#x430;&#x43c; &#x442;&#x440;&#x435;&#x431;&#x443;&#x435;&#x442;&#x441;&#x44f; &#x43f;&#x43e;&#x441;&#x442;&#x43e;&#x44f;&#x43d;&#x43d;&#x43e; &#x432;&#x44b;&#x433;&#x440;&#x443;&#x436;&#x430;&#x442;&#x44c; &#x441;&#x432;&#x435;&#x436;&#x438;&#x435; &#x43e;&#x441;&#x442;&#x430;&#x442;&#x43a;&#x438; &#x432; &#x41e;&#x437;&#x43e;&#x43d;</tspan></text>
<rect x="64.0508" y="150.161" width="28.1628" height="15.8416" rx="7.92078" fill="#373737"/>
<circle cx="84.2928" cy="158.081" r="7.0407" fill="#1EC55B"/>
<text fill="#C9C9C9" xml:space="preserve" style="white-space: pre" font-family="Manrope" font-size="12" letter-spacing="0em"><tspan x="99.2543" y="162.478">&#x410;&#x432;&#x442;&#x43e;&#x43c;&#x430;&#x442;&#x438;&#x447;&#x435;&#x441;&#x43a;&#x438; &#x44d;&#x43a;&#x441;&#x43f;&#x43e;&#x440;&#x442;&#x438;&#x440;&#x43e;&#x432;&#x430;&#x442;&#x44c; &#x43e;&#x441;&#x442;&#x430;&#x442;&#x43a;&#x438; &#x434;&#x43b;&#x44f; &#x442;&#x43e;&#x432;&#x430;&#x440;&#x43e;&#x432;</tspan></text>
<text fill="#717171" xml:space="preserve" style="white-space: pre" font-family="Manrope" font-size="12.3212" letter-spacing="0em"><tspan x="64.0508" y="184.122">&#x41f;&#x43e;&#x43b;&#x43d;&#x430;&#x44f; &#x432;&#x44b;&#x433;&#x440;&#x443;&#x437;&#x43a;&#x430; &#x432;&#x441;&#x435;&#x445; &#x43e;&#x441;&#x442;&#x430;&#x442;&#x43a;&#x43e;&#x432; &#x440;&#x430;&#x437; &#x432; &#x441;&#x443;&#x442;&#x43a;&#x438;, &#x43d;&#x43e;&#x447;&#x44c;&#x44e;. &#x412; &#x442;&#x435;&#x447;&#x435;&#x43d;&#x438;&#x435; &#x434;&#x43d;&#x44f; &#x432;&#x44b;&#x433;&#x440;&#x443;&#x436;&#x430;&#x44e;&#x442;&#x441;&#x44f; &#x43e;&#x441;&#x442;&#x430;&#x442;&#x43a;&#x438; &#x442;&#x43e;&#x43b;&#x44c;&#x43a;&#x43e; &#x43a;&#x43e;&#x43d;&#x43a;&#x440;&#x435;&#x442;&#x43d;&#x44b;&#x445; </tspan><tspan x="64.0508" y="201.724">&#x442;&#x43e;&#x432;&#x430;&#x440;&#x43e;&#x432;, &#x43e;&#x441;&#x442;&#x430;&#x442;&#x43e;&#x43a; &#x43a;&#x43e;&#x442;&#x43e;&#x440;&#x44b;&#x445; &#x438;&#x437;&#x43c;&#x435;&#x43d;&#x438;&#x43b;&#x441;&#x44f; &#x432;  &#x41c;&#x43e;&#x435;&#x43c;&#x421;&#x43a;&#x43b;&#x430;&#x434;&#x435;</tspan></text>
<text fill="#C9C9C9" xml:space="preserve" style="white-space: pre" font-family="Manrope" font-size="12" letter-spacing="0em"><tspan x="64.0508" y="234.08">&#x412;&#x44b;&#x433;&#x440;&#x443;&#x436;&#x430;&#x442;&#x44c; &#x431;&#x43e;&#x43b;&#x44c;&#x448;&#x435;, &#x447;&#x435;&#x43c;</tspan></text>
<text fill="#717171" xml:space="preserve" style="white-space: pre" font-family="Manrope" font-size="12.3212" font-weight="500" letter-spacing="0em"><tspan x="78.1349" y="268.045">&#x412;&#x432;&#x435;&#x434;&#x438;&#x442;&#x435; &#x437;&#x43d;&#x430;&#x447;&#x435;&#x43d;&#x438;&#x44f;</tspan></text>
<rect x="64.4908" y="246.164" width="322.992" height="34.3234" rx="5.72057" stroke="#C9C9C9" stroke-width="0.880087"/>
<text fill="#717171" xml:space="preserve" style="white-space: pre" font-family="Manrope" font-size="10.561" letter-spacing="0em"><tspan x="64.0508" y="295.533">&#x412;&#x44b;&#x433;&#x440;&#x443;&#x437;&#x438;&#x442;&#x44c;, &#x435;&#x441;&#x43b;&#x438; &#x43e;&#x441;&#x442;&#x430;&#x442;&#x43e;&#x43a; &#x431;&#x43e;&#x43b;&#x44c;&#x448;&#x435; &#x447;&#x438;&#x441;&#x43b;&#x430;</tspan></text>
<text fill="#C9C9C9" xml:space="preserve" style="white-space: pre" font-family="Manrope" font-size="12.3212" letter-spacing="0em"><tspan x="394.964" y="234.203">&#x417;&#x430;&#x449;&#x438;&#x442;&#x430; &#x43e;&#x442; &#x43f;&#x430;&#x440;&#x441;&#x435;&#x440;&#x43e;&#x432;</tspan></text>
<rect x="395.404" y="246.164" width="323.12" height="34.3234" rx="5.72057" stroke="#C9C9C9" stroke-width="0.880087"/>
<text fill="#717171" xml:space="preserve" style="white-space: pre" font-family="Manrope" font-size="10.561" letter-spacing="0em"><tspan x="394.964" y="295.533">&#x41f;&#x440;&#x43e;&#x441;&#x442;&#x430;&#x432;&#x44c;&#x442;&#x435; &#x43f;&#x43e;&#x440;&#x43e;&#x433;&#x438; &#x434;&#x43b;&#x44f; &#x437;&#x43d;&#x430;&#x447;&#x435;&#x43d;&#x438;&#x439; &#x43e;&#x441;&#x442;&#x430;&#x442;&#x43a;&#x43e;&#x432; &#x447;&#x435;&#x440;&#x435;&#x437; &#x437;&#x430;&#x43f;&#x44f;&#x442;&#x443;&#x44e;: 2,5,10</tspan></text>
</g>
<defs>
<filter id="filter0_f_729_40226" x="-441.822" y="-370.117" width="1244.35" height="1011.25" filterUnits="userSpaceOnUse" color-interpolation-filters="sRGB">
<feFlood flood-opacity="0" result="BackgroundImageFix"/>
<feBlend mode="normal" in="SourceGraphic" in2="BackgroundImageFix" result="shape"/>
<feGaussianBlur stdDeviation="75" result="effect1_foregroundBlur_729_40226"/>
</filter>
<filter id="filter1_f_729_40226" x="-73.4776" y="-221.164" width="1003.55" height="900.548" filterUnits="userSpaceOnUse" color-interpolation-filters="sRGB">
<feFlood flood-opacity="0" result="BackgroundImageFix"/>
<feBlend mode="normal" in="SourceGraphic" in2="BackgroundImageFix" result="shape"/>
<feGaussianBlur stdDeviation="75" result="effect1_foregroundBlur_729_40226"/>
</filter>
<clipPath id="clip0_729_40226">
<rect width="400" height="315" rx="16" fill="white"/>
</clipPath>
</defs>
</svg>
