<svg width="400" height="315" viewBox="0 0 400 315" fill="none" xmlns="http://www.w3.org/2000/svg">
<g clip-path="url(#clip0_729_40141)">
<rect width="400" height="315" rx="16" fill="#1A1919"/>
<g filter="url(#filter0_f_729_40141)">
<path d="M129.551 -171.205C143.065 -183.814 165.116 -177.905 170.515 -160.229L222.421 9.7079C224.85 17.6608 231.074 23.8854 239.027 26.3145L408.964 78.2199C426.64 83.6191 432.549 105.67 419.94 119.184L298.724 249.104C293.051 255.184 290.772 263.687 292.645 271.789L332.662 444.911C336.825 462.919 320.682 479.062 302.674 474.899L129.552 434.882C121.45 433.01 112.947 435.288 106.867 440.961L-23.0529 562.178C-36.567 574.786 -58.6181 568.878 -64.0173 551.201L-115.923 381.264C-118.352 373.312 -124.576 367.087 -132.529 364.658L-302.466 312.752C-320.143 307.353 -326.051 285.302 -313.442 271.788L-192.226 141.868C-186.553 135.788 -184.274 127.285 -186.147 119.183L-226.164 -53.9388C-230.327 -71.9467 -214.184 -88.0893 -196.176 -83.9268L-23.0539 -43.9099C-14.9519 -42.0371 -6.44899 -44.3155 -0.368813 -49.9884L129.551 -171.205Z" fill="#1459DE"/>
</g>
<g filter="url(#filter1_f_729_40141)">
<path d="M423.438 -153.018C436.952 -165.627 459.003 -159.718 464.402 -142.042L502.948 -15.8451C505.377 -7.89215 511.601 -1.66761 519.554 0.761526L645.751 39.307C663.428 44.7062 669.336 66.7573 656.727 80.2714L566.71 176.751C561.038 182.831 558.759 191.334 560.632 199.436L590.349 327.999C594.512 346.006 578.369 362.149 560.361 357.986L431.799 328.27C423.697 326.397 415.194 328.675 409.114 334.348L312.634 424.365C299.12 436.974 277.069 431.065 271.67 413.388L233.124 287.192C230.695 279.239 224.47 273.014 216.517 270.585L90.3207 232.04C72.6441 226.64 66.7356 204.589 79.3444 191.075L169.361 94.5955C175.034 88.5153 177.312 80.0124 175.44 71.9104L145.723 -56.6519C141.56 -74.6599 157.703 -90.8024 175.711 -86.6399L304.273 -56.9229C312.375 -55.0501 320.878 -57.3285 326.958 -63.0014L423.438 -153.018Z" fill="#3A8BEA"/>
</g>
<path d="M48 95C48 86.1634 55.1634 79 64 79H551C559.837 79 567 86.1634 567 95V325H48V95Z" fill="#1F1F1F"/>
<text fill="white" xml:space="preserve" style="white-space: pre" font-family="Manrope" font-size="16" font-weight="500" letter-spacing="0em"><tspan x="64" y="113.128">&#x421;&#x430;&#x43c;&#x43e;&#x432;&#x44b;&#x43a;&#x443;&#x43f;&#x44b;</tspan></text>
<rect x="64.5" y="135.5" width="23" height="23" rx="5.5" stroke="#EEF2F9"/>
<rect x="68.9999" y="140" width="14" height="14" rx="2" fill="#EEF2F9"/>
<text fill="#C9C9C9" xml:space="preserve" style="white-space: pre" font-family="Manrope" font-size="14" letter-spacing="0em"><tspan x="96" y="152.362">&#x41e;&#x431;&#x440;&#x430;&#x431;&#x430;&#x442;&#x44b;&#x432;&#x430;&#x442;&#x44c; &#x441;&#x430;&#x43c;&#x43e;&#x432;&#x44b;&#x43a;&#x443;&#x43f;&#x44b;</tspan></text>
<text fill="#C9C9C9" xml:space="preserve" style="white-space: pre" font-family="Manrope" font-size="12" letter-spacing="0em"><tspan x="64" y="183.596">&#x41d;&#x43e;&#x43c;&#x435;&#x440;&#x430; &#x43f;&#x43e;&#x43b;&#x44c;&#x437;&#x43e;&#x432;&#x430;&#x442;&#x435;&#x43b;&#x435;&#x439;, &#x43a;&#x43e;&#x442;&#x43e;&#x440;&#x44b;&#x435; &#x441;&#x447;&#x438;&#x442;&#x430;&#x442;&#x44c; &#x441;&#x432;&#x43e;&#x438;&#x43c;&#x438;</tspan></text>
<text fill="#717171" xml:space="preserve" style="white-space: pre" font-family="Manrope" font-size="10" font-weight="500" letter-spacing="0em"><tspan x="80" y="218.83">&#x412;&#x432;&#x435;&#x434;&#x438;&#x442;&#x435; &#x43d;&#x43e;&#x43c;&#x435;&#x440;</tspan></text>
<rect x="64.5" y="199.5" width="326" height="31" rx="6.5" stroke="#C9C9C9"/>
<text fill="#717171" xml:space="preserve" style="white-space: pre" font-family="Manrope" font-size="10" letter-spacing="0em"><tspan x="64" y="244.83">&#x427;&#x435;&#x440;&#x435;&#x437; &#x437;&#x430;&#x43f;&#x44f;&#x442;&#x443;&#x44e;, 8 &#x446;&#x438;&#x444;&#x440; &#x434;&#x43e; &#x43f;&#x435;&#x440;&#x432;&#x43e;&#x439; &#x447;&#x435;&#x440;&#x442;&#x44b;. 00000000-0000-00</tspan></text>
<rect x="64.5" y="265.5" width="23" height="23" rx="5.5" stroke="#EEF2F9"/>
<text fill="#C9C9C9" xml:space="preserve" style="white-space: pre" font-family="Manrope" font-size="12" letter-spacing="0em"><tspan x="96" y="281.596">&#x41e;&#x431;&#x43d;&#x443;&#x43b;&#x44f;&#x442;&#x44c; &#x446;&#x435;&#x43d;&#x44b; &#x442;&#x43e;&#x432;&#x430;&#x440;&#x43e;&#x432; &#x432; &#x434;&#x43e;&#x43a;&#x443;&#x43c;&#x435;&#x43d;&#x442;&#x430;&#x445; &#x441;&#x430;&#x43c;&#x43e;&#x432;&#x44b;&#x43a;&#x443;&#x43f;&#x43b;&#x435;&#x43d;&#x43d;&#x44b;&#x445; &#x437;&#x430;&#x43a;&#x430;&#x437;&#x43e;&#x432;</tspan></text>
<text fill="#C9C9C9" xml:space="preserve" style="white-space: pre" font-family="Manrope" font-size="10" letter-spacing="0em"><tspan x="64" y="304.83">&#x420;&#x430;&#x441;&#x445;&#x43e;&#x434;&#x44b; &#x43f;&#x43e;&#x441;&#x43b;&#x435; &#x43f;&#x440;&#x43e;&#x441;&#x442;&#x430;&#x43d;&#x43e;&#x432;&#x43a;&#x438; &#x43a;&#x43e;&#x43c;&#x438;&#x441;&#x441;&#x438;&#x438; &#x432; &#x43e;&#x442;&#x433;&#x440;&#x443;&#x437;&#x43a;&#x435; &#x438; &#x43f;&#x43b;&#x430;&#x442;&#x435;&#x436;&#x435; &#x43e;&#x441;&#x442;&#x430;&#x43d;&#x443;&#x442;&#x441;&#x44f;, &#x430; &#x446;&#x435;&#x43d;&#x430; &#x442;&#x43e;&#x432;&#x430;&#x440;&#x430; &#x431;&#x443;&#x434;&#x435;&#x442; &#x443;&#x431;&#x440;&#x430;&#x43d;&#x430; &#x432; 0</tspan></text>
</g>
<defs>
<filter id="filter0_f_729_40141" x="-470.176" y="-327.939" width="1046.85" height="1046.85" filterUnits="userSpaceOnUse" color-interpolation-filters="sRGB">
<feFlood flood-opacity="0" result="BackgroundImageFix"/>
<feBlend mode="normal" in="SourceGraphic" in2="BackgroundImageFix" result="shape"/>
<feGaussianBlur stdDeviation="75" result="effect1_foregroundBlur_729_40141"/>
</filter>
<filter id="filter1_f_729_40141" x="-77.3895" y="-309.752" width="890.851" height="890.851" filterUnits="userSpaceOnUse" color-interpolation-filters="sRGB">
<feFlood flood-opacity="0" result="BackgroundImageFix"/>
<feBlend mode="normal" in="SourceGraphic" in2="BackgroundImageFix" result="shape"/>
<feGaussianBlur stdDeviation="75" result="effect1_foregroundBlur_729_40141"/>
</filter>
<clipPath id="clip0_729_40141">
<rect width="400" height="315" rx="16" fill="white"/>
</clipPath>
</defs>
</svg>
