<svg width="592" height="411" viewBox="0 0 592 411" fill="none" xmlns="http://www.w3.org/2000/svg">
<path d="M0 32C0 20.7989 0 15.1984 2.17987 10.9202C4.09734 7.15695 7.15695 4.09734 10.9202 2.17987C15.1984 0 20.799 0 32 0H560C571.201 0 576.802 0 581.08 2.17987C584.843 4.09734 587.903 7.15695 589.82 10.9202C592 15.1984 592 20.799 592 32V411H0V32Z" fill="#101010"/>
<rect x="29" y="30" width="165" height="102" rx="15" fill="#1C1C1C"/>
<path d="M85.19 86V76.06H92.008V77.166H86.45V80.302H89.558C90.65 80.302 91.462 80.5587 91.994 81.072C92.5353 81.5853 92.806 82.2573 92.806 83.088C92.806 83.6387 92.6893 84.1333 92.456 84.572C92.2227 85.0107 91.8727 85.3607 91.406 85.622C90.9393 85.874 90.3513 86 89.642 86H85.19ZM86.45 84.894H89.488C89.9733 84.894 90.3653 84.8053 90.664 84.628C90.9627 84.4507 91.1773 84.222 91.308 83.942C91.448 83.6527 91.518 83.354 91.518 83.046C91.518 82.7473 91.4573 82.4673 91.336 82.206C91.2147 81.9353 91.0047 81.7207 90.706 81.562C90.4073 81.394 89.9873 81.31 89.446 81.31H86.45V84.894ZM93.6212 83.886C93.6212 83.4193 93.7518 83.018 94.0132 82.682C94.2838 82.3367 94.6525 82.0707 95.1192 81.884C95.5858 81.6973 96.1272 81.604 96.7432 81.604C97.0698 81.604 97.4152 81.632 97.7792 81.688C98.1432 81.7347 98.4652 81.8093 98.7452 81.912V81.38C98.7452 80.82 98.5772 80.3813 98.2412 80.064C97.9052 79.7373 97.4292 79.574 96.8132 79.574C96.4118 79.574 96.0245 79.6487 95.6512 79.798C95.2872 79.938 94.8998 80.1433 94.4892 80.414L94.0412 79.546C94.5172 79.2193 94.9932 78.9767 95.4692 78.818C95.9452 78.65 96.4398 78.566 96.9532 78.566C97.8865 78.566 98.6238 78.8273 99.1652 79.35C99.7065 79.8633 99.9772 80.582 99.9772 81.506V84.6C99.9772 84.7493 100.005 84.8613 100.061 84.936C100.127 85.0013 100.229 85.0387 100.369 85.048V86C100.248 86.0187 100.141 86.0327 100.047 86.042C99.9632 86.0513 99.8932 86.056 99.8372 86.056C99.5478 86.056 99.3285 85.9767 99.1792 85.818C99.0392 85.6593 98.9598 85.4913 98.9412 85.314L98.9132 84.852C98.5958 85.2627 98.1805 85.58 97.6672 85.804C97.1538 86.028 96.6452 86.14 96.1412 86.14C95.6558 86.14 95.2218 86.042 94.8392 85.846C94.4565 85.6407 94.1578 85.37 93.9432 85.034C93.7285 84.6887 93.6212 84.306 93.6212 83.886ZM98.3812 84.404C98.4932 84.2733 98.5818 84.1427 98.6472 84.012C98.7125 83.872 98.7452 83.7553 98.7452 83.662V82.752C98.4558 82.64 98.1525 82.556 97.8352 82.5C97.5178 82.4347 97.2052 82.402 96.8972 82.402C96.2718 82.402 95.7632 82.528 95.3712 82.78C94.9885 83.0227 94.7972 83.3587 94.7972 83.788C94.7972 84.0213 94.8578 84.25 94.9792 84.474C95.1098 84.6887 95.2965 84.866 95.5392 85.006C95.7912 85.146 96.0992 85.216 96.4632 85.216C96.8458 85.216 97.2098 85.1413 97.5552 84.992C97.9005 84.8333 98.1758 84.6373 98.3812 84.404ZM104.229 86.098C103.52 86.098 102.918 85.9673 102.423 85.706C101.938 85.4353 101.564 85.062 101.303 84.586L102.311 84.138C102.479 84.4367 102.717 84.67 103.025 84.838C103.342 85.006 103.725 85.09 104.173 85.09C104.705 85.09 105.125 84.9733 105.433 84.74C105.741 84.5067 105.895 84.194 105.895 83.802C105.895 83.4473 105.769 83.1627 105.517 82.948C105.274 82.724 104.929 82.6073 104.481 82.598H103.739V81.786H104.523C104.719 81.786 104.892 81.7393 105.041 81.646C105.2 81.5433 105.321 81.408 105.405 81.24C105.498 81.072 105.545 80.8853 105.545 80.68C105.545 80.3533 105.428 80.092 105.195 79.896C104.962 79.6907 104.612 79.588 104.145 79.588C103.762 79.588 103.44 79.6627 103.179 79.812C102.927 79.9613 102.722 80.1853 102.563 80.484L101.625 79.98C101.858 79.5413 102.194 79.2007 102.633 78.958C103.081 78.706 103.604 78.58 104.201 78.58C104.677 78.58 105.097 78.6593 105.461 78.818C105.834 78.9673 106.124 79.1867 106.329 79.476C106.544 79.7653 106.651 80.1153 106.651 80.526C106.651 80.8713 106.567 81.1933 106.399 81.492C106.24 81.7813 106.002 82.0007 105.685 82.15C106.124 82.2807 106.46 82.5093 106.693 82.836C106.926 83.1533 107.043 83.5313 107.043 83.97C107.043 84.418 106.922 84.8007 106.679 85.118C106.436 85.4353 106.105 85.678 105.685 85.846C105.265 86.014 104.78 86.098 104.229 86.098ZM111.715 86.14C111.165 86.14 110.665 86.042 110.217 85.846C109.769 85.6407 109.382 85.3653 109.055 85.02C108.729 84.6653 108.477 84.2593 108.299 83.802C108.122 83.3447 108.033 82.864 108.033 82.36C108.033 81.8467 108.122 81.3613 108.299 80.904C108.477 80.4467 108.729 80.0453 109.055 79.7C109.382 79.3453 109.769 79.07 110.217 78.874C110.675 78.6687 111.174 78.566 111.715 78.566C112.266 78.566 112.765 78.6687 113.213 78.874C113.661 79.07 114.049 79.3453 114.375 79.7C114.711 80.0453 114.968 80.4467 115.145 80.904C115.323 81.3613 115.411 81.8467 115.411 82.36C115.411 82.864 115.323 83.3447 115.145 83.802C114.968 84.2593 114.716 84.6653 114.389 85.02C114.063 85.3653 113.671 85.6407 113.213 85.846C112.765 86.042 112.266 86.14 111.715 86.14ZM109.293 82.374C109.293 82.878 109.401 83.3353 109.615 83.746C109.839 84.1567 110.133 84.4833 110.497 84.726C110.861 84.9593 111.267 85.076 111.715 85.076C112.163 85.076 112.569 84.9547 112.933 84.712C113.307 84.4693 113.601 84.1427 113.815 83.732C114.039 83.312 114.151 82.85 114.151 82.346C114.151 81.842 114.039 81.3847 113.815 80.974C113.601 80.5633 113.307 80.2367 112.933 79.994C112.569 79.7513 112.163 79.63 111.715 79.63C111.267 79.63 110.861 79.756 110.497 80.008C110.133 80.2507 109.839 80.5773 109.615 80.988C109.401 81.3987 109.293 81.8607 109.293 82.374ZM116.89 86V78.692H120.67C121.109 78.692 121.473 78.7807 121.762 78.958C122.051 79.126 122.266 79.3453 122.406 79.616C122.555 79.8867 122.63 80.176 122.63 80.484C122.63 80.876 122.537 81.2307 122.35 81.548C122.163 81.856 121.893 82.0893 121.538 82.248C121.958 82.3693 122.299 82.5887 122.56 82.906C122.821 83.214 122.952 83.5967 122.952 84.054C122.952 84.4647 122.854 84.8147 122.658 85.104C122.462 85.3933 122.187 85.6173 121.832 85.776C121.477 85.9253 121.067 86 120.6 86H116.89ZM118.066 85.132H120.572C120.796 85.132 120.997 85.076 121.174 84.964C121.361 84.852 121.505 84.7027 121.608 84.516C121.711 84.3293 121.762 84.1333 121.762 83.928C121.762 83.704 121.711 83.5033 121.608 83.326C121.515 83.1393 121.379 82.9947 121.202 82.892C121.034 82.78 120.838 82.724 120.614 82.724H118.066V85.132ZM118.066 81.912H120.348C120.572 81.912 120.768 81.856 120.936 81.744C121.104 81.6227 121.235 81.4687 121.328 81.282C121.421 81.0953 121.468 80.8993 121.468 80.694C121.468 80.386 121.365 80.12 121.16 79.896C120.964 79.672 120.707 79.56 120.39 79.56H118.066V81.912ZM123.945 83.886C123.945 83.4193 124.076 83.018 124.337 82.682C124.608 82.3367 124.977 82.0707 125.443 81.884C125.91 81.6973 126.451 81.604 127.067 81.604C127.394 81.604 127.739 81.632 128.103 81.688C128.467 81.7347 128.789 81.8093 129.069 81.912V81.38C129.069 80.82 128.901 80.3813 128.565 80.064C128.229 79.7373 127.753 79.574 127.137 79.574C126.736 79.574 126.349 79.6487 125.975 79.798C125.611 79.938 125.224 80.1433 124.813 80.414L124.365 79.546C124.841 79.2193 125.317 78.9767 125.793 78.818C126.269 78.65 126.764 78.566 127.277 78.566C128.211 78.566 128.948 78.8273 129.489 79.35C130.031 79.8633 130.301 80.582 130.301 81.506V84.6C130.301 84.7493 130.329 84.8613 130.385 84.936C130.451 85.0013 130.553 85.0387 130.693 85.048V86C130.572 86.0187 130.465 86.0327 130.371 86.042C130.287 86.0513 130.217 86.056 130.161 86.056C129.872 86.056 129.653 85.9767 129.503 85.818C129.363 85.6593 129.284 85.4913 129.265 85.314L129.237 84.852C128.92 85.2627 128.505 85.58 127.991 85.804C127.478 86.028 126.969 86.14 126.465 86.14C125.98 86.14 125.546 86.042 125.163 85.846C124.781 85.6407 124.482 85.37 124.267 85.034C124.053 84.6887 123.945 84.306 123.945 83.886ZM128.705 84.404C128.817 84.2733 128.906 84.1427 128.971 84.012C129.037 83.872 129.069 83.7553 129.069 83.662V82.752C128.78 82.64 128.477 82.556 128.159 82.5C127.842 82.4347 127.529 82.402 127.221 82.402C126.596 82.402 126.087 82.528 125.695 82.78C125.313 83.0227 125.121 83.3587 125.121 83.788C125.121 84.0213 125.182 84.25 125.303 84.474C125.434 84.6887 125.621 84.866 125.863 85.006C126.115 85.146 126.423 85.216 126.787 85.216C127.17 85.216 127.534 85.1413 127.879 84.992C128.225 84.8333 128.5 84.6373 128.705 84.404ZM131.725 86L133.797 83.06C133.321 82.9667 132.939 82.7427 132.649 82.388C132.36 82.024 132.215 81.5387 132.215 80.932C132.215 80.4933 132.318 80.106 132.523 79.77C132.729 79.434 133.013 79.168 133.377 78.972C133.751 78.776 134.185 78.678 134.679 78.678H137.675V86H136.443V83.256H135.015L133.083 86H131.725ZM134.763 82.346H136.443V79.644H134.903C134.465 79.644 134.115 79.77 133.853 80.022C133.592 80.2647 133.461 80.5773 133.461 80.96C133.461 81.3427 133.569 81.6693 133.783 81.94C134.007 82.2107 134.334 82.346 134.763 82.346Z" fill="#F9F9F9"/>
<circle cx="41.5" cy="42.5" r="2.5" fill="#5B5B5C"/>
<g clip-path="url(#clip0_1_7884)">
<rect x="214" y="30" width="165" height="102" rx="15" fill="#1C1C1C"/>
<path d="M243.69 69V59.06H247.946C248.385 59.06 248.786 59.1533 249.15 59.34C249.514 59.5173 249.831 59.76 250.102 60.068C250.373 60.3667 250.583 60.7073 250.732 61.09C250.881 61.4633 250.956 61.846 250.956 62.238C250.956 62.6953 250.867 63.1293 250.69 63.54C250.522 63.9507 250.279 64.3007 249.962 64.59C249.654 64.8793 249.29 65.08 248.87 65.192L251.278 69H249.85L247.582 65.43H244.95V69H243.69ZM244.95 64.31H247.96C248.305 64.31 248.604 64.2167 248.856 64.03C249.117 63.834 249.318 63.5773 249.458 63.26C249.607 62.9427 249.682 62.602 249.682 62.238C249.682 61.8647 249.598 61.524 249.43 61.216C249.262 60.8987 249.043 60.6467 248.772 60.46C248.501 60.2733 248.203 60.18 247.876 60.18H244.95V64.31ZM252.516 66.074V61.692H253.748V65.836C253.748 66.5827 253.878 67.1427 254.14 67.516C254.401 67.8893 254.788 68.076 255.302 68.076C255.638 68.076 255.96 68.006 256.268 67.866C256.585 67.7167 256.87 67.5067 257.122 67.236C257.374 66.9653 257.57 66.6433 257.71 66.27V61.692H258.942V67.6C258.942 67.7493 258.97 67.8613 259.026 67.936C259.091 68.0013 259.194 68.0387 259.334 68.048V69C259.194 69.0187 259.082 69.028 258.998 69.028C258.923 69.0373 258.848 69.042 258.774 69.042C258.54 69.042 258.34 68.972 258.172 68.832C258.004 68.6827 257.915 68.5007 257.906 68.286L257.878 67.432C257.56 67.9733 257.131 68.3933 256.59 68.692C256.058 68.9907 255.474 69.14 254.84 69.14C254.074 69.14 253.496 68.8833 253.104 68.37C252.712 67.8473 252.516 67.082 252.516 66.074ZM272.012 69H270.78V64.912C270.78 64.1467 270.654 63.582 270.402 63.218C270.159 62.854 269.795 62.672 269.31 62.672C268.815 62.672 268.367 62.854 267.966 63.218C267.565 63.5727 267.28 64.0347 267.112 64.604V69H265.88V64.912C265.88 64.1373 265.759 63.5727 265.516 63.218C265.273 62.854 264.909 62.672 264.424 62.672C263.939 62.672 263.491 62.8493 263.08 63.204C262.679 63.5493 262.394 64.0113 262.226 64.59V69H260.994V61.692H262.114V63.26C262.413 62.7187 262.8 62.3033 263.276 62.014C263.752 61.7153 264.289 61.566 264.886 61.566C265.493 61.566 265.978 61.734 266.342 62.07C266.706 62.3967 266.93 62.8213 267.014 63.344C267.341 62.7653 267.737 62.3267 268.204 62.028C268.671 61.72 269.203 61.566 269.8 61.566C270.22 61.566 270.57 61.6453 270.85 61.804C271.139 61.9533 271.368 62.168 271.536 62.448C271.704 62.7187 271.825 63.0407 271.9 63.414C271.975 63.7873 272.012 64.1933 272.012 64.632V69ZM273.928 69V61.692H275.16V69H273.928ZM273.928 60.32V58.78H275.16V60.32H273.928ZM283.188 61.146C283.076 61.0153 282.927 60.8893 282.74 60.768C282.553 60.6467 282.343 60.5393 282.11 60.446C281.877 60.3433 281.62 60.264 281.34 60.208C281.069 60.1427 280.785 60.11 280.486 60.11C279.721 60.11 279.156 60.2547 278.792 60.544C278.428 60.8333 278.246 61.23 278.246 61.734C278.246 62.0887 278.339 62.3687 278.526 62.574C278.713 62.7793 278.997 62.9473 279.38 63.078C279.772 63.2087 280.267 63.344 280.864 63.484C281.555 63.6333 282.152 63.8153 282.656 64.03C283.16 64.2447 283.547 64.534 283.818 64.898C284.089 65.2527 284.224 65.7287 284.224 66.326C284.224 66.802 284.131 67.2173 283.944 67.572C283.767 67.9173 283.515 68.2067 283.188 68.44C282.861 68.664 282.479 68.832 282.04 68.944C281.601 69.0467 281.125 69.098 280.612 69.098C280.108 69.098 279.613 69.0467 279.128 68.944C278.652 68.832 278.199 68.6733 277.77 68.468C277.341 68.2627 276.939 68.006 276.566 67.698L277.168 66.634C277.317 66.7927 277.509 66.9513 277.742 67.11C277.985 67.2593 278.255 67.3993 278.554 67.53C278.862 67.6607 279.193 67.768 279.548 67.852C279.903 67.9267 280.267 67.964 280.64 67.964C281.349 67.964 281.9 67.838 282.292 67.586C282.684 67.3247 282.88 66.9467 282.88 66.452C282.88 66.0787 282.768 65.78 282.544 65.556C282.329 65.332 282.007 65.1453 281.578 64.996C281.149 64.8467 280.626 64.6973 280.01 64.548C279.338 64.38 278.773 64.198 278.316 64.002C277.859 63.7967 277.513 63.5307 277.28 63.204C277.056 62.8773 276.944 62.4527 276.944 61.93C276.944 61.2953 277.098 60.7587 277.406 60.32C277.714 59.8813 278.139 59.55 278.68 59.326C279.221 59.102 279.833 58.99 280.514 58.99C280.962 58.99 281.377 59.0367 281.76 59.13C282.152 59.2233 282.516 59.354 282.852 59.522C283.188 59.69 283.496 59.8907 283.776 60.124L283.188 61.146ZM293.049 60.18H289.619V69H288.359V60.18H284.929V59.06H293.049V60.18ZM298.212 69.07C297.512 69.07 296.878 68.93 296.308 68.65C295.739 68.37 295.244 67.992 294.824 67.516C294.414 67.0307 294.096 66.4893 293.872 65.892C293.648 65.2853 293.536 64.6647 293.536 64.03C293.536 63.3673 293.653 62.7373 293.886 62.14C294.129 61.5333 294.46 60.9967 294.88 60.53C295.31 60.054 295.809 59.6807 296.378 59.41C296.948 59.13 297.568 58.99 298.24 58.99C298.94 58.99 299.575 59.1347 300.144 59.424C300.714 59.7133 301.204 60.1007 301.614 60.586C302.025 61.0713 302.342 61.6127 302.566 62.21C302.79 62.8073 302.902 63.4187 302.902 64.044C302.902 64.7067 302.786 65.3413 302.552 65.948C302.319 66.5453 301.988 67.082 301.558 67.558C301.138 68.0247 300.644 68.3933 300.074 68.664C299.505 68.9347 298.884 69.07 298.212 69.07ZM294.81 64.03C294.81 64.534 294.89 65.024 295.048 65.5C295.216 65.9667 295.45 66.382 295.748 66.746C296.047 67.11 296.406 67.3993 296.826 67.614C297.246 67.8287 297.713 67.936 298.226 67.936C298.758 67.936 299.234 67.824 299.654 67.6C300.074 67.376 300.429 67.0773 300.718 66.704C301.017 66.3307 301.241 65.9107 301.39 65.444C301.549 64.9773 301.628 64.506 301.628 64.03C301.628 63.526 301.544 63.0407 301.376 62.574C301.218 62.1073 300.984 61.692 300.676 61.328C300.378 60.9547 300.018 60.6653 299.598 60.46C299.188 60.2453 298.73 60.138 298.226 60.138C297.694 60.138 297.218 60.25 296.798 60.474C296.378 60.6887 296.019 60.9827 295.72 61.356C295.431 61.7293 295.207 62.1493 295.048 62.616C294.89 63.0733 294.81 63.5447 294.81 64.03ZM304.653 69V59.06H308.909C309.348 59.06 309.749 59.1533 310.113 59.34C310.477 59.5173 310.794 59.76 311.065 60.068C311.336 60.3667 311.546 60.7073 311.695 61.09C311.844 61.4633 311.919 61.846 311.919 62.238C311.919 62.6953 311.83 63.1293 311.653 63.54C311.485 63.9507 311.242 64.3007 310.925 64.59C310.617 64.8793 310.253 65.08 309.833 65.192L312.241 69H310.813L308.545 65.43H305.913V69H304.653ZM305.913 64.31H308.923C309.268 64.31 309.567 64.2167 309.819 64.03C310.08 63.834 310.281 63.5773 310.421 63.26C310.57 62.9427 310.645 62.602 310.645 62.238C310.645 61.8647 310.561 61.524 310.393 61.216C310.225 60.8987 310.006 60.6467 309.735 60.46C309.464 60.2733 309.166 60.18 308.839 60.18H305.913V64.31ZM320.602 67.88V69H313.854V59.06H320.476V60.18H315.114V63.4H319.776V64.45H315.114V67.88H320.602ZM325.872 69V59.06H332.438V60.18H327.132V63.498H331.598V64.548H327.132V69H325.872ZM341.664 66.438C341.664 66.9513 341.533 67.3993 341.272 67.782C341.01 68.1647 340.656 68.4633 340.208 68.678C339.769 68.8927 339.284 69 338.752 69H334.034V59.06H338.976C339.442 59.06 339.844 59.186 340.18 59.438C340.525 59.6807 340.786 59.998 340.964 60.39C341.15 60.7727 341.244 61.174 341.244 61.594C341.244 62.0793 341.118 62.5367 340.866 62.966C340.623 63.386 340.273 63.6987 339.816 63.904C340.385 64.072 340.833 64.3847 341.16 64.842C341.496 65.29 341.664 65.822 341.664 66.438ZM340.39 66.214C340.39 65.906 340.32 65.6213 340.18 65.36C340.049 65.0987 339.867 64.8887 339.634 64.73C339.41 64.5713 339.148 64.492 338.85 64.492H335.294V67.908H338.752C339.06 67.908 339.335 67.8287 339.578 67.67C339.83 67.5113 340.026 67.306 340.166 67.054C340.315 66.7927 340.39 66.5127 340.39 66.214ZM335.294 60.152V63.47H338.458C338.756 63.47 339.018 63.3953 339.242 63.246C339.475 63.0967 339.657 62.896 339.788 62.644C339.928 62.392 339.998 62.1167 339.998 61.818C339.998 61.5007 339.932 61.2207 339.802 60.978C339.68 60.726 339.508 60.5253 339.284 60.376C339.069 60.2267 338.822 60.152 338.542 60.152H335.294ZM349.264 61.146C349.152 61.0153 349.003 60.8893 348.816 60.768C348.63 60.6467 348.42 60.5393 348.186 60.446C347.953 60.3433 347.696 60.264 347.416 60.208C347.146 60.1427 346.861 60.11 346.562 60.11C345.797 60.11 345.232 60.2547 344.868 60.544C344.504 60.8333 344.322 61.23 344.322 61.734C344.322 62.0887 344.416 62.3687 344.602 62.574C344.789 62.7793 345.074 62.9473 345.456 63.078C345.848 63.2087 346.343 63.344 346.94 63.484C347.631 63.6333 348.228 63.8153 348.732 64.03C349.236 64.2447 349.624 64.534 349.894 64.898C350.165 65.2527 350.3 65.7287 350.3 66.326C350.3 66.802 350.207 67.2173 350.02 67.572C349.843 67.9173 349.591 68.2067 349.264 68.44C348.938 68.664 348.555 68.832 348.116 68.944C347.678 69.0467 347.202 69.098 346.688 69.098C346.184 69.098 345.69 69.0467 345.204 68.944C344.728 68.832 344.276 68.6733 343.846 68.468C343.417 68.2627 343.016 68.006 342.642 67.698L343.244 66.634C343.394 66.7927 343.585 66.9513 343.818 67.11C344.061 67.2593 344.332 67.3993 344.63 67.53C344.938 67.6607 345.27 67.768 345.624 67.852C345.979 67.9267 346.343 67.964 346.716 67.964C347.426 67.964 347.976 67.838 348.368 67.586C348.76 67.3247 348.956 66.9467 348.956 66.452C348.956 66.0787 348.844 65.78 348.62 65.556C348.406 65.332 348.084 65.1453 347.654 64.996C347.225 64.8467 346.702 64.6973 346.086 64.548C345.414 64.38 344.85 64.198 344.392 64.002C343.935 63.7967 343.59 63.5307 343.356 63.204C343.132 62.8773 343.02 62.4527 343.02 61.93C343.02 61.2953 343.174 60.7587 343.482 60.32C343.79 59.8813 344.215 59.55 344.756 59.326C345.298 59.102 345.909 58.99 346.59 58.99C347.038 58.99 347.454 59.0367 347.836 59.13C348.228 59.2233 348.592 59.354 348.928 59.522C349.264 59.69 349.572 59.8907 349.852 60.124L349.264 61.146Z" fill="#F9F9F9"/>
<path d="M246.607 78.2727V87H245.55V79.2102H241.152V87H240.095V78.2727H246.607ZM250.528 87.1534C250.113 87.1534 249.737 87.0753 249.399 86.919C249.061 86.7599 248.792 86.5312 248.594 86.233C248.395 85.9318 248.295 85.5682 248.295 85.142C248.295 84.767 248.369 84.4631 248.517 84.2301C248.665 83.9943 248.862 83.8097 249.109 83.6761C249.356 83.5426 249.629 83.4432 249.927 83.3778C250.229 83.3097 250.531 83.2557 250.835 83.2159C251.233 83.1648 251.555 83.1264 251.802 83.1009C252.052 83.0724 252.234 83.0256 252.348 82.9602C252.464 82.8949 252.523 82.7812 252.523 82.6193V82.5852C252.523 82.1648 252.407 81.8381 252.177 81.6051C251.95 81.3722 251.605 81.2557 251.142 81.2557C250.662 81.2557 250.285 81.3608 250.013 81.571C249.74 81.7812 249.548 82.0057 249.437 82.2443L248.483 81.9034C248.653 81.5057 248.881 81.196 249.165 80.9744C249.452 80.75 249.764 80.5937 250.102 80.5057C250.443 80.4148 250.778 80.3693 251.108 80.3693C251.318 80.3693 251.559 80.3949 251.832 80.446C252.108 80.4943 252.373 80.5952 252.629 80.7486C252.888 80.902 253.102 81.1335 253.273 81.4432C253.443 81.7528 253.528 82.1676 253.528 82.6875V87H252.523V86.1136H252.471C252.403 86.2557 252.29 86.4077 252.131 86.5696C251.971 86.7315 251.76 86.8693 251.496 86.983C251.231 87.0966 250.909 87.1534 250.528 87.1534ZM250.682 86.25C251.079 86.25 251.415 86.1719 251.687 86.0156C251.963 85.8594 252.17 85.6577 252.309 85.4105C252.452 85.1634 252.523 84.9034 252.523 84.6307V83.7102C252.48 83.7614 252.386 83.8082 252.241 83.8509C252.099 83.8906 251.934 83.9261 251.747 83.9574C251.562 83.9858 251.382 84.0114 251.206 84.0341C251.032 84.054 250.892 84.071 250.784 84.0852C250.523 84.1193 250.278 84.1747 250.051 84.2514C249.827 84.3253 249.645 84.4375 249.506 84.5881C249.369 84.7358 249.301 84.9375 249.301 85.1932C249.301 85.5426 249.43 85.8068 249.689 85.9858C249.95 86.1619 250.281 86.25 250.682 86.25ZM255.364 89.4545V80.4545H256.335V81.4943H256.455C256.529 81.3807 256.631 81.2358 256.762 81.0597C256.895 80.8807 257.085 80.7216 257.333 80.5824C257.583 80.4403 257.921 80.3693 258.347 80.3693C258.898 80.3693 259.384 80.5071 259.804 80.7827C260.225 81.0582 260.553 81.4489 260.789 81.9545C261.024 82.4602 261.142 83.0568 261.142 83.7443C261.142 84.4375 261.024 85.0384 260.789 85.5469C260.553 86.0526 260.226 86.4446 259.808 86.723C259.391 86.9986 258.909 87.1364 258.364 87.1364C257.943 87.1364 257.607 87.0668 257.354 86.9276C257.101 86.7855 256.906 86.625 256.77 86.446C256.634 86.2642 256.529 86.1136 256.455 85.9943H256.369V89.4545H255.364ZM256.352 83.7273C256.352 84.2216 256.425 84.6577 256.57 85.0355C256.715 85.4105 256.926 85.7045 257.205 85.9176C257.483 86.1278 257.824 86.233 258.227 86.233C258.648 86.233 258.999 86.1222 259.28 85.9006C259.564 85.6761 259.777 85.375 259.919 84.9972C260.064 84.6165 260.137 84.1932 260.137 83.7273C260.137 83.267 260.066 82.8523 259.923 82.483C259.784 82.1108 259.573 81.8168 259.289 81.6009C259.007 81.3821 258.654 81.2727 258.227 81.2727C257.818 81.2727 257.475 81.3764 257.196 81.5838C256.918 81.7884 256.708 82.0753 256.566 82.4446C256.423 82.8111 256.352 83.2386 256.352 83.7273ZM265.335 89.233V78.2727H266.341V89.233H265.335ZM265.335 87.1364C264.892 87.1364 264.489 87.0568 264.125 86.8977C263.762 86.7358 263.449 86.5071 263.188 86.2116C262.926 85.9134 262.725 85.5568 262.583 85.142C262.441 84.7273 262.369 84.267 262.369 83.7614C262.369 83.25 262.441 82.7869 262.583 82.3722C262.725 81.9545 262.926 81.5966 263.188 81.2983C263.449 81 263.762 80.7713 264.125 80.6122C264.489 80.4503 264.892 80.3693 265.335 80.3693H265.642V87.1364H265.335ZM265.335 86.233H265.506V81.2727H265.335C265 81.2727 264.709 81.3409 264.462 81.4773C264.215 81.6108 264.01 81.794 263.848 82.027C263.689 82.2571 263.57 82.5213 263.49 82.8196C263.414 83.1179 263.375 83.4318 263.375 83.7614C263.375 84.1989 263.445 84.6051 263.584 84.9801C263.723 85.3551 263.938 85.6577 264.227 85.8878C264.517 86.1179 264.887 86.233 265.335 86.233ZM266.341 87.1364H266.034V80.3693H266.341C266.784 80.3693 267.188 80.4503 267.551 80.6122C267.915 80.7713 268.227 81 268.489 81.2983C268.75 81.5966 268.952 81.9545 269.094 82.3722C269.236 82.7869 269.307 83.25 269.307 83.7614C269.307 84.267 269.236 84.7273 269.094 85.142C268.952 85.5568 268.75 85.9134 268.489 86.2116C268.227 86.5071 267.915 86.7358 267.551 86.8977C267.188 87.0568 266.784 87.1364 266.341 87.1364ZM266.341 86.233C266.679 86.233 266.97 86.1676 267.215 86.0369C267.462 85.9034 267.665 85.7216 267.824 85.4915C267.986 85.2585 268.105 84.9943 268.182 84.6989C268.262 84.4006 268.301 84.0881 268.301 83.7614C268.301 83.3239 268.232 82.9162 268.093 82.5384C267.953 82.1605 267.739 81.8551 267.449 81.6222C267.159 81.3892 266.79 81.2727 266.341 81.2727H266.171V86.233H266.341ZM273.981 83.3182V84.2557H270.52V83.3182H273.981ZM271.373 80.4545V87H270.367V80.4545H271.373ZM275.992 87.1364C275.401 87.1364 274.883 86.9957 274.437 86.7145C273.993 86.4332 273.647 86.0398 273.397 85.5341C273.15 85.0284 273.026 84.4375 273.026 83.7614C273.026 83.0795 273.15 82.4844 273.397 81.9759C273.647 81.4673 273.993 81.0724 274.437 80.7912C274.883 80.5099 275.401 80.3693 275.992 80.3693C276.583 80.3693 277.1 80.5099 277.543 80.7912C277.989 81.0724 278.336 81.4673 278.583 81.9759C278.833 82.4844 278.958 83.0795 278.958 83.7614C278.958 84.4375 278.833 85.0284 278.583 85.5341C278.336 86.0398 277.989 86.4332 277.543 86.7145C277.1 86.9957 276.583 87.1364 275.992 87.1364ZM275.992 86.233C276.441 86.233 276.81 86.1179 277.1 85.8878C277.39 85.6577 277.604 85.3551 277.743 84.9801C277.883 84.6051 277.952 84.1989 277.952 83.7614C277.952 83.3239 277.883 82.9162 277.743 82.5384C277.604 82.1605 277.39 81.8551 277.1 81.6222C276.81 81.3892 276.441 81.2727 275.992 81.2727C275.543 81.2727 275.174 81.3892 274.884 81.6222C274.594 81.8551 274.38 82.1605 274.241 82.5384C274.101 82.9162 274.032 83.3239 274.032 83.7614C274.032 84.1989 274.101 84.6051 274.241 84.9801C274.38 85.3551 274.594 85.6577 274.884 85.8878C275.174 86.1179 275.543 86.233 275.992 86.233ZM284.174 85.6364L286.458 80.4545H287.412L284.583 87H283.765L280.986 80.4545H281.924L284.174 85.6364ZM281.6 80.4545V87H280.594V80.4545H281.6ZM286.748 87V80.4545H287.753V87H286.748ZM292.339 87.1364C291.708 87.1364 291.164 86.9972 290.706 86.7188C290.252 86.4375 289.901 86.0455 289.654 85.5426C289.41 85.0369 289.287 84.4489 289.287 83.7784C289.287 83.108 289.41 82.517 289.654 82.0057C289.901 81.4915 290.245 81.0909 290.685 80.804C291.128 80.5142 291.645 80.3693 292.236 80.3693C292.577 80.3693 292.914 80.4261 293.246 80.5398C293.579 80.6534 293.881 80.8381 294.154 81.0938C294.427 81.3466 294.644 81.6818 294.806 82.0994C294.968 82.517 295.049 83.0312 295.049 83.642V84.0682H290.003V83.1989H294.026C294.026 82.8295 293.952 82.5 293.805 82.2102C293.66 81.9205 293.452 81.6918 293.182 81.5241C292.915 81.3565 292.6 81.2727 292.236 81.2727C291.836 81.2727 291.489 81.3722 291.197 81.571C290.907 81.767 290.684 82.0227 290.528 82.3381C290.371 82.6534 290.293 82.9915 290.293 83.3523V83.9318C290.293 84.4261 290.378 84.8452 290.549 85.1889C290.722 85.5298 290.962 85.7898 291.269 85.9688C291.576 86.1449 291.932 86.233 292.339 86.233C292.603 86.233 292.841 86.196 293.055 86.1222C293.27 86.0455 293.456 85.9318 293.613 85.7812C293.769 85.6278 293.89 85.4375 293.975 85.2102L294.947 85.483C294.844 85.8125 294.672 86.1023 294.431 86.3523C294.189 86.5994 293.891 86.7926 293.536 86.9318C293.181 87.0682 292.782 87.1364 292.339 87.1364ZM296.579 89.4545V80.4545H297.55V81.4943H297.67C297.743 81.3807 297.846 81.2358 297.976 81.0597C298.11 80.8807 298.3 80.7216 298.547 80.5824C298.797 80.4403 299.135 80.3693 299.562 80.3693C300.113 80.3693 300.599 80.5071 301.019 80.7827C301.439 81.0582 301.768 81.4489 302.003 81.9545C302.239 82.4602 302.357 83.0568 302.357 83.7443C302.357 84.4375 302.239 85.0384 302.003 85.5469C301.768 86.0526 301.441 86.4446 301.023 86.723C300.606 86.9986 300.124 87.1364 299.579 87.1364C299.158 87.1364 298.822 87.0668 298.569 86.9276C298.316 86.7855 298.121 86.625 297.985 86.446C297.849 86.2642 297.743 86.1136 297.67 85.9943H297.584V89.4545H296.579ZM297.567 83.7273C297.567 84.2216 297.64 84.6577 297.785 85.0355C297.93 85.4105 298.141 85.7045 298.42 85.9176C298.698 86.1278 299.039 86.233 299.442 86.233C299.863 86.233 300.214 86.1222 300.495 85.9006C300.779 85.6761 300.992 85.375 301.134 84.9972C301.279 84.6165 301.351 84.1932 301.351 83.7273C301.351 83.267 301.28 82.8523 301.138 82.483C300.999 82.1108 300.787 81.8168 300.503 81.6009C300.222 81.3821 299.868 81.2727 299.442 81.2727C299.033 81.2727 298.689 81.3764 298.411 81.5838C298.133 81.7884 297.922 82.0753 297.78 82.4446C297.638 82.8111 297.567 83.2386 297.567 83.7273ZM308.272 83.267V84.2045H304.658V83.267H308.272ZM304.897 80.4545V87H303.891V80.4545H304.897ZM309.039 80.4545V87H308.033V80.4545H309.039ZM312.802 87.1534C312.387 87.1534 312.01 87.0753 311.672 86.919C311.334 86.7599 311.066 86.5312 310.867 86.233C310.668 85.9318 310.569 85.5682 310.569 85.142C310.569 84.767 310.643 84.4631 310.79 84.2301C310.938 83.9943 311.135 83.8097 311.383 83.6761C311.63 83.5426 311.903 83.4432 312.201 83.3778C312.502 83.3097 312.805 83.2557 313.108 83.2159C313.506 83.1648 313.829 83.1264 314.076 83.1009C314.326 83.0724 314.508 83.0256 314.621 82.9602C314.738 82.8949 314.796 82.7812 314.796 82.6193V82.5852C314.796 82.1648 314.681 81.8381 314.451 81.6051C314.224 81.3722 313.878 81.2557 313.415 81.2557C312.935 81.2557 312.559 81.3608 312.286 81.571C312.013 81.7812 311.822 82.0057 311.711 82.2443L310.756 81.9034C310.927 81.5057 311.154 81.196 311.438 80.9744C311.725 80.75 312.037 80.5937 312.376 80.5057C312.716 80.4148 313.052 80.3693 313.381 80.3693C313.591 80.3693 313.833 80.3949 314.106 80.446C314.381 80.4943 314.647 80.5952 314.903 80.7486C315.161 80.902 315.376 81.1335 315.546 81.4432C315.716 81.7528 315.802 82.1676 315.802 82.6875V87H314.796V86.1136H314.745C314.677 86.2557 314.563 86.4077 314.404 86.5696C314.245 86.7315 314.033 86.8693 313.769 86.983C313.505 87.0966 313.182 87.1534 312.802 87.1534ZM312.955 86.25C313.353 86.25 313.688 86.1719 313.961 86.0156C314.236 85.8594 314.444 85.6577 314.583 85.4105C314.725 85.1634 314.796 84.9034 314.796 84.6307V83.7102C314.753 83.7614 314.66 83.8082 314.515 83.8509C314.373 83.8906 314.208 83.9261 314.02 83.9574C313.836 83.9858 313.655 84.0114 313.479 84.0341C313.306 84.054 313.165 84.071 313.057 84.0852C312.796 84.1193 312.552 84.1747 312.324 84.2514C312.1 84.3253 311.918 84.4375 311.779 84.5881C311.643 84.7358 311.574 84.9375 311.574 85.1932C311.574 85.5426 311.704 85.8068 311.962 85.9858C312.224 86.1619 312.555 86.25 312.955 86.25ZM321.575 87V81.375H319.836C319.444 81.375 319.136 81.4659 318.911 81.6477C318.687 81.8295 318.575 82.0795 318.575 82.3977C318.575 82.7102 318.676 82.956 318.877 83.1349C319.082 83.3139 319.362 83.4034 319.717 83.4034H321.83V84.3409H319.717C319.274 84.3409 318.892 84.2628 318.57 84.1065C318.249 83.9503 318.002 83.7273 317.829 83.4375C317.656 83.1449 317.569 82.7983 317.569 82.3977C317.569 81.9943 317.66 81.6477 317.842 81.358C318.024 81.0682 318.284 80.8452 318.622 80.6889C318.963 80.5327 319.367 80.4545 319.836 80.4545H322.529V87H321.575ZM317.211 87L319.069 83.7443H320.16L318.302 87H317.211ZM327.751 87V80.4545H330.427C331.131 80.4545 331.691 80.6136 332.106 80.9318C332.52 81.25 332.728 81.6705 332.728 82.1932C332.728 82.5909 332.61 82.8991 332.374 83.1179C332.138 83.3338 331.836 83.4801 331.466 83.5568C331.708 83.5909 331.942 83.6761 332.17 83.8125C332.4 83.9489 332.59 84.1364 332.741 84.375C332.891 84.6108 332.966 84.9006 332.966 85.2443C332.966 85.5795 332.881 85.8793 332.711 86.1435C332.54 86.4077 332.296 86.6165 331.978 86.7699C331.66 86.9233 331.279 87 330.836 87H327.751ZM328.705 86.0795H330.836C331.182 86.0795 331.454 85.9972 331.65 85.8324C331.846 85.6676 331.944 85.4432 331.944 85.1591C331.944 84.821 331.846 84.5554 331.65 84.3622C331.454 84.1662 331.182 84.0682 330.836 84.0682H328.705V86.0795ZM328.705 83.1989H330.427C330.697 83.1989 330.928 83.1619 331.121 83.0881C331.314 83.0114 331.462 82.9034 331.564 82.7642C331.67 82.6222 331.722 82.4545 331.722 82.2614C331.722 81.9858 331.607 81.7699 331.377 81.6136C331.147 81.4545 330.83 81.375 330.427 81.375H328.705V83.1989ZM337.148 87.1364C336.557 87.1364 336.039 86.9957 335.593 86.7145C335.149 86.4332 334.803 86.0398 334.553 85.5341C334.306 85.0284 334.182 84.4375 334.182 83.7614C334.182 83.0795 334.306 82.4844 334.553 81.9759C334.803 81.4673 335.149 81.0724 335.593 80.7912C336.039 80.5099 336.557 80.3693 337.148 80.3693C337.739 80.3693 338.256 80.5099 338.699 80.7912C339.145 81.0724 339.492 81.4673 339.739 81.9759C339.989 82.4844 340.114 83.0795 340.114 83.7614C340.114 84.4375 339.989 85.0284 339.739 85.5341C339.492 86.0398 339.145 86.4332 338.699 86.7145C338.256 86.9957 337.739 87.1364 337.148 87.1364ZM337.148 86.233C337.597 86.233 337.966 86.1179 338.256 85.8878C338.546 85.6577 338.76 85.3551 338.899 84.9801C339.039 84.6051 339.108 84.1989 339.108 83.7614C339.108 83.3239 339.039 82.9162 338.899 82.5384C338.76 82.1605 338.546 81.8551 338.256 81.6222C337.966 81.3892 337.597 81.2727 337.148 81.2727C336.699 81.2727 336.33 81.3892 336.04 81.6222C335.75 81.8551 335.536 82.1605 335.396 82.5384C335.257 82.9162 335.188 83.3239 335.188 83.7614C335.188 84.1989 335.257 84.6051 335.396 84.9801C335.536 85.3551 335.75 85.6577 336.04 85.8878C336.33 86.1179 336.699 86.233 337.148 86.233ZM340.95 88.875V86.0625H341.496C341.629 85.9233 341.744 85.7727 341.841 85.6108C341.937 85.4489 342.021 85.2571 342.092 85.0355C342.166 84.8111 342.229 84.5384 342.28 84.2173C342.331 83.8935 342.376 83.5028 342.416 83.0455L342.638 80.4545H346.797V86.0625H347.802V88.875H346.797V87H341.956V88.875H340.95ZM342.638 86.0625H345.791V81.392H343.575L343.405 83.0455C343.334 83.7301 343.246 84.3281 343.14 84.8395C343.035 85.3509 342.868 85.7585 342.638 86.0625ZM351.063 87.1534C350.649 87.1534 350.272 87.0753 349.934 86.919C349.596 86.7599 349.328 86.5312 349.129 86.233C348.93 85.9318 348.83 85.5682 348.83 85.142C348.83 84.767 348.904 84.4631 349.052 84.2301C349.2 83.9943 349.397 83.8097 349.644 83.6761C349.892 83.5426 350.164 83.4432 350.463 83.3778C350.764 83.3097 351.066 83.2557 351.37 83.2159C351.768 83.1648 352.09 83.1264 352.338 83.1009C352.588 83.0724 352.769 83.0256 352.883 82.9602C352.999 82.8949 353.058 82.7812 353.058 82.6193V82.5852C353.058 82.1648 352.943 81.8381 352.713 81.6051C352.485 81.3722 352.14 81.2557 351.677 81.2557C351.197 81.2557 350.82 81.3608 350.548 81.571C350.275 81.7812 350.083 82.0057 349.972 82.2443L349.018 81.9034C349.188 81.5057 349.416 81.196 349.7 80.9744C349.987 80.75 350.299 80.5937 350.637 80.5057C350.978 80.4148 351.313 80.3693 351.643 80.3693C351.853 80.3693 352.095 80.3949 352.367 80.446C352.643 80.4943 352.909 80.5952 353.164 80.7486C353.423 80.902 353.637 81.1335 353.808 81.4432C353.978 81.7528 354.063 82.1676 354.063 82.6875V87H353.058V86.1136H353.007C352.938 86.2557 352.825 86.4077 352.666 86.5696C352.507 86.7315 352.295 86.8693 352.031 86.983C351.767 87.0966 351.444 87.1534 351.063 87.1534ZM351.217 86.25C351.615 86.25 351.95 86.1719 352.222 86.0156C352.498 85.8594 352.705 85.6577 352.845 85.4105C352.987 85.1634 353.058 84.9034 353.058 84.6307V83.7102C353.015 83.7614 352.921 83.8082 352.776 83.8509C352.634 83.8906 352.47 83.9261 352.282 83.9574C352.097 83.9858 351.917 84.0114 351.741 84.0341C351.568 84.054 351.427 84.071 351.319 84.0852C351.058 84.1193 350.813 84.1747 350.586 84.2514C350.362 84.3253 350.18 84.4375 350.041 84.5881C349.904 84.7358 349.836 84.9375 349.836 85.1932C349.836 85.5426 349.965 85.8068 350.224 85.9858C350.485 86.1619 350.816 86.25 351.217 86.25ZM237.799 104V95.2727H238.856V103.062H242.913V104H237.799ZM247.157 104.136C246.526 104.136 245.982 103.997 245.525 103.719C245.07 103.438 244.719 103.045 244.472 102.543C244.228 102.037 244.106 101.449 244.106 100.778C244.106 100.108 244.228 99.517 244.472 99.0057C244.719 98.4915 245.063 98.0909 245.504 97.804C245.947 97.5142 246.464 97.3693 247.055 97.3693C247.396 97.3693 247.732 97.4261 248.065 97.5398C248.397 97.6534 248.7 97.8381 248.972 98.0938C249.245 98.3466 249.462 98.6818 249.624 99.0994C249.786 99.517 249.867 100.031 249.867 100.642V101.068H244.822V100.199H248.844C248.844 99.8295 248.771 99.5 248.623 99.2102C248.478 98.9205 248.271 98.6918 248.001 98.5241C247.734 98.3565 247.418 98.2727 247.055 98.2727C246.654 98.2727 246.308 98.3722 246.015 98.571C245.725 98.767 245.502 99.0227 245.346 99.3381C245.19 99.6534 245.112 99.9915 245.112 100.352V100.932C245.112 101.426 245.197 101.845 245.367 102.189C245.54 102.53 245.781 102.79 246.087 102.969C246.394 103.145 246.751 103.233 247.157 103.233C247.421 103.233 247.66 103.196 247.873 103.122C248.089 103.045 248.275 102.932 248.431 102.781C248.587 102.628 248.708 102.437 248.793 102.21L249.765 102.483C249.663 102.812 249.491 103.102 249.249 103.352C249.008 103.599 248.71 103.793 248.354 103.932C247.999 104.068 247.6 104.136 247.157 104.136ZM254.908 104V95.2727H255.965V103.062H260.022V104H254.908ZM263.448 104.153C263.033 104.153 262.657 104.075 262.319 103.919C261.981 103.76 261.712 103.531 261.513 103.233C261.315 102.932 261.215 102.568 261.215 102.142C261.215 101.767 261.289 101.463 261.437 101.23C261.585 100.994 261.782 100.81 262.029 100.676C262.276 100.543 262.549 100.443 262.847 100.378C263.148 100.31 263.451 100.256 263.755 100.216C264.153 100.165 264.475 100.126 264.722 100.101C264.972 100.072 265.154 100.026 265.268 99.9602C265.384 99.8949 265.442 99.7812 265.442 99.6193V99.5852C265.442 99.1648 265.327 98.8381 265.097 98.6051C264.87 98.3722 264.525 98.2557 264.062 98.2557C263.582 98.2557 263.205 98.3608 262.933 98.571C262.66 98.7812 262.468 99.0057 262.357 99.2443L261.403 98.9034C261.573 98.5057 261.8 98.196 262.085 97.9744C262.371 97.75 262.684 97.5937 263.022 97.5057C263.363 97.4148 263.698 97.3693 264.028 97.3693C264.238 97.3693 264.479 97.3949 264.752 97.446C265.028 97.4943 265.293 97.5952 265.549 97.7486C265.808 97.902 266.022 98.1335 266.192 98.4432C266.363 98.7528 266.448 99.1676 266.448 99.6875V104H265.442V103.114H265.391C265.323 103.256 265.21 103.408 265.05 103.57C264.891 103.732 264.68 103.869 264.415 103.983C264.151 104.097 263.829 104.153 263.448 104.153ZM263.602 103.25C263.999 103.25 264.335 103.172 264.607 103.016C264.883 102.859 265.09 102.658 265.229 102.411C265.371 102.163 265.442 101.903 265.442 101.631V100.71C265.4 100.761 265.306 100.808 265.161 100.851C265.019 100.891 264.854 100.926 264.667 100.957C264.482 100.986 264.302 101.011 264.126 101.034C263.952 101.054 263.812 101.071 263.704 101.085C263.442 101.119 263.198 101.175 262.971 101.251C262.746 101.325 262.565 101.437 262.425 101.588C262.289 101.736 262.221 101.937 262.221 102.193C262.221 102.543 262.35 102.807 262.609 102.986C262.87 103.162 263.201 103.25 263.602 103.25ZM268.42 104V95.2727H269.426V98.4943H269.511C269.585 98.3807 269.687 98.2358 269.818 98.0597C269.951 97.8807 270.142 97.7216 270.389 97.5824C270.639 97.4403 270.977 97.3693 271.403 97.3693C271.954 97.3693 272.44 97.5071 272.86 97.7827C273.281 98.0582 273.609 98.4489 273.845 98.9545C274.081 99.4602 274.199 100.057 274.199 100.744C274.199 101.438 274.081 102.038 273.845 102.547C273.609 103.053 273.282 103.445 272.865 103.723C272.447 103.999 271.966 104.136 271.42 104.136C271 104.136 270.663 104.067 270.41 103.928C270.157 103.786 269.963 103.625 269.826 103.446C269.69 103.264 269.585 103.114 269.511 102.994H269.392V104H268.42ZM269.409 100.727C269.409 101.222 269.481 101.658 269.626 102.036C269.771 102.411 269.983 102.705 270.261 102.918C270.539 103.128 270.88 103.233 271.284 103.233C271.704 103.233 272.055 103.122 272.336 102.901C272.62 102.676 272.833 102.375 272.975 101.997C273.12 101.616 273.193 101.193 273.193 100.727C273.193 100.267 273.122 99.8523 272.98 99.483C272.841 99.1108 272.629 98.8168 272.345 98.6009C272.064 98.3821 271.71 98.2727 271.284 98.2727C270.875 98.2727 270.531 98.3764 270.252 98.5838C269.974 98.7884 269.764 99.0753 269.622 99.4446C269.48 99.8111 269.409 100.239 269.409 100.727ZM278.396 104.136C277.805 104.136 277.287 103.996 276.841 103.714C276.397 103.433 276.051 103.04 275.801 102.534C275.554 102.028 275.43 101.437 275.43 100.761C275.43 100.08 275.554 99.4844 275.801 98.9759C276.051 98.4673 276.397 98.0724 276.841 97.7912C277.287 97.5099 277.805 97.3693 278.396 97.3693C278.987 97.3693 279.504 97.5099 279.947 97.7912C280.393 98.0724 280.74 98.4673 280.987 98.9759C281.237 99.4844 281.362 100.08 281.362 100.761C281.362 101.437 281.237 102.028 280.987 102.534C280.74 103.04 280.393 103.433 279.947 103.714C279.504 103.996 278.987 104.136 278.396 104.136ZM278.396 103.233C278.845 103.233 279.214 103.118 279.504 102.888C279.794 102.658 280.008 102.355 280.147 101.98C280.287 101.605 280.356 101.199 280.356 100.761C280.356 100.324 280.287 99.9162 280.147 99.5384C280.008 99.1605 279.794 98.8551 279.504 98.6222C279.214 98.3892 278.845 98.2727 278.396 98.2727C277.947 98.2727 277.578 98.3892 277.288 98.6222C276.998 98.8551 276.784 99.1605 276.645 99.5384C276.505 99.9162 276.436 100.324 276.436 100.761C276.436 101.199 276.505 101.605 276.645 101.98C276.784 102.355 276.998 102.658 277.288 102.888C277.578 103.118 277.947 103.233 278.396 103.233ZM286.766 104H285.658L288.863 95.2727H289.954L293.158 104H292.05L289.442 96.6534H289.374L286.766 104ZM287.175 100.591H291.641V101.528H287.175V100.591ZM295.387 95.2727V104H294.381V95.2727H295.387ZM299.701 104.136C299.155 104.136 298.674 103.999 298.256 103.723C297.838 103.445 297.512 103.053 297.276 102.547C297.04 102.038 296.922 101.438 296.922 100.744C296.922 100.057 297.04 99.4602 297.276 98.9545C297.512 98.4489 297.84 98.0582 298.26 97.7827C298.681 97.5071 299.167 97.3693 299.718 97.3693C300.144 97.3693 300.48 97.4403 300.728 97.5824C300.978 97.7216 301.168 97.8807 301.299 98.0597C301.432 98.2358 301.536 98.3807 301.61 98.4943H301.695V95.2727H302.701V104H301.729V102.994H301.61C301.536 103.114 301.431 103.264 301.294 103.446C301.158 103.625 300.963 103.786 300.711 103.928C300.458 104.067 300.121 104.136 299.701 104.136ZM299.837 103.233C300.24 103.233 300.581 103.128 300.86 102.918C301.138 102.705 301.35 102.411 301.495 102.036C301.64 101.658 301.712 101.222 301.712 100.727C301.712 100.239 301.641 99.8111 301.499 99.4446C301.357 99.0753 301.147 98.7884 300.868 98.5838C300.59 98.3764 300.246 98.2727 299.837 98.2727C299.411 98.2727 299.056 98.3821 298.772 98.6009C298.49 98.8168 298.279 99.1108 298.137 99.483C297.998 99.8523 297.928 100.267 297.928 100.727C297.928 101.193 297.999 101.616 298.141 101.997C298.286 102.375 298.499 102.676 298.78 102.901C299.064 103.122 299.417 103.233 299.837 103.233ZM307.426 104.136C306.796 104.136 306.252 103.997 305.794 103.719C305.34 103.438 304.989 103.045 304.742 102.543C304.498 102.037 304.375 101.449 304.375 100.778C304.375 100.108 304.498 99.517 304.742 99.0057C304.989 98.4915 305.333 98.0909 305.773 97.804C306.216 97.5142 306.733 97.3693 307.324 97.3693C307.665 97.3693 308.002 97.4261 308.334 97.5398C308.667 97.6534 308.969 97.8381 309.242 98.0938C309.515 98.3466 309.732 98.6818 309.894 99.0994C310.056 99.517 310.137 100.031 310.137 100.642V101.068H305.091V100.199H309.114C309.114 99.8295 309.04 99.5 308.892 99.2102C308.748 98.9205 308.54 98.6918 308.27 98.5241C308.003 98.3565 307.688 98.2727 307.324 98.2727C306.924 98.2727 306.577 98.3722 306.284 98.571C305.995 98.767 305.772 99.0227 305.615 99.3381C305.459 99.6534 305.381 99.9915 305.381 100.352V100.932C305.381 101.426 305.466 101.845 305.637 102.189C305.81 102.53 306.05 102.79 306.357 102.969C306.664 103.145 307.02 103.233 307.426 103.233C307.691 103.233 307.929 103.196 308.142 103.122C308.358 103.045 308.544 102.932 308.701 102.781C308.857 102.628 308.978 102.437 309.063 102.21L310.034 102.483C309.932 102.812 309.76 103.102 309.519 103.352C309.277 103.599 308.979 103.793 308.624 103.932C308.269 104.068 307.87 104.136 307.426 104.136ZM312.672 100.062V104H311.667V95.2727H312.672V98.4773H312.757C312.911 98.1392 313.141 97.8707 313.448 97.6719C313.757 97.4702 314.169 97.3693 314.684 97.3693C315.13 97.3693 315.52 97.4588 315.855 97.6378C316.191 97.8139 316.451 98.0852 316.635 98.4517C316.823 98.8153 316.917 99.2784 316.917 99.8409V104H315.911V99.9091C315.911 99.3892 315.776 98.9872 315.506 98.7031C315.239 98.4162 314.868 98.2727 314.394 98.2727C314.064 98.2727 313.769 98.3423 313.507 98.4815C313.249 98.6207 313.044 98.8239 312.894 99.0909C312.746 99.358 312.672 99.6818 312.672 100.062ZM319.17 106.455C318.999 106.455 318.847 106.44 318.714 106.412C318.58 106.386 318.488 106.361 318.437 106.335L318.692 105.449C318.937 105.511 319.153 105.534 319.34 105.517C319.528 105.5 319.694 105.416 319.839 105.266C319.987 105.118 320.121 104.878 320.244 104.545L320.431 104.034L318.011 97.4545H319.102L320.908 102.67H320.977L322.783 97.4545H323.874L321.096 104.955C320.971 105.293 320.816 105.572 320.631 105.794C320.447 106.018 320.232 106.185 319.988 106.293C319.746 106.401 319.474 106.455 319.17 106.455ZM327.439 104.136C326.893 104.136 326.412 103.999 325.994 103.723C325.577 103.445 325.25 103.053 325.014 102.547C324.778 102.038 324.661 101.438 324.661 100.744C324.661 100.057 324.778 99.4602 325.014 98.9545C325.25 98.4489 325.578 98.0582 325.999 97.7827C326.419 97.5071 326.905 97.3693 327.456 97.3693C327.882 97.3693 328.219 97.4403 328.466 97.5824C328.716 97.7216 328.906 97.8807 329.037 98.0597C329.17 98.2358 329.274 98.3807 329.348 98.4943H329.433V95.2727H330.439V104H329.467V102.994H329.348C329.274 103.114 329.169 103.264 329.033 103.446C328.896 103.625 328.702 103.786 328.449 103.928C328.196 104.067 327.859 104.136 327.439 104.136ZM327.575 103.233C327.979 103.233 328.32 103.128 328.598 102.918C328.876 102.705 329.088 102.411 329.233 102.036C329.378 101.658 329.45 101.222 329.45 100.727C329.45 100.239 329.379 99.8111 329.237 99.4446C329.095 99.0753 328.885 98.7884 328.607 98.5838C328.328 98.3764 327.984 98.2727 327.575 98.2727C327.149 98.2727 326.794 98.3821 326.51 98.6009C326.229 98.8168 326.017 99.1108 325.875 99.483C325.736 99.8523 325.666 100.267 325.666 100.727C325.666 101.193 325.737 101.616 325.879 101.997C326.024 102.375 326.237 102.676 326.518 102.901C326.803 103.122 327.155 103.233 327.575 103.233ZM335.165 104.136C334.534 104.136 333.99 103.997 333.533 103.719C333.078 103.438 332.727 103.045 332.48 102.543C332.236 102.037 332.114 101.449 332.114 100.778C332.114 100.108 332.236 99.517 332.48 99.0057C332.727 98.4915 333.071 98.0909 333.511 97.804C333.955 97.5142 334.472 97.3693 335.062 97.3693C335.403 97.3693 335.74 97.4261 336.072 97.5398C336.405 97.6534 336.707 97.8381 336.98 98.0938C337.253 98.3466 337.47 98.6818 337.632 99.0994C337.794 99.517 337.875 100.031 337.875 100.642V101.068H332.83V100.199H336.852C336.852 99.8295 336.778 99.5 336.631 99.2102C336.486 98.9205 336.278 98.6918 336.009 98.5241C335.741 98.3565 335.426 98.2727 335.062 98.2727C334.662 98.2727 334.315 98.3722 334.023 98.571C333.733 98.767 333.51 99.0227 333.354 99.3381C333.197 99.6534 333.119 99.9915 333.119 100.352V100.932C333.119 101.426 333.205 101.845 333.375 102.189C333.548 102.53 333.788 102.79 334.095 102.969C334.402 103.145 334.759 103.233 335.165 103.233C335.429 103.233 335.668 103.196 335.881 103.122C336.097 103.045 336.283 102.932 336.439 102.781C336.595 102.628 336.716 102.437 336.801 102.21L337.773 102.483C337.67 102.812 337.499 103.102 337.257 103.352C337.016 103.599 336.717 103.793 336.362 103.932C336.007 104.068 335.608 104.136 335.165 104.136ZM342.558 102.21V101.341L346.393 95.2727H347.024V96.6193H346.598L343.7 101.205V101.273H348.865V102.21H342.558ZM346.666 104V101.946V101.541V95.2727H347.672V104H346.666ZM351.212 104.068C351.002 104.068 350.821 103.993 350.671 103.842C350.52 103.692 350.445 103.511 350.445 103.301C350.445 103.091 350.52 102.911 350.671 102.76C350.821 102.609 351.002 102.534 351.212 102.534C351.422 102.534 351.603 102.609 351.753 102.76C351.904 102.911 351.979 103.091 351.979 103.301C351.979 103.44 351.944 103.568 351.873 103.685C351.804 103.801 351.712 103.895 351.596 103.966C351.482 104.034 351.354 104.068 351.212 104.068ZM354.485 104.068C354.275 104.068 354.094 103.993 353.944 103.842C353.793 103.692 353.718 103.511 353.718 103.301C353.718 103.091 353.793 102.911 353.944 102.76C354.094 102.609 354.275 102.534 354.485 102.534C354.695 102.534 354.875 102.609 355.026 102.76C355.176 102.911 355.252 103.091 355.252 103.301C355.252 103.44 355.216 103.568 355.145 103.685C355.077 103.801 354.985 103.895 354.868 103.966C354.755 104.034 354.627 104.068 354.485 104.068ZM357.757 104.068C357.547 104.068 357.367 103.993 357.216 103.842C357.066 103.692 356.99 103.511 356.99 103.301C356.99 103.091 357.066 102.911 357.216 102.76C357.367 102.609 357.547 102.534 357.757 102.534C357.968 102.534 358.148 102.609 358.299 102.76C358.449 102.911 358.525 103.091 358.525 103.301C358.525 103.44 358.489 103.568 358.418 103.685C358.35 103.801 358.257 103.895 358.141 103.966C358.027 104.034 357.9 104.068 357.757 104.068Z" fill="#9B9B9B"/>
<circle cx="226.5" cy="42.5" r="2.5" fill="#825EFC"/>
</g>
<path d="M481.5 69.25L481.5 91.75" stroke="#373737" stroke-width="1.5" stroke-linecap="round"/>
<path d="M492.75 80.5L470.25 80.5" stroke="#373737" stroke-width="1.5" stroke-linecap="round"/>
<rect x="399.5" y="30.5" width="164" height="101" rx="14.5" stroke="#373737"/>
<defs>
<clipPath id="clip0_1_7884">
<rect x="214" y="30" width="165" height="102" rx="15" fill="white"/>
</clipPath>
</defs>
</svg>
