<svg width="50" height="67" viewBox="0 0 50 67" fill="none" xmlns="http://www.w3.org/2000/svg">
<path d="M8.85003 13.8861C9.668 9.68814 12.2853 8.79865 16.0193 9.68619C21.5521 11.1017 25.0874 15.3128 23.9627 19.3664C23.9428 19.4386 23.9244 19.5108 23.91 19.5848L15.9441 60.0764C15.0166 67.2301 -1.46229 71.7748 0.105024 58.5719L8.85003 13.8861Z" fill="#FAFAFA"/>
<path d="M34.5121 4.51173C35.3301 0.313746 37.9474 -0.575744 41.6814 0.311797C47.2142 1.72734 50.7495 5.93838 49.6248 9.99197C49.6049 10.0642 49.5865 10.1364 49.5721 10.2104L41.6062 50.702C40.6787 57.8558 24.1998 62.4004 25.7671 49.1975L34.5121 4.51173Z" fill="#FAFAFA"/>
</svg>
