<svg width="168" height="51" viewBox="0 0 168 51" fill="none" xmlns="http://www.w3.org/2000/svg">
<path d="M161.778 50.1914H6.22222C2.80156 50.1914 0 47.4209 0 44.0381V7.11793C0 3.73513 2.80156 0.96458 6.22222 0.96458H161.778C165.198 0.96458 168 3.73513 168 7.11793V44.0381C168 47.4209 165.198 50.1914 161.778 50.1914Z" fill="black"/>
<path d="M161.778 1.95065C164.659 1.95065 167.003 4.26893 167.003 7.11793V44.0381C167.003 46.8871 164.659 49.2053 161.778 49.2053H6.22222C3.34133 49.2053 0.997111 46.8871 0.997111 44.0381V7.11793C0.997111 4.26893 3.34133 1.95065 6.22222 1.95065H161.778ZM161.778 0.96458H6.22222C2.80156 0.96458 0 3.73513 0 7.11793V44.0381C0 47.4209 2.80156 50.1914 6.22222 50.1914H161.778C165.198 50.1914 168 47.4209 168 44.0381V7.11793C168 3.73513 165.198 0.96458 161.778 0.96458Z" fill="#A6A6A6"/>
<path d="M59.0085 13.5702C59.0085 14.5978 58.6974 15.4209 58.0845 16.0347C57.3798 16.7623 56.4621 17.1284 55.3374 17.1284C54.2625 17.1284 53.3447 16.7561 52.5918 16.0223C51.8374 15.2778 51.4609 14.364 51.4609 13.2703C51.4609 12.1765 51.8374 11.2627 52.5918 10.5243C53.3447 9.78439 54.2625 9.41211 55.3374 9.41211C55.8725 9.41211 56.3827 9.52133 56.8696 9.72439C57.3549 9.92899 57.75 10.2059 58.0363 10.5474L57.386 11.1966C56.8867 10.6136 56.2069 10.3259 55.3374 10.3259C54.5534 10.3259 53.8736 10.5966 53.2965 11.1427C52.7256 11.6904 52.4394 12.3996 52.4394 13.2703C52.4394 14.141 52.7256 14.8563 53.2965 15.4039C53.8736 15.9439 54.5534 16.2208 55.3374 16.2208C56.1696 16.2208 56.8696 15.9439 57.4218 15.3978C57.7858 15.0363 57.9927 14.5379 58.0472 13.901H55.3374V13.0118H58.9525C58.996 13.2041 59.0085 13.3903 59.0085 13.5702Z" fill="white" stroke="white" stroke-width="0.16" stroke-miterlimit="10"/>
<path d="M64.7438 10.4881H61.3481V12.8264H64.4094V13.7155H61.3481V16.0538H64.7438V16.9599H60.3867V9.58203H64.7438V10.4881Z" fill="white" stroke="white" stroke-width="0.16" stroke-miterlimit="10"/>
<path d="M68.7903 16.9599H67.829V10.4881H65.7461V9.58203H70.8748V10.4881H68.7903V16.9599Z" fill="white" stroke="white" stroke-width="0.16" stroke-miterlimit="10"/>
<path d="M74.5898 16.9599V9.58203H75.5496V16.9599H74.5898Z" fill="white" stroke="white" stroke-width="0.16" stroke-miterlimit="10"/>
<path d="M79.802 16.9599H78.8485V10.4881H76.7578V9.58203H81.8927V10.4881H79.802V16.9599Z" fill="white" stroke="white" stroke-width="0.16" stroke-miterlimit="10"/>
<path d="M91.6027 16.01C90.8669 16.7561 89.9553 17.1284 88.868 17.1284C87.7745 17.1284 86.8629 16.7561 86.1271 16.01C85.3929 15.2655 85.0273 14.3517 85.0273 13.2703C85.0273 12.1888 85.3929 11.275 86.1271 10.5305C86.8629 9.78439 87.7745 9.41211 88.868 9.41211C89.9491 9.41211 90.8607 9.78439 91.5965 10.5366C92.3369 11.2873 92.7025 12.195 92.7025 13.2703C92.7025 14.3517 92.3369 15.2655 91.6027 16.01ZM86.838 15.3916C87.3918 15.9439 88.0653 16.2208 88.868 16.2208C89.6645 16.2208 90.3442 15.9439 90.8918 15.3916C91.444 14.8394 91.724 14.1302 91.724 13.2703C91.724 12.4103 91.444 11.7012 90.8918 11.1489C90.3442 10.5966 89.6645 10.3197 88.868 10.3197C88.0653 10.3197 87.3918 10.5966 86.838 11.1489C86.2858 11.7012 86.0058 12.4103 86.0058 13.2703C86.0058 14.1302 86.2858 14.8394 86.838 15.3916Z" fill="white" stroke="white" stroke-width="0.16" stroke-miterlimit="10"/>
<path d="M94.0508 16.9599V9.58203H95.2174L98.845 15.32H98.887L98.845 13.9017V9.58203H99.8048V16.9599H98.803L95.0043 10.9388H94.9623L95.0043 12.3633V16.9599H94.0508Z" fill="white" stroke="white" stroke-width="0.16" stroke-miterlimit="10"/>
<path d="M84.7924 27.7343C81.8695 27.7343 79.4818 29.9342 79.4818 32.9693C79.4818 35.9798 81.8695 38.2027 84.7924 38.2027C87.7215 38.2027 90.1093 35.9798 90.1093 32.9693C90.1093 29.9342 87.7215 27.7343 84.7924 27.7343ZM84.7924 36.1413C83.1886 36.1413 81.8089 34.8322 81.8089 32.9693C81.8089 31.0818 83.1886 29.7957 84.7924 29.7957C86.3962 29.7957 87.7822 31.0818 87.7822 32.9693C87.7822 34.8322 86.3962 36.1413 84.7924 36.1413ZM73.2051 27.7343C70.276 27.7343 67.8944 29.9342 67.8944 32.9693C67.8944 35.9798 70.276 38.2027 73.2051 38.2027C76.1326 38.2027 78.5158 35.9798 78.5158 32.9693C78.5158 29.9342 76.1326 27.7343 73.2051 27.7343ZM73.2051 36.1413C71.5998 36.1413 70.2153 34.8322 70.2153 32.9693C70.2153 31.0818 71.5998 29.7957 73.2051 29.7957C74.8089 29.7957 76.1887 31.0818 76.1887 32.9693C76.1887 34.8322 74.8089 36.1413 73.2051 36.1413ZM59.4167 29.3388V31.5633H64.788C64.6309 32.8062 64.2109 33.72 63.5669 34.3569C62.7829 35.126 61.5618 35.9798 59.4167 35.9798C56.1111 35.9798 53.5227 33.3416 53.5227 30.0726C53.5227 26.8036 56.1111 24.1654 59.4167 24.1654C61.204 24.1654 62.5044 24.8561 63.4642 25.7514L65.0493 24.1838C63.7069 22.9163 61.9211 21.9425 59.4167 21.9425C54.8838 21.9425 51.0742 25.5899 51.0742 30.0726C51.0742 34.5553 54.8838 38.2027 59.4167 38.2027C61.8667 38.2027 63.7069 37.4089 65.1535 35.9198C66.636 34.4538 67.098 32.3924 67.098 30.7279C67.098 30.2111 67.0544 29.7357 66.9767 29.3388H59.4167ZM115.799 31.0633C115.362 29.8926 114.014 27.7343 111.266 27.7343C108.544 27.7343 106.278 29.8557 106.278 32.9693C106.278 35.9014 108.521 38.2027 111.528 38.2027C113.959 38.2027 115.362 36.7367 115.939 35.8829L114.135 34.6938C113.533 35.5645 112.713 36.1413 111.528 36.1413C110.35 36.1413 109.506 35.6075 108.964 34.5553L116.044 31.6586L115.799 31.0633ZM108.582 32.8062C108.521 30.7879 110.167 29.7542 111.346 29.7542C112.27 29.7542 113.054 30.2111 113.315 30.8648L108.582 32.8062ZM102.828 37.8843H105.155V22.5009H102.828V37.8843ZM99.0164 28.9004H98.9386C98.416 28.2881 97.4189 27.7343 96.1558 27.7343C93.5051 27.7343 91.0815 30.0357 91.0815 32.9862C91.0815 35.9198 93.5051 38.2027 96.1558 38.2027C97.4189 38.2027 98.416 37.6443 98.9386 37.0136H99.0164V37.7643C99.0164 39.7657 97.9353 40.841 96.1915 40.841C94.7698 40.841 93.8878 39.8257 93.5238 38.9719L91.5 39.8072C92.0833 41.1948 93.628 42.9023 96.1915 42.9023C98.92 42.9023 101.222 41.3148 101.222 37.452V28.0528H99.0164V28.9004ZM96.3549 36.1413C94.7511 36.1413 93.4086 34.8138 93.4086 32.9862C93.4086 31.1417 94.7511 29.7957 96.3549 29.7957C97.9353 29.7957 99.1813 31.1417 99.1813 32.9862C99.1813 34.8138 97.9353 36.1413 96.3549 36.1413ZM126.694 22.5009H121.129V37.8843H123.45V32.0555H126.694C129.272 32.0555 131.8 30.2111 131.8 27.2774C131.8 24.3454 129.266 22.5009 126.694 22.5009ZM126.755 29.9157H123.45V24.6407H126.755C128.488 24.6407 129.477 26.0637 129.477 27.2774C129.477 28.4681 128.488 29.9157 126.755 29.9157ZM141.102 27.7051C139.425 27.7051 137.681 28.4374 136.964 30.0603L139.024 30.9141C139.467 30.0603 140.282 29.7834 141.144 29.7834C142.348 29.7834 143.569 30.4987 143.588 31.7617V31.9232C143.168 31.6832 142.269 31.3279 141.163 31.3279C138.944 31.3279 136.684 32.5355 136.684 34.7892C136.684 36.8505 138.501 38.1781 140.544 38.1781C142.105 38.1781 142.967 37.4812 143.508 36.6705H143.588V37.8597H145.829V31.9586C145.829 29.2311 143.77 27.7051 141.102 27.7051ZM140.822 36.1352C140.063 36.1352 139.005 35.7629 139.005 34.8322C139.005 33.6416 140.324 33.1847 141.466 33.1847C142.488 33.1847 142.967 33.4077 143.588 33.7015C143.406 35.126 142.166 36.1352 140.822 36.1352ZM153.996 28.042L151.328 34.7107H151.249L148.491 28.042H145.988L150.132 37.3612L147.768 42.547H150.193L156.578 28.042H153.996ZM133.075 37.8843H135.402V22.5009H133.075V37.8843Z" fill="white"/>
<path d="M12.9873 10.2433C12.6217 10.6217 12.4102 11.2109 12.4102 11.9739V39.1902C12.4102 39.9532 12.6217 40.5424 12.9873 40.9208L13.0775 41.0039L28.4993 25.759V25.399L13.0775 10.1541L12.9873 10.2433Z" fill="url(#paint0_linear_1369_99949)"/>
<path d="M33.6349 30.8418L28.5 25.7576V25.3976L33.6411 20.3134L33.7562 20.3796L39.8447 23.8054C41.5822 24.7777 41.5822 26.3775 39.8447 27.3559L33.7562 30.7756L33.6349 30.8418Z" fill="url(#paint1_linear_1369_99949)"/>
<path d="M33.7526 30.7767L28.4964 25.5786L12.9844 40.9205C13.5615 41.5204 14.5026 41.5927 15.5728 40.9928L33.7526 30.7767Z" fill="url(#paint2_linear_1369_99949)"/>
<path d="M33.7526 20.3801L15.5728 10.164C14.5026 9.57018 13.5615 9.64248 12.9844 10.2424L28.4964 25.5781L33.7526 20.3801Z" fill="url(#paint3_linear_1369_99949)"/>
<defs>
<linearGradient id="paint0_linear_1369_99949" x1="27.13" y1="39.4736" x2="6.47766" y2="18.5902" gradientUnits="userSpaceOnUse">
<stop stop-color="#00A0FF"/>
<stop offset="0.0066" stop-color="#00A1FF"/>
<stop offset="0.2601" stop-color="#00BEFF"/>
<stop offset="0.5122" stop-color="#00D2FF"/>
<stop offset="0.7604" stop-color="#00DFFF"/>
<stop offset="1" stop-color="#00E3FF"/>
</linearGradient>
<linearGradient id="paint1_linear_1369_99949" x1="42.1072" y1="25.5759" x2="11.9956" y2="25.5759" gradientUnits="userSpaceOnUse">
<stop stop-color="#FFE000"/>
<stop offset="0.4087" stop-color="#FFBD00"/>
<stop offset="0.7754" stop-color="#FFA500"/>
<stop offset="1" stop-color="#FF9C00"/>
</linearGradient>
<linearGradient id="paint2_linear_1369_99949" x1="30.8944" y1="22.7529" x2="2.88817" y2="-5.56682" gradientUnits="userSpaceOnUse">
<stop stop-color="#FF3A44"/>
<stop offset="1" stop-color="#C31162"/>
</linearGradient>
<linearGradient id="paint3_linear_1369_99949" x1="9.07968" y1="49.9747" x2="21.5857" y2="37.3288" gradientUnits="userSpaceOnUse">
<stop stop-color="#32A071"/>
<stop offset="0.0685" stop-color="#2DA771"/>
<stop offset="0.4762" stop-color="#15CF74"/>
<stop offset="0.8009" stop-color="#06E775"/>
<stop offset="1" stop-color="#00F076"/>
</linearGradient>
</defs>
</svg>
