<svg width="620" height="568" viewBox="0 0 620 568" fill="none" xmlns="http://www.w3.org/2000/svg">
<rect width="409.281" height="181.229" rx="12.1569" fill="white"/>
<rect width="409.281" height="181.229" rx="12.1569" fill="#1EC55B" fill-opacity="0.1"/>
<path d="M16.7378 19.9976C17.2304 18.2952 18.6665 17.0076 20.4509 16.6684C23.6722 16.0559 26.985 16.0559 30.2063 16.6684C31.9907 17.0076 33.4267 18.2952 33.9194 19.9976L33.9683 20.1666C34.6055 22.3687 34.6055 24.6992 33.9683 26.9014L33.9194 27.0704C33.4267 28.7728 31.9907 30.0603 30.2063 30.3996C26.985 31.0121 23.6722 31.0121 20.4509 30.3996C18.6665 30.0603 17.2304 28.7728 16.7378 27.0704L16.6889 26.9014C16.0516 24.6992 16.0516 22.3687 16.6889 20.1666L16.7378 19.9976Z" fill="#1EC55B" fill-opacity="0.15"/>
<path d="M16.6889 26.9014L17.1755 26.7606L16.6889 26.9014ZM16.6889 20.1666L16.2023 20.0258H16.2023L16.6889 20.1666ZM33.9683 20.1666L34.4549 20.0258V20.0258L33.9683 20.1666ZM33.9683 26.9014L33.4817 26.7606V26.7606L33.9683 26.9014ZM30.2063 30.3996L30.1117 29.902L30.2063 30.3996ZM20.4509 30.3996L20.5455 29.902L20.4509 30.3996ZM20.4509 16.6684L20.3563 16.1707L20.4509 16.6684ZM30.2063 16.6684L30.3009 16.1707L30.2063 16.6684ZM16.7378 27.0704L16.2512 27.2112H16.2512L16.7378 27.0704ZM33.9194 27.0704L34.406 27.2112L34.406 27.2112L33.9194 27.0704ZM33.9194 19.9976L33.4328 20.1384V20.1384L33.9194 19.9976ZM16.7378 19.9976L17.2244 20.1384L16.7378 19.9976ZM25.8351 31.3271C25.8351 31.0473 25.6083 30.8205 25.3286 30.8205C25.0488 30.8205 24.822 31.0473 24.822 31.3271H25.8351ZM24.822 34.4443C24.822 34.724 25.0488 34.9508 25.3286 34.9508C25.6083 34.9508 25.8351 34.724 25.8351 34.4443H24.822ZM22.658 33.9377C22.3782 33.9377 22.1514 34.1645 22.1514 34.4443C22.1514 34.724 22.3782 34.9508 22.658 34.9508V33.9377ZM27.9992 34.9508C28.2789 34.9508 28.5057 34.724 28.5057 34.4443C28.5057 34.1645 28.2789 33.9377 27.9992 33.9377V34.9508ZM33.4328 20.1384L33.4817 20.3074L34.4549 20.0258L34.406 19.8568L33.4328 20.1384ZM33.4817 26.7606L33.4328 26.9296L34.406 27.2112L34.4549 27.0422L33.4817 26.7606ZM17.2244 26.9296L17.1755 26.7606L16.2023 27.0422L16.2512 27.2112L17.2244 26.9296ZM17.1755 20.3074L17.2244 20.1384L16.2512 19.8568L16.2023 20.0258L17.1755 20.3074ZM17.1755 26.7606C16.5648 24.6504 16.5648 22.4176 17.1755 20.3074L16.2023 20.0258C15.5384 22.3199 15.5384 24.7481 16.2023 27.0422L17.1755 26.7606ZM33.4817 20.3074C34.0924 22.4176 34.0924 24.6504 33.4817 26.7606L34.4549 27.0422C35.1187 24.7481 35.1187 22.3199 34.4549 20.0258L33.4817 20.3074ZM30.1117 29.902C26.9529 30.5026 23.7043 30.5026 20.5455 29.902L20.3563 30.8972C23.6401 31.5216 27.0171 31.5216 30.3009 30.8972L30.1117 29.902ZM20.5455 17.166C23.7043 16.5654 26.9529 16.5654 30.1117 17.166L30.3009 16.1707C27.0171 15.5464 23.6401 15.5464 20.3563 16.1707L20.5455 17.166ZM20.5455 29.902C18.9426 29.5972 17.6623 28.443 17.2244 26.9296L16.2512 27.2112C16.7985 29.1025 18.3903 30.5235 20.3563 30.8972L20.5455 29.902ZM30.3009 30.8972C32.2668 30.5234 33.8586 29.1025 34.406 27.2112L33.4328 26.9296C32.9949 28.443 31.7146 29.5972 30.1117 29.902L30.3009 30.8972ZM30.1117 17.166C31.7146 17.4707 32.9949 18.625 33.4328 20.1384L34.406 19.8568C33.8586 17.9654 32.2668 16.5445 30.3009 16.1707L30.1117 17.166ZM20.3563 16.1707C18.3903 16.5445 16.7985 17.9654 16.2512 19.8568L17.2244 20.1384C17.6623 18.625 18.9426 17.4707 20.5455 17.166L20.3563 16.1707ZM24.822 31.3271V34.4443H25.8351V31.3271H24.822ZM22.658 34.9508H27.9992V33.9377H22.658V34.9508Z" fill="#1EC55B"/>
<path d="M21.2773 24.5673L23.7675 22.6064C23.9578 22.4565 24.053 22.3815 24.1583 22.3949C24.2635 22.4082 24.3369 22.5046 24.4838 22.6973L26.1755 24.9177C26.3223 25.1105 26.3958 25.2068 26.501 25.2202C26.6063 25.2336 26.7014 25.1586 26.8918 25.0087L29.3819 23.0477" stroke="#1EC55B" stroke-width="1.01307" stroke-linecap="round"/>
<text fill="#333333" xml:space="preserve" style="white-space: pre" font-family="Raleway" font-size="20.2614" font-weight="600" letter-spacing="0em"><tspan x="42.5469" y="32.4794">Hub</tspan></text>
<text fill="#333333" xml:space="preserve" style="white-space: pre" font-family="Raleway" font-size="10.1307" font-weight="500" letter-spacing="0em"><tspan x="12.1562" y="57.9294">&#x421;&#x438;&#x441;&#x442;&#x435;&#x43c;&#x430; &#x443;&#x43f;&#x440;&#x430;&#x432;&#x43b;&#x435;&#x43d;&#x438;&#x44f; &#x442;&#x43e;&#x440;&#x433;&#x43e;&#x432;&#x43b;&#x435;&#x439; &#x43d;&#x430; Wildberries, Ozon, &#x42f;&#x43d;&#x434;&#x435;&#x43a;&#x441; &#x41c;&#x430;&#x440;&#x43a;&#x435;&#x442; &#x438; &#x434;&#x440;&#x443;&#x433;&#x438;&#x445; </tspan><tspan x="12.1562" y="72.1124">&#x43c;&#x430;&#x440;&#x43a;&#x435;&#x442;&#x43f;&#x43b;&#x435;&#x439;&#x441;&#x430;&#x445;. &#x41f;&#x43e;&#x434;&#x434;&#x435;&#x440;&#x436;&#x438;&#x432;&#x430;&#x435;&#x442; FBS &#x438; FBO. &#x412;&#x441;&#x435; &#x43d;&#x435;&#x43e;&#x431;&#x445;&#x43e;&#x434;&#x438;&#x43c;&#x43e;&#x435; &#x434;&#x43b;&#x44f; &#x441;&#x435;&#x43b;&#x43b;&#x435;&#x440;&#x430; &#10;</tspan><tspan x="12.1562" y="86.2954">&#x432; &#x43e;&#x434;&#x43d;&#x43e;&#x43c; &#x43c;&#x435;&#x441;&#x442;&#x435; - &#x43f;&#x440;&#x438;&#x431;&#x44b;&#x43b;&#x44c;, &#x43e;&#x431;&#x43e;&#x440;&#x43e;&#x442;&#x44b;, &#x437;&#x430;&#x43a;&#x443;&#x43f;&#x43a;&#x438;, &#x441;&#x43a;&#x43b;&#x430;&#x434;, &#x43f;&#x43e;&#x441;&#x442;&#x430;&#x432;&#x449;&#x438;&#x43a;&#x438;.  &#x421;&#x435;&#x440;&#x432;&#x438;&#x441; </tspan><tspan x="12.1562" y="100.478">&#x434;&#x43e;&#x441;&#x442;&#x443;&#x43f;&#x435;&#x43d; &#x432; &#x43f;&#x43e;&#x43b;&#x43d;&#x43e;&#x439; &#x438; &#x43c;&#x43e;&#x431;&#x438;&#x43b;&#x44c;&#x43d;&#x43e;&#x439; &#x432;&#x435;&#x440;&#x441;&#x438;&#x44f;&#x445;</tspan></text>
<rect x="421.438" width="198.562" height="181.229" rx="12.1569" fill="white"/>
<rect x="421.438" width="198.562" height="181.229" rx="12.1569" fill="#32CCBA" fill-opacity="0.1"/>
<path d="M442.133 20.8457C442.64 18.6815 444.33 16.9916 446.494 16.484C448.057 16.1173 449.684 16.1173 451.247 16.484C453.411 16.9916 455.101 18.6815 455.609 20.8457C455.975 22.4087 455.975 24.0353 455.609 25.5983C455.101 27.7626 453.411 29.4524 451.247 29.9601C449.684 30.3267 448.057 30.3267 446.494 29.9601C444.33 29.4525 442.64 27.7626 442.133 25.5983C441.766 24.0354 441.766 22.4087 442.133 20.8457Z" fill="#32CCBA" fill-opacity="0.15"/>
<path d="M441.876 22.602C441.791 22.6193 441.707 22.6378 441.623 22.6576C439.768 23.0927 438.319 24.5412 437.884 26.3963C437.57 27.736 437.57 29.1302 437.884 30.4699C438.319 32.325 439.768 33.7735 441.623 34.2086C442.962 34.5228 444.357 34.5228 445.696 34.2086C447.552 33.7735 449 32.325 449.435 30.4699C449.455 30.3857 449.473 30.3012 449.491 30.2166C448.488 30.2765 447.479 30.191 446.494 29.9601C444.33 29.4525 442.64 27.7626 442.133 25.5983C441.902 24.6142 441.816 23.6049 441.876 22.602Z" fill="#32CCBA" fill-opacity="0.15"/>
<path d="M442.133 25.5983C441.766 24.0354 441.766 22.4087 442.133 20.8457C442.64 18.6815 444.33 16.9916 446.494 16.484C448.057 16.1173 449.684 16.1173 451.247 16.484C453.411 16.9916 455.101 18.6815 455.609 20.8457C455.975 22.4087 455.975 24.0353 455.609 25.5983C455.101 27.7626 453.411 29.4524 451.247 29.9601C449.684 30.3267 448.057 30.3267 446.494 29.9601M442.133 25.5983C442.64 27.7626 444.33 29.4525 446.494 29.9601M442.133 25.5983C441.902 24.6142 441.816 23.6049 441.876 22.602C441.791 22.6193 441.707 22.6378 441.623 22.6576C439.768 23.0927 438.319 24.5412 437.884 26.3963C437.57 27.736 437.57 29.1302 437.884 30.4699C438.319 32.325 439.768 33.7735 441.623 34.2086C442.962 34.5228 444.357 34.5228 445.696 34.2086C447.552 33.7735 449 32.325 449.435 30.4699C449.455 30.3857 449.473 30.3012 449.491 30.2166C448.488 30.2765 447.479 30.191 446.494 29.9601" stroke="#32CCBA" stroke-width="1.01307"/>
<text fill="#333333" xml:space="preserve" style="white-space: pre" font-family="Raleway" font-size="20.2614" font-weight="600" letter-spacing="0em"><tspan x="463.984" y="32.4794">Connect</tspan></text>
<text fill="#333333" xml:space="preserve" style="white-space: pre" font-family="Raleway" font-size="10.1307" font-weight="500" letter-spacing="0em"><tspan x="433.594" y="57.9294">&#x418;&#x43d;&#x442;&#x435;&#x433;&#x440;&#x430;&#x446;&#x438;&#x44f; &#x441; 5 &#x43c;&#x430;&#x440;&#x43a;&#x435;&#x442;&#x43f;&#x43b;&#x435;&#x439;&#x441;&#x430;&#x43c;&#x438; &#10;</tspan><tspan x="433.594" y="72.1124">&#x432; &#x435;&#x434;&#x438;&#x43d;&#x43e;&#x439; &#x441;&#x438;&#x441;&#x442;&#x435;&#x43c;&#x435;</tspan></text>
<rect y="193.386" width="198.562" height="181.229" rx="12.1569" fill="white"/>
<rect y="193.386" width="198.562" height="181.229" rx="12.1569" fill="#287EFF" fill-opacity="0.1"/>
<path d="M16.5684 215.624C17.2284 212.81 19.4254 210.613 22.2392 209.953C24.2712 209.477 26.386 209.477 28.418 209.953C31.2318 210.613 33.4287 212.81 34.0887 215.624C34.5654 217.656 34.5654 219.771 34.0887 221.803C33.4287 224.617 31.2317 226.813 28.418 227.474C26.386 227.95 24.2712 227.95 22.2392 227.474C19.4254 226.813 17.2284 224.617 16.5684 221.803C16.0918 219.771 16.0918 217.656 16.5684 215.624Z" fill="#287EFF" fill-opacity="0.15"/>
<path d="M16.8976 215.552H25.3286M25.3286 221.875H33.7596M25.3286 210.282L25.3286 227.144M16.5684 221.803C16.0918 219.771 16.0918 217.656 16.5684 215.624C17.2284 212.81 19.4254 210.613 22.2392 209.953C24.2712 209.477 26.386 209.477 28.418 209.953C31.2318 210.613 33.4287 212.81 34.0887 215.624C34.5654 217.656 34.5654 219.771 34.0887 221.803C33.4287 224.617 31.2317 226.813 28.418 227.474C26.386 227.95 24.2712 227.95 22.2392 227.474C19.4254 226.813 17.2284 224.617 16.5684 221.803Z" stroke="#287EFF" stroke-width="1.01307"/>
<text fill="#333333" xml:space="preserve" style="white-space: pre" font-family="Raleway" font-size="20.2614" font-weight="600" letter-spacing="0em"><tspan x="42.5469" y="225.865">Pim</tspan></text>
<text fill="#333333" xml:space="preserve" style="white-space: pre" font-family="Raleway" font-size="10.1307" font-weight="500" letter-spacing="0em"><tspan x="12.1562" y="251.315">&#x423;&#x43f;&#x440;&#x430;&#x432;&#x43b;&#x435;&#x43d;&#x438;&#x435; &#x43a;&#x430;&#x440;&#x442;&#x43e;&#x447;&#x43a;&#x430;&#x43c;&#x438; &#x442;&#x43e;&#x432;&#x430;&#x440;&#x43e;&#x432;: </tspan><tspan x="12.1562" y="265.498">&#x441;&#x43e;&#x437;&#x434;&#x430;&#x43d;&#x438;&#x435;, &#x432;&#x44b;&#x433;&#x440;&#x443;&#x437;&#x43a;&#x430; &#10;</tspan><tspan x="12.1562" y="279.681">&#x43d;&#x430; &#x43c;&#x430;&#x440;&#x43a;&#x435;&#x442;&#x43f;&#x43b;&#x435;&#x439;&#x441;&#x44b; &#x432; &#x43e;&#x434;&#x438;&#x43d; &#x43a;&#x43b;&#x438;&#x43a;</tspan></text>
<rect x="210.719" y="193.386" width="198.562" height="181.229" rx="12.1569" fill="white"/>
<rect x="210.719" y="193.386" width="198.562" height="181.229" rx="12.1569" fill="#8233CC" fill-opacity="0.1"/>
<path d="M227.287 215.624C227.947 212.81 230.144 210.613 232.958 209.953C234.99 209.477 237.105 209.477 239.137 209.953C241.951 210.613 244.147 212.81 244.807 215.624C245.284 217.656 245.284 219.771 244.807 221.803C244.147 224.617 241.95 226.813 239.137 227.474C237.105 227.95 234.99 227.95 232.958 227.474C230.144 226.813 227.947 224.617 227.287 221.803C226.811 219.771 226.811 217.656 227.287 215.624Z" fill="#8233CC" fill-opacity="0.15"/>
<path d="M228.67 223.983L230.432 222.221C232.078 220.575 234.747 220.575 236.393 222.221L238.155 223.983M238.155 223.983L238.869 223.269C240.183 221.955 242.343 222.053 243.533 223.481L243.951 223.983M238.155 223.983L240.79 226.617M227.287 221.803C226.811 219.771 226.811 217.656 227.287 215.624C227.947 212.81 230.144 210.613 232.958 209.953C234.99 209.477 237.105 209.477 239.137 209.953C241.951 210.613 244.147 212.81 244.807 215.624C245.284 217.656 245.284 219.771 244.807 221.803C244.147 224.617 241.95 226.813 239.137 227.474C237.105 227.95 234.99 227.95 232.958 227.474C230.144 226.813 227.947 224.617 227.287 221.803Z" stroke="#8233CC" stroke-width="1.01307" stroke-linecap="round" stroke-linejoin="round"/>
<rect x="237.062" y="213.648" width="4.05229" height="4.05229" rx="2.02614" stroke="#8233CC" stroke-width="0.759804"/>
<text fill="#333333" xml:space="preserve" style="white-space: pre" font-family="Raleway" font-size="20.2614" font-weight="600" letter-spacing="0em"><tspan x="253.266" y="225.865">Ads</tspan></text>
<text fill="#333333" xml:space="preserve" style="white-space: pre" font-family="Raleway" font-size="10.1307" font-weight="500" letter-spacing="0em"><tspan x="222.875" y="251.315">&#x410;&#x432;&#x442;&#x43e;&#x43c;&#x430;&#x442;&#x438;&#x437;&#x430;&#x446;&#x438;&#x44f; &#x440;&#x435;&#x43a;&#x43b;&#x430;&#x43c;&#x44b; &#x43d;&#x430; </tspan><tspan x="222.875" y="265.498">Wildberries &#x43f;&#x43e; &#x440;&#x435;&#x430;&#x43b;&#x44c;&#x43d;&#x44b;&#x43c; &#x441;&#x442;&#x430;&#x432;&#x43a;&#x430;&#x43c;</tspan></text>
<rect x="421.438" y="193.386" width="198.562" height="181.229" rx="12.1569" fill="white"/>
<rect x="421.438" y="193.386" width="198.562" height="181.229" rx="12.1569" fill="#FA33C6" fill-opacity="0.1"/>
<path d="M444.042 217.141L448.671 212.512C449.241 211.942 450.014 211.622 450.82 211.622C452.498 211.622 453.859 212.983 453.859 214.661C453.859 215.467 453.539 216.24 452.969 216.81L448.339 221.439C446.327 223.452 443.805 224.879 441.044 225.57L440.149 225.793C439.87 225.863 439.618 225.611 439.687 225.332L439.911 224.437C440.601 221.676 442.029 219.154 444.042 217.141Z" fill="#FA33C6" fill-opacity="0.15"/>
<path d="M452.086 217.692C449.937 218.409 447.072 215.544 447.788 213.395M448.671 212.512L444.042 217.141C442.029 219.154 440.601 221.676 439.911 224.437L439.687 225.332C439.618 225.611 439.87 225.863 440.149 225.793L441.044 225.57C443.805 224.879 446.327 223.452 448.339 221.439L452.969 216.81C453.539 216.24 453.859 215.467 453.859 214.661C453.859 212.983 452.498 211.622 450.82 211.622C450.014 211.622 449.241 211.942 448.671 212.512Z" stroke="#FA33C6" stroke-width="1.01307"/>
<text fill="#333333" xml:space="preserve" style="white-space: pre" font-family="Raleway" font-size="20.2614" font-weight="600" letter-spacing="0em"><tspan x="463.984" y="225.865">AiTools</tspan></text>
<text fill="#333333" xml:space="preserve" style="white-space: pre" font-family="Raleway" font-size="10.1307" font-weight="500" letter-spacing="0em"><tspan x="433.594" y="251.315">&#x410;&#x432;&#x442;&#x43e;&#x43c;&#x430;&#x442;&#x438;&#x447;&#x435;&#x441;&#x43a;&#x430;&#x44f; &#x433;&#x435;&#x43d;&#x435;&#x440;&#x430;&#x446;&#x438;&#x44f; </tspan><tspan x="433.594" y="265.498">&#x43e;&#x442;&#x432;&#x435;&#x442;&#x43e;&#x432; &#x43d;&#x430; &#x43e;&#x442;&#x437;&#x44b;&#x432;&#x44b; &#x43f;&#x440;&#x438; &#x43f;&#x43e;&#x43c;&#x43e;&#x449;&#x438; </tspan><tspan x="433.594" y="279.681">&#x43d;&#x435;&#x439;&#x440;&#x43e;&#x441;&#x435;&#x441;&#x442;&#x438; &#x43d;&#x430; Wildberries</tspan></text>
<rect y="386.771" width="198.562" height="181.229" rx="12.1569" fill="white"/>
<rect y="386.771" width="198.562" height="181.229" rx="12.1569" fill="#FFAA1B" fill-opacity="0.1"/>
<path d="M16.0936 408.907C16.775 406.162 18.951 404.04 21.7112 403.429L22.171 403.327C24.25 402.866 26.4046 402.866 28.4836 403.327L28.9434 403.429C31.7036 404.04 33.8796 406.162 34.5611 408.907C35.0816 411.003 35.0816 413.195 34.5611 415.292C33.8796 418.036 31.7036 420.158 28.9434 420.769L28.4836 420.871C26.4046 421.332 24.25 421.332 22.171 420.871L21.7112 420.769C18.951 420.158 16.775 418.036 16.0936 415.292C15.573 413.195 15.573 411.003 16.0936 408.907Z" fill="#FFAA1B" fill-opacity="0.15" stroke="#FFAA1B" stroke-width="1.01307"/>
<path d="M23.7919 407.709C23.4277 407.709 23.1334 407.989 23.1334 408.336V412.099H22.4749C22.1107 412.099 21.8164 412.379 21.8164 412.726C21.8164 413.073 22.1107 413.353 22.4749 413.353H23.1334V413.98H22.4749C22.1107 413.98 21.8164 414.261 21.8164 414.608C21.8164 414.954 22.1107 415.235 22.4749 415.235H23.1334V415.862C23.1334 416.209 23.4277 416.489 23.7919 416.489C24.1561 416.489 24.4504 416.209 24.4504 415.862V415.235H27.7429C28.1071 415.235 28.4014 414.954 28.4014 414.608C28.4014 414.261 28.1071 413.98 27.7429 413.98H24.4504V413.353H26.7551C28.3911 413.353 29.7184 412.089 29.7184 410.531C29.7184 408.973 28.3911 407.709 26.7551 407.709H23.7919ZM26.7551 412.099H24.4504V408.963H26.7551C27.6647 408.963 28.4014 409.665 28.4014 410.531C28.4014 411.397 27.6647 412.099 26.7551 412.099Z" fill="#FFAA1B"/>
<text fill="#333333" xml:space="preserve" style="white-space: pre" font-family="Raleway" font-size="20.2614" font-weight="600" letter-spacing="0em"><tspan x="42.5469" y="419.251">Repricer</tspan></text>
<text fill="#333333" xml:space="preserve" style="white-space: pre" font-family="Raleway" font-size="10.1307" font-weight="500" letter-spacing="0em"><tspan x="12.1562" y="444.701">C&#x438;&#x441;&#x442;&#x435;&#x43c;&#x430; &#x43f;&#x43e;&#x437;&#x432;&#x43e;&#x43b;&#x44f;&#x435;&#x442; &#x430;&#x432;&#x442;&#x43e;&#x43c;&#x430;&#x442;&#x438;&#x447;&#x435;&#x441;&#x43a;&#x438; </tspan><tspan x="12.1562" y="458.884">&#x43d;&#x430;&#x441;&#x442;&#x440;&#x43e;&#x438;&#x442;&#x44c; &#x43f;&#x440;&#x43e;&#x432;&#x435;&#x440;&#x43a;&#x443; &#x446;&#x435;&#x43d; </tspan><tspan x="12.1562" y="473.067">&#x43a;&#x43e;&#x43d;&#x43a;&#x443;&#x440;&#x435;&#x43d;&#x442;&#x43e;&#x432;, &#x432;&#x44b;&#x431;&#x440;&#x430;&#x442;&#x44c; </tspan><tspan x="12.1562" y="487.25">&#x43e;&#x43f;&#x442;&#x438;&#x43c;&#x430;&#x43b;&#x44c;&#x43d;&#x443;&#x44e; &#x441;&#x442;&#x43e;&#x438;&#x43c;&#x43e;&#x441;&#x442;&#x44c;, &#x43f;&#x43e;&#x432;&#x44b;&#x441;&#x438;&#x442;&#x44c; </tspan><tspan x="12.1562" y="501.433">&#x43f;&#x440;&#x43e;&#x434;&#x430;&#x436;&#x438; &#x434;&#x43e; 45%</tspan></text>
<rect x="210.719" y="386.771" width="409.281" height="181.229" rx="12.1569" fill="white"/>
<rect x="210.719" y="386.771" width="409.281" height="181.229" rx="12.1569" fill="#8770FA" fill-opacity="0.1"/>
<path d="M227.409 410.691C227.977 408.7 229.633 407.195 231.691 406.798L232.778 406.588C234.937 406.172 237.158 406.172 239.317 406.588L240.404 406.798C242.462 407.195 244.118 408.7 244.686 410.691L244.78 411.021C245.296 412.828 245.292 414.753 244.776 416.56C244.156 418.735 242.341 420.397 240.092 420.83C237.421 421.346 234.674 421.346 232.002 420.83C229.753 420.397 227.939 418.735 227.318 416.56C226.803 414.753 226.799 412.828 227.315 411.021L227.409 410.691Z" fill="#8770FA" fill-opacity="0.15"/>
<path d="M234.903 403.13L234.773 402.64L234.903 403.13ZM237.192 403.13L237.063 403.62L237.192 403.13ZM227.318 416.56L227.805 416.421L227.318 416.56ZM227.315 411.021L227.802 411.16H227.802L227.315 411.021ZM244.78 411.021L245.267 410.882V410.882L244.78 411.021ZM244.776 416.56L245.264 416.699L244.776 416.56ZM240.092 420.83L239.997 420.333L240.092 420.83ZM232.002 420.83L232.098 420.333L232.002 420.83ZM232.778 406.588L232.874 407.086L232.778 406.588ZM239.317 406.588L239.412 406.091L239.317 406.588ZM240.404 406.798L240.308 407.295L240.404 406.798ZM244.686 410.691L244.199 410.83V410.83L244.686 410.691ZM231.691 406.798L231.595 406.301L231.691 406.798ZM227.409 410.691L226.922 410.552L226.922 410.552L227.409 410.691ZM235.032 403.62C235.697 403.444 236.398 403.444 237.063 403.62L237.321 402.64C236.487 402.42 235.608 402.42 234.773 402.64L235.032 403.62ZM240.786 407.098C240.786 405.004 239.36 403.179 237.321 402.64L237.063 403.62C238.665 404.043 239.772 405.473 239.772 407.098H240.786ZM232.322 407.098C232.322 405.473 233.429 404.043 235.032 403.62L234.773 402.64C232.734 403.179 231.309 405.004 231.309 407.098H232.322ZM231.786 407.295L232.874 407.086L232.682 406.091L231.595 406.301L231.786 407.295ZM239.221 407.086L240.308 407.295L240.5 406.301L239.412 406.091L239.221 407.086ZM244.199 410.83L244.293 411.16L245.267 410.882L245.173 410.552L244.199 410.83ZM227.802 411.16L227.896 410.83L226.922 410.552L226.828 410.882L227.802 411.16ZM227.805 416.421C227.315 414.704 227.312 412.876 227.802 411.16L226.828 410.882C226.286 412.781 226.29 414.802 226.831 416.699L227.805 416.421ZM244.293 411.16C244.782 412.876 244.779 414.704 244.289 416.421L245.264 416.699C245.805 414.802 245.809 412.781 245.267 410.882L244.293 411.16ZM239.997 420.333C237.388 420.836 234.706 420.836 232.098 420.333L231.906 421.328C234.641 421.855 237.454 421.855 240.188 421.328L239.997 420.333ZM232.874 407.086C234.97 406.682 237.125 406.682 239.221 407.086L239.412 406.091C237.19 405.663 234.905 405.663 232.682 406.091L232.874 407.086ZM232.098 420.333C230.035 419.935 228.373 418.411 227.805 416.421L226.831 416.699C227.505 419.059 229.471 420.858 231.906 421.328L232.098 420.333ZM240.188 421.328C242.623 420.858 244.59 419.059 245.264 416.699L244.289 416.421C243.721 418.411 242.059 419.935 239.997 420.333L240.188 421.328ZM240.308 407.295C242.181 407.657 243.684 409.026 244.199 410.83L245.173 410.552C244.552 408.375 242.742 406.733 240.5 406.301L240.308 407.295ZM231.595 406.301C229.352 406.733 227.543 408.375 226.922 410.552L227.896 410.83C228.411 409.026 229.913 407.657 231.786 407.295L231.595 406.301ZM227.408 411.651C232.978 413.711 239.116 413.711 244.686 411.651L244.335 410.7C238.992 412.677 233.103 412.677 227.76 410.7L227.408 411.651Z" fill="#8770FA"/>
<path d="M231.996 410.58V414.126" stroke="#8770FA" stroke-width="1.01307" stroke-linecap="round"/>
<path d="M240.102 410.58V414.126" stroke="#8770FA" stroke-width="1.01307" stroke-linecap="round"/>
<text fill="#333333" xml:space="preserve" style="white-space: pre" font-family="Raleway" font-size="20.2614" font-weight="600" letter-spacing="0em"><tspan x="253.266" y="419.251">Dropship</tspan></text>
<text fill="#333333" xml:space="preserve" style="white-space: pre" font-family="Raleway" font-size="10.1307" font-weight="500" letter-spacing="0em"><tspan x="222.875" y="444.701">&#x414;&#x43e;&#x441;&#x442;&#x443;&#x43f; &#x43a; &#x431;&#x430;&#x437;&#x435; &#x43f;&#x43e;&#x441;&#x442;&#x430;&#x432;&#x449;&#x438;&#x43a;&#x43e;&#x432; &#x438; &#x43e;&#x43f;&#x442;&#x43e;&#x432;&#x44b;&#x445; &#x441;&#x435;&#x43b;&#x43b;&#x435;&#x440;&#x43e;&#x432; &#x43f;&#x43e;&#x437;&#x432;&#x43e;&#x43b;&#x44f;&#x435;&#x442; &#x432;&#x435;&#x441;&#x442;&#x438; &#x431;&#x438;&#x437;&#x43d;&#x435;&#x441; &#10;</tspan><tspan x="222.875" y="458.884">&#x441; &#x43c;&#x438;&#x43d;&#x438;&#x43c;&#x430;&#x43b;&#x44c;&#x43d;&#x44b;&#x43c;&#x438; &#x432;&#x43b;&#x43e;&#x436;&#x435;&#x43d;&#x438;&#x44f;&#x43c;&#x438;, &#x44d;&#x43a;&#x43e;&#x43d;&#x43e;&#x43c;&#x44f; &#x432;&#x440;&#x435;&#x43c;&#x44f; &#x43d;&#x430; &#x43f;&#x43e;&#x438;&#x441;&#x43a; &#x43f;&#x43e;&#x441;&#x442;&#x430;&#x432;&#x449;&#x438;&#x43a;&#x43e;&#x432;. </tspan><tspan x="222.875" y="473.067">&#x410;&#x432;&#x442;&#x43e;&#x43c;&#x430;&#x442;&#x438;&#x447;&#x435;&#x441;&#x43a;&#x430;&#x44f; &#x432;&#x44b;&#x433;&#x440;&#x443;&#x437;&#x43a;&#x430; &#x43e;&#x441;&#x442;&#x430;&#x442;&#x43a;&#x43e;&#x432; &#x441;&#x43e; &#x441;&#x43a;&#x43b;&#x430;&#x434;&#x43e;&#x432; &#x43e;&#x43f;&#x442;&#x43e;&#x432;&#x438;&#x43a;&#x43e;&#x432; &#x438; &#x43f;&#x440;&#x43e;&#x438;&#x437;&#x432;&#x43e;&#x434;&#x438;&#x442;&#x435;&#x43b;&#x435;&#x439; </tspan><tspan x="222.875" y="487.25">&#x442;&#x43e;&#x432;&#x430;&#x440;&#x43e;&#x432; &#x432; &#x435;&#x434;&#x438;&#x43d;&#x43e;&#x43c; &#x438;&#x43d;&#x442;&#x435;&#x440;&#x444;&#x435;&#x439;&#x441;&#x435;</tspan></text>
</svg>
