<svg width="599" height="548" viewBox="0 0 599 548" fill="none" xmlns="http://www.w3.org/2000/svg">
<g clip-path="url(#clip0_1349_111831)">
<rect width="598.004" height="546.004" transform="translate(0.996094 0.998047)" fill="white"/>
<text fill="#334155" xml:space="preserve" style="white-space: pre" font-family="Manrope" font-size="11" font-weight="600" letter-spacing="0em"><tspan x="14.7422" y="26.4573">&#x41d;&#x430;&#x441;&#x442;&#x440;&#x43e;&#x439;&#x43a;&#x438; &#x43f;&#x440;&#x430;&#x432;</tspan></text>
<rect width="598.004" height="22.6231" transform="translate(0.996094 36.6191)" fill="white"/>
<rect width="137.472" height="22.6231" transform="translate(0.996094 36.6191)" fill="white"/>
<text fill="#334155" xml:space="preserve" style="white-space: pre" font-family="Manrope" font-size="9" letter-spacing="0em"><tspan x="14.7422" y="51.353">&#x41f;&#x443;&#x43d;&#x43a;&#x442;</tspan></text>
<rect width="3.43681" height="21.9956" transform="translate(138.469 37.2471)" fill="white"/>
<rect x="139.844" y="41.3711" width="0.687361" height="13.7472" rx="0.343681" fill="#ECECEC"/>
<rect width="137.472" height="22.3104" transform="translate(141.906 36.9316)" fill="white"/>
<text fill="#334155" xml:space="preserve" style="white-space: pre" font-family="Manrope" font-size="9" letter-spacing="0em"><tspan x="191.243" y="51.246">&#x421;&#x43c;&#x43e;&#x442;&#x440;&#x435;&#x442;&#x44c;</tspan></text>
<rect width="3.43681" height="21.9956" transform="translate(279.379 37.2471)" fill="white"/>
<rect x="280.754" y="41.3711" width="0.687361" height="13.7472" rx="0.343681" fill="#ECECEC"/>
<rect width="103.104" height="22.3104" transform="translate(282.812 36.9316)" fill="white"/>
<text fill="#334155" xml:space="preserve" style="white-space: pre" font-family="Manrope" font-size="9" letter-spacing="0em"><tspan x="313.371" y="51.246">&#x421;&#x43e;&#x437;&#x434;&#x430;&#x432;&#x430;&#x442;&#x44c;</tspan></text>
<rect width="3.43681" height="21.9956" transform="translate(385.918 37.2471)" fill="white"/>
<rect x="387.293" y="41.3711" width="0.687361" height="13.7472" rx="0.343681" fill="#ECECEC"/>
<rect width="103.104" height="22.3104" transform="translate(389.355 36.9316)" fill="white"/>
<text fill="#334155" xml:space="preserve" style="white-space: pre" font-family="Manrope" font-size="9" letter-spacing="0em"><tspan x="411.089" y="51.246">&#x420;&#x435;&#x434;&#x430;&#x43a;&#x442;&#x438;&#x440;&#x43e;&#x432;&#x430;&#x442;&#x44c;</tspan></text>
<rect width="3.43681" height="21.9956" transform="translate(492.461 37.2471)" fill="white"/>
<rect x="493.836" y="41.3711" width="0.687361" height="13.7472" rx="0.343681" fill="#ECECEC"/>
<rect width="103.104" height="22.3104" transform="translate(495.895 36.9316)" fill="white"/>
<text fill="#334155" xml:space="preserve" style="white-space: pre" font-family="Manrope" font-size="9" letter-spacing="0em"><tspan x="531.503" y="51.246">&#x423;&#x434;&#x430;&#x43b;&#x44f;&#x442;&#x44c;</tspan></text>
<rect width="598.004" height="22.3104" transform="translate(0.996094 59.2422)" fill="#F7F9FD"/>
<rect width="137.472" height="21.9956" transform="translate(0.996094 59.5566)" fill="#F7F9FD"/>
<text fill="#334155" xml:space="preserve" style="white-space: pre" font-family="Manrope" font-size="9" letter-spacing="0em"><tspan x="14.7422" y="73.7138">&#x42e;&#x440;. &#x43b;&#x438;&#x446;&#x430;</tspan></text>
<circle cx="124.722" cy="70.5546" r="5.15521" stroke="#A5AEC0" stroke-width="1.03104"/>
<ellipse cx="124.72" cy="73.9915" rx="0.2864" ry="0.286401" fill="#A5AEC0" stroke="#A5AEC0" stroke-width="0.687361"/>
<path d="M124.722 72.8456V72.0329C124.722 71.4921 125.068 71.0119 125.582 70.8408V70.8408C126.095 70.6698 126.441 70.1896 126.441 69.6488V69.3548C126.441 68.4356 125.696 67.6904 124.776 67.6904H124.722C123.773 67.6904 123.004 68.4598 123.004 69.4088V69.4088" stroke="#A5AEC0" stroke-width="1.03104"/>
<rect width="3.43681" height="21.9956" transform="translate(138.469 59.5566)" fill="#F7F9FD"/>
<rect x="139.844" y="63.6807" width="0.687361" height="13.7472" rx="0.343681" fill="#ECECEC"/>
<rect width="137.472" height="22.3104" transform="translate(141.906 59.2422)" fill="#F7F9FD"/>
<text fill="#334155" xml:space="preserve" style="white-space: pre" font-family="Manrope" font-size="9" letter-spacing="0em"><tspan x="180.913" y="73.5566">&#x418;&#x41f; &#x41a;&#x43e;&#x43b;&#x435;&#x441;&#x43d;&#x438;&#x43a;&#x43e;&#x432;</tspan></text>
<rect width="3.43681" height="21.9956" transform="translate(279.379 59.5566)" fill="#F7F9FD"/>
<rect x="280.754" y="63.6807" width="0.687361" height="13.7472" rx="0.343681" fill="#ECECEC"/>
<rect width="103.104" height="22.3104" transform="translate(282.812 59.2422)" fill="#F7F9FD"/>
<text fill="#334155" xml:space="preserve" style="white-space: pre" font-family="Manrope" font-size="9" letter-spacing="0em"><tspan x="327.068" y="73.5566">&#x41d;&#x435;&#x442;</tspan></text>
<rect width="3.43681" height="21.9956" transform="translate(385.918 59.5566)" fill="#F7F9FD"/>
<rect x="387.293" y="63.6807" width="0.687361" height="13.7472" rx="0.343681" fill="#ECECEC"/>
<rect width="103.104" height="22.3104" transform="translate(389.355 59.2422)" fill="#F7F9FD"/>
<text fill="#334155" xml:space="preserve" style="white-space: pre" font-family="Manrope" font-size="9" letter-spacing="0em"><tspan x="433.611" y="73.5566">&#x41d;&#x435;&#x442;</tspan></text>
<rect width="3.43681" height="21.9956" transform="translate(492.461 59.5566)" fill="#F7F9FD"/>
<rect x="493.836" y="63.6807" width="0.687361" height="13.7472" rx="0.343681" fill="#ECECEC"/>
<rect width="103.104" height="22.3104" transform="translate(495.895 59.2422)" fill="#F7F9FD"/>
<text fill="#334155" xml:space="preserve" style="white-space: pre" font-family="Manrope" font-size="9" letter-spacing="0em"><tspan x="540.15" y="73.5566">&#x41d;&#x435;&#x442;</tspan></text>
<rect width="598.004" height="22.3104" transform="translate(0.996094 81.5527)" fill="white"/>
<rect width="137.472" height="21.9956" transform="translate(0.996094 81.8672)" fill="white"/>
<text fill="#334155" xml:space="preserve" style="white-space: pre" font-family="Manrope" font-size="9" letter-spacing="0em"><tspan x="14.7422" y="96.0243">&#x421;&#x43e;&#x442;&#x440;&#x443;&#x434;&#x43d;&#x438;&#x43a;&#x438;</tspan></text>
<circle cx="124.722" cy="92.8652" r="5.15521" stroke="#A5AEC0" stroke-width="1.03104"/>
<ellipse cx="124.72" cy="96.302" rx="0.2864" ry="0.286401" fill="#A5AEC0" stroke="#A5AEC0" stroke-width="0.687361"/>
<path d="M124.722 95.1562V94.3435C124.722 93.8026 125.068 93.3224 125.582 93.1514V93.1514C126.095 92.9803 126.441 92.5002 126.441 91.9593V91.6654C126.441 90.7461 125.696 90.001 124.776 90.001H124.722C123.773 90.001 123.004 90.7703 123.004 91.7194V91.7194" stroke="#A5AEC0" stroke-width="1.03104"/>
<rect width="3.43681" height="21.9956" transform="translate(138.469 81.8672)" fill="white"/>
<rect x="139.844" y="85.9912" width="0.687361" height="13.7472" rx="0.343681" fill="#ECECEC"/>
<rect width="137.472" height="22.3104" transform="translate(141.906 81.5527)" fill="white"/>
<text fill="#334155" xml:space="preserve" style="white-space: pre" font-family="Manrope" font-size="9" letter-spacing="0em"><tspan x="196.499" y="95.8671">&#x41d;&#x438;&#x447;&#x435;&#x433;&#x43e;</tspan></text>
<rect width="3.43681" height="21.9956" transform="translate(279.379 81.8672)" fill="white"/>
<rect x="280.754" y="85.9912" width="0.687361" height="13.7472" rx="0.343681" fill="#ECECEC"/>
<rect width="103.104" height="22.3104" transform="translate(282.812 81.5527)" fill="white"/>
<text fill="#334155" xml:space="preserve" style="white-space: pre" font-family="Manrope" font-size="9" letter-spacing="0em"><tspan x="327.068" y="95.8671">&#x41d;&#x435;&#x442;</tspan></text>
<rect width="3.43681" height="21.9956" transform="translate(385.918 81.8672)" fill="white"/>
<rect x="387.293" y="85.9912" width="0.687361" height="13.7472" rx="0.343681" fill="#ECECEC"/>
<rect width="103.104" height="22.3104" transform="translate(389.355 81.5527)" fill="white"/>
<text fill="#334155" xml:space="preserve" style="white-space: pre" font-family="Manrope" font-size="9" letter-spacing="0em"><tspan x="433.611" y="95.8671">&#x41d;&#x435;&#x442;</tspan></text>
<rect width="3.43681" height="21.9956" transform="translate(492.461 81.8672)" fill="white"/>
<rect x="493.836" y="85.9912" width="0.687361" height="13.7472" rx="0.343681" fill="#ECECEC"/>
<rect width="103.104" height="22.3104" transform="translate(495.895 81.5527)" fill="white"/>
<text fill="#334155" xml:space="preserve" style="white-space: pre" font-family="Manrope" font-size="9" letter-spacing="0em"><tspan x="540.15" y="95.8671">&#x41d;&#x435;&#x442;</tspan></text>
<rect width="598.004" height="22.3104" transform="translate(0.996094 103.863)" fill="#F7F9FD"/>
<rect width="137.472" height="21.9956" transform="translate(0.996094 104.178)" fill="#F7F9FD"/>
<text fill="#334155" xml:space="preserve" style="white-space: pre" font-family="Manrope" font-size="9" letter-spacing="0em"><tspan x="14.7422" y="118.335">&#x421;&#x43a;&#x43b;&#x430;&#x434;&#x44b;</tspan></text>
<circle cx="124.722" cy="115.176" r="5.15521" stroke="#A5AEC0" stroke-width="1.03104"/>
<ellipse cx="124.72" cy="118.613" rx="0.2864" ry="0.286401" fill="#A5AEC0" stroke="#A5AEC0" stroke-width="0.687361"/>
<path d="M124.722 117.467V116.654C124.722 116.113 125.068 115.633 125.582 115.462V115.462C126.095 115.291 126.441 114.811 126.441 114.27V113.976C126.441 113.057 125.696 112.312 124.776 112.312H124.722C123.773 112.312 123.004 113.081 123.004 114.03V114.03" stroke="#A5AEC0" stroke-width="1.03104"/>
<rect width="3.43681" height="21.9956" transform="translate(138.469 104.178)" fill="#F7F9FD"/>
<rect x="139.844" y="108.302" width="0.687361" height="13.7472" rx="0.343681" fill="#ECECEC"/>
<rect width="137.472" height="22.3104" transform="translate(141.906 103.863)" fill="#F7F9FD"/>
<text fill="#334155" xml:space="preserve" style="white-space: pre" font-family="Manrope" font-size="9" letter-spacing="0em"><tspan x="179.447" y="118.178">&#x41e;&#x41e;&#x41e; &#x201c;&#x421;&#x43a;&#x430;&#x439;&#x442;&#x435;&#x43a;&#x441;&#x201d;</tspan></text>
<rect width="3.43681" height="21.9956" transform="translate(279.379 104.178)" fill="#F7F9FD"/>
<rect x="280.754" y="108.302" width="0.687361" height="13.7472" rx="0.343681" fill="#ECECEC"/>
<rect width="103.104" height="22.3104" transform="translate(282.812 103.863)" fill="#F7F9FD"/>
<text fill="#334155" xml:space="preserve" style="white-space: pre" font-family="Manrope" font-size="9" letter-spacing="0em"><tspan x="329.034" y="118.178">&#x414;&#x430;</tspan></text>
<rect width="3.43681" height="21.9956" transform="translate(385.918 104.178)" fill="#F7F9FD"/>
<rect x="387.293" y="108.302" width="0.687361" height="13.7472" rx="0.343681" fill="#ECECEC"/>
<rect width="103.104" height="22.3104" transform="translate(389.355 103.863)" fill="#F7F9FD"/>
<text fill="#334155" xml:space="preserve" style="white-space: pre" font-family="Manrope" font-size="9" letter-spacing="0em"><tspan x="435.577" y="118.178">&#x414;&#x430;</tspan></text>
<rect width="3.43681" height="21.9956" transform="translate(492.461 104.178)" fill="#F7F9FD"/>
<rect x="493.836" y="108.302" width="0.687361" height="13.7472" rx="0.343681" fill="#ECECEC"/>
<rect width="103.104" height="22.3104" transform="translate(495.895 103.863)" fill="#F7F9FD"/>
<text fill="#334155" xml:space="preserve" style="white-space: pre" font-family="Manrope" font-size="9" letter-spacing="0em"><tspan x="542.116" y="118.178">&#x414;&#x430;</tspan></text>
<rect width="598.004" height="22.3104" transform="translate(0.996094 126.174)" fill="white"/>
<rect width="137.472" height="21.9956" transform="translate(0.996094 126.488)" fill="white"/>
<text fill="#334155" xml:space="preserve" style="white-space: pre" font-family="Manrope" font-size="9" letter-spacing="0em"><tspan x="14.7422" y="140.645">&#x412;&#x430;&#x43b;&#x44e;&#x442;&#x44b;</tspan></text>
<circle cx="124.722" cy="137.486" r="5.15521" stroke="#A5AEC0" stroke-width="1.03104"/>
<ellipse cx="124.72" cy="140.923" rx="0.2864" ry="0.286401" fill="#A5AEC0" stroke="#A5AEC0" stroke-width="0.687361"/>
<path d="M124.722 139.777V138.965C124.722 138.424 125.068 137.944 125.582 137.772V137.772C126.095 137.601 126.441 137.121 126.441 136.58V136.286C126.441 135.367 125.696 134.622 124.776 134.622H124.722C123.773 134.622 123.004 135.391 123.004 136.34V136.34" stroke="#A5AEC0" stroke-width="1.03104"/>
<rect width="3.43681" height="21.9956" transform="translate(138.469 126.488)" fill="white"/>
<rect x="139.844" y="130.612" width="0.687361" height="13.7472" rx="0.343681" fill="#ECECEC"/>
<rect width="137.472" height="22.3104" transform="translate(141.906 126.174)" fill="white"/>
<text fill="#334155" xml:space="preserve" style="white-space: pre" font-family="Manrope" font-size="9" letter-spacing="0em"><tspan x="203.418" y="140.488">&#x412;&#x441;&#x435;</tspan></text>
<rect width="3.43681" height="21.9956" transform="translate(279.379 126.488)" fill="white"/>
<rect x="280.754" y="130.612" width="0.687361" height="13.7472" rx="0.343681" fill="#ECECEC"/>
<rect width="103.104" height="22.3104" transform="translate(282.812 126.174)" fill="white"/>
<text fill="#334155" xml:space="preserve" style="white-space: pre" font-family="Manrope" font-size="9" letter-spacing="0em"><tspan x="329.034" y="140.488">&#x414;&#x430;</tspan></text>
<rect width="3.43681" height="21.9956" transform="translate(385.918 126.488)" fill="white"/>
<rect x="387.293" y="130.612" width="0.687361" height="13.7472" rx="0.343681" fill="#ECECEC"/>
<rect width="103.104" height="22.3104" transform="translate(389.355 126.174)" fill="white"/>
<text fill="#334155" xml:space="preserve" style="white-space: pre" font-family="Manrope" font-size="9" letter-spacing="0em"><tspan x="435.577" y="140.488">&#x414;&#x430;</tspan></text>
<rect width="3.43681" height="21.9956" transform="translate(492.461 126.488)" fill="white"/>
<rect x="493.836" y="130.612" width="0.687361" height="13.7472" rx="0.343681" fill="#ECECEC"/>
<rect width="103.104" height="22.3104" transform="translate(495.895 126.174)" fill="white"/>
<text fill="#334155" xml:space="preserve" style="white-space: pre" font-family="Manrope" font-size="9" letter-spacing="0em"><tspan x="542.116" y="140.488">&#x414;&#x430;</tspan></text>
<rect width="598.004" height="22.3104" transform="translate(0.996094 148.484)" fill="#F7F9FD"/>
<rect width="137.472" height="21.9956" transform="translate(0.996094 148.799)" fill="#F7F9FD"/>
<text fill="#334155" xml:space="preserve" style="white-space: pre" font-family="Manrope" font-size="9" letter-spacing="0em"><tspan x="14.7422" y="162.956">&#x41f;&#x440;&#x43e;&#x435;&#x43a;&#x442;&#x44b;</tspan></text>
<circle cx="124.722" cy="159.797" r="5.15521" stroke="#A5AEC0" stroke-width="1.03104"/>
<ellipse cx="124.72" cy="163.234" rx="0.2864" ry="0.286401" fill="#A5AEC0" stroke="#A5AEC0" stroke-width="0.687361"/>
<path d="M124.722 162.088V161.275C124.722 160.734 125.068 160.254 125.582 160.083V160.083C126.095 159.912 126.441 159.432 126.441 158.891V158.597C126.441 157.678 125.696 156.933 124.776 156.933H124.722C123.773 156.933 123.004 157.702 123.004 158.651V158.651" stroke="#A5AEC0" stroke-width="1.03104"/>
<rect width="3.43681" height="21.9956" transform="translate(138.469 148.799)" fill="#F7F9FD"/>
<rect x="139.844" y="152.923" width="0.687361" height="13.7472" rx="0.343681" fill="#ECECEC"/>
<rect width="137.472" height="22.3104" transform="translate(141.906 148.484)" fill="#F7F9FD"/>
<text fill="#334155" xml:space="preserve" style="white-space: pre" font-family="Manrope" font-size="9" letter-spacing="0em"><tspan x="180.913" y="162.799">&#x418;&#x41f; &#x41a;&#x43e;&#x43b;&#x435;&#x441;&#x43d;&#x438;&#x43a;&#x43e;&#x432;</tspan></text>
<rect width="3.43681" height="21.9956" transform="translate(279.379 148.799)" fill="#F7F9FD"/>
<rect x="280.754" y="152.923" width="0.687361" height="13.7472" rx="0.343681" fill="#ECECEC"/>
<rect width="103.104" height="22.3104" transform="translate(282.812 148.484)" fill="#F7F9FD"/>
<text fill="#334155" xml:space="preserve" style="white-space: pre" font-family="Manrope" font-size="9" letter-spacing="0em"><tspan x="327.068" y="162.799">&#x41d;&#x435;&#x442;</tspan></text>
<rect width="3.43681" height="21.9956" transform="translate(385.918 148.799)" fill="#F7F9FD"/>
<rect x="387.293" y="152.923" width="0.687361" height="13.7472" rx="0.343681" fill="#ECECEC"/>
<rect width="103.104" height="22.3104" transform="translate(389.355 148.484)" fill="#F7F9FD"/>
<text fill="#334155" xml:space="preserve" style="white-space: pre" font-family="Manrope" font-size="9" letter-spacing="0em"><tspan x="433.611" y="162.799">&#x41d;&#x435;&#x442;</tspan></text>
<rect width="3.43681" height="21.9956" transform="translate(492.461 148.799)" fill="#F7F9FD"/>
<rect x="493.836" y="152.923" width="0.687361" height="13.7472" rx="0.343681" fill="#ECECEC"/>
<rect width="103.104" height="22.3104" transform="translate(495.895 148.484)" fill="#F7F9FD"/>
<text fill="#334155" xml:space="preserve" style="white-space: pre" font-family="Manrope" font-size="9" letter-spacing="0em"><tspan x="540.15" y="162.799">&#x41d;&#x435;&#x442;</tspan></text>
<rect width="598.004" height="22.3104" transform="translate(0.996094 170.794)" fill="white"/>
<rect width="137.472" height="21.9956" transform="translate(0.996094 171.108)" fill="white"/>
<text fill="#334155" xml:space="preserve" style="white-space: pre" font-family="Manrope" font-size="9" letter-spacing="0em"><tspan x="14.7422" y="185.266">&#x414;&#x43e;&#x43f;.&#x441;&#x43f;&#x440;&#x430;&#x432;&#x43e;&#x447;&#x43d;&#x438;&#x43a;&#x438;</tspan></text>
<circle cx="124.722" cy="182.106" r="5.15521" stroke="#A5AEC0" stroke-width="1.03104"/>
<ellipse cx="124.72" cy="185.543" rx="0.2864" ry="0.286401" fill="#A5AEC0" stroke="#A5AEC0" stroke-width="0.687361"/>
<path d="M124.722 184.397V183.585C124.722 183.044 125.068 182.564 125.582 182.393V182.393C126.095 182.222 126.441 181.741 126.441 181.201V180.907C126.441 179.987 125.696 179.242 124.776 179.242H124.722C123.773 179.242 123.004 180.012 123.004 180.961V180.961" stroke="#A5AEC0" stroke-width="1.03104"/>
<rect width="3.43681" height="21.9956" transform="translate(138.469 171.108)" fill="white"/>
<rect x="139.844" y="175.232" width="0.687361" height="13.7472" rx="0.343681" fill="#ECECEC"/>
<rect width="137.472" height="22.3104" transform="translate(141.906 170.794)" fill="white"/>
<text fill="#334155" xml:space="preserve" style="white-space: pre" font-family="Manrope" font-size="9" letter-spacing="0em"><tspan x="196.499" y="185.108">&#x41d;&#x438;&#x447;&#x435;&#x433;&#x43e;</tspan></text>
<rect width="3.43681" height="21.9956" transform="translate(279.379 171.108)" fill="white"/>
<rect x="280.754" y="175.232" width="0.687361" height="13.7472" rx="0.343681" fill="#ECECEC"/>
<rect width="103.104" height="22.3104" transform="translate(282.812 170.794)" fill="white"/>
<text fill="#334155" xml:space="preserve" style="white-space: pre" font-family="Manrope" font-size="9" letter-spacing="0em"><tspan x="327.068" y="185.108">&#x41d;&#x435;&#x442;</tspan></text>
<rect width="3.43681" height="21.9956" transform="translate(385.918 171.108)" fill="white"/>
<rect x="387.293" y="175.232" width="0.687361" height="13.7472" rx="0.343681" fill="#ECECEC"/>
<rect width="103.104" height="22.3104" transform="translate(389.355 170.794)" fill="white"/>
<text fill="#334155" xml:space="preserve" style="white-space: pre" font-family="Manrope" font-size="9" letter-spacing="0em"><tspan x="433.611" y="185.108">&#x41d;&#x435;&#x442;</tspan></text>
<rect width="3.43681" height="21.9956" transform="translate(492.461 171.108)" fill="white"/>
<rect x="493.836" y="175.232" width="0.687361" height="13.7472" rx="0.343681" fill="#ECECEC"/>
<rect width="103.104" height="22.3104" transform="translate(495.895 170.794)" fill="white"/>
<text fill="#334155" xml:space="preserve" style="white-space: pre" font-family="Manrope" font-size="9" letter-spacing="0em"><tspan x="540.15" y="185.108">&#x41d;&#x435;&#x442;</tspan></text>
<rect width="598.004" height="22.3104" transform="translate(0.996094 193.104)" fill="#F7F9FD"/>
<rect width="137.472" height="21.9956" transform="translate(0.996094 193.419)" fill="#F7F9FD"/>
<text fill="#334155" xml:space="preserve" style="white-space: pre" font-family="Manrope" font-size="9" letter-spacing="0em"><tspan x="14.7422" y="207.576">&#x421;&#x442;&#x440;&#x430;&#x43d;&#x44b;</tspan></text>
<circle cx="124.722" cy="204.417" r="5.15521" stroke="#A5AEC0" stroke-width="1.03104"/>
<ellipse cx="124.72" cy="207.854" rx="0.2864" ry="0.286401" fill="#A5AEC0" stroke="#A5AEC0" stroke-width="0.687361"/>
<path d="M124.722 206.708V205.895C124.722 205.354 125.068 204.874 125.582 204.703V204.703C126.095 204.532 126.441 204.052 126.441 203.511V203.217C126.441 202.298 125.696 201.553 124.776 201.553H124.722C123.773 201.553 123.004 202.322 123.004 203.271V203.271" stroke="#A5AEC0" stroke-width="1.03104"/>
<rect width="3.43681" height="21.9956" transform="translate(138.469 193.419)" fill="#F7F9FD"/>
<rect x="139.844" y="197.543" width="0.687361" height="13.7472" rx="0.343681" fill="#ECECEC"/>
<rect width="137.472" height="22.3104" transform="translate(141.906 193.104)" fill="#F7F9FD"/>
<text fill="#334155" xml:space="preserve" style="white-space: pre" font-family="Manrope" font-size="9" letter-spacing="0em"><tspan x="196.499" y="207.419">&#x41d;&#x438;&#x447;&#x435;&#x433;&#x43e;</tspan></text>
<rect width="3.43681" height="21.9956" transform="translate(279.379 193.419)" fill="#F7F9FD"/>
<rect x="280.754" y="197.543" width="0.687361" height="13.7472" rx="0.343681" fill="#ECECEC"/>
<rect width="103.104" height="22.3104" transform="translate(282.812 193.104)" fill="#F7F9FD"/>
<text fill="#334155" xml:space="preserve" style="white-space: pre" font-family="Manrope" font-size="9" letter-spacing="0em"><tspan x="327.068" y="207.419">&#x41d;&#x435;&#x442;</tspan></text>
<rect width="3.43681" height="21.9956" transform="translate(385.918 193.419)" fill="#F7F9FD"/>
<rect x="387.293" y="197.543" width="0.687361" height="13.7472" rx="0.343681" fill="#ECECEC"/>
<rect width="103.104" height="22.3104" transform="translate(389.355 193.104)" fill="#F7F9FD"/>
<text fill="#334155" xml:space="preserve" style="white-space: pre" font-family="Manrope" font-size="9" letter-spacing="0em"><tspan x="433.611" y="207.419">&#x41d;&#x435;&#x442;</tspan></text>
<rect width="3.43681" height="21.9956" transform="translate(492.461 193.419)" fill="#F7F9FD"/>
<rect x="493.836" y="197.543" width="0.687361" height="13.7472" rx="0.343681" fill="#ECECEC"/>
<rect width="103.104" height="22.3104" transform="translate(495.895 193.104)" fill="#F7F9FD"/>
<text fill="#334155" xml:space="preserve" style="white-space: pre" font-family="Manrope" font-size="9" letter-spacing="0em"><tspan x="540.15" y="207.419">&#x41d;&#x435;&#x442;</tspan></text>
<rect width="598.004" height="22.3104" transform="translate(0.996094 215.415)" fill="white"/>
<rect width="137.472" height="21.9956" transform="translate(0.996094 215.729)" fill="white"/>
<text fill="#334155" xml:space="preserve" style="white-space: pre" font-family="Manrope" font-size="9" letter-spacing="0em"><tspan x="14.7422" y="229.887">&#x415;&#x434;&#x438;&#x43d;&#x438;&#x446;&#x44b; &#x438;&#x437;&#x43c;&#x435;&#x440;&#x435;&#x43d;&#x438;&#x44f;</tspan></text>
<circle cx="124.722" cy="226.727" r="5.15521" stroke="#A5AEC0" stroke-width="1.03104"/>
<ellipse cx="124.72" cy="230.164" rx="0.2864" ry="0.286401" fill="#A5AEC0" stroke="#A5AEC0" stroke-width="0.687361"/>
<path d="M124.722 229.018V228.206C124.722 227.665 125.068 227.185 125.582 227.014V227.014C126.095 226.843 126.441 226.362 126.441 225.822V225.528C126.441 224.608 125.696 223.863 124.776 223.863H124.722C123.773 223.863 123.004 224.633 123.004 225.582V225.582" stroke="#A5AEC0" stroke-width="1.03104"/>
<rect width="3.43681" height="21.9956" transform="translate(138.469 215.729)" fill="white"/>
<rect x="139.844" y="219.854" width="0.687361" height="13.7472" rx="0.343681" fill="#ECECEC"/>
<rect width="137.472" height="22.3104" transform="translate(141.906 215.415)" fill="white"/>
<text fill="#334155" xml:space="preserve" style="white-space: pre" font-family="Manrope" font-size="9" letter-spacing="0em"><tspan x="203.418" y="229.729">&#x412;&#x441;&#x435;</tspan></text>
<rect width="3.43681" height="21.9956" transform="translate(279.379 215.729)" fill="white"/>
<rect x="280.754" y="219.854" width="0.687361" height="13.7472" rx="0.343681" fill="#ECECEC"/>
<rect width="103.104" height="22.3104" transform="translate(282.812 215.415)" fill="white"/>
<text fill="#334155" xml:space="preserve" style="white-space: pre" font-family="Manrope" font-size="9" letter-spacing="0em"><tspan x="329.034" y="229.729">&#x414;&#x430;</tspan></text>
<rect width="3.43681" height="21.9956" transform="translate(385.918 215.729)" fill="white"/>
<rect x="387.293" y="219.854" width="0.687361" height="13.7472" rx="0.343681" fill="#ECECEC"/>
<rect width="103.104" height="22.3104" transform="translate(389.355 215.415)" fill="white"/>
<text fill="#334155" xml:space="preserve" style="white-space: pre" font-family="Manrope" font-size="9" letter-spacing="0em"><tspan x="435.577" y="229.729">&#x414;&#x430;</tspan></text>
<rect width="3.43681" height="21.9956" transform="translate(492.461 215.729)" fill="white"/>
<rect x="493.836" y="219.854" width="0.687361" height="13.7472" rx="0.343681" fill="#ECECEC"/>
<rect width="103.104" height="22.3104" transform="translate(495.895 215.415)" fill="white"/>
<text fill="#334155" xml:space="preserve" style="white-space: pre" font-family="Manrope" font-size="9" letter-spacing="0em"><tspan x="542.116" y="229.729">&#x414;&#x430;</tspan></text>
<rect width="598.004" height="22.3104" transform="translate(0.996094 237.726)" fill="#F7F9FD"/>
<rect width="137.472" height="21.9956" transform="translate(0.996094 238.04)" fill="#F7F9FD"/>
<text fill="#334155" xml:space="preserve" style="white-space: pre" font-family="Manrope" font-size="9" letter-spacing="0em"><tspan x="14.7422" y="252.197">&#x41a;&#x430;&#x43d;&#x430;&#x43b;&#x44b; &#x43f;&#x440;&#x43e;&#x434;&#x430;&#x436;</tspan></text>
<circle cx="124.722" cy="249.038" r="5.15521" stroke="#A5AEC0" stroke-width="1.03104"/>
<ellipse cx="124.72" cy="252.475" rx="0.2864" ry="0.286401" fill="#A5AEC0" stroke="#A5AEC0" stroke-width="0.687361"/>
<path d="M124.722 251.329V250.516C124.722 249.975 125.068 249.495 125.582 249.324V249.324C126.095 249.153 126.441 248.673 126.441 248.132V247.838C126.441 246.919 125.696 246.174 124.776 246.174H124.722C123.773 246.174 123.004 246.943 123.004 247.892V247.892" stroke="#A5AEC0" stroke-width="1.03104"/>
<rect width="3.43681" height="21.9956" transform="translate(138.469 238.04)" fill="#F7F9FD"/>
<rect x="139.844" y="242.164" width="0.687361" height="13.7472" rx="0.343681" fill="#ECECEC"/>
<rect width="137.472" height="22.3104" transform="translate(141.906 237.726)" fill="#F7F9FD"/>
<text fill="#334155" xml:space="preserve" style="white-space: pre" font-family="Manrope" font-size="9" letter-spacing="0em"><tspan x="203.418" y="252.04">&#x412;&#x441;&#x435;</tspan></text>
<rect width="3.43681" height="21.9956" transform="translate(279.379 238.04)" fill="#F7F9FD"/>
<rect x="280.754" y="242.164" width="0.687361" height="13.7472" rx="0.343681" fill="#ECECEC"/>
<rect width="103.104" height="22.3104" transform="translate(282.812 237.726)" fill="#F7F9FD"/>
<text fill="#334155" xml:space="preserve" style="white-space: pre" font-family="Manrope" font-size="9" letter-spacing="0em"><tspan x="329.034" y="252.04">&#x414;&#x430;</tspan></text>
<rect width="3.43681" height="21.9956" transform="translate(385.918 238.04)" fill="#F7F9FD"/>
<rect x="387.293" y="242.164" width="0.687361" height="13.7472" rx="0.343681" fill="#ECECEC"/>
<rect width="103.104" height="22.3104" transform="translate(389.355 237.726)" fill="#F7F9FD"/>
<text fill="#334155" xml:space="preserve" style="white-space: pre" font-family="Manrope" font-size="9" letter-spacing="0em"><tspan x="435.577" y="252.04">&#x414;&#x430;</tspan></text>
<rect width="3.43681" height="21.9956" transform="translate(492.461 238.04)" fill="#F7F9FD"/>
<rect x="493.836" y="242.164" width="0.687361" height="13.7472" rx="0.343681" fill="#ECECEC"/>
<rect width="103.104" height="22.3104" transform="translate(495.895 237.726)" fill="#F7F9FD"/>
<text fill="#334155" xml:space="preserve" style="white-space: pre" font-family="Manrope" font-size="9" letter-spacing="0em"><tspan x="542.116" y="252.04">&#x414;&#x430;</tspan></text>
<rect width="598.004" height="22.3104" transform="translate(0.996094 260.036)" fill="white"/>
<rect width="137.472" height="21.9956" transform="translate(0.996094 260.351)" fill="white"/>
<text fill="#334155" xml:space="preserve" style="white-space: pre" font-family="Manrope" font-size="9" letter-spacing="0em"><tspan x="14.7422" y="274.508">&#x421;&#x442;&#x430;&#x432;&#x43a;&#x438; &#x41d;&#x414;&#x421;</tspan></text>
<circle cx="124.722" cy="271.349" r="5.15521" stroke="#A5AEC0" stroke-width="1.03104"/>
<ellipse cx="124.72" cy="274.785" rx="0.2864" ry="0.286401" fill="#A5AEC0" stroke="#A5AEC0" stroke-width="0.687361"/>
<path d="M124.722 273.64V272.827C124.722 272.286 125.068 271.806 125.582 271.635V271.635C126.095 271.464 126.441 270.984 126.441 270.443V270.149C126.441 269.23 125.696 268.484 124.776 268.484H124.722C123.773 268.484 123.004 269.254 123.004 270.203V270.203" stroke="#A5AEC0" stroke-width="1.03104"/>
<rect width="3.43681" height="21.9956" transform="translate(138.469 260.351)" fill="white"/>
<rect x="139.844" y="264.475" width="0.687361" height="13.7472" rx="0.343681" fill="#ECECEC"/>
<rect width="137.472" height="22.3104" transform="translate(141.906 260.036)" fill="white"/>
<text fill="#334155" xml:space="preserve" style="white-space: pre" font-family="Manrope" font-size="9" letter-spacing="0em"><tspan x="203.418" y="274.351">&#x412;&#x441;&#x435;</tspan></text>
<rect width="3.43681" height="21.9956" transform="translate(279.379 260.351)" fill="white"/>
<rect x="280.754" y="264.475" width="0.687361" height="13.7472" rx="0.343681" fill="#ECECEC"/>
<rect width="103.104" height="22.3104" transform="translate(282.812 260.036)" fill="white"/>
<text fill="#334155" xml:space="preserve" style="white-space: pre" font-family="Manrope" font-size="9" letter-spacing="0em"><tspan x="329.034" y="274.351">&#x414;&#x430;</tspan></text>
<rect width="3.43681" height="21.9956" transform="translate(385.918 260.351)" fill="white"/>
<rect x="387.293" y="264.475" width="0.687361" height="13.7472" rx="0.343681" fill="#ECECEC"/>
<rect width="103.104" height="22.3104" transform="translate(389.355 260.036)" fill="white"/>
<text fill="#334155" xml:space="preserve" style="white-space: pre" font-family="Manrope" font-size="9" letter-spacing="0em"><tspan x="435.577" y="274.351">&#x414;&#x430;</tspan></text>
<rect width="3.43681" height="21.9956" transform="translate(492.461 260.351)" fill="white"/>
<rect x="493.836" y="264.475" width="0.687361" height="13.7472" rx="0.343681" fill="#ECECEC"/>
<rect width="103.104" height="22.3104" transform="translate(495.895 260.036)" fill="white"/>
<text fill="#334155" xml:space="preserve" style="white-space: pre" font-family="Manrope" font-size="9" letter-spacing="0em"><tspan x="542.116" y="274.351">&#x414;&#x430;</tspan></text>
</g>
<defs>
<clipPath id="clip0_1349_111831">
<rect width="598.004" height="546.004" fill="white" transform="translate(0.996094 0.998047)"/>
</clipPath>
</defs>
</svg>
