<svg width="138" height="189" viewBox="0 0 138 189" fill="none" xmlns="http://www.w3.org/2000/svg">
<path d="M24.5088 39.0009C26.774 27.2098 34.0223 24.7115 44.363 27.2044C59.6852 31.1803 69.4757 43.0079 66.3611 54.3934C66.306 54.5962 66.255 54.799 66.2149 55.007L44.1547 168.737C41.586 188.83 -4.04959 201.595 0.290849 164.511L24.5088 39.0009Z" fill="#4CC67F"/>
<path d="M95.5684 12.6723C97.8336 0.88123 105.082 -1.61711 115.423 0.875756C130.745 4.85164 140.535 16.6793 137.421 28.0648C137.366 28.2676 137.315 28.4704 137.275 28.6784L115.214 142.409C112.646 162.501 67.01 175.266 71.3504 138.183L95.5684 12.6723Z" fill="#4CC67F"/>
</svg>
