<svg width="179" height="56" viewBox="0 0 179 56" fill="none" xmlns="http://www.w3.org/2000/svg">
<path d="M5.328 16.2903C5.82044 13.784 7.39614 13.253 9.64413 13.7828C12.975 14.6279 15.1034 17.142 14.4263 19.5621C14.4143 19.6052 14.4033 19.6483 14.3946 19.6925L9.59885 43.8667C9.04044 48.1376 -0.880345 50.8508 0.0632279 42.9684L5.328 16.2903Z" fill="#1EC55B"/>
<path class="logo__hover" d="M5.328 16.2903C5.82044 13.784 7.39614 13.253 9.64413 13.7828C12.975 14.6279 15.1034 17.142 14.4263 19.5621C14.4143 19.6052 14.4033 19.6483 14.3946 19.6925L9.59885 43.8667C9.04044 48.1376 -0.880345 50.8508 0.0632279 42.9684L5.328 16.2903Z" fill="black" fill-opacity="0.07"/>
<path d="M20.7772 10.6936C21.2697 8.18731 22.8454 7.65627 25.0933 8.18615C28.4243 9.03125 30.5526 11.5453 29.8755 13.9654C29.8636 14.0085 29.8525 14.0516 29.8438 14.0958L25.0481 38.27C24.4897 42.5409 14.5689 45.2541 15.5124 37.3718L20.7772 10.6936Z" fill="#1EC55B"/>
<path class="logo__hover" d="M20.7772 10.6936C21.2697 8.18731 22.8454 7.65627 25.0933 8.18615C28.4243 9.03125 30.5526 11.5453 29.8755 13.9654C29.8636 14.0085 29.8525 14.0516 29.8438 14.0958L25.0481 38.27C24.4897 42.5409 14.5689 45.2541 15.5124 37.3718L20.7772 10.6936Z" fill="black" fill-opacity="0.07"/>
<path class="logo__text" d="M57.233 19.448H49.681V39H46.065V19.448H38.481V16.28H57.233V19.448ZM63.6955 39.32C62.3728 39.32 61.1781 39.0853 60.1115 38.616C59.0661 38.1467 58.1701 37.5173 57.4235 36.728C56.6768 35.9387 56.1008 35.0213 55.6955 33.976C55.2901 32.9093 55.0875 31.8 55.0875 30.648C55.0875 29.496 55.2901 28.3973 55.6955 27.352C56.1008 26.2853 56.6768 25.3573 57.4235 24.568C58.1915 23.7787 59.0981 23.1493 60.1435 22.68C61.2101 22.2107 62.3941 21.976 63.6955 21.976C64.9968 21.976 66.1701 22.2107 67.2155 22.68C68.2821 23.1493 69.1888 23.7787 69.9355 24.568C70.7035 25.3573 71.2901 26.2853 71.6955 27.352C72.1008 28.3973 72.3035 29.496 72.3035 30.648C72.3035 31.8 72.1008 32.9093 71.6955 33.976C71.2901 35.0213 70.7035 35.9387 69.9355 36.728C69.1888 37.5173 68.2821 38.1467 67.2155 38.616C66.1701 39.0853 64.9968 39.32 63.6955 39.32ZM58.7035 30.68C58.7035 31.4907 58.8315 32.2373 59.0875 32.92C59.3435 33.6027 59.6955 34.2 60.1435 34.712C60.5915 35.2027 61.1141 35.5973 61.7115 35.896C62.3301 36.1733 62.9915 36.312 63.6955 36.312C64.3995 36.312 65.0501 36.1733 65.6475 35.896C66.2661 35.5973 66.7995 35.192 67.2475 34.68C67.6955 34.168 68.0475 33.5707 68.3035 32.888C68.5595 32.2053 68.6875 31.4587 68.6875 30.648C68.6875 29.8587 68.5595 29.1227 68.3035 28.44C68.0475 27.736 67.6955 27.128 67.2475 26.616C66.7995 26.104 66.2661 25.7093 65.6475 25.432C65.0501 25.1333 64.3995 24.984 63.6955 24.984C63.0128 24.984 62.3621 25.1333 61.7435 25.432C61.1461 25.7307 60.6235 26.136 60.1755 26.648C59.7275 27.16 59.3648 27.768 59.0875 28.472C58.8315 29.1547 58.7035 29.8907 58.7035 30.68ZM84.9295 39.32C83.5855 39.32 82.4015 39 81.3775 38.36C80.3535 37.72 79.5428 36.888 78.9455 35.864V45.816H75.4255V22.264H78.5295V25.272C79.1695 24.2693 79.9908 23.4693 80.9935 22.872C82.0175 22.2747 83.1695 21.976 84.4495 21.976C85.6015 21.976 86.6575 22.2107 87.6175 22.68C88.5775 23.1493 89.4095 23.7787 90.1135 24.568C90.8175 25.3573 91.3615 26.2747 91.7455 27.32C92.1508 28.3653 92.3535 29.464 92.3535 30.616C92.3535 31.832 92.1721 32.9733 91.8095 34.04C91.4468 35.0853 90.9348 36.0027 90.2735 36.792C89.6121 37.56 88.8228 38.1787 87.9055 38.648C87.0095 39.096 86.0175 39.32 84.9295 39.32ZM83.7775 36.312C84.5241 36.312 85.1961 36.152 85.7935 35.832C86.4121 35.512 86.9348 35.0853 87.3615 34.552C87.8095 34.0187 88.1508 33.4107 88.3855 32.728C88.6201 32.0453 88.7375 31.3413 88.7375 30.616C88.7375 29.848 88.5988 29.1227 88.3215 28.44C88.0655 27.7573 87.7028 27.16 87.2335 26.648C86.7855 26.136 86.2415 25.7307 85.6015 25.432C84.9615 25.1333 84.2681 24.984 83.5215 24.984C83.0735 24.984 82.6041 25.0693 82.1135 25.24C81.6228 25.4107 81.1641 25.6453 80.7375 25.944C80.3108 26.2427 79.9375 26.5947 79.6175 27C79.2975 27.384 79.0735 27.8107 78.9455 28.28V32.664C79.1588 33.176 79.4361 33.656 79.7775 34.104C80.1188 34.552 80.4921 34.936 80.8975 35.256C81.3241 35.576 81.7828 35.832 82.2735 36.024C82.7641 36.216 83.2655 36.312 83.7775 36.312ZM101.599 39.32C100.255 39.32 98.9112 39.1067 97.5672 38.68C96.2446 38.232 95.1032 37.6027 94.1432 36.792L95.5512 34.552C96.5539 35.2773 97.5459 35.832 98.5272 36.216C99.5086 36.5787 100.511 36.76 101.535 36.76C102.581 36.76 103.402 36.5573 103.999 36.152C104.618 35.7467 104.927 35.1707 104.927 34.424C104.927 33.72 104.586 33.208 103.903 32.888C103.221 32.568 102.154 32.216 100.703 31.832C99.6579 31.5547 98.7619 31.288 98.0152 31.032C97.2686 30.776 96.6606 30.4773 96.1912 30.136C95.7219 29.7947 95.3806 29.4 95.1672 28.952C94.9539 28.504 94.8472 27.96 94.8472 27.32C94.8472 26.4667 95.0072 25.7093 95.3272 25.048C95.6686 24.3867 96.1272 23.832 96.7032 23.384C97.3006 22.9147 97.9939 22.5627 98.7832 22.328C99.5726 22.0933 100.426 21.976 101.343 21.976C102.602 21.976 103.775 22.168 104.863 22.552C105.951 22.936 106.922 23.4907 107.775 24.216L106.271 26.328C104.714 25.0907 103.061 24.472 101.311 24.472C100.415 24.472 99.6579 24.664 99.0392 25.048C98.4419 25.4107 98.1432 25.9973 98.1432 26.808C98.1432 27.1493 98.2072 27.4373 98.3352 27.672C98.4632 27.9067 98.6659 28.1093 98.9432 28.28C99.2419 28.4507 99.6152 28.6107 100.063 28.76C100.533 28.888 101.109 29.0373 101.791 29.208C102.922 29.4853 103.893 29.7627 104.703 30.04C105.535 30.3173 106.218 30.648 106.751 31.032C107.285 31.3947 107.679 31.832 107.935 32.344C108.191 32.8347 108.319 33.432 108.319 34.136C108.319 35.736 107.711 37.0053 106.495 37.944C105.301 38.8613 103.669 39.32 101.599 39.32ZM118.978 39.32C117.677 39.32 116.493 39.096 115.426 38.648C114.36 38.1787 113.442 37.5493 112.674 36.76C111.928 35.9707 111.341 35.0533 110.914 34.008C110.509 32.9627 110.306 31.8533 110.306 30.68C110.306 29.5067 110.509 28.3973 110.914 27.352C111.341 26.2853 111.928 25.3573 112.674 24.568C113.442 23.7573 114.36 23.128 115.426 22.68C116.493 22.2107 117.688 21.976 119.01 21.976C120.312 21.976 121.485 22.2107 122.53 22.68C123.597 23.1493 124.504 23.7787 125.25 24.568C125.997 25.336 126.562 26.2427 126.946 27.288C127.352 28.312 127.554 29.3893 127.554 30.52C127.554 30.776 127.544 31.0213 127.522 31.256C127.501 31.4693 127.48 31.6507 127.458 31.8H114.05C114.114 32.5467 114.285 33.2187 114.562 33.816C114.861 34.4133 115.234 34.936 115.682 35.384C116.152 35.8107 116.674 36.1413 117.25 36.376C117.848 36.6107 118.466 36.728 119.106 36.728C119.576 36.728 120.034 36.6747 120.482 36.568C120.952 36.44 121.378 36.2693 121.762 36.056C122.146 35.8213 122.488 35.544 122.786 35.224C123.085 34.904 123.32 34.552 123.49 34.168L126.498 35.032C125.922 36.2907 124.962 37.3253 123.618 38.136C122.296 38.9253 120.749 39.32 118.978 39.32ZM124.066 29.368C124.002 28.664 123.821 28.0133 123.522 27.416C123.245 26.8187 122.882 26.3173 122.434 25.912C121.986 25.4853 121.464 25.1547 120.866 24.92C120.269 24.6853 119.64 24.568 118.978 24.568C118.317 24.568 117.688 24.6853 117.09 24.92C116.514 25.1547 116.002 25.4853 115.554 25.912C115.106 26.3173 114.744 26.8187 114.466 27.416C114.189 28.0133 114.018 28.664 113.954 29.368H124.066ZM130.457 15.64H133.977V34.168C133.977 34.7867 134.137 35.2773 134.457 35.64C134.777 35.9813 135.225 36.152 135.801 36.152C136.036 36.152 136.303 36.1093 136.601 36.024C136.921 35.9387 137.22 35.8427 137.497 35.736L138.009 38.488C137.497 38.7227 136.889 38.904 136.185 39.032C135.481 39.1813 134.852 39.256 134.297 39.256C133.081 39.256 132.132 38.9253 131.449 38.264C130.788 37.6027 130.457 36.664 130.457 35.448V15.64ZM140.082 15.64H143.602V34.168C143.602 34.7867 143.762 35.2773 144.082 35.64C144.402 35.9813 144.85 36.152 145.426 36.152C145.661 36.152 145.928 36.1093 146.226 36.024C146.546 35.9387 146.845 35.8427 147.122 35.736L147.634 38.488C147.122 38.7227 146.514 38.904 145.81 39.032C145.106 39.1813 144.477 39.256 143.922 39.256C142.706 39.256 141.757 38.9253 141.074 38.264C140.413 37.6027 140.082 36.664 140.082 35.448V15.64ZM157.259 39.32C155.958 39.32 154.774 39.096 153.707 38.648C152.641 38.1787 151.723 37.5493 150.955 36.76C150.209 35.9707 149.622 35.0533 149.195 34.008C148.79 32.9627 148.587 31.8533 148.587 30.68C148.587 29.5067 148.79 28.3973 149.195 27.352C149.622 26.2853 150.209 25.3573 150.955 24.568C151.723 23.7573 152.641 23.128 153.707 22.68C154.774 22.2107 155.969 21.976 157.291 21.976C158.593 21.976 159.766 22.2107 160.811 22.68C161.878 23.1493 162.785 23.7787 163.531 24.568C164.278 25.336 164.843 26.2427 165.227 27.288C165.633 28.312 165.835 29.3893 165.835 30.52C165.835 30.776 165.825 31.0213 165.803 31.256C165.782 31.4693 165.761 31.6507 165.739 31.8H152.331C152.395 32.5467 152.566 33.2187 152.843 33.816C153.142 34.4133 153.515 34.936 153.963 35.384C154.433 35.8107 154.955 36.1413 155.531 36.376C156.129 36.6107 156.747 36.728 157.387 36.728C157.857 36.728 158.315 36.6747 158.763 36.568C159.233 36.44 159.659 36.2693 160.043 36.056C160.427 35.8213 160.769 35.544 161.067 35.224C161.366 34.904 161.601 34.552 161.771 34.168L164.779 35.032C164.203 36.2907 163.243 37.3253 161.899 38.136C160.577 38.9253 159.03 39.32 157.259 39.32ZM162.347 29.368C162.283 28.664 162.102 28.0133 161.803 27.416C161.526 26.8187 161.163 26.3173 160.715 25.912C160.267 25.4853 159.745 25.1547 159.147 24.92C158.55 24.6853 157.921 24.568 157.259 24.568C156.598 24.568 155.969 24.6853 155.371 24.92C154.795 25.1547 154.283 25.4853 153.835 25.912C153.387 26.3173 153.025 26.8187 152.747 27.416C152.47 28.0133 152.299 28.664 152.235 29.368H162.347ZM178.115 25.304C176.749 25.3467 175.533 25.6667 174.467 26.264C173.421 26.84 172.675 27.672 172.227 28.76V39H168.707V22.264H171.971V26.008C172.547 24.856 173.293 23.9387 174.211 23.256C175.149 22.552 176.152 22.168 177.219 22.104C177.432 22.104 177.603 22.104 177.731 22.104C177.88 22.104 178.008 22.1147 178.115 22.136V25.304Z" fill="#222222"/>
</svg>
