<svg width="324" height="88" viewBox="0 0 324 88" fill="none" xmlns="http://www.w3.org/2000/svg">
<rect width="324" height="88" rx="24" fill="white"/>
<path d="M25.616 24.224H21.84V34H20.032V24.224H16.24V22.64H25.616V24.224ZM29.0199 34.16C28.3692 34.16 27.7772 34.048 27.2439 33.824C26.7212 33.5893 26.2679 33.2747 25.8839 32.88C25.4999 32.4747 25.2012 32.016 24.9879 31.504C24.7852 30.9813 24.6839 30.4267 24.6839 29.84C24.6839 29.0507 24.8652 28.3307 25.2279 27.68C25.5905 27.0187 26.0972 26.4907 26.7479 26.096C27.3985 25.6907 28.1612 25.488 29.0359 25.488C29.9105 25.488 30.6625 25.6907 31.2919 26.096C31.9319 26.4907 32.4279 27.0133 32.7799 27.664C33.1319 28.3147 33.3079 29.0133 33.3079 29.76C33.3079 29.888 33.3025 30.0107 33.2919 30.128C33.2812 30.2347 33.2705 30.3253 33.2599 30.4H26.5559C26.5879 30.8907 26.7212 31.3227 26.9559 31.696C27.2012 32.0587 27.5105 32.3467 27.8839 32.56C28.2572 32.7627 28.6572 32.864 29.0839 32.864C29.5532 32.864 29.9959 32.7467 30.4119 32.512C30.8385 32.2773 31.1265 31.968 31.2759 31.584L32.7799 32.016C32.5985 32.4213 32.3212 32.7893 31.9479 33.12C31.5852 33.44 31.1532 33.696 30.6519 33.888C30.1505 34.0693 29.6065 34.16 29.0199 34.16ZM26.5079 29.232H31.5639C31.5319 28.752 31.3932 28.3307 31.1479 27.968C30.9132 27.5947 30.6092 27.3067 30.2359 27.104C29.8732 26.8907 29.4679 26.784 29.0199 26.784C28.5825 26.784 28.1772 26.8907 27.8039 27.104C27.4412 27.3067 27.1425 27.5947 26.9079 27.968C26.6732 28.3307 26.5399 28.752 26.5079 29.232ZM34.7435 34V25.632H36.4875V28.944H37.3195L39.7835 25.632H41.7355L38.6795 29.68L42.0875 34H40.0555L37.3035 30.528H36.4875V34H34.7435ZM44.567 37.552C44.375 37.552 44.1723 37.5253 43.959 37.472C43.7457 37.4187 43.5217 37.3387 43.287 37.232L43.735 35.92C43.863 35.984 43.9857 36.032 44.103 36.064C44.2203 36.096 44.327 36.112 44.423 36.112C44.6897 36.112 44.9297 36 45.143 35.776C45.367 35.5627 45.5643 35.2373 45.735 34.8L46.055 33.936L42.519 25.632H44.359L46.919 32.208L49.191 25.632H50.887L47.207 35.28C47.0257 35.7813 46.7963 36.1973 46.519 36.528C46.2523 36.8587 45.9537 37.1093 45.623 37.28C45.2923 37.4613 44.9403 37.552 44.567 37.552ZM63.061 36V34H52.181V25.632H53.941V32.448H56.933V25.632H58.709V32.448H61.685V25.632H63.445V32.448H64.613V36H63.061ZM69.8949 34.16C69.2442 34.16 68.6522 34.048 68.1189 33.824C67.5962 33.5893 67.1429 33.2747 66.7589 32.88C66.3749 32.4747 66.0762 32.016 65.8629 31.504C65.6602 30.9813 65.5589 30.4267 65.5589 29.84C65.5589 29.0507 65.7402 28.3307 66.1029 27.68C66.4655 27.0187 66.9722 26.4907 67.6229 26.096C68.2735 25.6907 69.0362 25.488 69.9109 25.488C70.7855 25.488 71.5375 25.6907 72.1669 26.096C72.8069 26.4907 73.3029 27.0133 73.6549 27.664C74.0069 28.3147 74.1829 29.0133 74.1829 29.76C74.1829 29.888 74.1775 30.0107 74.1669 30.128C74.1562 30.2347 74.1455 30.3253 74.1349 30.4H67.4309C67.4629 30.8907 67.5962 31.3227 67.8309 31.696C68.0762 32.0587 68.3855 32.3467 68.7589 32.56C69.1322 32.7627 69.5322 32.864 69.9589 32.864C70.4282 32.864 70.8709 32.7467 71.2869 32.512C71.7135 32.2773 72.0015 31.968 72.1509 31.584L73.6549 32.016C73.4735 32.4213 73.1962 32.7893 72.8229 33.12C72.4602 33.44 72.0282 33.696 71.5269 33.888C71.0255 34.0693 70.4815 34.16 69.8949 34.16ZM67.3829 29.232H72.4389C72.4069 28.752 72.2682 28.3307 72.0229 27.968C71.7882 27.5947 71.4842 27.3067 71.1109 27.104C70.7482 26.8907 70.3429 26.784 69.8949 26.784C69.4575 26.784 69.0522 26.8907 68.6789 27.104C68.3162 27.3067 68.0175 27.5947 67.7829 27.968C67.5482 28.3307 67.4149 28.752 67.3829 29.232ZM79.4105 34.16C78.7598 34.16 78.1678 34.048 77.6345 33.824C77.1118 33.5893 76.6585 33.2747 76.2745 32.88C75.8905 32.4747 75.5918 32.016 75.3785 31.504C75.1758 30.9813 75.0745 30.4267 75.0745 29.84C75.0745 29.0507 75.2558 28.3307 75.6185 27.68C75.9812 27.0187 76.4878 26.4907 77.1385 26.096C77.7892 25.6907 78.5518 25.488 79.4265 25.488C80.3012 25.488 81.0532 25.6907 81.6825 26.096C82.3225 26.4907 82.8185 27.0133 83.1705 27.664C83.5225 28.3147 83.6985 29.0133 83.6985 29.76C83.6985 29.888 83.6932 30.0107 83.6825 30.128C83.6718 30.2347 83.6612 30.3253 83.6505 30.4H76.9465C76.9785 30.8907 77.1118 31.3227 77.3465 31.696C77.5918 32.0587 77.9012 32.3467 78.2745 32.56C78.6478 32.7627 79.0478 32.864 79.4745 32.864C79.9438 32.864 80.3865 32.7467 80.8025 32.512C81.2292 32.2773 81.5172 31.968 81.6665 31.584L83.1705 32.016C82.9892 32.4213 82.7118 32.7893 82.3385 33.12C81.9758 33.44 81.5438 33.696 81.0425 33.888C80.5412 34.0693 79.9972 34.16 79.4105 34.16ZM76.8985 29.232H81.9545C81.9225 28.752 81.7838 28.3307 81.5385 27.968C81.3038 27.5947 80.9998 27.3067 80.6265 27.104C80.2638 26.8907 79.8585 26.784 79.4105 26.784C78.9732 26.784 78.5678 26.8907 78.1945 27.104C77.8318 27.3067 77.5332 27.5947 77.2985 27.968C77.0638 28.3307 76.9305 28.752 76.8985 29.232ZM89.0872 34V25.632H90.8313V28.944H91.6633L94.1273 25.632H96.0793L93.0233 29.68L96.4313 34H94.3993L91.6473 30.528H90.8313V34H89.0872ZM101.097 34.16C100.436 34.16 99.8439 34.048 99.3213 33.824C98.7986 33.5893 98.3453 33.2693 97.9613 32.864C97.5879 32.4587 97.2999 32 97.0973 31.488C96.8946 30.9653 96.7933 30.4107 96.7933 29.824C96.7933 29.2373 96.8946 28.6827 97.0973 28.16C97.2999 27.6373 97.5879 27.1787 97.9613 26.784C98.3453 26.3787 98.7986 26.064 99.3213 25.84C99.8546 25.6053 100.447 25.488 101.097 25.488C101.748 25.488 102.335 25.6053 102.857 25.84C103.391 26.064 103.844 26.3787 104.217 26.784C104.601 27.1787 104.895 27.6373 105.097 28.16C105.3 28.6827 105.401 29.2373 105.401 29.824C105.401 30.4107 105.3 30.9653 105.097 31.488C104.895 32 104.601 32.4587 104.217 32.864C103.844 33.2693 103.391 33.5893 102.857 33.824C102.335 34.048 101.748 34.16 101.097 34.16ZM98.6013 29.84C98.6013 30.3733 98.7133 30.8533 98.9373 31.28C99.1613 31.7067 99.4599 32.0427 99.8333 32.288C100.207 32.5333 100.628 32.656 101.097 32.656C101.556 32.656 101.972 32.5333 102.345 32.288C102.729 32.032 103.033 31.6907 103.257 31.264C103.481 30.8267 103.593 30.3467 103.593 29.824C103.593 29.2907 103.481 28.8107 103.257 28.384C103.033 27.9573 102.729 27.6213 102.345 27.376C101.972 27.12 101.556 26.992 101.097 26.992C100.628 26.992 100.207 27.12 99.8333 27.376C99.4599 27.632 99.1613 27.9733 98.9373 28.4C98.7133 28.816 98.6013 29.296 98.6013 29.84ZM106.29 34.08V32.512C106.557 32.512 106.797 32.448 107.01 32.32C107.224 32.1813 107.41 31.9573 107.57 31.648C107.73 31.328 107.858 30.8853 107.954 30.32C108.05 29.7547 108.114 29.0347 108.146 28.16L108.258 25.632H114.226V34H112.466V27.184H109.81L109.778 28.32C109.736 29.44 109.634 30.3733 109.474 31.12C109.314 31.856 109.09 32.4427 108.802 32.88C108.525 33.3067 108.173 33.616 107.746 33.808C107.33 33.9893 106.845 34.08 106.29 34.08ZM116.337 34V25.648H118.097V31.648L122.337 25.632H123.937V34H122.177V28.128L117.985 34H116.337ZM130.744 34V30.816C130.424 30.9653 130.094 31.0773 129.752 31.152C129.411 31.216 129.027 31.248 128.6 31.248C127.704 31.248 127.011 31.0133 126.52 30.544C126.04 30.064 125.8 29.3547 125.8 28.416V25.632H127.56V28.192C127.56 28.7787 127.683 29.2107 127.928 29.488C128.174 29.7547 128.568 29.888 129.112 29.888C129.411 29.888 129.71 29.856 130.008 29.792C130.307 29.728 130.552 29.6427 130.744 29.536V25.632H132.52V34H130.744ZM138.442 34.16C137.791 34.16 137.199 34.048 136.666 33.824C136.143 33.5893 135.69 33.2747 135.306 32.88C134.922 32.4747 134.623 32.016 134.41 31.504C134.207 30.9813 134.106 30.4267 134.106 29.84C134.106 29.0507 134.287 28.3307 134.65 27.68C135.012 27.0187 135.519 26.4907 136.17 26.096C136.82 25.6907 137.583 25.488 138.458 25.488C139.332 25.488 140.084 25.6907 140.714 26.096C141.354 26.4907 141.85 27.0133 142.202 27.664C142.554 28.3147 142.73 29.0133 142.73 29.76C142.73 29.888 142.724 30.0107 142.714 30.128C142.703 30.2347 142.692 30.3253 142.682 30.4H135.978C136.01 30.8907 136.143 31.3227 136.378 31.696C136.623 32.0587 136.932 32.3467 137.306 32.56C137.679 32.7627 138.079 32.864 138.506 32.864C138.975 32.864 139.418 32.7467 139.834 32.512C140.26 32.2773 140.548 31.968 140.698 31.584L142.202 32.016C142.02 32.4213 141.743 32.7893 141.37 33.12C141.007 33.44 140.575 33.696 140.074 33.888C139.572 34.0693 139.028 34.16 138.442 34.16ZM135.93 29.232H140.986C140.954 28.752 140.815 28.3307 140.57 27.968C140.335 27.5947 140.031 27.3067 139.658 27.104C139.295 26.8907 138.89 26.784 138.442 26.784C138.004 26.784 137.599 26.8907 137.226 27.104C136.863 27.3067 136.564 27.5947 136.33 27.968C136.095 28.3307 135.962 28.752 135.93 29.232ZM147.957 34.16C147.307 34.16 146.715 34.048 146.181 33.824C145.659 33.5893 145.205 33.2693 144.821 32.864C144.437 32.4587 144.139 31.9947 143.925 31.472C143.723 30.9493 143.621 30.3947 143.621 29.808C143.621 29.0187 143.797 28.2987 144.149 27.648C144.512 26.9973 145.013 26.4747 145.653 26.08C146.304 25.6853 147.072 25.488 147.957 25.488C148.811 25.488 149.552 25.68 150.181 26.064C150.821 26.4373 151.291 26.9387 151.589 27.568L149.877 28.112C149.685 27.76 149.413 27.488 149.061 27.296C148.72 27.0933 148.341 26.992 147.925 26.992C147.456 26.992 147.029 27.1147 146.645 27.36C146.272 27.5947 145.973 27.9253 145.749 28.352C145.536 28.768 145.429 29.2533 145.429 29.808C145.429 30.3413 145.541 30.8267 145.765 31.264C145.989 31.6907 146.288 32.032 146.661 32.288C147.045 32.5333 147.472 32.656 147.941 32.656C148.229 32.656 148.507 32.608 148.773 32.512C149.051 32.4053 149.291 32.2667 149.493 32.096C149.696 31.9147 149.84 31.7173 149.925 31.504L151.653 32.016C151.472 32.432 151.2 32.8 150.837 33.12C150.485 33.44 150.064 33.696 149.573 33.888C149.093 34.0693 148.555 34.16 147.957 34.16ZM155.087 34V27.184H152.319V25.632H159.631V27.184H156.847V34H155.087ZM160.947 34V25.632H165.427C165.96 25.632 166.397 25.7333 166.739 25.936C167.091 26.128 167.352 26.3787 167.523 26.688C167.693 26.9867 167.779 27.3173 167.779 27.68C167.779 28.1387 167.672 28.544 167.459 28.896C167.245 29.248 166.931 29.5147 166.515 29.696C166.995 29.8347 167.384 30.08 167.683 30.432C167.992 30.7733 168.147 31.216 168.147 31.76C168.147 32.2507 168.029 32.6667 167.795 33.008C167.56 33.3387 167.224 33.5893 166.787 33.76C166.36 33.92 165.859 34 165.283 34H160.947ZM162.611 32.784H165.235C165.459 32.784 165.661 32.7307 165.843 32.624C166.035 32.5067 166.184 32.3573 166.291 32.176C166.397 31.984 166.451 31.7813 166.451 31.568C166.451 31.3333 166.397 31.1253 166.291 30.944C166.195 30.7627 166.056 30.6187 165.875 30.512C165.704 30.4053 165.501 30.352 165.267 30.352H162.611V32.784ZM162.611 29.216H164.979C165.203 29.216 165.4 29.1627 165.571 29.056C165.741 28.9387 165.875 28.784 165.971 28.592C166.067 28.4 166.115 28.1973 166.115 27.984C166.115 27.6747 166.013 27.408 165.811 27.184C165.608 26.96 165.341 26.848 165.011 26.848H162.611V29.216ZM173.582 34.16C172.92 34.16 172.328 34.048 171.806 33.824C171.283 33.5893 170.83 33.2693 170.446 32.864C170.072 32.4587 169.784 32 169.582 31.488C169.379 30.9653 169.278 30.4107 169.278 29.824C169.278 29.2373 169.379 28.6827 169.582 28.16C169.784 27.6373 170.072 27.1787 170.446 26.784C170.83 26.3787 171.283 26.064 171.806 25.84C172.339 25.6053 172.931 25.488 173.582 25.488C174.232 25.488 174.819 25.6053 175.342 25.84C175.875 26.064 176.328 26.3787 176.702 26.784C177.086 27.1787 177.379 27.6373 177.582 28.16C177.784 28.6827 177.886 29.2373 177.886 29.824C177.886 30.4107 177.784 30.9653 177.582 31.488C177.379 32 177.086 32.4587 176.702 32.864C176.328 33.2693 175.875 33.5893 175.342 33.824C174.819 34.048 174.232 34.16 173.582 34.16ZM171.086 29.84C171.086 30.3733 171.198 30.8533 171.422 31.28C171.646 31.7067 171.944 32.0427 172.318 32.288C172.691 32.5333 173.112 32.656 173.582 32.656C174.04 32.656 174.456 32.5333 174.83 32.288C175.214 32.032 175.518 31.6907 175.742 31.264C175.966 30.8267 176.078 30.3467 176.078 29.824C176.078 29.2907 175.966 28.8107 175.742 28.384C175.518 27.9573 175.214 27.6213 174.83 27.376C174.456 27.12 174.04 26.992 173.582 26.992C173.112 26.992 172.691 27.12 172.318 27.376C171.944 27.632 171.646 27.9733 171.422 28.4C171.198 28.816 171.086 29.296 171.086 29.84ZM185.384 34V27.184H182.616V25.632H189.928V27.184H187.144V34H185.384ZM195.004 34.16C194.342 34.16 193.75 34.048 193.228 33.824C192.705 33.5893 192.252 33.2693 191.868 32.864C191.494 32.4587 191.206 32 191.004 31.488C190.801 30.9653 190.7 30.4107 190.7 29.824C190.7 29.2373 190.801 28.6827 191.004 28.16C191.206 27.6373 191.494 27.1787 191.868 26.784C192.252 26.3787 192.705 26.064 193.228 25.84C193.761 25.6053 194.353 25.488 195.004 25.488C195.654 25.488 196.241 25.6053 196.764 25.84C197.297 26.064 197.75 26.3787 198.124 26.784C198.508 27.1787 198.801 27.6373 199.003 28.16C199.206 28.6827 199.308 29.2373 199.308 29.824C199.308 30.4107 199.206 30.9653 199.003 31.488C198.801 32 198.508 32.4587 198.124 32.864C197.75 33.2693 197.297 33.5893 196.764 33.824C196.241 34.048 195.654 34.16 195.004 34.16ZM192.508 29.84C192.508 30.3733 192.62 30.8533 192.844 31.28C193.068 31.7067 193.366 32.0427 193.74 32.288C194.113 32.5333 194.534 32.656 195.004 32.656C195.462 32.656 195.878 32.5333 196.252 32.288C196.636 32.032 196.94 31.6907 197.164 31.264C197.388 30.8267 197.5 30.3467 197.5 29.824C197.5 29.2907 197.388 28.8107 197.164 28.384C196.94 27.9573 196.636 27.6213 196.252 27.376C195.878 27.12 195.462 26.992 195.004 26.992C194.534 26.992 194.113 27.12 193.74 27.376C193.366 27.632 193.068 27.9733 192.844 28.4C192.62 28.816 192.508 29.296 192.508 29.84ZM200.868 34V25.632H205.349C205.882 25.632 206.319 25.7333 206.661 25.936C207.013 26.128 207.274 26.3787 207.445 26.688C207.615 26.9867 207.701 27.3173 207.701 27.68C207.701 28.1387 207.594 28.544 207.381 28.896C207.167 29.248 206.853 29.5147 206.437 29.696C206.917 29.8347 207.306 30.08 207.605 30.432C207.914 30.7733 208.069 31.216 208.069 31.76C208.069 32.2507 207.951 32.6667 207.717 33.008C207.482 33.3387 207.146 33.5893 206.709 33.76C206.282 33.92 205.781 34 205.205 34H200.868ZM202.533 32.784H205.157C205.381 32.784 205.583 32.7307 205.765 32.624C205.957 32.5067 206.106 32.3573 206.213 32.176C206.319 31.984 206.373 31.7813 206.373 31.568C206.373 31.3333 206.319 31.1253 206.213 30.944C206.117 30.7627 205.978 30.6187 205.797 30.512C205.626 30.4053 205.423 30.352 205.189 30.352H202.533V32.784ZM202.533 29.216H204.901C205.125 29.216 205.322 29.1627 205.493 29.056C205.663 28.9387 205.797 28.784 205.893 28.592C205.989 28.4 206.037 28.1973 206.037 27.984C206.037 27.6747 205.935 27.408 205.733 27.184C205.53 26.96 205.263 26.848 204.933 26.848H202.533V29.216ZM209.136 31.552C209.136 31.0187 209.285 30.5547 209.584 30.16C209.893 29.7547 210.314 29.4453 210.848 29.232C211.381 29.008 212 28.896 212.704 28.896C213.077 28.896 213.456 28.9227 213.84 28.976C214.234 29.0293 214.581 29.1147 214.88 29.232V28.704C214.88 28.1173 214.704 27.6587 214.352 27.328C214 26.9973 213.493 26.832 212.832 26.832C212.362 26.832 211.92 26.9173 211.504 27.088C211.088 27.248 210.645 27.4773 210.176 27.776L209.584 26.592C210.138 26.2187 210.693 25.9413 211.248 25.76C211.813 25.5787 212.405 25.488 213.024 25.488C214.144 25.488 215.024 25.7867 215.664 26.384C216.314 26.9707 216.64 27.808 216.64 28.896V32.016C216.64 32.2187 216.672 32.3627 216.736 32.448C216.81 32.5333 216.933 32.5813 217.104 32.592V34C216.944 34.032 216.8 34.0533 216.672 34.064C216.544 34.0747 216.437 34.08 216.352 34.08C215.978 34.08 215.696 33.9893 215.504 33.808C215.312 33.6267 215.2 33.4133 215.168 33.168L215.12 32.688C214.757 33.1573 214.293 33.52 213.728 33.776C213.162 34.032 212.592 34.16 212.016 34.16C211.461 34.16 210.965 34.048 210.528 33.824C210.09 33.5893 209.749 33.2747 209.504 32.88C209.258 32.4853 209.136 32.0427 209.136 31.552ZM214.464 32.064C214.592 31.9253 214.693 31.7867 214.768 31.648C214.842 31.5093 214.88 31.3867 214.88 31.28V30.32C214.581 30.2027 214.266 30.1173 213.936 30.064C213.605 30 213.28 29.968 212.96 29.968C212.32 29.968 211.797 30.096 211.392 30.352C210.997 30.608 210.799 30.96 210.799 31.408C210.799 31.6533 210.864 31.888 210.992 32.112C211.13 32.336 211.322 32.5173 211.568 32.656C211.824 32.7947 212.138 32.864 212.512 32.864C212.896 32.864 213.264 32.7893 213.616 32.64C213.968 32.4907 214.25 32.2987 214.464 32.064ZM223.527 34.16C222.855 34.16 222.263 34 221.751 33.68C221.239 33.36 220.833 32.944 220.535 32.432V37.408H218.775V25.632H220.327V27.136C220.647 26.6347 221.063 26.2347 221.575 25.936C222.087 25.6373 222.657 25.488 223.287 25.488C223.863 25.488 224.391 25.6053 224.871 25.84C225.351 26.064 225.767 26.3787 226.119 26.784C226.471 27.1893 226.743 27.6533 226.935 28.176C227.137 28.688 227.239 29.232 227.239 29.808C227.239 30.608 227.079 31.3387 226.759 32C226.449 32.6613 226.012 33.1893 225.447 33.584C224.892 33.968 224.252 34.16 223.527 34.16ZM222.951 32.656C223.324 32.656 223.66 32.576 223.959 32.416C224.268 32.256 224.529 32.0427 224.743 31.776C224.967 31.5093 225.137 31.2053 225.255 30.864C225.372 30.5227 225.431 30.1707 225.431 29.808C225.431 29.424 225.367 29.0613 225.239 28.72C225.111 28.3787 224.924 28.08 224.679 27.824C224.444 27.568 224.167 27.3653 223.847 27.216C223.537 27.0667 223.196 26.992 222.823 26.992C222.599 26.992 222.364 27.0347 222.119 27.12C221.873 27.2053 221.644 27.3227 221.431 27.472C221.217 27.6213 221.031 27.7973 220.871 28C220.711 28.2027 220.599 28.416 220.535 28.64V30.832C220.684 31.1733 220.881 31.4827 221.127 31.76C221.372 32.0267 221.655 32.2453 221.975 32.416C222.295 32.576 222.62 32.656 222.951 32.656ZM232.582 34.16C231.92 34.16 231.328 34.048 230.806 33.824C230.283 33.5893 229.83 33.2693 229.446 32.864C229.072 32.4587 228.784 32 228.582 31.488C228.379 30.9653 228.278 30.4107 228.278 29.824C228.278 29.2373 228.379 28.6827 228.582 28.16C228.784 27.6373 229.072 27.1787 229.446 26.784C229.83 26.3787 230.283 26.064 230.806 25.84C231.339 25.6053 231.931 25.488 232.582 25.488C233.232 25.488 233.819 25.6053 234.342 25.84C234.875 26.064 235.328 26.3787 235.702 26.784C236.086 27.1787 236.379 27.6373 236.582 28.16C236.784 28.6827 236.886 29.2373 236.886 29.824C236.886 30.4107 236.784 30.9653 236.582 31.488C236.379 32 236.086 32.4587 235.702 32.864C235.328 33.2693 234.875 33.5893 234.342 33.824C233.819 34.048 233.232 34.16 232.582 34.16ZM230.086 29.84C230.086 30.3733 230.198 30.8533 230.422 31.28C230.646 31.7067 230.944 32.0427 231.318 32.288C231.691 32.5333 232.112 32.656 232.582 32.656C233.04 32.656 233.456 32.5333 233.83 32.288C234.214 32.032 234.518 31.6907 234.742 31.264C234.966 30.8267 235.078 30.3467 235.078 29.824C235.078 29.2907 234.966 28.8107 234.742 28.384C234.518 27.9573 234.214 27.6213 233.83 27.376C233.456 27.12 233.04 26.992 232.582 26.992C232.112 26.992 231.691 27.12 231.318 27.376C230.944 27.632 230.646 27.9733 230.422 28.4C230.198 28.816 230.086 29.296 230.086 29.84ZM238.447 34V25.632H242.927C243.46 25.632 243.897 25.7333 244.239 25.936C244.591 26.128 244.852 26.3787 245.023 26.688C245.193 26.9867 245.279 27.3173 245.279 27.68C245.279 28.1387 245.172 28.544 244.959 28.896C244.745 29.248 244.431 29.5147 244.015 29.696C244.495 29.8347 244.884 30.08 245.183 30.432C245.492 30.7733 245.647 31.216 245.647 31.76C245.647 32.2507 245.529 32.6667 245.295 33.008C245.06 33.3387 244.724 33.5893 244.287 33.76C243.86 33.92 243.359 34 242.783 34H238.447ZM240.111 32.784H242.735C242.959 32.784 243.161 32.7307 243.343 32.624C243.535 32.5067 243.684 32.3573 243.791 32.176C243.897 31.984 243.951 31.7813 243.951 31.568C243.951 31.3333 243.897 31.1253 243.791 30.944C243.695 30.7627 243.556 30.6187 243.375 30.512C243.204 30.4053 243.001 30.352 242.767 30.352H240.111V32.784ZM240.111 29.216H242.479C242.703 29.216 242.9 29.1627 243.071 29.056C243.241 28.9387 243.375 28.784 243.471 28.592C243.567 28.4 243.615 28.1973 243.615 27.984C243.615 27.6747 243.513 27.408 243.311 27.184C243.108 26.96 242.841 26.848 242.511 26.848H240.111V29.216ZM247.322 27.744V25.712H248.778V27.744H247.322ZM247.322 34V31.952H248.778V34H247.322Z" fill="#222222"/>
<rect x="16" y="48" width="293" height="7" rx="3.5" fill="#EFEFEF"/>
<rect x="16" y="48" width="238" height="7" rx="3.5" fill="#FFAD23"/>
<path d="M19.474 71.18C18.934 71.18 18.456 71.072 18.04 70.856C17.628 70.64 17.304 70.338 17.068 69.95C16.836 69.558 16.72 69.1 16.72 68.576C16.72 68.04 16.85 67.564 17.11 67.148C17.37 66.728 17.766 66.41 18.298 66.194L18.286 66.542C17.842 66.378 17.504 66.11 17.272 65.738C17.04 65.366 16.924 64.954 16.924 64.502C16.924 64.022 17.034 63.61 17.254 63.266C17.474 62.918 17.774 62.65 18.154 62.462C18.538 62.274 18.978 62.18 19.474 62.18C19.97 62.18 20.41 62.274 20.794 62.462C21.178 62.65 21.48 62.918 21.7 63.266C21.92 63.61 22.03 64.022 22.03 64.502C22.03 64.954 21.918 65.364 21.694 65.732C21.474 66.1 21.136 66.37 20.68 66.542L20.65 66.194C21.182 66.406 21.58 66.722 21.844 67.142C22.112 67.562 22.246 68.04 22.246 68.576C22.246 69.1 22.128 69.558 21.892 69.95C21.656 70.338 21.33 70.64 20.914 70.856C20.498 71.072 20.018 71.18 19.474 71.18ZM19.474 70.334C20.018 70.334 20.46 70.184 20.8 69.884C21.14 69.58 21.31 69.144 21.31 68.576C21.31 68 21.142 67.564 20.806 67.268C20.47 66.968 20.026 66.818 19.474 66.818C18.922 66.818 18.48 66.968 18.148 67.268C17.816 67.564 17.65 68 17.65 68.576C17.65 69.144 17.818 69.58 18.154 69.884C18.49 70.184 18.93 70.334 19.474 70.334ZM19.474 65.966C19.954 65.966 20.344 65.844 20.644 65.6C20.944 65.352 21.094 64.986 21.094 64.502C21.094 64.018 20.944 63.656 20.644 63.416C20.344 63.172 19.954 63.05 19.474 63.05C18.994 63.05 18.604 63.172 18.304 63.416C18.008 63.656 17.86 64.018 17.86 64.502C17.86 64.986 18.008 65.352 18.304 65.6C18.604 65.844 18.994 65.966 19.474 65.966ZM25.3069 71V63.344L23.6809 64.322V63.332L25.3069 62.36H26.2009V71H25.3069ZM30.6391 70.994L30.6451 70.19L34.5511 66.662C34.8871 66.358 35.1091 66.07 35.2171 65.798C35.3291 65.522 35.3851 65.234 35.3851 64.934C35.3851 64.578 35.3011 64.256 35.1331 63.968C34.9651 63.68 34.7391 63.452 34.4551 63.284C34.1711 63.112 33.8531 63.026 33.5011 63.026C33.1331 63.026 32.8051 63.114 32.5171 63.29C32.2291 63.466 32.0011 63.698 31.8331 63.986C31.6691 64.274 31.5891 64.588 31.5931 64.928H30.6931C30.6931 64.404 30.8171 63.934 31.0651 63.518C31.3131 63.102 31.6491 62.776 32.0731 62.54C32.4971 62.3 32.9771 62.18 33.5131 62.18C34.0371 62.18 34.5071 62.304 34.9231 62.552C35.3431 62.796 35.6731 63.128 35.9131 63.548C36.1571 63.964 36.2791 64.428 36.2791 64.94C36.2791 65.3 36.2351 65.618 36.1471 65.894C36.0631 66.166 35.9291 66.42 35.7451 66.656C35.5651 66.888 35.3351 67.128 35.0551 67.376L31.5871 70.508L31.4491 70.148H36.2791V70.994H30.6391ZM41.2924 71V69.326H37.2484V68.486L40.1404 62.36H41.1304L38.2384 68.486H41.2924V65.966H42.1804V68.486H43.1224V69.326H42.1804V71H41.2924ZM46.8886 71.174C46.4606 71.174 46.0666 71.098 45.7066 70.946C45.3466 70.794 45.0366 70.578 44.7766 70.298C44.5166 70.014 44.3266 69.676 44.2066 69.284L45.0466 69.032C45.1906 69.46 45.4266 69.784 45.7546 70.004C46.0866 70.224 46.4606 70.33 46.8766 70.322C47.2606 70.314 47.5906 70.228 47.8666 70.064C48.1466 69.9 48.3606 69.672 48.5086 69.38C48.6566 69.088 48.7306 68.75 48.7306 68.366C48.7306 67.778 48.5586 67.306 48.2146 66.95C47.8746 66.59 47.4246 66.41 46.8646 66.41C46.7086 66.41 46.5446 66.432 46.3726 66.476C46.2006 66.516 46.0406 66.574 45.8926 66.65L45.4486 65.948L48.8086 62.846L48.9526 63.206H44.5486V62.36H49.5406V63.218L46.6126 66.014L46.6006 65.666C47.2006 65.59 47.7286 65.658 48.1846 65.87C48.6406 66.082 48.9966 66.406 49.2526 66.842C49.5126 67.274 49.6426 67.782 49.6426 68.366C49.6426 68.918 49.5226 69.406 49.2826 69.83C49.0466 70.25 48.7206 70.58 48.3046 70.82C47.8886 71.056 47.4166 71.174 46.8886 71.174ZM53.5957 71V64.52H54.4537V70.184H56.8837V64.52H57.7417V70.184H60.1657V64.52H61.0237V71H53.5957ZM64.4652 71V65.336H62.1672V64.52H67.6452V65.336H65.3472V71H64.4652ZM67.9963 71V69.974H69.0223V71H67.9963ZM78.4255 64.52V71H77.5675V65.954L74.0155 71H73.2715V64.52H74.1295V69.524L77.6875 64.52H78.4255ZM82.4435 71.18C81.7915 71.18 81.2215 71.038 80.7335 70.754C80.2495 70.466 79.8675 70.068 79.5875 69.56L80.2955 69.11C80.5315 69.51 80.8255 69.814 81.1775 70.022C81.5295 70.23 81.9335 70.334 82.3895 70.334C82.8655 70.334 83.2475 70.224 83.5355 70.004C83.8235 69.784 83.9675 69.482 83.9675 69.098C83.9675 68.834 83.9055 68.624 83.7815 68.468C83.6615 68.312 83.4775 68.2 83.2295 68.132C82.9855 68.064 82.6795 68.03 82.3115 68.03H81.5435V67.274H82.2995C82.7475 67.274 83.1075 67.194 83.3795 67.034C83.6555 66.87 83.7935 66.614 83.7935 66.266C83.7935 65.898 83.6555 65.626 83.3795 65.45C83.1075 65.27 82.7815 65.18 82.4015 65.18C82.0175 65.18 81.6535 65.26 81.3095 65.42C80.9695 65.576 80.6835 65.778 80.4515 66.026L79.8875 65.432C80.2115 65.076 80.5895 64.806 81.0215 64.622C81.4575 64.434 81.9395 64.34 82.4675 64.34C82.8835 64.34 83.2595 64.414 83.5955 64.562C83.9355 64.706 84.2035 64.918 84.3995 65.198C84.5995 65.478 84.6995 65.814 84.6995 66.206C84.6995 66.574 84.6095 66.892 84.4295 67.16C84.2535 67.428 84.0035 67.65 83.6795 67.826L83.6315 67.496C83.9115 67.548 84.1435 67.66 84.3275 67.832C84.5115 68.004 84.6475 68.21 84.7355 68.45C84.8235 68.69 84.8675 68.934 84.8675 69.182C84.8675 69.594 84.7595 69.95 84.5435 70.25C84.3315 70.546 84.0415 70.776 83.6735 70.94C83.3095 71.1 82.8995 71.18 82.4435 71.18ZM91.4379 62.186C91.9819 62.186 92.4739 62.318 92.9139 62.582C93.3579 62.842 93.7099 63.198 93.9699 63.65C94.2299 64.098 94.3599 64.602 94.3599 65.162V68.162C94.3599 68.738 94.2299 69.254 93.9699 69.71C93.7099 70.166 93.3539 70.526 92.9019 70.79C92.4539 71.05 91.9439 71.18 91.3719 71.18C90.8799 71.18 90.4239 71.072 90.0039 70.856C89.5879 70.636 89.2439 70.334 88.9719 69.95L89.6439 69.392C89.8279 69.676 90.0719 69.904 90.3759 70.076C90.6839 70.248 91.0159 70.334 91.3719 70.334C91.7799 70.334 92.1399 70.238 92.4519 70.046C92.7679 69.85 93.0159 69.594 93.1959 69.278C93.3799 68.958 93.4719 68.612 93.4719 68.24V66.356L93.6879 66.608C93.4399 67.004 93.1099 67.324 92.6979 67.568C92.2899 67.812 91.8419 67.934 91.3539 67.934C90.8219 67.934 90.3399 67.806 89.9079 67.55C89.4799 67.294 89.1399 66.95 88.8879 66.518C88.6399 66.086 88.5159 65.604 88.5159 65.072C88.5159 64.54 88.6479 64.056 88.9119 63.62C89.1759 63.18 89.5299 62.832 89.9739 62.576C90.4179 62.316 90.9059 62.186 91.4379 62.186ZM91.4379 63.038C91.0619 63.038 90.7199 63.13 90.4119 63.314C90.1039 63.494 89.8579 63.738 89.6739 64.046C89.4939 64.354 89.4039 64.696 89.4039 65.072C89.4039 65.448 89.4939 65.79 89.6739 66.098C89.8539 66.406 90.0979 66.652 90.4059 66.836C90.7139 67.016 91.0559 67.106 91.4319 67.106C91.8079 67.106 92.1499 67.016 92.4579 66.836C92.7699 66.652 93.0159 66.406 93.1959 66.098C93.3799 65.79 93.4719 65.448 93.4719 65.072C93.4719 64.7 93.3799 64.36 93.1959 64.052C93.0159 63.744 92.7719 63.498 92.4639 63.314C92.1559 63.13 91.8139 63.038 91.4379 63.038ZM98.8553 71.18C98.3233 71.18 97.8433 71.056 97.4153 70.808C96.9913 70.56 96.6553 70.224 96.4073 69.8C96.1593 69.372 96.0353 68.892 96.0353 68.36V65C96.0353 64.468 96.1593 63.99 96.4073 63.566C96.6553 63.138 96.9913 62.8 97.4153 62.552C97.8433 62.304 98.3233 62.18 98.8553 62.18C99.3873 62.18 99.8653 62.304 100.289 62.552C100.717 62.8 101.055 63.138 101.303 63.566C101.551 63.99 101.675 64.468 101.675 65V68.36C101.675 68.892 101.551 69.372 101.303 69.8C101.055 70.224 100.717 70.56 100.289 70.808C99.8653 71.056 99.3873 71.18 98.8553 71.18ZM98.8553 70.328C99.2113 70.328 99.5353 70.242 99.8273 70.07C100.119 69.894 100.351 69.66 100.523 69.368C100.695 69.076 100.781 68.754 100.781 68.402V64.958C100.781 64.602 100.695 64.278 100.523 63.986C100.351 63.694 100.119 63.462 99.8273 63.29C99.5353 63.114 99.2113 63.026 98.8553 63.026C98.4993 63.026 98.1753 63.114 97.8833 63.29C97.5913 63.462 97.3593 63.694 97.1873 63.986C97.0153 64.278 96.9293 64.602 96.9293 64.958V68.402C96.9293 68.754 97.0153 69.076 97.1873 69.368C97.3593 69.66 97.5913 69.894 97.8833 70.07C98.1753 70.242 98.4993 70.328 98.8553 70.328ZM108.582 71.18C108.05 71.18 107.57 71.056 107.142 70.808C106.718 70.56 106.382 70.224 106.134 69.8C105.886 69.372 105.762 68.892 105.762 68.36V65C105.762 64.468 105.886 63.99 106.134 63.566C106.382 63.138 106.718 62.8 107.142 62.552C107.57 62.304 108.05 62.18 108.582 62.18C109.114 62.18 109.592 62.304 110.016 62.552C110.444 62.8 110.782 63.138 111.03 63.566C111.278 63.99 111.402 64.468 111.402 65V68.36C111.402 68.892 111.278 69.372 111.03 69.8C110.782 70.224 110.444 70.56 110.016 70.808C109.592 71.056 109.114 71.18 108.582 71.18ZM108.582 70.328C108.938 70.328 109.262 70.242 109.554 70.07C109.846 69.894 110.078 69.66 110.25 69.368C110.422 69.076 110.508 68.754 110.508 68.402V64.958C110.508 64.602 110.422 64.278 110.25 63.986C110.078 63.694 109.846 63.462 109.554 63.29C109.262 63.114 108.938 63.026 108.582 63.026C108.226 63.026 107.902 63.114 107.61 63.29C107.318 63.462 107.086 63.694 106.914 63.986C106.742 64.278 106.656 64.602 106.656 64.958V68.402C106.656 68.754 106.742 69.076 106.914 69.368C107.086 69.66 107.318 69.894 107.61 70.07C107.902 70.242 108.226 70.328 108.582 70.328ZM115.906 71.18C115.374 71.18 114.894 71.056 114.466 70.808C114.042 70.56 113.706 70.224 113.458 69.8C113.21 69.372 113.086 68.892 113.086 68.36V65C113.086 64.468 113.21 63.99 113.458 63.566C113.706 63.138 114.042 62.8 114.466 62.552C114.894 62.304 115.374 62.18 115.906 62.18C116.438 62.18 116.916 62.304 117.34 62.552C117.768 62.8 118.106 63.138 118.354 63.566C118.602 63.99 118.726 64.468 118.726 65V68.36C118.726 68.892 118.602 69.372 118.354 69.8C118.106 70.224 117.768 70.56 117.34 70.808C116.916 71.056 116.438 71.18 115.906 71.18ZM115.906 70.328C116.262 70.328 116.586 70.242 116.878 70.07C117.17 69.894 117.402 69.66 117.574 69.368C117.746 69.076 117.832 68.754 117.832 68.402V64.958C117.832 64.602 117.746 64.278 117.574 63.986C117.402 63.694 117.17 63.462 116.878 63.29C116.586 63.114 116.262 63.026 115.906 63.026C115.55 63.026 115.226 63.114 114.934 63.29C114.642 63.462 114.41 63.694 114.238 63.986C114.066 64.278 113.98 64.602 113.98 64.958V68.402C113.98 68.754 114.066 69.076 114.238 69.368C114.41 69.66 114.642 69.894 114.934 70.07C115.226 70.242 115.55 70.328 115.906 70.328ZM123.23 71.18C122.698 71.18 122.218 71.056 121.79 70.808C121.366 70.56 121.03 70.224 120.782 69.8C120.534 69.372 120.41 68.892 120.41 68.36V65C120.41 64.468 120.534 63.99 120.782 63.566C121.03 63.138 121.366 62.8 121.79 62.552C122.218 62.304 122.698 62.18 123.23 62.18C123.762 62.18 124.24 62.304 124.664 62.552C125.092 62.8 125.43 63.138 125.678 63.566C125.926 63.99 126.05 64.468 126.05 65V68.36C126.05 68.892 125.926 69.372 125.678 69.8C125.43 70.224 125.092 70.56 124.664 70.808C124.24 71.056 123.762 71.18 123.23 71.18ZM123.23 70.328C123.586 70.328 123.91 70.242 124.202 70.07C124.494 69.894 124.726 69.66 124.898 69.368C125.07 69.076 125.156 68.754 125.156 68.402V64.958C125.156 64.602 125.07 64.278 124.898 63.986C124.726 63.694 124.494 63.462 124.202 63.29C123.91 63.114 123.586 63.026 123.23 63.026C122.874 63.026 122.55 63.114 122.258 63.29C121.966 63.462 121.734 63.694 121.562 63.986C121.39 64.278 121.304 64.602 121.304 64.958V68.402C121.304 68.754 121.39 69.076 121.562 69.368C121.734 69.66 121.966 69.894 122.258 70.07C122.55 70.242 122.874 70.328 123.23 70.328ZM130.131 71V64.52H130.989V70.184H133.419V64.52H134.277V70.184H136.701V64.52H137.559V71H130.131ZM141 71V65.336H138.702V64.52H144.18V65.336H141.882V71H141ZM144.531 71V69.974H145.557V71H144.531Z" fill="#818181"/>
</svg>
