<svg width="324" height="407" viewBox="0 0 324 407" fill="none" xmlns="http://www.w3.org/2000/svg">
<rect width="324" height="407" rx="24" fill="white"/>
<path d="M16.56 28.24C16.56 27.5467 16.6827 26.8693 16.928 26.208C17.1733 25.536 17.5307 24.928 18 24.384C18.48 23.8293 19.0613 23.392 19.744 23.072C20.4267 22.7413 21.2 22.576 22.064 22.576C23.088 22.576 23.9733 22.8107 24.72 23.28C25.4667 23.7387 26.0213 24.3307 26.384 25.056L24.976 26C24.7627 25.5413 24.4907 25.1787 24.16 24.912C23.84 24.6453 23.488 24.4587 23.104 24.352C22.7307 24.2453 22.3627 24.192 22 24.192C21.4027 24.192 20.88 24.3147 20.432 24.56C19.984 24.7947 19.6053 25.1093 19.296 25.504C18.9973 25.8987 18.768 26.3413 18.608 26.832C18.4587 27.3227 18.384 27.8133 18.384 28.304C18.384 28.848 18.4747 29.376 18.656 29.888C18.8373 30.3893 19.088 30.8373 19.408 31.232C19.7387 31.616 20.128 31.92 20.576 32.144C21.024 32.368 21.5147 32.48 22.048 32.48C22.4107 32.48 22.7893 32.416 23.184 32.288C23.5787 32.16 23.9413 31.9627 24.272 31.696C24.6133 31.4187 24.88 31.056 25.072 30.608L26.56 31.456C26.3253 32.0213 25.9573 32.5013 25.456 32.896C24.9653 33.2907 24.4107 33.5893 23.792 33.792C23.184 33.9947 22.5813 34.096 21.984 34.096C21.184 34.096 20.4533 33.9307 19.792 33.6C19.1307 33.2587 18.56 32.8107 18.08 32.256C17.6 31.6907 17.2267 31.0613 16.96 30.368C16.6933 29.664 16.56 28.9547 16.56 28.24ZM29.9775 34V27.184H27.2095V25.632H34.5215V27.184H31.7375V34H29.9775ZM35.2136 31.552C35.2136 31.0187 35.363 30.5547 35.6616 30.16C35.971 29.7547 36.3923 29.4453 36.9256 29.232C37.459 29.008 38.0776 28.896 38.7816 28.896C39.155 28.896 39.5336 28.9227 39.9176 28.976C40.3123 29.0293 40.659 29.1147 40.9576 29.232V28.704C40.9576 28.1173 40.7816 27.6587 40.4296 27.328C40.0776 26.9973 39.571 26.832 38.9096 26.832C38.4403 26.832 37.9976 26.9173 37.5816 27.088C37.1656 27.248 36.723 27.4773 36.2536 27.776L35.6616 26.592C36.2163 26.2187 36.771 25.9413 37.3256 25.76C37.891 25.5787 38.483 25.488 39.1016 25.488C40.2216 25.488 41.1016 25.7867 41.7416 26.384C42.3923 26.9707 42.7176 27.808 42.7176 28.896V32.016C42.7176 32.2187 42.7496 32.3627 42.8136 32.448C42.8883 32.5333 43.011 32.5813 43.1816 32.592V34C43.0216 34.032 42.8776 34.0533 42.7496 34.064C42.6216 34.0747 42.515 34.08 42.4296 34.08C42.0563 34.08 41.7736 33.9893 41.5816 33.808C41.3896 33.6267 41.2776 33.4133 41.2456 33.168L41.1976 32.688C40.835 33.1573 40.371 33.52 39.8056 33.776C39.2403 34.032 38.6696 34.16 38.0936 34.16C37.539 34.16 37.043 34.048 36.6056 33.824C36.1683 33.5893 35.827 33.2747 35.5816 32.88C35.3363 32.4853 35.2136 32.0427 35.2136 31.552ZM40.5416 32.064C40.6696 31.9253 40.771 31.7867 40.8456 31.648C40.9203 31.5093 40.9576 31.3867 40.9576 31.28V30.32C40.659 30.2027 40.3443 30.1173 40.0136 30.064C39.683 30 39.3576 29.968 39.0376 29.968C38.3976 29.968 37.875 30.096 37.4696 30.352C37.075 30.608 36.8776 30.96 36.8776 31.408C36.8776 31.6533 36.9416 31.888 37.0696 32.112C37.2083 32.336 37.4003 32.5173 37.6456 32.656C37.9016 32.7947 38.2163 32.864 38.5896 32.864C38.9736 32.864 39.3416 32.7893 39.6936 32.64C40.0456 32.4907 40.3283 32.2987 40.5416 32.064ZM46.7431 34V27.184H43.9751V25.632H51.2871V27.184H48.5031V34H46.7431ZM53.7389 37.552C53.5469 37.552 53.3442 37.5253 53.1309 37.472C52.9175 37.4187 52.6935 37.3387 52.4589 37.232L52.9069 35.92C53.0349 35.984 53.1575 36.032 53.2749 36.064C53.3922 36.096 53.4989 36.112 53.5949 36.112C53.8615 36.112 54.1015 36 54.3149 35.776C54.5389 35.5627 54.7362 35.2373 54.9069 34.8L55.2269 33.936L51.6909 25.632H53.5309L56.0909 32.208L58.3629 25.632H60.0589L56.3789 35.28C56.1975 35.7813 55.9682 36.1973 55.6909 36.528C55.4242 36.8587 55.1255 37.1093 54.7949 37.28C54.4642 37.4613 54.1122 37.552 53.7389 37.552ZM64.8636 34.16C64.213 34.16 63.621 34.048 63.0876 33.824C62.565 33.5893 62.1116 33.2693 61.7276 32.864C61.3436 32.4587 61.045 31.9947 60.8316 31.472C60.629 30.9493 60.5276 30.3947 60.5276 29.808C60.5276 29.0187 60.7036 28.2987 61.0556 27.648C61.4183 26.9973 61.9196 26.4747 62.5596 26.08C63.2103 25.6853 63.9783 25.488 64.8636 25.488C65.717 25.488 66.4583 25.68 67.0876 26.064C67.7276 26.4373 68.197 26.9387 68.4956 27.568L66.7836 28.112C66.5916 27.76 66.3196 27.488 65.9676 27.296C65.6263 27.0933 65.2476 26.992 64.8316 26.992C64.3623 26.992 63.9356 27.1147 63.5516 27.36C63.1783 27.5947 62.8796 27.9253 62.6556 28.352C62.4423 28.768 62.3356 29.2533 62.3356 29.808C62.3356 30.3413 62.4476 30.8267 62.6716 31.264C62.8956 31.6907 63.1943 32.032 63.5676 32.288C63.9516 32.5333 64.3783 32.656 64.8476 32.656C65.1356 32.656 65.413 32.608 65.6796 32.512C65.957 32.4053 66.197 32.2667 66.3996 32.096C66.6023 31.9147 66.7463 31.7173 66.8316 31.504L68.5596 32.016C68.3783 32.432 68.1063 32.8 67.7436 33.12C67.3916 33.44 66.9703 33.696 66.4796 33.888C65.9996 34.0693 65.461 34.16 64.8636 34.16ZM70.0091 34V25.632H71.7691V28.384H73.3531C74.3451 28.384 75.1025 28.6347 75.6251 29.136C76.1478 29.6373 76.4091 30.2987 76.4091 31.12C76.4091 31.6747 76.2971 32.1707 76.0731 32.608C75.8491 33.0453 75.5185 33.3867 75.0811 33.632C74.6545 33.8773 74.1211 34 73.4811 34H70.0091ZM71.7691 32.64H73.2091C73.5611 32.64 73.8438 32.576 74.0571 32.448C74.2705 32.3093 74.4251 32.128 74.5211 31.904C74.6278 31.6693 74.6811 31.4187 74.6811 31.152C74.6811 30.8853 74.6331 30.6453 74.5371 30.432C74.4411 30.208 74.2811 30.032 74.0571 29.904C73.8438 29.7653 73.5558 29.696 73.1931 29.696H71.7691V32.64ZM77.7851 34V25.648H79.5451V34H77.7851ZM88.4185 34.128C87.5652 34.128 86.8452 33.9733 86.2585 33.664C85.6825 33.344 85.2398 32.9067 84.9305 32.352L86.3545 31.712C86.5358 32.0213 86.7918 32.2667 87.1225 32.448C87.4532 32.6187 87.8532 32.704 88.3225 32.704C88.8878 32.704 89.3252 32.5867 89.6345 32.352C89.9438 32.1173 90.0985 31.808 90.0985 31.424C90.0985 31.072 89.9705 30.7893 89.7145 30.576C89.4585 30.352 89.0958 30.2347 88.6265 30.224H87.7625V29.104H88.6585C88.8718 29.104 89.0585 29.056 89.2185 28.96C89.3785 28.864 89.5012 28.736 89.5865 28.576C89.6825 28.4053 89.7305 28.2133 89.7305 28C89.7305 27.68 89.6078 27.424 89.3625 27.232C89.1278 27.0293 88.7705 26.928 88.2905 26.928C87.8745 26.928 87.5332 27.008 87.2665 27.168C86.9998 27.3173 86.7812 27.5413 86.6105 27.84L85.2825 27.136C85.5598 26.624 85.9652 26.224 86.4985 25.936C87.0318 25.648 87.6558 25.504 88.3705 25.504C88.9358 25.504 89.4372 25.5947 89.8745 25.776C90.3225 25.9467 90.6692 26.2027 90.9145 26.544C91.1705 26.8747 91.2985 27.2853 91.2985 27.776C91.2985 28.16 91.2078 28.5227 91.0265 28.864C90.8452 29.1947 90.5625 29.44 90.1785 29.6C90.6905 29.7493 91.0745 30.0107 91.3305 30.384C91.5972 30.7467 91.7305 31.1787 91.7305 31.68C91.7305 32.192 91.5865 32.6347 91.2985 33.008C91.0212 33.3707 90.6318 33.648 90.1305 33.84C89.6292 34.032 89.0585 34.128 88.4185 34.128ZM92.7449 31.552C92.7449 31.0187 92.8942 30.5547 93.1929 30.16C93.5022 29.7547 93.9235 29.4453 94.4569 29.232C94.9902 29.008 95.6089 28.896 96.3129 28.896C96.6862 28.896 97.0649 28.9227 97.4489 28.976C97.8435 29.0293 98.1902 29.1147 98.4889 29.232V28.704C98.4889 28.1173 98.3129 27.6587 97.9609 27.328C97.6089 26.9973 97.1022 26.832 96.4409 26.832C95.9715 26.832 95.5289 26.9173 95.1129 27.088C94.6969 27.248 94.2542 27.4773 93.7849 27.776L93.1929 26.592C93.7475 26.2187 94.3022 25.9413 94.8569 25.76C95.4222 25.5787 96.0142 25.488 96.6329 25.488C97.7529 25.488 98.6329 25.7867 99.2729 26.384C99.9235 26.9707 100.249 27.808 100.249 28.896V32.016C100.249 32.2187 100.281 32.3627 100.345 32.448C100.42 32.5333 100.542 32.5813 100.713 32.592V34C100.553 34.032 100.409 34.0533 100.281 34.064C100.153 34.0747 100.046 34.08 99.9609 34.08C99.5875 34.08 99.3049 33.9893 99.1129 33.808C98.9209 33.6267 98.8089 33.4133 98.7769 33.168L98.7289 32.688C98.3662 33.1573 97.9022 33.52 97.3369 33.776C96.7715 34.032 96.2009 34.16 95.6249 34.16C95.0702 34.16 94.5742 34.048 94.1369 33.824C93.6995 33.5893 93.3582 33.2747 93.1129 32.88C92.8675 32.4853 92.7449 32.0427 92.7449 31.552ZM98.0729 32.064C98.2009 31.9253 98.3022 31.7867 98.3769 31.648C98.4515 31.5093 98.4889 31.3867 98.4889 31.28V30.32C98.1902 30.2027 97.8755 30.1173 97.5449 30.064C97.2142 30 96.8889 29.968 96.5689 29.968C95.9289 29.968 95.4062 30.096 95.0009 30.352C94.6062 30.608 94.4089 30.96 94.4089 31.408C94.4089 31.6533 94.4729 31.888 94.6009 32.112C94.7395 32.336 94.9315 32.5173 95.1769 32.656C95.4329 32.7947 95.7475 32.864 96.1209 32.864C96.5049 32.864 96.8729 32.7893 97.2249 32.64C97.5769 32.4907 97.8595 32.2987 98.0729 32.064ZM102.384 34V25.632H104.128V28.944H104.96L107.424 25.632H109.376L106.32 29.68L109.728 34H107.696L104.944 30.528H104.128V34H102.384ZM110.432 31.552C110.432 31.0187 110.582 30.5547 110.88 30.16C111.19 29.7547 111.611 29.4453 112.144 29.232C112.678 29.008 113.296 28.896 114 28.896C114.374 28.896 114.752 28.9227 115.136 28.976C115.531 29.0293 115.878 29.1147 116.176 29.232V28.704C116.176 28.1173 116 27.6587 115.648 27.328C115.296 26.9973 114.79 26.832 114.128 26.832C113.659 26.832 113.216 26.9173 112.8 27.088C112.384 27.248 111.942 27.4773 111.472 27.776L110.88 26.592C111.435 26.2187 111.99 25.9413 112.544 25.76C113.11 25.5787 113.702 25.488 114.32 25.488C115.44 25.488 116.32 25.7867 116.96 26.384C117.611 26.9707 117.936 27.808 117.936 28.896V32.016C117.936 32.2187 117.968 32.3627 118.032 32.448C118.107 32.5333 118.23 32.5813 118.4 32.592V34C118.24 34.032 118.096 34.0533 117.968 34.064C117.84 34.0747 117.734 34.08 117.648 34.08C117.275 34.08 116.992 33.9893 116.8 33.808C116.608 33.6267 116.496 33.4133 116.464 33.168L116.416 32.688C116.054 33.1573 115.59 33.52 115.024 33.776C114.459 34.032 113.888 34.16 113.312 34.16C112.758 34.16 112.262 34.048 111.824 33.824C111.387 33.5893 111.046 33.2747 110.8 32.88C110.555 32.4853 110.432 32.0427 110.432 31.552ZM115.76 32.064C115.888 31.9253 115.99 31.7867 116.064 31.648C116.139 31.5093 116.176 31.3867 116.176 31.28V30.32C115.878 30.2027 115.563 30.1173 115.232 30.064C114.902 30 114.576 29.968 114.256 29.968C113.616 29.968 113.094 30.096 112.688 30.352C112.294 30.608 112.096 30.96 112.096 31.408C112.096 31.6533 112.16 31.888 112.288 32.112C112.427 32.336 112.619 32.5173 112.864 32.656C113.12 32.7947 113.435 32.864 113.808 32.864C114.192 32.864 114.56 32.7893 114.912 32.64C115.264 32.4907 115.547 32.2987 115.76 32.064ZM122.872 34.128C122.018 34.128 121.298 33.9733 120.712 33.664C120.136 33.344 119.693 32.9067 119.384 32.352L120.808 31.712C120.989 32.0213 121.245 32.2667 121.576 32.448C121.906 32.6187 122.306 32.704 122.776 32.704C123.341 32.704 123.778 32.5867 124.088 32.352C124.397 32.1173 124.552 31.808 124.552 31.424C124.552 31.072 124.424 30.7893 124.168 30.576C123.912 30.352 123.549 30.2347 123.08 30.224H122.216V29.104H123.112C123.325 29.104 123.512 29.056 123.672 28.96C123.832 28.864 123.954 28.736 124.04 28.576C124.136 28.4053 124.184 28.2133 124.184 28C124.184 27.68 124.061 27.424 123.816 27.232C123.581 27.0293 123.224 26.928 122.744 26.928C122.328 26.928 121.986 27.008 121.72 27.168C121.453 27.3173 121.234 27.5413 121.064 27.84L119.736 27.136C120.013 26.624 120.418 26.224 120.952 25.936C121.485 25.648 122.109 25.504 122.824 25.504C123.389 25.504 123.89 25.5947 124.328 25.776C124.776 25.9467 125.122 26.2027 125.368 26.544C125.624 26.8747 125.752 27.2853 125.752 27.776C125.752 28.16 125.661 28.5227 125.48 28.864C125.298 29.1947 125.016 29.44 124.632 29.6C125.144 29.7493 125.528 30.0107 125.784 30.384C126.05 30.7467 126.184 31.1787 126.184 31.68C126.184 32.192 126.04 32.6347 125.752 33.008C125.474 33.3707 125.085 33.648 124.584 33.84C124.082 34.032 123.512 34.128 122.872 34.128ZM131.566 34.16C130.905 34.16 130.313 34.048 129.79 33.824C129.267 33.5893 128.814 33.2693 128.43 32.864C128.057 32.4587 127.769 32 127.566 31.488C127.363 30.9653 127.262 30.4107 127.262 29.824C127.262 29.2373 127.363 28.6827 127.566 28.16C127.769 27.6373 128.057 27.1787 128.43 26.784C128.814 26.3787 129.267 26.064 129.79 25.84C130.323 25.6053 130.915 25.488 131.566 25.488C132.217 25.488 132.803 25.6053 133.326 25.84C133.859 26.064 134.313 26.3787 134.686 26.784C135.07 27.1787 135.363 27.6373 135.566 28.16C135.769 28.6827 135.87 29.2373 135.87 29.824C135.87 30.4107 135.769 30.9653 135.566 31.488C135.363 32 135.07 32.4587 134.686 32.864C134.313 33.2693 133.859 33.5893 133.326 33.824C132.803 34.048 132.217 34.16 131.566 34.16ZM129.07 29.84C129.07 30.3733 129.182 30.8533 129.406 31.28C129.63 31.7067 129.929 32.0427 130.302 32.288C130.675 32.5333 131.097 32.656 131.566 32.656C132.025 32.656 132.441 32.5333 132.814 32.288C133.198 32.032 133.502 31.6907 133.726 31.264C133.95 30.8267 134.062 30.3467 134.062 29.824C134.062 29.2907 133.95 28.8107 133.726 28.384C133.502 27.9573 133.198 27.6213 132.814 27.376C132.441 27.12 132.025 26.992 131.566 26.992C131.097 26.992 130.675 27.12 130.302 27.376C129.929 27.632 129.63 27.9733 129.406 28.4C129.182 28.816 129.07 29.296 129.07 29.84ZM137.431 34V25.632H141.911C142.444 25.632 142.882 25.7333 143.223 25.936C143.575 26.128 143.836 26.3787 144.007 26.688C144.178 26.9867 144.263 27.3173 144.263 27.68C144.263 28.1387 144.156 28.544 143.943 28.896C143.73 29.248 143.415 29.5147 142.999 29.696C143.479 29.8347 143.868 30.08 144.167 30.432C144.476 30.7733 144.631 31.216 144.631 31.76C144.631 32.2507 144.514 32.6667 144.279 33.008C144.044 33.3387 143.708 33.5893 143.271 33.76C142.844 33.92 142.343 34 141.767 34H137.431ZM139.095 32.784H141.719C141.943 32.784 142.146 32.7307 142.327 32.624C142.519 32.5067 142.668 32.3573 142.775 32.176C142.882 31.984 142.935 31.7813 142.935 31.568C142.935 31.3333 142.882 31.1253 142.775 30.944C142.679 30.7627 142.54 30.6187 142.359 30.512C142.188 30.4053 141.986 30.352 141.751 30.352H139.095V32.784ZM139.095 29.216H141.463C141.687 29.216 141.884 29.1627 142.055 29.056C142.226 28.9387 142.359 28.784 142.455 28.592C142.551 28.4 142.599 28.1973 142.599 27.984C142.599 27.6747 142.498 27.408 142.295 27.184C142.092 26.96 141.826 26.848 141.495 26.848H139.095V29.216Z" fill="#222222"/>
<path d="M38.124 75.21C37.1207 75.21 36.269 74.9883 35.569 74.545C34.869 74.1017 34.3347 73.4857 33.966 72.697C33.602 71.9083 33.42 70.996 33.42 69.96C33.42 68.924 33.602 68.0117 33.966 67.223C34.3347 66.4343 34.869 65.8183 35.569 65.375C36.269 64.9317 37.1207 64.71 38.124 64.71C39.132 64.71 39.986 64.9317 40.686 65.375C41.386 65.8183 41.918 66.4343 42.282 67.223C42.646 68.0117 42.828 68.924 42.828 69.96C42.828 70.996 42.646 71.9083 42.282 72.697C41.918 73.4857 41.386 74.1017 40.686 74.545C39.986 74.9883 39.132 75.21 38.124 75.21ZM38.124 74.02C38.8753 74.0247 39.5007 73.8567 40 73.516C40.504 73.1707 40.8797 72.6923 41.127 72.081C41.379 71.4697 41.505 70.7627 41.505 69.96C41.505 69.1527 41.379 68.4457 41.127 67.839C40.8797 67.2323 40.504 66.7587 40 66.418C39.5007 66.0773 38.8753 65.9047 38.124 65.9C37.3727 65.8953 36.7473 66.0633 36.248 66.404C35.7533 66.7447 35.38 67.2207 35.128 67.832C34.876 68.4433 34.7477 69.1527 34.743 69.96C34.7383 70.7627 34.862 71.4673 35.114 72.074C35.366 72.6807 35.7417 73.1567 36.241 73.502C36.745 73.8427 37.3727 74.0153 38.124 74.02ZM43.1205 75L46.1725 71.22L43.2675 67.44H44.6535L47.4605 71.15V67.44H48.5945V71.15L51.4015 67.44H52.7875L49.8825 71.22L52.9345 75H51.4855L48.5945 71.29V75H47.4605V71.29L44.5695 75H43.1205ZM60.2383 67.44V75H59.0343V69.428L55.0723 75H54.0433V67.44H55.2473V72.935L59.2163 67.44H60.2383ZM61.6388 76.68V73.971C62.0634 73.971 62.3668 73.8333 62.5488 73.558C62.7308 73.278 62.8778 72.8183 62.9898 72.179C63.0644 71.7777 63.1251 71.3483 63.1718 70.891C63.2184 70.4337 63.2581 69.925 63.2908 69.365C63.3281 68.8003 63.3631 68.1587 63.3958 67.44H68.6038V73.971H69.3388V76.68H68.1488V75H62.8288V76.68H61.6388ZM63.5568 73.971H67.3578V68.469H64.5228C64.5088 68.8003 64.4901 69.148 64.4668 69.512C64.4434 69.8713 64.4154 70.2307 64.3828 70.59C64.3548 70.9493 64.3198 71.29 64.2778 71.612C64.2404 71.9293 64.1961 72.214 64.1448 72.466C64.0841 72.816 64.0141 73.1123 63.9348 73.355C63.8554 73.5977 63.7294 73.803 63.5568 73.971ZM72.8927 75.21C72.328 75.21 71.8543 75.1073 71.4717 74.902C71.0937 74.692 70.8067 74.4167 70.6107 74.076C70.4193 73.7353 70.3237 73.362 70.3237 72.956C70.3237 72.5593 70.3983 72.2163 70.5477 71.927C70.7017 71.633 70.9163 71.3903 71.1917 71.199C71.467 71.003 71.796 70.849 72.1787 70.737C72.538 70.639 72.9393 70.555 73.3827 70.485C73.8307 70.4103 74.2833 70.3427 74.7407 70.282C75.198 70.2213 75.625 70.163 76.0217 70.107L75.5737 70.366C75.5877 69.694 75.4523 69.197 75.1677 68.875C74.8877 68.553 74.4023 68.392 73.7117 68.392C73.2543 68.392 72.853 68.497 72.5077 68.707C72.167 68.9123 71.9267 69.2483 71.7867 69.715L70.6037 69.358C70.7857 68.6953 71.138 68.175 71.6607 67.797C72.1833 67.419 72.8717 67.23 73.7257 67.23C74.4117 67.23 74.9997 67.3537 75.4897 67.601C75.9843 67.8437 76.339 68.2123 76.5537 68.707C76.661 68.9403 76.7287 69.1947 76.7567 69.47C76.7847 69.7407 76.7987 70.0253 76.7987 70.324V75H75.6927V73.187L75.9517 73.355C75.667 73.9663 75.268 74.4283 74.7547 74.741C74.246 75.0537 73.6253 75.21 72.8927 75.21ZM73.0817 74.167C73.5297 74.167 73.917 74.0877 74.2437 73.929C74.575 73.7657 74.841 73.5533 75.0417 73.292C75.2423 73.026 75.373 72.7367 75.4337 72.424C75.5037 72.1907 75.541 71.9317 75.5457 71.647C75.555 71.3577 75.5597 71.136 75.5597 70.982L75.9937 71.171C75.5877 71.227 75.1887 71.2807 74.7967 71.332C74.4047 71.3833 74.0337 71.4393 73.6837 71.5C73.3337 71.556 73.0187 71.6237 72.7387 71.703C72.5333 71.7683 72.3397 71.8523 72.1577 71.955C71.9803 72.0577 71.8357 72.1907 71.7237 72.354C71.6163 72.5127 71.5627 72.711 71.5627 72.949C71.5627 73.1543 71.614 73.3503 71.7167 73.537C71.824 73.7237 71.9873 73.8753 72.2067 73.992C72.4307 74.1087 72.7223 74.167 73.0817 74.167ZM81.8947 75.21C81.1527 75.21 80.504 75.0467 79.9487 74.72C79.398 74.3887 78.9687 73.929 78.6607 73.341C78.3527 72.7483 78.1987 72.0577 78.1987 71.269C78.1987 70.443 78.3503 69.729 78.6537 69.127C78.957 68.5203 79.3793 68.0537 79.9207 67.727C80.4667 67.3957 81.106 67.23 81.8387 67.23C82.5993 67.23 83.2457 67.405 83.7777 67.755C84.3143 68.105 84.7157 68.6043 84.9817 69.253C85.2523 69.9017 85.369 70.674 85.3317 71.57H84.0717V71.122C84.0577 70.1933 83.8687 69.5003 83.5047 69.043C83.1407 68.581 82.5993 68.35 81.8807 68.35C81.1107 68.35 80.525 68.5973 80.1237 69.092C79.7223 69.5867 79.5217 70.296 79.5217 71.22C79.5217 72.1113 79.7223 72.802 80.1237 73.292C80.525 73.782 81.0967 74.027 81.8387 74.027C82.338 74.027 82.772 73.9127 83.1407 73.684C83.5093 73.4553 83.7987 73.1263 84.0087 72.697L85.2057 73.11C84.9117 73.7773 84.4683 74.2953 83.8757 74.664C83.2877 75.028 82.6273 75.21 81.8947 75.21ZM79.1017 71.57V70.569H84.6877V71.57H79.1017ZM88.7554 75V68.574H86.1234V67.44H92.6334V68.574H90.0014V75H88.7554ZM99.9463 75.21C99.1809 75.21 98.5299 75.0397 97.9933 74.699C97.4613 74.3537 97.0553 73.88 96.7753 73.278C96.4953 72.676 96.3506 71.99 96.3413 71.22C96.3506 70.4313 96.4976 69.7383 96.7823 69.141C97.0716 68.539 97.4846 68.07 98.0213 67.734C98.5579 67.398 99.2043 67.23 99.9603 67.23C100.758 67.23 101.444 67.426 102.018 67.818C102.597 68.21 102.984 68.7467 103.18 69.428L101.948 69.799C101.79 69.3603 101.531 69.0197 101.171 68.777C100.817 68.5343 100.408 68.413 99.9463 68.413C99.4283 68.413 99.0013 68.5343 98.6653 68.777C98.3293 69.015 98.0796 69.3463 97.9163 69.771C97.7529 70.191 97.6689 70.674 97.6643 71.22C97.6736 72.06 97.8673 72.739 98.2453 73.257C98.6279 73.7703 99.1949 74.027 99.9463 74.027C100.441 74.027 100.852 73.915 101.178 73.691C101.505 73.4623 101.752 73.1333 101.92 72.704L103.18 73.033C102.919 73.7377 102.511 74.2767 101.955 74.65C101.4 75.0233 100.73 75.21 99.9463 75.21ZM107.682 75.217C106.968 75.2123 106.359 75.0583 105.855 74.755C105.351 74.447 104.959 73.9967 104.679 73.404C104.399 72.8113 104.243 72.0857 104.21 71.227C104.191 70.8303 104.196 70.394 104.224 69.918C104.257 69.442 104.308 68.9847 104.378 68.546C104.453 68.1073 104.546 67.7457 104.658 67.461C104.784 67.1203 104.961 66.8053 105.19 66.516C105.423 66.222 105.685 65.9793 105.974 65.788C106.268 65.5873 106.597 65.431 106.961 65.319C107.325 65.207 107.705 65.1207 108.102 65.06C108.503 64.9947 108.905 64.9387 109.306 64.892C109.707 64.8407 110.09 64.78 110.454 64.71L110.58 65.83C110.323 65.886 110.02 65.935 109.67 65.977C109.32 66.0143 108.956 66.0587 108.578 66.11C108.205 66.1613 107.845 66.2337 107.5 66.327C107.159 66.4157 106.865 66.5393 106.618 66.698C106.254 66.9173 105.974 67.2463 105.778 67.685C105.587 68.119 105.47 68.6067 105.428 69.148C105.717 68.7 106.093 68.371 106.555 68.161C107.017 67.951 107.509 67.846 108.032 67.846C108.709 67.846 109.292 68.0047 109.782 68.322C110.272 68.6347 110.648 69.0663 110.909 69.617C111.175 70.1677 111.308 70.7953 111.308 71.5C111.308 72.2467 111.159 72.9 110.86 73.46C110.561 74.02 110.139 74.454 109.593 74.762C109.052 75.07 108.415 75.2217 107.682 75.217ZM107.759 74.034C108.492 74.034 109.047 73.8077 109.425 73.355C109.803 72.8977 109.992 72.291 109.992 71.535C109.992 70.7603 109.796 70.1513 109.404 69.708C109.012 69.26 108.461 69.036 107.752 69.036C107.033 69.036 106.483 69.26 106.1 69.708C105.722 70.1513 105.533 70.7603 105.533 71.535C105.533 72.3143 105.724 72.9257 106.107 73.369C106.49 73.8123 107.04 74.034 107.759 74.034ZM116.073 75.21C115.322 75.21 114.673 75.0397 114.127 74.699C113.586 74.3583 113.168 73.887 112.874 73.285C112.58 72.683 112.433 71.9923 112.433 71.213C112.433 70.4197 112.582 69.7243 112.881 69.127C113.18 68.5297 113.602 68.0653 114.148 67.734C114.694 67.398 115.336 67.23 116.073 67.23C116.829 67.23 117.48 67.4003 118.026 67.741C118.572 68.077 118.99 68.546 119.279 69.148C119.573 69.7453 119.72 70.4337 119.72 71.213C119.72 72.0017 119.573 72.697 119.279 73.299C118.985 73.8963 118.565 74.3653 118.019 74.706C117.473 75.042 116.824 75.21 116.073 75.21ZM116.073 74.027C116.857 74.027 117.44 73.7657 117.823 73.243C118.206 72.7203 118.397 72.0437 118.397 71.213C118.397 70.359 118.203 69.68 117.816 69.176C117.429 68.6673 116.848 68.413 116.073 68.413C115.546 68.413 115.112 68.532 114.771 68.77C114.43 69.008 114.176 69.337 114.008 69.757C113.84 70.177 113.756 70.6623 113.756 71.213C113.756 72.0623 113.952 72.7437 114.344 73.257C114.736 73.7703 115.312 74.027 116.073 74.027ZM124.733 75.21C124.024 75.21 123.427 75.035 122.941 74.685C122.456 74.3303 122.087 73.852 121.835 73.25C121.588 72.6433 121.464 71.9643 121.464 71.213C121.464 70.4523 121.588 69.771 121.835 69.169C122.087 68.567 122.456 68.0933 122.941 67.748C123.431 67.4027 124.031 67.23 124.74 67.23C125.44 67.23 126.042 67.405 126.546 67.755C127.055 68.1003 127.445 68.574 127.715 69.176C127.986 69.778 128.121 70.457 128.121 71.213C128.121 71.969 127.986 72.648 127.715 73.25C127.445 73.852 127.055 74.3303 126.546 74.685C126.042 75.035 125.438 75.21 124.733 75.21ZM121.254 78.36V67.44H122.367V73.005H122.507V78.36H121.254ZM124.579 74.069C125.079 74.069 125.492 73.943 125.818 73.691C126.145 73.439 126.39 73.0983 126.553 72.669C126.717 72.235 126.798 71.7497 126.798 71.213C126.798 70.681 126.717 70.2003 126.553 69.771C126.395 69.3417 126.147 69.001 125.811 68.749C125.48 68.497 125.058 68.371 124.544 68.371C124.054 68.371 123.648 68.4923 123.326 68.735C123.004 68.973 122.764 69.3067 122.605 69.736C122.447 70.1607 122.367 70.653 122.367 71.213C122.367 71.7637 122.444 72.256 122.598 72.69C122.757 73.1193 123 73.4577 123.326 73.705C123.653 73.9477 124.071 74.069 124.579 74.069ZM129.649 75L129.656 67.44H130.916V71.08L134.087 67.44H135.704L132.365 71.22L136.096 75H134.353L130.916 71.36V75H129.649ZM142.981 67.44V75H141.777V69.428L137.815 75H136.786V67.44H137.99V72.935L141.959 67.44H142.981Z" fill="#4D4D4D"/>
<path d="M35.5415 95V86.706L33.78 87.7655V86.693L35.5415 85.64H36.51V95H35.5415ZM38.7154 94.9935L38.7219 94.1225L42.9534 90.3005C43.3174 89.9712 43.5579 89.6592 43.6749 89.3645C43.7963 89.0655 43.8569 88.7535 43.8569 88.4285C43.8569 88.0428 43.7659 87.694 43.5839 87.382C43.4019 87.07 43.1571 86.823 42.8494 86.641C42.5418 86.4547 42.1973 86.3615 41.8159 86.3615C41.4173 86.3615 41.0619 86.4568 40.7499 86.6475C40.4379 86.8382 40.1909 87.0895 40.0089 87.4015C39.8313 87.7135 39.7446 88.0537 39.7489 88.422H38.7739C38.7739 87.8543 38.9083 87.3452 39.1769 86.8945C39.4456 86.4438 39.8096 86.0907 40.2689 85.835C40.7283 85.575 41.2483 85.445 41.8289 85.445C42.3966 85.445 42.9058 85.5793 43.3564 85.848C43.8114 86.1123 44.1689 86.472 44.4289 86.927C44.6933 87.3777 44.8254 87.8803 44.8254 88.435C44.8254 88.825 44.7778 89.1695 44.6824 89.4685C44.5914 89.7632 44.4463 90.0383 44.2469 90.294C44.0519 90.5453 43.8028 90.8053 43.4994 91.074L39.7424 94.467L39.5929 94.077H44.8254V94.9935H38.7154ZM54.569 87.98V95H53.6395V89.5335L49.7915 95H48.9855V87.98H49.915V93.401L53.7695 87.98H54.569ZM61.9184 95.195C61.2987 95.195 60.7592 95.0628 60.2999 94.7985C59.8406 94.5298 59.4744 94.155 59.2014 93.674C58.9327 93.1887 58.7702 92.6188 58.7139 91.9645H57.3424V95H56.3869V87.98H57.3424V91.0155H58.7074C58.7637 90.3525 58.9284 89.7805 59.2014 89.2995C59.4787 88.8142 59.8471 88.4415 60.3064 88.1815C60.7701 87.9172 61.3096 87.785 61.9249 87.785C62.6226 87.785 63.2184 87.9432 63.7124 88.2595C64.2107 88.5758 64.5899 89.0113 64.8499 89.566C65.1142 90.1207 65.2464 90.7577 65.2464 91.477C65.2464 92.2137 65.1121 92.8615 64.8434 93.4205C64.5791 93.9795 64.1977 94.415 63.6994 94.727C63.2054 95.039 62.6117 95.195 61.9184 95.195ZM61.8989 94.2785C62.6876 94.2785 63.2726 94.0228 63.6539 93.5115C64.0396 92.9958 64.2324 92.3198 64.2324 91.4835C64.2324 90.6298 64.0374 89.9538 63.6474 89.4555C63.2617 88.9528 62.6811 88.7015 61.9054 88.7015C61.1644 88.7015 60.5967 88.9485 60.2024 89.4425C59.8081 89.9322 59.6109 90.6103 59.6109 91.477C59.6109 92.3263 59.8037 93.0067 60.1894 93.518C60.5794 94.025 61.1492 94.2785 61.8989 94.2785ZM66.6701 95V87.98H67.6256V91.0285H71.5841V87.98H72.5396V95H71.5841V91.945H67.6256V95H66.6701ZM78.7578 95V92.3545H77.1198C76.9291 92.3545 76.7319 92.348 76.5283 92.335C76.3289 92.3177 76.1426 92.2938 75.9693 92.2635C75.4753 92.1682 75.0549 91.9515 74.7083 91.6135C74.3659 91.2712 74.1948 90.7988 74.1948 90.1965C74.1948 89.6072 74.3551 89.1348 74.6758 88.7795C74.9964 88.4198 75.3843 88.1858 75.8393 88.0775C76.0473 88.0298 76.2574 88.0017 76.4698 87.993C76.6864 87.9843 76.8728 87.98 77.0288 87.98H79.7133L79.7198 95H78.7578ZM73.9673 95L75.9238 92.0555H76.9833L75.0138 95H73.9673ZM77.0678 91.5355H78.7578V88.799H77.0678C76.9638 88.799 76.8186 88.8033 76.6323 88.812C76.4459 88.8207 76.2704 88.8488 76.1058 88.8965C75.9628 88.9398 75.8198 89.0157 75.6768 89.124C75.5381 89.228 75.4211 89.3688 75.3258 89.5465C75.2304 89.7198 75.1828 89.9322 75.1828 90.1835C75.1828 90.5345 75.2781 90.8162 75.4688 91.0285C75.6638 91.2365 75.9064 91.3795 76.1968 91.4575C76.3528 91.4922 76.5088 91.5138 76.6648 91.5225C76.8208 91.5312 76.9551 91.5355 77.0678 91.5355ZM83.8854 94.9935L83.8919 94.1225L88.1234 90.3005C88.4874 89.9712 88.7279 89.6592 88.8449 89.3645C88.9662 89.0655 89.0269 88.7535 89.0269 88.4285C89.0269 88.0428 88.9359 87.694 88.7539 87.382C88.5719 87.07 88.327 86.823 88.0194 86.641C87.7117 86.4547 87.3672 86.3615 86.9859 86.3615C86.5872 86.3615 86.2319 86.4568 85.9199 86.6475C85.6079 86.8382 85.3609 87.0895 85.1789 87.4015C85.0012 87.7135 84.9145 88.0537 84.9189 88.422H83.9439C83.9439 87.8543 84.0782 87.3452 84.3469 86.8945C84.6155 86.4438 84.9795 86.0907 85.4389 85.835C85.8982 85.575 86.4182 85.445 86.9989 85.445C87.5665 85.445 88.0757 85.5793 88.5264 85.848C88.9814 86.1123 89.3389 86.472 89.5989 86.927C89.8632 87.3777 89.9954 87.8803 89.9954 88.435C89.9954 88.825 89.9477 89.1695 89.8524 89.4685C89.7614 89.7632 89.6162 90.0383 89.4169 90.294C89.2219 90.5453 88.9727 90.8053 88.6694 91.074L84.9124 94.467L84.7629 94.077H89.9954V94.9935H83.8854ZM94.6144 95.195C94.0381 95.195 93.5181 95.0607 93.0544 94.792C92.5951 94.5233 92.2311 94.1593 91.9624 93.7C91.6937 93.2363 91.5594 92.7163 91.5594 92.14V88.5C91.5594 87.9237 91.6937 87.4058 91.9624 86.9465C92.2311 86.4828 92.5951 86.1167 93.0544 85.848C93.5181 85.5793 94.0381 85.445 94.6144 85.445C95.1907 85.445 95.7086 85.5793 96.1679 85.848C96.6316 86.1167 96.9977 86.4828 97.2664 86.9465C97.5351 87.4058 97.6694 87.9237 97.6694 88.5V92.14C97.6694 92.7163 97.5351 93.2363 97.2664 93.7C96.9977 94.1593 96.6316 94.5233 96.1679 94.792C95.7086 95.0607 95.1907 95.195 94.6144 95.195ZM94.6144 94.272C95.0001 94.272 95.3511 94.1788 95.6674 93.9925C95.9837 93.8018 96.2351 93.5483 96.4214 93.232C96.6077 92.9157 96.7009 92.5668 96.7009 92.1855V88.4545C96.7009 88.0688 96.6077 87.7178 96.4214 87.4015C96.2351 87.0852 95.9837 86.8338 95.6674 86.6475C95.3511 86.4568 95.0001 86.3615 94.6144 86.3615C94.2287 86.3615 93.8777 86.4568 93.5614 86.6475C93.2451 86.8338 92.9937 87.0852 92.8074 87.4015C92.6211 87.7178 92.5279 88.0688 92.5279 88.4545V92.1855C92.5279 92.5668 92.6211 92.9157 92.8074 93.232C92.9937 93.5483 93.2451 93.8018 93.5614 93.9925C93.8777 94.1788 94.2287 94.272 94.6144 94.272ZM100.014 93.96V92.8485H101.125V93.96H100.014ZM100.02 90.1315V89.02H101.132V90.1315H100.02ZM107.5 95V93.1865H103.119V92.2765L106.252 85.64H107.324L104.191 92.2765H107.5V89.5465H108.462V92.2765H109.482V93.1865H108.462V95H107.5ZM113.562 95.1885C113.099 95.1885 112.672 95.1062 112.282 94.9415C111.892 94.7768 111.556 94.5428 111.274 94.2395C110.993 93.9318 110.787 93.5657 110.657 93.141L111.567 92.868C111.723 93.3317 111.978 93.6827 112.334 93.921C112.693 94.1593 113.099 94.2742 113.549 94.2655C113.965 94.2568 114.323 94.1637 114.622 93.986C114.925 93.8083 115.157 93.5613 115.317 93.245C115.478 92.9287 115.558 92.5625 115.558 92.1465C115.558 91.5095 115.371 90.9982 114.999 90.6125C114.63 90.2225 114.143 90.0275 113.536 90.0275C113.367 90.0275 113.19 90.0513 113.003 90.099C112.817 90.1423 112.644 90.2052 112.483 90.2875L112.002 89.527L115.642 86.1665L115.798 86.5565H111.027V85.64H116.435V86.5695L113.263 89.5985L113.25 89.2215C113.9 89.1392 114.472 89.2128 114.966 89.4425C115.46 89.6722 115.846 90.0232 116.123 90.4955C116.405 90.9635 116.546 91.5138 116.546 92.1465C116.546 92.7445 116.416 93.2732 116.156 93.7325C115.9 94.1875 115.547 94.545 115.096 94.805C114.646 95.0607 114.134 95.1885 113.562 95.1885Z" fill="#818181"/>
<path d="M38.124 147.21C37.1207 147.21 36.269 146.988 35.569 146.545C34.869 146.102 34.3347 145.486 33.966 144.697C33.602 143.908 33.42 142.996 33.42 141.96C33.42 140.924 33.602 140.012 33.966 139.223C34.3347 138.434 34.869 137.818 35.569 137.375C36.269 136.932 37.1207 136.71 38.124 136.71C39.2907 136.71 40.2497 137.006 41.001 137.599C41.757 138.192 42.2773 138.99 42.562 139.993L41.295 140.329C41.0897 139.578 40.7233 138.985 40.196 138.551C39.6687 138.117 38.978 137.9 38.124 137.9C37.3727 137.9 36.7473 138.07 36.248 138.411C35.7487 138.752 35.373 139.228 35.121 139.839C34.869 140.446 34.7407 141.153 34.736 141.96C34.7313 142.763 34.855 143.47 35.107 144.081C35.359 144.688 35.737 145.164 36.241 145.509C36.745 145.85 37.3727 146.02 38.124 146.02C38.978 146.02 39.6687 145.803 40.196 145.369C40.7233 144.93 41.0897 144.338 41.295 143.591L42.562 143.927C42.2773 144.926 41.757 145.724 41.001 146.321C40.2497 146.914 39.2907 147.21 38.124 147.21ZM47.3172 147.21C46.5659 147.21 45.9172 147.04 45.3712 146.699C44.8299 146.358 44.4122 145.887 44.1182 145.285C43.8242 144.683 43.6772 143.992 43.6772 143.213C43.6772 142.42 43.8265 141.724 44.1252 141.127C44.4239 140.53 44.8462 140.065 45.3922 139.734C45.9382 139.398 46.5799 139.23 47.3172 139.23C48.0732 139.23 48.7242 139.4 49.2702 139.741C49.8162 140.077 50.2339 140.546 50.5232 141.148C50.8172 141.745 50.9642 142.434 50.9642 143.213C50.9642 144.002 50.8172 144.697 50.5232 145.299C50.2292 145.896 49.8092 146.365 49.2632 146.706C48.7172 147.042 48.0685 147.21 47.3172 147.21ZM47.3172 146.027C48.1012 146.027 48.6845 145.766 49.0672 145.243C49.4499 144.72 49.6412 144.044 49.6412 143.213C49.6412 142.359 49.4475 141.68 49.0602 141.176C48.6729 140.667 48.0919 140.413 47.3172 140.413C46.7899 140.413 46.3559 140.532 46.0152 140.77C45.6745 141.008 45.4202 141.337 45.2522 141.757C45.0842 142.177 45.0002 142.662 45.0002 143.213C45.0002 144.062 45.1962 144.744 45.5882 145.257C45.9802 145.77 46.5565 146.027 47.3172 146.027ZM55.5784 147.217C54.8644 147.212 54.2554 147.058 53.7514 146.755C53.2474 146.447 52.8554 145.997 52.5754 145.404C52.2954 144.811 52.1391 144.086 52.1064 143.227C52.0877 142.83 52.0924 142.394 52.1204 141.918C52.1531 141.442 52.2044 140.985 52.2744 140.546C52.3491 140.107 52.4424 139.746 52.5544 139.461C52.6804 139.12 52.8577 138.805 53.0864 138.516C53.3197 138.222 53.5811 137.979 53.8704 137.788C54.1644 137.587 54.4934 137.431 54.8574 137.319C55.2214 137.207 55.6017 137.121 55.9984 137.06C56.3997 136.995 56.8011 136.939 57.2024 136.892C57.6037 136.841 57.9864 136.78 58.3504 136.71L58.4764 137.83C58.2197 137.886 57.9164 137.935 57.5664 137.977C57.2164 138.014 56.8524 138.059 56.4744 138.11C56.1011 138.161 55.7417 138.234 55.3964 138.327C55.0557 138.416 54.7617 138.539 54.5144 138.698C54.1504 138.917 53.8704 139.246 53.6744 139.685C53.4831 140.119 53.3664 140.607 53.3244 141.148C53.6137 140.7 53.9894 140.371 54.4514 140.161C54.9134 139.951 55.4057 139.846 55.9284 139.846C56.6051 139.846 57.1884 140.005 57.6784 140.322C58.1684 140.635 58.5441 141.066 58.8054 141.617C59.0714 142.168 59.2044 142.795 59.2044 143.5C59.2044 144.247 59.0551 144.9 58.7564 145.46C58.4577 146.02 58.0354 146.454 57.4894 146.762C56.9481 147.07 56.3111 147.222 55.5784 147.217ZM55.6554 146.034C56.3881 146.034 56.9434 145.808 57.3214 145.355C57.6994 144.898 57.8884 144.291 57.8884 143.535C57.8884 142.76 57.6924 142.151 57.3004 141.708C56.9084 141.26 56.3577 141.036 55.6484 141.036C54.9297 141.036 54.3791 141.26 53.9964 141.708C53.6184 142.151 53.4294 142.76 53.4294 143.535C53.4294 144.314 53.6207 144.926 54.0034 145.369C54.3861 145.812 54.9367 146.034 55.6554 146.034ZM64.2215 147.21C63.5122 147.21 62.9149 147.035 62.4295 146.685C61.9442 146.33 61.5755 145.852 61.3235 145.25C61.0762 144.643 60.9525 143.964 60.9525 143.213C60.9525 142.452 61.0762 141.771 61.3235 141.169C61.5755 140.567 61.9442 140.093 62.4295 139.748C62.9195 139.403 63.5192 139.23 64.2285 139.23C64.9285 139.23 65.5305 139.405 66.0345 139.755C66.5432 140.1 66.9329 140.574 67.2035 141.176C67.4742 141.778 67.6095 142.457 67.6095 143.213C67.6095 143.969 67.4742 144.648 67.2035 145.25C66.9329 145.852 66.5432 146.33 66.0345 146.685C65.5305 147.035 64.9262 147.21 64.2215 147.21ZM60.7425 150.36V139.44H61.8555V145.005H61.9955V150.36H60.7425ZM64.0675 146.069C64.5669 146.069 64.9799 145.943 65.3065 145.691C65.6332 145.439 65.8782 145.098 66.0415 144.669C66.2049 144.235 66.2865 143.75 66.2865 143.213C66.2865 142.681 66.2049 142.2 66.0415 141.771C65.8829 141.342 65.6355 141.001 65.2995 140.749C64.9682 140.497 64.5459 140.371 64.0325 140.371C63.5425 140.371 63.1365 140.492 62.8145 140.735C62.4925 140.973 62.2522 141.307 62.0935 141.736C61.9349 142.161 61.8555 142.653 61.8555 143.213C61.8555 143.764 61.9325 144.256 62.0865 144.69C62.2452 145.119 62.4879 145.458 62.8145 145.705C63.1412 145.948 63.5589 146.069 64.0675 146.069ZM71.2931 147.21C70.7284 147.21 70.2547 147.107 69.8721 146.902C69.4941 146.692 69.2071 146.417 69.0111 146.076C68.8197 145.735 68.7241 145.362 68.7241 144.956C68.7241 144.559 68.7987 144.216 68.9481 143.927C69.1021 143.633 69.3167 143.39 69.5921 143.199C69.8674 143.003 70.1964 142.849 70.5791 142.737C70.9384 142.639 71.3397 142.555 71.7831 142.485C72.2311 142.41 72.6837 142.343 73.1411 142.282C73.5984 142.221 74.0254 142.163 74.4221 142.107L73.9741 142.366C73.9881 141.694 73.8527 141.197 73.5681 140.875C73.2881 140.553 72.8027 140.392 72.1121 140.392C71.6547 140.392 71.2534 140.497 70.9081 140.707C70.5674 140.912 70.3271 141.248 70.1871 141.715L69.0041 141.358C69.1861 140.695 69.5384 140.175 70.0611 139.797C70.5837 139.419 71.2721 139.23 72.1261 139.23C72.8121 139.23 73.4001 139.354 73.8901 139.601C74.3847 139.844 74.7394 140.212 74.9541 140.707C75.0614 140.94 75.1291 141.195 75.1571 141.47C75.1851 141.741 75.1991 142.025 75.1991 142.324V147H74.0931V145.187L74.3521 145.355C74.0674 145.966 73.6684 146.428 73.1551 146.741C72.6464 147.054 72.0257 147.21 71.2931 147.21ZM71.4821 146.167C71.9301 146.167 72.3174 146.088 72.6441 145.929C72.9754 145.766 73.2414 145.553 73.4421 145.292C73.6427 145.026 73.7734 144.737 73.8341 144.424C73.9041 144.191 73.9414 143.932 73.9461 143.647C73.9554 143.358 73.9601 143.136 73.9601 142.982L74.3941 143.171C73.9881 143.227 73.5891 143.281 73.1971 143.332C72.8051 143.383 72.4341 143.439 72.0841 143.5C71.7341 143.556 71.4191 143.624 71.1391 143.703C70.9337 143.768 70.7401 143.852 70.5581 143.955C70.3807 144.058 70.2361 144.191 70.1241 144.354C70.0167 144.513 69.9631 144.711 69.9631 144.949C69.9631 145.154 70.0144 145.35 70.1171 145.537C70.2244 145.724 70.3877 145.875 70.6071 145.992C70.8311 146.109 71.1227 146.167 71.4821 146.167ZM77.0121 147V139.44H78.2581V142.625H82.2341V139.44H83.4801V147H82.2341V143.808H78.2581V147H77.0121Z" fill="#4D4D4D"/>
<path d="M35.5415 167V158.706L33.78 159.765V158.693L35.5415 157.64H36.51V167H35.5415ZM38.7154 166.993L38.7219 166.122L42.9534 162.3C43.3174 161.971 43.5579 161.659 43.6749 161.364C43.7963 161.065 43.8569 160.753 43.8569 160.428C43.8569 160.043 43.7659 159.694 43.5839 159.382C43.4019 159.07 43.1571 158.823 42.8494 158.641C42.5418 158.455 42.1973 158.361 41.8159 158.361C41.4173 158.361 41.0619 158.457 40.7499 158.647C40.4379 158.838 40.1909 159.089 40.0089 159.401C39.8313 159.713 39.7446 160.054 39.7489 160.422H38.7739C38.7739 159.854 38.9083 159.345 39.1769 158.894C39.4456 158.444 39.8096 158.091 40.2689 157.835C40.7283 157.575 41.2483 157.445 41.8289 157.445C42.3966 157.445 42.9058 157.579 43.3564 157.848C43.8114 158.112 44.1689 158.472 44.4289 158.927C44.6933 159.378 44.8254 159.88 44.8254 160.435C44.8254 160.825 44.7778 161.169 44.6824 161.468C44.5914 161.763 44.4463 162.038 44.2469 162.294C44.0519 162.545 43.8028 162.805 43.4994 163.074L39.7424 166.467L39.5929 166.077H44.8254V166.993H38.7154ZM54.569 159.98V167H53.6395V161.533L49.7915 167H48.9855V159.98H49.915V165.401L53.7695 159.98H54.569ZM61.9184 167.195C61.2987 167.195 60.7592 167.063 60.2999 166.798C59.8406 166.53 59.4744 166.155 59.2014 165.674C58.9327 165.189 58.7702 164.619 58.7139 163.964H57.3424V167H56.3869V159.98H57.3424V163.015H58.7074C58.7637 162.352 58.9284 161.78 59.2014 161.299C59.4787 160.814 59.8471 160.441 60.3064 160.181C60.7701 159.917 61.3096 159.785 61.9249 159.785C62.6226 159.785 63.2184 159.943 63.7124 160.259C64.2107 160.576 64.5899 161.011 64.8499 161.566C65.1142 162.121 65.2464 162.758 65.2464 163.477C65.2464 164.214 65.1121 164.861 64.8434 165.42C64.5791 165.979 64.1977 166.415 63.6994 166.727C63.2054 167.039 62.6117 167.195 61.9184 167.195ZM61.8989 166.278C62.6876 166.278 63.2726 166.023 63.6539 165.511C64.0396 164.996 64.2324 164.32 64.2324 163.483C64.2324 162.63 64.0374 161.954 63.6474 161.455C63.2617 160.953 62.6811 160.701 61.9054 160.701C61.1644 160.701 60.5967 160.948 60.2024 161.442C59.8081 161.932 59.6109 162.61 59.6109 163.477C59.6109 164.326 59.8037 165.007 60.1894 165.518C60.5794 166.025 61.1492 166.278 61.8989 166.278ZM66.6701 167V159.98H67.6256V163.028H71.5841V159.98H72.5396V167H71.5841V163.945H67.6256V167H66.6701ZM78.7578 167V164.354H77.1198C76.9291 164.354 76.7319 164.348 76.5283 164.335C76.3289 164.318 76.1426 164.294 75.9693 164.263C75.4753 164.168 75.0549 163.951 74.7083 163.613C74.3659 163.271 74.1948 162.799 74.1948 162.196C74.1948 161.607 74.3551 161.135 74.6758 160.779C74.9964 160.42 75.3843 160.186 75.8393 160.077C76.0473 160.03 76.2574 160.002 76.4698 159.993C76.6864 159.984 76.8728 159.98 77.0288 159.98H79.7133L79.7198 167H78.7578ZM73.9673 167L75.9238 164.055H76.9833L75.0138 167H73.9673ZM77.0678 163.535H78.7578V160.799H77.0678C76.9638 160.799 76.8186 160.803 76.6323 160.812C76.4459 160.821 76.2704 160.849 76.1058 160.896C75.9628 160.94 75.8198 161.016 75.6768 161.124C75.5381 161.228 75.4211 161.369 75.3258 161.546C75.2304 161.72 75.1828 161.932 75.1828 162.183C75.1828 162.534 75.2781 162.816 75.4688 163.028C75.6638 163.236 75.9064 163.379 76.1968 163.457C76.3528 163.492 76.5088 163.514 76.6648 163.522C76.8208 163.531 76.9551 163.535 77.0678 163.535ZM83.8854 166.993L83.8919 166.122L88.1234 162.3C88.4874 161.971 88.7279 161.659 88.8449 161.364C88.9662 161.065 89.0269 160.753 89.0269 160.428C89.0269 160.043 88.9359 159.694 88.7539 159.382C88.5719 159.07 88.327 158.823 88.0194 158.641C87.7117 158.455 87.3672 158.361 86.9859 158.361C86.5872 158.361 86.2319 158.457 85.9199 158.647C85.6079 158.838 85.3609 159.089 85.1789 159.401C85.0012 159.713 84.9145 160.054 84.9189 160.422H83.9439C83.9439 159.854 84.0782 159.345 84.3469 158.894C84.6155 158.444 84.9795 158.091 85.4389 157.835C85.8982 157.575 86.4182 157.445 86.9989 157.445C87.5665 157.445 88.0757 157.579 88.5264 157.848C88.9814 158.112 89.3389 158.472 89.5989 158.927C89.8632 159.378 89.9954 159.88 89.9954 160.435C89.9954 160.825 89.9477 161.169 89.8524 161.468C89.7614 161.763 89.6162 162.038 89.4169 162.294C89.2219 162.545 88.9727 162.805 88.6694 163.074L84.9124 166.467L84.7629 166.077H89.9954V166.993H83.8854ZM93.1909 167V158.706L91.4294 159.765V158.693L93.1909 157.64H94.1594V167H93.1909ZM97.1448 165.96V164.848H98.2563V165.96H97.1448ZM97.1513 162.131V161.02H98.2628V162.131H97.1513ZM103.025 167.189C102.561 167.189 102.135 167.106 101.745 166.941C101.355 166.777 101.019 166.543 100.737 166.239C100.455 165.932 100.25 165.566 100.12 165.141L101.03 164.868C101.186 165.332 101.441 165.683 101.797 165.921C102.156 166.159 102.561 166.274 103.012 166.265C103.428 166.257 103.786 166.164 104.085 165.986C104.388 165.808 104.62 165.561 104.78 165.245C104.94 164.929 105.021 164.562 105.021 164.146C105.021 163.509 104.834 162.998 104.462 162.612C104.093 162.222 103.606 162.027 102.999 162.027C102.83 162.027 102.652 162.051 102.466 162.099C102.28 162.142 102.106 162.205 101.946 162.287L101.465 161.527L105.105 158.166L105.261 158.556H100.49V157.64H105.898V158.569L102.726 161.598L102.713 161.221C103.363 161.139 103.935 161.213 104.429 161.442C104.923 161.672 105.309 162.023 105.586 162.495C105.868 162.963 106.009 163.514 106.009 164.146C106.009 164.744 105.879 165.273 105.619 165.732C105.363 166.187 105.01 166.545 104.559 166.805C104.108 167.061 103.597 167.189 103.025 167.189ZM108.196 167L111.641 158.569H107.305V157.64H112.661V158.569L109.223 167H108.196Z" fill="#818181"/>
<path d="M38.124 219.21C37.1207 219.21 36.269 218.988 35.569 218.545C34.869 218.102 34.3347 217.486 33.966 216.697C33.602 215.908 33.42 214.996 33.42 213.96C33.42 212.924 33.602 212.012 33.966 211.223C34.3347 210.434 34.869 209.818 35.569 209.375C36.269 208.932 37.1207 208.71 38.124 208.71C39.132 208.71 39.986 208.932 40.686 209.375C41.386 209.818 41.918 210.434 42.282 211.223C42.646 212.012 42.828 212.924 42.828 213.96C42.828 214.996 42.646 215.908 42.282 216.697C41.918 217.486 41.386 218.102 40.686 218.545C39.986 218.988 39.132 219.21 38.124 219.21ZM38.124 218.02C38.8753 218.025 39.5007 217.857 40 217.516C40.504 217.171 40.8797 216.692 41.127 216.081C41.379 215.47 41.505 214.763 41.505 213.96C41.505 213.153 41.379 212.446 41.127 211.839C40.8797 211.232 40.504 210.759 40 210.418C39.5007 210.077 38.8753 209.905 38.124 209.9C37.3727 209.895 36.7473 210.063 36.248 210.404C35.7533 210.745 35.38 211.221 35.128 211.832C34.876 212.443 34.7477 213.153 34.743 213.96C34.7383 214.763 34.862 215.467 35.114 216.074C35.366 216.681 35.7417 217.157 36.241 217.502C36.745 217.843 37.3727 218.015 38.124 218.02ZM46.2359 219V212.574H43.6039V211.44H50.1139V212.574H47.4819V219H46.2359ZM51.439 219V211.44H56.689V212.623H52.685V219H51.439ZM61.4872 219.21C60.7778 219.21 60.1805 219.035 59.6952 218.685C59.2098 218.33 58.8412 217.852 58.5892 217.25C58.3418 216.643 58.2182 215.964 58.2182 215.213C58.2182 214.452 58.3418 213.771 58.5892 213.169C58.8412 212.567 59.2098 212.093 59.6952 211.748C60.1852 211.403 60.7848 211.23 61.4942 211.23C62.1942 211.23 62.7962 211.405 63.3002 211.755C63.8088 212.1 64.1985 212.574 64.4692 213.176C64.7398 213.778 64.8752 214.457 64.8752 215.213C64.8752 215.969 64.7398 216.648 64.4692 217.25C64.1985 217.852 63.8088 218.33 63.3002 218.685C62.7962 219.035 62.1918 219.21 61.4872 219.21ZM58.0082 222.36V211.44H59.1212V217.005H59.2612V222.36H58.0082ZM61.3332 218.069C61.8325 218.069 62.2455 217.943 62.5722 217.691C62.8988 217.439 63.1438 217.098 63.3072 216.669C63.4705 216.235 63.5522 215.75 63.5522 215.213C63.5522 214.681 63.4705 214.2 63.3072 213.771C63.1485 213.342 62.9012 213.001 62.5652 212.749C62.2338 212.497 61.8115 212.371 61.2982 212.371C60.8082 212.371 60.4022 212.492 60.0802 212.735C59.7582 212.973 59.5178 213.307 59.3592 213.736C59.2005 214.161 59.1212 214.653 59.1212 215.213C59.1212 215.764 59.1982 216.256 59.3522 216.69C59.5108 217.119 59.7535 217.458 60.0802 217.705C60.4068 217.948 60.8245 218.069 61.3332 218.069ZM67.1863 222.36L68.6493 218.384L68.6703 219.56L65.3663 211.44H66.6753L69.2653 217.971H68.8173L71.2463 211.44H72.5132L68.3973 222.36H67.1863ZM72.8295 219L75.8815 215.22L72.9765 211.44H74.3625L77.1695 215.15V211.44H78.3035V215.15L81.1105 211.44H82.4965L79.5915 215.22L82.6435 219H81.1945L78.3035 215.29V219H77.1695V215.29L74.2785 219H72.8295ZM86.7619 219.21C86.0199 219.21 85.3712 219.047 84.8159 218.72C84.2652 218.389 83.8359 217.929 83.5279 217.341C83.2199 216.748 83.0659 216.058 83.0659 215.269C83.0659 214.443 83.2175 213.729 83.5209 213.127C83.8242 212.52 84.2465 212.054 84.7879 211.727C85.3339 211.396 85.9732 211.23 86.7059 211.23C87.4665 211.23 88.1129 211.405 88.6449 211.755C89.1815 212.105 89.5829 212.604 89.8489 213.253C90.1195 213.902 90.2362 214.674 90.1989 215.57H88.9389V215.122C88.9249 214.193 88.7359 213.5 88.3719 213.043C88.0079 212.581 87.4665 212.35 86.7479 212.35C85.9779 212.35 85.3922 212.597 84.9909 213.092C84.5895 213.587 84.3889 214.296 84.3889 215.22C84.3889 216.111 84.5895 216.802 84.9909 217.292C85.3922 217.782 85.9639 218.027 86.7059 218.027C87.2052 218.027 87.6392 217.913 88.0079 217.684C88.3765 217.455 88.6659 217.126 88.8759 216.697L90.0729 217.11C89.7789 217.777 89.3355 218.295 88.7429 218.664C88.1549 219.028 87.4945 219.21 86.7619 219.21ZM83.9689 215.57V214.569H89.5549V215.57H83.9689ZM91.7503 219V211.44H92.9963V214.625H96.9723V211.44H98.2183V219H96.9723V215.808H92.9963V219H91.7503Z" fill="#4D4D4D"/>
<path d="M35.5415 239V230.706L33.78 231.765V230.693L35.5415 229.64H36.51V239H35.5415ZM41.4909 239.189C41.0273 239.189 40.6004 239.106 40.2104 238.941C39.8204 238.777 39.4846 238.543 39.2029 238.239C38.9213 237.932 38.7154 237.566 38.5854 237.141L39.4954 236.868C39.6514 237.332 39.9071 237.683 40.2624 237.921C40.6221 238.159 41.0273 238.274 41.4779 238.265C41.8939 238.257 42.2514 238.164 42.5504 237.986C42.8538 237.808 43.0856 237.561 43.2459 237.245C43.4063 236.929 43.4864 236.562 43.4864 236.146C43.4864 235.509 43.3001 234.998 42.9274 234.612C42.5591 234.222 42.0716 234.027 41.4649 234.027C41.2959 234.027 41.1183 234.051 40.9319 234.099C40.7456 234.142 40.5723 234.205 40.4119 234.287L39.9309 233.527L43.5709 230.166L43.7269 230.556H38.9559V229.64H44.3639V230.569L41.1919 233.598L41.1789 233.221C41.8289 233.139 42.4009 233.213 42.8949 233.442C43.3889 233.672 43.7746 234.023 44.0519 234.495C44.3336 234.963 44.4744 235.514 44.4744 236.146C44.4744 236.744 44.3444 237.273 44.0844 237.732C43.8288 238.187 43.4756 238.545 43.0249 238.805C42.5743 239.061 42.0629 239.189 41.4909 239.189ZM54.3405 231.98V239H53.411V233.533L49.563 239H48.757V231.98H49.6865V237.401L53.541 231.98H54.3405ZM61.6899 239.195C61.0702 239.195 60.5307 239.063 60.0714 238.798C59.612 238.53 59.2459 238.155 58.9729 237.674C58.7042 237.189 58.5417 236.619 58.4854 235.964H57.1139V239H56.1584V231.98H57.1139V235.015H58.4789C58.5352 234.352 58.6999 233.78 58.9729 233.299C59.2502 232.814 59.6185 232.441 60.0779 232.181C60.5415 231.917 61.081 231.785 61.6964 231.785C62.394 231.785 62.9899 231.943 63.4839 232.259C63.9822 232.576 64.3614 233.011 64.6214 233.566C64.8857 234.121 65.0179 234.758 65.0179 235.477C65.0179 236.214 64.8836 236.861 64.6149 237.42C64.3505 237.979 63.9692 238.415 63.4709 238.727C62.9769 239.039 62.3832 239.195 61.6899 239.195ZM61.6704 238.278C62.459 238.278 63.044 238.023 63.4254 237.511C63.811 236.996 64.0039 236.32 64.0039 235.483C64.0039 234.63 63.8089 233.954 63.4189 233.455C63.0332 232.953 62.4525 232.701 61.6769 232.701C60.9359 232.701 60.3682 232.948 59.9739 233.442C59.5795 233.932 59.3824 234.61 59.3824 235.477C59.3824 236.326 59.5752 237.007 59.9609 237.518C60.3509 238.025 60.9207 238.278 61.6704 238.278ZM66.4416 239V231.98H67.3971V235.028H71.3556V231.98H72.3111V239H71.3556V235.945H67.3971V239H66.4416ZM78.5293 239V236.354H76.8912C76.7006 236.354 76.5034 236.348 76.2998 236.335C76.1004 236.318 75.9141 236.294 75.7408 236.263C75.2468 236.168 74.8264 235.951 74.4798 235.613C74.1374 235.271 73.9663 234.799 73.9663 234.196C73.9663 233.607 74.1266 233.135 74.4473 232.779C74.7679 232.42 75.1558 232.186 75.6108 232.077C75.8188 232.03 76.0289 232.002 76.2413 231.993C76.4579 231.984 76.6443 231.98 76.8002 231.98H79.4848L79.4913 239H78.5293ZM73.7388 239L75.6953 236.055H76.7548L74.7853 239H73.7388ZM76.8393 235.535H78.5293V232.799H76.8393C76.7353 232.799 76.5901 232.803 76.4038 232.812C76.2174 232.821 76.0419 232.849 75.8773 232.896C75.7343 232.94 75.5913 233.016 75.4483 233.124C75.3096 233.228 75.1926 233.369 75.0973 233.546C75.0019 233.72 74.9543 233.932 74.9543 234.183C74.9543 234.534 75.0496 234.816 75.2403 235.028C75.4353 235.236 75.6779 235.379 75.9683 235.457C76.1243 235.492 76.2803 235.514 76.4363 235.522C76.5923 235.531 76.7266 235.535 76.8393 235.535ZM86.9718 239.195C86.3955 239.195 85.8755 239.061 85.4118 238.792C84.9525 238.523 84.5885 238.159 84.3198 237.7C84.0512 237.236 83.9168 236.716 83.9168 236.14V232.5C83.9168 231.924 84.0512 231.406 84.3198 230.946C84.5885 230.483 84.9525 230.117 85.4118 229.848C85.8755 229.579 86.3955 229.445 86.9718 229.445C87.5482 229.445 88.066 229.579 88.5253 229.848C88.989 230.117 89.3552 230.483 89.6238 230.946C89.8925 231.406 90.0268 231.924 90.0268 232.5V236.14C90.0268 236.716 89.8925 237.236 89.6238 237.7C89.3552 238.159 88.989 238.523 88.5253 238.792C88.066 239.061 87.5482 239.195 86.9718 239.195ZM86.9718 238.272C87.3575 238.272 87.7085 238.179 88.0248 237.992C88.3412 237.802 88.5925 237.548 88.7788 237.232C88.9652 236.916 89.0583 236.567 89.0583 236.185V232.454C89.0583 232.069 88.9652 231.718 88.7788 231.401C88.5925 231.085 88.3412 230.834 88.0248 230.647C87.7085 230.457 87.3575 230.361 86.9718 230.361C86.5862 230.361 86.2352 230.457 85.9188 230.647C85.6025 230.834 85.3512 231.085 85.1648 231.401C84.9785 231.718 84.8853 232.069 84.8853 232.454V236.185C84.8853 236.567 84.9785 236.916 85.1648 237.232C85.3512 237.548 85.6025 237.802 85.9188 237.992C86.2352 238.179 86.5862 238.272 86.9718 238.272ZM93.4829 239V230.706L91.7214 231.765V230.693L93.4829 229.64H94.4514V239H93.4829ZM97.4368 237.96V236.848H98.5483V237.96H97.4368ZM97.4433 234.131V233.02H98.5548V234.131H97.4433ZM103.857 239.195C103.28 239.195 102.76 239.061 102.297 238.792C101.837 238.523 101.473 238.159 101.205 237.7C100.936 237.236 100.802 236.716 100.802 236.14V232.5C100.802 231.924 100.936 231.406 101.205 230.946C101.473 230.483 101.837 230.117 102.297 229.848C102.76 229.579 103.28 229.445 103.857 229.445C104.433 229.445 104.951 229.579 105.41 229.848C105.874 230.117 106.24 230.483 106.509 230.946C106.777 231.406 106.912 231.924 106.912 232.5V236.14C106.912 236.716 106.777 237.236 106.509 237.7C106.24 238.159 105.874 238.523 105.41 238.792C104.951 239.061 104.433 239.195 103.857 239.195ZM103.857 238.272C104.242 238.272 104.593 238.179 104.91 237.992C105.226 237.802 105.477 237.548 105.664 237.232C105.85 236.916 105.943 236.567 105.943 236.185V232.454C105.943 232.069 105.85 231.718 105.664 231.401C105.477 231.085 105.226 230.834 104.91 230.647C104.593 230.457 104.242 230.361 103.857 230.361C103.471 230.361 103.12 230.457 102.804 230.647C102.487 230.834 102.236 231.085 102.05 231.401C101.863 231.718 101.77 232.069 101.77 232.454V236.185C101.77 236.567 101.863 236.916 102.05 237.232C102.236 237.548 102.487 237.802 102.804 237.992C103.12 238.179 103.471 238.272 103.857 238.272ZM112.857 239V237.186H108.476V236.276L111.609 229.64H112.682L109.549 236.276H112.857V233.546H113.819V236.276H114.84V237.186H113.819V239H112.857Z" fill="#818181"/>
<path d="M33.98 291V280.92H37.907C38.509 280.92 39.0223 281.044 39.447 281.291C39.8763 281.538 40.203 281.865 40.427 282.271C40.6557 282.672 40.77 283.106 40.77 283.573C40.77 284.119 40.63 284.597 40.35 285.008C40.07 285.419 39.692 285.701 39.216 285.855L39.202 285.512C39.8507 285.685 40.3547 286.002 40.714 286.464C41.0733 286.926 41.253 287.477 41.253 288.116C41.253 288.704 41.1317 289.213 40.889 289.642C40.651 290.071 40.3057 290.405 39.853 290.643C39.405 290.881 38.873 291 38.257 291H33.98ZM35.24 289.81H38.019C38.3923 289.81 38.726 289.742 39.02 289.607C39.314 289.467 39.545 289.271 39.713 289.019C39.8857 288.767 39.972 288.464 39.972 288.109C39.972 287.768 39.895 287.463 39.741 287.192C39.5917 286.921 39.3793 286.707 39.104 286.548C38.8333 286.385 38.5183 286.303 38.159 286.303H35.24V289.81ZM35.24 285.127H37.893C38.1917 285.127 38.46 285.064 38.698 284.938C38.9407 284.807 39.132 284.625 39.272 284.392C39.4167 284.159 39.489 283.886 39.489 283.573C39.489 283.139 39.342 282.784 39.048 282.509C38.754 282.234 38.369 282.096 37.893 282.096H35.24V285.127ZM45.4437 291V283.44H51.6387V291H50.3927V284.623H46.6897V291H45.4437ZM54.6491 294.36L56.1121 290.384L56.1331 291.56L52.8291 283.44H54.1381L56.7281 289.971H56.2801L58.7091 283.44H59.9761L55.8601 294.36H54.6491ZM63.1343 291V284.574H60.5023V283.44H67.0123V284.574H64.3803V291H63.1343ZM74.5254 283.44V291H73.3214V285.428L69.3594 291H68.3304V283.44H69.5344V288.935L73.5034 283.44H74.5254Z" fill="#1D9549"/>
<path d="M35.5415 311V302.706L33.78 303.765V302.693L35.5415 301.64H36.51V311H35.5415ZM41.4909 311.189C41.0273 311.189 40.6004 311.106 40.2104 310.941C39.8204 310.777 39.4846 310.543 39.2029 310.239C38.9213 309.932 38.7154 309.566 38.5854 309.141L39.4954 308.868C39.6514 309.332 39.9071 309.683 40.2624 309.921C40.6221 310.159 41.0273 310.274 41.4779 310.265C41.8939 310.257 42.2514 310.164 42.5504 309.986C42.8538 309.808 43.0856 309.561 43.2459 309.245C43.4063 308.929 43.4864 308.562 43.4864 308.146C43.4864 307.509 43.3001 306.998 42.9274 306.612C42.5591 306.222 42.0716 306.027 41.4649 306.027C41.2959 306.027 41.1183 306.051 40.9319 306.099C40.7456 306.142 40.5723 306.205 40.4119 306.287L39.9309 305.527L43.5709 302.166L43.7269 302.556H38.9559V301.64H44.3639V302.569L41.1919 305.598L41.1789 305.221C41.8289 305.139 42.4009 305.213 42.8949 305.442C43.3889 305.672 43.7746 306.023 44.0519 306.495C44.3336 306.963 44.4744 307.514 44.4744 308.146C44.4744 308.744 44.3444 309.273 44.0844 309.732C43.8288 310.187 43.4756 310.545 43.0249 310.805C42.5743 311.061 42.0629 311.189 41.4909 311.189ZM54.3405 303.98V311H53.411V305.533L49.563 311H48.757V303.98H49.6865V309.401L53.541 303.98H54.3405ZM61.6899 311.195C61.0702 311.195 60.5307 311.063 60.0714 310.798C59.612 310.53 59.2459 310.155 58.9729 309.674C58.7042 309.189 58.5417 308.619 58.4854 307.964H57.1139V311H56.1584V303.98H57.1139V307.015H58.4789C58.5352 306.352 58.6999 305.78 58.9729 305.299C59.2502 304.814 59.6185 304.441 60.0779 304.181C60.5415 303.917 61.081 303.785 61.6964 303.785C62.394 303.785 62.9899 303.943 63.4839 304.259C63.9822 304.576 64.3614 305.011 64.6214 305.566C64.8857 306.121 65.0179 306.758 65.0179 307.477C65.0179 308.214 64.8836 308.861 64.6149 309.42C64.3505 309.979 63.9692 310.415 63.4709 310.727C62.9769 311.039 62.3832 311.195 61.6899 311.195ZM61.6704 310.278C62.459 310.278 63.044 310.023 63.4254 309.511C63.811 308.996 64.0039 308.32 64.0039 307.483C64.0039 306.63 63.8089 305.954 63.4189 305.455C63.0332 304.953 62.4525 304.701 61.6769 304.701C60.9359 304.701 60.3682 304.948 59.9739 305.442C59.5795 305.932 59.3824 306.61 59.3824 307.477C59.3824 308.326 59.5752 309.007 59.9609 309.518C60.3509 310.025 60.9207 310.278 61.6704 310.278ZM66.4416 311V303.98H67.3971V307.028H71.3556V303.98H72.3111V311H71.3556V307.945H67.3971V311H66.4416ZM78.5293 311V308.354H76.8912C76.7006 308.354 76.5034 308.348 76.2998 308.335C76.1004 308.318 75.9141 308.294 75.7408 308.263C75.2468 308.168 74.8264 307.951 74.4798 307.613C74.1374 307.271 73.9663 306.799 73.9663 306.196C73.9663 305.607 74.1266 305.135 74.4473 304.779C74.7679 304.42 75.1558 304.186 75.6108 304.077C75.8188 304.03 76.0289 304.002 76.2413 303.993C76.4579 303.984 76.6443 303.98 76.8002 303.98H79.4848L79.4913 311H78.5293ZM73.7388 311L75.6953 308.055H76.7548L74.7853 311H73.7388ZM76.8393 307.535H78.5293V304.799H76.8393C76.7353 304.799 76.5901 304.803 76.4038 304.812C76.2174 304.821 76.0419 304.849 75.8773 304.896C75.7343 304.94 75.5913 305.016 75.4483 305.124C75.3096 305.228 75.1926 305.369 75.0973 305.546C75.0019 305.72 74.9543 305.932 74.9543 306.183C74.9543 306.534 75.0496 306.816 75.2403 307.028C75.4353 307.236 75.6779 307.379 75.9683 307.457C76.1243 307.492 76.2803 307.514 76.4363 307.522C76.5923 307.531 76.7266 307.535 76.8393 307.535ZM86.9718 311.195C86.3955 311.195 85.8755 311.061 85.4118 310.792C84.9525 310.523 84.5885 310.159 84.3198 309.7C84.0512 309.236 83.9168 308.716 83.9168 308.14V304.5C83.9168 303.924 84.0512 303.406 84.3198 302.946C84.5885 302.483 84.9525 302.117 85.4118 301.848C85.8755 301.579 86.3955 301.445 86.9718 301.445C87.5482 301.445 88.066 301.579 88.5253 301.848C88.989 302.117 89.3552 302.483 89.6238 302.946C89.8925 303.406 90.0268 303.924 90.0268 304.5V308.14C90.0268 308.716 89.8925 309.236 89.6238 309.7C89.3552 310.159 88.989 310.523 88.5253 310.792C88.066 311.061 87.5482 311.195 86.9718 311.195ZM86.9718 310.272C87.3575 310.272 87.7085 310.179 88.0248 309.992C88.3412 309.802 88.5925 309.548 88.7788 309.232C88.9652 308.916 89.0583 308.567 89.0583 308.185V304.454C89.0583 304.069 88.9652 303.718 88.7788 303.401C88.5925 303.085 88.3412 302.834 88.0248 302.647C87.7085 302.457 87.3575 302.361 86.9718 302.361C86.5862 302.361 86.2352 302.457 85.9188 302.647C85.6025 302.834 85.3512 303.085 85.1648 303.401C84.9785 303.718 84.8853 304.069 84.8853 304.454V308.185C84.8853 308.567 84.9785 308.916 85.1648 309.232C85.3512 309.548 85.6025 309.802 85.9188 309.992C86.2352 310.179 86.5862 310.272 86.9718 310.272ZM94.7049 311.195C94.1199 311.195 93.6021 311.078 93.1514 310.844C92.7051 310.61 92.3541 310.283 92.0984 309.862C91.8471 309.438 91.7214 308.942 91.7214 308.374C91.7214 307.793 91.8622 307.278 92.1439 306.827C92.4256 306.372 92.8546 306.027 93.4309 305.793L93.4179 306.17C92.9369 305.993 92.5707 305.702 92.3194 305.299C92.0681 304.896 91.9424 304.45 91.9424 303.96C91.9424 303.44 92.0616 302.994 92.2999 302.621C92.5382 302.244 92.8632 301.954 93.2749 301.75C93.6909 301.547 94.1676 301.445 94.7049 301.445C95.2422 301.445 95.7189 301.547 96.1349 301.75C96.5509 301.954 96.8781 302.244 97.1164 302.621C97.3547 302.994 97.4739 303.44 97.4739 303.96C97.4739 304.45 97.3526 304.894 97.1099 305.293C96.8716 305.692 96.5054 305.984 96.0114 306.17L95.9789 305.793C96.5552 306.023 96.9864 306.365 97.2724 306.82C97.5627 307.275 97.7079 307.793 97.7079 308.374C97.7079 308.942 97.5801 309.438 97.3244 309.862C97.0687 310.283 96.7156 310.61 96.2649 310.844C95.8142 311.078 95.2942 311.195 94.7049 311.195ZM94.7049 310.278C95.2942 310.278 95.7731 310.116 96.1414 309.791C96.5097 309.462 96.6939 308.989 96.6939 308.374C96.6939 307.75 96.5119 307.278 96.1479 306.957C95.7839 306.632 95.3029 306.469 94.7049 306.469C94.1069 306.469 93.6281 306.632 93.2684 306.957C92.9087 307.278 92.7289 307.75 92.7289 308.374C92.7289 308.989 92.9109 309.462 93.2749 309.791C93.6389 310.116 94.1156 310.278 94.7049 310.278ZM94.7049 305.546C95.2249 305.546 95.6474 305.414 95.9724 305.15C96.2974 304.881 96.4599 304.485 96.4599 303.96C96.4599 303.436 96.2974 303.044 95.9724 302.784C95.6474 302.52 95.2249 302.387 94.7049 302.387C94.1849 302.387 93.7624 302.52 93.4374 302.784C93.1167 303.044 92.9564 303.436 92.9564 303.96C92.9564 304.485 93.1167 304.881 93.4374 305.15C93.7624 305.414 94.1849 305.546 94.7049 305.546ZM99.9124 309.96V308.848H101.024V309.96H99.9124ZM99.9189 306.131V305.02H101.03V306.131H99.9189ZM106.04 311.195C105.554 311.195 105.106 311.095 104.694 310.896C104.283 310.697 103.932 310.421 103.641 310.07C103.351 309.719 103.143 309.316 103.017 308.861L103.934 308.614C104.016 308.952 104.166 309.245 104.382 309.492C104.599 309.735 104.852 309.923 105.143 310.057C105.437 310.192 105.745 310.259 106.066 310.259C106.482 310.259 106.854 310.159 107.184 309.96C107.517 309.756 107.782 309.488 107.977 309.154C108.172 308.82 108.269 308.454 108.269 308.055C108.269 307.644 108.167 307.273 107.964 306.944C107.76 306.61 107.491 306.346 107.158 306.151C106.824 305.956 106.46 305.858 106.066 305.858C105.624 305.858 105.242 305.956 104.922 306.151C104.601 306.342 104.345 306.582 104.155 306.872L103.284 306.508L103.57 301.64H108.568V302.556H103.992L104.467 302.108L104.213 306.261L103.973 305.943C104.241 305.635 104.566 305.395 104.948 305.221C105.329 305.048 105.73 304.961 106.15 304.961C106.727 304.961 107.247 305.1 107.71 305.377C108.174 305.65 108.542 306.021 108.815 306.489C109.088 306.957 109.225 307.479 109.225 308.055C109.225 308.627 109.08 309.152 108.789 309.628C108.499 310.101 108.113 310.48 107.632 310.766C107.151 311.052 106.62 311.195 106.04 311.195ZM113.861 301.451C114.45 301.451 114.983 301.594 115.46 301.88C115.941 302.162 116.322 302.548 116.604 303.037C116.886 303.523 117.027 304.069 117.027 304.675V307.925C117.027 308.549 116.886 309.108 116.604 309.602C116.322 310.096 115.937 310.486 115.447 310.772C114.962 311.054 114.409 311.195 113.79 311.195C113.257 311.195 112.763 311.078 112.308 310.844C111.857 310.606 111.484 310.278 111.19 309.862L111.918 309.258C112.117 309.566 112.381 309.813 112.711 309.999C113.044 310.185 113.404 310.278 113.79 310.278C114.232 310.278 114.622 310.174 114.96 309.966C115.302 309.754 115.571 309.477 115.766 309.134C115.965 308.788 116.065 308.413 116.065 308.01V305.969L116.299 306.242C116.03 306.671 115.672 307.018 115.226 307.282C114.784 307.546 114.299 307.678 113.77 307.678C113.194 307.678 112.672 307.54 112.204 307.262C111.74 306.985 111.372 306.612 111.099 306.144C110.83 305.676 110.696 305.154 110.696 304.578C110.696 304.002 110.839 303.477 111.125 303.005C111.411 302.528 111.794 302.151 112.275 301.874C112.756 301.592 113.285 301.451 113.861 301.451ZM113.861 302.374C113.454 302.374 113.083 302.474 112.75 302.673C112.416 302.868 112.149 303.133 111.95 303.466C111.755 303.8 111.658 304.171 111.658 304.578C111.658 304.985 111.755 305.356 111.95 305.689C112.145 306.023 112.409 306.29 112.743 306.489C113.077 306.684 113.447 306.781 113.855 306.781C114.262 306.781 114.632 306.684 114.966 306.489C115.304 306.29 115.571 306.023 115.766 305.689C115.965 305.356 116.065 304.985 116.065 304.578C116.065 304.175 115.965 303.807 115.766 303.473C115.571 303.139 115.306 302.873 114.973 302.673C114.639 302.474 114.268 302.374 113.861 302.374Z" fill="#39C06B"/>
<path d="M33.49 364.68V361.817C33.8587 361.817 34.1573 361.724 34.386 361.537C34.6193 361.35 34.8013 361.098 34.932 360.781C35.0627 360.459 35.1607 360.097 35.226 359.696C35.296 359.295 35.352 358.879 35.394 358.45C35.4547 357.843 35.5037 357.255 35.541 356.686C35.583 356.117 35.6203 355.526 35.653 354.915C35.6857 354.304 35.723 353.636 35.765 352.913L42.1 352.92V361.817H42.835V364.68H41.589V363H34.736V364.68H33.49ZM35.674 361.817H40.854V354.103L36.92 354.096C36.892 354.637 36.864 355.158 36.836 355.657C36.8127 356.152 36.7823 356.651 36.745 357.155C36.7077 357.659 36.661 358.193 36.605 358.758C36.5537 359.281 36.4953 359.733 36.43 360.116C36.3693 360.494 36.2807 360.821 36.164 361.096C36.0473 361.367 35.884 361.607 35.674 361.817ZM47.5906 363.21C46.8393 363.21 46.1906 363.04 45.6446 362.699C45.1033 362.358 44.6856 361.887 44.3916 361.285C44.0976 360.683 43.9506 359.992 43.9506 359.213C43.9506 358.42 44.1 357.724 44.3986 357.127C44.6973 356.53 45.1196 356.065 45.6656 355.734C46.2116 355.398 46.8533 355.23 47.5906 355.23C48.3466 355.23 48.9976 355.4 49.5436 355.741C50.0896 356.077 50.5073 356.546 50.7966 357.148C51.0906 357.745 51.2376 358.434 51.2376 359.213C51.2376 360.002 51.0906 360.697 50.7966 361.299C50.5026 361.896 50.0826 362.365 49.5366 362.706C48.9906 363.042 48.342 363.21 47.5906 363.21ZM47.5906 362.027C48.3746 362.027 48.958 361.766 49.3406 361.243C49.7233 360.72 49.9146 360.044 49.9146 359.213C49.9146 358.359 49.721 357.68 49.3336 357.176C48.9463 356.667 48.3653 356.413 47.5906 356.413C47.0633 356.413 46.6293 356.532 46.2886 356.77C45.948 357.008 45.6936 357.337 45.5256 357.757C45.3576 358.177 45.2736 358.662 45.2736 359.213C45.2736 360.062 45.4696 360.744 45.8616 361.257C46.2536 361.77 46.83 362.027 47.5906 362.027ZM55.9638 363.21C55.1985 363.21 54.5475 363.04 54.0108 362.699C53.4788 362.354 53.0728 361.88 52.7928 361.278C52.5128 360.676 52.3682 359.99 52.3588 359.22C52.3682 358.431 52.5152 357.738 52.7998 357.141C53.0892 356.539 53.5022 356.07 54.0388 355.734C54.5755 355.398 55.2218 355.23 55.9778 355.23C56.7758 355.23 57.4618 355.426 58.0358 355.818C58.6145 356.21 59.0018 356.747 59.1978 357.428L57.9658 357.799C57.8072 357.36 57.5482 357.02 57.1888 356.777C56.8342 356.534 56.4258 356.413 55.9638 356.413C55.4458 356.413 55.0188 356.534 54.6828 356.777C54.3468 357.015 54.0972 357.346 53.9338 357.771C53.7705 358.191 53.6865 358.674 53.6818 359.22C53.6912 360.06 53.8848 360.739 54.2628 361.257C54.6455 361.77 55.2125 362.027 55.9638 362.027C56.4585 362.027 56.8692 361.915 57.1958 361.691C57.5225 361.462 57.7698 361.133 57.9378 360.704L59.1978 361.033C58.9365 361.738 58.5282 362.277 57.9728 362.65C57.4175 363.023 56.7478 363.21 55.9638 363.21ZM62.4918 363V356.574H59.8598V355.44H66.3698V356.574H63.7378V363H62.4918ZM69.5978 363.21C69.0331 363.21 68.5594 363.107 68.1768 362.902C67.7988 362.692 67.5118 362.417 67.3158 362.076C67.1244 361.735 67.0288 361.362 67.0288 360.956C67.0288 360.559 67.1034 360.216 67.2528 359.927C67.4068 359.633 67.6214 359.39 67.8968 359.199C68.1721 359.003 68.5011 358.849 68.8838 358.737C69.2431 358.639 69.6444 358.555 70.0878 358.485C70.5358 358.41 70.9884 358.343 71.4458 358.282C71.9031 358.221 72.3301 358.163 72.7268 358.107L72.2788 358.366C72.2928 357.694 72.1574 357.197 71.8728 356.875C71.5928 356.553 71.1074 356.392 70.4168 356.392C69.9594 356.392 69.5581 356.497 69.2128 356.707C68.8721 356.912 68.6318 357.248 68.4918 357.715L67.3088 357.358C67.4908 356.695 67.8431 356.175 68.3658 355.797C68.8884 355.419 69.5768 355.23 70.4308 355.23C71.1168 355.23 71.7048 355.354 72.1948 355.601C72.6894 355.844 73.0441 356.212 73.2588 356.707C73.3661 356.94 73.4338 357.195 73.4618 357.47C73.4898 357.741 73.5037 358.025 73.5037 358.324V363H72.3978V361.187L72.6568 361.355C72.3721 361.966 71.9731 362.428 71.4598 362.741C70.9511 363.054 70.3304 363.21 69.5978 363.21ZM69.7868 362.167C70.2348 362.167 70.6221 362.088 70.9488 361.929C71.2801 361.766 71.5461 361.553 71.7468 361.292C71.9474 361.026 72.0781 360.737 72.1388 360.424C72.2088 360.191 72.2461 359.932 72.2508 359.647C72.2601 359.358 72.2648 359.136 72.2648 358.982L72.6988 359.171C72.2928 359.227 71.8938 359.281 71.5018 359.332C71.1098 359.383 70.7388 359.439 70.3888 359.5C70.0388 359.556 69.7238 359.624 69.4438 359.703C69.2384 359.768 69.0448 359.852 68.8628 359.955C68.6854 360.058 68.5408 360.191 68.4288 360.354C68.3214 360.513 68.2677 360.711 68.2677 360.949C68.2677 361.154 68.3191 361.35 68.4218 361.537C68.5291 361.724 68.6924 361.875 68.9118 361.992C69.1358 362.109 69.4274 362.167 69.7868 362.167ZM75.3168 363V355.44H78.5368C78.7281 355.44 78.9334 355.452 79.1528 355.475C79.3768 355.494 79.5798 355.529 79.7618 355.58C80.1678 355.687 80.5014 355.909 80.7628 356.245C81.0288 356.576 81.1618 356.996 81.1618 357.505C81.1618 357.79 81.1174 358.037 81.0288 358.247C80.9448 358.457 80.8234 358.639 80.6648 358.793C80.5948 358.863 80.5178 358.926 80.4338 358.982C80.3498 359.038 80.2658 359.082 80.1818 359.115C80.3451 359.143 80.5108 359.206 80.6788 359.304C80.9448 359.449 81.1524 359.652 81.3018 359.913C81.4558 360.174 81.5328 360.508 81.5328 360.914C81.5328 361.427 81.4091 361.852 81.1618 362.188C80.9144 362.519 80.5738 362.748 80.1398 362.874C79.9578 362.925 79.7571 362.96 79.5378 362.979C79.3184 362.993 79.1061 363 78.9008 363H75.3168ZM76.5768 361.985H78.8308C78.9288 361.985 79.0454 361.976 79.1808 361.957C79.3208 361.938 79.4444 361.915 79.5518 361.887C79.7944 361.817 79.9694 361.686 80.0768 361.495C80.1888 361.304 80.2448 361.096 80.2448 360.872C80.2448 360.573 80.1608 360.331 79.9928 360.144C79.8294 359.957 79.6124 359.841 79.3418 359.794C79.2438 359.766 79.1364 359.75 79.0198 359.745C78.9078 359.74 78.8074 359.738 78.7188 359.738H76.5768V361.985ZM76.5768 358.709H78.4528C78.5834 358.709 78.7211 358.702 78.8658 358.688C79.0104 358.669 79.1364 358.639 79.2438 358.597C79.4584 358.518 79.6148 358.387 79.7128 358.205C79.8154 358.018 79.8668 357.815 79.8668 357.596C79.8668 357.353 79.8108 357.141 79.6988 356.959C79.5914 356.772 79.4258 356.644 79.2018 356.574C79.0524 356.518 78.8844 356.488 78.6978 356.483C78.5158 356.474 78.3991 356.469 78.3478 356.469H76.5768V358.709ZM82.932 363L82.939 355.44H84.199V359.08L87.37 355.44H88.987L85.648 359.22L89.379 363H87.636L84.199 359.36V363H82.932ZM92.2247 363.21C91.66 363.21 91.1864 363.107 90.8037 362.902C90.4257 362.692 90.1387 362.417 89.9427 362.076C89.7514 361.735 89.6557 361.362 89.6557 360.956C89.6557 360.559 89.7304 360.216 89.8797 359.927C90.0337 359.633 90.2484 359.39 90.5237 359.199C90.799 359.003 91.128 358.849 91.5107 358.737C91.87 358.639 92.2714 358.555 92.7147 358.485C93.1627 358.41 93.6154 358.343 94.0727 358.282C94.53 358.221 94.957 358.163 95.3537 358.107L94.9057 358.366C94.9197 357.694 94.7844 357.197 94.4997 356.875C94.2197 356.553 93.7344 356.392 93.0437 356.392C92.5864 356.392 92.185 356.497 91.8397 356.707C91.499 356.912 91.2587 357.248 91.1187 357.715L89.9357 357.358C90.1177 356.695 90.47 356.175 90.9927 355.797C91.5154 355.419 92.2037 355.23 93.0577 355.23C93.7437 355.23 94.3317 355.354 94.8217 355.601C95.3164 355.844 95.671 356.212 95.8857 356.707C95.993 356.94 96.0607 357.195 96.0887 357.47C96.1167 357.741 96.1307 358.025 96.1307 358.324V363H95.0247V361.187L95.2837 361.355C94.999 361.966 94.6 362.428 94.0867 362.741C93.578 363.054 92.9574 363.21 92.2247 363.21ZM92.4137 362.167C92.8617 362.167 93.249 362.088 93.5757 361.929C93.907 361.766 94.173 361.553 94.3737 361.292C94.5744 361.026 94.705 360.737 94.7657 360.424C94.8357 360.191 94.873 359.932 94.8777 359.647C94.887 359.358 94.8917 359.136 94.8917 358.982L95.3257 359.171C94.9197 359.227 94.5207 359.281 94.1287 359.332C93.7367 359.383 93.3657 359.439 93.0157 359.5C92.6657 359.556 92.3507 359.624 92.0707 359.703C91.8654 359.768 91.6717 359.852 91.4897 359.955C91.3124 360.058 91.1677 360.191 91.0557 360.354C90.9484 360.513 90.8947 360.711 90.8947 360.949C90.8947 361.154 90.946 361.35 91.0487 361.537C91.156 361.724 91.3194 361.875 91.5387 361.992C91.7627 362.109 92.0544 362.167 92.4137 362.167ZM103.973 363.21C103.222 363.21 102.573 363.04 102.027 362.699C101.486 362.358 101.068 361.887 100.774 361.285C100.48 360.683 100.333 359.992 100.333 359.213C100.333 358.42 100.483 357.724 100.781 357.127C101.08 356.53 101.502 356.065 102.048 355.734C102.594 355.398 103.236 355.23 103.973 355.23C104.729 355.23 105.38 355.4 105.926 355.741C106.472 356.077 106.89 356.546 107.179 357.148C107.473 357.745 107.62 358.434 107.62 359.213C107.62 360.002 107.473 360.697 107.179 361.299C106.885 361.896 106.465 362.365 105.919 362.706C105.373 363.042 104.725 363.21 103.973 363.21ZM103.973 362.027C104.757 362.027 105.341 361.766 105.723 361.243C106.106 360.72 106.297 360.044 106.297 359.213C106.297 358.359 106.104 357.68 105.716 357.176C105.329 356.667 104.748 356.413 103.973 356.413C103.446 356.413 103.012 356.532 102.671 356.77C102.331 357.008 102.076 357.337 101.908 357.757C101.74 358.177 101.656 358.662 101.656 359.213C101.656 360.062 101.852 360.744 102.244 361.257C102.636 361.77 103.213 362.027 103.973 362.027ZM108.144 363L111.196 359.22L108.291 355.44H109.677L112.484 359.15V355.44H113.618V359.15L116.425 355.44H117.811L114.906 359.22L117.958 363H116.509L113.618 359.29V363H112.484V359.29L109.593 363H108.144ZM125.262 355.44V363H124.058V357.428L120.096 363H119.067V355.44H120.271V360.935L124.24 355.44H125.262ZM126.662 364.68V361.971C127.087 361.971 127.39 361.833 127.572 361.558C127.754 361.278 127.901 360.818 128.013 360.179C128.088 359.778 128.149 359.348 128.195 358.891C128.242 358.434 128.282 357.925 128.314 357.365C128.352 356.8 128.387 356.159 128.419 355.44H133.627V361.971H134.362V364.68H133.172V363H127.852V364.68H126.662ZM128.58 361.971H132.381V356.469H129.546C129.532 356.8 129.514 357.148 129.49 357.512C129.467 357.871 129.439 358.231 129.406 358.59C129.378 358.949 129.343 359.29 129.301 359.612C129.264 359.929 129.22 360.214 129.168 360.466C129.108 360.816 129.038 361.112 128.958 361.355C128.879 361.598 128.753 361.803 128.58 361.971ZM137.916 363.21C137.351 363.21 136.878 363.107 136.495 362.902C136.117 362.692 135.83 362.417 135.634 362.076C135.443 361.735 135.347 361.362 135.347 360.956C135.347 360.559 135.422 360.216 135.571 359.927C135.725 359.633 135.94 359.39 136.215 359.199C136.49 359.003 136.819 358.849 137.202 358.737C137.561 358.639 137.963 358.555 138.406 358.485C138.854 358.41 139.307 358.343 139.764 358.282C140.221 358.221 140.648 358.163 141.045 358.107L140.597 358.366C140.611 357.694 140.476 357.197 140.191 356.875C139.911 356.553 139.426 356.392 138.735 356.392C138.278 356.392 137.876 356.497 137.531 356.707C137.19 356.912 136.95 357.248 136.81 357.715L135.627 357.358C135.809 356.695 136.161 356.175 136.684 355.797C137.207 355.419 137.895 355.23 138.749 355.23C139.435 355.23 140.023 355.354 140.513 355.601C141.008 355.844 141.362 356.212 141.577 356.707C141.684 356.94 141.752 357.195 141.78 357.47C141.808 357.741 141.822 358.025 141.822 358.324V363H140.716V361.187L140.975 361.355C140.69 361.966 140.291 362.428 139.778 362.741C139.269 363.054 138.649 363.21 137.916 363.21ZM138.105 362.167C138.553 362.167 138.94 362.088 139.267 361.929C139.598 361.766 139.864 361.553 140.065 361.292C140.266 361.026 140.396 360.737 140.457 360.424C140.527 360.191 140.564 359.932 140.569 359.647C140.578 359.358 140.583 359.136 140.583 358.982L141.017 359.171C140.611 359.227 140.212 359.281 139.82 359.332C139.428 359.383 139.057 359.439 138.707 359.5C138.357 359.556 138.042 359.624 137.762 359.703C137.557 359.768 137.363 359.852 137.181 359.955C137.004 360.058 136.859 360.191 136.747 360.354C136.64 360.513 136.586 360.711 136.586 360.949C136.586 361.154 136.637 361.35 136.74 361.537C136.847 361.724 137.011 361.875 137.23 361.992C137.454 362.109 137.746 362.167 138.105 362.167ZM146.918 363.21C146.176 363.21 145.527 363.047 144.972 362.72C144.421 362.389 143.992 361.929 143.684 361.341C143.376 360.748 143.222 360.058 143.222 359.269C143.222 358.443 143.374 357.729 143.677 357.127C143.98 356.52 144.403 356.054 144.944 355.727C145.49 355.396 146.129 355.23 146.862 355.23C147.623 355.23 148.269 355.405 148.801 355.755C149.338 356.105 149.739 356.604 150.005 357.253C150.276 357.902 150.392 358.674 150.355 359.57H149.095V359.122C149.081 358.193 148.892 357.5 148.528 357.043C148.164 356.581 147.623 356.35 146.904 356.35C146.134 356.35 145.548 356.597 145.147 357.092C144.746 357.587 144.545 358.296 144.545 359.22C144.545 360.111 144.746 360.802 145.147 361.292C145.548 361.782 146.12 362.027 146.862 362.027C147.361 362.027 147.795 361.913 148.164 361.684C148.533 361.455 148.822 361.126 149.032 360.697L150.229 361.11C149.935 361.777 149.492 362.295 148.899 362.664C148.311 363.028 147.651 363.21 146.918 363.21ZM144.125 359.57V358.569H149.711V359.57H144.125ZM153.779 363V356.574H151.147V355.44H157.657V356.574H155.025V363H153.779ZM162.03 363.21C161.265 363.21 160.614 363.04 160.077 362.699C159.545 362.354 159.139 361.88 158.859 361.278C158.579 360.676 158.435 359.99 158.425 359.22C158.435 358.431 158.582 357.738 158.866 357.141C159.156 356.539 159.569 356.07 160.105 355.734C160.642 355.398 161.288 355.23 162.044 355.23C162.842 355.23 163.528 355.426 164.102 355.818C164.681 356.21 165.068 356.747 165.264 357.428L164.032 357.799C163.874 357.36 163.615 357.02 163.255 356.777C162.901 356.534 162.492 356.413 162.03 356.413C161.512 356.413 161.085 356.534 160.749 356.777C160.413 357.015 160.164 357.346 160 357.771C159.837 358.191 159.753 358.674 159.748 359.22C159.758 360.06 159.951 360.739 160.329 361.257C160.712 361.77 161.279 362.027 162.03 362.027C162.525 362.027 162.936 361.915 163.262 361.691C163.589 361.462 163.836 361.133 164.004 360.704L165.264 361.033C165.003 361.738 164.595 362.277 164.039 362.65C163.484 363.023 162.814 363.21 162.03 363.21ZM171.294 363V360.263H169.663C169.471 360.263 169.259 360.256 169.026 360.242C168.797 360.223 168.582 360.198 168.382 360.165C167.836 360.062 167.374 359.822 166.996 359.444C166.622 359.066 166.436 358.543 166.436 357.876C166.436 357.227 166.611 356.707 166.961 356.315C167.315 355.918 167.752 355.662 168.27 355.545C168.503 355.489 168.739 355.459 168.977 355.454C169.219 355.445 169.425 355.44 169.593 355.44H172.54L172.547 363H171.294ZM166.205 363L168.214 359.92H169.558L167.549 363H166.205ZM169.572 359.234H171.294V356.469H169.572C169.464 356.469 169.322 356.474 169.145 356.483C168.972 356.492 168.806 356.52 168.648 356.567C168.498 356.609 168.351 356.686 168.207 356.798C168.067 356.91 167.95 357.055 167.857 357.232C167.763 357.409 167.717 357.619 167.717 357.862C167.717 358.212 167.815 358.497 168.011 358.716C168.207 358.931 168.445 359.075 168.725 359.15C168.879 359.187 169.03 359.211 169.18 359.22C169.334 359.229 169.464 359.234 169.572 359.234Z" fill="#4D4D4D"/>
<path d="M35.5415 383V374.706L33.78 375.765V374.693L35.5415 373.64H36.51V383H35.5415ZM41.4909 383.189C41.0273 383.189 40.6004 383.106 40.2104 382.941C39.8204 382.777 39.4846 382.543 39.2029 382.239C38.9213 381.932 38.7154 381.566 38.5854 381.141L39.4954 380.868C39.6514 381.332 39.9071 381.683 40.2624 381.921C40.6221 382.159 41.0273 382.274 41.4779 382.265C41.8939 382.257 42.2514 382.164 42.5504 381.986C42.8538 381.808 43.0856 381.561 43.2459 381.245C43.4063 380.929 43.4864 380.562 43.4864 380.146C43.4864 379.509 43.3001 378.998 42.9274 378.612C42.5591 378.222 42.0716 378.027 41.4649 378.027C41.2959 378.027 41.1183 378.051 40.9319 378.099C40.7456 378.142 40.5723 378.205 40.4119 378.287L39.9309 377.527L43.5709 374.166L43.7269 374.556H38.9559V373.64H44.3639V374.569L41.1919 377.598L41.1789 377.221C41.8289 377.139 42.4009 377.213 42.8949 377.442C43.3889 377.672 43.7746 378.023 44.0519 378.495C44.3336 378.963 44.4744 379.514 44.4744 380.146C44.4744 380.744 44.3444 381.273 44.0844 381.732C43.8288 382.187 43.4756 382.545 43.0249 382.805C42.5743 383.061 42.0629 383.189 41.4909 383.189ZM54.3405 375.98V383H53.411V377.533L49.563 383H48.757V375.98H49.6865V381.401L53.541 375.98H54.3405ZM61.6899 383.195C61.0702 383.195 60.5307 383.063 60.0714 382.798C59.612 382.53 59.2459 382.155 58.9729 381.674C58.7042 381.189 58.5417 380.619 58.4854 379.964H57.1139V383H56.1584V375.98H57.1139V379.015H58.4789C58.5352 378.352 58.6999 377.78 58.9729 377.299C59.2502 376.814 59.6185 376.441 60.0779 376.181C60.5415 375.917 61.081 375.785 61.6964 375.785C62.394 375.785 62.9899 375.943 63.4839 376.259C63.9822 376.576 64.3614 377.011 64.6214 377.566C64.8857 378.121 65.0179 378.758 65.0179 379.477C65.0179 380.214 64.8836 380.861 64.6149 381.42C64.3505 381.979 63.9692 382.415 63.4709 382.727C62.9769 383.039 62.3832 383.195 61.6899 383.195ZM61.6704 382.278C62.459 382.278 63.044 382.023 63.4254 381.511C63.811 380.996 64.0039 380.32 64.0039 379.483C64.0039 378.63 63.8089 377.954 63.4189 377.455C63.0332 376.953 62.4525 376.701 61.6769 376.701C60.9359 376.701 60.3682 376.948 59.9739 377.442C59.5795 377.932 59.3824 378.61 59.3824 379.477C59.3824 380.326 59.5752 381.007 59.9609 381.518C60.3509 382.025 60.9207 382.278 61.6704 382.278ZM66.4416 383V375.98H67.3971V379.028H71.3556V375.98H72.3111V383H71.3556V379.945H67.3971V383H66.4416ZM78.5293 383V380.354H76.8912C76.7006 380.354 76.5034 380.348 76.2998 380.335C76.1004 380.318 75.9141 380.294 75.7408 380.263C75.2468 380.168 74.8264 379.951 74.4798 379.613C74.1374 379.271 73.9663 378.799 73.9663 378.196C73.9663 377.607 74.1266 377.135 74.4473 376.779C74.7679 376.42 75.1558 376.186 75.6108 376.077C75.8188 376.03 76.0289 376.002 76.2413 375.993C76.4579 375.984 76.6443 375.98 76.8002 375.98H79.4848L79.4913 383H78.5293ZM73.7388 383L75.6953 380.055H76.7548L74.7853 383H73.7388ZM76.8393 379.535H78.5293V376.799H76.8393C76.7353 376.799 76.5901 376.803 76.4038 376.812C76.2174 376.821 76.0419 376.849 75.8773 376.896C75.7343 376.94 75.5913 377.016 75.4483 377.124C75.3096 377.228 75.1926 377.369 75.0973 377.546C75.0019 377.72 74.9543 377.932 74.9543 378.183C74.9543 378.534 75.0496 378.816 75.2403 379.028C75.4353 379.236 75.6779 379.379 75.9683 379.457C76.1243 379.492 76.2803 379.514 76.4363 379.522C76.5923 379.531 76.7266 379.535 76.8393 379.535ZM85.5483 383V374.706L83.7868 375.765V374.693L85.5483 373.64H86.5168V383H85.5483ZM93.1033 383V381.186H88.7223V380.276L91.8553 373.64H92.9278L89.7948 380.276H93.1033V377.546H94.0653V380.276H95.0858V381.186H94.0653V383H93.1033ZM97.1702 381.96V380.848H98.2817V381.96H97.1702ZM97.1767 378.131V377.02H98.2882V378.131H97.1767ZM100.275 382.993L100.282 382.122L104.513 378.3C104.877 377.971 105.118 377.659 105.235 377.364C105.356 377.065 105.417 376.753 105.417 376.428C105.417 376.043 105.326 375.694 105.144 375.382C104.962 375.07 104.717 374.823 104.409 374.641C104.101 374.455 103.757 374.361 103.376 374.361C102.977 374.361 102.622 374.457 102.31 374.647C101.998 374.838 101.751 375.089 101.569 375.401C101.391 375.713 101.304 376.054 101.309 376.422H100.334C100.334 375.854 100.468 375.345 100.737 374.894C101.005 374.444 101.369 374.091 101.829 373.835C102.288 373.575 102.808 373.445 103.389 373.445C103.956 373.445 104.465 373.579 104.916 373.848C105.371 374.112 105.729 374.472 105.989 374.927C106.253 375.378 106.385 375.88 106.385 376.435C106.385 376.825 106.337 377.169 106.242 377.468C106.151 377.763 106.006 378.038 105.807 378.294C105.612 378.545 105.362 378.805 105.059 379.074L101.302 382.467L101.153 382.077H106.385V382.993H100.275ZM108.45 383L111.895 374.569H107.559V373.64H112.915V374.569L109.477 383H108.45Z" fill="#818181"/>
<line x1="21.5" y1="56" x2="21.5" y2="391" stroke="url(#paint0_linear_656_26962)"/>
<circle cx="21.5" cy="79.5" r="2.5" fill="#1EC55B"/>
<circle cx="21.5" cy="151.5" r="2.5" fill="#1EC55B"/>
<circle cx="21.5" cy="223.5" r="2.5" fill="#1EC55B"/>
<circle cx="21.5" cy="296.5" r="5.5" fill="#1EC55B" fill-opacity="0.4"/>
<circle cx="21.5" cy="296.5" r="3.5" fill="#1EC55B"/>
<circle cx="21.5" cy="369.5" r="2.5" fill="#D9D9D9"/>
<defs>
<linearGradient id="paint0_linear_656_26962" x1="21" y1="56" x2="21" y2="391" gradientUnits="userSpaceOnUse">
<stop offset="0.695833" stop-color="#D9D9DD"/>
<stop offset="1" stop-color="#D9D9DD" stop-opacity="0.2"/>
</linearGradient>
</defs>
</svg>
