<svg width="324" height="444" viewBox="0 0 324 444" fill="none" xmlns="http://www.w3.org/2000/svg">
<g clip-path="url(#clip0_656_27042)">
<rect width="324" height="444" rx="24" fill="white"/>
<line x1="15.5" y1="438" x2="15.5" y2="186" stroke="#EFEFEF" stroke-opacity="0.5" stroke-dasharray="2 2"/>
<line x1="46.5" y1="438" x2="46.5" y2="186" stroke="#EFEFEF" stroke-opacity="0.5" stroke-dasharray="2 2"/>
<line x1="77.5" y1="438" x2="77.5" y2="186" stroke="#EFEFEF" stroke-opacity="0.5" stroke-dasharray="2 2"/>
<line x1="108.5" y1="438" x2="108.5" y2="186" stroke="#EFEFEF" stroke-opacity="0.5" stroke-dasharray="2 2"/>
<line x1="139.5" y1="438" x2="139.5" y2="186" stroke="#EFEFEF" stroke-opacity="0.5" stroke-dasharray="2 2"/>
<line x1="170.5" y1="438" x2="170.5" y2="186" stroke="#EFEFEF" stroke-opacity="0.5" stroke-dasharray="2 2"/>
<line x1="201.5" y1="438" x2="201.5" y2="186" stroke="#EFEFEF" stroke-opacity="0.5" stroke-dasharray="2 2"/>
<line x1="232.5" y1="438" x2="232.5" y2="186" stroke="#EFEFEF" stroke-opacity="0.5" stroke-dasharray="2 2"/>
<line x1="263.5" y1="438" x2="263.5" y2="186" stroke="#EFEFEF" stroke-opacity="0.5" stroke-dasharray="2 2"/>
<line x1="294.5" y1="438" x2="294.5" y2="186" stroke="#EFEFEF" stroke-opacity="0.5" stroke-dasharray="2 2"/>
<line x1="7" y1="195.5" x2="319" y2="195.5" stroke="#EFEFEF" stroke-opacity="0.5" stroke-dasharray="2 2"/>
<line x1="7" y1="226.5" x2="319" y2="226.5" stroke="#EFEFEF" stroke-opacity="0.5" stroke-dasharray="2 2"/>
<line x1="7" y1="257.5" x2="319" y2="257.5" stroke="#EFEFEF" stroke-opacity="0.5" stroke-dasharray="2 2"/>
<line x1="7" y1="288.5" x2="319" y2="288.5" stroke="#EFEFEF" stroke-opacity="0.5" stroke-dasharray="2 2"/>
<line x1="7" y1="319.5" x2="319" y2="319.5" stroke="#EFEFEF" stroke-opacity="0.5" stroke-dasharray="2 2"/>
<line x1="7" y1="350.5" x2="319" y2="350.5" stroke="#EFEFEF" stroke-opacity="0.5" stroke-dasharray="2 2"/>
<line x1="7" y1="381.5" x2="319" y2="381.5" stroke="#EFEFEF" stroke-opacity="0.5" stroke-dasharray="2 2"/>
<line x1="7" y1="412.5" x2="319" y2="412.5" stroke="#EFEFEF" stroke-opacity="0.5" stroke-dasharray="2 2"/>
<path d="M22.9836 463.255L26.6711 463.216C30.3586 463.177 37.7336 463.098 43.9814 459.551C50.2293 456.003 55.3499 448.986 56.8697 430.887C58.3896 412.788 56.3087 383.607 63.1546 381.9C70.0004 380.193 85.7731 405.96 96.4137 415.931C107.054 425.903 112.563 420.08 114.639 403.694C116.715 387.308 115.36 360.358 120.563 353.595C125.766 346.831 137.527 360.254 142.796 353.693C148.065 347.132 146.841 320.587 153.046 316.909C159.251 313.23 172.886 332.417 182.334 338.72C191.783 345.024 197.046 338.444 201.733 330.093C206.42 321.741 210.531 311.618 214.555 301.226C218.579 290.834 222.516 280.172 230.121 280.802C237.725 281.431 248.999 293.35 256.219 292.794C263.438 292.237 266.604 279.203 272.94 275.927C279.276 272.651 288.782 279.132 296.159 279.057C303.535 278.982 308.781 272.35 312.967 262.46C317.154 252.569 320.282 239.419 326.585 236.042C332.889 232.665 342.367 239.061 348.359 234.723C354.35 230.386 356.854 215.316 360.453 203.617C364.053 191.918 368.747 183.59 371.64 169.716C374.532 155.842 375.623 136.421 376.168 126.711L376.713 117.001" stroke="#D9D9DD" stroke-width="3"/>
<path d="M-30.8649 443.357L-25.8957 447.692C-20.9264 452.026 -10.9879 460.696 -5.64307 454.34C-0.298232 447.984 0.452933 426.603 3.75509 413.566C7.05724 400.529 12.9104 395.836 19.5974 393.87C26.2845 391.905 33.8054 392.667 41.84 395.109C49.8746 397.55 58.4228 401.672 63.5062 394.462C68.5897 387.251 70.2085 368.708 77.8691 369.926C85.5296 371.145 99.232 392.126 107.987 396.925C116.743 401.724 120.551 390.342 123.858 377.32C127.165 364.299 129.971 349.639 132.944 335.528C135.918 321.417 139.06 307.856 146.317 307.755C153.574 307.654 164.947 321.014 172.812 322.901C180.677 324.788 185.034 315.203 191.085 311.156C197.136 307.108 204.879 308.599 211.355 305.943C217.831 303.287 223.04 296.485 228.956 291.999C234.873 287.514 241.497 285.344 246.697 278.513C251.897 271.683 255.672 260.193 263.267 261.195C270.861 262.198 282.275 275.693 292.44 285.102C302.604 294.512 309.979 289.846 313.079 276.148C316.179 262.45 314.571 244.066 317.471 226.239L326.178 169.192" stroke="#1EC55B" stroke-width="3"/>
<rect x="216" y="17" width="91" height="34" rx="17" fill="white"/>
<rect x="216" y="17" width="91" height="34" rx="17" fill="#1EC55B" fill-opacity="0.06"/>
<path d="M232.964 39V29.64H233.842L237.521 37.5115L241.18 29.64H242.071V38.9935H241.161V31.772L237.826 39H237.209L233.881 31.772V39H232.964ZM246.865 39.195C246.181 39.195 245.587 39.0433 245.084 38.74C244.586 38.4367 244.198 38.0098 243.921 37.4595C243.644 36.9092 243.505 36.2635 243.505 35.5225C243.505 34.7555 243.641 34.0925 243.914 33.5335C244.187 32.9745 244.571 32.5433 245.065 32.24C245.563 31.9367 246.15 31.785 246.826 31.785C247.52 31.785 248.111 31.9453 248.601 32.266C249.091 32.5823 249.461 33.0373 249.712 33.631C249.964 34.2247 250.079 34.9332 250.057 35.7565H249.082V35.4185C249.065 34.5085 248.867 33.8217 248.49 33.358C248.118 32.8943 247.572 32.6625 246.852 32.6625C246.098 32.6625 245.52 32.9073 245.117 33.397C244.718 33.8867 244.519 34.5843 244.519 35.49C244.519 36.374 244.718 37.0608 245.117 37.5505C245.52 38.0358 246.09 38.2785 246.826 38.2785C247.329 38.2785 247.767 38.1637 248.139 37.934C248.516 37.7 248.813 37.3642 249.03 36.9265L249.92 37.271C249.643 37.882 249.234 38.3565 248.692 38.6945C248.155 39.0282 247.546 39.195 246.865 39.195ZM244.181 35.7565V34.957H249.543V35.7565H244.181ZM254.411 39.195C253.705 39.195 253.107 39.0368 252.617 38.7205C252.128 38.4042 251.755 37.9687 251.499 37.414C251.248 36.855 251.118 36.2137 251.109 35.49C251.118 34.7533 251.252 34.1077 251.512 33.553C251.772 32.994 252.147 32.5607 252.637 32.253C253.127 31.941 253.72 31.785 254.418 31.785C255.129 31.785 255.746 31.9583 256.27 32.305C256.799 32.6517 257.161 33.1262 257.356 33.7285L256.42 34.0275C256.255 33.6072 255.993 33.2822 255.633 33.0525C255.278 32.8185 254.871 32.7015 254.411 32.7015C253.896 32.7015 253.469 32.8207 253.131 33.059C252.793 33.293 252.542 33.6202 252.377 34.0405C252.212 34.4608 252.128 34.944 252.123 35.49C252.132 36.3307 252.327 37.0067 252.708 37.518C253.09 38.025 253.657 38.2785 254.411 38.2785C254.888 38.2785 255.293 38.1702 255.627 37.9535C255.965 37.7325 256.221 37.4118 256.394 36.9915L257.356 37.2775C257.096 37.9015 256.715 38.3782 256.212 38.7075C255.709 39.0325 255.109 39.195 254.411 39.195ZM263.047 39V36.3545H261.409C261.219 36.3545 261.021 36.348 260.818 36.335C260.618 36.3177 260.432 36.2938 260.259 36.2635C259.765 36.1682 259.344 35.9515 258.998 35.6135C258.655 35.2712 258.484 34.7988 258.484 34.1965C258.484 33.6072 258.645 33.1348 258.965 32.7795C259.286 32.4198 259.674 32.1858 260.129 32.0775C260.337 32.0298 260.547 32.0017 260.759 31.993C260.976 31.9843 261.162 31.98 261.318 31.98H264.003L264.009 39H263.047ZM258.257 39L260.213 36.0555H261.273L259.303 39H258.257ZM261.357 35.5355H263.047V32.799H261.357C261.253 32.799 261.108 32.8033 260.922 32.812C260.735 32.8207 260.56 32.8488 260.395 32.8965C260.252 32.9398 260.109 33.0157 259.966 33.124C259.828 33.228 259.711 33.3688 259.615 33.5465C259.52 33.7198 259.472 33.9322 259.472 34.1835C259.472 34.5345 259.568 34.8162 259.758 35.0285C259.953 35.2365 260.196 35.3795 260.486 35.4575C260.642 35.4922 260.798 35.5138 260.954 35.5225C261.11 35.5312 261.245 35.5355 261.357 35.5355ZM271.864 40.2155V39H265.826V31.98H266.781V38.0835H270.454V31.98H271.409V38.116H272.82V40.2155H271.864Z" fill="#1EC55B"/>
<path d="M286.5 31.75L282 36.25L277.5 31.75" stroke="#1EC55B"/>
<rect x="216" y="17" width="91" height="34" rx="17" stroke="#1EC55B" stroke-width="2"/>
<rect x="16" y="65.5" width="37" height="17" rx="8.5" fill="#1EC55B"/>
<path d="M24.51 76.175V74.265H22.6V73.53H24.51V71.625H25.245V73.53H27.15V74.265H25.245V76.175H24.51ZM29.707 77.5V71.285L28.352 72.105V71.11L29.707 70.3H30.612V77.5H29.707ZM34.4895 77.64C34.1328 77.64 33.8011 77.575 33.4945 77.445C33.1878 77.3117 32.9228 77.125 32.6995 76.885C32.4795 76.6417 32.3178 76.3533 32.2145 76.02L33.0695 75.775C33.1795 76.1083 33.3628 76.3617 33.6195 76.535C33.8761 76.7083 34.1645 76.7933 34.4845 76.79C34.7778 76.7833 35.0311 76.7167 35.2445 76.59C35.4611 76.46 35.6278 76.2833 35.7445 76.06C35.8645 75.8367 35.9245 75.5783 35.9245 75.285C35.9245 74.8383 35.7911 74.4767 35.5245 74.2C35.2578 73.92 34.9078 73.78 34.4745 73.78C34.3545 73.78 34.2278 73.7967 34.0945 73.83C33.9645 73.8633 33.8428 73.91 33.7295 73.97L33.2995 73.265L35.9695 70.85L36.0845 71.15H32.4995V70.3H36.7445V71.155L34.4695 73.335L34.4595 73.02C34.9361 72.9867 35.3528 73.065 35.7095 73.255C36.0661 73.445 36.3428 73.7167 36.5395 74.07C36.7395 74.4233 36.8395 74.8283 36.8395 75.285C36.8395 75.745 36.7361 76.1517 36.5295 76.505C36.3228 76.8583 36.0428 77.1367 35.6895 77.34C35.3361 77.54 34.9361 77.64 34.4895 77.64ZM38.9395 77.5L38.3395 76.9L44.9495 70.3L45.5495 70.9L38.9395 77.5ZM44.0495 77.65C43.7195 77.65 43.4178 77.57 43.1445 77.41C42.8745 77.2467 42.6578 77.03 42.4945 76.76C42.3311 76.4867 42.2495 76.1833 42.2495 75.85C42.2495 75.5233 42.3328 75.2233 42.4995 74.95C42.6661 74.6767 42.8861 74.4583 43.1595 74.295C43.4328 74.1317 43.7295 74.05 44.0495 74.05C44.3795 74.05 44.6811 74.1317 44.9545 74.295C45.2278 74.455 45.4445 74.6717 45.6045 74.945C45.7678 75.215 45.8495 75.5167 45.8495 75.85C45.8495 76.1833 45.7678 76.4867 45.6045 76.76C45.4445 77.03 45.2278 77.2467 44.9545 77.41C44.6811 77.57 44.3795 77.65 44.0495 77.65ZM44.0495 76.865C44.2328 76.865 44.4011 76.8183 44.5545 76.725C44.7111 76.6317 44.8345 76.5083 44.9245 76.355C45.0178 76.2017 45.0645 76.0333 45.0645 75.85C45.0645 75.6667 45.0178 75.4983 44.9245 75.345C44.8345 75.1883 44.7111 75.065 44.5545 74.975C44.4011 74.8817 44.2328 74.835 44.0495 74.835C43.8661 74.835 43.6978 74.8817 43.5445 74.975C43.3911 75.065 43.2678 75.1883 43.1745 75.345C43.0811 75.4983 43.0345 75.6667 43.0345 75.85C43.0345 76.0333 43.0811 76.2017 43.1745 76.355C43.2678 76.5083 43.3911 76.6317 43.5445 76.725C43.6978 76.8183 43.8661 76.865 44.0495 76.865ZM39.8395 73.75C39.5095 73.75 39.2078 73.67 38.9345 73.51C38.6611 73.3467 38.4428 73.13 38.2795 72.86C38.1195 72.5867 38.0395 72.2833 38.0395 71.95C38.0395 71.6233 38.1228 71.3233 38.2895 71.05C38.4561 70.7767 38.6761 70.5583 38.9495 70.395C39.2228 70.2317 39.5195 70.15 39.8395 70.15C40.1695 70.15 40.4695 70.2317 40.7395 70.395C41.0128 70.555 41.2311 70.7717 41.3945 71.045C41.5578 71.315 41.6395 71.6167 41.6395 71.95C41.6395 72.2833 41.5578 72.5867 41.3945 72.86C41.2311 73.13 41.0128 73.3467 40.7395 73.51C40.4695 73.67 40.1695 73.75 39.8395 73.75ZM39.8395 72.965C40.0228 72.965 40.1911 72.9183 40.3445 72.825C40.5011 72.7317 40.6245 72.6083 40.7145 72.455C40.8078 72.3017 40.8545 72.1333 40.8545 71.95C40.8545 71.7667 40.8078 71.5983 40.7145 71.445C40.6245 71.2883 40.5011 71.165 40.3445 71.075C40.1911 70.9817 40.0228 70.935 39.8395 70.935C39.6561 70.935 39.4878 70.9817 39.3345 71.075C39.1811 71.165 39.0578 71.2883 38.9645 71.445C38.8711 71.5983 38.8245 71.7667 38.8245 71.95C38.8245 72.1333 38.8711 72.3017 38.9645 72.455C39.0578 72.6083 39.1811 72.7317 39.3345 72.825C39.4878 72.9183 39.6561 72.965 39.8395 72.965Z" fill="white"/>
<path d="M64.9885 79H64.0265V71.3235L58.872 79H57.91V69.64H58.872V77.31L64.0265 69.64H64.9885V79ZM72.3344 79.195C71.7147 79.195 71.1752 79.0628 70.7159 78.7985C70.2566 78.5298 69.8904 78.155 69.6174 77.674C69.3487 77.1887 69.1862 76.6188 69.1299 75.9645H67.7584V79H66.8029V71.98H67.7584V75.0155H69.1234C69.1797 74.3525 69.3444 73.7805 69.6174 73.2995C69.8947 72.8142 70.2631 72.4415 70.7224 72.1815C71.1861 71.9172 71.7256 71.785 72.3409 71.785C73.0386 71.785 73.6344 71.9432 74.1284 72.2595C74.6267 72.5758 75.0059 73.0113 75.2659 73.566C75.5302 74.1207 75.6624 74.7577 75.6624 75.477C75.6624 76.2137 75.5281 76.8615 75.2594 77.4205C74.9951 77.9795 74.6137 78.415 74.1154 78.727C73.6214 79.039 73.0277 79.195 72.3344 79.195ZM72.3149 78.2785C73.1036 78.2785 73.6886 78.0228 74.0699 77.5115C74.4556 76.9958 74.6484 76.3198 74.6484 75.4835C74.6484 74.6298 74.4534 73.9538 74.0634 73.4555C73.6777 72.9528 73.0971 72.7015 72.3214 72.7015C71.5804 72.7015 71.0127 72.9485 70.6184 73.4425C70.2241 73.9322 70.0269 74.6103 70.0269 75.477C70.0269 76.3263 70.2197 77.0067 70.6054 77.518C70.9954 78.025 71.5652 78.2785 72.3149 78.2785ZM77.0861 79V71.98H78.0416V75.0285H82.0001V71.98H82.9556V79H82.0001V75.945H78.0416V79H77.0861ZM84.7798 79L84.7668 71.98H85.7288V74.6255H87.3733C87.5769 74.6255 87.7763 74.6298 87.9713 74.6385C88.1706 74.6472 88.3461 74.6645 88.4978 74.6905C88.8444 74.7555 89.1521 74.8703 89.4208 75.035C89.6938 75.1997 89.9061 75.4272 90.0578 75.7175C90.2138 76.0078 90.2918 76.3718 90.2918 76.8095C90.2918 77.4118 90.1358 77.8863 89.8238 78.233C89.5161 78.5797 89.1261 78.805 88.6538 78.909C88.4761 78.948 88.2833 78.974 88.0753 78.987C87.8673 78.9957 87.6614 79 87.4578 79H84.7798ZM85.7288 78.181H87.4188C87.5661 78.181 87.7308 78.1767 87.9128 78.168C88.0948 78.1593 88.2551 78.1355 88.3938 78.0965C88.6234 78.0315 88.8314 77.9015 89.0178 77.7065C89.2084 77.5072 89.3038 77.2082 89.3038 76.8095C89.3038 76.4152 89.2128 76.1183 89.0308 75.919C88.8488 75.7153 88.6061 75.581 88.3028 75.516C88.1684 75.4857 88.0233 75.4662 87.8673 75.4575C87.7113 75.4488 87.5618 75.4445 87.4188 75.4445H85.7288V78.181ZM91.5876 80.3585L91.6461 79.884C91.8195 79.897 91.9451 79.8623 92.0231 79.78C92.1011 79.6977 92.1488 79.5872 92.1661 79.4485C92.1835 79.3098 92.1878 79.1603 92.1791 79H91.5876V77.6285H92.6991V79.26C92.6991 79.6587 92.5973 79.9577 92.3936 80.157C92.1943 80.3563 91.9256 80.4235 91.5876 80.3585ZM97.5133 78.9935L97.5198 78.1225L101.751 74.3005C102.115 73.9712 102.356 73.6592 102.473 73.3645C102.594 73.0655 102.655 72.7535 102.655 72.4285C102.655 72.0428 102.564 71.694 102.382 71.382C102.2 71.07 101.955 70.823 101.647 70.641C101.34 70.4547 100.995 70.3615 100.614 70.3615C100.215 70.3615 99.8598 70.4568 99.5478 70.6475C99.2358 70.8382 98.9888 71.0895 98.8068 71.4015C98.6291 71.7135 98.5424 72.0537 98.5468 72.422H97.5718C97.5718 71.8543 97.7061 71.3452 97.9748 70.8945C98.2434 70.4438 98.6074 70.0907 99.0668 69.835C99.5261 69.575 100.046 69.445 100.627 69.445C101.194 69.445 101.704 69.5793 102.154 69.848C102.609 70.1123 102.967 70.472 103.227 70.927C103.491 71.3777 103.623 71.8803 103.623 72.435C103.623 72.825 103.576 73.1695 103.48 73.4685C103.389 73.7632 103.244 74.0383 103.045 74.294C102.85 74.5453 102.601 74.8053 102.297 75.074L98.5403 78.467L98.3908 78.077H103.623V78.9935H97.5133ZM108.242 79.195C107.666 79.195 107.146 79.0607 106.682 78.792C106.223 78.5233 105.859 78.1593 105.59 77.7C105.322 77.2363 105.187 76.7163 105.187 76.14V72.5C105.187 71.9237 105.322 71.4058 105.59 70.9465C105.859 70.4828 106.223 70.1167 106.682 69.848C107.146 69.5793 107.666 69.445 108.242 69.445C108.819 69.445 109.337 69.5793 109.796 69.848C110.26 70.1167 110.626 70.4828 110.894 70.9465C111.163 71.4058 111.297 71.9237 111.297 72.5V76.14C111.297 76.7163 111.163 77.2363 110.894 77.7C110.626 78.1593 110.26 78.5233 109.796 78.792C109.337 79.0607 108.819 79.195 108.242 79.195ZM108.242 78.272C108.628 78.272 108.979 78.1788 109.295 77.9925C109.612 77.8018 109.863 77.5483 110.049 77.232C110.236 76.9157 110.329 76.5668 110.329 76.1855V72.4545C110.329 72.0688 110.236 71.7178 110.049 71.4015C109.863 71.0852 109.612 70.8338 109.295 70.6475C108.979 70.4568 108.628 70.3615 108.242 70.3615C107.857 70.3615 107.506 70.4568 107.189 70.6475C106.873 70.8338 106.622 71.0852 106.435 71.4015C106.249 71.7178 106.156 72.0688 106.156 72.4545V76.1855C106.156 76.5668 106.249 76.9157 106.435 77.232C106.622 77.5483 106.873 77.8018 107.189 77.9925C107.506 78.1788 107.857 78.272 108.242 78.272ZM112.862 78.9935L112.868 78.1225L117.1 74.3005C117.464 73.9712 117.704 73.6592 117.821 73.3645C117.943 73.0655 118.003 72.7535 118.003 72.4285C118.003 72.0428 117.912 71.694 117.73 71.382C117.548 71.07 117.304 70.823 116.996 70.641C116.688 70.4547 116.344 70.3615 115.962 70.3615C115.564 70.3615 115.208 70.4568 114.896 70.6475C114.584 70.8382 114.337 71.0895 114.155 71.4015C113.978 71.7135 113.891 72.0537 113.895 72.422H112.92C112.92 71.8543 113.055 71.3452 113.323 70.8945C113.592 70.4438 113.956 70.0907 114.415 69.835C114.875 69.575 115.395 69.445 115.975 69.445C116.543 69.445 117.052 69.5793 117.503 69.848C117.958 70.1123 118.315 70.472 118.575 70.927C118.84 71.3777 118.972 71.8803 118.972 72.435C118.972 72.825 118.924 73.1695 118.829 73.4685C118.738 73.7632 118.593 74.0383 118.393 74.294C118.198 74.5453 117.949 74.8053 117.646 75.074L113.889 78.467L113.739 78.077H118.972V78.9935H112.862ZM123.051 79.1885C122.588 79.1885 122.161 79.1062 121.771 78.9415C121.381 78.7768 121.045 78.5428 120.763 78.2395C120.482 77.9318 120.276 77.5657 120.146 77.141L121.056 76.868C121.212 77.3317 121.468 77.6827 121.823 77.921C122.183 78.1593 122.588 78.2742 123.038 78.2655C123.454 78.2568 123.812 78.1637 124.111 77.986C124.414 77.8083 124.646 77.5613 124.806 77.245C124.967 76.9287 125.047 76.5625 125.047 76.1465C125.047 75.5095 124.861 74.9982 124.488 74.6125C124.12 74.2225 123.632 74.0275 123.025 74.0275C122.856 74.0275 122.679 74.0513 122.492 74.099C122.306 74.1423 122.133 74.2052 121.972 74.2875L121.491 73.527L125.131 70.1665L125.287 70.5565H120.516V69.64H125.924V70.5695L122.752 73.5985L122.739 73.2215C123.389 73.1392 123.961 73.2128 124.455 73.4425C124.949 73.6722 125.335 74.0232 125.612 74.4955C125.894 74.9635 126.035 75.5138 126.035 76.1465C126.035 76.7445 125.905 77.2732 125.645 77.7325C125.389 78.1875 125.036 78.545 124.585 78.805C124.135 79.0607 123.623 79.1885 123.051 79.1885Z" fill="#818181"/>
<path d="M36.112 124.16V128H19.168V124.16H25.696V98C25.44 98.384 25.024 98.816 24.448 99.296C23.872 99.744 23.2 100.192 22.432 100.64C21.696 101.056 20.944 101.408 20.176 101.696C19.408 101.984 18.704 102.128 18.064 102.128V98.192C18.928 98.192 19.792 97.968 20.656 97.52C21.552 97.072 22.368 96.544 23.104 95.936C23.872 95.328 24.48 94.784 24.928 94.304C25.408 93.824 25.664 93.568 25.696 93.536H30.016V124.16H36.112ZM39.2995 105.44C39.2995 107.552 39.8115 109.488 40.8355 111.248C41.8915 112.976 43.3155 114.352 45.1075 115.376C46.8995 116.4 48.8835 116.912 51.0595 116.912C52.4035 116.912 53.6515 116.688 54.8035 116.24C55.9555 115.792 56.9635 115.152 57.8275 114.32C58.7235 113.488 59.3955 112.528 59.8435 111.44C59.8435 114.256 59.4755 116.656 58.7395 118.64C58.0035 120.624 56.9795 122.144 55.6675 123.2C54.3875 124.224 52.8675 124.736 51.1075 124.736C49.4435 124.736 47.9075 124.288 46.4995 123.392C45.1235 122.496 44.0835 121.312 43.3795 119.84L40.7875 122.384C41.8115 124.304 43.2195 125.808 45.0115 126.896C46.8355 127.952 48.8515 128.48 51.0595 128.48C53.6195 128.48 55.8595 127.744 57.7795 126.272C59.6995 124.768 61.1875 122.528 62.2435 119.552C63.2995 116.544 63.8275 112.8 63.8275 108.32C63.8275 105.248 63.2995 102.624 62.2435 100.448C61.2195 98.272 59.7795 96.608 57.9235 95.456C56.0995 94.272 53.9555 93.68 51.4915 93.68C49.2195 93.68 47.1555 94.208 45.2995 95.264C43.4435 96.288 41.9715 97.696 40.8835 99.488C39.8275 101.248 39.2995 103.232 39.2995 105.44ZM51.4435 97.28C52.9155 97.28 54.2595 97.664 55.4755 98.432C56.7235 99.168 57.7155 100.16 58.4515 101.408C59.2195 102.624 59.6035 103.968 59.6035 105.44C59.6035 106.88 59.2355 108.208 58.4995 109.424C57.7635 110.64 56.7715 111.616 55.5235 112.352C54.3075 113.088 52.9635 113.456 51.4915 113.456C50.0195 113.456 48.6595 113.088 47.4115 112.352C46.1955 111.616 45.2195 110.64 44.4835 109.424C43.7475 108.208 43.3795 106.864 43.3795 105.392C43.3795 103.92 43.7475 102.576 44.4835 101.36C45.2195 100.112 46.1955 99.12 47.4115 98.384C48.6275 97.648 49.9715 97.28 51.4435 97.28ZM68.5049 128C68.5049 126.08 68.6649 124.384 68.9849 122.912C69.3369 121.408 69.8329 120.064 70.4729 118.88C71.1449 117.696 71.9449 116.656 72.8729 115.76C73.8009 114.864 74.8569 114.064 76.0409 113.36C77.2889 112.624 78.5689 111.952 79.8809 111.344C81.1929 110.736 82.4089 110.096 83.5289 109.424C84.6489 108.752 85.5449 107.952 86.2169 107.024C86.9209 106.064 87.2729 104.88 87.2729 103.472C87.2729 102.352 87.0329 101.344 86.5529 100.448C86.0729 99.52 85.3529 98.784 84.3929 98.24C83.4329 97.696 82.2009 97.424 80.6969 97.424C79.1929 97.424 77.8329 97.68 76.6169 98.192C75.4329 98.704 74.4089 99.312 73.5449 100.016C72.6809 100.72 71.9929 101.392 71.4809 102.032L68.7449 99.296C69.0009 98.976 69.4489 98.496 70.0889 97.856C70.7609 97.216 71.6089 96.56 72.6329 95.888C73.6889 95.216 74.9209 94.656 76.3289 94.208C77.7369 93.728 79.3369 93.488 81.1289 93.488C83.5289 93.488 85.5289 93.936 87.1289 94.832C88.7289 95.728 89.9289 96.928 90.7289 98.432C91.5609 99.936 91.9769 101.6 91.9769 103.424C91.9769 105.056 91.6729 106.464 91.0649 107.648C90.4569 108.8 89.6729 109.776 88.7129 110.576C87.7529 111.376 86.6969 112.08 85.5449 112.688C84.4249 113.296 83.3369 113.872 82.2809 114.416C80.2649 115.376 78.6649 116.256 77.4809 117.056C76.2969 117.856 75.3849 118.64 74.7449 119.408C74.1369 120.144 73.7209 120.896 73.4969 121.664C73.3049 122.432 73.1929 123.264 73.1609 124.16H92.0249V128H68.5049ZM118.757 128.48C116.421 128.416 114.357 127.856 112.565 126.8C110.773 125.744 109.269 124.368 108.053 122.672C106.869 120.944 105.973 119.088 105.365 117.104C104.757 115.088 104.453 113.12 104.453 111.2C104.453 109.152 104.773 107.104 105.413 105.056C106.085 103.008 107.045 101.152 108.293 99.488C109.541 97.792 111.045 96.448 112.805 95.456C114.565 94.432 116.549 93.92 118.757 93.92C121.125 93.92 123.189 94.464 124.949 95.552C126.741 96.64 128.229 98.048 129.413 99.776C130.629 101.504 131.541 103.376 132.149 105.392C132.757 107.408 133.061 109.344 133.061 111.2C133.061 113.28 132.725 115.344 132.053 117.392C131.413 119.408 130.469 121.248 129.221 122.912C127.973 124.576 126.469 125.92 124.709 126.944C122.949 127.936 120.965 128.448 118.757 128.48ZM108.821 111.2C108.885 112.768 109.125 114.336 109.541 115.904C109.957 117.472 110.581 118.912 111.413 120.224C112.245 121.536 113.269 122.592 114.485 123.392C115.701 124.192 117.125 124.592 118.757 124.592C120.453 124.592 121.925 124.176 123.173 123.344C124.421 122.48 125.445 121.376 126.245 120.032C127.077 118.656 127.685 117.2 128.069 115.664C128.485 114.096 128.693 112.608 128.693 111.2C128.693 109.632 128.469 108.064 128.021 106.496C127.605 104.928 126.965 103.488 126.101 102.176C125.237 100.864 124.197 99.808 122.981 99.008C121.765 98.208 120.357 97.808 118.757 97.808C117.061 97.808 115.589 98.24 114.341 99.104C113.093 99.936 112.053 101.04 111.221 102.416C110.421 103.76 109.813 105.216 109.397 106.784C109.013 108.32 108.821 109.792 108.821 111.2ZM151.898 128.48C149.562 128.416 147.498 127.856 145.706 126.8C143.914 125.744 142.41 124.368 141.194 122.672C140.01 120.944 139.114 119.088 138.506 117.104C137.898 115.088 137.594 113.12 137.594 111.2C137.594 109.152 137.914 107.104 138.554 105.056C139.226 103.008 140.186 101.152 141.434 99.488C142.682 97.792 144.186 96.448 145.946 95.456C147.706 94.432 149.69 93.92 151.898 93.92C154.266 93.92 156.33 94.464 158.09 95.552C159.882 96.64 161.37 98.048 162.554 99.776C163.77 101.504 164.682 103.376 165.29 105.392C165.898 107.408 166.202 109.344 166.202 111.2C166.202 113.28 165.866 115.344 165.194 117.392C164.554 119.408 163.61 121.248 162.362 122.912C161.114 124.576 159.61 125.92 157.85 126.944C156.09 127.936 154.106 128.448 151.898 128.48ZM141.962 111.2C142.026 112.768 142.266 114.336 142.682 115.904C143.098 117.472 143.722 118.912 144.554 120.224C145.386 121.536 146.41 122.592 147.626 123.392C148.842 124.192 150.266 124.592 151.898 124.592C153.594 124.592 155.066 124.176 156.314 123.344C157.562 122.48 158.586 121.376 159.386 120.032C160.218 118.656 160.826 117.2 161.21 115.664C161.626 114.096 161.834 112.608 161.834 111.2C161.834 109.632 161.61 108.064 161.162 106.496C160.746 104.928 160.106 103.488 159.242 102.176C158.378 100.864 157.338 99.808 156.122 99.008C154.906 98.208 153.498 97.808 151.898 97.808C150.202 97.808 148.73 98.24 147.482 99.104C146.234 99.936 145.194 101.04 144.362 102.416C143.562 103.76 142.954 105.216 142.538 106.784C142.154 108.32 141.962 109.792 141.962 111.2ZM185.039 128.48C182.703 128.416 180.639 127.856 178.847 126.8C177.055 125.744 175.551 124.368 174.335 122.672C173.151 120.944 172.255 119.088 171.647 117.104C171.039 115.088 170.735 113.12 170.735 111.2C170.735 109.152 171.055 107.104 171.695 105.056C172.367 103.008 173.327 101.152 174.575 99.488C175.823 97.792 177.327 96.448 179.087 95.456C180.847 94.432 182.831 93.92 185.039 93.92C187.407 93.92 189.471 94.464 191.231 95.552C193.023 96.64 194.511 98.048 195.695 99.776C196.911 101.504 197.823 103.376 198.431 105.392C199.039 107.408 199.343 109.344 199.343 111.2C199.343 113.28 199.007 115.344 198.335 117.392C197.695 119.408 196.751 121.248 195.503 122.912C194.255 124.576 192.751 125.92 190.991 126.944C189.231 127.936 187.247 128.448 185.039 128.48ZM175.103 111.2C175.167 112.768 175.407 114.336 175.823 115.904C176.239 117.472 176.863 118.912 177.695 120.224C178.527 121.536 179.551 122.592 180.767 123.392C181.983 124.192 183.407 124.592 185.039 124.592C186.735 124.592 188.207 124.176 189.455 123.344C190.703 122.48 191.727 121.376 192.527 120.032C193.359 118.656 193.967 117.2 194.351 115.664C194.767 114.096 194.975 112.608 194.975 111.2C194.975 109.632 194.751 108.064 194.303 106.496C193.887 104.928 193.247 103.488 192.383 102.176C191.519 100.864 190.479 99.808 189.263 99.008C188.047 98.208 186.639 97.808 185.039 97.808C183.343 97.808 181.871 98.24 180.623 99.104C179.375 99.936 178.335 101.04 177.503 102.416C176.703 103.76 176.095 105.216 175.679 106.784C175.295 108.32 175.103 109.792 175.103 111.2ZM209.207 115.76V111.92H222.695V115.76H209.207ZM209.207 122.192V118.832H225.095V122.192H209.207ZM213.239 128V93.92H225.047C226.679 93.92 228.119 94.24 229.367 94.88C230.647 95.488 231.735 96.32 232.631 97.376C233.527 98.4 234.199 99.568 234.647 100.88C235.127 102.16 235.367 103.472 235.367 104.816C235.367 106.672 234.983 108.448 234.215 110.144C233.447 111.808 232.311 113.168 230.807 114.224C229.335 115.248 227.511 115.76 225.335 115.76H217.559V128H213.239ZM217.559 111.92H225.095C226.599 111.92 227.783 111.6 228.647 110.96C229.511 110.32 230.119 109.456 230.471 108.368C230.823 107.28 230.999 106.096 230.999 104.816C230.999 103.472 230.775 102.272 230.327 101.216C229.911 100.128 229.239 99.28 228.311 98.672C227.383 98.064 226.199 97.76 224.759 97.76H217.559V111.92Z" fill="#222222"/>
<path d="M24.048 160V154.592L24.376 155.096C24.008 155.357 23.5573 155.571 23.024 155.736C22.4907 155.896 21.888 155.976 21.216 155.976C20.2187 155.976 19.4187 155.792 18.816 155.424C18.2187 155.056 17.7867 154.549 17.52 153.904C17.2533 153.253 17.12 152.509 17.12 151.672V148.48H18.304V151.264C18.304 151.797 18.3547 152.283 18.456 152.72C18.5573 153.157 18.7253 153.533 18.96 153.848C19.1947 154.163 19.5067 154.405 19.896 154.576C20.2853 154.741 20.7653 154.824 21.336 154.824C22.0453 154.824 22.656 154.717 23.168 154.504C23.68 154.285 24.056 154.051 24.296 153.8L24.048 154.744V148.48H25.224V160H24.048ZM34.3278 151.36V160H33.1838V153.272L28.4478 160H27.4558V151.36H28.5998V158.032L33.3438 151.36H34.3278ZM40.1571 160.24C39.2878 160.24 38.5518 160.045 37.9491 159.656C37.3465 159.267 36.8878 158.731 36.5731 158.048C36.2638 157.36 36.1038 156.571 36.0931 155.68C36.1038 154.773 36.2691 153.979 36.5891 153.296C36.9091 152.608 37.3705 152.075 37.9731 151.696C38.5758 151.312 39.3065 151.12 40.1651 151.12C41.0398 151.12 41.7998 151.333 42.4451 151.76C43.0958 152.187 43.5411 152.771 43.7811 153.512L42.6291 153.88C42.4265 153.363 42.1038 152.963 41.6611 152.68C41.2238 152.392 40.7225 152.248 40.1571 152.248C39.5225 152.248 38.9971 152.395 38.5811 152.688C38.1651 152.976 37.8558 153.379 37.6531 153.896C37.4505 154.413 37.3465 155.008 37.3411 155.68C37.3518 156.715 37.5918 157.547 38.0611 158.176C38.5305 158.8 39.2291 159.112 40.1571 159.112C40.7438 159.112 41.2425 158.979 41.6531 158.712C42.0691 158.44 42.3838 158.045 42.5971 157.528L43.7811 157.88C43.4611 158.648 42.9918 159.235 42.3731 159.64C41.7545 160.04 41.0158 160.24 40.1571 160.24ZM47.5734 160V152.448H44.5094V151.36H51.8134V152.448H48.7494V160H47.5734ZM55.4826 160.24C54.832 160.24 54.2853 160.123 53.8426 159.888C53.4053 159.653 53.0773 159.341 52.8586 158.952C52.64 158.563 52.5306 158.139 52.5306 157.68C52.5306 157.211 52.624 156.811 52.8106 156.48C53.0026 156.144 53.2613 155.869 53.5866 155.656C53.9173 155.443 54.2986 155.28 54.7306 155.168C55.168 155.061 55.6506 154.968 56.1786 154.888C56.712 154.803 57.232 154.731 57.7386 154.672C58.2506 154.608 58.6986 154.547 59.0826 154.488L58.6666 154.744C58.6826 153.891 58.5173 153.259 58.1706 152.848C57.824 152.437 57.2213 152.232 56.3626 152.232C55.7706 152.232 55.2693 152.365 54.8586 152.632C54.4533 152.899 54.168 153.32 54.0026 153.896L52.8586 153.56C53.056 152.787 53.4533 152.187 54.0506 151.76C54.648 151.333 55.424 151.12 56.3786 151.12C57.168 151.12 57.8373 151.269 58.3866 151.568C58.9413 151.861 59.3333 152.288 59.5626 152.848C59.6693 153.099 59.7386 153.379 59.7706 153.688C59.8026 153.997 59.8186 154.312 59.8186 154.632V160H58.7706V157.832L59.0746 157.96C58.7813 158.701 58.3253 159.267 57.7066 159.656C57.088 160.045 56.3466 160.24 55.4826 160.24ZM55.6186 159.224C56.168 159.224 56.648 159.125 57.0586 158.928C57.4693 158.731 57.8 158.461 58.0506 158.12C58.3013 157.773 58.464 157.384 58.5386 156.952C58.6026 156.675 58.6373 156.371 58.6426 156.04C58.648 155.704 58.6506 155.453 58.6506 155.288L59.0986 155.52C58.6986 155.573 58.264 155.627 57.7946 155.68C57.3306 155.733 56.872 155.795 56.4186 155.864C55.9706 155.933 55.5653 156.016 55.2026 156.112C54.9573 156.181 54.72 156.28 54.4906 156.408C54.2613 156.531 54.072 156.696 53.9226 156.904C53.7786 157.112 53.7066 157.371 53.7066 157.68C53.7066 157.931 53.768 158.173 53.8906 158.408C54.0186 158.643 54.2213 158.837 54.4986 158.992C54.7813 159.147 55.1546 159.224 55.6186 159.224ZM67.3173 160V156.744H65.3012C65.0666 156.744 64.8239 156.736 64.5733 156.72C64.3279 156.699 64.0986 156.669 63.8853 156.632C63.2773 156.515 62.7599 156.248 62.3333 155.832C61.9119 155.411 61.7013 154.829 61.7013 154.088C61.7013 153.363 61.8986 152.781 62.2933 152.344C62.6879 151.901 63.1653 151.613 63.7253 151.48C63.9813 151.421 64.2399 151.387 64.5013 151.376C64.7679 151.365 64.9973 151.36 65.1892 151.36H68.4933L68.5013 160H67.3173ZM61.4213 160L63.8293 156.376H65.1333L62.7093 160H61.4213ZM65.2373 155.736H67.3173V152.368H65.2373C65.1093 152.368 64.9306 152.373 64.7013 152.384C64.4719 152.395 64.2559 152.429 64.0533 152.488C63.8773 152.541 63.7013 152.635 63.5253 152.768C63.3546 152.896 63.2106 153.069 63.0933 153.288C62.9759 153.501 62.9173 153.763 62.9173 154.072C62.9173 154.504 63.0346 154.851 63.2693 155.112C63.5093 155.368 63.8079 155.544 64.1653 155.64C64.3573 155.683 64.5493 155.709 64.7413 155.72C64.9333 155.731 65.0986 155.736 65.2373 155.736ZM73.9401 160V151.36H80.8121V160H79.6361V152.488H75.1161V160H73.9401ZM86.9375 160.24C86.1428 160.24 85.4708 160.04 84.9215 159.64C84.3722 159.235 83.9562 158.688 83.6735 158C83.3908 157.307 83.2495 156.531 83.2495 155.672C83.2495 154.797 83.3908 154.019 83.6735 153.336C83.9615 152.648 84.3828 152.107 84.9375 151.712C85.4922 151.317 86.1748 151.12 86.9855 151.12C87.7748 151.12 88.4522 151.32 89.0175 151.72C89.5828 152.12 90.0148 152.664 90.3135 153.352C90.6175 154.04 90.7695 154.813 90.7695 155.672C90.7695 156.536 90.6175 157.312 90.3135 158C90.0095 158.688 89.5722 159.235 89.0015 159.64C88.4308 160.04 87.7428 160.24 86.9375 160.24ZM83.0495 163.84V151.36H84.1055V157.864H84.2335V163.84H83.0495ZM86.8175 159.144C87.4202 159.144 87.9215 158.992 88.3215 158.688C88.7215 158.384 89.0202 157.971 89.2175 157.448C89.4202 156.92 89.5215 156.328 89.5215 155.672C89.5215 155.021 89.4228 154.435 89.2255 153.912C89.0282 153.389 88.7268 152.976 88.3215 152.672C87.9215 152.368 87.4122 152.216 86.7935 152.216C86.1908 152.216 85.6895 152.363 85.2895 152.656C84.8948 152.949 84.5988 153.357 84.4015 153.88C84.2042 154.397 84.1055 154.995 84.1055 155.672C84.1055 156.339 84.2042 156.936 84.4015 157.464C84.5988 157.987 84.8975 158.397 85.2975 158.696C85.6975 158.995 86.2042 159.144 86.8175 159.144ZM99.3903 151.36V160H98.2463V153.272L93.5103 160H92.5183V151.36H93.6623V158.032L98.4063 151.36H99.3903ZM105.1 160.248C104.294 160.243 103.604 160.067 103.028 159.72C102.452 159.373 102.004 158.856 101.684 158.168C101.369 157.48 101.198 156.621 101.172 155.592C101.156 155.139 101.166 154.645 101.204 154.112C101.241 153.573 101.3 153.061 101.38 152.576C101.46 152.091 101.556 151.696 101.668 151.392C101.806 150.997 102.004 150.629 102.26 150.288C102.521 149.941 102.822 149.659 103.164 149.44C103.494 149.216 103.868 149.043 104.284 148.92C104.705 148.792 105.142 148.693 105.596 148.624C106.054 148.555 106.508 148.493 106.956 148.44C107.409 148.387 107.828 148.32 108.212 148.24L108.34 149.304C108.046 149.363 107.7 149.416 107.3 149.464C106.9 149.512 106.481 149.571 106.044 149.64C105.606 149.704 105.188 149.792 104.788 149.904C104.388 150.016 104.046 150.163 103.764 150.344C103.332 150.605 102.998 151 102.764 151.528C102.534 152.056 102.393 152.661 102.34 153.344C102.67 152.827 103.108 152.437 103.652 152.176C104.201 151.915 104.796 151.784 105.436 151.784C106.214 151.784 106.884 151.963 107.444 152.32C108.009 152.677 108.444 153.173 108.748 153.808C109.052 154.443 109.204 155.171 109.204 155.992C109.204 156.851 109.036 157.6 108.7 158.24C108.369 158.88 107.897 159.376 107.284 159.728C106.67 160.075 105.942 160.248 105.1 160.248ZM105.188 159.12C106.094 159.12 106.782 158.837 107.252 158.272C107.726 157.707 107.964 156.955 107.964 156.016C107.964 155.056 107.718 154.299 107.228 153.744C106.742 153.189 106.057 152.912 105.172 152.912C104.286 152.912 103.606 153.189 103.132 153.744C102.657 154.299 102.42 155.056 102.42 156.016C102.42 156.976 102.657 157.733 103.132 158.288C103.606 158.843 104.292 159.12 105.188 159.12ZM110.972 160L110.956 151.36H112.14V154.616H113.644C113.894 154.616 114.14 154.621 114.38 154.632C114.62 154.643 114.836 154.664 115.028 154.696C115.454 154.781 115.833 154.925 116.164 155.128C116.494 155.331 116.756 155.611 116.948 155.968C117.14 156.32 117.236 156.765 117.236 157.304C117.236 158.045 117.044 158.629 116.66 159.056C116.276 159.483 115.793 159.76 115.212 159.888C114.993 159.936 114.756 159.968 114.5 159.984C114.244 159.995 113.993 160 113.748 160H110.972ZM112.14 158.992H113.7C113.876 158.992 114.076 158.987 114.3 158.976C114.524 158.965 114.721 158.936 114.892 158.888C115.18 158.808 115.438 158.648 115.668 158.408C115.902 158.163 116.02 157.795 116.02 157.304C116.02 156.819 115.908 156.453 115.684 156.208C115.46 155.957 115.161 155.792 114.788 155.712C114.617 155.675 114.436 155.651 114.244 155.64C114.057 155.629 113.876 155.624 113.7 155.624H112.14V158.992ZM118.268 160V151.36H119.444V160H118.268ZM120.883 160V158.968C121.203 159.027 121.445 159.013 121.611 158.928C121.781 158.837 121.907 158.688 121.987 158.48C122.067 158.267 122.133 158.003 122.187 157.688C122.272 157.165 122.349 156.589 122.419 155.96C122.488 155.331 122.549 154.637 122.603 153.88C122.661 153.117 122.72 152.277 122.779 151.36H128.651V160H127.483V152.488H123.867C123.829 153.053 123.787 153.616 123.739 154.176C123.691 154.736 123.64 155.275 123.587 155.792C123.539 156.304 123.485 156.776 123.427 157.208C123.368 157.64 123.307 158.013 123.243 158.328C123.147 158.803 123.019 159.181 122.859 159.464C122.704 159.747 122.472 159.933 122.163 160.024C121.853 160.115 121.427 160.107 120.883 160ZM130.894 160L130.878 151.36H132.062V154.616H134.086C134.336 154.616 134.582 154.621 134.822 154.632C135.067 154.643 135.283 154.664 135.47 154.696C135.896 154.776 136.275 154.917 136.606 155.12C136.942 155.323 137.203 155.603 137.39 155.96C137.582 156.317 137.678 156.765 137.678 157.304C137.678 158.045 137.486 158.629 137.102 159.056C136.723 159.483 136.243 159.76 135.662 159.888C135.443 159.936 135.206 159.968 134.95 159.984C134.694 159.995 134.44 160 134.19 160H130.894ZM132.062 158.992H134.142C134.323 158.992 134.526 158.987 134.75 158.976C134.974 158.965 135.171 158.936 135.342 158.888C135.624 158.808 135.88 158.648 136.11 158.408C136.344 158.163 136.462 157.795 136.462 157.304C136.462 156.819 136.35 156.453 136.126 156.208C135.902 155.957 135.603 155.792 135.23 155.712C135.064 155.675 134.886 155.651 134.694 155.64C134.502 155.629 134.318 155.624 134.142 155.624H132.062V158.992ZM20.232 180.24C19.3627 180.24 18.6027 180.051 17.952 179.672C17.3067 179.288 16.7973 178.757 16.424 178.08L17.368 177.48C17.6827 178.013 18.0747 178.419 18.544 178.696C19.0133 178.973 19.552 179.112 20.16 179.112C20.7947 179.112 21.304 178.965 21.688 178.672C22.072 178.379 22.264 177.976 22.264 177.464C22.264 177.112 22.1813 176.832 22.016 176.624C21.856 176.416 21.6107 176.267 21.28 176.176C20.9547 176.085 20.5467 176.04 20.056 176.04H19.032V175.032H20.04C20.6373 175.032 21.1173 174.925 21.48 174.712C21.848 174.493 22.032 174.152 22.032 173.688C22.032 173.197 21.848 172.835 21.48 172.6C21.1173 172.36 20.6827 172.24 20.176 172.24C19.664 172.24 19.1787 172.347 18.72 172.56C18.2667 172.768 17.8853 173.037 17.576 173.368L16.824 172.576C17.256 172.101 17.76 171.741 18.336 171.496C18.9173 171.245 19.56 171.12 20.264 171.12C20.8187 171.12 21.32 171.219 21.768 171.416C22.2213 171.608 22.5787 171.891 22.84 172.264C23.1067 172.637 23.24 173.085 23.24 173.608C23.24 174.099 23.12 174.523 22.88 174.88C22.6453 175.237 22.312 175.533 21.88 175.768L21.816 175.328C22.1893 175.397 22.4987 175.547 22.744 175.776C22.9893 176.005 23.1707 176.28 23.288 176.6C23.4053 176.92 23.464 177.245 23.464 177.576C23.464 178.125 23.32 178.6 23.032 179C22.7493 179.395 22.3627 179.701 21.872 179.92C21.3867 180.133 20.84 180.24 20.232 180.24ZM27.7014 180.24C27.0507 180.24 26.504 180.123 26.0614 179.888C25.624 179.653 25.296 179.341 25.0774 178.952C24.8587 178.563 24.7494 178.139 24.7494 177.68C24.7494 177.211 24.8427 176.811 25.0294 176.48C25.2214 176.144 25.48 175.869 25.8054 175.656C26.136 175.443 26.5174 175.28 26.9494 175.168C27.3867 175.061 27.8694 174.968 28.3974 174.888C28.9307 174.803 29.4507 174.731 29.9574 174.672C30.4694 174.608 30.9174 174.547 31.3014 174.488L30.8854 174.744C30.9014 173.891 30.736 173.259 30.3894 172.848C30.0427 172.437 29.44 172.232 28.5814 172.232C27.9894 172.232 27.488 172.365 27.0774 172.632C26.672 172.899 26.3867 173.32 26.2214 173.896L25.0774 173.56C25.2747 172.787 25.672 172.187 26.2694 171.76C26.8667 171.333 27.6427 171.12 28.5974 171.12C29.3867 171.12 30.056 171.269 30.6054 171.568C31.16 171.861 31.552 172.288 31.7814 172.848C31.888 173.099 31.9574 173.379 31.9894 173.688C32.0214 173.997 32.0374 174.312 32.0374 174.632V180H30.9894V177.832L31.2934 177.96C31 178.701 30.544 179.267 29.9254 179.656C29.3067 180.045 28.5654 180.24 27.7014 180.24ZM27.8374 179.224C28.3867 179.224 28.8667 179.125 29.2774 178.928C29.688 178.731 30.0187 178.461 30.2694 178.12C30.52 177.773 30.6827 177.384 30.7574 176.952C30.8214 176.675 30.856 176.371 30.8614 176.04C30.8667 175.704 30.8694 175.453 30.8694 175.288L31.3174 175.52C30.9174 175.573 30.4827 175.627 30.0134 175.68C29.5494 175.733 29.0907 175.795 28.6374 175.864C28.1894 175.933 27.784 176.016 27.4214 176.112C27.176 176.181 26.9387 176.28 26.7094 176.408C26.48 176.531 26.2907 176.696 26.1414 176.904C25.9974 177.112 25.9254 177.371 25.9254 177.68C25.9254 177.931 25.9867 178.173 26.1094 178.408C26.2374 178.643 26.44 178.837 26.7174 178.992C27 179.147 27.3734 179.224 27.8374 179.224ZM37.3151 180V171.36H40.8751C41.0565 171.36 41.2751 171.371 41.5311 171.392C41.7925 171.413 42.0351 171.453 42.2591 171.512C42.7445 171.64 43.1338 171.901 43.4271 172.296C43.7258 172.691 43.8751 173.165 43.8751 173.72C43.8751 174.029 43.8271 174.307 43.7311 174.552C43.6405 174.792 43.5098 175 43.3391 175.176C43.2591 175.267 43.1711 175.347 43.0751 175.416C42.9791 175.48 42.8858 175.533 42.7951 175.576C42.9658 175.608 43.1498 175.683 43.3471 175.8C43.6565 175.981 43.8911 176.227 44.0511 176.536C44.2111 176.84 44.2911 177.211 44.2911 177.648C44.2911 178.24 44.1498 178.723 43.8671 179.096C43.5845 179.469 43.2058 179.725 42.7311 179.864C42.5178 179.923 42.2858 179.96 42.0351 179.976C41.7898 179.992 41.5578 180 41.3391 180H37.3151ZM38.4991 179H41.2831C41.3951 179 41.5365 178.992 41.7071 178.976C41.8778 178.955 42.0298 178.928 42.1631 178.896C42.4778 178.816 42.7071 178.656 42.8511 178.416C43.0005 178.171 43.0751 177.904 43.0751 177.616C43.0751 177.237 42.9631 176.928 42.7391 176.688C42.5205 176.443 42.2271 176.293 41.8591 176.24C41.7365 176.213 41.6085 176.197 41.4751 176.192C41.3418 176.187 41.2218 176.184 41.1151 176.184H38.4991V179ZM38.4991 175.176H40.9151C41.0538 175.176 41.2085 175.168 41.3791 175.152C41.5551 175.131 41.7071 175.096 41.8351 175.048C42.1125 174.952 42.3151 174.787 42.4431 174.552C42.5765 174.317 42.6431 174.061 42.6431 173.784C42.6431 173.48 42.5711 173.213 42.4271 172.984C42.2885 172.755 42.0778 172.595 41.7951 172.504C41.6031 172.435 41.3951 172.395 41.1711 172.384C40.9525 172.373 40.8138 172.368 40.7551 172.368H38.4991V175.176ZM45.8936 180L45.8776 171.36H47.0616V174.616H48.5656C48.8163 174.616 49.0616 174.621 49.3016 174.632C49.5416 174.643 49.7576 174.664 49.9496 174.696C50.3763 174.781 50.755 174.925 51.0856 175.128C51.4163 175.331 51.6776 175.611 51.8696 175.968C52.0616 176.32 52.1576 176.765 52.1576 177.304C52.1576 178.045 51.9656 178.629 51.5816 179.056C51.1976 179.483 50.715 179.76 50.1336 179.888C49.915 179.936 49.6776 179.968 49.4216 179.984C49.1656 179.995 48.915 180 48.6696 180H45.8936ZM47.0616 178.992H48.6216C48.7976 178.992 48.9976 178.987 49.2216 178.976C49.4456 178.965 49.643 178.936 49.8136 178.888C50.1016 178.808 50.3603 178.648 50.5896 178.408C50.8243 178.163 50.9416 177.795 50.9416 177.304C50.9416 176.819 50.8296 176.453 50.6056 176.208C50.3816 175.957 50.083 175.792 49.7096 175.712C49.539 175.675 49.3576 175.651 49.1656 175.64C48.979 175.629 48.7976 175.624 48.6216 175.624H47.0616V178.992ZM53.1896 180V171.36H54.3656V180H53.1896ZM60.0684 180.248C59.263 180.243 58.5724 180.067 57.9964 179.72C57.4204 179.373 56.9724 178.856 56.6524 178.168C56.3377 177.48 56.167 176.621 56.1404 175.592C56.1244 175.139 56.135 174.645 56.1724 174.112C56.2097 173.573 56.2684 173.061 56.3484 172.576C56.4284 172.091 56.5244 171.696 56.6364 171.392C56.775 170.997 56.9724 170.629 57.2284 170.288C57.4897 169.941 57.791 169.659 58.1324 169.44C58.463 169.216 58.8364 169.043 59.2524 168.92C59.6737 168.792 60.111 168.693 60.5644 168.624C61.023 168.555 61.4764 168.493 61.9244 168.44C62.3777 168.387 62.7964 168.32 63.1804 168.24L63.3084 169.304C63.015 169.363 62.6684 169.416 62.2684 169.464C61.8684 169.512 61.4497 169.571 61.0124 169.64C60.575 169.704 60.1564 169.792 59.7564 169.904C59.3564 170.016 59.015 170.163 58.7324 170.344C58.3004 170.605 57.967 171 57.7324 171.528C57.503 172.056 57.3617 172.661 57.3084 173.344C57.639 172.827 58.0764 172.437 58.6204 172.176C59.1697 171.915 59.7644 171.784 60.4044 171.784C61.183 171.784 61.8524 171.963 62.4124 172.32C62.9777 172.677 63.4124 173.173 63.7164 173.808C64.0204 174.443 64.1724 175.171 64.1724 175.992C64.1724 176.851 64.0044 177.6 63.6684 178.24C63.3377 178.88 62.8657 179.376 62.2524 179.728C61.639 180.075 60.911 180.248 60.0684 180.248ZM60.1564 179.12C61.063 179.12 61.751 178.837 62.2204 178.272C62.695 177.707 62.9324 176.955 62.9324 176.016C62.9324 175.056 62.687 174.299 62.1964 173.744C61.711 173.189 61.0257 172.912 60.1404 172.912C59.255 172.912 58.575 173.189 58.1004 173.744C57.6257 174.299 57.3884 175.056 57.3884 176.016C57.3884 176.976 57.6257 177.733 58.1004 178.288C58.575 178.843 59.2604 179.12 60.1564 179.12ZM69.8125 180.24C69.0178 180.24 68.3458 180.04 67.7965 179.64C67.2472 179.235 66.8312 178.688 66.5485 178C66.2658 177.307 66.1245 176.531 66.1245 175.672C66.1245 174.797 66.2658 174.019 66.5485 173.336C66.8365 172.648 67.2578 172.107 67.8125 171.712C68.3672 171.317 69.0498 171.12 69.8605 171.12C70.6498 171.12 71.3272 171.32 71.8925 171.72C72.4578 172.12 72.8898 172.664 73.1885 173.352C73.4925 174.04 73.6445 174.813 73.6445 175.672C73.6445 176.536 73.4925 177.312 73.1885 178C72.8845 178.688 72.4472 179.235 71.8765 179.64C71.3058 180.04 70.6178 180.24 69.8125 180.24ZM65.9245 183.84V171.36H66.9805V177.864H67.1085V183.84H65.9245ZM69.6925 179.144C70.2952 179.144 70.7965 178.992 71.1965 178.688C71.5965 178.384 71.8952 177.971 72.0925 177.448C72.2952 176.92 72.3965 176.328 72.3965 175.672C72.3965 175.021 72.2978 174.435 72.1005 173.912C71.9032 173.389 71.6018 172.976 71.1965 172.672C70.7965 172.368 70.2872 172.216 69.6685 172.216C69.0658 172.216 68.5645 172.363 68.1645 172.656C67.7698 172.949 67.4738 173.357 67.2765 173.88C67.0792 174.397 66.9805 174.995 66.9805 175.672C66.9805 176.339 67.0792 176.936 67.2765 177.464C67.4738 177.987 67.7725 178.397 68.1725 178.696C68.5725 178.995 69.0792 179.144 69.6925 179.144ZM77.8733 180.24C77.2226 180.24 76.6759 180.123 76.2333 179.888C75.7959 179.653 75.4679 179.341 75.2493 178.952C75.0306 178.563 74.9213 178.139 74.9213 177.68C74.9213 177.211 75.0146 176.811 75.2013 176.48C75.3933 176.144 75.6519 175.869 75.9773 175.656C76.3079 175.443 76.6893 175.28 77.1213 175.168C77.5586 175.061 78.0413 174.968 78.5693 174.888C79.1026 174.803 79.6226 174.731 80.1293 174.672C80.6413 174.608 81.0893 174.547 81.4733 174.488L81.0573 174.744C81.0733 173.891 80.9079 173.259 80.5613 172.848C80.2146 172.437 79.6119 172.232 78.7533 172.232C78.1613 172.232 77.6599 172.365 77.2493 172.632C76.8439 172.899 76.5586 173.32 76.3932 173.896L75.2493 173.56C75.4466 172.787 75.8439 172.187 76.4413 171.76C77.0386 171.333 77.8146 171.12 78.7693 171.12C79.5586 171.12 80.2279 171.269 80.7773 171.568C81.3319 171.861 81.7239 172.288 81.9533 172.848C82.0599 173.099 82.1293 173.379 82.1613 173.688C82.1933 173.997 82.2093 174.312 82.2093 174.632V180H81.1613V177.832L81.4653 177.96C81.1719 178.701 80.7159 179.267 80.0973 179.656C79.4786 180.045 78.7373 180.24 77.8733 180.24ZM78.0093 179.224C78.5586 179.224 79.0386 179.125 79.4493 178.928C79.8599 178.731 80.1906 178.461 80.4413 178.12C80.6919 177.773 80.8546 177.384 80.9293 176.952C80.9933 176.675 81.0279 176.371 81.0333 176.04C81.0386 175.704 81.0413 175.453 81.0413 175.288L81.4893 175.52C81.0893 175.573 80.6546 175.627 80.1853 175.68C79.7213 175.733 79.2626 175.795 78.8093 175.864C78.3613 175.933 77.9559 176.016 77.5933 176.112C77.3479 176.181 77.1106 176.28 76.8813 176.408C76.6519 176.531 76.4626 176.696 76.3133 176.904C76.1693 177.112 76.0973 177.371 76.0973 177.68C76.0973 177.931 76.1586 178.173 76.2812 178.408C76.4093 178.643 76.6119 178.837 76.8893 178.992C77.1719 179.147 77.5453 179.224 78.0093 179.224ZM84.2839 180V171.36H85.4599V175.112H90.3319V171.36H91.5079V180H90.3319V176.24H85.4599V180H84.2839ZM93.737 180V171.36H94.913V175.112H99.785V171.36H100.961V180H99.785V176.24H94.913V180H93.737ZM103.206 180L103.19 171.36H104.374V174.616H105.878C106.129 174.616 106.374 174.621 106.614 174.632C106.854 174.643 107.07 174.664 107.262 174.696C107.689 174.781 108.067 174.925 108.398 175.128C108.729 175.331 108.99 175.611 109.182 175.968C109.374 176.32 109.47 176.765 109.47 177.304C109.47 178.045 109.278 178.629 108.894 179.056C108.51 179.483 108.027 179.76 107.446 179.888C107.227 179.936 106.99 179.968 106.734 179.984C106.478 179.995 106.227 180 105.982 180H103.206ZM104.374 178.992H105.934C106.11 178.992 106.31 178.987 106.534 178.976C106.758 178.965 106.955 178.936 107.126 178.888C107.414 178.808 107.673 178.648 107.902 178.408C108.137 178.163 108.254 177.795 108.254 177.304C108.254 176.819 108.142 176.453 107.918 176.208C107.694 175.957 107.395 175.792 107.022 175.712C106.851 175.675 106.67 175.651 106.478 175.64C106.291 175.629 106.11 175.624 105.934 175.624H104.374V178.992ZM110.502 180V171.36H111.678V180H110.502ZM117.501 170.336C117.122 170.336 116.776 170.243 116.461 170.056C116.146 169.869 115.896 169.621 115.709 169.312C115.528 168.997 115.437 168.651 115.437 168.272H116.413C116.413 168.571 116.52 168.827 116.733 169.04C116.946 169.253 117.202 169.36 117.501 169.36C117.805 169.36 118.061 169.253 118.269 169.04C118.482 168.827 118.589 168.571 118.589 168.272H119.565C119.565 168.651 119.472 168.997 119.285 169.312C119.104 169.621 118.856 169.869 118.541 170.056C118.226 170.243 117.88 170.336 117.501 170.336ZM120.781 171.36V180H119.637V173.272L114.901 180H113.909V171.36H115.053V178.032L119.797 171.36H120.781ZM126.221 180V171.36H133.093V180H131.917V172.488H127.397V180H126.221ZM138.995 180.24C138.152 180.24 137.421 180.053 136.803 179.68C136.189 179.307 135.712 178.781 135.371 178.104C135.029 177.427 134.859 176.632 134.859 175.72C134.859 174.776 135.027 173.96 135.363 173.272C135.699 172.584 136.171 172.053 136.779 171.68C137.392 171.307 138.115 171.12 138.947 171.12C139.8 171.12 140.528 171.317 141.131 171.712C141.733 172.101 142.189 172.661 142.499 173.392C142.808 174.123 142.949 174.995 142.923 176.008H141.723V175.592C141.701 174.472 141.459 173.627 140.995 173.056C140.536 172.485 139.864 172.2 138.979 172.2C138.051 172.2 137.339 172.501 136.843 173.104C136.352 173.707 136.107 174.565 136.107 175.68C136.107 176.768 136.352 177.613 136.843 178.216C137.339 178.813 138.04 179.112 138.947 179.112C139.565 179.112 140.104 178.971 140.563 178.688C141.027 178.4 141.392 177.987 141.659 177.448L142.755 177.872C142.413 178.624 141.909 179.208 141.243 179.624C140.581 180.035 139.832 180.24 138.995 180.24ZM135.691 176.008V175.024H142.291V176.008H135.691ZM148.578 180.24C147.783 180.24 147.111 180.04 146.562 179.64C146.013 179.235 145.597 178.688 145.314 178C145.031 177.307 144.89 176.531 144.89 175.672C144.89 174.797 145.031 174.019 145.314 173.336C145.602 172.648 146.023 172.107 146.578 171.712C147.133 171.317 147.815 171.12 148.626 171.12C149.415 171.12 150.093 171.32 150.658 171.72C151.223 172.12 151.655 172.664 151.954 173.352C152.258 174.04 152.41 174.813 152.41 175.672C152.41 176.536 152.258 177.312 151.954 178C151.65 178.688 151.213 179.235 150.642 179.64C150.071 180.04 149.383 180.24 148.578 180.24ZM144.69 183.84V171.36H145.746V177.864H145.874V183.84H144.69ZM148.458 179.144C149.061 179.144 149.562 178.992 149.962 178.688C150.362 178.384 150.661 177.971 150.858 177.448C151.061 176.92 151.162 176.328 151.162 175.672C151.162 175.021 151.063 174.435 150.866 173.912C150.669 173.389 150.367 172.976 149.962 172.672C149.562 172.368 149.053 172.216 148.434 172.216C147.831 172.216 147.33 172.363 146.93 172.656C146.535 172.949 146.239 173.357 146.042 173.88C145.845 174.397 145.746 174.995 145.746 175.672C145.746 176.339 145.845 176.936 146.042 177.464C146.239 177.987 146.538 178.397 146.938 178.696C147.338 178.995 147.845 179.144 148.458 179.144ZM161.031 171.36V180H159.887V173.272L155.151 180H154.159V171.36H155.303V178.032L160.047 171.36H161.031ZM166.884 180.24C166.026 180.24 165.292 180.045 164.684 179.656C164.076 179.267 163.61 178.728 163.284 178.04C162.959 177.352 162.796 176.563 162.796 175.672C162.796 174.765 162.962 173.971 163.292 173.288C163.623 172.605 164.092 172.075 164.7 171.696C165.314 171.312 166.042 171.12 166.884 171.12C167.748 171.12 168.484 171.315 169.092 171.704C169.706 172.088 170.172 172.624 170.492 173.312C170.818 173.995 170.98 174.781 170.98 175.672C170.98 176.579 170.818 177.376 170.492 178.064C170.167 178.747 169.698 179.28 169.084 179.664C168.471 180.048 167.738 180.24 166.884 180.24ZM166.884 179.112C167.844 179.112 168.559 178.795 169.028 178.16C169.498 177.52 169.732 176.691 169.732 175.672C169.732 174.627 169.495 173.795 169.02 173.176C168.551 172.557 167.839 172.248 166.884 172.248C166.239 172.248 165.706 172.395 165.284 172.688C164.868 172.976 164.556 173.379 164.348 173.896C164.146 174.408 164.044 175 164.044 175.672C164.044 176.712 164.284 177.547 164.764 178.176C165.244 178.8 165.951 179.112 166.884 179.112ZM172.105 181.92V178.992C172.596 178.992 172.948 178.835 173.161 178.52C173.374 178.2 173.548 177.691 173.681 176.992C173.772 176.539 173.846 176.051 173.905 175.528C173.964 175.005 174.014 174.408 174.057 173.736C174.1 173.059 174.14 172.267 174.177 171.36H179.889V178.992H180.721V181.92H179.585V180H173.233V181.92H172.105ZM174.097 178.992H178.721V172.368H175.265C175.249 172.773 175.225 173.203 175.193 173.656C175.166 174.109 175.132 174.563 175.089 175.016C175.052 175.469 175.006 175.896 174.953 176.296C174.905 176.691 174.846 177.037 174.777 177.336C174.697 177.72 174.609 178.048 174.513 178.32C174.422 178.592 174.284 178.816 174.097 178.992Z" fill="#4D4D4D"/>
</g>
<defs>
<clipPath id="clip0_656_27042">
<rect width="324" height="444" rx="24" fill="white"/>
</clipPath>
</defs>
</svg>
