<svg width="288" height="130" viewBox="0 0 288 130" fill="none" xmlns="http://www.w3.org/2000/svg">
<path d="M0 20.6667H288" stroke="#DDDDDD" stroke-opacity="0.6" stroke-dasharray="2 2"/>
<path d="M0 41.8333H288" stroke="#DDDDDD" stroke-opacity="0.6" stroke-dasharray="2 2"/>
<path d="M0 63H288" stroke="#DDDDDD" stroke-opacity="0.6" stroke-dasharray="2 2"/>
<path d="M0 84.1667H288" stroke="#DDDDDD" stroke-opacity="0.6" stroke-dasharray="2 2"/>
<path d="M0 105.333H288" stroke="#DDDDDD" stroke-opacity="0.6" stroke-dasharray="2 2"/>
<rect y="126" width="288" height="1" fill="#DDDDDD" fill-opacity="0.4"/>
<rect y="-1" width="1" height="128" fill="white" fill-opacity="0.4"/>
<rect y="127" width="1" height="3" fill="white" fill-opacity="0.4"/>
<path d="M32.5 -1V127" stroke="#DDDDDD" stroke-opacity="0.6" stroke-dasharray="2 2"/>
<rect x="32" y="127" width="1" height="3" fill="white" fill-opacity="0.2"/>
<path d="M64.3887 -1V127" stroke="#DDDDDD" stroke-opacity="0.6" stroke-dasharray="2 2"/>
<rect x="63.8887" y="127" width="1" height="3" fill="white" fill-opacity="0.2"/>
<path d="M96.2773 -1V127" stroke="#DDDDDD" stroke-opacity="0.6" stroke-dasharray="2 2"/>
<rect x="95.7773" y="127" width="1" height="3" fill="white" fill-opacity="0.2"/>
<path d="M128.166 -1V127" stroke="white" stroke-opacity="0.2" stroke-dasharray="2 2"/>
<rect x="127.666" y="127" width="1" height="3" fill="white" fill-opacity="0.2"/>
<path d="M160.055 -1V127" stroke="#DDDDDD" stroke-opacity="0.6" stroke-dasharray="2 2"/>
<rect x="159.555" y="127" width="1" height="3" fill="white" fill-opacity="0.2"/>
<path d="M191.945 -1V127" stroke="#DDDDDD" stroke-opacity="0.6" stroke-dasharray="2 2"/>
<rect x="191.445" y="127" width="1" height="3" fill="white" fill-opacity="0.2"/>
<path d="M223.834 -1V127" stroke="#DDDDDD" stroke-opacity="0.6" stroke-dasharray="2 2"/>
<rect x="223.334" y="127" width="1" height="3" fill="white" fill-opacity="0.2"/>
<path d="M255.723 -1V127" stroke="#DDDDDD" stroke-opacity="0.6" stroke-dasharray="2 2"/>
<rect x="255.223" y="127" width="1" height="3" fill="white" fill-opacity="0.2"/>
<path d="M287.611 -1V127" stroke="white" stroke-opacity="0.2" stroke-dasharray="2 2"/>
<rect x="287.111" y="127" width="1" height="3" fill="white" fill-opacity="0.2"/>
<path d="M0 94.0008C5.79799 92.3578 9.9 91.8008 16.2 91.8008C22.5 91.8008 25.8 90.2008 32.4 90.2008C38.774 90.2008 41.6263 93.3564 48 93.4008C54.598 93.4467 57.9 90.2008 64.2 90.2008C72.7429 90.2008 71.8587 100.108 80.4 100.001C88.7693 99.8958 88.8 91.8008 96 90.2008C102.977 88.6504 104.846 83.8008 112.2 83.8008C119.7 83.8008 120.649 90.3085 127.8 90.2008C136.109 90.0756 135.689 81.0008 144 81.0008C152.311 81.0008 151.889 90.2008 160.2 90.2008C171.3 90.2008 168.167 76.923 175.8 69.4008C182.7 62.6008 181.2 48.8008 192 48.8008C200.4 48.8008 198.6 51.8008 207.6 53.6008C217.88 55.6568 215.1 64.8008 223.8 68.4008C231.262 71.4886 231.6 78.8008 240 78.8008C249.391 78.8008 247.72 67.8515 255.6 66.6008C261.9 65.6008 263.352 67.8008 271.8 67.8008C280.5 67.8008 285.125 62.4836 287.4 56.6008" stroke="url(#paint0_linear_920_49901)" stroke-width="2"/>
<circle opacity="0.2" cx="128.199" cy="89.8008" r="6" fill="url(#paint1_linear_920_49901)"/>
<circle cx="128.199" cy="89.8008" r="3" fill="url(#paint2_linear_920_49901)"/>
<path d="M0 94.0008C5.79799 92.3578 9.9 91.8008 16.2 91.8008C22.5 91.8008 25.8 90.2008 32.4 90.2008C38.774 90.2008 41.6263 93.3564 48 93.4008C54.598 93.4467 57.9 90.2008 64.2 90.2008C72.7429 90.2008 71.8587 100.108 80.4 100.001C88.7693 99.8958 88.8 91.8008 96 90.2008C102.977 88.6504 104.846 83.8008 112.2 83.8008C119.7 83.8008 120.649 90.3085 127.8 90.2008C136.109 90.0756 135.689 81.0008 144 81.0008C152.311 81.0008 151.889 90.2008 160.2 90.2008C171.3 90.2008 168.167 76.923 175.8 69.4008C182.7 62.6008 181.2 48.8008 192 48.8008C200.4 48.8008 198.6 51.8008 207.6 53.6008C217.88 55.6568 215.1 64.8008 223.8 68.4008C231.262 71.4886 231.6 78.8008 240 78.8008C249.391 78.8008 247.72 67.8515 255.6 66.6008C261.9 65.6008 263.352 67.8008 271.8 67.8008C280.5 67.8008 285.125 62.4836 287.4 56.6008" stroke="url(#paint3_linear_920_49901)" stroke-width="2"/>
<circle opacity="0.2" cx="128.199" cy="89.8008" r="6" fill="url(#paint4_linear_920_49901)"/>
<circle cx="128.199" cy="89.8008" r="3" fill="url(#paint5_linear_920_49901)"/>
<path d="M0 22.6006C5.7 30.8007 9 36.2007 16.2 37.4007C23.4 38.6007 24.3 41.2006 32.4 41.2006C40.5 41.2006 41.6263 44.3562 48 44.4006C54.598 44.4465 57.9 41.2006 64.2 41.2006C72.7429 41.2006 75.6613 46.2619 80.4 51.0006C88.2 58.8006 90.9 74.2007 96.6 74.2007C104.1 74.2007 105.6 57.8007 112.2 54.4006C118.135 51.3433 120.649 44.5083 127.8 44.4006C136.109 44.2754 135.689 54.4006 144 54.4006C152.311 54.4006 151.889 44.4006 160.2 44.4006C171.3 44.4006 168.6 58.8006 175.8 58.8006C183 58.8006 186 63.8006 192 63.8006C198 63.8006 198.3 67.6006 207.6 68.6006C218.196 69.7399 216.338 80.3127 223.8 83.4006C231.262 86.4884 234 93.8006 240 93.8006C247.2 93.8006 249.3 81.6006 255.6 81.6006C261.9 81.6006 266.1 92.4006 271.8 92.4006C278.1 92.4006 278.7 84.6007 287.4 84.6007" stroke="url(#paint6_linear_920_49901)" stroke-width="2"/>
<circle opacity="0.2" cx="128.199" cy="43.8007" r="6" fill="url(#paint7_linear_920_49901)"/>
<circle cx="128.199" cy="43.8007" r="3" fill="#1EC55B"/>
<path d="M127.801 -0.599609V126.6" stroke="#1EC55B" stroke-dasharray="2 2"/>
<rect x="138" y="8" width="141" height="92" rx="4" fill="#F9F9F9"/>
<path d="M149.322 31V22.7385H146.13V21.64H153.67V22.7385H150.479V31H149.322ZM156.654 31.195C155.956 31.195 155.354 31.0368 154.847 30.7205C154.344 30.4042 153.956 29.9665 153.683 29.4075C153.41 28.8485 153.274 28.2072 153.274 27.4835C153.274 26.7468 153.413 26.1012 153.69 25.5465C153.967 24.9918 154.359 24.5607 154.866 24.253C155.373 23.941 155.969 23.785 156.654 23.785C157.356 23.785 157.96 23.9432 158.467 24.2595C158.974 24.5715 159.362 25.007 159.631 25.566C159.904 26.1207 160.04 26.7598 160.04 27.4835C160.04 28.2158 159.904 28.8615 159.631 29.4205C159.358 29.9752 158.968 30.4107 158.461 30.727C157.954 31.039 157.352 31.195 156.654 31.195ZM156.654 30.0965C157.382 30.0965 157.924 29.8538 158.279 29.3685C158.634 28.8832 158.812 28.2548 158.812 27.4835C158.812 26.6905 158.632 26.06 158.272 25.592C157.913 25.1197 157.373 24.8835 156.654 24.8835C156.164 24.8835 155.761 24.994 155.445 25.215C155.129 25.436 154.892 25.7415 154.736 26.1315C154.58 26.5215 154.502 26.9722 154.502 27.4835C154.502 28.2722 154.684 28.9048 155.048 29.3815C155.412 29.8582 155.948 30.0965 156.654 30.0965ZM161.465 31V23.98H164.455C164.633 23.98 164.823 23.9908 165.027 24.0125C165.235 24.0298 165.424 24.0623 165.593 24.11C165.97 24.2097 166.279 24.4155 166.522 24.7275C166.769 25.0352 166.893 25.4252 166.893 25.8975C166.893 26.1618 166.851 26.3915 166.769 26.5865C166.691 26.7815 166.578 26.9505 166.431 27.0935C166.366 27.1585 166.295 27.217 166.217 27.269C166.139 27.321 166.061 27.3622 165.983 27.3925C166.134 27.4185 166.288 27.477 166.444 27.568C166.691 27.7023 166.884 27.8908 167.023 28.1335C167.166 28.3762 167.237 28.686 167.237 29.063C167.237 29.5397 167.122 29.934 166.893 30.246C166.663 30.5537 166.347 30.766 165.944 30.883C165.775 30.9307 165.588 30.9632 165.385 30.9805C165.181 30.9935 164.984 31 164.793 31H161.465ZM162.635 30.0575H164.728C164.819 30.0575 164.927 30.0488 165.053 30.0315C165.183 30.0142 165.298 29.9925 165.398 29.9665C165.623 29.9015 165.785 29.7802 165.885 29.6025C165.989 29.4248 166.041 29.232 166.041 29.024C166.041 28.7467 165.963 28.5213 165.807 28.348C165.655 28.1747 165.454 28.0663 165.203 28.023C165.112 27.997 165.012 27.9818 164.904 27.9775C164.8 27.9732 164.706 27.971 164.624 27.971H162.635V30.0575ZM162.635 27.0155H164.377C164.498 27.0155 164.626 27.009 164.761 26.996C164.895 26.9787 165.012 26.9505 165.112 26.9115C165.311 26.8378 165.456 26.7165 165.547 26.5475C165.642 26.3742 165.69 26.1857 165.69 25.982C165.69 25.7567 165.638 25.5595 165.534 25.3905C165.434 25.2172 165.281 25.098 165.073 25.033C164.934 24.981 164.778 24.9528 164.605 24.9485C164.436 24.9398 164.327 24.9355 164.28 24.9355H162.635V27.0155ZM170.538 31.195C170.014 31.195 169.574 31.0997 169.219 30.909C168.868 30.714 168.601 30.4583 168.419 30.142C168.242 29.8257 168.153 29.479 168.153 29.102C168.153 28.7337 168.222 28.4152 168.361 28.1465C168.504 27.8735 168.703 27.6482 168.959 27.4705C169.214 27.2885 169.52 27.1455 169.875 27.0415C170.209 26.9505 170.582 26.8725 170.993 26.8075C171.409 26.7382 171.83 26.6753 172.254 26.619C172.679 26.5627 173.075 26.5085 173.444 26.4565L173.028 26.697C173.041 26.073 172.915 25.6115 172.651 25.3125C172.391 25.0135 171.94 24.864 171.299 24.864C170.874 24.864 170.501 24.9615 170.181 25.1565C169.864 25.3472 169.641 25.6592 169.511 26.0925L168.413 25.761C168.582 25.1457 168.909 24.6625 169.394 24.3115C169.88 23.9605 170.519 23.785 171.312 23.785C171.949 23.785 172.495 23.8998 172.95 24.1295C173.409 24.3548 173.738 24.6972 173.938 25.1565C174.037 25.3732 174.1 25.6093 174.126 25.865C174.152 26.1163 174.165 26.3807 174.165 26.658V31H173.138V29.3165L173.379 29.4725C173.114 30.0402 172.744 30.4692 172.267 30.7595C171.795 31.0498 171.219 31.195 170.538 31.195ZM170.714 30.2265C171.13 30.2265 171.489 30.1528 171.793 30.0055C172.1 29.8538 172.347 29.6567 172.534 29.414C172.72 29.167 172.841 28.8983 172.898 28.608C172.963 28.3913 172.997 28.1508 173.002 27.8865C173.01 27.6178 173.015 27.412 173.015 27.269L173.418 27.4445C173.041 27.4965 172.67 27.5463 172.306 27.594C171.942 27.6417 171.598 27.6937 171.273 27.75C170.948 27.802 170.655 27.8648 170.395 27.9385C170.205 27.9992 170.025 28.0772 169.856 28.1725C169.691 28.2678 169.557 28.3913 169.453 28.543C169.353 28.6903 169.303 28.8745 169.303 29.0955C169.303 29.2862 169.351 29.4682 169.446 29.6415C169.546 29.8148 169.698 29.9557 169.901 30.064C170.109 30.1723 170.38 30.2265 170.714 30.2265ZM179.079 31.195C178.421 31.195 177.866 31.0325 177.415 30.7075C176.965 30.3782 176.622 29.934 176.388 29.375C176.159 28.8117 176.044 28.1812 176.044 27.4835C176.044 26.7772 176.159 26.1445 176.388 25.5855C176.622 25.0265 176.965 24.5867 177.415 24.266C177.87 23.9453 178.427 23.785 179.086 23.785C179.736 23.785 180.295 23.9475 180.763 24.2725C181.235 24.5932 181.597 25.033 181.848 25.592C182.1 26.151 182.225 26.7815 182.225 27.4835C182.225 28.1855 182.1 28.816 181.848 29.375C181.597 29.934 181.235 30.3782 180.763 30.7075C180.295 31.0325 179.734 31.195 179.079 31.195ZM175.849 34.12V23.98H176.882V29.1475H177.012V34.12H175.849ZM178.936 30.1355C179.4 30.1355 179.783 30.0185 180.087 29.7845C180.39 29.5505 180.618 29.2342 180.769 28.8355C180.921 28.4325 180.997 27.9818 180.997 27.4835C180.997 26.9895 180.921 26.5432 180.769 26.1445C180.622 25.7458 180.392 25.4295 180.08 25.1955C179.773 24.9615 179.38 24.8445 178.904 24.8445C178.449 24.8445 178.072 24.9572 177.773 25.1825C177.474 25.4035 177.251 25.7133 177.103 26.112C176.956 26.5063 176.882 26.9635 176.882 27.4835C176.882 27.9948 176.954 28.452 177.097 28.855C177.244 29.2537 177.469 29.5678 177.773 29.7975C178.076 30.0228 178.464 30.1355 178.936 30.1355ZM183.65 31L183.644 23.98H184.807V26.5215H185.88C186.083 26.5215 186.291 26.5258 186.504 26.5345C186.716 26.5432 186.9 26.5627 187.056 26.593C187.42 26.6667 187.739 26.7902 188.012 26.9635C188.285 27.1368 188.497 27.3708 188.649 27.6655C188.8 27.9602 188.876 28.3263 188.876 28.764C188.876 29.3707 188.718 29.8517 188.402 30.207C188.09 30.558 187.68 30.792 187.173 30.909C187 30.948 186.801 30.974 186.575 30.987C186.354 30.9957 186.144 31 185.945 31H183.65ZM184.807 30.0445H185.964C186.094 30.0445 186.239 30.0402 186.4 30.0315C186.56 30.0228 186.703 30.0012 186.829 29.9665C187.05 29.9015 187.247 29.7737 187.42 29.583C187.598 29.3923 187.687 29.1193 187.687 28.764C187.687 28.4043 187.6 28.127 187.427 27.932C187.258 27.737 187.035 27.6092 186.757 27.5485C186.632 27.5182 186.499 27.4987 186.361 27.49C186.222 27.4813 186.09 27.477 185.964 27.477H184.807V30.0445ZM189.682 31V23.98H190.839V31H189.682ZM193.184 30.025V28.751H194.458V30.025H193.184ZM193.19 26.229V24.955H194.464V26.229H193.19Z" fill="#333333"/>
<rect x="148" y="50" width="8" height="8" rx="1" fill="url(#paint8_linear_920_49901)"/>
<path d="M170.7 59.195C169.768 59.195 168.981 58.9892 168.34 58.5775C167.699 58.1615 167.213 57.5873 166.884 56.855C166.555 56.1227 166.39 55.2777 166.39 54.32C166.39 53.3623 166.555 52.5173 166.884 51.785C167.213 51.0527 167.699 50.4807 168.34 50.069C168.981 49.653 169.768 49.445 170.7 49.445C171.787 49.445 172.676 49.7245 173.365 50.2835C174.054 50.8382 174.526 51.5835 174.782 52.5195L173.807 52.773C173.607 52.032 173.25 51.4448 172.734 51.0115C172.218 50.5782 171.54 50.3615 170.7 50.3615C169.967 50.3615 169.358 50.5283 168.873 50.862C168.388 51.1957 168.022 51.6615 167.775 52.2595C167.532 52.8532 167.406 53.54 167.398 54.32C167.393 55.1 167.512 55.7868 167.755 56.3805C168.002 56.9742 168.37 57.44 168.86 57.778C169.354 58.1117 169.967 58.2785 170.7 58.2785C171.54 58.2785 172.218 58.0618 172.734 57.6285C173.25 57.1908 173.607 56.6037 173.807 55.867L174.782 56.1205C174.526 57.0565 174.054 57.804 173.365 58.363C172.676 58.9177 171.787 59.195 170.7 59.195ZM176.209 59L176.216 51.98H177.178V55.36L180.311 51.98H181.585L178.296 55.49L182.014 59H180.623L177.178 55.62V59H176.209ZM181.888 59V58.1615C182.148 58.2092 182.345 58.1983 182.479 58.129C182.618 58.0553 182.72 57.934 182.785 57.765C182.85 57.5917 182.904 57.3772 182.947 57.1215C183.017 56.6968 183.08 56.2288 183.136 55.7175C183.192 55.2062 183.242 54.6428 183.285 54.0275C183.333 53.4078 183.381 52.7253 183.428 51.98H188.199V59H187.25V52.8965H184.312C184.282 53.3558 184.247 53.813 184.208 54.268C184.169 54.723 184.128 55.1607 184.085 55.581C184.046 55.997 184.003 56.3805 183.955 56.7315C183.907 57.0825 183.857 57.3858 183.805 57.6415C183.727 58.0272 183.623 58.3348 183.493 58.5645C183.368 58.7942 183.179 58.9458 182.928 59.0195C182.677 59.0932 182.33 59.0867 181.888 59ZM192.024 59.195C191.495 59.195 191.051 59.0997 190.691 58.909C190.336 58.7183 190.07 58.4648 189.892 58.1485C189.714 57.8322 189.625 57.4877 189.625 57.115C189.625 56.7337 189.701 56.4087 189.853 56.14C190.009 55.867 190.219 55.6438 190.483 55.4705C190.752 55.2972 191.062 55.165 191.413 55.074C191.768 54.9873 192.16 54.9115 192.589 54.8465C193.023 54.7772 193.445 54.7187 193.857 54.671C194.273 54.619 194.637 54.5692 194.949 54.5215L194.611 54.7295C194.624 54.0362 194.49 53.5227 194.208 53.189C193.926 52.8553 193.437 52.6885 192.739 52.6885C192.258 52.6885 191.851 52.7968 191.517 53.0135C191.188 53.2302 190.956 53.5725 190.821 54.0405L189.892 53.7675C190.052 53.1392 190.375 52.6517 190.86 52.305C191.346 51.9583 191.976 51.785 192.752 51.785C193.393 51.785 193.937 51.9063 194.383 52.149C194.834 52.3873 195.153 52.734 195.339 53.189C195.426 53.3927 195.482 53.6202 195.508 53.8715C195.534 54.1228 195.547 54.3785 195.547 54.6385V59H194.695V57.2385L194.942 57.3425C194.704 57.9448 194.334 58.4042 193.831 58.7205C193.328 59.0368 192.726 59.195 192.024 59.195ZM192.134 58.3695C192.581 58.3695 192.971 58.2893 193.304 58.129C193.638 57.9687 193.907 57.7498 194.11 57.4725C194.314 57.1908 194.446 56.8745 194.507 56.5235C194.559 56.2982 194.587 56.0512 194.591 55.7825C194.596 55.5095 194.598 55.3058 194.598 55.1715L194.962 55.36C194.637 55.4033 194.284 55.4467 193.902 55.49C193.525 55.5333 193.153 55.5832 192.784 55.6395C192.42 55.6958 192.091 55.763 191.796 55.841C191.597 55.8973 191.404 55.9775 191.218 56.0815C191.032 56.1812 190.878 56.3155 190.756 56.4845C190.639 56.6535 190.581 56.8637 190.581 57.115C190.581 57.3187 190.631 57.5158 190.73 57.7065C190.834 57.8972 190.999 58.0553 191.224 58.181C191.454 58.3067 191.757 58.3695 192.134 58.3695ZM196.719 60.56V58.181C197.118 58.181 197.404 58.0532 197.577 57.7975C197.75 57.5375 197.891 57.1237 198 56.556C198.073 56.1877 198.134 55.7912 198.182 55.3665C198.229 54.9418 198.27 54.4565 198.305 53.9105C198.34 53.3602 198.372 52.7167 198.403 51.98H203.044V58.181H203.72V60.56H202.797V59H197.636V60.56H196.719ZM198.338 58.181H202.095V52.799H199.287C199.274 53.1283 199.254 53.4772 199.228 53.8455C199.206 54.2138 199.178 54.5822 199.144 54.9505C199.113 55.3188 199.076 55.6655 199.033 55.9905C198.994 56.3112 198.946 56.5928 198.89 56.8355C198.825 57.1475 198.754 57.414 198.676 57.635C198.602 57.856 198.489 58.038 198.338 58.181Z" fill="#333333" fill-opacity="0.6"/>
<path d="M258.672 59.195C258.187 59.195 257.739 59.0953 257.327 58.896C256.915 58.6967 256.564 58.4215 256.274 58.0705C255.984 57.7195 255.776 57.3165 255.65 56.8615L256.567 56.6145C256.649 56.9525 256.798 57.245 257.015 57.492C257.232 57.7347 257.485 57.9232 257.776 58.0575C258.07 58.1918 258.378 58.259 258.699 58.259C259.115 58.259 259.487 58.1593 259.817 57.96C260.15 57.7563 260.415 57.4877 260.61 57.154C260.805 56.8203 260.902 56.4542 260.902 56.0555C260.902 55.6438 260.8 55.2733 260.597 54.944C260.393 54.6103 260.124 54.346 259.791 54.151C259.457 53.956 259.093 53.8585 258.699 53.8585C258.257 53.8585 257.875 53.956 257.555 54.151C257.234 54.3417 256.978 54.5822 256.788 54.8725L255.917 54.5085L256.203 49.64H261.201V50.5565H256.625L257.1 50.108L256.846 54.2615L256.606 53.943C256.874 53.6353 257.199 53.3948 257.581 53.2215C257.962 53.0482 258.363 52.9615 258.783 52.9615C259.359 52.9615 259.879 53.1002 260.343 53.3775C260.807 53.6505 261.175 54.021 261.448 54.489C261.721 54.957 261.858 55.4792 261.858 56.0555C261.858 56.6275 261.712 57.1518 261.422 57.6285C261.132 58.1008 260.746 58.48 260.265 58.766C259.784 59.052 259.253 59.195 258.672 59.195ZM266.468 59.195C265.892 59.195 265.372 59.0607 264.908 58.792C264.449 58.5233 264.085 58.1593 263.816 57.7C263.547 57.2363 263.413 56.7163 263.413 56.14V52.5C263.413 51.9237 263.547 51.4058 263.816 50.9465C264.085 50.4828 264.449 50.1167 264.908 49.848C265.372 49.5793 265.892 49.445 266.468 49.445C267.044 49.445 267.562 49.5793 268.021 49.848C268.485 50.1167 268.851 50.4828 269.12 50.9465C269.389 51.4058 269.523 51.9237 269.523 52.5V56.14C269.523 56.7163 269.389 57.2363 269.12 57.7C268.851 58.1593 268.485 58.5233 268.021 58.792C267.562 59.0607 267.044 59.195 266.468 59.195ZM266.468 58.272C266.854 58.272 267.205 58.1788 267.521 57.9925C267.837 57.8018 268.089 57.5483 268.275 57.232C268.461 56.9157 268.554 56.5668 268.554 56.1855V52.4545C268.554 52.0688 268.461 51.7178 268.275 51.4015C268.089 51.0852 267.837 50.8338 267.521 50.6475C267.205 50.4568 266.854 50.3615 266.468 50.3615C266.082 50.3615 265.731 50.4568 265.415 50.6475C265.099 50.8338 264.847 51.0852 264.661 51.4015C264.475 51.7178 264.381 52.0688 264.381 52.4545V56.1855C264.381 56.5668 264.475 56.9157 264.661 57.232C264.847 57.5483 265.099 57.8018 265.415 57.9925C265.731 58.1788 266.082 58.272 266.468 58.272Z" fill="#333333" fill-opacity="0.6"/>
<rect x="148" y="78" width="8" height="8" rx="1" fill="url(#paint9_linear_920_49901)"/>
<path d="M166.91 87V77.64H174.08V87H173.124V78.5565H167.866V87H166.91ZM178.83 87.195C178.132 87.195 177.536 87.0368 177.042 86.7205C176.548 86.4042 176.169 85.9665 175.905 85.4075C175.64 84.8485 175.508 84.2072 175.508 83.4835C175.508 82.7468 175.643 82.1012 175.911 81.5465C176.18 80.9918 176.561 80.5607 177.055 80.253C177.554 79.941 178.145 79.785 178.83 79.785C179.532 79.785 180.13 79.9432 180.624 80.2595C181.122 80.5715 181.501 81.007 181.761 81.566C182.026 82.1207 182.158 82.7598 182.158 83.4835C182.158 84.2202 182.026 84.868 181.761 85.427C181.497 85.9817 181.116 86.415 180.617 86.727C180.119 87.039 179.523 87.195 178.83 87.195ZM178.83 86.2785C179.61 86.2785 180.19 86.0207 180.572 85.505C180.953 84.985 181.144 84.3112 181.144 83.4835C181.144 82.6342 180.951 81.9582 180.565 81.4555C180.184 80.9528 179.605 80.7015 178.83 80.7015C178.305 80.7015 177.872 80.8207 177.53 81.059C177.192 81.293 176.938 81.6202 176.769 82.0405C176.605 82.4565 176.522 82.9375 176.522 83.4835C176.522 84.3285 176.717 85.0067 177.107 85.518C177.497 86.025 178.071 86.2785 178.83 86.2785ZM186.504 87.195C185.797 87.195 185.199 87.0368 184.71 86.7205C184.22 86.4042 183.847 85.9687 183.592 85.414C183.34 84.855 183.21 84.2137 183.202 83.49C183.21 82.7533 183.345 82.1077 183.605 81.553C183.865 80.994 184.239 80.5607 184.729 80.253C185.219 79.941 185.812 79.785 186.51 79.785C187.221 79.785 187.838 79.9583 188.363 80.305C188.891 80.6517 189.253 81.1262 189.448 81.7285L188.512 82.0275C188.347 81.6072 188.085 81.2822 187.726 81.0525C187.37 80.8185 186.963 80.7015 186.504 80.7015C185.988 80.7015 185.561 80.8207 185.223 81.059C184.885 81.293 184.634 81.6202 184.469 82.0405C184.304 82.4608 184.22 82.944 184.216 83.49C184.224 84.3307 184.419 85.0067 184.801 85.518C185.182 86.025 185.75 86.2785 186.504 86.2785C186.98 86.2785 187.385 86.1702 187.719 85.9535C188.057 85.7325 188.313 85.4118 188.486 84.9915L189.448 85.2775C189.188 85.9015 188.807 86.3782 188.304 86.7075C187.801 87.0325 187.201 87.195 186.504 87.195ZM192.529 87V80.864H190.04V79.98H195.974V80.864H193.485V87H192.529ZM198.956 87.195C198.427 87.195 197.983 87.0997 197.623 86.909C197.268 86.7183 197.001 86.4648 196.824 86.1485C196.646 85.8322 196.557 85.4877 196.557 85.115C196.557 84.7337 196.633 84.4087 196.785 84.14C196.941 83.867 197.151 83.6438 197.415 83.4705C197.684 83.2972 197.994 83.165 198.345 83.074C198.7 82.9873 199.092 82.9115 199.521 82.8465C199.954 82.7772 200.377 82.7187 200.789 82.671C201.205 82.619 201.569 82.5692 201.881 82.5215L201.543 82.7295C201.556 82.0362 201.421 81.5227 201.14 81.189C200.858 80.8553 200.368 80.6885 199.671 80.6885C199.19 80.6885 198.782 80.7968 198.449 81.0135C198.119 81.2302 197.887 81.5725 197.753 82.0405L196.824 81.7675C196.984 81.1392 197.307 80.6517 197.792 80.305C198.277 79.9583 198.908 79.785 199.684 79.785C200.325 79.785 200.869 79.9063 201.315 80.149C201.766 80.3873 202.084 80.734 202.271 81.189C202.357 81.3927 202.414 81.6202 202.44 81.8715C202.466 82.1228 202.479 82.3785 202.479 82.6385V87H201.627V85.2385L201.874 85.3425C201.636 85.9448 201.265 86.4042 200.763 86.7205C200.26 87.0368 199.658 87.195 198.956 87.195ZM199.066 86.3695C199.512 86.3695 199.902 86.2893 200.236 86.129C200.57 85.9687 200.838 85.7498 201.042 85.4725C201.246 85.1908 201.378 84.8745 201.439 84.5235C201.491 84.2982 201.519 84.0512 201.523 83.7825C201.527 83.5095 201.53 83.3058 201.53 83.1715L201.894 83.36C201.569 83.4033 201.215 83.4467 200.834 83.49C200.457 83.5333 200.084 83.5832 199.716 83.6395C199.352 83.6958 199.023 83.763 198.728 83.841C198.529 83.8973 198.336 83.9775 198.15 84.0815C197.963 84.1812 197.809 84.3155 197.688 84.4845C197.571 84.6535 197.513 84.8637 197.513 85.115C197.513 85.3187 197.562 85.5158 197.662 85.7065C197.766 85.8972 197.931 86.0553 198.156 86.181C198.386 86.3067 198.689 86.3695 199.066 86.3695ZM204.164 87V79.98H207.057C207.204 79.98 207.382 79.9887 207.59 80.006C207.802 80.0233 207.999 80.0558 208.181 80.1035C208.576 80.2075 208.892 80.4198 209.13 80.7405C209.373 81.0612 209.494 81.4468 209.494 81.8975C209.494 82.1488 209.455 82.3742 209.377 82.5735C209.304 82.7685 209.197 82.9375 209.059 83.0805C208.994 83.1542 208.922 83.2192 208.844 83.2755C208.766 83.3275 208.69 83.3708 208.617 83.4055C208.755 83.4315 208.905 83.4922 209.065 83.5875C209.317 83.7348 209.507 83.9342 209.637 84.1855C209.767 84.4325 209.832 84.7337 209.832 85.089C209.832 85.57 209.717 85.9622 209.488 86.2655C209.258 86.5688 208.95 86.7768 208.565 86.8895C208.391 86.9372 208.203 86.9675 207.999 86.9805C207.8 86.9935 207.611 87 207.434 87H204.164ZM205.126 86.1875H207.388C207.479 86.1875 207.594 86.181 207.733 86.168C207.871 86.1507 207.995 86.129 208.103 86.103C208.359 86.038 208.545 85.908 208.662 85.713C208.784 85.5137 208.844 85.297 208.844 85.063C208.844 84.7553 208.753 84.504 208.571 84.309C208.394 84.1097 208.155 83.9883 207.856 83.945C207.757 83.9233 207.653 83.9103 207.544 83.906C207.436 83.9017 207.338 83.8995 207.252 83.8995H205.126V86.1875ZM205.126 83.0805H207.089C207.202 83.0805 207.328 83.074 207.466 83.061C207.609 83.0437 207.733 83.0155 207.837 82.9765C208.062 82.8985 208.227 82.7642 208.331 82.5735C208.439 82.3828 208.493 82.1748 208.493 81.9495C208.493 81.7025 208.435 81.4858 208.318 81.2995C208.205 81.1132 208.034 80.9832 207.804 80.9095C207.648 80.8532 207.479 80.8207 207.297 80.812C207.12 80.8033 207.007 80.799 206.959 80.799H205.126V83.0805ZM219.129 88.2155V87H211.121V79.98H212.051V86.116H214.683V79.98H215.613V86.116H218.239V79.98H219.168V86.116H220.085V88.2155H219.129ZM226.696 79.98V87H225.766V81.5335L221.918 87H221.112V79.98H222.042V85.401L225.896 79.98H226.696ZM228.514 87L228.52 79.98H229.482V83.36L232.615 79.98H233.889L230.6 83.49L234.318 87H232.927L229.482 83.62V87H228.514Z" fill="#333333" fill-opacity="0.6"/>
<path d="M253.542 87V78.706L251.78 79.7655V78.693L253.542 77.64H254.51V87H253.542ZM257.476 87L260.921 78.5695H256.585V77.64H261.941V78.5695L258.503 87H257.476ZM266.263 87.195C265.778 87.195 265.329 87.0953 264.918 86.896C264.506 86.6967 264.155 86.4215 263.865 86.0705C263.574 85.7195 263.366 85.3165 263.241 84.8615L264.157 84.6145C264.24 84.9525 264.389 85.245 264.606 85.492C264.822 85.7347 265.076 85.9232 265.366 86.0575C265.661 86.1918 265.969 86.259 266.289 86.259C266.705 86.259 267.078 86.1593 267.407 85.96C267.741 85.7563 268.005 85.4877 268.2 85.154C268.395 84.8203 268.493 84.4542 268.493 84.0555C268.493 83.6438 268.391 83.2733 268.187 82.944C267.984 82.6103 267.715 82.346 267.381 82.151C267.048 81.956 266.684 81.8585 266.289 81.8585C265.847 81.8585 265.466 81.956 265.145 82.151C264.825 82.3417 264.569 82.5822 264.378 82.8725L263.507 82.5085L263.793 77.64H268.792V78.5565H264.216L264.69 78.108L264.437 82.2615L264.196 81.943C264.465 81.6353 264.79 81.3948 265.171 81.2215C265.553 81.0482 265.953 80.9615 266.374 80.9615C266.95 80.9615 267.47 81.1002 267.934 81.3775C268.397 81.6505 268.766 82.021 269.039 82.489C269.312 82.957 269.448 83.4792 269.448 84.0555C269.448 84.6275 269.303 85.1518 269.013 85.6285C268.722 86.1008 268.337 86.48 267.856 86.766C267.375 87.052 266.844 87.195 266.263 87.195Z" fill="#333333" fill-opacity="0.6"/>
<defs>
<linearGradient id="paint0_linear_920_49901" x1="287.4" y1="74.1317" x2="-1.44236e-06" y2="74.1317" gradientUnits="userSpaceOnUse">
<stop stop-color="#3DFFDC"/>
<stop offset="1" stop-color="#3DFFDC" stop-opacity="0.2"/>
</linearGradient>
<linearGradient id="paint1_linear_920_49901" x1="134.199" y1="89.7376" x2="122.199" y2="89.7376" gradientUnits="userSpaceOnUse">
<stop stop-color="#3DFFDC"/>
<stop offset="1" stop-color="#3DFFDC" stop-opacity="0.2"/>
</linearGradient>
<linearGradient id="paint2_linear_920_49901" x1="131.199" y1="89.7692" x2="125.199" y2="89.7692" gradientUnits="userSpaceOnUse">
<stop stop-color="#3DFFDC"/>
<stop offset="1" stop-color="#3DFFDC" stop-opacity="0.2"/>
</linearGradient>
<linearGradient id="paint3_linear_920_49901" x1="287.4" y1="74.1317" x2="2.77084e-06" y2="74.1318" gradientUnits="userSpaceOnUse">
<stop stop-color="#1EC55B"/>
<stop offset="1" stop-color="#1EC55B" stop-opacity="0.2"/>
</linearGradient>
<linearGradient id="paint4_linear_920_49901" x1="134.199" y1="89.7376" x2="122.199" y2="89.7376" gradientUnits="userSpaceOnUse">
<stop stop-color="#3DFFDC"/>
<stop offset="1" stop-color="#3DFFDC" stop-opacity="0.2"/>
</linearGradient>
<linearGradient id="paint5_linear_920_49901" x1="131.199" y1="89.7692" x2="125.199" y2="89.7692" gradientUnits="userSpaceOnUse">
<stop stop-color="#3DFFDC"/>
<stop offset="1" stop-color="#3DFFDC" stop-opacity="0.2"/>
</linearGradient>
<linearGradient id="paint6_linear_920_49901" x1="287.4" y1="57.8258" x2="2.77084e-06" y2="57.8259" gradientUnits="userSpaceOnUse">
<stop stop-color="#861EC5"/>
<stop offset="1" stop-color="#861EC5" stop-opacity="0.2"/>
</linearGradient>
<linearGradient id="paint7_linear_920_49901" x1="134.199" y1="43.7375" x2="122.199" y2="43.7375" gradientUnits="userSpaceOnUse">
<stop stop-color="#1EC55B"/>
<stop offset="1" stop-color="#1ED6FF" stop-opacity="0.2"/>
</linearGradient>
<linearGradient id="paint8_linear_920_49901" x1="156" y1="53.9579" x2="148" y2="53.9579" gradientUnits="userSpaceOnUse">
<stop stop-color="#1EC55B"/>
<stop offset="1" stop-color="#1EC55B" stop-opacity="0.2"/>
</linearGradient>
<linearGradient id="paint9_linear_920_49901" x1="156" y1="81.9579" x2="148" y2="81.9579" gradientUnits="userSpaceOnUse">
<stop stop-color="#861EC5"/>
<stop offset="1" stop-color="#861EC5" stop-opacity="0.2"/>
</linearGradient>
</defs>
</svg>
