<svg width="1572" height="1344" viewBox="0 0 1572 1344" fill="none" xmlns="http://www.w3.org/2000/svg">
<g filter="url(#filter0_f_0_4)">
<path fill-rule="evenodd" clip-rule="evenodd" d="M702.764 420.148L707.357 418.606L711.977 417.117L716.622 415.681L721.292 414.301L725.984 412.979L730.695 411.716L735.424 410.515L740.167 409.375L744.924 408.299L749.69 407.287L754.465 406.341L759.244 405.461L764.025 404.648L768.807 403.903L773.585 403.226L778.358 402.617L783.123 402.077L787.877 401.606L792.618 401.202L797.343 400.867L802.05 400.6L806.736 400.399L811.4 400.266L816.039 400.198L820.652 400.195L825.235 400.256L829.788 400.38L834.309 400.566L838.795 400.813L843.247 401.118L847.662 401.481L852.039 401.9L856.377 402.374L860.675 402.901L864.933 403.479L869.15 404.106L873.326 404.782L877.46 405.503L881.552 406.268L885.603 407.075L889.611 407.923L893.579 408.808L897.506 409.731L901.392 410.687L905.24 411.676L909.048 412.696L912.82 413.744L916.555 414.818L920.256 415.918L923.923 417.04L927.559 418.183L931.164 419.346L934.741 420.527L938.292 421.723L941.818 422.934L945.322 424.158L948.805 425.394L952.27 426.641L955.718 427.897L959.152 429.162L962.574 430.434L965.985 431.713L969.389 432.998L972.785 434.289L976.178 435.585L979.568 436.887L982.956 438.193L986.345 439.506L989.736 440.823L993.13 442.147L996.527 443.477L999.93 444.815L1003.34 446.16L1006.75 447.515L1010.17 448.88L1013.6 450.256L1017.03 451.644L1020.47 453.046L1023.91 454.462L1027.36 455.894L1030.82 457.343L1034.28 458.81L1037.75 460.296L1041.22 461.802L1044.7 463.33L1048.18 464.881L1051.66 466.455L1055.15 468.056L1058.63 469.683L1062.11 471.338L1065.59 473.023L1069.07 474.739L1072.54 476.488L1076 478.271L1079.45 480.09L1082.88 481.946L1086.3 483.841L1089.7 485.775L1093.07 487.752L1096.42 489.771L1099.74 491.835L1103.02 493.944L1106.27 496.101L1109.48 498.305L1112.64 500.557L1115.75 502.86L1118.81 505.213L1121.82 507.618L1124.76 510.074L1127.64 512.583L1130.45 515.144L1133.19 517.758L1135.86 520.424L1138.45 523.143L1140.96 525.915L1143.39 528.738L1145.73 531.613L1147.99 534.538L1150.16 537.514L1152.23 540.54L1154.21 543.615L1156.09 546.738L1157.88 549.908L1159.56 553.124L1161.15 556.386L1162.63 559.692L1164 563.041L1165.27 566.432L1166.42 569.864L1167.47 573.336L1168.41 576.846L1169.24 580.393L1169.95 583.975L1170.55 587.591L1171.04 591.24L1171.41 594.921L1171.67 598.631L1171.82 602.369L1171.85 606.135L1171.76 609.925L1171.56 613.74L1171.25 617.577L1170.82 621.434L1170.28 625.311L1169.62 629.206L1168.85 633.118L1167.97 637.044L1166.98 640.984L1165.87 644.936L1164.66 648.898L1163.33 652.87L1161.9 656.849L1160.35 660.834L1158.7 664.825L1156.94 668.82L1155.08 672.817L1153.12 676.816L1151.06 680.815L1148.9 684.813L1146.64 688.81L1144.29 692.805L1141.85 696.796L1139.31 700.783L1136.69 704.766L1133.98 708.743L1131.19 712.714L1128.31 716.678L1125.35 720.636L1122.3 724.585L1119.18 728.526L1115.98 732.459L1112.71 736.382L1109.35 740.295L1105.92 744.198L1102.42 748.09L1098.84 751.971L1095.19 755.84L1091.46 759.696L1087.67 763.539L1083.8 767.368L1079.86 771.183L1075.84 774.983L1071.76 778.767L1067.61 782.535L1063.38 786.286L1059.09 790.019L1054.72 793.734L1050.29 797.429L1045.79 801.106L1041.22 804.762L1036.58 808.397L1031.88 812.012L1027.11 815.605L1022.27 819.175L1017.37 822.723L1012.41 826.246L1007.38 829.746L1002.28 833.219L997.124 836.667L991.902 840.087L986.616 843.48L981.267 846.842L975.855 850.174L970.379 853.475L964.842 856.742L959.242 859.975L953.58 863.172L947.857 866.332L942.074 869.453L936.23 872.534L930.327 875.574L924.365 878.569L918.345 881.52L912.269 884.425L906.136 887.281L899.948 890.087L893.707 892.842L887.413 895.543L881.069 898.188L874.674 900.777L868.232 903.308L861.744 905.778L855.211 908.186L848.635 910.53L842.019 912.808L835.364 915.019L828.673 917.162L821.948 919.233L815.19 921.232L808.404 923.157L801.59 925.007L794.752 926.778L787.892 928.471L781.014 930.082L774.119 931.611L767.212 933.055L760.294 934.414L753.37 935.686L746.442 936.868L739.514 937.961L732.589 938.961L725.67 939.869L718.762 940.681L711.867 941.399L704.99 942.019L698.134 942.541L691.303 942.964L684.5 943.287L677.73 943.509L670.997 943.63L664.304 943.647L657.655 943.562L651.054 943.373L644.506 943.08L638.015 942.682L631.583 942.18L625.216 941.574L618.916 940.863L612.689 940.049L606.537 939.131L600.464 938.109L594.474 936.986L588.57 935.761L582.755 934.436L577.033 933.013L571.407 931.492L565.878 929.876L560.451 928.167L555.127 926.365L549.909 924.474L544.798 922.495L539.798 920.43L534.909 918.282L530.134 916.053L525.474 913.744L520.93 911.359L516.504 908.9L512.196 906.37L508.009 903.77L503.941 901.104L499.994 898.375L496.169 895.584L492.464 892.735L488.881 889.83L485.419 886.872L482.077 883.864L478.856 880.809L475.753 877.709L472.77 874.568L469.903 871.388L467.152 868.172L464.516 864.923L461.993 861.644L459.58 858.337L457.277 855.005L455.081 851.652L452.99 848.278L451.002 844.888L449.113 841.484L447.322 838.068L445.626 834.643L444.021 831.21L442.506 827.773L441.075 824.334L439.727 820.896L438.456 817.46L437.258 814.03L436.131 810.606L435.068 807.193L434.066 803.791L433.12 800.404L432.226 797.031L431.379 793.676L430.573 790.341L429.805 787.025L429.07 783.731L428.364 780.46L427.681 777.212L427.018 773.988L426.371 770.789L425.735 767.615L425.107 764.465L424.484 761.341L423.862 758.241L423.239 755.164L422.611 752.112L421.978 749.081L421.335 746.073L420.683 743.084L420.019 740.115L419.343 737.163L418.654 734.227L417.952 731.306L417.236 728.398L416.508 725.501L415.767 722.613L415.014 719.732L414.252 716.857L413.481 713.985L412.703 711.116L411.92 708.246L411.133 705.375L410.347 702.499L409.562 699.618L408.784 696.73L408.014 693.833L407.258 690.925L406.519 688.005L405.802 685.07L405.112 682.121L404.454 679.155L403.833 676.17L403.255 673.168L402.725 670.145L402.249 667.102L401.832 664.038L401.481 660.953L401.202 657.847L400.999 654.72L400.88 651.572L400.848 648.403L400.911 645.215L401.073 642.008L401.339 638.783L401.714 635.542L402.203 632.286L402.81 629.017L403.539 625.737L404.393 622.447L405.376 619.15L406.491 615.849L407.74 612.545L409.124 609.242L410.647 605.941L412.308 602.646L414.108 599.36L416.048 596.085L418.126 592.824L420.342 589.58L422.694 586.356L425.179 583.154L427.794 579.978L430.535 576.829L433.398 573.71L436.378 570.622L439.471 567.569L442.671 564.552L445.972 561.572L449.369 558.631L452.854 555.729L456.423 552.868L460.067 550.048L463.781 547.27L467.557 544.534L471.39 541.839L475.273 539.185L479.199 536.572L483.162 533.999L487.156 531.464L491.176 528.967L495.215 526.505L499.268 524.078L503.331 521.684L507.399 519.32L511.468 516.985L515.533 514.677L519.593 512.392L523.643 510.131L527.682 507.889L531.708 505.665L535.718 503.457L539.712 501.262L543.69 499.079L547.651 496.906L551.596 494.741L555.525 492.583L559.44 490.431L563.342 488.283L567.232 486.138L571.113 483.996L574.986 481.856L578.854 479.717L582.718 477.579L586.582 475.443L590.447 473.307L594.316 471.172L598.191 469.039L602.075 466.908L605.97 464.78L609.879 462.655L613.804 460.534L617.747 458.42L621.711 456.312L625.698 454.213L629.709 452.123L633.747 450.046L637.813 447.982L641.908 445.934L646.035 443.904L650.194 441.893L654.386 439.904L658.612 437.939L662.872 436.001L667.167 434.092L671.498 432.215L675.863 430.37L680.264 428.563L684.698 426.793L689.167 425.065L693.668 423.379L698.201 421.74L702.764 420.148Z" fill="#4CC67F"/>
</g>
<defs>
<filter id="filter0_f_0_4" x="0.848328" y="0.19516" width="1571" height="1343.45" filterUnits="userSpaceOnUse" color-interpolation-filters="sRGB">
<feFlood flood-opacity="0" result="BackgroundImageFix"/>
<feBlend mode="normal" in="SourceGraphic" in2="BackgroundImageFix" result="shape"/>
<feGaussianBlur stdDeviation="200" result="effect1_foregroundBlur_0_4"/>
</filter>
</defs>
</svg>
