<svg width="1542" height="1390" viewBox="0 0 1542 1390" fill="none" xmlns="http://www.w3.org/2000/svg">
<g filter="url(#filter0_f_0_3)">
<path fill-rule="evenodd" clip-rule="evenodd" d="M906.017 461.406L901.98 458.729L897.903 456.094L893.787 453.505L889.633 450.963L885.444 448.472L881.22 446.033L876.963 443.648L872.676 441.32L868.36 439.049L864.018 436.838L859.651 434.688L855.263 432.602L850.854 430.579L846.429 428.622L841.989 426.731L837.536 424.908L833.073 423.153L828.603 421.467L824.128 419.85L819.651 418.304L815.174 416.827L810.698 415.421L806.228 414.085L801.764 412.818L797.31 411.622L792.867 410.495L788.437 409.436L784.022 408.446L779.625 407.522L775.246 406.665L770.888 405.873L766.551 405.145L762.238 404.48L757.95 403.877L753.688 403.333L749.452 402.848L745.244 402.419L741.064 402.046L736.913 401.725L732.792 401.457L728.7 401.238L724.639 401.067L720.607 400.941L716.605 400.859L712.633 400.819L708.69 400.818L704.776 400.854L700.89 400.925L697.03 401.029L693.198 401.164L689.39 401.328L685.606 401.518L681.846 401.732L678.106 401.969L674.387 402.226L670.686 402.502L667.001 402.794L663.332 403.101L659.676 403.422L656.032 403.755L652.398 404.098L648.771 404.45L645.151 404.811L641.536 405.178L637.924 405.553L634.313 405.933L630.701 406.318L627.088 406.708L623.472 407.103L619.851 407.504L616.225 407.909L612.593 408.32L608.953 408.738L605.305 409.163L601.648 409.596L597.983 410.039L594.309 410.492L590.625 410.956L586.931 411.432L583.227 411.923L579.514 412.428L575.79 412.948L572.056 413.486L568.312 414.042L564.558 414.618L560.795 415.215L557.023 415.835L553.243 416.479L549.456 417.148L545.663 417.846L541.865 418.572L538.063 419.331L534.26 420.122L530.456 420.949L526.654 421.813L522.856 422.717L519.065 423.662L515.282 424.652L511.511 425.688L507.754 426.772L504.015 427.906L500.297 429.094L496.602 430.336L492.934 431.635L489.297 432.993L485.694 434.411L482.129 435.892L478.605 437.437L475.126 439.048L471.695 440.726L468.315 442.472L464.99 444.287L461.723 446.172L458.517 448.128L455.374 450.155L452.298 452.253L449.291 454.424L446.354 456.666L443.492 458.98L440.705 461.366L437.997 463.823L435.369 466.352L432.824 468.952L430.364 471.623L427.992 474.364L425.708 477.174L423.514 480.054L421.413 483.002L419.407 486.017L417.495 489.099L415.681 492.247L413.964 495.459L412.347 498.734L410.831 502.072L409.415 505.47L408.102 508.928L406.891 512.445L405.784 516.019L404.78 519.648L403.881 523.332L403.087 527.068L402.397 530.855L401.812 534.692L401.332 538.577L400.957 542.509L400.687 546.486L400.522 550.507L400.462 554.57L400.507 558.673L400.656 562.815L400.91 566.994L401.267 571.21L401.727 575.459L402.288 579.741L402.951 584.054L403.713 588.397L404.573 592.767L405.53 597.163L406.582 601.585L407.727 606.03L408.964 610.497L410.292 614.984L411.707 619.492L413.21 624.017L414.798 628.56L416.471 633.119L418.225 637.694L420.061 642.283L421.977 646.885L423.973 651.5L426.046 656.127L428.196 660.764L430.423 665.412L432.725 670.07L435.102 674.736L437.554 679.411L440.08 684.093L442.68 688.781L445.353 693.476L448.099 698.177L450.919 702.882L453.811 707.59L456.776 712.303L459.814 717.017L462.923 721.734L466.105 726.451L469.359 731.169L472.685 735.886L476.082 740.602L479.549 745.316L483.087 750.028L486.695 754.737L490.372 759.442L494.119 764.142L497.934 768.837L501.818 773.526L505.771 778.208L509.793 782.882L513.883 787.547L518.043 792.202L522.27 796.847L526.567 801.48L530.933 806.099L535.367 810.704L539.87 815.293L544.443 819.865L549.084 824.419L553.794 828.952L558.572 833.464L563.42 837.952L568.335 842.416L573.318 846.853L578.369 851.261L583.487 855.64L588.672 859.986L593.922 864.298L599.238 868.574L604.618 872.812L610.062 877.009L615.568 881.165L621.136 885.277L626.764 889.342L632.451 893.358L638.196 897.324L643.997 901.238L649.852 905.096L655.761 908.897L661.721 912.639L667.731 916.319L673.788 919.935L679.891 923.484L686.038 926.965L692.226 930.375L698.453 933.712L704.717 936.973L711.015 940.157L717.345 943.26L723.704 946.28L730.09 949.215L736.499 952.063L742.93 954.822L749.377 957.489L755.84 960.063L762.314 962.54L768.796 964.919L775.284 967.198L781.773 969.375L788.26 971.447L794.742 973.414L801.215 975.273L807.675 977.022L814.119 978.66L820.544 980.186L826.944 981.598L833.318 982.894L839.66 984.074L845.968 985.136L852.236 986.08L858.463 986.905L864.643 987.61L870.773 988.196L876.85 988.661L882.869 989.006L888.829 989.231L894.724 989.337L900.553 989.325L906.311 989.195L911.996 988.948L917.604 988.586L923.134 988.11L928.583 987.521L933.947 986.821L939.226 986.011L944.415 985.093L949.514 984.07L954.52 982.942L959.432 981.713L964.247 980.383L968.965 978.956L973.584 977.434L978.103 975.819L982.521 974.113L986.836 972.319L991.049 970.441L995.159 968.48L999.165 966.439L1003.07 964.322L1006.87 962.131L1010.56 959.869L1014.15 957.54L1017.64 955.145L1021.03 952.689L1024.32 950.175L1027.5 947.605L1030.59 944.983L1033.58 942.312L1036.47 939.595L1039.27 936.835L1041.97 934.036L1044.59 931.199L1047.11 928.33L1049.55 925.43L1051.91 922.502L1054.18 919.551L1056.37 916.578L1058.49 913.588L1060.53 910.585L1062.51 907.57L1064.42 904.548L1066.26 901.522L1068.06 898.494L1069.79 895.468L1071.48 892.447L1073.12 889.433L1074.72 886.429L1076.28 883.438L1077.81 880.461L1079.31 877.5L1080.79 874.558L1082.24 871.635L1083.68 868.734L1085.1 865.854L1086.51 862.997L1087.91 860.164L1089.31 857.354L1090.7 854.567L1092.1 851.804L1093.5 849.064L1094.9 846.347L1096.31 843.65L1097.73 840.974L1099.16 838.317L1100.59 835.677L1102.03 833.053L1103.49 830.443L1104.95 827.845L1106.42 825.257L1107.9 822.678L1109.39 820.104L1110.89 817.533L1112.39 814.964L1113.89 812.394L1115.39 809.82L1116.9 807.24L1118.4 804.652L1119.89 802.053L1121.37 799.44L1122.84 796.81L1124.29 794.161L1125.72 791.491L1127.13 788.796L1128.5 786.074L1129.83 783.323L1131.13 780.541L1132.38 777.725L1133.57 774.873L1134.71 771.984L1135.78 769.056L1136.79 766.088L1137.72 763.078L1138.57 760.025L1139.33 756.929L1140.01 753.79L1140.58 750.606L1141.06 747.378L1141.43 744.107L1141.69 740.792L1141.84 737.435L1141.86 734.036L1141.77 730.597L1141.54 727.12L1141.19 723.606L1140.71 720.056L1140.09 716.474L1139.34 712.862L1138.45 709.221L1137.43 705.556L1136.26 701.868L1134.96 698.161L1133.53 694.438L1131.95 690.703L1130.25 686.958L1128.42 683.206L1126.46 679.453L1124.38 675.699L1122.18 671.95L1119.87 668.207L1117.46 664.474L1114.94 660.754L1112.32 657.049L1109.61 653.362L1106.82 649.695L1103.96 646.051L1101.02 642.43L1098.01 638.835L1094.95 635.267L1091.83 631.726L1088.67 628.215L1085.47 624.733L1082.23 621.28L1078.97 617.857L1075.68 614.464L1072.37 611.1L1069.06 607.764L1065.73 604.455L1062.4 601.173L1059.07 597.916L1055.74 594.683L1052.42 591.472L1049.11 588.282L1045.81 585.111L1042.52 581.957L1039.24 578.819L1035.98 575.695L1032.73 572.583L1029.49 569.482L1026.27 566.389L1023.05 563.305L1019.85 560.226L1016.66 557.152L1013.47 554.083L1010.29 551.016L1007.11 547.951L1003.93 544.887L1000.75 541.824L997.564 538.761L994.373 535.697L991.173 532.633L987.961 529.569L984.735 526.505L981.493 523.441L978.231 520.378L974.948 517.316L971.64 514.256L968.306 511.2L964.944 508.149L961.551 505.103L958.125 502.065L954.664 499.035L951.168 496.016L947.633 493.01L944.06 490.019L940.446 487.044L936.791 484.089L933.094 481.154L929.355 478.243L925.572 475.358L921.747 472.501L917.878 469.675L913.967 466.882L910.013 464.125L906.017 461.406Z" fill="#4CC67F"/>
</g>
<defs>
<filter id="filter0_f_0_3" x="0.462463" y="0.817596" width="1541.4" height="1388.52" filterUnits="userSpaceOnUse" color-interpolation-filters="sRGB">
<feFlood flood-opacity="0" result="BackgroundImageFix"/>
<feBlend mode="normal" in="SourceGraphic" in2="BackgroundImageFix" result="shape"/>
<feGaussianBlur stdDeviation="200" result="effect1_foregroundBlur_0_3"/>
</filter>
</defs>
</svg>
