<svg width="1520" height="1398" viewBox="0 0 1520 1398" fill="none" xmlns="http://www.w3.org/2000/svg">
<g filter="url(#filter0_f_2_6)">
<path fill-rule="evenodd" clip-rule="evenodd" d="M635.714 482.479V482.479L631.376 484.636L627.056 486.849L622.756 489.119L618.478 491.446L614.226 493.828L610.002 496.267L605.808 498.761L601.648 501.309L597.523 503.911L593.438 506.566L589.393 509.273L585.391 512.031L581.435 514.837L577.528 517.691L573.67 520.591L569.865 523.536L566.114 526.523L562.419 529.551L558.781 532.618L555.203 535.722L551.685 538.862L548.23 542.034L544.838 545.237L541.509 548.47L538.246 551.729L535.048 555.013L531.916 558.321L528.851 561.648L525.853 564.995L522.921 568.359L520.056 571.737L517.258 575.129L514.525 578.531L511.858 581.943L509.256 585.363L506.718 588.789L504.243 592.219L501.829 595.652L499.477 599.086L497.184 602.521L494.948 605.955L492.769 609.387L490.644 612.816L488.573 616.24L486.551 619.66L484.579 623.074L482.653 626.482L480.772 629.883L478.932 633.277L477.133 636.664L475.371 640.043L473.643 643.415L471.949 646.779L470.284 650.136L468.647 653.486L467.035 656.829L465.446 660.166L463.878 663.497L462.328 666.824L460.794 670.146L459.274 673.465L457.766 676.782L456.268 680.097L454.779 683.412L453.297 686.727L451.82 690.044L450.348 693.364L448.879 696.689L447.414 700.018L445.95 703.354L444.488 706.697L443.028 710.048L441.57 713.41L440.114 716.781L438.661 720.164L437.211 723.56L435.766 726.968L434.326 730.391L432.892 733.828L431.465 737.281L430.045 740.749L428.634 744.235L427.233 747.737L425.843 751.258L424.465 754.797L423.1 758.354L421.751 761.93L420.419 765.526L419.105 769.14L417.812 772.774L416.543 776.426L415.298 780.098L414.082 783.787L412.896 787.495L411.744 791.22L410.627 794.961L409.551 798.717L408.516 802.488L407.528 806.271L406.588 810.067L405.701 813.872L404.87 817.686L404.099 821.507L403.39 825.333L402.747 829.161L402.174 832.991L401.674 836.819L401.25 840.643L400.906 844.462L400.643 848.272L400.465 852.072L400.374 855.859L400.373 859.631L400.464 863.385L400.648 867.121L400.928 870.834L401.304 874.524L401.777 878.188L402.35 881.824L403.023 885.43L403.797 889.004L404.673 892.544L405.652 896.048L406.735 899.514L407.923 902.939L409.215 906.323L410.612 909.662L412.115 912.955L413.723 916.201L415.436 919.397L417.254 922.542L419.178 925.635L421.206 928.673L423.338 931.655L425.573 934.58L427.912 937.447L430.352 940.253L432.893 942.999L435.534 945.683L438.275 948.303L441.113 950.86L444.048 953.351L447.079 955.776L450.203 958.134L453.421 960.425L456.731 962.647L460.13 964.8L463.618 966.883L467.194 968.896L470.856 970.838L474.602 972.708L478.431 974.507L482.341 976.233L486.331 977.888L490.397 979.47L494.539 980.981L498.754 982.422L503.04 983.791L507.395 985.091L511.817 986.321L516.304 987.484L520.854 988.578L525.465 989.606L530.136 990.567L534.864 991.463L539.649 992.295L544.488 993.062L549.38 993.767L554.323 994.408L559.317 994.988L564.361 995.506L569.452 995.962L574.591 996.358L579.776 996.693L585.006 996.967L590.28 997.181L595.597 997.335L600.958 997.428L606.36 997.46L611.804 997.432L617.288 997.343L622.813 997.192L628.376 996.981L633.978 996.707L639.617 996.372L645.294 995.975L651.006 995.516L656.754 994.995L662.537 994.411L668.353 993.765L674.203 993.057L680.085 992.287L685.998 991.455L691.942 990.56L697.915 989.604L703.918 988.584L709.949 987.502L716.008 986.356L722.093 985.146L728.204 983.872L734.341 982.533L740.501 981.128L746.684 979.657L752.889 978.119L759.115 976.514L765.361 974.84L771.625 973.098L777.906 971.286L784.203 969.403L790.514 967.45L796.837 965.424L803.171 963.327L809.514 961.157L815.865 958.914L822.221 956.597L828.581 954.206L834.942 951.74L841.302 949.2L847.659 946.585L854.011 943.894L860.356 941.128L866.69 938.286L873.012 935.37L879.319 932.377L885.609 929.31L891.878 926.168L898.124 922.952L904.345 919.661L910.537 916.296L916.697 912.859L922.822 909.348L928.91 905.766L934.957 902.112L940.961 898.387L946.917 894.593L952.823 890.73L958.675 886.8L964.47 882.803L970.205 878.74L975.877 874.613L981.481 870.424L987.015 866.174L992.474 861.864L997.857 857.495L1003.16 853.071L1008.38 848.592L1013.51 844.061L1018.54 839.479L1023.49 834.849L1028.33 830.173L1033.08 825.453L1037.72 820.691L1042.25 815.89L1046.68 811.053L1050.99 806.182L1055.18 801.279L1059.25 796.348L1063.2 791.391L1067.03 786.411L1070.73 781.412L1074.3 776.395L1077.75 771.365L1081.05 766.325L1084.23 761.276L1087.27 756.224L1090.17 751.17L1092.94 746.118L1095.57 741.072L1098.06 736.033L1100.41 731.006L1102.63 725.993L1104.7 720.997L1106.64 716.021L1108.44 711.068L1110.1 706.141L1111.63 701.241L1113.02 696.373L1114.28 691.538L1115.4 686.739L1116.39 681.977L1117.25 677.256L1117.98 672.578L1118.59 667.943L1119.07 663.356L1119.42 658.816L1119.66 654.326L1119.78 649.888L1119.78 645.502L1119.67 641.171L1119.45 636.896L1119.12 632.677L1118.68 628.515L1118.15 624.412L1117.52 620.368L1116.79 616.384L1115.97 612.46L1115.06 608.596L1114.07 604.793L1113 601.05L1111.85 597.368L1110.63 593.746L1109.34 590.185L1107.98 586.683L1106.56 583.24L1105.08 579.855L1103.55 576.526L1101.97 573.254L1100.35 570.036L1098.69 566.871L1096.99 563.757L1095.26 560.693L1093.51 557.676L1091.74 554.705L1089.95 551.776L1088.15 548.889L1086.34 546.04L1084.52 543.227L1082.71 540.448L1080.9 537.699L1079.09 534.98L1077.3 532.285L1075.52 529.615L1073.75 526.965L1071.99 524.333L1070.26 521.717L1068.55 519.115L1066.85 516.524L1065.18 513.942L1063.53 511.368L1061.9 508.799L1060.29 506.233L1058.7 503.67L1057.13 501.108L1055.58 498.545L1054.04 495.982L1052.53 493.416L1051.02 490.847L1049.53 488.275L1048.04 485.699L1046.56 483.12L1045.09 480.537L1043.61 477.95L1042.14 475.361L1040.65 472.769L1039.16 470.176L1037.66 467.584L1036.14 464.993L1034.59 462.405L1033.03 459.823L1031.43 457.25L1029.8 454.687L1028.13 452.138L1026.41 449.605L1024.65 447.093L1022.83 444.605L1020.96 442.144L1019.03 439.715L1017.03 437.321L1014.96 434.966L1012.82 432.655L1010.6 430.393L1008.3 428.183L1005.92 426.029L1003.45 423.937L1000.89 421.911L998.247 419.954L995.506 418.072L992.671 416.268L989.741 414.546L986.715 412.91L983.592 411.363L980.373 409.91L977.058 408.553L973.647 407.296L970.143 406.141L966.546 405.09L962.859 404.146L959.083 403.31L955.223 402.583L951.28 401.966L947.259 401.459L943.164 401.062L938.999 400.773L934.769 400.592L930.478 400.517L926.132 400.545L921.736 400.674L917.295 400.902L912.813 401.223L908.297 401.636L903.751 402.136L899.18 402.719L894.59 403.381L889.984 404.116L885.368 404.921L880.746 405.79L876.122 406.719L871.5 407.701L866.884 408.733L862.276 409.81L857.679 410.925L853.097 412.075L848.531 413.255L843.983 414.46L839.455 415.686L834.948 416.928L830.462 418.184L825.998 419.449L821.557 420.719L817.138 421.993L812.741 423.267L808.365 424.54L804.009 425.809L799.671 427.074L795.351 428.332L791.047 429.585L786.757 430.831L782.479 432.071L778.211 433.305L773.952 434.534L769.7 435.76L765.453 436.983L761.209 438.204L756.966 439.425L752.723 440.647L748.478 441.874L744.23 443.106L739.976 444.345L735.717 445.594L731.45 446.856L727.175 448.132L722.892 449.425L718.598 450.737L714.295 452.072L709.981 453.431L705.657 454.817L701.323 456.233L696.979 457.681L692.625 459.163L688.263 460.682L683.892 462.24L679.515 463.839L675.132 465.481L670.744 467.168L666.355 468.903L661.964 470.686L657.574 472.519L653.187 474.403L648.805 476.34L644.431 478.332L640.066 480.377L635.714 482.479" fill="#9136BC"/>
</g>
<defs>
<filter id="filter0_f_2_6" x="0.373474" y="0.516968" width="1519.41" height="1396.94" filterUnits="userSpaceOnUse" color-interpolation-filters="sRGB">
<feFlood flood-opacity="0" result="BackgroundImageFix"/>
<feBlend mode="normal" in="SourceGraphic" in2="BackgroundImageFix" result="shape"/>
<feGaussianBlur stdDeviation="200" result="effect1_foregroundBlur_2_6"/>
</filter>
</defs>
</svg>
