<svg width="971" height="736" viewBox="0 0 971 736" fill="none" xmlns="http://www.w3.org/2000/svg">
<g filter="url(#filter0_f_0_3)">
<path fill-rule="evenodd" clip-rule="evenodd" d="M568.337 614.995L563.743 616.531L559.122 618.016L554.475 619.448L549.805 620.826L545.113 622.147L540.402 623.409L535.673 624.612L530.93 625.755L526.175 626.834L521.41 627.851L516.637 628.803L511.86 629.69L507.08 630.511L502.302 631.266L497.526 631.954L492.757 632.575L487.996 633.129L483.245 633.615L478.509 634.034L473.788 634.386L469.086 634.671L464.404 634.891L459.746 635.045L455.113 635.134L450.506 635.159L445.929 635.121L441.383 635.021L436.869 634.861L432.389 634.641L427.945 634.363L423.538 634.028L419.169 633.637L414.838 633.193L410.548 632.697L406.298 632.15L402.09 631.554L397.923 630.912L393.798 630.224L389.715 629.492L385.673 628.72L381.674 627.907L377.716 627.057L373.799 626.17L369.922 625.25L366.084 624.298L362.285 623.315L358.524 622.304L354.799 621.267L351.108 620.206L347.451 619.122L343.826 618.017L340.231 616.893L336.664 615.751L333.124 614.594L329.608 613.422L326.115 612.237L322.642 611.04L319.188 609.833L315.75 608.616L312.327 607.392L308.916 606.159L305.515 604.92L302.123 603.675L298.736 602.424L295.355 601.168L291.976 599.906L288.598 598.639L285.22 597.368L281.84 596.09L278.457 594.807L275.07 593.518L271.679 592.221L268.282 590.916L264.879 589.603L261.471 588.28L258.056 586.945L254.635 585.599L251.208 584.239L247.775 582.865L244.336 581.475L240.891 580.07L237.441 578.646L233.985 577.204L230.524 575.742L227.059 574.259L223.591 572.753L220.12 571.224L216.648 569.67L213.176 568.09L209.705 566.481L206.237 564.844L202.774 563.176L199.318 561.475L195.871 559.741L192.436 557.972L189.015 556.167L185.611 554.323L182.227 552.44L178.867 550.516L175.533 548.549L172.229 546.539L168.959 544.484L165.726 542.383L162.535 540.234L159.388 538.038L156.291 535.792L153.246 533.496L150.257 531.15L147.329 528.753L144.465 526.304L141.668 523.803L138.943 521.25L136.292 518.644L133.717 515.987L131.223 513.278L128.812 510.518L126.486 507.707L124.247 504.845L122.098 501.934L120.041 498.973L118.079 495.964L116.213 492.907L114.445 489.803L112.778 486.653L111.214 483.458L109.753 480.219L108.398 476.938L107.15 473.614L106.01 470.25L104.98 466.846L104.06 463.405L103.252 459.927L102.556 456.413L101.973 452.865L101.504 449.284L101.149 445.673L100.908 442.031L100.781 438.361L100.77 434.664L100.873 430.942L101.091 427.196L101.423 423.427L101.869 419.637L102.429 415.828L103.103 412L103.89 408.156L104.789 404.297L105.801 400.424L106.923 396.538L108.157 392.642L109.501 388.736L110.955 384.822L112.516 380.901L114.184 376.975L115.958 373.044L117.835 369.111L119.814 365.175L121.893 361.238L124.07 357.302L126.343 353.367L128.71 349.433L131.17 345.502L133.72 341.575L136.359 337.652L139.085 333.734L141.895 329.821L144.79 325.915L147.766 322.015L150.824 318.122L153.96 314.237L157.175 310.361L160.467 306.493L163.836 302.634L167.279 298.786L170.798 294.947L174.39 291.119L178.056 287.303L181.795 283.499L185.606 279.707L189.488 275.928L193.443 272.164L197.469 268.413L201.565 264.678L205.733 260.958L209.97 257.255L214.277 253.569L218.653 249.9L223.099 246.25L227.613 242.618L232.194 239.006L236.843 235.414L241.557 231.842L246.338 228.292L251.185 224.763L256.096 221.256L261.072 217.772L266.113 214.311L271.217 210.876L276.386 207.466L281.618 204.082L286.913 200.726L292.272 197.398L297.694 194.1L303.178 190.833L308.724 187.598L314.332 184.397L320.002 181.23L325.733 178.1L331.524 175.007L337.375 171.953L343.285 168.94L349.254 165.97L355.28 163.043L361.363 160.162L367.502 157.328L373.695 154.543L379.942 151.808L386.24 149.125L392.59 146.496L398.988 143.923L405.434 141.408L411.926 138.951L418.462 136.555L425.041 134.221L431.659 131.952L438.316 129.749L445.009 127.613L451.736 125.546L458.494 123.55L465.281 121.627L472.095 119.778L478.933 118.006L485.792 116.311L492.669 114.695L499.562 113.161L506.468 111.709L513.383 110.341L520.304 109.059L527.229 107.864L534.153 106.758L541.074 105.742L547.988 104.817L554.891 103.985L561.781 103.248L568.652 102.605L575.502 102.059L582.326 101.61L589.121 101.26L595.883 101.009L602.609 100.858L609.293 100.808L615.933 100.86L622.524 101.014L629.062 101.269L635.543 101.628L641.964 102.09L648.32 102.654L654.608 103.321L660.823 104.091L666.963 104.962L673.023 105.936L679 107.01L684.89 108.183L690.691 109.456L696.398 110.826L702.01 112.291L707.523 113.851L712.935 115.503L718.243 117.246L723.446 119.078L728.54 120.996L733.524 122.999L738.396 125.084L743.154 127.25L747.797 129.494L752.323 131.813L756.731 134.206L761.021 136.67L765.191 139.202L769.24 141.799L773.168 144.461L776.975 147.182L780.661 149.962L784.225 152.797L787.669 155.684L790.991 158.621L794.194 161.605L797.277 164.633L800.242 167.703L803.089 170.811L805.821 173.955L808.438 177.133L810.942 180.34L813.335 183.575L815.619 186.835L817.795 190.117L819.867 193.419L821.837 196.738L823.706 200.071L825.479 203.417L827.156 206.772L828.742 210.134L830.239 213.501L831.65 216.871L832.981 220.24L834.233 223.608L835.412 226.97L836.522 230.326L837.567 233.672L838.551 237.007L839.479 240.329L840.355 243.635L841.185 246.925L841.973 250.197L842.724 253.448L843.442 256.679L844.132 259.887L844.798 263.073L845.445 266.235L846.076 269.373L846.695 272.487L847.307 275.576L847.914 278.641L848.52 281.682L849.127 284.699L849.739 287.693L850.357 290.665L850.984 293.616L851.621 296.548L852.27 299.46L852.93 302.355L853.604 305.234L854.291 308.098L854.992 310.951L855.706 313.792L856.431 316.624L857.169 319.448L857.916 322.268L858.672 325.083L859.435 327.897L860.204 330.711L860.975 333.526L861.747 336.346L862.516 339.17L863.28 342.002L864.034 344.843L864.775 347.695L865.499 350.558L866.201 353.436L866.875 356.329L867.518 359.238L868.124 362.165L868.687 365.111L869.201 368.076L869.662 371.061L870.063 374.067L870.398 377.094L870.663 380.143L870.85 383.213L870.954 386.303L870.97 389.414L870.891 392.545L870.714 395.694L870.433 398.862L870.042 402.046L869.538 405.245L868.916 408.458L868.172 411.682L867.303 414.916L866.305 418.158L865.176 421.405L863.913 424.655L862.514 427.905L860.978 431.153L859.303 434.396L857.489 437.632L855.536 440.857L853.444 444.069L851.215 447.264L848.851 450.441L846.354 453.597L843.727 456.729L840.974 459.834L838.099 462.91L835.108 465.956L832.004 468.969L828.793 471.947L825.482 474.889L822.076 477.793L818.581 480.659L815.003 483.485L811.35 486.272L807.627 489.017L803.842 491.723L800.001 494.387L796.111 497.012L792.177 499.596L788.207 502.142L784.205 504.651L780.179 507.122L776.133 509.558L772.073 511.961L768.004 514.332L763.93 516.672L759.855 518.985L755.784 521.271L751.718 523.534L747.662 525.774L743.618 527.995L739.587 530.198L735.571 532.386L731.571 534.56L727.588 536.723L723.621 538.876L719.671 541.02L715.737 543.158L711.816 545.291L707.909 547.419L704.014 549.544L700.127 551.666L696.249 553.786L692.376 555.905L688.506 558.022L684.637 560.139L680.767 562.255L676.893 564.369L673.012 566.482L669.123 568.594L665.222 570.703L661.308 572.808L657.378 574.909L653.429 577.004L649.46 579.093L645.469 581.174L641.453 583.245L637.41 585.304L633.339 587.35L629.239 589.381L625.108 591.395L620.945 593.389L616.749 595.362L612.519 597.312L608.254 599.235L603.955 601.131L599.621 602.995L595.253 604.827L590.849 606.624L586.412 608.383L581.941 610.101L577.437 611.778L572.903 613.41L568.337 614.995Z" fill="#8782FF"/>
</g>
<defs>
<filter id="filter0_f_0_3" x="0.769836" y="0.808441" width="970.2" height="734.35" filterUnits="userSpaceOnUse" color-interpolation-filters="sRGB">
<feFlood flood-opacity="0" result="BackgroundImageFix"/>
<feBlend mode="normal" in="SourceGraphic" in2="BackgroundImageFix" result="shape"/>
<feGaussianBlur stdDeviation="50" result="effect1_foregroundBlur_0_3"/>
</filter>
</defs>
</svg>
