<svg width="930" height="962" viewBox="0 0 930 962" fill="none" xmlns="http://www.w3.org/2000/svg">
<rect width="930" height="962" rx="32" fill="#1D1D1F"/>
<text class="wbads-img-title" fill="#FAFAFA" xml:space="preserve" style="white-space: pre" font-family="Raleway" font-size="48" font-weight="bold" letter-spacing="0em"><tspan x="32" y="78.944">&#x423;&#x437;&#x43d;&#x430;&#x439;&#x442;&#x435; &#x440;&#x435;&#x430;&#x43b;&#x44c;&#x43d;&#x443;&#x44e; &#x441;&#x442;&#x430;&#x432;&#x43a;&#x443;&#10;</tspan><tspan x="32" y="138.944">&#x43d;&#x430; &#x441;&#x432;&#x43e;&#x439; &#x442;&#x43e;&#x432;&#x430;&#x440; &#x432; &#x43f;&#x43e;&#x438;&#x441;&#x43a;&#x435;</tspan></text>
<rect x="32" y="192" width="866" height="64" rx="16" fill="#373737"/>
<text fill="#E3EBF6" fill-opacity="0.34" xml:space="preserve" style="white-space: pre" font-family="Manrope" font-size="16" font-weight="500" letter-spacing="0em"><tspan x="54" y="230.128">&#x412;&#x432;&#x435;&#x434;&#x438; &#x43d;&#x430;&#x437;&#x432;&#x430;&#x43d;&#x438;&#x435; &#x441;&#x432;&#x43e;&#x435;&#x433;&#x43e; &#x442;&#x43e;&#x432;&#x430;&#x440;&#x430; &#x438; &#x443;&#x437;&#x43d;&#x430;&#x439; &#x441;&#x43a;&#x43e;&#x43b;&#x44c;&#x43a;&#x43e; &#x43c;&#x43e;&#x433; &#x441;&#x44d;&#x43a;&#x43e;&#x43d;&#x43e;&#x43c;&#x438;&#x442;&#x44c;. &#x41d;&#x430;&#x43f;&#x440;&#x438;&#x43c;&#x435;&#x440;: &#x201c;&#x41f;&#x43b;&#x430;&#x442;&#x44c;&#x435;&#x201d;</tspan></text>
<path d="M876.707 224.707C877.098 224.317 877.098 223.683 876.707 223.293L870.343 216.929C869.953 216.538 869.319 216.538 868.929 216.929C868.538 217.319 868.538 217.953 868.929 218.343L874.586 224L868.929 229.657C868.538 230.047 868.538 230.681 868.929 231.071C869.319 231.462 869.953 231.462 870.343 231.071L876.707 224.707ZM853 225H876V223H853V225Z" fill="#E3EBF6"/>
<g clip-path="url(#clip0_275_22737)">
<g clip-path="url(#clip1_275_22737)">
<rect width="840" height="642" transform="translate(32 288)" fill="#1D1D1F"/>
<rect width="840" height="72" transform="translate(32 288)" fill="#1D1D1F"/>
<text fill="#E3E3E3" xml:space="preserve" style="white-space: pre" font-family="Manrope" font-size="16" font-weight="500" letter-spacing="0em"><tspan x="58.5" y="330.128">&#x41f;&#x43e;&#x437;&#x438;&#x446;&#x438;&#x44f;</tspan></text>
<line x1="156.5" y1="304.5" x2="156.5" y2="343.5" stroke="#333333" stroke-linecap="round"/>
<text fill="#E3E3E3" xml:space="preserve" style="white-space: pre" font-family="Manrope" font-size="16" font-weight="500" letter-spacing="0em"><tspan x="176" y="330.128">&#x424;&#x43e;&#x442;&#x43e;</tspan></text>
<line x1="236.5" y1="304.5" x2="236.5" y2="343.5" stroke="#333333" stroke-linecap="round"/>
<text fill="#E3E3E3" xml:space="preserve" style="white-space: pre" font-family="Manrope" font-size="16" font-weight="500" letter-spacing="0em"><tspan x="248" y="318.128">&#x410;&#x440;&#x442;&#x438;&#x43a;&#x443;&#x43b; /&#10;</tspan><tspan x="248" y="342.128">&#x41d;&#x430;&#x438;&#x43c;&#x435;&#x43d;&#x43e;&#x432;&#x430;&#x43d;&#x438;&#x435;</tspan></text>
<line x1="392.5" y1="304.5" x2="392.5" y2="343.5" stroke="#333333" stroke-linecap="round"/>
<text fill="#E3E3E3" xml:space="preserve" style="white-space: pre" font-family="Manrope" font-size="16" font-weight="500" letter-spacing="0em"><tspan x="406.5" y="330.128">&#x420;&#x435;&#x430;&#x43b;&#x44c;&#x43d;&#x430;&#x44f; &#x441;&#x442;&#x430;&#x432;&#x43a;&#x430;</tspan></text>
<line x1="550.5" y1="304.5" x2="550.5" y2="343.5" stroke="#333333" stroke-linecap="round"/>
<text fill="#E3E3E3" xml:space="preserve" style="white-space: pre" font-family="Manrope" font-size="16" font-weight="500" letter-spacing="0em"><tspan x="579.5" y="330.128">ID &#x43a;&#x430;&#x442;&#x435;&#x433;&#x43e;&#x440;&#x438;&#x438;</tspan></text>
<line x1="708.5" y1="304.5" x2="708.5" y2="343.5" stroke="#333333" stroke-linecap="round"/>
<text fill="#E3E3E3" xml:space="preserve" style="white-space: pre" font-family="Manrope" font-size="16" font-weight="500" letter-spacing="0em"><tspan x="725" y="330.128">&#x412;&#x440;&#x435;&#x43c;&#x44f; &#x434;&#x43e;&#x441;&#x442;&#x430;&#x432;&#x43a;&#x438;</tspan></text>
<mask id="path-19-inside-1_275_22737" fill="white">
<path d="M32 360H872V410H32V360Z"/>
</mask>
<path d="M32 360H872V410H32V360Z" fill="#1D1D1F"/>
<path d="M32 360H872V410H32V360Z" fill="white" fill-opacity="0.04"/>
<text fill="#E3E3E3" xml:space="preserve" style="white-space: pre" font-family="Manrope" font-size="16" font-weight="500" letter-spacing="0em"><tspan x="48" y="391.128">&#x421;&#x442;&#x440;&#x430;&#x43d;&#x438;&#x446;&#x430; &#x432;&#x44b;&#x434;&#x430;&#x447;&#x438; Wildberries &#x2116;1</tspan></text>
<path d="M32 361H872V359H32V361ZM872 409H32V411H872V409Z" fill="#333333" mask="url(#path-19-inside-1_275_22737)"/>
<rect width="840" height="104" transform="translate(32 410)" fill="#1D1D1F"/>
<text fill="#E3E3E3" xml:space="preserve" style="white-space: pre" font-family="Manrope" font-size="16" letter-spacing="0em"><tspan x="88.8828" y="468.128">1</tspan></text>
<line x1="156.5" y1="420.5" x2="156.5" y2="503.5" stroke="#333333" stroke-linecap="round"/>
<rect x="176" y="432" width="40" height="60" rx="5" fill="#373737"/>
<line x1="236.5" y1="420.5" x2="236.5" y2="503.5" stroke="#333333" stroke-linecap="round"/>
<text fill="#E3E3E3" xml:space="preserve" style="white-space: pre" font-family="Manrope" font-size="16" letter-spacing="0em"><tspan x="335.516" y="444.128"> / </tspan><tspan x="248" y="468.128">&#x41d;&#x430;&#x437;&#x432;&#x430;&#x43d;&#x438;&#x435; &#x442;&#x43e;&#x432;&#x430;&#x440;&#x430; </tspan><tspan x="248" y="492.128">&#x434;&#x43b;&#x438;&#x43d;&#x43d;&#x43e;&#x435; &#x43c;&#x43e;&#x436;&#x435;&#x442; </tspan></text>
<text fill="#1CB554" xml:space="preserve" style="white-space: pre" font-family="Manrope" font-size="16" letter-spacing="0em"><tspan x="248" y="444.128">0192747393</tspan></text>
<line x1="392.5" y1="420.5" x2="392.5" y2="503.5" stroke="#333333" stroke-linecap="round"/>
<text fill="#E3E3E3" xml:space="preserve" style="white-space: pre" font-family="Manrope" font-size="16" letter-spacing="0em"><tspan x="450.008" y="468.128">403 &#x20bd;</tspan></text>
<line x1="550.5" y1="420.5" x2="550.5" y2="503.5" stroke="#333333" stroke-linecap="round"/>
<text fill="#E3E3E3" xml:space="preserve" style="white-space: pre" font-family="Manrope" font-size="16" letter-spacing="0em"><tspan x="585.008" y="468.128">69 - &#x41f;&#x43b;&#x430;&#x442;&#x44c;&#x435;</tspan></text>
<line x1="708.5" y1="420.5" x2="708.5" y2="503.5" stroke="#333333" stroke-linecap="round"/>
<text fill="#E3E3E3" xml:space="preserve" style="white-space: pre" font-family="Manrope" font-size="16" letter-spacing="0em"><tspan x="773.523" y="468.128">24&#x447;</tspan></text>
<rect width="840" height="104" transform="translate(32 514)" fill="#1D1D1F"/>
<rect width="840" height="104" transform="translate(32 514)" fill="white" fill-opacity="0.04"/>
<text fill="#E3E3E3" xml:space="preserve" style="white-space: pre" font-family="Manrope" font-size="16" letter-spacing="0em"><tspan x="87.4375" y="572.128">2</tspan></text>
<line x1="156.5" y1="524.5" x2="156.5" y2="607.5" stroke="#444444" stroke-linecap="round"/>
<rect x="176" y="536" width="40" height="60" rx="5" fill="#373737"/>
<line x1="236.5" y1="524.5" x2="236.5" y2="607.5" stroke="#444444" stroke-linecap="round"/>
<text fill="#E3E3E3" xml:space="preserve" style="white-space: pre" font-family="Manrope" font-size="16" letter-spacing="0em"><tspan x="335.516" y="548.128"> / </tspan><tspan x="248" y="572.128">&#x41d;&#x430;&#x437;&#x432;&#x430;&#x43d;&#x438;&#x435; &#x442;&#x43e;&#x432;&#x430;&#x440;&#x430; </tspan><tspan x="248" y="596.128">&#x434;&#x43b;&#x438;&#x43d;&#x43d;&#x43e;&#x435; &#x43c;&#x43e;&#x436;&#x435;&#x442; </tspan></text>
<text fill="#1CB554" xml:space="preserve" style="white-space: pre" font-family="Manrope" font-size="16" letter-spacing="0em"><tspan x="248" y="548.128">0192747393</tspan></text>
<line x1="392.5" y1="524.5" x2="392.5" y2="607.5" stroke="#444444" stroke-linecap="round"/>
<text fill="#E3E3E3" xml:space="preserve" style="white-space: pre" font-family="Manrope" font-size="16" letter-spacing="0em"><tspan x="450.008" y="572.128">403 &#x20bd;</tspan></text>
<line x1="550.5" y1="524.5" x2="550.5" y2="607.5" stroke="#444444" stroke-linecap="round"/>
<text fill="#E3E3E3" xml:space="preserve" style="white-space: pre" font-family="Manrope" font-size="16" letter-spacing="0em"><tspan x="585.008" y="572.128">69 - &#x41f;&#x43b;&#x430;&#x442;&#x44c;&#x435;</tspan></text>
<line x1="708.5" y1="524.5" x2="708.5" y2="607.5" stroke="#444444" stroke-linecap="round"/>
<text fill="#E3E3E3" xml:space="preserve" style="white-space: pre" font-family="Manrope" font-size="16" letter-spacing="0em"><tspan x="773.523" y="572.128">24&#x447;</tspan></text>
<rect width="840" height="104" transform="translate(32 618)" fill="#1D1D1F"/>
<text fill="#E3E3E3" xml:space="preserve" style="white-space: pre" font-family="Manrope" font-size="16" letter-spacing="0em"><tspan x="84.3203" y="676.128">12</tspan></text>
<line x1="156.5" y1="628.5" x2="156.5" y2="711.5" stroke="#333333" stroke-linecap="round"/>
<rect x="176" y="640" width="40" height="60" rx="5" fill="#373737"/>
<line x1="236.5" y1="628.5" x2="236.5" y2="711.5" stroke="#333333" stroke-linecap="round"/>
<text fill="#E3E3E3" xml:space="preserve" style="white-space: pre" font-family="Manrope" font-size="16" letter-spacing="0em"><tspan x="335.516" y="652.128"> / </tspan><tspan x="248" y="676.128">&#x41d;&#x430;&#x437;&#x432;&#x430;&#x43d;&#x438;&#x435; &#x442;&#x43e;&#x432;&#x430;&#x440;&#x430; </tspan><tspan x="248" y="700.128">&#x434;&#x43b;&#x438;&#x43d;&#x43d;&#x43e;&#x435; &#x43c;&#x43e;&#x436;&#x435;&#x442; </tspan></text>
<text fill="#1CB554" xml:space="preserve" style="white-space: pre" font-family="Manrope" font-size="16" letter-spacing="0em"><tspan x="248" y="652.128">0192747393</tspan></text>
<line x1="392.5" y1="628.5" x2="392.5" y2="711.5" stroke="#333333" stroke-linecap="round"/>
<text fill="#E3E3E3" xml:space="preserve" style="white-space: pre" font-family="Manrope" font-size="16" letter-spacing="0em"><tspan x="450.008" y="676.128">403 &#x20bd;</tspan></text>
<line x1="550.5" y1="628.5" x2="550.5" y2="711.5" stroke="#333333" stroke-linecap="round"/>
<text fill="#E3E3E3" xml:space="preserve" style="white-space: pre" font-family="Manrope" font-size="16" letter-spacing="0em"><tspan x="585.008" y="676.128">69 - &#x41f;&#x43b;&#x430;&#x442;&#x44c;&#x435;</tspan></text>
<line x1="708.5" y1="628.5" x2="708.5" y2="711.5" stroke="#333333" stroke-linecap="round"/>
<text fill="#E3E3E3" xml:space="preserve" style="white-space: pre" font-family="Manrope" font-size="16" letter-spacing="0em"><tspan x="773.523" y="676.128">24&#x447;</tspan></text>
<rect width="840" height="104" transform="translate(32 722)" fill="#1D1D1F"/>
<rect width="840" height="104" transform="translate(32 722)" fill="white" fill-opacity="0.04"/>
<text fill="#E3E3E3" xml:space="preserve" style="white-space: pre" font-family="Manrope" font-size="16" letter-spacing="0em"><tspan x="83.9219" y="780.128">16</tspan></text>
<line x1="156.5" y1="732.5" x2="156.5" y2="815.5" stroke="#444444" stroke-linecap="round"/>
<rect x="176" y="744" width="40" height="60" rx="5" fill="#373737"/>
<line x1="236.5" y1="732.5" x2="236.5" y2="815.5" stroke="#444444" stroke-linecap="round"/>
<text fill="#E3E3E3" xml:space="preserve" style="white-space: pre" font-family="Manrope" font-size="16" letter-spacing="0em"><tspan x="335.516" y="756.128"> / </tspan><tspan x="248" y="780.128">&#x41d;&#x430;&#x437;&#x432;&#x430;&#x43d;&#x438;&#x435; &#x442;&#x43e;&#x432;&#x430;&#x440;&#x430; </tspan><tspan x="248" y="804.128">&#x434;&#x43b;&#x438;&#x43d;&#x43d;&#x43e;&#x435; &#x43c;&#x43e;&#x436;&#x435;&#x442; </tspan></text>
<text fill="#1CB554" xml:space="preserve" style="white-space: pre" font-family="Manrope" font-size="16" letter-spacing="0em"><tspan x="248" y="756.128">0192747393</tspan></text>
<line x1="392.5" y1="732.5" x2="392.5" y2="815.5" stroke="#444444" stroke-linecap="round"/>
<text fill="#E3E3E3" xml:space="preserve" style="white-space: pre" font-family="Manrope" font-size="16" letter-spacing="0em"><tspan x="450.008" y="780.128">403 &#x20bd;</tspan></text>
<line x1="550.5" y1="732.5" x2="550.5" y2="815.5" stroke="#444444" stroke-linecap="round"/>
<text fill="#E3E3E3" xml:space="preserve" style="white-space: pre" font-family="Manrope" font-size="16" letter-spacing="0em"><tspan x="585.008" y="780.128">69 - &#x41f;&#x43b;&#x430;&#x442;&#x44c;&#x435;</tspan></text>
<line x1="708.5" y1="732.5" x2="708.5" y2="815.5" stroke="#444444" stroke-linecap="round"/>
<text fill="#E3E3E3" xml:space="preserve" style="white-space: pre" font-family="Manrope" font-size="16" letter-spacing="0em"><tspan x="773.523" y="780.128">24&#x447;</tspan></text>
<rect width="840" height="104" transform="translate(32 826)" fill="#1D1D1F"/>
<text fill="#E3E3E3" xml:space="preserve" style="white-space: pre" font-family="Manrope" font-size="16" letter-spacing="0em"><tspan x="84.3203" y="884.128">21</tspan></text>
<line x1="156.5" y1="836.5" x2="156.5" y2="919.5" stroke="#333333" stroke-linecap="round"/>
<rect x="176" y="848" width="40" height="60" rx="5" fill="#373737"/>
<line x1="236.5" y1="836.5" x2="236.5" y2="919.5" stroke="#333333" stroke-linecap="round"/>
<text fill="#E3E3E3" xml:space="preserve" style="white-space: pre" font-family="Manrope" font-size="16" letter-spacing="0em"><tspan x="335.516" y="860.128"> / </tspan><tspan x="248" y="884.128">&#x41d;&#x430;&#x437;&#x432;&#x430;&#x43d;&#x438;&#x435; &#x442;&#x43e;&#x432;&#x430;&#x440;&#x430; </tspan><tspan x="248" y="908.128">&#x434;&#x43b;&#x438;&#x43d;&#x43d;&#x43e;&#x435; &#x43c;&#x43e;&#x436;&#x435;&#x442; </tspan></text>
<text fill="#1CB554" xml:space="preserve" style="white-space: pre" font-family="Manrope" font-size="16" letter-spacing="0em"><tspan x="248" y="860.128">0192747393</tspan></text>
<line x1="392.5" y1="836.5" x2="392.5" y2="919.5" stroke="#333333" stroke-linecap="round"/>
<text fill="#E3E3E3" xml:space="preserve" style="white-space: pre" font-family="Manrope" font-size="16" letter-spacing="0em"><tspan x="450.008" y="884.128">403 &#x20bd;</tspan></text>
<line x1="550.5" y1="836.5" x2="550.5" y2="919.5" stroke="#333333" stroke-linecap="round"/>
<text fill="#E3E3E3" xml:space="preserve" style="white-space: pre" font-family="Manrope" font-size="16" letter-spacing="0em"><tspan x="585.008" y="884.128">69 - &#x41f;&#x43b;&#x430;&#x442;&#x44c;&#x435;</tspan></text>
<line x1="708.5" y1="836.5" x2="708.5" y2="919.5" stroke="#333333" stroke-linecap="round"/>
<text fill="#E3E3E3" xml:space="preserve" style="white-space: pre" font-family="Manrope" font-size="16" letter-spacing="0em"><tspan x="773.523" y="884.128">24&#x447;</tspan></text>
</g>
<rect x="872.5" y="288.5" width="25" height="641" fill="#1D1D1F"/>
<rect width="2" height="594" transform="translate(884 312)" fill="#262628"/>
<rect x="883" y="312" width="4" height="160" rx="2" fill="#373737"/>
<rect x="872.5" y="288.5" width="25" height="641" stroke="#333333"/>
</g>
<rect x="32.5" y="288.5" width="865" height="641" rx="15.5" stroke="#333333"/>
<path d="M664.42 90.9433C662.794 90.6228 661.736 89.0452 662.057 87.4197C662.377 85.7941 663.955 84.7362 665.58 85.0567L664.42 90.9433ZM672.442 170.82C670.885 170.254 670.082 168.533 670.647 166.975L679.869 141.599C680.435 140.042 682.156 139.238 683.713 139.804C685.27 140.37 686.074 142.091 685.508 143.648L677.311 166.205L699.868 174.402C701.425 174.968 702.229 176.689 701.663 178.246C701.097 179.803 699.376 180.607 697.819 180.041L672.442 170.82ZM665.58 85.0567C681.293 88.1547 695.413 92.1607 706.353 97.1378C717.143 102.047 725.498 108.194 728.654 115.96C731.989 124.168 729.122 132.949 720.47 141.856C711.852 150.729 697.007 160.319 674.736 170.718L672.198 165.282C694.254 154.983 708.312 145.762 716.166 137.676C723.986 129.625 725.16 123.3 723.095 118.219C720.852 112.698 714.366 107.375 703.868 102.599C693.519 97.891 679.902 93.996 664.42 90.9433L665.58 85.0567Z" fill="white"/>
<defs>
<clipPath id="clip0_275_22737">
<rect x="32" y="288" width="866" height="642" rx="16" fill="white"/>
</clipPath>
<clipPath id="clip1_275_22737">
<rect width="840" height="642" fill="white" transform="translate(32 288)"/>
</clipPath>
</defs>
</svg>
