<svg width="1280" height="938" viewBox="0 0 1280 938" fill="none" xmlns="http://www.w3.org/2000/svg">
<rect width="1280" height="938" rx="32" fill="#1D1D1F"/>
<text class="wbads-img-title" fill="#FAFAFA" xml:space="preserve" style="white-space: pre" font-family="Raleway" font-size="48" font-weight="bold" letter-spacing="0em"><tspan x="32" y="78.944">&#x423;&#x437;&#x43d;&#x430;&#x439;&#x442;&#x435; &#x440;&#x435;&#x430;&#x43b;&#x44c;&#x43d;&#x443;&#x44e; &#x441;&#x442;&#x430;&#x432;&#x43a;&#x443;&#10;</tspan><tspan x="32" y="138.944">&#x43d;&#x430; &#x441;&#x432;&#x43e;&#x439; &#x442;&#x43e;&#x432;&#x430;&#x440; &#x432; &#x43f;&#x43e;&#x438;&#x441;&#x43a;&#x435;</tspan></text>
<rect x="32" y="192" width="1216" height="64" rx="16" fill="#373737"/>
<text fill="#E3EBF6" fill-opacity="0.34" xml:space="preserve" style="white-space: pre" font-family="Manrope" font-size="16" font-weight="500" letter-spacing="0em"><tspan x="54" y="230.128">&#x412;&#x432;&#x435;&#x434;&#x438; &#x43d;&#x430;&#x437;&#x432;&#x430;&#x43d;&#x438;&#x435; &#x441;&#x432;&#x43e;&#x435;&#x433;&#x43e; &#x442;&#x43e;&#x432;&#x430;&#x440;&#x430; &#x438; &#x443;&#x437;&#x43d;&#x430;&#x439; &#x441;&#x43a;&#x43e;&#x43b;&#x44c;&#x43a;&#x43e; &#x43c;&#x43e;&#x433; &#x441;&#x44d;&#x43a;&#x43e;&#x43d;&#x43e;&#x43c;&#x438;&#x442;&#x44c;. &#x41d;&#x430;&#x43f;&#x440;&#x438;&#x43c;&#x435;&#x440;: &#x201c;&#x41f;&#x43b;&#x430;&#x442;&#x44c;&#x435;&#x201d;</tspan></text>
<path d="M1226.71 224.707C1227.1 224.317 1227.1 223.683 1226.71 223.293L1220.34 216.929C1219.95 216.538 1219.32 216.538 1218.93 216.929C1218.54 217.319 1218.54 217.953 1218.93 218.343L1224.59 224L1218.93 229.657C1218.54 230.047 1218.54 230.681 1218.93 231.071C1219.32 231.462 1219.95 231.462 1220.34 231.071L1226.71 224.707ZM1203 225H1226V223H1203V225Z" fill="#E3EBF6"/>
<g clip-path="url(#clip0_255_35848)">
<g clip-path="url(#clip1_255_35848)">
<rect width="1190" height="618" transform="translate(32 288)" fill="#1D1D1F"/>
<rect width="1190" height="48" transform="translate(32 288)" fill="#1D1D1F"/>
<text fill="#E3E3E3" xml:space="preserve" style="white-space: pre" font-family="Manrope" font-size="16" font-weight="500" letter-spacing="0em"><tspan x="58.5" y="318.128">&#x41f;&#x43e;&#x437;&#x438;&#x446;&#x438;&#x44f;</tspan></text>
<line x1="156.5" y1="292.5" x2="156.5" y2="331.5" stroke="#333333" stroke-linecap="round"/>
<text fill="#E3E3E3" xml:space="preserve" style="white-space: pre" font-family="Manrope" font-size="16" font-weight="500" letter-spacing="0em"><tspan x="176" y="318.128">&#x424;&#x43e;&#x442;&#x43e;</tspan></text>
<line x1="236.5" y1="292.5" x2="236.5" y2="331.5" stroke="#333333" stroke-linecap="round"/>
<text fill="#E3E3E3" xml:space="preserve" style="white-space: pre" font-family="Manrope" font-size="16" font-weight="500" letter-spacing="0em"><tspan x="248" y="318.128">&#x410;&#x440;&#x442;&#x438;&#x43a;&#x443;&#x43b; / &#x41d;&#x430;&#x438;&#x43c;&#x435;&#x43d;&#x43e;&#x432;&#x430;&#x43d;&#x438;&#x435;</tspan></text>
<line x1="742.5" y1="292.5" x2="742.5" y2="331.5" stroke="#333333" stroke-linecap="round"/>
<text fill="#E3E3E3" xml:space="preserve" style="white-space: pre" font-family="Manrope" font-size="16" font-weight="500" letter-spacing="0em"><tspan x="756.5" y="318.128">&#x420;&#x435;&#x430;&#x43b;&#x44c;&#x43d;&#x430;&#x44f; &#x441;&#x442;&#x430;&#x432;&#x43a;&#x430;</tspan></text>
<line x1="900.5" y1="292.5" x2="900.5" y2="331.5" stroke="#333333" stroke-linecap="round"/>
<text fill="#E3E3E3" xml:space="preserve" style="white-space: pre" font-family="Manrope" font-size="16" font-weight="500" letter-spacing="0em"><tspan x="929.5" y="318.128">ID &#x43a;&#x430;&#x442;&#x435;&#x433;&#x43e;&#x440;&#x438;&#x438;</tspan></text>
<line x1="1058.5" y1="292.5" x2="1058.5" y2="331.5" stroke="#333333" stroke-linecap="round"/>
<text fill="#E3E3E3" xml:space="preserve" style="white-space: pre" font-family="Manrope" font-size="16" font-weight="500" letter-spacing="0em"><tspan x="1075" y="318.128">&#x412;&#x440;&#x435;&#x43c;&#x44f; &#x434;&#x43e;&#x441;&#x442;&#x430;&#x432;&#x43a;&#x438;</tspan></text>
<mask id="path-19-inside-1_255_35848" fill="white">
<path d="M32 336H1222V386H32V336Z"/>
</mask>
<path d="M32 336H1222V386H32V336Z" fill="#1D1D1F"/>
<path d="M32 336H1222V386H32V336Z" fill="white" fill-opacity="0.04"/>
<text fill="#E3E3E3" xml:space="preserve" style="white-space: pre" font-family="Manrope" font-size="16" font-weight="500" letter-spacing="0em"><tspan x="48" y="367.128">&#x421;&#x442;&#x440;&#x430;&#x43d;&#x438;&#x446;&#x430; &#x432;&#x44b;&#x434;&#x430;&#x447;&#x438; Wildberries &#x2116;1</tspan></text>
<path d="M32 337H1222V335H32V337ZM1222 385H32V387H1222V385Z" fill="#333333" mask="url(#path-19-inside-1_255_35848)"/>
<rect width="1190" height="104" transform="translate(32 386)" fill="#1D1D1F"/>
<text fill="#E3E3E3" xml:space="preserve" style="white-space: pre" font-family="Manrope" font-size="16" letter-spacing="0em"><tspan x="88.8828" y="444.128">1</tspan></text>
<line x1="156.5" y1="396.5" x2="156.5" y2="479.5" stroke="#333333" stroke-linecap="round"/>
<rect x="176" y="408" width="40" height="60" rx="5" fill="#373737"/>
<line x1="236.5" y1="396.5" x2="236.5" y2="479.5" stroke="#333333" stroke-linecap="round"/>
<text fill="#E3E3E3" xml:space="preserve" style="white-space: pre" font-family="Manrope" font-size="16" letter-spacing="0em"><tspan x="335.516" y="444.128"> / &#x41d;&#x430;&#x437;&#x432;&#x430;&#x43d;&#x438;&#x435; &#x442;&#x43e;&#x432;&#x430;&#x440;&#x430; &#x434;&#x43b;&#x438;&#x43d;&#x43d;&#x43e;&#x435; &#x43c;&#x43e;&#x436;&#x435;&#x442; &#x431;&#x44b;&#x442;&#x44c; &#x43e;&#x447;&#x435;&#x43d;&#x44c;</tspan></text>
<text fill="#1CB554" xml:space="preserve" style="white-space: pre" font-family="Manrope" font-size="16" letter-spacing="0em"><tspan x="248" y="444.128">0192747393</tspan></text>
<line x1="742.5" y1="396.5" x2="742.5" y2="479.5" stroke="#333333" stroke-linecap="round"/>
<text fill="#E3E3E3" xml:space="preserve" style="white-space: pre" font-family="Manrope" font-size="16" letter-spacing="0em"><tspan x="800.008" y="444.128">403 &#x20bd;</tspan></text>
<line x1="900.5" y1="396.5" x2="900.5" y2="479.5" stroke="#333333" stroke-linecap="round"/>
<text fill="#E3E3E3" xml:space="preserve" style="white-space: pre" font-family="Manrope" font-size="16" letter-spacing="0em"><tspan x="935.008" y="444.128">69 - &#x41f;&#x43b;&#x430;&#x442;&#x44c;&#x435;</tspan></text>
<line x1="1058.5" y1="396.5" x2="1058.5" y2="479.5" stroke="#333333" stroke-linecap="round"/>
<text fill="#E3E3E3" xml:space="preserve" style="white-space: pre" font-family="Manrope" font-size="16" letter-spacing="0em"><tspan x="1123.52" y="444.128">24&#x447;</tspan></text>
<rect width="1190" height="104" transform="translate(32 490)" fill="#1D1D1F"/>
<rect width="1190" height="104" transform="translate(32 490)" fill="white" fill-opacity="0.04"/>
<text fill="#E3E3E3" xml:space="preserve" style="white-space: pre" font-family="Manrope" font-size="16" letter-spacing="0em"><tspan x="87.4375" y="548.128">2</tspan></text>
<line x1="156.5" y1="500.5" x2="156.5" y2="583.5" stroke="#444444" stroke-linecap="round"/>
<rect x="176" y="512" width="40" height="60" rx="5" fill="#373737"/>
<line x1="236.5" y1="500.5" x2="236.5" y2="583.5" stroke="#444444" stroke-linecap="round"/>
<text fill="#E3E3E3" xml:space="preserve" style="white-space: pre" font-family="Manrope" font-size="16" letter-spacing="0em"><tspan x="335.516" y="548.128"> / &#x41d;&#x430;&#x437;&#x432;&#x430;&#x43d;&#x438;&#x435; &#x442;&#x43e;&#x432;&#x430;&#x440;&#x430; &#x434;&#x43b;&#x438;&#x43d;&#x43d;&#x43e;&#x435; &#x43c;&#x43e;&#x436;&#x435;&#x442; &#x431;&#x44b;&#x442;&#x44c; &#x43e;&#x447;&#x435;&#x43d;&#x44c;</tspan></text>
<text fill="#1CB554" xml:space="preserve" style="white-space: pre" font-family="Manrope" font-size="16" letter-spacing="0em"><tspan x="248" y="548.128">0192747393</tspan></text>
<line x1="742.5" y1="500.5" x2="742.5" y2="583.5" stroke="#444444" stroke-linecap="round"/>
<text fill="#E3E3E3" xml:space="preserve" style="white-space: pre" font-family="Manrope" font-size="16" letter-spacing="0em"><tspan x="800.008" y="548.128">403 &#x20bd;</tspan></text>
<line x1="900.5" y1="500.5" x2="900.5" y2="583.5" stroke="#444444" stroke-linecap="round"/>
<text fill="#E3E3E3" xml:space="preserve" style="white-space: pre" font-family="Manrope" font-size="16" letter-spacing="0em"><tspan x="935.008" y="548.128">69 - &#x41f;&#x43b;&#x430;&#x442;&#x44c;&#x435;</tspan></text>
<line x1="1058.5" y1="500.5" x2="1058.5" y2="583.5" stroke="#444444" stroke-linecap="round"/>
<text fill="#E3E3E3" xml:space="preserve" style="white-space: pre" font-family="Manrope" font-size="16" letter-spacing="0em"><tspan x="1123.52" y="548.128">24&#x447;</tspan></text>
<rect width="1190" height="104" transform="translate(32 594)" fill="#1D1D1F"/>
<text fill="#E3E3E3" xml:space="preserve" style="white-space: pre" font-family="Manrope" font-size="16" letter-spacing="0em"><tspan x="84.3203" y="652.128">12</tspan></text>
<line x1="156.5" y1="604.5" x2="156.5" y2="687.5" stroke="#333333" stroke-linecap="round"/>
<rect x="176" y="616" width="40" height="60" rx="5" fill="#373737"/>
<line x1="236.5" y1="604.5" x2="236.5" y2="687.5" stroke="#333333" stroke-linecap="round"/>
<text fill="#E3E3E3" xml:space="preserve" style="white-space: pre" font-family="Manrope" font-size="16" letter-spacing="0em"><tspan x="335.516" y="652.128"> / &#x41d;&#x430;&#x437;&#x432;&#x430;&#x43d;&#x438;&#x435; &#x442;&#x43e;&#x432;&#x430;&#x440;&#x430; &#x434;&#x43b;&#x438;&#x43d;&#x43d;&#x43e;&#x435; &#x43c;&#x43e;&#x436;&#x435;&#x442; &#x431;&#x44b;&#x442;&#x44c; &#x43e;&#x447;&#x435;&#x43d;&#x44c;</tspan></text>
<text fill="#1CB554" xml:space="preserve" style="white-space: pre" font-family="Manrope" font-size="16" letter-spacing="0em"><tspan x="248" y="652.128">0192747393</tspan></text>
<line x1="742.5" y1="604.5" x2="742.5" y2="687.5" stroke="#333333" stroke-linecap="round"/>
<text fill="#E3E3E3" xml:space="preserve" style="white-space: pre" font-family="Manrope" font-size="16" letter-spacing="0em"><tspan x="800.008" y="652.128">403 &#x20bd;</tspan></text>
<line x1="900.5" y1="604.5" x2="900.5" y2="687.5" stroke="#333333" stroke-linecap="round"/>
<text fill="#E3E3E3" xml:space="preserve" style="white-space: pre" font-family="Manrope" font-size="16" letter-spacing="0em"><tspan x="935.008" y="652.128">69 - &#x41f;&#x43b;&#x430;&#x442;&#x44c;&#x435;</tspan></text>
<line x1="1058.5" y1="604.5" x2="1058.5" y2="687.5" stroke="#333333" stroke-linecap="round"/>
<text fill="#E3E3E3" xml:space="preserve" style="white-space: pre" font-family="Manrope" font-size="16" letter-spacing="0em"><tspan x="1123.52" y="652.128">24&#x447;</tspan></text>
<rect width="1190" height="104" transform="translate(32 698)" fill="#1D1D1F"/>
<rect width="1190" height="104" transform="translate(32 698)" fill="white" fill-opacity="0.04"/>
<text fill="#E3E3E3" xml:space="preserve" style="white-space: pre" font-family="Manrope" font-size="16" letter-spacing="0em"><tspan x="83.9219" y="756.128">16</tspan></text>
<line x1="156.5" y1="708.5" x2="156.5" y2="791.5" stroke="#444444" stroke-linecap="round"/>
<rect x="176" y="720" width="40" height="60" rx="5" fill="#373737"/>
<line x1="236.5" y1="708.5" x2="236.5" y2="791.5" stroke="#444444" stroke-linecap="round"/>
<text fill="#E3E3E3" xml:space="preserve" style="white-space: pre" font-family="Manrope" font-size="16" letter-spacing="0em"><tspan x="335.516" y="756.128"> / &#x41d;&#x430;&#x437;&#x432;&#x430;&#x43d;&#x438;&#x435; &#x442;&#x43e;&#x432;&#x430;&#x440;&#x430; &#x434;&#x43b;&#x438;&#x43d;&#x43d;&#x43e;&#x435; &#x43c;&#x43e;&#x436;&#x435;&#x442; &#x431;&#x44b;&#x442;&#x44c; &#x43e;&#x447;&#x435;&#x43d;&#x44c;</tspan></text>
<text fill="#1CB554" xml:space="preserve" style="white-space: pre" font-family="Manrope" font-size="16" letter-spacing="0em"><tspan x="248" y="756.128">0192747393</tspan></text>
<line x1="742.5" y1="708.5" x2="742.5" y2="791.5" stroke="#444444" stroke-linecap="round"/>
<text fill="#E3E3E3" xml:space="preserve" style="white-space: pre" font-family="Manrope" font-size="16" letter-spacing="0em"><tspan x="800.008" y="756.128">403 &#x20bd;</tspan></text>
<line x1="900.5" y1="708.5" x2="900.5" y2="791.5" stroke="#444444" stroke-linecap="round"/>
<text fill="#E3E3E3" xml:space="preserve" style="white-space: pre" font-family="Manrope" font-size="16" letter-spacing="0em"><tspan x="935.008" y="756.128">69 - &#x41f;&#x43b;&#x430;&#x442;&#x44c;&#x435;</tspan></text>
<line x1="1058.5" y1="708.5" x2="1058.5" y2="791.5" stroke="#444444" stroke-linecap="round"/>
<text fill="#E3E3E3" xml:space="preserve" style="white-space: pre" font-family="Manrope" font-size="16" letter-spacing="0em"><tspan x="1123.52" y="756.128">24&#x447;</tspan></text>
<rect width="1190" height="104" transform="translate(32 802)" fill="#1D1D1F"/>
<text fill="#E3E3E3" xml:space="preserve" style="white-space: pre" font-family="Manrope" font-size="16" letter-spacing="0em"><tspan x="84.3203" y="860.128">21</tspan></text>
<line x1="156.5" y1="812.5" x2="156.5" y2="895.5" stroke="#333333" stroke-linecap="round"/>
<rect x="176" y="824" width="40" height="60" rx="5" fill="#373737"/>
<line x1="236.5" y1="812.5" x2="236.5" y2="895.5" stroke="#333333" stroke-linecap="round"/>
<text fill="#E3E3E3" xml:space="preserve" style="white-space: pre" font-family="Manrope" font-size="16" letter-spacing="0em"><tspan x="335.516" y="860.128"> / &#x41d;&#x430;&#x437;&#x432;&#x430;&#x43d;&#x438;&#x435; &#x442;&#x43e;&#x432;&#x430;&#x440;&#x430; &#x434;&#x43b;&#x438;&#x43d;&#x43d;&#x43e;&#x435; &#x43c;&#x43e;&#x436;&#x435;&#x442; &#x431;&#x44b;&#x442;&#x44c; &#x43e;&#x447;&#x435;&#x43d;&#x44c;</tspan></text>
<text fill="#1CB554" xml:space="preserve" style="white-space: pre" font-family="Manrope" font-size="16" letter-spacing="0em"><tspan x="248" y="860.128">0192747393</tspan></text>
<line x1="742.5" y1="812.5" x2="742.5" y2="895.5" stroke="#333333" stroke-linecap="round"/>
<text fill="#E3E3E3" xml:space="preserve" style="white-space: pre" font-family="Manrope" font-size="16" letter-spacing="0em"><tspan x="800.008" y="860.128">403 &#x20bd;</tspan></text>
<line x1="900.5" y1="812.5" x2="900.5" y2="895.5" stroke="#333333" stroke-linecap="round"/>
<text fill="#E3E3E3" xml:space="preserve" style="white-space: pre" font-family="Manrope" font-size="16" letter-spacing="0em"><tspan x="935.008" y="860.128">69 - &#x41f;&#x43b;&#x430;&#x442;&#x44c;&#x435;</tspan></text>
<line x1="1058.5" y1="812.5" x2="1058.5" y2="895.5" stroke="#333333" stroke-linecap="round"/>
<text fill="#E3E3E3" xml:space="preserve" style="white-space: pre" font-family="Manrope" font-size="16" letter-spacing="0em"><tspan x="1123.52" y="860.128">24&#x447;</tspan></text>
</g>
<rect x="1222.5" y="288.5" width="25" height="617" fill="#1D1D1F"/>
<rect width="2" height="570" transform="translate(1234 312)" fill="#262628"/>
<rect x="1233" y="312" width="4" height="160" rx="2" fill="#373737"/>
<rect x="1222.5" y="288.5" width="25" height="617" stroke="#333333"/>
</g>
<rect x="32.5" y="288.5" width="1215" height="617" rx="15.5" stroke="#333333"/>
<path d="M659.42 90.9433C657.794 90.6228 656.736 89.0452 657.057 87.4197C657.377 85.7941 658.955 84.7362 660.58 85.0567L659.42 90.9433ZM667.442 170.82C665.885 170.254 665.082 168.533 665.647 166.975L674.869 141.599C675.435 140.042 677.156 139.238 678.713 139.804C680.27 140.37 681.074 142.091 680.508 143.648L672.311 166.205L694.868 174.402C696.425 174.968 697.229 176.689 696.663 178.246C696.097 179.803 694.376 180.607 692.819 180.041L667.442 170.82ZM660.58 85.0567C676.293 88.1547 690.413 92.1607 701.353 97.1378C712.143 102.047 720.498 108.194 723.654 115.96C726.989 124.168 724.122 132.949 715.47 141.856C706.852 150.729 692.007 160.319 669.736 170.718L667.198 165.282C689.254 154.983 703.312 145.762 711.166 137.676C718.986 129.625 720.16 123.3 718.095 118.219C715.852 112.698 709.366 107.375 698.868 102.599C688.519 97.891 674.902 93.996 659.42 90.9433L660.58 85.0567Z" fill="white"/>
<defs>
<clipPath id="clip0_255_35848">
<rect x="32" y="288" width="1216" height="618" rx="16" fill="white"/>
</clipPath>
<clipPath id="clip1_255_35848">
<rect width="1190" height="618" fill="white" transform="translate(32 288)"/>
</clipPath>
</defs>
</svg>
