<svg width="400" height="290" viewBox="0 0 400 290" fill="none" xmlns="http://www.w3.org/2000/svg">
<g filter="url(#filter0_b_1042_65678)">
<g clip-path="url(#clip0_1042_65678)">
<rect width="400" height="290" rx="32" fill="#4D4D4D"/>
<g opacity="0.6" filter="url(#filter1_f_1042_65678)">
<path d="M309.314 -43.9766C319.259 -55.1655 336.741 -55.1655 346.686 -43.9766L420.835 39.4481C424.416 43.4764 429.202 46.2398 434.481 47.3264L543.803 69.8292C558.466 72.8473 567.207 87.9872 562.489 102.194L527.316 208.122C525.618 213.237 525.618 218.763 527.316 223.878L562.489 329.806C567.207 344.013 558.466 359.153 543.803 362.171L434.481 384.674C429.202 385.76 424.416 388.524 420.835 392.552L346.686 475.977C336.741 487.166 319.259 487.166 309.314 475.977L235.165 392.552C231.584 388.524 226.798 385.76 221.519 384.674L112.197 362.171C97.5343 359.153 88.7933 344.013 93.5107 329.806L128.684 223.878C130.382 218.763 130.382 213.237 128.684 208.122L93.5107 102.194C88.7933 87.9872 97.5343 72.8473 112.197 69.8292L221.519 47.3264C226.798 46.2398 231.584 43.4764 235.165 39.4481L309.314 -43.9766Z" fill="#FF2B2B"/>
</g>
<g opacity="0.5" filter="url(#filter2_f_1042_65678)">
<path d="M102.295 -146.045C112.085 -161.722 134.915 -161.722 144.705 -146.045L208.704 -43.5637C213.109 -36.5104 220.733 -32.109 229.043 -31.821L349.795 -27.6365C368.266 -26.9963 379.681 -7.22579 371 9.09122L314.248 115.757C310.342 123.099 310.342 131.901 314.248 139.243L371 245.909C379.681 262.226 368.266 281.996 349.795 282.636L229.043 286.821C220.733 287.109 213.109 291.51 208.704 298.564L144.705 401.045C134.915 416.722 112.085 416.722 102.295 401.045L38.2956 298.564C33.8909 291.51 26.2674 287.109 17.9567 286.821L-102.795 282.636C-121.266 281.996 -132.681 262.226 -123.999 245.909L-67.2477 139.243C-63.3418 131.901 -63.3418 123.099 -67.2477 115.757L-123.999 9.09123C-132.681 -7.22577 -121.266 -26.9963 -102.795 -27.6365L17.9567 -31.821C26.2674 -32.109 33.8909 -36.5104 38.2956 -43.5637L102.295 -146.045Z" fill="#EB801D"/>
</g>
<g filter="url(#filter3_d_1042_65678)">
<rect x="32" y="32" width="336" height="446.25" rx="16.8" fill="#161616"/>
<text fill="#9B9B9B" xml:space="preserve" style="white-space: pre" font-family="Raleway" font-size="9" font-weight="500" letter-spacing="0em"><tspan x="47.0825" y="59.8418">&#x421;&#x442;&#x430;&#x432;&#x43a;&#x438; &#x43f;&#x43e; &#x437;&#x430;&#x43f;&#x440;&#x43e;&#x441;&#x443;:</tspan></text>
<text fill="#1CB554" xml:space="preserve" style="white-space: pre" font-family="Raleway" font-size="9" font-weight="600" letter-spacing="0em"><tspan x="162.607" y="59.8418">&#x42d;&#x442;&#x438;&#x43a;&#x435;&#x442;&#x43a;&#x438;</tspan></text>
<text fill="#7B7B7B" xml:space="preserve" style="white-space: pre" font-family="Inter" font-size="9" letter-spacing="0em"><tspan x="47.0825" y="81.4143">&#x418;&#x43c;&#x44f; &#x43a;&#x430;&#x442;&#x435;&#x433;&#x43e;&#x440;&#x438;&#x438;</tspan></text>
<text fill="#F9F9F9" xml:space="preserve" style="white-space: pre" font-family="Inter" font-size="10" letter-spacing="0em"><tspan x="47.0825" y="99.7332">WB_04</tspan></text>
<text fill="#7B7B7B" xml:space="preserve" style="white-space: pre" font-family="Inter" font-size="9" letter-spacing="0em"><tspan x="203.771" y="81.4143">ID &#x43a;&#x430;&#x442;&#x435;&#x433;&#x43e;&#x440;&#x438;&#x438;</tspan></text>
<text fill="#F9F9F9" xml:space="preserve" style="white-space: pre" font-family="Inter" font-size="10" letter-spacing="0em"><tspan x="203.771" y="99.7332">31258734</tspan></text>
<rect x="47.0825" y="110.936" width="305.835" height="0.754124" fill="#373737"/>
<text fill="#7B7B7B" xml:space="preserve" style="white-space: pre" font-family="Inter" font-size="9" letter-spacing="0em"><tspan x="47.0825" y="129.022">&#x426;&#x435;&#x43b;&#x435;&#x432;&#x430;&#x44f; &#x43f;&#x43e;&#x437;&#x438;&#x446;&#x438;&#x44f;</tspan></text>
<rect x="47.0825" y="139.772" width="56.6237" height="19.033" rx="9.5165" fill="#1CB554"/>
<text fill="#101010" xml:space="preserve" style="white-space: pre" font-family="Inter" font-size="9" letter-spacing="0em"><tspan x="58.3945" y="152.579">1 &#x43c;&#x435;&#x441;&#x442;&#x43e;</tspan></text>
<text fill="#F9F9F9" xml:space="preserve" style="white-space: pre" font-family="Inter" font-size="10" font-weight="500" letter-spacing="-0.03em"><tspan x="111.248" y="153.128"> &#x2013;</tspan></text>
<rect x="126.789" y="139.772" width="58.6237" height="19.033" rx="9.5165" fill="#1CB554"/>
<text fill="#101010" xml:space="preserve" style="white-space: pre" font-family="Inter" font-size="9" letter-spacing="0em"><tspan x="138.101" y="152.579">5 &#x43c;&#x435;&#x441;&#x442;&#x43e;</tspan></text>
<text fill="#7B7B7B" xml:space="preserve" style="white-space: pre" font-family="Inter" font-size="9" letter-spacing="0em"><tspan x="203.771" y="129.022">&#x422;&#x435;&#x43a;&#x443;&#x449;&#x430;&#x44f; &#x441;&#x442;&#x430;&#x432;&#x43a;&#x430;</tspan></text>
<text fill="#FE622C" xml:space="preserve" style="white-space: pre" font-family="Inter" font-size="9" letter-spacing="0em"><tspan x="215.083" y="152.579">&#x41d;&#x435; &#x437;&#x430;&#x43d;&#x44f;&#x442;&#x43e; &#x43c;&#x435;&#x441;&#x442;&#x43e; - 321 &#x20bd;</tspan></text>
<rect x="204.148" y="140.149" width="129.87" height="18.2789" rx="9.13943" stroke="#FE622C" stroke-width="0.754124"/>
<rect x="47.0825" y="166.347" width="305.835" height="0.754124" fill="#373737"/>
<text fill="#7B7B7B" xml:space="preserve" style="white-space: pre" font-family="Inter" font-size="9" letter-spacing="0em"><tspan x="47.0825" y="184.432">&#x420;&#x435;&#x430;&#x43b;&#x44c;&#x43d;&#x44b;&#x435; &#x441;&#x442;&#x430;&#x432;&#x43a;&#x438;</tspan></text>
<rect x="47.4596" y="195.56" width="72.3284" height="21.2954" rx="10.6477" fill="#1C1C1C"/>
<text fill="#9B9B9B" xml:space="preserve" style="white-space: pre" font-family="Inter" font-size="9" letter-spacing="0em"><tspan x="64.4684" y="209.498">1 &#x2013; 2 500 &#x20bd;</tspan></text>
<text fill="#9B9B9B" xml:space="preserve" style="white-space: pre" font-family="Inter" font-size="9" letter-spacing="0em"><tspan x="54.6235" y="209.498">&#x2116;</tspan></text>
<rect x="47.4596" y="195.56" width="72.3284" height="21.2954" rx="10.6477" stroke="#373737" stroke-width="0.754124"/>
<rect x="47.4596" y="221.38" width="65.3284" height="21.2954" rx="10.6477" fill="#1C1C1C"/>
<text fill="#9B9B9B" xml:space="preserve" style="white-space: pre" font-family="Inter" font-size="9" letter-spacing="0em"><tspan x="64.4684" y="235.319">4 &#x2013; 985 &#x20bd;</tspan></text>
<text fill="#9B9B9B" xml:space="preserve" style="white-space: pre" font-family="Inter" font-size="9" letter-spacing="0em"><tspan x="54.6235" y="235.319">&#x2116;</tspan></text>
<rect x="47.4596" y="221.38" width="65.3284" height="21.2954" rx="10.6477" stroke="#373737" stroke-width="0.754124"/>
<rect x="47.4596" y="247.2" width="65.3284" height="21.2954" rx="10.6477" fill="#1C1C1C"/>
<text fill="#9B9B9B" xml:space="preserve" style="white-space: pre" font-family="Inter" font-size="9" letter-spacing="0em"><tspan x="64.4684" y="261.138">8 &#x2013; 790 &#x20bd;</tspan></text>
<text fill="#9B9B9B" xml:space="preserve" style="white-space: pre" font-family="Inter" font-size="9" letter-spacing="0em"><tspan x="54.6235" y="261.138">&#x2116;</tspan></text>
<rect x="47.4596" y="247.2" width="65.3284" height="21.2954" rx="10.6477" stroke="#373737" stroke-width="0.754124"/>
<rect x="123.936" y="195.183" width="73.0825" height="22.0495" rx="11.0247" fill="#1CB554"/>
<text fill="#101010" xml:space="preserve" style="white-space: pre" font-family="Inter" font-size="9" letter-spacing="0em"><tspan x="141.321" y="209.498">2 &#x2013; 2 231 &#x20bd;</tspan></text>
<text fill="#101010" xml:space="preserve" style="white-space: pre" font-family="Inter" font-size="9" letter-spacing="0em"><tspan x="131.477" y="209.498">&#x2116;</tspan></text>
<rect x="124.313" y="221.38" width="65.3284" height="21.2954" rx="10.6477" fill="#1C1C1C"/>
<text fill="#9B9B9B" xml:space="preserve" style="white-space: pre" font-family="Inter" font-size="9" letter-spacing="0em"><tspan x="141.321" y="235.319">5 &#x2013; 900 &#x20bd;</tspan></text>
<text fill="#9B9B9B" xml:space="preserve" style="white-space: pre" font-family="Inter" font-size="9" letter-spacing="0em"><tspan x="131.477" y="235.319">&#x2116;</tspan></text>
<rect x="124.313" y="221.38" width="65.3284" height="21.2954" rx="10.6477" stroke="#373737" stroke-width="0.754124"/>
<rect x="124.313" y="247.2" width="65.3284" height="21.2954" rx="10.6477" fill="#1C1C1C"/>
<text fill="#9B9B9B" xml:space="preserve" style="white-space: pre" font-family="Inter" font-size="9" letter-spacing="0em"><tspan x="141.321" y="261.138">9 &#x2013; 600 &#x20bd;</tspan></text>
<text fill="#9B9B9B" xml:space="preserve" style="white-space: pre" font-family="Inter" font-size="9" letter-spacing="0em"><tspan x="131.477" y="261.138">&#x2116;</tspan></text>
<rect x="124.313" y="247.2" width="65.3284" height="21.2954" rx="10.6477" stroke="#373737" stroke-width="0.754124"/>
<rect x="201.166" y="195.56" width="72.3284" height="21.2954" rx="10.6477" fill="#1C1C1C"/>
<text fill="#9B9B9B" xml:space="preserve" style="white-space: pre" font-family="Inter" font-size="9" letter-spacing="0em"><tspan x="218.174" y="209.498">3 &#x2013; 1 999 &#x20bd;</tspan></text>
<text fill="#9B9B9B" xml:space="preserve" style="white-space: pre" font-family="Inter" font-size="9" letter-spacing="0em"><tspan x="208.33" y="209.498">&#x2116;</tspan></text>
<rect x="201.166" y="195.56" width="72.3284" height="21.2954" rx="10.6477" stroke="#373737" stroke-width="0.754124"/>
<rect x="201.166" y="221.38" width="65.3284" height="21.2954" rx="10.6477" fill="#1C1C1C"/>
<text fill="#9B9B9B" xml:space="preserve" style="white-space: pre" font-family="Inter" font-size="9" letter-spacing="0em"><tspan x="218.174" y="235.319">6 &#x2013; 850 &#x20bd;</tspan></text>
<text fill="#9B9B9B" xml:space="preserve" style="white-space: pre" font-family="Inter" font-size="9" letter-spacing="0em"><tspan x="208.33" y="235.319">&#x2116;</tspan></text>
<rect x="201.166" y="221.38" width="65.3284" height="21.2954" rx="10.6477" stroke="#373737" stroke-width="0.754124"/>
<rect x="201.166" y="247.2" width="68.3284" height="21.2954" rx="10.6477" fill="#1C1C1C"/>
<text fill="#9B9B9B" xml:space="preserve" style="white-space: pre" font-family="Inter" font-size="9" letter-spacing="0em"><tspan x="218.174" y="261.138">10 &#x2013; 515 &#x20bd;</tspan></text>
<text fill="#9B9B9B" xml:space="preserve" style="white-space: pre" font-family="Inter" font-size="9" letter-spacing="0em"><tspan x="208.33" y="261.138">&#x2116;</tspan></text>
<rect x="201.166" y="247.2" width="68.3284" height="21.2954" rx="10.6477" stroke="#373737" stroke-width="0.754124"/>
<rect x="278.019" y="195.56" width="65.3284" height="21.2954" rx="10.6477" fill="#1C1C1C"/>
<text fill="#9B9B9B" xml:space="preserve" style="white-space: pre" font-family="Inter" font-size="9" letter-spacing="0em"><tspan x="295.027" y="209.498">4 &#x2013; 985 &#x20bd;</tspan></text>
<text fill="#9B9B9B" xml:space="preserve" style="white-space: pre" font-family="Inter" font-size="9" letter-spacing="0em"><tspan x="285.183" y="209.498">&#x2116;</tspan></text>
<rect x="278.019" y="195.56" width="65.3284" height="21.2954" rx="10.6477" stroke="#373737" stroke-width="0.754124"/>
<rect x="278.019" y="221.38" width="63.3284" height="21.2954" rx="10.6477" fill="#1C1C1C"/>
<text fill="#9B9B9B" xml:space="preserve" style="white-space: pre" font-family="Inter" font-size="9" letter-spacing="0em"><tspan x="285.183" y="235.319">&#x2116;7 &#x2013; 815 &#x20bd;</tspan></text>
<rect x="278.019" y="221.38" width="63.3284" height="21.2954" rx="10.6477" stroke="#373737" stroke-width="0.754124"/>
<text fill="#7B7B7B" xml:space="preserve" style="white-space: pre" font-family="Inter" font-size="9" letter-spacing="0em"><tspan x="47.0825" y="286.205">&#x421;&#x442;&#x430;&#x432;&#x43a;&#x438; &#x43e;&#x442; WB</tspan></text>
<rect x="32.3771" y="32.3771" width="335.246" height="445.496" rx="16.4229" stroke="#373737" stroke-width="0.754124"/>
</g>
</g>
</g>
<defs>
<filter id="filter0_b_1042_65678" x="-32" y="-32" width="464" height="354" filterUnits="userSpaceOnUse" color-interpolation-filters="sRGB">
<feFlood flood-opacity="0" result="BackgroundImageFix"/>
<feGaussianBlur in="BackgroundImageFix" stdDeviation="16"/>
<feComposite in2="SourceAlpha" operator="in" result="effect1_backgroundBlur_1042_65678"/>
<feBlend mode="normal" in="SourceGraphic" in2="effect1_backgroundBlur_1042_65678" result="shape"/>
</filter>
<filter id="filter1_f_1042_65678" x="-57.7734" y="-202.368" width="771.547" height="836.736" filterUnits="userSpaceOnUse" color-interpolation-filters="sRGB">
<feFlood flood-opacity="0" result="BackgroundImageFix"/>
<feBlend mode="normal" in="SourceGraphic" in2="BackgroundImageFix" result="shape"/>
<feGaussianBlur stdDeviation="75" result="effect1_foregroundBlur_1042_65678"/>
</filter>
<filter id="filter2_f_1042_65678" x="-206.96" y="-237.803" width="660.92" height="730.605" filterUnits="userSpaceOnUse" color-interpolation-filters="sRGB">
<feFlood flood-opacity="0" result="BackgroundImageFix"/>
<feBlend mode="normal" in="SourceGraphic" in2="BackgroundImageFix" result="shape"/>
<feGaussianBlur stdDeviation="40" result="effect1_foregroundBlur_1042_65678"/>
</filter>
<filter id="filter3_d_1042_65678" x="20.6881" y="28.2294" width="358.624" height="468.874" filterUnits="userSpaceOnUse" color-interpolation-filters="sRGB">
<feFlood flood-opacity="0" result="BackgroundImageFix"/>
<feColorMatrix in="SourceAlpha" type="matrix" values="0 0 0 0 0 0 0 0 0 0 0 0 0 0 0 0 0 0 127 0" result="hardAlpha"/>
<feOffset dy="7.54124"/>
<feGaussianBlur stdDeviation="5.65593"/>
<feComposite in2="hardAlpha" operator="out"/>
<feColorMatrix type="matrix" values="0 0 0 0 0 0 0 0 0 0 0 0 0 0 0 0 0 0 0.05 0"/>
<feBlend mode="normal" in2="BackgroundImageFix" result="effect1_dropShadow_1042_65678"/>
<feBlend mode="normal" in="SourceGraphic" in2="effect1_dropShadow_1042_65678" result="shape"/>
</filter>
<clipPath id="clip0_1042_65678">
<rect width="400" height="290" rx="32" fill="white"/>
</clipPath>
</defs>
</svg>
