<svg width="690" height="576" viewBox="0 0 690 576" fill="none" xmlns="http://www.w3.org/2000/svg">
<g clip-path="url(#clip0_275_27328)">
<rect width="690" height="576" rx="32" fill="#1D1D1F"/>
<text class="wbads-img-title" fill="#FAFAFA" xml:space="preserve" style="white-space: pre" font-family="Raleway" font-size="40" font-weight="600" letter-spacing="0em"><tspan x="32" y="72.12">&#x423;&#x437;&#x43d;&#x430;&#x439;&#x442;&#x435; &#x440;&#x435;&#x430;&#x43b;&#x44c;&#x43d;&#x443;&#x44e; &#x441;&#x442;&#x430;&#x432;&#x43a;&#x443;&#10;</tspan><tspan x="32" y="124.12">&#x43d;&#x430; &#x441;&#x432;&#x43e;&#x439; &#x442;&#x43e;&#x432;&#x430;&#x440; &#x432; &#x43f;&#x43e;&#x438;&#x441;&#x43a;&#x435;</tspan></text>
<rect x="32" y="176" width="626" height="64" rx="16" fill="#373737"/>
<text fill="#E3EBF6" fill-opacity="0.34" xml:space="preserve" style="white-space: pre" font-family="Manrope" font-size="16" font-weight="500" letter-spacing="0em"><tspan x="54" y="214.128">&#x412;&#x432;&#x435;&#x434;&#x438; &#x43d;&#x430;&#x437;&#x432;&#x430;&#x43d;&#x438;&#x435; &#x441;&#x432;&#x43e;&#x435;&#x433;&#x43e; &#x442;&#x43e;&#x432;&#x430;&#x440;&#x430; &#x438; &#x443;&#x437;&#x43d;&#x430;&#x439; &#x441;&#x43a;&#x43e;&#x43b;&#x44c;&#x43a;&#x43e; &#x43c;&#x43e;&#x433; &#x441;&#x44d;&#x43a;&#x43e;&#x43d;&#x43e;&#x43c;&#x438;&#x442;&#x44c;</tspan></text>
<path d="M636.707 208.707C637.098 208.317 637.098 207.683 636.707 207.293L630.343 200.929C629.953 200.538 629.319 200.538 628.929 200.929C628.538 201.319 628.538 201.953 628.929 202.343L634.586 208L628.929 213.657C628.538 214.047 628.538 214.681 628.929 215.071C629.319 215.462 629.953 215.462 630.343 215.071L636.707 208.707ZM613 209H636V207H613V209Z" fill="#E3EBF6"/>
<rect x="32" y="272" width="240" height="272" rx="16" fill="#1D1D1F"/>
<rect x="32" y="272" width="240" height="272" rx="16" fill="white" fill-opacity="0.04"/>
<rect x="48" y="288" width="80" height="120" rx="5" fill="#373737"/>
<text fill="#E3E3E3" xml:space="preserve" style="white-space: pre" font-family="Manrope" font-size="14" font-weight="500" letter-spacing="0em"><tspan x="213.82" y="303.362"> </tspan><tspan x="136" y="323.362">&#x41d;&#x430;&#x437;&#x432;&#x430;&#x43d;&#x438;&#x435; &#x442;&#x43e;&#x432;&#x430;&#x440;&#x430; </tspan><tspan x="136" y="343.362">&#x434;&#x43b;&#x438;&#x43d;&#x43d;&#x43e;&#x435; &#x43c;&#x43e;&#x436;&#x435;&#x442; </tspan><tspan x="136" y="363.362">&#x431;&#x44b;&#x442;&#x44c; &#x43e;&#x447;&#x435;&#x43d;&#x44c;</tspan></text>
<text fill="#1CB554" xml:space="preserve" style="white-space: pre" font-family="Manrope" font-size="14" font-weight="500" letter-spacing="0em"><tspan x="136" y="303.362">0192747393</tspan></text>
<text fill="#C9C9C9" xml:space="preserve" style="white-space: pre" font-family="Manrope" font-size="14" letter-spacing="0em"><tspan x="48" y="439.362">&#x41f;&#x43e;&#x437;&#x438;&#x446;&#x438;&#x44f;:</tspan></text>
<text fill="white" xml:space="preserve" style="white-space: pre" font-family="Manrope" font-size="14" letter-spacing="0em"><tspan x="116" y="439.362">1</tspan></text>
<text fill="#C9C9C9" xml:space="preserve" style="white-space: pre" font-family="Manrope" font-size="14" letter-spacing="0em"><tspan x="48" y="467.362">&#x420;&#x435;&#x430;&#x43b;&#x44c;&#x43d;&#x430;&#x44f; &#x441;&#x442;&#x430;&#x432;&#x43a;&#x430;:</tspan></text>
<text fill="white" xml:space="preserve" style="white-space: pre" font-family="Manrope" font-size="14" letter-spacing="0em"><tspan x="169" y="467.362">403 &#x20bd;</tspan></text>
<text fill="#C9C9C9" xml:space="preserve" style="white-space: pre" font-family="Manrope" font-size="14" letter-spacing="0em"><tspan x="48" y="495.362">ID &#x43a;&#x430;&#x442;&#x435;&#x433;&#x43e;&#x440;&#x438;&#x438;:</tspan></text>
<text fill="white" xml:space="preserve" style="white-space: pre" font-family="Manrope" font-size="14" letter-spacing="0em"><tspan x="143" y="495.362">69 - &#x41f;&#x43b;&#x430;&#x442;&#x44c;&#x435;</tspan></text>
<text fill="#C9C9C9" xml:space="preserve" style="white-space: pre" font-family="Manrope" font-size="14" letter-spacing="0em"><tspan x="48" y="523.362">&#x412;&#x440;&#x435;&#x43c;&#x44f; &#x434;&#x43e;&#x441;&#x442;&#x430;&#x432;&#x43a;&#x438;:</tspan></text>
<text fill="white" xml:space="preserve" style="white-space: pre" font-family="Manrope" font-size="14" letter-spacing="0em"><tspan x="165" y="523.362">24&#x447;</tspan></text>
<rect x="288" y="272" width="240" height="272" rx="16" fill="#1D1D1F"/>
<rect x="288" y="272" width="240" height="272" rx="16" fill="white" fill-opacity="0.04"/>
<rect x="304" y="288" width="80" height="120" rx="5" fill="#373737"/>
<text fill="#E3E3E3" xml:space="preserve" style="white-space: pre" font-family="Manrope" font-size="14" font-weight="500" letter-spacing="0em"><tspan x="469.82" y="303.362"> </tspan><tspan x="392" y="323.362">&#x41d;&#x430;&#x437;&#x432;&#x430;&#x43d;&#x438;&#x435; &#x442;&#x43e;&#x432;&#x430;&#x440;&#x430; </tspan><tspan x="392" y="343.362">&#x434;&#x43b;&#x438;&#x43d;&#x43d;&#x43e;&#x435; &#x43c;&#x43e;&#x436;&#x435;&#x442; </tspan><tspan x="392" y="363.362">&#x431;&#x44b;&#x442;&#x44c; &#x43e;&#x447;&#x435;&#x43d;&#x44c;</tspan></text>
<text fill="#1CB554" xml:space="preserve" style="white-space: pre" font-family="Manrope" font-size="14" font-weight="500" letter-spacing="0em"><tspan x="392" y="303.362">0192747393</tspan></text>
<text fill="#C9C9C9" xml:space="preserve" style="white-space: pre" font-family="Manrope" font-size="14" letter-spacing="0em"><tspan x="304" y="439.362">&#x41f;&#x43e;&#x437;&#x438;&#x446;&#x438;&#x44f;:</tspan></text>
<text fill="white" xml:space="preserve" style="white-space: pre" font-family="Manrope" font-size="14" letter-spacing="0em"><tspan x="372" y="439.362">1</tspan></text>
<text fill="#C9C9C9" xml:space="preserve" style="white-space: pre" font-family="Manrope" font-size="14" letter-spacing="0em"><tspan x="304" y="467.362">&#x420;&#x435;&#x430;&#x43b;&#x44c;&#x43d;&#x430;&#x44f; &#x441;&#x442;&#x430;&#x432;&#x43a;&#x430;:</tspan></text>
<text fill="white" xml:space="preserve" style="white-space: pre" font-family="Manrope" font-size="14" letter-spacing="0em"><tspan x="425" y="467.362">403 &#x20bd;</tspan></text>
<text fill="#C9C9C9" xml:space="preserve" style="white-space: pre" font-family="Manrope" font-size="14" letter-spacing="0em"><tspan x="304" y="495.362">ID &#x43a;&#x430;&#x442;&#x435;&#x433;&#x43e;&#x440;&#x438;&#x438;:</tspan></text>
<text fill="white" xml:space="preserve" style="white-space: pre" font-family="Manrope" font-size="14" letter-spacing="0em"><tspan x="399" y="495.362">69 - &#x41f;&#x43b;&#x430;&#x442;&#x44c;&#x435;</tspan></text>
<text fill="#C9C9C9" xml:space="preserve" style="white-space: pre" font-family="Manrope" font-size="14" letter-spacing="0em"><tspan x="304" y="523.362">&#x412;&#x440;&#x435;&#x43c;&#x44f; &#x434;&#x43e;&#x441;&#x442;&#x430;&#x432;&#x43a;&#x438;:</tspan></text>
<text fill="white" xml:space="preserve" style="white-space: pre" font-family="Manrope" font-size="14" letter-spacing="0em"><tspan x="421" y="523.362">24&#x447;</tspan></text>
<rect x="544" y="272" width="240" height="272" rx="16" fill="#1D1D1F"/>
<rect x="544" y="272" width="240" height="272" rx="16" fill="white" fill-opacity="0.04"/>
<rect x="560" y="288" width="80" height="120" rx="5" fill="#373737"/>
<text fill="#E3E3E3" xml:space="preserve" style="white-space: pre" font-family="Manrope" font-size="14" font-weight="500" letter-spacing="0em"><tspan x="725.82" y="303.362"> </tspan><tspan x="648" y="323.362">&#x41d;&#x430;&#x437;&#x432;&#x430;&#x43d;&#x438;&#x435; &#x442;&#x43e;&#x432;&#x430;&#x440;&#x430; </tspan><tspan x="648" y="343.362">&#x434;&#x43b;&#x438;&#x43d;&#x43d;&#x43e;&#x435; &#x43c;&#x43e;&#x436;&#x435;&#x442; </tspan><tspan x="648" y="363.362">&#x431;&#x44b;&#x442;&#x44c; &#x43e;&#x447;&#x435;&#x43d;&#x44c;</tspan></text>
<text fill="#1CB554" xml:space="preserve" style="white-space: pre" font-family="Manrope" font-size="14" font-weight="500" letter-spacing="0em"><tspan x="648" y="303.362">0192747393</tspan></text>
<text fill="#C9C9C9" xml:space="preserve" style="white-space: pre" font-family="Manrope" font-size="14" letter-spacing="0em"><tspan x="560" y="439.362">&#x41f;&#x43e;&#x437;&#x438;&#x446;&#x438;&#x44f;:</tspan></text>
<text fill="white" xml:space="preserve" style="white-space: pre" font-family="Manrope" font-size="14" letter-spacing="0em"><tspan x="628" y="439.362">1</tspan></text>
<text fill="#C9C9C9" xml:space="preserve" style="white-space: pre" font-family="Manrope" font-size="14" letter-spacing="0em"><tspan x="560" y="467.362">&#x420;&#x435;&#x430;&#x43b;&#x44c;&#x43d;&#x430;&#x44f; &#x441;&#x442;&#x430;&#x432;&#x43a;&#x430;:</tspan></text>
<text fill="white" xml:space="preserve" style="white-space: pre" font-family="Manrope" font-size="14" letter-spacing="0em"><tspan x="681" y="467.362">403 &#x20bd;</tspan></text>
<text fill="#C9C9C9" xml:space="preserve" style="white-space: pre" font-family="Manrope" font-size="14" letter-spacing="0em"><tspan x="560" y="495.362">ID &#x43a;&#x430;&#x442;&#x435;&#x433;&#x43e;&#x440;&#x438;&#x438;:</tspan></text>
<text fill="white" xml:space="preserve" style="white-space: pre" font-family="Manrope" font-size="14" letter-spacing="0em"><tspan x="655" y="495.362">69 - &#x41f;&#x43b;&#x430;&#x442;&#x44c;&#x435;</tspan></text>
<text fill="#C9C9C9" xml:space="preserve" style="white-space: pre" font-family="Manrope" font-size="14" letter-spacing="0em"><tspan x="560" y="523.362">&#x412;&#x440;&#x435;&#x43c;&#x44f; &#x434;&#x43e;&#x441;&#x442;&#x430;&#x432;&#x43a;&#x438;:</tspan></text>
<text fill="white" xml:space="preserve" style="white-space: pre" font-family="Manrope" font-size="14" letter-spacing="0em"><tspan x="677" y="523.362">24&#x447;</tspan></text>
<path d="M559.42 74.9433C557.794 74.6228 556.736 73.0452 557.057 71.4197C557.377 69.7941 558.955 68.7362 560.58 69.0567L559.42 74.9433ZM567.442 154.82C565.885 154.254 565.082 152.533 565.647 150.975L574.869 125.599C575.435 124.042 577.156 123.238 578.713 123.804C580.27 124.37 581.074 126.091 580.508 127.648L572.311 150.205L594.868 158.402C596.425 158.968 597.229 160.689 596.663 162.246C596.097 163.803 594.376 164.607 592.819 164.041L567.442 154.82ZM560.58 69.0567C576.293 72.1547 590.413 76.1607 601.353 81.1378C612.143 86.0469 620.498 92.1939 623.654 99.9604C626.989 108.168 624.122 116.949 615.47 125.856C606.852 134.729 592.007 144.319 569.736 154.718L567.198 149.282C589.254 138.983 603.312 129.762 611.166 121.676C618.986 113.625 620.16 107.3 618.095 102.219C615.852 96.6978 609.366 91.3752 598.868 86.5991C588.519 81.891 574.902 77.996 559.42 74.9433L560.58 69.0567Z" fill="white"/>
</g>
<defs>
<clipPath id="clip0_275_27328">
<rect width="690" height="576" rx="32" fill="white"/>
</clipPath>
</defs>
</svg>
