<svg width="340" height="508" viewBox="0 0 340 508" fill="none" xmlns="http://www.w3.org/2000/svg">
<g clip-path="url(#clip0_275_29853)">
<rect width="340" height="508" rx="16" fill="#1D1D1F"/>
<text class="wbads-img-title" fill="#FAFAFA" xml:space="preserve" style="white-space: pre" font-family="Raleway" font-size="26" font-weight="600" letter-spacing="0em"><tspan x="16" y="41.178">&#x423;&#x437;&#x43d;&#x430;&#x439;&#x442;&#x435; &#x440;&#x435;&#x430;&#x43b;&#x44c;&#x43d;&#x443;&#x44e; </tspan><tspan x="16" y="73.178">&#x441;&#x442;&#x430;&#x432;&#x43a;&#x443; &#x43d;&#x430; &#x441;&#x432;&#x43e;&#x439; &#x442;&#x43e;&#x432;&#x430;&#x440;&#10;</tspan><tspan x="16" y="105.178">&#x432; &#x43f;&#x43e;&#x438;&#x441;&#x43a;&#x435;</tspan></text>
<rect x="16" y="136" width="308" height="76" rx="8" fill="#373737"/>
<text fill="#E3EBF6" fill-opacity="0.34" xml:space="preserve" style="white-space: pre" font-family="Manrope" font-size="16" font-weight="500" letter-spacing="0em"><tspan x="38" y="167.52">&#x412;&#x432;&#x435;&#x434;&#x438; &#x43d;&#x430;&#x437;&#x432;&#x430;&#x43d;&#x438;&#x435;&#10;</tspan><tspan x="38" y="191.52">&#x441;&#x432;&#x43e;&#x435;&#x433;&#x43e; &#x442;&#x43e;&#x432;&#x430;&#x440;&#x430;</tspan></text>
<path d="M302.707 174.707C303.098 174.317 303.098 173.683 302.707 173.293L296.343 166.929C295.953 166.538 295.319 166.538 294.929 166.929C294.538 167.319 294.538 167.953 294.929 168.343L300.586 174L294.929 179.657C294.538 180.047 294.538 180.681 294.929 181.071C295.319 181.462 295.953 181.462 296.343 181.071L302.707 174.707ZM279 175H302V173H279V175Z" fill="#E3EBF6"/>
<rect x="16" y="236" width="240" height="256" rx="8" fill="#1D1D1F"/>
<rect x="16" y="236" width="240" height="256" rx="8" fill="white" fill-opacity="0.04"/>
<rect x="32" y="252" width="80" height="120" rx="5" fill="#373737"/>
<text fill="#E3E3E3" xml:space="preserve" style="white-space: pre" font-family="Manrope" font-size="14" font-weight="500" letter-spacing="0em"><tspan x="197.82" y="262.08"> </tspan><tspan x="120" y="283.08">&#x41d;&#x430;&#x437;&#x432;&#x430;&#x43d;&#x438;&#x435; &#x442;&#x43e;&#x432;&#x430;&#x440;&#x430; </tspan><tspan x="120" y="304.08">&#x434;&#x43b;&#x438;&#x43d;&#x43d;&#x43e;&#x435; &#x43c;&#x43e;&#x436;&#x435;&#x442; </tspan><tspan x="120" y="325.08">&#x431;&#x44b;&#x442;&#x44c; &#x43e;&#x447;&#x435;&#x43d;&#x44c;</tspan></text>
<text fill="#1CB554" xml:space="preserve" style="white-space: pre" font-family="Manrope" font-size="14" font-weight="500" letter-spacing="0em"><tspan x="120" y="262.08">0192747393</tspan></text>
<text fill="#C9C9C9" xml:space="preserve" style="white-space: pre" font-family="Manrope" font-size="14" letter-spacing="0em"><tspan x="32" y="398.08">&#x41f;&#x43e;&#x437;&#x438;&#x446;&#x438;&#x44f;:</tspan></text>
<text fill="white" xml:space="preserve" style="white-space: pre" font-family="Manrope" font-size="14" letter-spacing="0em"><tspan x="100" y="398.08">1</tspan></text>
<text fill="#C9C9C9" xml:space="preserve" style="white-space: pre" font-family="Manrope" font-size="14" letter-spacing="0em"><tspan x="32" y="424.08">&#x420;&#x435;&#x430;&#x43b;&#x44c;&#x43d;&#x430;&#x44f; &#x441;&#x442;&#x430;&#x432;&#x43a;&#x430;:</tspan></text>
<text fill="white" xml:space="preserve" style="white-space: pre" font-family="Manrope" font-size="14" letter-spacing="0em"><tspan x="153" y="424.08">403 &#x20bd;</tspan></text>
<text fill="#C9C9C9" xml:space="preserve" style="white-space: pre" font-family="Manrope" font-size="14" letter-spacing="0em"><tspan x="32" y="450.08">ID &#x43a;&#x430;&#x442;&#x435;&#x433;&#x43e;&#x440;&#x438;&#x438;:</tspan></text>
<text fill="white" xml:space="preserve" style="white-space: pre" font-family="Manrope" font-size="14" letter-spacing="0em"><tspan x="127" y="450.08">69 - &#x41f;&#x43b;&#x430;&#x442;&#x44c;&#x435;</tspan></text>
<text fill="#C9C9C9" xml:space="preserve" style="white-space: pre" font-family="Manrope" font-size="14" letter-spacing="0em"><tspan x="32" y="476.08">&#x412;&#x440;&#x435;&#x43c;&#x44f; &#x434;&#x43e;&#x441;&#x442;&#x430;&#x432;&#x43a;&#x438;:</tspan></text>
<text fill="white" xml:space="preserve" style="white-space: pre" font-family="Manrope" font-size="14" letter-spacing="0em"><tspan x="149" y="476.08">24&#x447;</tspan></text>
<rect x="272" y="236" width="240" height="256" rx="8" fill="#1D1D1F"/>
<rect x="272" y="236" width="240" height="256" rx="8" fill="white" fill-opacity="0.04"/>
<rect x="288" y="252" width="80" height="120" rx="5" fill="#373737"/>
<text fill="#C9C9C9" xml:space="preserve" style="white-space: pre" font-family="Manrope" font-size="14" letter-spacing="0em"><tspan x="288" y="398.08">&#x41f;&#x43e;&#x437;&#x438;&#x446;&#x438;&#x44f;:</tspan></text>
<text fill="#C9C9C9" xml:space="preserve" style="white-space: pre" font-family="Manrope" font-size="14" letter-spacing="0em"><tspan x="288" y="424.08">&#x420;&#x435;&#x430;&#x43b;&#x44c;&#x43d;&#x430;&#x44f; &#x441;&#x442;&#x430;&#x432;&#x43a;&#x430;:</tspan></text>
<text fill="#C9C9C9" xml:space="preserve" style="white-space: pre" font-family="Manrope" font-size="14" letter-spacing="0em"><tspan x="288" y="450.08">ID &#x43a;&#x430;&#x442;&#x435;&#x433;&#x43e;&#x440;&#x438;&#x438;:</tspan></text>
<text fill="#C9C9C9" xml:space="preserve" style="white-space: pre" font-family="Manrope" font-size="14" letter-spacing="0em"><tspan x="288" y="476.08">&#x412;&#x440;&#x435;&#x43c;&#x44f; &#x434;&#x43e;&#x441;&#x442;&#x430;&#x432;&#x43a;&#x438;:</tspan></text>
<path d="M289.612 74.962C288.528 74.7477 287.824 73.6956 288.038 72.612C288.252 71.5284 289.304 70.8237 290.388 71.038L289.612 74.962ZM293.962 118.881C292.924 118.504 292.387 117.358 292.763 116.319L298.891 99.3945C299.267 98.3559 300.414 97.8189 301.453 98.1949C302.491 98.571 303.028 99.7178 302.652 100.756L297.205 115.8L312.249 121.248C313.287 121.624 313.824 122.771 313.448 123.81C313.072 124.848 311.925 125.385 310.887 125.009L293.962 118.881ZM290.388 71.038C299.018 72.7447 306.792 74.9546 312.826 77.7081C318.762 80.4166 323.453 83.8462 325.236 88.2483C327.138 92.9417 325.47 97.9126 320.676 102.863C315.905 107.789 307.717 113.086 295.491 118.811L293.795 115.189C305.877 109.531 313.54 104.481 317.802 100.08C322.041 95.703 322.589 92.3654 321.529 89.7504C320.352 86.8442 316.904 83.9656 311.166 81.3472C305.526 78.7738 298.088 76.6382 289.612 74.962L290.388 71.038Z" fill="white"/>
</g>
<defs>
<clipPath id="clip0_275_29853">
<rect width="340" height="508" rx="16" fill="white"/>
</clipPath>
</defs>
</svg>
