<svg width="566" height="209" viewBox="0 0 566 209" fill="none" xmlns="http://www.w3.org/2000/svg">
<g clip-path="url(#clip0_255_36014)">
<rect x="0.875" y="0.5" width="565" height="208" rx="16" fill="#101010"/>
<rect width="39" height="16" transform="translate(0.875 0.5)" fill="#1C1C1C"/>
<rect x="9.625" y="3.75" width="9.5" height="9.5" rx="2.25" stroke="#373737" stroke-width="0.5"/>
<path d="M28.875 7.25L26.375 9.75L23.875 7.25" stroke="#EEF2F9" stroke-width="0.75"/>
<rect width="2.5" height="16" transform="translate(39.875 0.5)" fill="#1C1C1C"/>
<rect x="40.875" y="3.5" width="0.5" height="10" rx="0.25" fill="#373737"/>
<rect width="57.5" height="16" transform="translate(42.375 0.5)" fill="#1C1C1C"/>
<text fill="#F9F9F9" xml:space="preserve" style="white-space: pre" font-family="Inter" font-size="6" font-weight="500" letter-spacing="0em"><tspan x="52.375" y="10.6818">&#x2116;</tspan></text>
<rect width="2.5" height="16" transform="translate(99.875 0.5)" fill="#1C1C1C"/>
<rect x="100.875" y="3.5" width="0.5" height="10" rx="0.25" fill="#373737"/>
<rect width="137" height="16" transform="translate(102.375 0.5)" fill="#1C1C1C"/>
<text fill="#F9F9F9" xml:space="preserve" style="white-space: pre" font-family="Inter" font-size="6" font-weight="500" letter-spacing="0em"><tspan x="112.375" y="10.6818">&#x41d;&#x430;&#x438;&#x43c;&#x435;&#x43d;&#x43e;&#x432;&#x430;&#x43d;&#x438;&#x435; &#x43e;&#x440;&#x433;&#x430;&#x43d;&#x438;&#x437;&#x430;&#x446;&#x438;&#x438;</tspan></text>
<rect width="2.5" height="16" transform="translate(239.375 0.5)" fill="#1C1C1C"/>
<rect x="240.375" y="3.5" width="0.5" height="10" rx="0.25" fill="#373737"/>
<rect width="105" height="16" transform="translate(241.875 0.5)" fill="#1C1C1C"/>
<text fill="#F9F9F9" xml:space="preserve" style="white-space: pre" font-family="Inter" font-size="6" font-weight="500" letter-spacing="0em"><tspan x="251.875" y="10.6818">&#x410;&#x432;&#x442;&#x43e;&#x440;&#x438;&#x437;&#x43e;&#x432;&#x430;&#x43d;&#x43e;</tspan></text>
<rect width="2.5" height="16" transform="translate(346.875 0.5)" fill="#1C1C1C"/>
<rect x="347.875" y="3.5" width="0.5" height="10" rx="0.25" fill="#373737"/>
<rect width="100" height="16" transform="translate(349.375 0.5)" fill="#1C1C1C"/>
<text fill="#F9F9F9" xml:space="preserve" style="white-space: pre" font-family="Inter" font-size="6" font-weight="500" letter-spacing="0em"><tspan x="359.375" y="10.6818">&#x41a;&#x430;&#x43c;&#x43f;&#x430;&#x43d;&#x438;&#x439; &#x432;&#x441;&#x435;&#x433;&#x43e;</tspan></text>
<rect width="2.5" height="16" transform="translate(449.375 0.5)" fill="#1C1C1C"/>
<rect x="450.375" y="3.5" width="0.5" height="10" rx="0.25" fill="#373737"/>
<rect width="114" height="16" transform="translate(451.875 0.5)" fill="#1C1C1C"/>
<text fill="#F9F9F9" xml:space="preserve" style="white-space: pre" font-family="Inter" font-size="6" font-weight="500" letter-spacing="0em"><tspan x="461.875" y="10.6818">&#x410;&#x43a;&#x442;&#x438;&#x432;&#x43d;&#x44b;&#x445; &#x43a;&#x430;&#x43c;&#x43f;&#x430;&#x43d;&#x438;&#x439;</tspan></text>
<rect width="39" height="16" transform="translate(0.875 16.5)" fill="#101010"/>
<rect x="9.625" y="19.75" width="9.5" height="9.5" rx="2.25" stroke="#EEF2F9" stroke-width="0.5"/>
<rect width="2.5" height="16" transform="translate(39.875 16.5)" fill="#101010"/>
<rect x="40.875" y="19.5" width="0.5" height="10" rx="0.25" fill="#373737"/>
<rect width="57.5" height="16" transform="translate(42.375 16.5)" fill="#101010"/>
<text fill="#F9F9F9" xml:space="preserve" style="white-space: pre" font-family="Inter" font-size="6" letter-spacing="0em"><tspan x="52.375" y="26.8636">1</tspan></text>
<rect width="2.5" height="16" transform="translate(99.875 16.5)" fill="#101010"/>
<rect x="100.875" y="19.5" width="0.5" height="10" rx="0.25" fill="#373737"/>
<rect width="137" height="16" transform="translate(102.375 16.5)" fill="#101010"/>
<text fill="#F9F9F9" xml:space="preserve" style="white-space: pre" font-family="Inter" font-size="6" letter-spacing="0em"><tspan x="112.375" y="26.8636">&#x418;&#x41f; &#x41c;&#x443;&#x440;&#x446;&#x435;&#x432; &#x410;&#x43d;&#x434;&#x440;&#x435;&#x439; &#x412;&#x438;&#x43a;&#x442;&#x43e;&#x440;&#x43e;&#x432;&#x438;&#x447;</tspan></text>
<rect width="2.5" height="16" transform="translate(239.375 16.5)" fill="#101010"/>
<rect x="240.375" y="19.5" width="0.5" height="10" rx="0.25" fill="#373737"/>
<rect width="105" height="16" transform="translate(241.875 16.5)" fill="#101010"/>
<path d="M253.958 25.3333L255.625 26.5833L259.375 22" stroke="#1CB554" stroke-width="0.75"/>
<text fill="#F9F9F9" xml:space="preserve" style="white-space: pre" font-family="Inter" font-size="6" letter-spacing="0em"><tspan x="264.375" y="26.8636">&#x414;&#x430;</tspan></text>
<rect width="2.5" height="16" transform="translate(346.875 16.5)" fill="#101010"/>
<rect x="347.875" y="19.5" width="0.5" height="10" rx="0.25" fill="#373737"/>
<rect width="100" height="16" transform="translate(349.375 16.5)" fill="#101010"/>
<text fill="#F9F9F9" xml:space="preserve" style="white-space: pre" font-family="Inter" font-size="6" letter-spacing="0em"><tspan x="359.375" y="26.8636">5</tspan></text>
<rect width="2.5" height="16" transform="translate(449.375 16.5)" fill="#101010"/>
<rect x="450.375" y="19.5" width="0.5" height="10" rx="0.25" fill="#373737"/>
<rect width="114" height="16" transform="translate(451.875 16.5)" fill="#101010"/>
<text fill="#F9F9F9" xml:space="preserve" style="white-space: pre" font-family="Inter" font-size="6" letter-spacing="0em"><tspan x="461.875" y="26.8636">1</tspan></text>
<rect width="39" height="16" transform="translate(0.875 32.5)" fill="#1C1C1C"/>
<rect x="9.625" y="35.75" width="9.5" height="9.5" rx="2.25" stroke="#EEF2F9" stroke-width="0.5"/>
<rect width="2.5" height="16" transform="translate(39.875 32.5)" fill="#1C1C1C"/>
<rect x="40.875" y="35.5" width="0.5" height="10" rx="0.25" fill="#373737"/>
<rect width="57.5" height="16" transform="translate(42.375 32.5)" fill="#1C1C1C"/>
<text fill="#F9F9F9" xml:space="preserve" style="white-space: pre" font-family="Inter" font-size="6" letter-spacing="0em"><tspan x="52.375" y="42.8636">2</tspan></text>
<rect width="2.5" height="16" transform="translate(99.875 32.5)" fill="#1C1C1C"/>
<rect x="100.875" y="35.5" width="0.5" height="10" rx="0.25" fill="#373737"/>
<rect width="137" height="16" transform="translate(102.375 32.5)" fill="#1C1C1C"/>
<text fill="#F9F9F9" xml:space="preserve" style="white-space: pre" font-family="Inter" font-size="6" letter-spacing="0em"><tspan x="112.375" y="42.8636">&#x418;&#x41f; &#x410;&#x43b;&#x44c;&#x43a;&#x43e;&#x432; &#x420;&#x438;&#x43d;&#x430;&#x442;</tspan></text>
<rect width="2.5" height="16" transform="translate(239.375 32.5)" fill="#1C1C1C"/>
<rect x="240.375" y="35.5" width="0.5" height="10" rx="0.25" fill="#373737"/>
<rect width="105" height="16" transform="translate(241.875 32.5)" fill="#1C1C1C"/>
<path d="M253.958 41.3333L255.242 42.2957C255.456 42.4565 255.759 42.4197 255.929 42.2124L259.375 38" stroke="#1CB554" stroke-width="0.75" stroke-linecap="round"/>
<text fill="#F9F9F9" xml:space="preserve" style="white-space: pre" font-family="Inter" font-size="6" letter-spacing="0em"><tspan x="264.375" y="42.8636">&#x414;&#x430;</tspan></text>
<rect width="2.5" height="16" transform="translate(346.875 32.5)" fill="#1C1C1C"/>
<rect x="347.875" y="35.5" width="0.5" height="10" rx="0.25" fill="#373737"/>
<rect width="100" height="16" transform="translate(349.375 32.5)" fill="#1C1C1C"/>
<text fill="#F9F9F9" xml:space="preserve" style="white-space: pre" font-family="Inter" font-size="6" letter-spacing="0em"><tspan x="359.375" y="42.8636">6</tspan></text>
<rect width="2.5" height="16" transform="translate(449.375 32.5)" fill="#1C1C1C"/>
<rect x="450.375" y="35.5" width="0.5" height="10" rx="0.25" fill="#373737"/>
<rect width="114" height="16" transform="translate(451.875 32.5)" fill="#1C1C1C"/>
<text fill="#F9F9F9" xml:space="preserve" style="white-space: pre" font-family="Inter" font-size="6" letter-spacing="0em"><tspan x="461.875" y="42.8636">0</tspan></text>
<rect width="39" height="16" transform="translate(0.875 48.5)" fill="#101010"/>
<rect x="9.625" y="51.75" width="9.5" height="9.5" rx="2.25" stroke="#EEF2F9" stroke-width="0.5"/>
<rect width="2.5" height="16" transform="translate(39.875 48.5)" fill="#101010"/>
<rect x="40.875" y="51.5" width="0.5" height="10" rx="0.25" fill="#373737"/>
<rect width="57.5" height="16" transform="translate(42.375 48.5)" fill="#101010"/>
<text fill="#F9F9F9" xml:space="preserve" style="white-space: pre" font-family="Inter" font-size="6" letter-spacing="0em"><tspan x="52.375" y="58.8636">3</tspan></text>
<rect width="2.5" height="16" transform="translate(99.875 48.5)" fill="#101010"/>
<rect x="100.875" y="51.5" width="0.5" height="10" rx="0.25" fill="#373737"/>
<rect width="137" height="16" transform="translate(102.375 48.5)" fill="#101010"/>
<text fill="#F9F9F9" xml:space="preserve" style="white-space: pre" font-family="Inter" font-size="6" letter-spacing="0em"><tspan x="112.375" y="58.8636">&#x418;&#x41f; &#x41a;&#x43e;&#x43b;&#x435;&#x441;&#x43d;&#x43d;&#x438;&#x43a;&#x43e;&#x432; &#x410;&#x43d;&#x434;&#x440;&#x435;&#x439; </tspan></text>
<rect width="2.5" height="16" transform="translate(239.375 48.5)" fill="#101010"/>
<rect x="240.375" y="51.5" width="0.5" height="10" rx="0.25" fill="#373737"/>
<rect width="105" height="16" transform="translate(241.875 48.5)" fill="#101010"/>
<path d="M253.958 57.3333L255.625 58.5833L259.375 54" stroke="#1CB554" stroke-width="0.75"/>
<text fill="#F9F9F9" xml:space="preserve" style="white-space: pre" font-family="Inter" font-size="6" letter-spacing="0em"><tspan x="264.375" y="58.8636">&#x414;&#x430;</tspan></text>
<rect width="2.5" height="16" transform="translate(346.875 48.5)" fill="#101010"/>
<rect x="347.875" y="51.5" width="0.5" height="10" rx="0.25" fill="#373737"/>
<rect width="100" height="16" transform="translate(349.375 48.5)" fill="#101010"/>
<text fill="#F9F9F9" xml:space="preserve" style="white-space: pre" font-family="Inter" font-size="6" letter-spacing="0em"><tspan x="359.375" y="58.8636">15</tspan></text>
<rect width="2.5" height="16" transform="translate(449.375 48.5)" fill="#101010"/>
<rect x="450.375" y="51.5" width="0.5" height="10" rx="0.25" fill="#373737"/>
<rect width="114" height="16" transform="translate(451.875 48.5)" fill="#101010"/>
<text fill="#F9F9F9" xml:space="preserve" style="white-space: pre" font-family="Inter" font-size="6" letter-spacing="0em"><tspan x="461.875" y="58.8636">5</tspan></text>
<rect width="39" height="16" transform="translate(0.875 64.5)" fill="#1C1C1C"/>
<rect x="9.625" y="67.75" width="9.5" height="9.5" rx="2.25" stroke="#EEF2F9" stroke-width="0.5"/>
<rect width="2.5" height="16" transform="translate(39.875 64.5)" fill="#1C1C1C"/>
<rect x="40.875" y="67.5" width="0.5" height="10" rx="0.25" fill="#373737"/>
<rect width="57.5" height="16" transform="translate(42.375 64.5)" fill="#1C1C1C"/>
<text fill="#F9F9F9" xml:space="preserve" style="white-space: pre" font-family="Inter" font-size="6" letter-spacing="0em"><tspan x="52.375" y="74.8636">4</tspan></text>
<rect width="2.5" height="16" transform="translate(99.875 64.5)" fill="#1C1C1C"/>
<rect x="100.875" y="67.5" width="0.5" height="10" rx="0.25" fill="#373737"/>
<rect width="137" height="16" transform="translate(102.375 64.5)" fill="#1C1C1C"/>
<text fill="#F9F9F9" xml:space="preserve" style="white-space: pre" font-family="Inter" font-size="6" letter-spacing="0em"><tspan x="112.375" y="74.8636">&#x418;&#x41f; &#x414;&#x443;&#x431;&#x438;&#x43b;&#x43e;&#x432;&#x430; &#x41e;&#x43b;&#x44c;&#x433;&#x430; &#x410;&#x43b;&#x435;&#x43a;&#x441;&#x430;&#x43d;&#x434;&#x440;&#x43e;&#x432;&#x43d;&#x430;</tspan></text>
<rect width="2.5" height="16" transform="translate(239.375 64.5)" fill="#1C1C1C"/>
<rect x="240.375" y="67.5" width="0.5" height="10" rx="0.25" fill="#373737"/>
<rect width="105" height="16" transform="translate(241.875 64.5)" fill="#1C1C1C"/>
<path d="M253.958 73.3333L255.242 74.2957C255.456 74.4565 255.759 74.4197 255.929 74.2124L259.375 70" stroke="#1CB554" stroke-width="0.75" stroke-linecap="round"/>
<text fill="#F9F9F9" xml:space="preserve" style="white-space: pre" font-family="Inter" font-size="6" letter-spacing="0em"><tspan x="264.375" y="74.8636">&#x414;&#x430;</tspan></text>
<rect width="2.5" height="16" transform="translate(346.875 64.5)" fill="#1C1C1C"/>
<rect x="347.875" y="67.5" width="0.5" height="10" rx="0.25" fill="#373737"/>
<rect width="100" height="16" transform="translate(349.375 64.5)" fill="#1C1C1C"/>
<text fill="#F9F9F9" xml:space="preserve" style="white-space: pre" font-family="Inter" font-size="6" letter-spacing="0em"><tspan x="359.375" y="74.8636">8</tspan></text>
<rect width="2.5" height="16" transform="translate(449.375 64.5)" fill="#1C1C1C"/>
<rect x="450.375" y="67.5" width="0.5" height="10" rx="0.25" fill="#373737"/>
<rect width="114" height="16" transform="translate(451.875 64.5)" fill="#1C1C1C"/>
<text fill="#F9F9F9" xml:space="preserve" style="white-space: pre" font-family="Inter" font-size="6" letter-spacing="0em"><tspan x="461.875" y="74.8636">2</tspan></text>
<rect width="39" height="16" transform="translate(0.875 80.5)" fill="#101010"/>
<rect x="9.625" y="83.75" width="9.5" height="9.5" rx="2.25" stroke="#EEF2F9" stroke-width="0.5"/>
<rect width="2.5" height="16" transform="translate(39.875 80.5)" fill="#101010"/>
<rect x="40.875" y="83.5" width="0.5" height="10" rx="0.25" fill="#373737"/>
<rect width="57.5" height="16" transform="translate(42.375 80.5)" fill="#101010"/>
<text fill="#F9F9F9" xml:space="preserve" style="white-space: pre" font-family="Inter" font-size="6" letter-spacing="0em"><tspan x="52.375" y="90.8636">5</tspan></text>
<rect width="2.5" height="16" transform="translate(99.875 80.5)" fill="#101010"/>
<rect x="100.875" y="83.5" width="0.5" height="10" rx="0.25" fill="#373737"/>
<rect width="137" height="16" transform="translate(102.375 80.5)" fill="#101010"/>
<text fill="#F9F9F9" xml:space="preserve" style="white-space: pre" font-family="Inter" font-size="6" letter-spacing="0em"><tspan x="112.375" y="90.8636">&#x418;&#x41f; &#x421;&#x43e;&#x445;&#x430;&#x43d;&#x43e;&#x432; &#x42e;&#x440;&#x438;&#x439; &#x414;&#x43c;&#x438;&#x442;&#x440;&#x438;&#x435;&#x432;&#x438;&#x447;</tspan></text>
<rect width="2.5" height="16" transform="translate(239.375 80.5)" fill="#101010"/>
<rect x="240.375" y="83.5" width="0.5" height="10" rx="0.25" fill="#373737"/>
<rect width="105" height="16" transform="translate(241.875 80.5)" fill="#101010"/>
<path d="M253.958 89.3333L255.625 90.5833L259.375 86" stroke="#1CB554" stroke-width="0.75"/>
<text fill="#F9F9F9" xml:space="preserve" style="white-space: pre" font-family="Inter" font-size="6" letter-spacing="0em"><tspan x="264.375" y="90.8636">&#x414;&#x430;</tspan></text>
<rect width="2.5" height="16" transform="translate(346.875 80.5)" fill="#101010"/>
<rect x="347.875" y="83.5" width="0.5" height="10" rx="0.25" fill="#373737"/>
<rect width="100" height="16" transform="translate(349.375 80.5)" fill="#101010"/>
<text fill="#F9F9F9" xml:space="preserve" style="white-space: pre" font-family="Inter" font-size="6" letter-spacing="0em"><tspan x="359.375" y="90.8636">3</tspan></text>
<rect width="2.5" height="16" transform="translate(449.375 80.5)" fill="#101010"/>
<rect x="450.375" y="83.5" width="0.5" height="10" rx="0.25" fill="#373737"/>
<rect width="114" height="16" transform="translate(451.875 80.5)" fill="#101010"/>
<text fill="#F9F9F9" xml:space="preserve" style="white-space: pre" font-family="Inter" font-size="6" letter-spacing="0em"><tspan x="461.875" y="90.8636">3</tspan></text>
<rect width="39" height="16" transform="translate(0.875 96.5)" fill="#1C1C1C"/>
<rect x="9.625" y="99.75" width="9.5" height="9.5" rx="2.25" stroke="#EEF2F9" stroke-width="0.5"/>
<rect width="2.5" height="16" transform="translate(39.875 96.5)" fill="#1C1C1C"/>
<rect x="40.875" y="99.5" width="0.5" height="10" rx="0.25" fill="#373737"/>
<rect width="57.5" height="16" transform="translate(42.375 96.5)" fill="#1C1C1C"/>
<text fill="#F9F9F9" xml:space="preserve" style="white-space: pre" font-family="Inter" font-size="6" letter-spacing="0em"><tspan x="52.375" y="106.864">6</tspan></text>
<rect width="2.5" height="16" transform="translate(99.875 96.5)" fill="#1C1C1C"/>
<rect x="100.875" y="99.5" width="0.5" height="10" rx="0.25" fill="#373737"/>
<rect width="137" height="16" transform="translate(102.375 96.5)" fill="#1C1C1C"/>
<text fill="#F9F9F9" xml:space="preserve" style="white-space: pre" font-family="Inter" font-size="6" letter-spacing="0em"><tspan x="112.375" y="106.864">&#x418;&#x41f; &#x41f;&#x435;&#x440;&#x43e;&#x432; &#x410;&#x43b;&#x435;&#x43a;&#x441;&#x435;&#x439; &#x410;&#x43d;&#x442;&#x43e;&#x43d;&#x43e;&#x432;&#x438;&#x447;</tspan></text>
<rect width="2.5" height="16" transform="translate(239.375 96.5)" fill="#1C1C1C"/>
<rect x="240.375" y="99.5" width="0.5" height="10" rx="0.25" fill="#373737"/>
<rect width="105" height="16" transform="translate(241.875 96.5)" fill="#1C1C1C"/>
<path d="M253.958 105.333L255.242 106.296C255.456 106.457 255.759 106.42 255.929 106.212L259.375 102" stroke="#1CB554" stroke-width="0.75" stroke-linecap="round"/>
<text fill="#F9F9F9" xml:space="preserve" style="white-space: pre" font-family="Inter" font-size="6" letter-spacing="0em"><tspan x="264.375" y="106.864">&#x414;&#x430;</tspan></text>
<rect width="2.5" height="16" transform="translate(346.875 96.5)" fill="#1C1C1C"/>
<rect x="347.875" y="99.5" width="0.5" height="10" rx="0.25" fill="#373737"/>
<rect width="100" height="16" transform="translate(349.375 96.5)" fill="#1C1C1C"/>
<text fill="#F9F9F9" xml:space="preserve" style="white-space: pre" font-family="Inter" font-size="6" letter-spacing="0em"><tspan x="359.375" y="106.864">2</tspan></text>
<rect width="2.5" height="16" transform="translate(449.375 96.5)" fill="#1C1C1C"/>
<rect x="450.375" y="99.5" width="0.5" height="10" rx="0.25" fill="#373737"/>
<rect width="114" height="16" transform="translate(451.875 96.5)" fill="#1C1C1C"/>
<text fill="#F9F9F9" xml:space="preserve" style="white-space: pre" font-family="Inter" font-size="6" letter-spacing="0em"><tspan x="461.875" y="106.864">0</tspan></text>
<rect width="39" height="16" transform="translate(0.875 112.5)" fill="#101010"/>
<rect x="9.625" y="115.75" width="9.5" height="9.5" rx="2.25" stroke="#EEF2F9" stroke-width="0.5"/>
<rect width="2.5" height="16" transform="translate(39.875 112.5)" fill="#101010"/>
<rect x="40.875" y="115.5" width="0.5" height="10" rx="0.25" fill="#373737"/>
<rect width="57.5" height="16" transform="translate(42.375 112.5)" fill="#101010"/>
<text fill="#F9F9F9" xml:space="preserve" style="white-space: pre" font-family="Inter" font-size="6" letter-spacing="0em"><tspan x="52.375" y="122.864">7</tspan></text>
<rect width="2.5" height="16" transform="translate(99.875 112.5)" fill="#101010"/>
<rect x="100.875" y="115.5" width="0.5" height="10" rx="0.25" fill="#373737"/>
<rect width="137" height="16" transform="translate(102.375 112.5)" fill="#101010"/>
<text fill="#F9F9F9" xml:space="preserve" style="white-space: pre" font-family="Inter" font-size="6" letter-spacing="0em"><tspan x="112.375" y="122.864">&#x418;&#x41f; &#x412;&#x43b;&#x430;&#x434;&#x438;&#x43c;&#x438;&#x440;&#x441;&#x43a;&#x430;&#x44f; &#x41c;&#x430;&#x440;&#x438;&#x44f; </tspan></text>
<rect width="2.5" height="16" transform="translate(239.375 112.5)" fill="#101010"/>
<rect x="240.375" y="115.5" width="0.5" height="10" rx="0.25" fill="#373737"/>
<rect width="105" height="16" transform="translate(241.875 112.5)" fill="#101010"/>
<path d="M253.958 121.333L255.625 122.583L259.375 118" stroke="#1CB554" stroke-width="0.75"/>
<text fill="#F9F9F9" xml:space="preserve" style="white-space: pre" font-family="Inter" font-size="6" letter-spacing="0em"><tspan x="264.375" y="122.864">&#x414;&#x430;</tspan></text>
<rect width="2.5" height="16" transform="translate(346.875 112.5)" fill="#101010"/>
<rect x="347.875" y="115.5" width="0.5" height="10" rx="0.25" fill="#373737"/>
<rect width="100" height="16" transform="translate(349.375 112.5)" fill="#101010"/>
<text fill="#F9F9F9" xml:space="preserve" style="white-space: pre" font-family="Inter" font-size="6" letter-spacing="0em"><tspan x="359.375" y="122.864">1</tspan></text>
<rect width="2.5" height="16" transform="translate(449.375 112.5)" fill="#101010"/>
<rect x="450.375" y="115.5" width="0.5" height="10" rx="0.25" fill="#373737"/>
<rect width="114" height="16" transform="translate(451.875 112.5)" fill="#101010"/>
<text fill="#F9F9F9" xml:space="preserve" style="white-space: pre" font-family="Inter" font-size="6" letter-spacing="0em"><tspan x="461.875" y="122.864">0</tspan></text>
<rect width="39" height="16" transform="translate(0.875 128.5)" fill="#1C1C1C"/>
<rect x="9.625" y="131.75" width="9.5" height="9.5" rx="2.25" stroke="#EEF2F9" stroke-width="0.5"/>
<rect width="2.5" height="16" transform="translate(39.875 128.5)" fill="#1C1C1C"/>
<rect x="40.875" y="131.5" width="0.5" height="10" rx="0.25" fill="#373737"/>
<rect width="57.5" height="16" transform="translate(42.375 128.5)" fill="#1C1C1C"/>
<text fill="#F9F9F9" xml:space="preserve" style="white-space: pre" font-family="Inter" font-size="6" letter-spacing="0em"><tspan x="52.375" y="138.864">8</tspan></text>
<rect width="2.5" height="16" transform="translate(99.875 128.5)" fill="#1C1C1C"/>
<rect x="100.875" y="131.5" width="0.5" height="10" rx="0.25" fill="#373737"/>
<rect width="137" height="16" transform="translate(102.375 128.5)" fill="#1C1C1C"/>
<text fill="#F9F9F9" xml:space="preserve" style="white-space: pre" font-family="Inter" font-size="6" letter-spacing="0em"><tspan x="112.375" y="138.864">&#x418;&#x41f; &#x422;&#x43e;&#x43c;&#x430;&#x437;&#x43e;&#x432;&#x430; &#x41c;&#x430;&#x440;&#x438;&#x43d;&#x430; &#x421;&#x442;&#x435;&#x43f;&#x430;&#x43d;&#x43e;&#x432;&#x43d;&#x430;</tspan></text>
<rect width="2.5" height="16" transform="translate(239.375 128.5)" fill="#1C1C1C"/>
<rect x="240.375" y="131.5" width="0.5" height="10" rx="0.25" fill="#373737"/>
<rect width="105" height="16" transform="translate(241.875 128.5)" fill="#1C1C1C"/>
<path d="M253.958 137.333L255.242 138.296C255.456 138.457 255.759 138.42 255.929 138.212L259.375 134" stroke="#1CB554" stroke-width="0.75" stroke-linecap="round"/>
<text fill="#F9F9F9" xml:space="preserve" style="white-space: pre" font-family="Inter" font-size="6" letter-spacing="0em"><tspan x="264.375" y="138.864">&#x414;&#x430;</tspan></text>
<rect width="2.5" height="16" transform="translate(346.875 128.5)" fill="#1C1C1C"/>
<rect x="347.875" y="131.5" width="0.5" height="10" rx="0.25" fill="#373737"/>
<rect width="100" height="16" transform="translate(349.375 128.5)" fill="#1C1C1C"/>
<text fill="#F9F9F9" xml:space="preserve" style="white-space: pre" font-family="Inter" font-size="6" letter-spacing="0em"><tspan x="359.375" y="138.864">7</tspan></text>
<rect width="2.5" height="16" transform="translate(449.375 128.5)" fill="#1C1C1C"/>
<rect x="450.375" y="131.5" width="0.5" height="10" rx="0.25" fill="#373737"/>
<rect width="114" height="16" transform="translate(451.875 128.5)" fill="#1C1C1C"/>
<text fill="#F9F9F9" xml:space="preserve" style="white-space: pre" font-family="Inter" font-size="6" letter-spacing="0em"><tspan x="461.875" y="138.864">7</tspan></text>
<rect width="39" height="16" transform="translate(0.875 144.5)" fill="#101010"/>
<rect x="9.625" y="147.75" width="9.5" height="9.5" rx="2.25" stroke="#EEF2F9" stroke-width="0.5"/>
<rect width="2.5" height="16" transform="translate(39.875 144.5)" fill="#101010"/>
<rect x="40.875" y="147.5" width="0.5" height="10" rx="0.25" fill="#373737"/>
<rect width="57.5" height="16" transform="translate(42.375 144.5)" fill="#101010"/>
<text fill="#F9F9F9" xml:space="preserve" style="white-space: pre" font-family="Inter" font-size="6" letter-spacing="0em"><tspan x="52.375" y="154.864">9</tspan></text>
<rect width="2.5" height="16" transform="translate(99.875 144.5)" fill="#101010"/>
<rect x="100.875" y="147.5" width="0.5" height="10" rx="0.25" fill="#373737"/>
<rect width="137" height="16" transform="translate(102.375 144.5)" fill="#101010"/>
<text fill="#F9F9F9" xml:space="preserve" style="white-space: pre" font-family="Inter" font-size="6" letter-spacing="0em"><tspan x="112.375" y="154.864">&#x418;&#x41f; &#x417;&#x432;&#x44f;&#x433;&#x438;&#x43d;&#x446;&#x435;&#x432; &#x418;&#x432;&#x430;&#x43d; &#x410;&#x43b;&#x435;&#x43a;&#x441;&#x435;&#x435;&#x432;&#x438;&#x447;</tspan></text>
<rect width="2.5" height="16" transform="translate(239.375 144.5)" fill="#101010"/>
<rect x="240.375" y="147.5" width="0.5" height="10" rx="0.25" fill="#373737"/>
<rect width="105" height="16" transform="translate(241.875 144.5)" fill="#101010"/>
<path d="M253.958 153.333L255.625 154.583L259.375 150" stroke="#1CB554" stroke-width="0.75"/>
<text fill="#F9F9F9" xml:space="preserve" style="white-space: pre" font-family="Inter" font-size="6" letter-spacing="0em"><tspan x="264.375" y="154.864">&#x414;&#x430;</tspan></text>
<rect width="2.5" height="16" transform="translate(346.875 144.5)" fill="#101010"/>
<rect x="347.875" y="147.5" width="0.5" height="10" rx="0.25" fill="#373737"/>
<rect width="100" height="16" transform="translate(349.375 144.5)" fill="#101010"/>
<text fill="#F9F9F9" xml:space="preserve" style="white-space: pre" font-family="Inter" font-size="6" letter-spacing="0em"><tspan x="359.375" y="154.864">20</tspan></text>
<rect width="2.5" height="16" transform="translate(449.375 144.5)" fill="#101010"/>
<rect x="450.375" y="147.5" width="0.5" height="10" rx="0.25" fill="#373737"/>
<rect width="114" height="16" transform="translate(451.875 144.5)" fill="#101010"/>
<text fill="#F9F9F9" xml:space="preserve" style="white-space: pre" font-family="Inter" font-size="6" letter-spacing="0em"><tspan x="461.875" y="154.864">13</tspan></text>
<rect width="39" height="16" transform="translate(0.875 160.5)" fill="#1C1C1C"/>
<rect x="9.625" y="163.75" width="9.5" height="9.5" rx="2.25" stroke="#EEF2F9" stroke-width="0.5"/>
<rect width="2.5" height="16" transform="translate(39.875 160.5)" fill="#1C1C1C"/>
<rect x="40.875" y="163.5" width="0.5" height="10" rx="0.25" fill="#373737"/>
<rect width="57.5" height="16" transform="translate(42.375 160.5)" fill="#1C1C1C"/>
<text fill="#F9F9F9" xml:space="preserve" style="white-space: pre" font-family="Inter" font-size="6" letter-spacing="0em"><tspan x="52.375" y="170.864">10</tspan></text>
<rect width="2.5" height="16" transform="translate(99.875 160.5)" fill="#1C1C1C"/>
<rect x="100.875" y="163.5" width="0.5" height="10" rx="0.25" fill="#373737"/>
<rect width="137" height="16" transform="translate(102.375 160.5)" fill="#1C1C1C"/>
<text fill="#F9F9F9" xml:space="preserve" style="white-space: pre" font-family="Inter" font-size="6" letter-spacing="0em"><tspan x="112.375" y="170.864">&#x418;&#x41f; &#x429;&#x443;&#x43a;&#x438;&#x43d; &#x412;&#x43b;&#x430;&#x434;&#x438;&#x43c;&#x438;&#x440; &#x414;&#x43c;&#x438;&#x442;&#x440;&#x438;&#x435;&#x432;&#x438;&#x447;</tspan></text>
<rect width="2.5" height="16" transform="translate(239.375 160.5)" fill="#1C1C1C"/>
<rect x="240.375" y="163.5" width="0.5" height="10" rx="0.25" fill="#373737"/>
<rect width="105" height="16" transform="translate(241.875 160.5)" fill="#1C1C1C"/>
<path d="M253.958 169.333L255.242 170.296C255.456 170.457 255.759 170.42 255.929 170.212L259.375 166" stroke="#1CB554" stroke-width="0.75" stroke-linecap="round"/>
<text fill="#F9F9F9" xml:space="preserve" style="white-space: pre" font-family="Inter" font-size="6" letter-spacing="0em"><tspan x="264.375" y="170.864">&#x414;&#x430;</tspan></text>
<rect width="2.5" height="16" transform="translate(346.875 160.5)" fill="#1C1C1C"/>
<rect x="347.875" y="163.5" width="0.5" height="10" rx="0.25" fill="#373737"/>
<rect width="100" height="16" transform="translate(349.375 160.5)" fill="#1C1C1C"/>
<text fill="#F9F9F9" xml:space="preserve" style="white-space: pre" font-family="Inter" font-size="6" letter-spacing="0em"><tspan x="359.375" y="170.864">1</tspan></text>
<rect width="2.5" height="16" transform="translate(449.375 160.5)" fill="#1C1C1C"/>
<rect x="450.375" y="163.5" width="0.5" height="10" rx="0.25" fill="#373737"/>
<rect width="114" height="16" transform="translate(451.875 160.5)" fill="#1C1C1C"/>
<text fill="#F9F9F9" xml:space="preserve" style="white-space: pre" font-family="Inter" font-size="6" letter-spacing="0em"><tspan x="461.875" y="170.864">1</tspan></text>
<rect width="39" height="16" transform="translate(0.875 176.5)" fill="#101010"/>
<rect x="9.625" y="179.75" width="9.5" height="9.5" rx="2.25" stroke="#EEF2F9" stroke-width="0.5"/>
<rect width="2.5" height="16" transform="translate(39.875 176.5)" fill="#101010"/>
<rect x="40.875" y="179.5" width="0.5" height="10" rx="0.25" fill="#373737"/>
<rect width="57.5" height="16" transform="translate(42.375 176.5)" fill="#101010"/>
<text fill="#F9F9F9" xml:space="preserve" style="white-space: pre" font-family="Inter" font-size="6" letter-spacing="0em"><tspan x="52.375" y="186.864">11</tspan></text>
<rect width="2.5" height="16" transform="translate(99.875 176.5)" fill="#101010"/>
<rect x="100.875" y="179.5" width="0.5" height="10" rx="0.25" fill="#373737"/>
<rect width="137" height="16" transform="translate(102.375 176.5)" fill="#101010"/>
<text fill="#F9F9F9" xml:space="preserve" style="white-space: pre" font-family="Inter" font-size="6" letter-spacing="0em"><tspan x="112.375" y="186.864">&#x418;&#x41f; &#x41a;&#x438;&#x440;&#x438;&#x43b;&#x43b;&#x43e;&#x432; &#x418;&#x43b;&#x44c;&#x44f; &#x414;&#x43c;&#x438;&#x442;&#x440;&#x438;&#x435;&#x432;&#x438;&#x447;</tspan></text>
<rect width="2.5" height="16" transform="translate(239.375 176.5)" fill="#101010"/>
<rect x="240.375" y="179.5" width="0.5" height="10" rx="0.25" fill="#373737"/>
<rect width="105" height="16" transform="translate(241.875 176.5)" fill="#101010"/>
<path d="M253.958 185.333L255.625 186.583L259.375 182" stroke="#1CB554" stroke-width="0.75"/>
<text fill="#F9F9F9" xml:space="preserve" style="white-space: pre" font-family="Inter" font-size="6" letter-spacing="0em"><tspan x="264.375" y="186.864">&#x414;&#x430;</tspan></text>
<rect width="2.5" height="16" transform="translate(346.875 176.5)" fill="#101010"/>
<rect x="347.875" y="179.5" width="0.5" height="10" rx="0.25" fill="#373737"/>
<rect width="100" height="16" transform="translate(349.375 176.5)" fill="#101010"/>
<text fill="#F9F9F9" xml:space="preserve" style="white-space: pre" font-family="Inter" font-size="6" letter-spacing="0em"><tspan x="359.375" y="186.864">15</tspan></text>
<rect width="2.5" height="16" transform="translate(449.375 176.5)" fill="#101010"/>
<rect x="450.375" y="179.5" width="0.5" height="10" rx="0.25" fill="#373737"/>
<rect width="114" height="16" transform="translate(451.875 176.5)" fill="#101010"/>
<text fill="#F9F9F9" xml:space="preserve" style="white-space: pre" font-family="Inter" font-size="6" letter-spacing="0em"><tspan x="461.875" y="186.864">9</tspan></text>
<rect width="39" height="16" transform="translate(0.875 192.5)" fill="#1C1C1C"/>
<rect x="9.625" y="195.75" width="9.5" height="9.5" rx="2.25" stroke="#EEF2F9" stroke-width="0.5"/>
<rect width="2.5" height="16" transform="translate(39.875 192.5)" fill="#1C1C1C"/>
<rect x="40.875" y="195.5" width="0.5" height="10" rx="0.25" fill="#373737"/>
<rect width="57.5" height="16" transform="translate(42.375 192.5)" fill="#1C1C1C"/>
<text fill="#F9F9F9" xml:space="preserve" style="white-space: pre" font-family="Inter" font-size="6" letter-spacing="0em"><tspan x="52.375" y="202.864">12</tspan></text>
<rect width="2.5" height="16" transform="translate(99.875 192.5)" fill="#1C1C1C"/>
<rect x="100.875" y="195.5" width="0.5" height="10" rx="0.25" fill="#373737"/>
<rect width="137" height="16" transform="translate(102.375 192.5)" fill="#1C1C1C"/>
<text fill="#F9F9F9" xml:space="preserve" style="white-space: pre" font-family="Inter" font-size="6" letter-spacing="0em"><tspan x="112.375" y="202.864">&#x418;&#x41f; &#x427;&#x443;&#x439;&#x43a;&#x43e;&#x432;&#x441;&#x43a;&#x430;&#x44f; &#x412;&#x438;&#x43a;&#x442;&#x43e;&#x440;&#x438;&#x44f; </tspan></text>
<rect width="2.5" height="16" transform="translate(239.375 192.5)" fill="#1C1C1C"/>
<rect x="240.375" y="195.5" width="0.5" height="10" rx="0.25" fill="#373737"/>
<rect width="105" height="16" transform="translate(241.875 192.5)" fill="#1C1C1C"/>
<path d="M253.958 201.333L255.242 202.296C255.456 202.457 255.759 202.42 255.929 202.212L259.375 198" stroke="#1CB554" stroke-width="0.75" stroke-linecap="round"/>
<text fill="#F9F9F9" xml:space="preserve" style="white-space: pre" font-family="Inter" font-size="6" letter-spacing="0em"><tspan x="264.375" y="202.864">&#x414;&#x430;</tspan></text>
<rect width="2.5" height="16" transform="translate(346.875 192.5)" fill="#1C1C1C"/>
<rect x="347.875" y="195.5" width="0.5" height="10" rx="0.25" fill="#373737"/>
<rect width="100" height="16" transform="translate(349.375 192.5)" fill="#1C1C1C"/>
<text fill="#F9F9F9" xml:space="preserve" style="white-space: pre" font-family="Inter" font-size="6" letter-spacing="0em"><tspan x="359.375" y="202.864">4</tspan></text>
<rect width="2.5" height="16" transform="translate(449.375 192.5)" fill="#1C1C1C"/>
<rect x="450.375" y="195.5" width="0.5" height="10" rx="0.25" fill="#373737"/>
<rect width="114" height="16" transform="translate(451.875 192.5)" fill="#1C1C1C"/>
<text fill="#F9F9F9" xml:space="preserve" style="white-space: pre" font-family="Inter" font-size="6" letter-spacing="0em"><tspan x="461.875" y="202.864">2</tspan></text>
</g>
<defs>
<clipPath id="clip0_255_36014">
<rect x="0.875" y="0.5" width="565" height="208" rx="16" fill="white"/>
</clipPath>
</defs>
</svg>
