<svg width="360" height="357" viewBox="0 0 360 357" fill="none" xmlns="http://www.w3.org/2000/svg">
<rect width="360" height="357" rx="16" fill="#1D1D1F"/>
<path d="M186.598 23.9069L181.631 49.8266C181.065 52.7838 182.135 55.5257 185.145 55.5257C187.442 55.5257 190.609 53.8959 191.044 51.6396L196.047 25.7262C196.619 22.7563 192.776 20 189.753 20C187.447 20 187.032 21.6392 186.598 23.9069Z" fill="#1EC55B"/>
<path d="M169.01 32.3815L164.042 58.3018C163.476 61.2584 164.547 64.0003 167.556 64.0003C169.853 64.0003 173.02 62.3705 173.456 60.1142L178.457 34.2008C179.031 31.2309 175.187 28.4746 172.165 28.4746C169.857 28.4746 169.445 30.1138 169.01 32.3815Z" fill="#1EC55B"/>
<text fill="#FAFAFA" xml:space="preserve" style="white-space: pre" font-family="Raleway" font-size="30" font-weight="600" letter-spacing="0em"><tspan x="84.5" y="98.5905">&#x410;&#x432;&#x442;&#x43e;&#x440;&#x438;&#x437;&#x430;&#x446;&#x438;&#x44f;</tspan></text>
<text fill="#717171" xml:space="preserve" style="white-space: pre" font-family="Inter" font-size="12" letter-spacing="0em"><tspan x="20" y="138.864">&#x412;&#x432;&#x435;&#x434;&#x438;&#x442;&#x435; &#x43d;&#x43e;&#x43c;&#x435;&#x440; &#x442;&#x435;&#x43b;&#x435;&#x444;&#x43e;&#x43d;&#x430;</tspan></text>
<text fill="#FAFAFA" xml:space="preserve" style="white-space: pre" font-family="Inter" font-size="13" letter-spacing="0em"><tspan x="20" y="162.728">+7(000)000-00-00</tspan></text>
<path d="M340 176H20V178H340V176Z" fill="#373737" mask="url(#path-6-inside-1_255_35989)"/>
<rect x="20.5" y="187.5" width="19" height="19" rx="4.5" stroke="#EEF2F9"/>
<text fill="#C9C9C9" xml:space="preserve" style="white-space: pre" font-family="Inter" font-size="12" letter-spacing="0em"><tspan x="46" y="201.364">&#x427;&#x443;&#x436;&#x43e;&#x439; &#x43a;&#x43e;&#x43c;&#x43f;&#x44c;&#x44e;&#x442;&#x435;&#x440;</tspan></text>
<rect x="20" y="227" width="320" height="36" rx="18" fill="#1EC55B"/>
<text fill="#222222" xml:space="preserve" style="white-space: pre" font-family="Raleway" font-size="13" font-weight="600" letter-spacing="0em"><tspan x="159.77" y="249.589">&#x414;&#x430;&#x43b;&#x435;&#x435;</tspan></text>
<text fill="#717171" xml:space="preserve" style="white-space: pre" font-family="Inter" font-size="13" letter-spacing="0em"><tspan x="168" y="286.728">&#x438;&#x43b;&#x438;</tspan></text>
<rect x="20" y="301" width="320" height="36" rx="18" fill="#272727"/>
<path d="M110.221 312.098L95.4458 317.796C94.4375 318.201 94.4433 318.763 95.2608 319.014L99.0542 320.197L107.831 314.66C108.246 314.407 108.625 314.543 108.313 314.82L101.202 321.237H101.201L101.202 321.238L100.941 325.148C101.324 325.148 101.493 324.972 101.708 324.765L103.551 322.973L107.383 325.804C108.09 326.193 108.597 325.993 108.773 325.15L111.289 313.293C111.547 312.261 110.895 311.793 110.221 312.098Z" fill="#C9C9C9"/>
<text fill="#C9C9C9" xml:space="preserve" style="white-space: pre" font-family="Raleway" font-size="14" font-weight="500" letter-spacing="0em"><tspan x="117" y="323.942">&#x412;&#x43e;&#x439;&#x442;&#x438; &#x447;&#x435;&#x440;&#x435;&#x437; Telegram</tspan></text>
</svg>
