<svg version="1.1" xmlns="http://www.w3.org/2000/svg" xmlns:xlink="http://www.w3.org/1999/xlink" x="0px" y="0px" viewBox="0 0 746 103" enable-background="new 0 0 743 103" xml:space="preserve">
	<path fill="#FFFFFF" d="M47,102.1c8,0,15.1-1.5,21.3-4.6c6.2-3.1,11.3-7.4,15-12.8c3.8-5.4,6.1-11.6,6.7-18.6l0.1-0.8H70L69.9,66 c-0.9,3.9-2.3,7.3-4.4,10c-2.1,2.7-4.7,4.8-7.9,6.3c-3.1,1.5-6.6,2.2-10.6,2.2c-5.2,0-9.8-1.3-13.7-4c-3.9-2.7-6.9-6.6-9-11.6 c-2.1-5.1-3.1-11.1-3.1-18v-0.1c0-6.9,1-12.8,3.1-17.8c2.1-5,5.1-8.9,9-11.6c3.9-2.7,8.5-4,13.7-4c4.1,0,7.7,0.8,10.8,2.3 c3.1,1.5,5.7,3.5,7.7,6.2c2,2.7,3.4,5.9,4.2,9.5l0.3,1.2H90L90,36c-0.6-7-2.8-13.2-6.6-18.6c-3.8-5.4-8.8-9.7-15-12.8S54.9,0,47,0 C37.3,0,29,2.1,22,6.2C15,10.2,9.6,16,5.7,23.7C1.9,31.2,0,40.3,0,50.9V51c0,10.6,1.9,19.7,5.7,27.3c3.8,7.6,9.3,13.5,16.3,17.6 C29,100,37.3,102.1,47,102.1z"/>
	<path fill="#FFFFFF" d="M247.4,102.1c9.8,0,18.2-2.1,25.3-6.2c7.1-4.1,12.6-10,16.5-17.6c3.9-7.7,5.8-16.7,5.8-27.1v-0.1 c0-10.5-1.9-19.5-5.8-27.1c-3.9-7.6-9.4-13.5-16.5-17.6C265.6,2.1,257.1,0,247.4,0h-100c-9.7,0-18.1,2.1-25.3,6.2 c-7.1,4.1-12.6,10-16.5,17.6c-3.9,7.6-5.8,16.7-5.8,27.1v0.1c0,10.4,1.9,19.5,5.7,27.1c3.9,7.6,9.4,13.5,16.5,17.6 c7.2,4.1,15.6,6.2,25.4,6.2L247.4,102.1L247.4,102.1z M147.4,84.6c-5.4,0-10.1-1.4-14.1-4.1c-4-2.7-7-6.6-9.2-11.6 c-2.1-5-3.2-10.9-3.2-17.8v-0.1c0-6.9,1.1-12.9,3.2-17.8c2.2-5,5.3-8.9,9.2-11.6c4-2.7,8.7-4,14.1-4h100c5.4,0,10,1.4,14,4.1 c4,2.7,7.1,6.5,9.2,11.6c2.2,5,3.3,10.9,3.3,17.8v0.1c0,6.8-1.1,12.7-3.2,17.7s-5.2,8.9-9.2,11.7c-4,2.7-8.7,4.1-14.1,4.1H147.4z"/>
	<path fill="#FFFFFF" d="M308.3,100.4h20.6V35.8h8.7l-17.3-13.1l53.7,77.7h17.9V1.7h-20.6v64.1h-8.6L380,78.9L326.3,1.7h-18V100.4z"/>
	<path fill="#FFFFFF" d="M432,100.4h20.6V18.7h28.6v-17h-77.7v17H432V100.4z"/>
	<path fill="#FFFFFF" d="M492.6,100.4h65.4v-17h-44.7V58.5h42.2V42.4h-42.2V18.7h44.7v-17h-65.4V100.4z"/>
	<path fill="#FFFFFF" d="M572.8,100.4h20.6V35.8h8.7l-17.3-13.1l53.7,77.7h17.9V1.7h-20.6v64.1h-8.6l17.3,13.1L590.9,1.7h-18V100.4z"/>
	<path fill="#FFFFFF" d="M696.5,100.4h20.6V18.7h28.6v-17H668v17h28.5V100.4z"/>
</svg>