<svg xmlns="http://www.w3.org/2000/svg" viewBox="0 0 499 102" xml:space="preserve"><path fill="#FFF" d="M0 0c9.752 0 18.183 2.074 25.293 6.221 7.109 4.147 12.601 10.026 16.474 17.637 3.874 7.565 5.811 16.589 5.811 27.07v.137c0 10.436-1.937 19.482-5.811 27.139-3.873 7.611-9.365 13.49-16.474 17.637-7.064 4.146-15.495 6.22-25.293 6.22v-17.5c5.469 0 10.185-1.367 14.15-4.102 3.965-2.78 7.018-6.676 9.16-11.689 2.142-5.013 3.213-10.915 3.213-17.705v-.137c0-6.882-1.094-12.806-3.281-17.773-2.142-5.013-5.218-8.864-9.229-11.553C10.049 18.867 5.377 17.5 0 17.5V0M60.908 100.352h20.576v-64.6h8.682L72.871 22.695l53.73 77.657h17.911V1.709h-20.577V65.83h-8.613l17.295 13.057L78.955 1.709H60.908v98.643zM184.57 100.352h20.645V18.73h28.574V1.709h-77.725V18.73h28.506v81.622zM245.205 100.352h65.351V83.33h-44.707V58.516h42.178V42.383h-42.178V18.73h44.707V1.709h-65.351v98.643zM325.459 100.352h20.576v-64.6h8.682l-17.295-13.057 53.73 77.657h17.91V1.709h-20.576V65.83h-8.613l17.295 13.057-53.662-77.178h-18.047v98.643zM449.121 100.352h20.644V18.73h28.575V1.709h-77.725V18.73h28.506v81.622z"/></svg>