<svg xmlns="http://www.w3.org/2000/svg" viewBox="0 0 147 102" xml:space="preserve"><path fill="#FFF" d="M46.963 102.061c7.975 0 15.085-1.527 21.328-4.58 6.243-3.099 11.257-7.36 15.039-12.783 3.828-5.423 6.061-11.621 6.699-18.594l.068-.752H70l-.137.684c-.866 3.919-2.347 7.269-4.443 10.049a20.77 20.77 0 0 1-7.861 6.289c-3.099 1.458-6.631 2.188-10.596 2.188-5.241 0-9.821-1.344-13.74-4.033-3.874-2.734-6.882-6.608-9.023-11.621-2.096-5.058-3.144-11.051-3.144-17.978v-.068c0-6.882 1.048-12.806 3.144-17.774 2.142-5.013 5.15-8.864 9.023-11.553 3.874-2.689 8.454-4.033 13.74-4.033 4.102 0 7.702.752 10.801 2.256 3.145 1.458 5.719 3.532 7.725 6.221 2.005 2.689 3.395 5.856 4.17 9.502l.273 1.162H90.03l-.068-.615c-.638-7.018-2.848-13.216-6.631-18.594-3.783-5.423-8.796-9.684-15.039-12.783S54.938 0 46.963 0C37.347 0 29.03 2.051 22.012 6.152c-7.018 4.056-12.441 9.889-16.27 17.5C1.914 31.217 0 40.309 0 50.928v.068C0 61.569 1.891 70.684 5.674 78.34c3.828 7.611 9.251 13.467 16.27 17.568 7.063 4.102 15.403 6.153 25.019 6.153zM147.383 0v17.5c-5.377 0-10.049 1.367-14.013 4.102-4.011 2.689-7.087 6.54-9.229 11.553-2.187 4.967-3.281 10.892-3.281 17.773v.137c0 6.79 1.071 12.692 3.213 17.705 2.142 5.013 5.195 8.91 9.16 11.689 3.965 2.734 8.681 4.102 14.15 4.102v17.5c-9.798 0-18.229-2.074-25.293-6.221-7.109-4.147-12.601-10.026-16.474-17.637-3.874-7.656-5.811-16.702-5.811-27.139v-.137c0-10.482 1.937-19.505 5.811-27.07 3.873-7.611 9.365-13.49 16.474-17.637C129.2 2.074 137.631 0 147.383 0"/></svg>