<svg viewBox="0 0 646 102" fill="none" xmlns="http://www.w3.org/2000/svg">
<path d="M46.9629 102.061C54.9382 102.061 62.0475 100.534 68.291 97.4805C74.5345 94.3815 79.5475 90.1204 83.3301 84.6973C87.1582 79.2741 89.3913 73.0762 90.0293 66.1035L90.0977 65.3516H70L69.8633 66.0352C68.9974 69.9544 67.5163 73.304 65.4199 76.084C63.3236 78.8184 60.7031 80.9147 57.5586 82.373C54.4596 83.8314 50.9277 84.5605 46.9629 84.5605C41.722 84.5605 37.1419 83.2161 33.2227 80.5273C29.349 77.793 26.3411 73.9193 24.1992 68.9062C22.1029 63.8477 21.0547 57.8548 21.0547 50.9277V50.8594C21.0547 43.9779 22.1029 38.0534 24.1992 33.0859C26.3411 28.0729 29.349 24.222 33.2227 21.5332C37.0964 18.8444 41.6764 17.5 46.9629 17.5C51.0645 17.5 54.6647 18.252 57.7637 19.7559C60.9082 21.2142 63.4831 23.2878 65.4883 25.9766C67.4935 28.6654 68.8835 31.8327 69.6582 35.4785L69.9316 36.6406H90.0293L89.9609 36.0254C89.3229 29.0072 87.1126 22.8092 83.3301 17.4316C79.5475 12.0085 74.5345 7.7474 68.291 4.64844C62.0475 1.54948 54.9382 0 46.9629 0C37.347 0 29.0299 2.05078 22.0117 6.15234C14.9935 10.2083 9.57031 16.0417 5.74219 23.6523C1.91406 31.2174 0 40.3092 0 50.9277V50.9961C0 61.569 1.89128 70.6836 5.67383 78.3398C9.50195 85.9505 14.9251 91.8066 21.9434 95.9082C29.0072 100.01 37.347 102.061 46.9629 102.061Z" fill="white"/>
<path d="M147.383 102.061C157.181 102.061 165.612 99.987 172.676 95.8398C179.785 91.6927 185.277 85.8138 189.15 78.2031C193.024 70.5469 194.961 61.5007 194.961 51.0645V50.9277C194.961 40.446 193.024 31.4225 189.15 23.8574C185.277 16.2467 179.785 10.3678 172.676 6.2207C165.566 2.07357 157.135 0 147.383 0C137.676 0 129.245 2.07357 122.09 6.2207C114.98 10.3223 109.489 16.1784 105.615 23.7891C101.742 31.3997 99.8047 40.446 99.8047 50.9277V51.0645C99.8047 61.5007 101.719 70.5469 105.547 78.2031C109.421 85.8138 114.912 91.6927 122.021 95.8398C129.176 99.987 137.63 102.061 147.383 102.061ZM147.383 84.5605C141.96 84.5605 137.266 83.1934 133.301 80.459C129.336 77.7246 126.26 73.8509 124.072 68.8379C121.93 63.8249 120.859 57.9004 120.859 51.0645V50.9277C120.859 44.0007 121.93 38.0534 124.072 33.0859C126.26 28.0729 129.336 24.222 133.301 21.5332C137.311 18.8444 142.005 17.5 147.383 17.5C152.76 17.5 157.432 18.8672 161.396 21.6016C165.407 24.2904 168.483 28.1413 170.625 33.1543C172.812 38.1217 173.906 44.0462 173.906 50.9277V51.0645C173.906 57.8548 172.835 63.7565 170.693 68.7695C168.551 73.7826 165.498 77.679 161.533 80.459C157.568 83.1934 152.852 84.5605 147.383 84.5605Z" fill="white"/>
<path d="M208.291 100.352H228.867V35.752H237.549L220.254 22.6953L273.984 100.352H291.895V1.70898H271.318V65.8301H262.705L280 78.8867L226.338 1.70898H208.291V100.352Z" fill="white"/>
<path d="M331.953 100.352H352.598V18.7305H381.172V1.70898H303.447V18.7305H331.953V100.352Z" fill="white"/>
<path d="M392.588 100.352H457.939V83.3301H413.232V58.5156H455.41V42.3828H413.232V18.7305H457.939V1.70898H392.588V100.352Z" fill="white"/>
<path d="M472.842 100.352H493.418V35.752H502.1L484.805 22.6953L538.535 100.352H556.445V1.70898H535.869V65.8301H527.256L544.551 78.8867L490.889 1.70898H472.842V100.352Z" fill="white"/>
<path d="M596.504 100.352H617.148V18.7305H645.723V1.70898H567.998V18.7305H596.504V100.352Z" fill="white"/>
</svg>