<svg width="1520" height="1398" viewBox="0 0 1520 1398" fill="none" xmlns="http://www.w3.org/2000/svg">
<g filter="url(#filter0_f_0_3)">
<path fill-rule="evenodd" clip-rule="evenodd" d="M635.78 482.772L631.443 484.929L627.122 487.142L622.822 489.412L618.545 491.739L614.292 494.121L610.068 496.56L605.874 499.054L601.714 501.602L597.59 504.204L593.504 506.859L589.459 509.566L585.458 512.323L581.502 515.13L577.594 517.984L573.737 520.884L569.931 523.829L566.18 526.816L562.485 529.844L558.848 532.911L555.269 536.015L551.752 539.154L548.296 542.327L544.904 545.53L541.576 548.763L538.312 552.022L535.114 555.306L531.983 558.614L528.918 561.941L525.919 565.288L522.988 568.652L520.123 572.03L517.324 575.422L514.592 578.824L511.925 582.236L509.322 585.656L506.784 589.081L504.309 592.512L501.896 595.945L499.543 599.379L497.25 602.814L495.015 606.248L492.835 609.68L490.711 613.109L488.639 616.533L486.618 619.953L484.645 623.367L482.72 626.775L480.838 630.176L478.999 633.57L477.199 636.957L475.437 640.336L473.71 643.708L472.015 647.072L470.35 650.429L468.713 653.779L467.102 657.122L465.513 660.459L463.944 663.79L462.394 667.117L460.86 670.439L459.34 673.758L457.832 677.075L456.334 680.39L454.845 683.705L453.363 687.02L451.886 690.337L450.414 693.657L448.946 696.982L447.48 700.311L446.016 703.647L444.555 706.99L443.094 710.341L441.636 713.703L440.18 717.074L438.727 720.457L437.278 723.853L435.833 727.261L434.393 730.684L432.959 734.121L431.531 737.574L430.112 741.042L428.701 744.528L427.3 748.03L425.909 751.551L424.531 755.09L423.167 758.647L421.817 762.223L420.485 765.819L419.171 769.433L417.879 773.067L416.609 776.719L415.365 780.391L414.148 784.08L412.962 787.788L411.81 791.513L410.694 795.254L409.617 799.01L408.583 802.781L407.594 806.564L406.655 810.36L405.768 814.165L404.937 817.979L404.165 821.8L403.456 825.626L402.814 829.454L402.241 833.284L401.741 837.112L401.317 840.936L400.972 844.755L400.709 848.565L400.531 852.365L400.441 856.152L400.44 859.924L400.531 863.678L400.715 867.413L400.994 871.127L401.37 874.817L401.843 878.481L402.416 882.117L403.089 885.723L403.863 889.297L404.739 892.837L405.719 896.341L406.802 899.807L407.989 903.232L409.281 906.616L410.678 909.955L412.181 913.248L413.789 916.494L415.502 919.69L417.321 922.835L419.244 925.928L421.272 928.966L423.404 931.948L425.64 934.873L427.978 937.74L430.418 940.546L432.959 943.292L435.601 945.976L438.341 948.596L441.179 951.153L444.114 953.644L447.145 956.069L450.27 958.427L453.488 960.718L456.797 962.94L460.196 965.093L463.685 967.176L467.261 969.189L470.922 971.131L474.669 973.001L478.498 974.8L482.408 976.526L486.397 978.181L490.464 979.763L494.605 981.274L498.82 982.715L503.106 984.084L507.461 985.384L511.883 986.614L516.37 987.777L520.92 988.871L525.531 989.899L530.202 990.86L534.93 991.756L539.715 992.588L544.554 993.355L549.446 994.06L554.39 994.701L559.384 995.281L564.427 995.799L569.519 996.255L574.657 996.651L579.842 996.986L585.072 997.26L590.346 997.474L595.664 997.628L601.024 997.721L606.427 997.753L611.871 997.725L617.355 997.636L622.879 997.485L628.442 997.274L634.044 997L639.684 996.665L645.36 996.268L651.073 995.809L656.821 995.288L662.603 994.704L668.42 994.058L674.269 993.35L680.151 992.58L686.064 991.748L692.008 990.853L697.982 989.897L703.984 988.877L710.015 987.795L716.074 986.649L722.16 985.439L728.271 984.165L734.407 982.826L740.567 981.421L746.751 979.95L752.956 978.412L759.182 976.807L765.428 975.133L771.692 973.391L777.973 971.579L784.269 969.696L790.58 967.743L796.903 965.717L803.238 963.62L809.581 961.45L815.931 959.207L822.288 956.89L828.647 954.499L835.008 952.033L841.368 949.493L847.725 946.878L854.078 944.187L860.422 941.421L866.757 938.579L873.079 935.663L879.386 932.67L885.675 929.603L891.945 926.461L898.191 923.245L904.411 919.954L910.603 916.589L916.763 913.152L922.889 909.641L928.977 906.059L935.024 902.405L941.027 898.68L946.983 894.886L952.889 891.023L958.741 887.093L964.537 883.096L970.272 879.033L975.943 874.906L981.547 870.717L987.081 866.467L992.541 862.157L997.923 857.788L1003.22 853.364L1008.44 848.885L1013.57 844.354L1018.61 839.772L1023.55 835.142L1028.4 830.466L1033.15 825.746L1037.79 820.984L1042.32 816.183L1046.74 811.346L1051.05 806.475L1055.25 801.572L1059.32 796.641L1063.27 791.684L1067.1 786.704L1070.8 781.705L1074.37 776.688L1077.81 771.658L1081.12 766.618L1084.3 761.569L1087.34 756.517L1090.24 751.463L1093.01 746.411L1095.63 741.365L1098.12 736.326L1100.48 731.299L1102.69 726.286L1104.77 721.29L1106.71 716.314L1108.51 711.361L1110.17 706.434L1111.7 701.534L1113.09 696.666L1114.34 691.831L1115.47 687.032L1116.46 682.27L1117.32 677.549L1118.05 672.871L1118.65 668.236L1119.13 663.649L1119.49 659.109L1119.73 654.619L1119.84 650.181L1119.85 645.795L1119.73 641.464L1119.51 637.189L1119.18 632.97L1118.75 628.808L1118.22 624.705L1117.58 620.661L1116.86 616.677L1116.04 612.753L1115.13 608.889L1114.14 605.086L1113.07 601.343L1111.92 597.661L1110.7 594.039L1109.4 590.478L1108.05 586.976L1106.63 583.533L1105.15 580.148L1103.62 576.819L1102.04 573.547L1100.41 570.329L1098.75 567.164L1097.06 564.05L1095.33 560.986L1093.58 557.969L1091.8 554.998L1090.01 552.069L1088.21 549.182L1086.4 546.333L1084.59 543.52L1082.78 540.741L1080.96 537.993L1079.16 535.273L1077.37 532.578L1075.58 529.908L1073.81 527.258L1072.06 524.626L1070.33 522.01L1068.61 519.408L1066.92 516.817L1065.24 514.235L1063.59 511.661L1061.96 509.092L1060.35 506.526L1058.76 503.963L1057.19 501.401L1055.64 498.838L1054.11 496.275L1052.59 493.709L1051.09 491.14L1049.59 488.568L1048.11 485.992L1046.63 483.413L1045.15 480.83L1043.68 478.243L1042.2 475.654L1040.72 473.062L1039.23 470.469L1037.72 467.877L1036.2 465.286L1034.66 462.698L1033.09 460.116L1031.49 457.543L1029.86 454.98L1028.19 452.431L1026.48 449.898L1024.71 447.386L1022.9 444.898L1021.03 442.437L1019.09 440.008L1017.1 437.614L1015.03 435.259L1012.89 432.948L1010.67 430.686L1008.37 428.476L1005.99 426.322L1003.52 424.23L1000.96 422.204L998.313 420.247L995.572 418.365L992.737 416.561L989.807 414.839L986.781 413.203L983.658 411.656L980.439 410.203L977.124 408.846L973.714 407.589L970.21 406.434L966.613 405.383L962.925 404.439L959.15 403.602L955.289 402.876L951.346 402.259L947.325 401.752L943.23 401.355L939.065 401.066L934.835 400.885L930.545 400.81L926.199 400.838L921.803 400.967L917.361 401.195L912.88 401.516L908.363 401.929L903.817 402.429L899.246 403.012L894.656 403.674L890.051 404.409L885.435 405.214L880.813 406.083L876.189 407.012L871.567 407.994L866.95 409.026L862.342 410.103L857.746 411.218L853.163 412.368L848.597 413.548L844.049 414.753L839.521 415.979L835.014 417.221L830.528 418.477L826.065 419.742L821.624 421.012L817.205 422.286L812.808 423.56L808.431 424.833L804.075 426.102L799.738 427.367L795.418 428.625L791.113 429.878L786.823 431.124L782.545 432.364L778.278 433.598L774.019 434.827L769.767 436.053L765.52 437.276L761.275 438.497L757.033 439.718L752.79 440.94L748.544 442.167L744.296 443.399L740.043 444.638L735.783 445.887L731.517 447.149L727.242 448.425L722.958 449.718L718.665 451.03L714.361 452.365L710.048 453.724L705.724 455.11L701.39 456.526L697.045 457.974L692.691 459.456L688.329 460.975L683.958 462.533L679.581 464.132L675.198 465.774L670.811 467.461L666.421 469.196L662.03 470.978L657.64 472.812L653.253 474.696L648.872 476.633L644.497 478.625L640.133 480.67L635.78 482.772Z" fill="#6E44FF"/>
</g>
<defs>
<filter id="filter0_f_0_3" x="0.43988" y="0.809967" width="1519.41" height="1396.94" filterUnits="userSpaceOnUse" color-interpolation-filters="sRGB">
<feFlood flood-opacity="0" result="BackgroundImageFix"/>
<feBlend mode="normal" in="SourceGraphic" in2="BackgroundImageFix" result="shape"/>
<feGaussianBlur stdDeviation="200" result="effect1_foregroundBlur_0_3"/>
</filter>
</defs>
</svg>
