<svg width="342" height="226" viewBox="0 0 342 226" fill="none" xmlns="http://www.w3.org/2000/svg">
<g filter="url(#filter0_bdd_1048_4459)">
<rect x="13" y="11" width="316.238" height="189.039" rx="37.469" fill="black" fill-opacity="0.5" shape-rendering="crispEdges"/>
<path d="M46.5869 49.119C49.2214 49.119 50.5716 47.7798 51.9986 44.4537L56.8506 33.1471H53.8757L50.2752 42.4778H50.1325L46.3783 33.1471H43.3815L48.6945 45.3538C48.1127 46.3308 47.3772 46.704 46.3234 46.704C45.9612 46.704 45.6099 46.6601 45.3903 46.6052V48.9654C45.5111 49.0202 46.016 49.119 46.5869 49.119ZM62.2733 49.2178C65.2152 49.2178 67.1912 47.3736 67.3997 44.9477V44.8708H64.8201L64.7981 44.9696C64.5456 46.1881 63.6784 47.0114 62.2953 47.0114C60.5609 47.0114 59.4412 45.6063 59.4412 43.1803V43.1694C59.4412 40.7873 60.5499 39.3273 62.2733 39.3273C63.7333 39.3273 64.5676 40.2384 64.7981 41.3691L64.8091 41.4679H67.3887L67.3778 41.3801C67.2131 39.0529 65.314 37.1099 62.2514 37.1099C58.8484 37.1099 56.653 39.4371 56.653 43.1474V43.1584C56.653 46.8907 58.8155 49.2178 62.2733 49.2178ZM69.2219 48.9873H71.9553V39.4591H76.7414V48.9873H79.4857V37.3514H69.2219V48.9873ZM87.038 49.2178C90.0787 49.2178 91.7912 47.4176 92.1644 45.6283L92.1863 45.5075H89.6286L89.6067 45.5844C89.3432 46.3637 88.4651 47.0882 87.0929 47.0882C85.3146 47.0882 84.1949 45.8807 84.162 43.839H92.3071V42.9608C92.3071 39.4481 90.2434 37.1099 86.9063 37.1099C83.5802 37.1099 81.4396 39.5249 81.4396 43.1913V43.2023C81.4396 46.9016 83.5472 49.2178 87.038 49.2178ZM86.9392 39.2505C88.3882 39.2505 89.442 40.1726 89.6396 42.0168H84.1949C84.4035 40.2275 85.5012 39.2505 86.9392 39.2505ZM94.2501 48.9873H109.651V37.3514H106.918V46.8467H103.317V37.3514H100.584V46.8467H96.9834V37.3514H94.2501V48.9873ZM119.728 48.9873H122.462V37.3514H119.728V41.9399H114.832V37.3514H112.099V48.9873H114.832V44.0585H119.728V48.9873ZM128.334 49.1849C129.86 49.1849 131.156 48.4165 131.836 47.198H131.891V48.9873H134.624V40.9849C134.624 38.6467 132.758 37.1099 129.838 37.1099C126.885 37.1099 125.107 38.6577 124.931 40.7214L124.92 40.8532H127.456L127.478 40.7544C127.654 39.8981 128.455 39.2944 129.75 39.2944C131.123 39.2944 131.891 40.0079 131.891 41.1825V41.9838L128.85 42.1704C126.04 42.3461 124.427 43.5865 124.427 45.6502V45.6722C124.427 47.7469 125.996 49.1849 128.334 49.1849ZM127.16 45.5624V45.5514C127.16 44.6293 127.895 44.0475 129.235 43.9597L131.891 43.7951V44.6732C131.891 46.0564 130.716 47.0992 129.147 47.0992C127.939 47.0992 127.16 46.5174 127.16 45.5624ZM143.736 48.9873H146.425V37.3514H141.408C138.642 37.3514 136.853 38.8773 136.853 41.3142V41.3362C136.853 42.9718 137.83 44.1683 139.443 44.6623L136.315 48.9873H139.378L142.1 45.0904H143.736V48.9873ZM141.617 43.0815C140.365 43.0815 139.597 42.3461 139.597 41.3252V41.3032C139.597 40.1506 140.365 39.4481 141.617 39.4481H143.736V43.0815H141.617ZM153.374 48.9873H158.983C161.563 48.9873 163.165 47.681 163.165 45.6392V45.6173C163.165 44.1793 162.133 43.1255 160.608 42.9388V42.851C161.76 42.6534 162.649 41.5557 162.649 40.3372V40.3153C162.649 38.4711 161.244 37.3514 158.895 37.3514H153.374V48.9873ZM156.074 42.0936V39.2285H158.247C159.345 39.2285 159.96 39.7225 159.96 40.6446V40.6666C159.96 41.6216 159.312 42.0936 158.039 42.0936H156.074ZM156.074 47.0992V43.9268H158.127C159.598 43.9268 160.355 44.4208 160.355 45.4746V45.4965C160.355 46.5613 159.642 47.0992 158.346 47.0992H156.074ZM165.185 48.9873H170.158C172.869 48.9873 174.614 47.4066 174.614 44.9257V44.9038C174.614 42.4229 172.869 40.8422 170.158 40.8422H167.918V37.3514H165.185V48.9873ZM175.932 48.9873H178.665V37.3514H175.932V48.9873ZM169.774 42.9498C171.025 42.9498 171.826 43.7182 171.826 44.9038V44.9257C171.826 46.1003 171.036 46.8797 169.774 46.8797H167.918V42.9498H169.774ZM188.995 39.4591V37.3514H181.102V48.9873H183.835V39.4591H188.995ZM190.905 52.8293H193.638V47.0224H193.693C194.363 48.3836 195.691 49.2178 197.348 49.2178C200.257 49.2178 202.123 46.9126 202.123 43.1803V43.1694C202.123 39.4151 200.268 37.1099 197.304 37.1099C195.647 37.1099 194.363 37.9661 193.704 39.3603H193.638V37.3514H190.905V52.8293ZM196.492 46.9126C194.813 46.9126 193.627 45.4526 193.627 43.1803V43.1694C193.627 40.8861 194.802 39.4151 196.492 39.4151C198.238 39.4151 199.335 40.8422 199.335 43.1694V43.1803C199.335 45.4746 198.249 46.9126 196.492 46.9126ZM205.34 52.8513C207.755 52.8513 209.127 51.9402 210.005 49.3825L214.198 37.3514H211.311L208.589 46.6601H208.501L205.779 37.3514H202.804L206.986 48.9983L206.811 49.4703C206.459 50.4473 205.889 50.7437 204.835 50.7437C204.451 50.7437 204.132 50.6888 203.935 50.6449V52.7305C204.253 52.7854 204.802 52.8513 205.34 52.8513ZM219.972 49.2178C222.936 49.2178 224.879 47.7798 224.879 45.5953V45.5734C224.879 44.2012 224.034 43.2791 222.464 42.9718V42.884C223.76 42.5985 224.561 41.6325 224.561 40.3921V40.3702C224.561 38.3504 222.87 37.1099 220.082 37.1099C217.316 37.1099 215.571 38.3833 215.285 40.6007L215.274 40.6775H217.854L217.865 40.6007C218.04 39.7335 218.831 39.2285 220.027 39.2285C221.202 39.2285 221.894 39.7664 221.894 40.6885V40.7105C221.894 41.6655 221.235 42.1595 219.918 42.1595H218.304V44.0036H219.94C221.432 44.0036 222.168 44.4976 222.168 45.5185V45.5404C222.168 46.5064 221.323 47.0992 219.962 47.0992C218.699 47.0992 217.887 46.6272 217.634 45.7161L217.601 45.6063H214.967L214.978 45.6941C215.219 47.8896 217.107 49.2178 219.972 49.2178ZM230.039 43.9268L234.034 48.9873H237.36L232.443 42.7852L237.13 37.3514H233.979L230.039 42.0497H229.632V37.3514H226.899V48.9873H229.632V43.9268H230.039ZM242.059 49.1849C243.585 49.1849 244.88 48.4165 245.56 47.198H245.615V48.9873H248.349V40.9849C248.349 38.6467 246.483 37.1099 243.563 37.1099C240.61 37.1099 238.831 38.6577 238.656 40.7214L238.645 40.8532H241.181L241.202 40.7544C241.378 39.8981 242.179 39.2944 243.475 39.2944C244.847 39.2944 245.615 40.0079 245.615 41.1825V41.9838L242.575 42.1704C239.764 42.3461 238.151 43.5865 238.151 45.6502V45.6722C238.151 47.7469 239.721 49.1849 242.059 49.1849ZM240.884 45.5624V45.5514C240.884 44.6293 241.62 44.0475 242.959 43.9597L245.615 43.7951V44.6732C245.615 46.0564 244.441 47.0992 242.871 47.0992C241.664 47.0992 240.884 46.5174 240.884 45.5624Z" fill="#27AE60"/>
<path d="M45.6106 82.9824H50.082C51.0587 82.9824 51.8928 82.8302 52.5841 82.5258C53.2754 82.215 53.805 81.7742 54.1729 81.2034C54.5471 80.6262 54.7342 79.9381 54.7342 79.1389V79.1199C54.7342 78.5174 54.6073 77.9783 54.3536 77.5026C54.1063 77.0269 53.7511 76.64 53.2881 76.3419C52.8314 76.0438 52.286 75.8567 51.6518 75.7806V75.6474C52.1021 75.565 52.5048 75.381 52.86 75.0956C53.2215 74.8102 53.5069 74.4582 53.7162 74.0396C53.9319 73.6147 54.0397 73.1644 54.0397 72.6887V72.6697C54.0397 71.972 53.8748 71.3695 53.545 70.8621C53.2215 70.3483 52.7585 69.9519 52.156 69.6729C51.5535 69.3938 50.8336 69.2543 49.9964 69.2543H45.6106V70.7669H49.6349C50.4784 70.7669 51.1349 70.9572 51.6042 71.3378C52.0735 71.7183 52.3082 72.2542 52.3082 72.9456V72.9646C52.3082 73.694 52.045 74.2458 51.5186 74.62C50.9921 74.9878 50.212 75.1717 49.1782 75.1717H45.6106V76.6464H49.6634C50.3928 76.6464 51.0017 76.7351 51.49 76.9127C51.9847 77.0903 52.3558 77.3567 52.6031 77.7119C52.8505 78.0671 52.9742 78.5079 52.9742 79.0343V79.0533C52.9742 79.8398 52.7078 80.4391 52.175 80.8514C51.6422 81.2636 50.859 81.4698 49.8251 81.4698H45.6106V82.9824ZM44.7544 82.9824H46.4668V69.2543H44.7544V82.9824ZM57.3694 82.9824H61.0132C62.1802 82.9824 63.1093 82.6716 63.8006 82.0501C64.492 81.4222 64.8376 80.5818 64.8376 79.529V79.51C64.8376 78.4571 64.492 77.6199 63.8006 76.9984C63.1093 76.3705 62.1802 76.0565 61.0132 76.0565H59.0248V72.7838H57.3694V82.9824ZM61.0036 77.4265C61.6696 77.4265 62.1992 77.6167 62.5924 77.9973C62.9856 78.3715 63.1823 78.8757 63.1823 79.51V79.529C63.1823 80.1569 62.9856 80.6611 62.5924 81.0416C62.2055 81.4222 61.6759 81.6125 61.0036 81.6125H59.0248V77.4265H61.0036ZM66.5406 82.9824H68.1959V72.7838H66.5406V82.9824ZM77.8332 74.1538V72.7838H71.2974V82.9824H72.9527V74.1538H77.8332ZM80.2116 86.3883H81.867V81.3556H82.0002C82.1968 81.7298 82.4537 82.0501 82.7708 82.3165C83.0879 82.5829 83.4526 82.7921 83.8649 82.9444C84.2835 83.0902 84.7274 83.1632 85.1968 83.1632C86.0593 83.1632 86.8109 82.9475 87.4515 82.5163C88.0921 82.0786 88.59 81.4666 88.9451 80.6801C89.3003 79.8873 89.4779 78.9582 89.4779 77.8926V77.8736C89.4779 76.8144 89.3003 75.8916 88.9451 75.1051C88.59 74.3123 88.0921 73.6971 87.4515 73.2595C86.8109 72.8219 86.0562 72.6031 85.1873 72.6031C84.7116 72.6031 84.2708 72.676 83.8649 72.8219C83.4653 72.9678 83.1069 73.1771 82.7898 73.4498C82.4727 73.7225 82.2095 74.0491 82.0002 74.4297H81.867V72.7838H80.2116V86.3883ZM84.8162 81.6981C84.2073 81.6981 83.6778 81.5427 83.2274 81.2319C82.7835 80.9211 82.441 80.4835 82.2 79.919C81.959 79.3482 81.8385 78.6728 81.8385 77.8926V77.8736C81.8385 77.0935 81.959 76.4212 82.2 75.8567C82.441 75.2859 82.7835 74.8451 83.2274 74.5343C83.6778 74.2236 84.2073 74.0682 84.8162 74.0682C85.4378 74.0682 85.9674 74.2204 86.405 74.5248C86.849 74.8293 87.1883 75.2669 87.423 75.8377C87.664 76.4022 87.7845 77.0808 87.7845 77.8736V77.8926C87.7845 78.6791 87.664 79.3577 87.423 79.9286C87.1883 80.4994 86.849 80.937 86.405 81.2414C85.9674 81.5459 85.4378 81.6981 84.8162 81.6981ZM92.6269 86.531C93.2358 86.531 93.7463 86.4422 94.1586 86.2646C94.5772 86.0934 94.9387 85.7921 95.2431 85.3608C95.5476 84.9359 95.8393 84.3524 96.1184 83.6103L100.095 72.7838H98.3541L95.2527 82.1262L95.8615 81.1939H95.129L95.7379 82.1262L92.6269 72.7838H90.8574L94.6343 82.9919L94.444 83.5913C94.2537 84.1748 94.0064 84.5807 93.7019 84.809C93.4038 85.0437 93.0138 85.161 92.5318 85.161C92.4239 85.161 92.3098 85.1579 92.1893 85.1515C92.0751 85.1452 91.9705 85.1325 91.8753 85.1135V86.4739C91.9895 86.4929 92.1132 86.5056 92.2464 86.512C92.3859 86.5247 92.5127 86.531 92.6269 86.531ZM103.101 82.9824L106.812 78.3017H107.363V82.9824H108.962V78.3017H109.523L113.233 82.9824H115.317L110.826 77.5406V77.6072L115.117 72.7838H113.148L109.523 77.0935H108.962V72.7838H107.363V77.0935H106.812L103.187 72.7838H101.189L105.499 77.6453V77.5787L101.037 82.9824H103.101ZM121.215 83.1632C121.811 83.1632 122.347 83.0871 122.823 82.9349C123.305 82.7763 123.724 82.567 124.079 82.307C124.44 82.0406 124.732 81.7425 124.954 81.4127C125.182 81.0829 125.341 80.7372 125.43 80.3757L125.449 80.2996H123.793L123.765 80.3852C123.67 80.6008 123.511 80.8101 123.289 81.0131C123.067 81.2097 122.785 81.3714 122.443 81.4983C122.106 81.6251 121.71 81.6886 121.253 81.6886C120.638 81.6886 120.102 81.5522 119.646 81.2795C119.195 81.0068 118.846 80.6135 118.599 80.0998C118.352 79.5861 118.228 78.9677 118.228 78.2446V77.5882C118.228 76.8271 118.355 76.1865 118.609 75.6665C118.862 75.14 119.205 74.7436 119.636 74.4773C120.067 74.2109 120.556 74.0777 121.101 74.0777C121.653 74.0777 122.138 74.2045 122.557 74.4582C122.982 74.7119 123.311 75.0988 123.546 75.6189C123.787 76.1326 123.908 76.7891 123.908 77.5882V78.2446L124.726 77.0364H117.391V78.3588H125.573V77.7119C125.573 76.6971 125.392 75.806 125.03 75.0386C124.675 74.2711 124.165 73.6749 123.499 73.25C122.833 72.8187 122.037 72.6031 121.111 72.6031C120.191 72.6031 119.386 72.8282 118.694 73.2785C118.009 73.7225 117.48 74.3441 117.105 75.1432C116.731 75.936 116.544 76.8588 116.544 77.9117V77.9212C116.544 78.9867 116.731 79.9127 117.105 80.6992C117.48 81.4856 118.016 82.0945 118.713 82.5258C119.411 82.9507 120.245 83.1632 121.215 83.1632ZM134.867 82.9824H136.523V72.7838H134.867V76.9984H129.825V72.7838H128.17V82.9824H129.825V78.3683H134.867V82.9824ZM143.829 83.1632C144.8 83.1632 145.634 82.9507 146.331 82.5258C147.035 82.1008 147.578 81.4951 147.958 80.7087C148.345 79.9159 148.538 78.9772 148.538 77.8926V77.8736C148.538 76.7827 148.345 75.844 147.958 75.0576C147.578 74.2648 147.035 73.6591 146.331 73.2405C145.627 72.8155 144.793 72.6031 143.829 72.6031C142.871 72.6031 142.041 72.8155 141.337 73.2405C140.633 73.6591 140.087 74.2648 139.7 75.0576C139.32 75.844 139.129 76.7827 139.129 77.8736V77.8926C139.129 78.9772 139.32 79.9159 139.7 80.7087C140.087 81.4951 140.633 82.1008 141.337 82.5258C142.041 82.9507 142.871 83.1632 143.829 83.1632ZM143.829 81.6981C143.195 81.6981 142.653 81.549 142.202 81.2509C141.758 80.9465 141.416 80.5121 141.175 79.9476C140.94 79.3768 140.823 78.6918 140.823 77.8926V77.8736C140.823 77.0681 140.94 76.3831 141.175 75.8187C141.416 75.2479 141.758 74.8134 142.202 74.5153C142.653 74.2172 143.195 74.0682 143.829 74.0682C144.463 74.0682 145.006 74.2172 145.456 74.5153C145.906 74.8134 146.249 75.2479 146.483 75.8187C146.724 76.3831 146.845 77.0681 146.845 77.8736V77.8926C146.845 78.6918 146.724 79.3768 146.483 79.9476C146.249 80.5121 145.906 80.9465 145.456 81.2509C145.012 81.549 144.47 81.6981 143.829 81.6981ZM159.679 82.9824H161.382V69.2543H159.688L156.035 71.88V73.6781L159.546 71.1475H159.679V82.9824ZM165.282 82.9824H174.197V81.4412H167.223L167.651 81.7647V80.9275L167.214 81.7647L170.8 78.0639C171.631 77.2077 172.275 76.4878 172.732 75.9043C173.188 75.3144 173.508 74.7817 173.692 74.306C173.876 73.824 173.968 73.3229 173.968 72.8029V72.7838C173.968 72.0481 173.781 71.3917 173.407 70.8145C173.039 70.2373 172.532 69.7839 171.885 69.4541C171.244 69.1179 170.524 68.9498 169.725 68.9498C168.85 68.9498 168.07 69.1306 167.385 69.4921C166.706 69.8473 166.17 70.3388 165.777 70.9667C165.39 71.5946 165.194 72.3145 165.187 73.1263L165.206 73.1453H166.843L166.852 73.1263C166.852 72.5936 166.969 72.1274 167.204 71.7278C167.439 71.3219 167.762 71.008 168.175 70.786C168.593 70.5576 169.078 70.4435 169.63 70.4435C170.163 70.4435 170.623 70.5545 171.01 70.7765C171.396 70.9921 171.695 71.2902 171.904 71.6707C172.113 72.0449 172.218 72.473 172.218 72.9551V72.9741C172.218 73.3673 172.151 73.732 172.018 74.0682C171.891 74.4043 171.663 74.7817 171.333 75.2003C171.003 75.6125 170.543 76.139 169.954 76.7795L165.282 81.8027V82.9824ZM176.223 86.3407H177.441L178.915 81.0512H177.051L176.223 86.3407ZM186.441 83.2869C187.367 83.2869 188.191 83.0839 188.914 82.678C189.637 82.2721 190.208 81.7139 190.627 81.0036C191.045 80.2932 191.255 79.4846 191.255 78.5776V78.5586C191.255 77.677 191.058 76.8905 190.665 76.1992C190.271 75.5079 189.736 74.9624 189.057 74.5629C188.378 74.1633 187.608 73.9635 186.745 73.9635C186.13 73.9635 185.575 74.065 185.08 74.268C184.592 74.4646 184.176 74.7246 183.834 75.0481C183.491 75.3715 183.235 75.7235 183.063 76.1041H182.749V78.5586H183.311V78.5491C183.311 77.9529 183.447 77.4233 183.72 76.9603C183.999 76.491 184.376 76.1263 184.852 75.8662C185.328 75.5999 185.86 75.4667 186.45 75.4667C187.046 75.4667 187.576 75.5999 188.039 75.8662C188.502 76.1326 188.863 76.5037 189.123 76.9793C189.39 77.4487 189.523 77.9878 189.523 78.5966V78.6157C189.523 79.1992 189.384 79.7319 189.104 80.214C188.832 80.696 188.461 81.0765 187.991 81.3556C187.522 81.6347 186.999 81.7742 186.422 81.7742C185.844 81.7742 185.318 81.6315 184.842 81.3461C184.373 81.0607 183.999 80.6738 183.72 80.1854C183.447 79.6971 183.311 79.1548 183.311 78.5586L182.902 76.2753C182.902 76.1929 182.902 76.1104 182.902 76.028C182.902 75.9455 182.905 75.8631 182.911 75.7806C182.949 74.8229 183.092 73.9445 183.339 73.1453C183.593 72.3399 183.98 71.6929 184.5 71.2046C185.02 70.7162 185.699 70.472 186.536 70.472C186.999 70.472 187.411 70.5481 187.773 70.7003C188.14 70.8526 188.451 71.0682 188.705 71.3473C188.965 71.62 189.165 71.9498 189.304 72.3367L189.342 72.4413H191.074L191.045 72.3177C190.893 71.639 190.608 71.0492 190.189 70.5481C189.77 70.0407 189.25 69.6475 188.629 69.3684C188.014 69.0894 187.322 68.9498 186.555 68.9498C185.445 68.9498 184.494 69.2416 183.701 69.8251C182.914 70.4086 182.312 71.2521 181.893 72.3557C181.475 73.4593 181.265 74.7912 181.265 76.3514V76.3705C181.265 77.6643 181.414 78.752 181.712 79.6336C182.01 80.5152 182.41 81.2256 182.911 81.7647C183.412 82.3038 183.967 82.6938 184.576 82.9349C185.191 83.1695 185.813 83.2869 186.441 83.2869ZM197.296 82.9824H198.999V69.2543H197.305L193.652 71.88V73.6781L197.163 71.1475H197.296V82.9824ZM207.437 83.2869C208.376 83.2869 209.204 83.0902 209.92 82.697C210.643 82.2974 211.208 81.7457 211.614 81.0416C212.026 80.3313 212.232 79.5163 212.232 78.5966V78.5776C212.232 77.6897 212.042 76.9032 211.661 76.2182C211.281 75.5269 210.754 74.9846 210.082 74.5914C209.416 74.1982 208.652 74.0016 207.789 74.0016C207.371 74.0016 206.974 74.0555 206.6 74.1633C206.226 74.2711 205.886 74.4297 205.582 74.639C205.284 74.8483 205.03 75.1083 204.821 75.4191H204.688L205.154 70.786H211.471V69.2543H203.793L203.08 77.1315H204.564C204.653 76.9666 204.748 76.8176 204.85 76.6844C204.957 76.5512 205.071 76.4275 205.192 76.3134C205.496 76.0343 205.839 75.825 206.219 75.6855C206.606 75.5459 207.028 75.4762 207.485 75.4762C208.087 75.4762 208.617 75.6094 209.074 75.8758C209.53 76.1421 209.892 76.5132 210.158 76.9888C210.424 77.4582 210.558 77.9973 210.558 78.6062V78.6252C210.558 79.2404 210.424 79.7858 210.158 80.2615C209.898 80.7372 209.537 81.1114 209.074 81.3841C208.611 81.6505 208.071 81.7837 207.456 81.7837C206.923 81.7837 206.441 81.6791 206.01 81.4698C205.585 81.2605 205.24 80.975 204.973 80.6135C204.707 80.252 204.545 79.8524 204.488 79.4148L204.478 79.3387H202.833L202.842 79.4434C202.912 80.1727 203.147 80.8292 203.546 81.4127C203.952 81.9898 204.488 82.4465 205.154 82.7826C205.826 83.1188 206.587 83.2869 207.437 83.2869ZM227.587 72.7838H219.329V74.1538H222.63V82.9824H224.286V74.1538H227.587V72.7838ZM233.695 83.1632C234.665 83.1632 235.499 82.9507 236.197 82.5258C236.901 82.1008 237.443 81.4951 237.824 80.7087C238.211 79.9159 238.404 78.9772 238.404 77.8926V77.8736C238.404 76.7827 238.211 75.844 237.824 75.0576C237.443 74.2648 236.901 73.6591 236.197 73.2405C235.493 72.8155 234.659 72.6031 233.695 72.6031C232.737 72.6031 231.906 72.8155 231.202 73.2405C230.498 73.6591 229.953 74.2648 229.566 75.0576C229.185 75.844 228.995 76.7827 228.995 77.8736V77.8926C228.995 78.9772 229.185 79.9159 229.566 80.7087C229.953 81.4951 230.498 82.1008 231.202 82.5258C231.906 82.9507 232.737 83.1632 233.695 83.1632ZM233.695 81.6981C233.061 81.6981 232.518 81.549 232.068 81.2509C231.624 80.9465 231.281 80.5121 231.04 79.9476C230.806 79.3768 230.688 78.6918 230.688 77.8926V77.8736C230.688 77.0681 230.806 76.3831 231.04 75.8187C231.281 75.2479 231.624 74.8134 232.068 74.5153C232.518 74.2172 233.061 74.0682 233.695 74.0682C234.329 74.0682 234.871 74.2172 235.322 74.5153C235.772 74.8134 236.114 75.2479 236.349 75.8187C236.59 76.3831 236.711 77.0681 236.711 77.8736V77.8926C236.711 78.6918 236.59 79.3768 236.349 79.9476C236.114 80.5121 235.772 80.9465 235.322 81.2509C234.878 81.549 234.335 81.6981 233.695 81.6981ZM241.001 82.9824H245.349C246.085 82.9824 246.713 82.8619 247.233 82.6209C247.753 82.3799 248.149 82.0406 248.422 81.6029C248.701 81.159 248.84 80.6452 248.84 80.0617V80.0427C248.84 79.6431 248.755 79.2848 248.584 78.9677C248.412 78.6442 248.168 78.3778 247.851 78.1685C247.534 77.9529 247.16 77.8165 246.728 77.7594V77.6263C247.204 77.5248 247.601 77.2647 247.918 76.8461C248.235 76.4212 248.393 75.955 248.393 75.4476V75.4286C248.393 74.6295 248.124 73.9889 247.585 73.5069C247.046 73.0248 246.294 72.7838 245.33 72.7838H241.001V82.9824ZM242.657 81.6125V78.4635H244.959C245.695 78.4635 246.243 78.5871 246.605 78.8345C246.973 79.0818 247.157 79.4751 247.157 80.0142V80.0332C247.157 80.5406 246.998 80.9307 246.681 81.2034C246.364 81.4761 245.894 81.6125 245.273 81.6125H242.657ZM242.657 77.0935V74.1538H245.092C245.663 74.1538 246.082 74.287 246.348 74.5534C246.614 74.8134 246.747 75.1622 246.747 75.5999V75.6189C246.747 76.1009 246.592 76.4688 246.281 76.7225C245.971 76.9698 245.485 77.0935 244.826 77.0935H242.657ZM254.339 83.1632C254.802 83.1632 255.227 83.0966 255.614 82.9634C256.001 82.8302 256.35 82.6368 256.661 82.3831C256.971 82.123 257.231 81.8122 257.441 81.4507H257.574V82.9824H259.229V75.9899C259.229 75.2859 259.077 74.6834 258.773 74.1823C258.475 73.6749 258.034 73.2849 257.45 73.0122C256.873 72.7394 256.172 72.6031 255.348 72.6031C254.612 72.6031 253.959 72.7204 253.388 72.9551C252.817 73.1834 252.354 73.5037 251.999 73.9159C251.65 74.3219 251.434 74.7944 251.352 75.3335L251.343 75.4001H252.988L252.998 75.362C253.125 74.9561 253.385 74.639 253.778 74.4107C254.171 74.1823 254.679 74.0682 255.3 74.0682C256.055 74.0682 256.623 74.2362 257.003 74.5724C257.384 74.9085 257.574 75.3906 257.574 76.0185V79.1675C257.574 79.6558 257.45 80.0935 257.203 80.4803C256.956 80.8609 256.613 81.1653 256.175 81.3936C255.744 81.6156 255.249 81.7266 254.691 81.7266C254.095 81.7266 253.604 81.5839 253.217 81.2985C252.83 81.0131 252.636 80.6135 252.636 80.0998V80.0808C252.636 79.5797 252.814 79.1897 253.169 78.9106C253.531 78.6315 254.092 78.4698 254.853 78.4254L258.402 78.1971V76.8842L254.653 77.1125C253.867 77.1569 253.195 77.3028 252.636 77.5501C252.085 77.7912 251.663 78.1273 251.371 78.5586C251.086 78.9899 250.943 79.5068 250.943 80.1093V80.1283C250.943 80.7436 251.089 81.2795 251.381 81.7361C251.679 82.1928 252.085 82.5448 252.598 82.7921C253.112 83.0395 253.692 83.1632 254.339 83.1632ZM262.302 86.3883H263.958V81.3556H264.091C264.287 81.7298 264.544 82.0501 264.861 82.3165C265.179 82.5829 265.543 82.7921 265.955 82.9444C266.374 83.0902 266.818 83.1632 267.287 83.1632C268.15 83.1632 268.901 82.9475 269.542 82.5163C270.183 82.0786 270.681 81.4666 271.036 80.6801C271.391 79.8873 271.568 78.9582 271.568 77.8926V77.8736C271.568 76.8144 271.391 75.8916 271.036 75.1051C270.681 74.3123 270.183 73.6971 269.542 73.2595C268.901 72.8219 268.147 72.6031 267.278 72.6031C266.802 72.6031 266.361 72.676 265.955 72.8219C265.556 72.9678 265.198 73.1771 264.88 73.4498C264.563 73.7225 264.3 74.0491 264.091 74.4297H263.958V72.7838H262.302V86.3883ZM266.907 81.6981C266.298 81.6981 265.768 81.5427 265.318 81.2319C264.874 80.9211 264.532 80.4835 264.291 79.919C264.05 79.3482 263.929 78.6728 263.929 77.8926V77.8736C263.929 77.0935 264.05 76.4212 264.291 75.8567C264.532 75.2859 264.874 74.8451 265.318 74.5343C265.768 74.2236 266.298 74.0682 266.907 74.0682C267.528 74.0682 268.058 74.2204 268.496 74.5248C268.94 74.8293 269.279 75.2669 269.514 75.8377C269.755 76.4022 269.875 77.0808 269.875 77.8736V77.8926C269.875 78.6791 269.755 79.3577 269.514 79.9286C269.279 80.4994 268.94 80.937 268.496 81.2414C268.058 81.5459 267.528 81.6981 266.907 81.6981ZM278.39 83.1632C279.36 83.1632 280.194 82.9507 280.892 82.5258C281.596 82.1008 282.138 81.4951 282.519 80.7087C282.906 79.9159 283.099 78.9772 283.099 77.8926V77.8736C283.099 76.7827 282.906 75.844 282.519 75.0576C282.138 74.2648 281.596 73.6591 280.892 73.2405C280.188 72.8155 279.354 72.6031 278.39 72.6031C277.432 72.6031 276.601 72.8155 275.897 73.2405C275.193 73.6591 274.648 74.2648 274.261 75.0576C273.88 75.844 273.69 76.7827 273.69 77.8736V77.8926C273.69 78.9772 273.88 79.9159 274.261 80.7087C274.648 81.4951 275.193 82.1008 275.897 82.5258C276.601 82.9507 277.432 83.1632 278.39 83.1632ZM278.39 81.6981C277.755 81.6981 277.213 81.549 276.763 81.2509C276.319 80.9465 275.976 80.5121 275.735 79.9476C275.501 79.3768 275.383 78.6918 275.383 77.8926V77.8736C275.383 77.0681 275.501 76.3831 275.735 75.8187C275.976 75.2479 276.319 74.8134 276.763 74.5153C277.213 74.2172 277.755 74.0682 278.39 74.0682C279.024 74.0682 279.566 74.2172 280.017 74.5153C280.467 74.8134 280.809 75.2479 281.044 75.8187C281.285 76.3831 281.406 77.0681 281.406 77.8736V77.8926C281.406 78.6918 281.285 79.3768 281.044 79.9476C280.809 80.5121 280.467 80.9465 280.017 81.2509C279.573 81.549 279.03 81.6981 278.39 81.6981ZM285.696 82.9824H290.044C290.78 82.9824 291.408 82.8619 291.928 82.6209C292.448 82.3799 292.844 82.0406 293.117 81.6029C293.396 81.159 293.535 80.6452 293.535 80.0617V80.0427C293.535 79.6431 293.45 79.2848 293.279 78.9677C293.107 78.6442 292.863 78.3778 292.546 78.1685C292.229 77.9529 291.855 77.8165 291.423 77.7594V77.6263C291.899 77.5248 292.295 77.2647 292.613 76.8461C292.93 76.4212 293.088 75.955 293.088 75.4476V75.4286C293.088 74.6295 292.819 73.9889 292.28 73.5069C291.741 73.0248 290.989 72.7838 290.025 72.7838H285.696V82.9824ZM287.352 81.6125V78.4635H289.654C290.39 78.4635 290.938 78.5871 291.3 78.8345C291.668 79.0818 291.852 79.4751 291.852 80.0142V80.0332C291.852 80.5406 291.693 80.9307 291.376 81.2034C291.059 81.4761 290.589 81.6125 289.968 81.6125H287.352ZM287.352 77.0935V74.1538H289.787C290.358 74.1538 290.776 74.287 291.043 74.5534C291.309 74.8134 291.442 75.1622 291.442 75.5999V75.6189C291.442 76.1009 291.287 76.4688 290.976 76.7225C290.665 76.9698 290.18 77.0935 289.521 77.0935H287.352Z" fill="#E1E1E1"/>
<path d="M45.6106 115.978H50.082C51.0587 115.978 51.8928 115.825 52.5841 115.521C53.2754 115.21 53.805 114.769 54.1729 114.198C54.5471 113.621 54.7342 112.933 54.7342 112.134V112.115C54.7342 111.512 54.6073 110.973 54.3536 110.498C54.1063 110.022 53.7511 109.635 53.2881 109.337C52.8314 109.039 52.286 108.852 51.6518 108.776V108.643C52.1021 108.56 52.5048 108.376 52.86 108.091C53.2215 107.805 53.5069 107.453 53.7162 107.035C53.9319 106.61 54.0397 106.159 54.0397 105.684V105.665C54.0397 104.967 53.8748 104.365 53.545 103.857C53.2215 103.343 52.7585 102.947 52.156 102.668C51.5535 102.389 50.8336 102.249 49.9964 102.249H45.6106V103.762H49.6349C50.4784 103.762 51.1349 103.952 51.6042 104.333C52.0735 104.713 52.3082 105.249 52.3082 105.941V105.96C52.3082 106.689 52.045 107.241 51.5186 107.615C50.9921 107.983 50.212 108.167 49.1782 108.167H45.6106V109.641H49.6634C50.3928 109.641 51.0017 109.73 51.49 109.908C51.9847 110.085 52.3558 110.352 52.6031 110.707C52.8505 111.062 52.9742 111.503 52.9742 112.029V112.048C52.9742 112.835 52.7078 113.434 52.175 113.846C51.6422 114.259 50.859 114.465 49.8251 114.465H45.6106V115.978ZM44.7544 115.978H46.4668V102.249H44.7544V115.978ZM61.5554 116.158C62.3736 116.158 63.0744 116.022 63.6579 115.749C64.2414 115.47 64.7108 115.09 65.066 114.608C65.4275 114.126 65.6717 113.574 65.7985 112.952L65.8175 112.857L64.1812 112.867L64.1622 112.924C63.9846 113.494 63.677 113.932 63.2393 114.237C62.8017 114.541 62.2404 114.693 61.5554 114.693C60.9529 114.693 60.4265 114.538 59.9762 114.227C59.5259 113.91 59.177 113.466 58.9297 112.895C58.6887 112.318 58.5682 111.639 58.5682 110.859V110.84C58.5682 110.073 58.6887 109.407 58.9297 108.842C59.1707 108.272 59.5132 107.834 59.9571 107.529C60.4075 107.219 60.937 107.063 61.5459 107.063C62.2816 107.063 62.8715 107.244 63.3155 107.606C63.7594 107.961 64.0448 108.392 64.1717 108.899L64.1812 108.928H65.827L65.8175 108.871C65.7161 108.268 65.4877 107.72 65.1326 107.225C64.7774 106.73 64.2985 106.337 63.696 106.045C63.0935 105.747 62.3768 105.598 61.5459 105.598C60.5946 105.598 59.7669 105.814 59.0629 106.245C58.3652 106.676 57.8261 107.285 57.4455 108.072C57.065 108.852 56.8747 109.775 56.8747 110.84V110.85C56.8747 111.928 57.065 112.867 57.4455 113.666C57.8324 114.459 58.3747 115.074 59.0724 115.511C59.7764 115.943 60.6041 116.158 61.5554 116.158ZM72.4675 116.158C73.0637 116.158 73.5997 116.082 74.0753 115.93C74.5574 115.771 74.976 115.562 75.3311 115.302C75.6927 115.036 75.9844 114.738 76.2064 114.408C76.4347 114.078 76.5933 113.732 76.6821 113.371L76.7011 113.295H75.0457L75.0172 113.38C74.9221 113.596 74.7635 113.805 74.5415 114.008C74.3195 114.205 74.0373 114.367 73.6948 114.493C73.3587 114.62 72.9623 114.684 72.5056 114.684C71.8904 114.684 71.3545 114.547 70.8978 114.275C70.4475 114.002 70.0987 113.609 69.8513 113.095C69.604 112.581 69.4803 111.963 69.4803 111.24V110.583C69.4803 109.822 69.6071 109.182 69.8608 108.662C70.1145 108.135 70.457 107.739 70.8883 107.472C71.3196 107.206 71.8079 107.073 72.3534 107.073C72.9052 107.073 73.3904 107.2 73.809 107.453C74.2339 107.707 74.5637 108.094 74.7984 108.614C75.0394 109.128 75.1599 109.784 75.1599 110.583V111.24L75.9781 110.032H68.6431V111.354H76.8248V110.707C76.8248 109.692 76.644 108.801 76.2825 108.034C75.9273 107.266 75.4168 106.67 74.7508 106.245C74.0849 105.814 73.2889 105.598 72.3629 105.598C71.4432 105.598 70.6378 105.823 69.9464 106.274C69.2615 106.718 68.7319 107.339 68.3577 108.138C67.9835 108.931 67.7964 109.854 67.7964 110.907V110.916C67.7964 111.982 67.9835 112.908 68.3577 113.694C68.7319 114.481 69.2678 115.09 69.9655 115.521C70.6631 115.946 71.4972 116.158 72.4675 116.158ZM85.9579 107.149V105.779H79.422V115.978H81.0774V107.149H85.9579ZM92.2273 116.158C93.1977 116.158 94.0317 115.946 94.7294 115.521C95.4334 115.096 95.9757 114.49 96.3562 113.704C96.7431 112.911 96.9366 111.972 96.9366 110.888V110.869C96.9366 109.778 96.7431 108.839 96.3562 108.053C95.9757 107.26 95.4334 106.654 94.7294 106.236C94.0254 105.811 93.1914 105.598 92.2273 105.598C91.2696 105.598 90.4388 105.811 89.7348 106.236C89.0308 106.654 88.4853 107.26 88.0984 108.053C87.7179 108.839 87.5276 109.778 87.5276 110.869V110.888C87.5276 111.972 87.7179 112.911 88.0984 113.704C88.4853 114.49 89.0308 115.096 89.7348 115.521C90.4388 115.946 91.2696 116.158 92.2273 116.158ZM92.2273 114.693C91.5931 114.693 91.0508 114.544 90.6005 114.246C90.1565 113.942 89.814 113.507 89.573 112.943C89.3384 112.372 89.221 111.687 89.221 110.888V110.869C89.221 110.063 89.3384 109.378 89.573 108.814C89.814 108.243 90.1565 107.809 90.6005 107.51C91.0508 107.212 91.5931 107.063 92.2273 107.063C92.8616 107.063 93.4038 107.212 93.8542 107.51C94.3045 107.809 94.647 108.243 94.8816 108.814C95.1226 109.378 95.2431 110.063 95.2431 110.869V110.888C95.2431 111.687 95.1226 112.372 94.8816 112.943C94.647 113.507 94.3045 113.942 93.8542 114.246C93.4102 114.544 92.8679 114.693 92.2273 114.693ZM108.99 116.158C109.961 116.158 110.795 115.946 111.492 115.521C112.196 115.096 112.739 114.49 113.119 113.704C113.506 112.911 113.7 111.972 113.7 110.888V110.869C113.7 109.778 113.506 108.839 113.119 108.053C112.739 107.26 112.196 106.654 111.492 106.236C110.788 105.811 109.954 105.598 108.99 105.598C108.033 105.598 107.202 105.811 106.498 106.236C105.794 106.654 105.248 107.26 104.861 108.053C104.481 108.839 104.291 109.778 104.291 110.869V110.888C104.291 111.972 104.481 112.911 104.861 113.704C105.248 114.49 105.794 115.096 106.498 115.521C107.202 115.946 108.033 116.158 108.99 116.158ZM108.99 114.693C108.356 114.693 107.814 114.544 107.363 114.246C106.92 113.942 106.577 113.507 106.336 112.943C106.101 112.372 105.984 111.687 105.984 110.888V110.869C105.984 110.063 106.101 109.378 106.336 108.814C106.577 108.243 106.92 107.809 107.363 107.51C107.814 107.212 108.356 107.063 108.99 107.063C109.625 107.063 110.167 107.212 110.617 107.51C111.067 107.809 111.41 108.243 111.645 108.814C111.886 109.378 112.006 110.063 112.006 110.869V110.888C112.006 111.687 111.886 112.372 111.645 112.943C111.41 113.507 111.067 113.942 110.617 114.246C110.173 114.544 109.631 114.693 108.99 114.693ZM116.297 115.978H128.893V105.779H127.237V114.608H123.422V105.779H121.767V114.608H117.952V105.779H116.297V115.978ZM131.994 115.978H133.65L139.101 107.767L137.969 108.376H138.835V115.978H140.49V105.779H138.835L133.393 113.989L134.515 113.38H133.65V105.779H131.994V115.978ZM147.872 116.168C148.856 116.168 149.702 115.959 150.413 115.54C151.123 115.115 151.668 114.512 152.049 113.732C152.429 112.946 152.62 112.014 152.62 110.935V110.916C152.62 109.889 152.436 109.001 152.068 108.252C151.7 107.504 151.177 106.924 150.498 106.511C149.826 106.099 149.033 105.893 148.12 105.893C147.606 105.893 147.127 105.966 146.683 106.112C146.246 106.251 145.856 106.461 145.513 106.74C145.171 107.019 144.882 107.361 144.647 107.767H144.514L144.543 107.568C144.67 106.635 144.876 105.88 145.161 105.303C145.453 104.72 145.859 104.288 146.379 104.009C146.899 103.724 147.562 103.565 148.367 103.534L149.366 103.496C149.956 103.464 150.492 103.394 150.974 103.286C151.462 103.172 151.786 103.039 151.944 102.887V101.422C151.532 101.599 151.091 101.732 150.622 101.821C150.159 101.904 149.715 101.954 149.29 101.973L148.31 102.021C147.39 102.065 146.601 102.249 145.941 102.573C145.282 102.89 144.742 103.369 144.324 104.009C143.912 104.644 143.607 105.452 143.411 106.435C143.214 107.412 143.116 108.582 143.116 109.946V109.965C143.116 111.322 143.293 112.461 143.648 113.38C144.01 114.3 144.543 114.994 145.247 115.464C145.957 115.933 146.832 116.168 147.872 116.168ZM147.872 114.703C147.219 114.703 146.664 114.554 146.208 114.256C145.757 113.957 145.412 113.529 145.171 112.971C144.93 112.407 144.809 111.728 144.809 110.935V110.916C144.809 110.155 144.93 109.511 145.171 108.985C145.412 108.459 145.757 108.056 146.208 107.777C146.664 107.498 147.219 107.358 147.872 107.358C148.519 107.358 149.071 107.498 149.528 107.777C149.984 108.056 150.33 108.459 150.565 108.985C150.806 109.511 150.926 110.155 150.926 110.916V110.935C150.926 111.728 150.806 112.407 150.565 112.971C150.33 113.529 149.984 113.957 149.528 114.256C149.071 114.554 148.519 114.703 147.872 114.703ZM159.432 116.158C160.402 116.158 161.236 115.946 161.934 115.521C162.638 115.096 163.18 114.49 163.56 113.704C163.947 112.911 164.141 111.972 164.141 110.888V110.869C164.141 109.778 163.947 108.839 163.56 108.053C163.18 107.26 162.638 106.654 161.934 106.236C161.23 105.811 160.396 105.598 159.432 105.598C158.474 105.598 157.643 105.811 156.939 106.236C156.235 106.654 155.689 107.26 155.303 108.053C154.922 108.839 154.732 109.778 154.732 110.869V110.888C154.732 111.972 154.922 112.911 155.303 113.704C155.689 114.49 156.235 115.096 156.939 115.521C157.643 115.946 158.474 116.158 159.432 116.158ZM159.432 114.693C158.797 114.693 158.255 114.544 157.805 114.246C157.361 113.942 157.018 113.507 156.777 112.943C156.543 112.372 156.425 111.687 156.425 110.888V110.869C156.425 110.063 156.543 109.378 156.777 108.814C157.018 108.243 157.361 107.809 157.805 107.51C158.255 107.212 158.797 107.063 159.432 107.063C160.066 107.063 160.608 107.212 161.058 107.51C161.509 107.809 161.851 108.243 162.086 108.814C162.327 109.378 162.447 110.063 162.447 110.869V110.888C162.447 111.687 162.327 112.372 162.086 112.943C161.851 113.507 161.509 113.942 161.058 114.246C160.614 114.544 160.072 114.693 159.432 114.693ZM168.898 111.325L172.903 115.978H175.015L170.134 110.45V110.717L174.844 105.779H172.855L168.898 110.051H168.393V105.779H166.738V115.978H168.393V111.325H168.898ZM181.579 111.211H191.302V109.67H181.579V111.211Z" fill="#E1E1E1"/>
<path d="M203.375 116.282C204.396 116.282 205.271 115.993 206.001 115.416C206.73 114.833 207.288 114.005 207.675 112.933C208.068 111.861 208.265 110.59 208.265 109.118V109.099C208.265 107.628 208.068 106.359 207.675 105.294C207.288 104.222 206.73 103.397 206.001 102.82C205.271 102.237 204.396 101.945 203.375 101.945C202.354 101.945 201.482 102.237 200.759 102.82C200.036 103.397 199.477 104.222 199.084 105.294C198.697 106.359 198.504 107.628 198.504 109.099V109.118C198.504 110.59 198.697 111.861 199.084 112.933C199.477 114.005 200.036 114.833 200.759 115.416C201.482 115.993 202.354 116.282 203.375 116.282ZM203.375 114.788C202.715 114.788 202.151 114.56 201.681 114.103C201.212 113.64 200.851 112.987 200.597 112.144C200.35 111.294 200.226 110.285 200.226 109.118V109.099C200.226 107.932 200.35 106.927 200.597 106.083C200.851 105.24 201.212 104.59 201.681 104.133C202.151 103.676 202.715 103.448 203.375 103.448C204.041 103.448 204.608 103.676 205.078 104.133C205.554 104.59 205.915 105.24 206.162 106.083C206.416 106.927 206.543 107.932 206.543 109.099V109.118C206.543 110.285 206.416 111.294 206.162 112.144C205.915 112.987 205.554 113.64 205.078 114.103C204.608 114.56 204.041 114.788 203.375 114.788Z" fill="#4CC67F"/>
<rect x="42.9752" y="137.965" width="256.288" height="47.0865" rx="23.5432" fill="#373737"/>
<path d="M138.851 162.458H140.617C142.25 162.458 143.207 163.178 143.207 164.39V164.407C143.207 165.558 142.206 166.295 140.669 166.295C139.089 166.295 138.096 165.681 137.964 164.592L137.956 164.513H135.76L135.769 164.618C135.874 166.761 137.798 168.227 140.66 168.227C143.479 168.227 145.517 166.664 145.517 164.539V164.521C145.517 162.835 144.463 161.623 142.759 161.421V161.351C144.173 161.035 145.13 159.876 145.13 158.471V158.453C145.13 156.477 143.348 155.116 140.704 155.116C137.973 155.116 136.191 156.477 136.076 158.673L136.068 158.778H138.202L138.219 158.664C138.351 157.645 139.229 157.048 140.643 157.048C142.092 157.048 142.926 157.672 142.926 158.708V158.725C142.926 159.858 142.004 160.614 140.581 160.614H138.851V162.458ZM149.89 168.166C151.111 168.166 152.147 167.551 152.692 166.576H152.735V168.008H154.922V161.606C154.922 159.735 153.429 158.506 151.093 158.506C148.731 158.506 147.308 159.744 147.168 161.395L147.159 161.501H149.188L149.205 161.421C149.346 160.736 149.987 160.253 151.023 160.253C152.121 160.253 152.735 160.824 152.735 161.764V162.405L150.303 162.554C148.055 162.695 146.764 163.687 146.764 165.338V165.356C146.764 167.015 148.02 168.166 149.89 168.166ZM148.95 165.268V165.259C148.95 164.521 149.539 164.056 150.61 163.986L152.735 163.854V164.557C152.735 165.663 151.796 166.497 150.54 166.497C149.574 166.497 148.95 166.032 148.95 165.268ZM159.348 163.959L162.545 168.008H165.206L161.271 163.046L165.021 158.699H162.501L159.348 162.458H159.023V158.699H156.837V168.008H159.023V163.959H159.348ZM166.382 171.081H168.569V166.436H168.613C169.149 167.525 170.211 168.192 171.537 168.192C173.864 168.192 175.357 166.348 175.357 163.362V163.353C175.357 160.35 173.873 158.506 171.502 158.506C170.176 158.506 169.149 159.191 168.622 160.306H168.569V158.699H166.382V171.081ZM170.852 166.348C169.509 166.348 168.56 165.18 168.56 163.362V163.353C168.56 161.527 169.5 160.35 170.852 160.35C172.249 160.35 173.127 161.492 173.127 163.353V163.362C173.127 165.198 172.257 166.348 170.852 166.348ZM176.929 168.008H180.907C183.077 168.008 184.473 166.743 184.473 164.759V164.741C184.473 162.756 183.077 161.492 180.907 161.492H179.116V158.699H176.929V168.008ZM185.527 168.008H187.713V158.699H185.527V168.008ZM180.6 163.178C181.601 163.178 182.242 163.793 182.242 164.741V164.759C182.242 165.698 181.61 166.322 180.6 166.322H179.116V163.178H180.6ZM196.952 158.699H189.057V160.394H191.911V168.008H194.098V160.394H196.952V158.699ZM198.304 168.008H202.282C204.451 168.008 205.848 166.743 205.848 164.759V164.741C205.848 162.756 204.451 161.492 202.282 161.492H200.491V158.699H198.304V168.008ZM201.975 163.178C202.976 163.178 203.617 163.793 203.617 164.741V164.759C203.617 165.698 202.985 166.322 201.975 166.322H200.491V163.178H201.975Z" fill="#27AE60"/>
</g>
<defs>
<filter id="filter0_bdd_1048_4459" x="-31.9628" y="-33.9628" width="406.164" height="278.965" filterUnits="userSpaceOnUse" color-interpolation-filters="sRGB">
<feFlood flood-opacity="0" result="BackgroundImageFix"/>
<feGaussianBlur in="BackgroundImageFix" stdDeviation="22.4814"/>
<feComposite in2="SourceAlpha" operator="in" result="effect1_backgroundBlur_1048_4459"/>
<feColorMatrix in="SourceAlpha" type="matrix" values="0 0 0 0 0 0 0 0 0 0 0 0 0 0 0 0 0 0 127 0" result="hardAlpha"/>
<feMorphology radius="10.0393" operator="erode" in="SourceAlpha" result="effect2_dropShadow_1048_4459"/>
<feOffset dy="17.0668"/>
<feGaussianBlur stdDeviation="11.0432"/>
<feComposite in2="hardAlpha" operator="out"/>
<feColorMatrix type="matrix" values="0 0 0 0 0 0 0 0 0 0 0 0 0 0 0 0 0 0 0.25 0"/>
<feBlend mode="normal" in2="effect1_backgroundBlur_1048_4459" result="effect2_dropShadow_1048_4459"/>
<feColorMatrix in="SourceAlpha" type="matrix" values="0 0 0 0 0 0 0 0 0 0 0 0 0 0 0 0 0 0 127 0" result="hardAlpha"/>
<feOffset/>
<feGaussianBlur stdDeviation="5.01966"/>
<feComposite in2="hardAlpha" operator="out"/>
<feColorMatrix type="matrix" values="0 0 0 0 0 0 0 0 0 0 0 0 0 0 0 0 0 0 0.05 0"/>
<feBlend mode="normal" in2="effect2_dropShadow_1048_4459" result="effect3_dropShadow_1048_4459"/>
<feBlend mode="normal" in="SourceGraphic" in2="effect3_dropShadow_1048_4459" result="shape"/>
</filter>
</defs>
</svg>
