<svg width="1520" height="1398" viewBox="0 0 1520 1398" fill="none" xmlns="http://www.w3.org/2000/svg">
<g filter="url(#filter0_f_0_3)">
<path fill-rule="evenodd" clip-rule="evenodd" d="M884.534 482.479L888.872 484.636L893.192 486.849L897.492 489.119L901.77 491.446L906.022 493.828L910.246 496.267L914.44 498.761L918.6 501.309L922.725 503.911L926.81 506.566L930.855 509.273L934.857 512.031L938.813 514.837L942.72 517.691L946.578 520.591L950.383 523.536L954.134 526.523L957.829 529.551L961.467 532.618L965.045 535.722L968.563 538.861L972.018 542.034L975.411 545.237L978.739 548.47L982.002 551.729L985.2 555.013L988.332 558.321L991.397 561.648L994.395 564.995L997.327 568.359L1000.19 571.737L1002.99 575.129L1005.72 578.531L1008.39 581.943L1010.99 585.363L1013.53 588.788L1016.01 592.219L1018.42 595.652L1020.77 599.086L1023.06 602.521L1025.3 605.955L1027.48 609.387L1029.6 612.816L1031.68 616.24L1033.7 619.66L1035.67 623.074L1037.59 626.482L1039.48 629.883L1041.32 633.277L1043.12 636.664L1044.88 640.043L1046.6 643.415L1048.3 646.779L1049.96 650.136L1051.6 653.486L1053.21 656.829L1054.8 660.166L1056.37 663.497L1057.92 666.824L1059.45 670.146L1060.97 673.465L1062.48 676.782L1063.98 680.097L1065.47 683.412L1066.95 686.727L1068.43 690.044L1069.9 693.364L1071.37 696.689L1072.83 700.018L1074.3 703.354L1075.76 706.697L1077.22 710.048L1078.68 713.41L1080.13 716.781L1081.59 720.164L1083.04 723.56L1084.48 726.968L1085.92 730.391L1087.36 733.828L1088.78 737.281L1090.2 740.749L1091.61 744.235L1093.01 747.737L1094.41 751.258L1095.78 754.797L1097.15 758.354L1098.5 761.93L1099.83 765.526L1101.14 769.14L1102.44 772.774L1103.71 776.426L1104.95 780.098L1106.17 783.787L1107.35 787.495L1108.5 791.22L1109.62 794.961L1110.7 798.717L1111.73 802.488L1112.72 806.271L1113.66 810.067L1114.55 813.872L1115.38 817.686L1116.15 821.507L1116.86 825.333L1117.5 829.161L1118.07 832.991L1118.57 836.819L1119 840.643L1119.34 844.462L1119.61 848.272L1119.78 852.072L1119.87 855.859L1119.87 859.631L1119.78 863.385L1119.6 867.121L1119.32 870.834L1118.94 874.524L1118.47 878.188L1117.9 881.824L1117.23 885.43L1116.45 889.004L1115.58 892.544L1114.6 896.048L1113.51 899.514L1112.33 902.939L1111.03 906.323L1109.64 909.662L1108.13 912.955L1106.53 916.201L1104.81 919.397L1102.99 922.542L1101.07 925.635L1099.04 928.673L1096.91 931.655L1094.67 934.58L1092.34 937.447L1089.9 940.253L1087.35 942.999L1084.71 945.683L1081.97 948.303L1079.13 950.86L1076.2 953.351L1073.17 955.776L1070.04 958.134L1066.83 960.425L1063.52 962.647L1060.12 964.8L1056.63 966.883L1053.05 968.896L1049.39 970.838L1045.65 972.708L1041.82 974.507L1037.91 976.233L1033.92 977.888L1029.85 979.47L1025.71 980.981L1021.49 982.422L1017.21 983.791L1012.85 985.091L1008.43 986.321L1003.94 987.484L999.394 988.578L994.783 989.606L990.112 990.567L985.384 991.463L980.599 992.295L975.76 993.062L970.868 993.767L965.925 994.408L960.931 994.988L955.887 995.506L950.796 995.962L945.657 996.358L940.472 996.693L935.243 996.967L929.968 997.181L924.651 997.335L919.29 997.428L913.888 997.46L908.444 997.432L902.96 997.343L897.435 997.192L891.872 996.981L886.27 996.707L880.631 996.372L874.954 995.975L869.242 995.516L863.494 994.995L857.711 994.411L851.895 993.765L846.045 993.057L840.163 992.287L834.25 991.455L828.307 990.56L822.333 989.604L816.33 988.584L810.299 987.502L804.24 986.356L798.155 985.146L792.044 983.872L785.907 982.533L779.747 981.128L773.564 979.657L767.359 978.119L761.133 976.514L754.887 974.84L748.623 973.098L742.342 971.286L736.045 969.403L729.734 967.45L723.411 965.424L717.077 963.327L710.734 961.157L704.383 958.914L698.027 956.597L691.667 954.206L685.306 951.74L678.946 949.2L672.589 946.585L666.237 943.894L659.892 941.128L653.558 938.286L647.236 935.37L640.929 932.377L634.639 929.31L628.37 926.168L622.124 922.952L615.903 919.661L609.712 916.296L603.551 912.859L597.426 909.348L591.338 905.766L585.291 902.112L579.287 898.387L573.331 894.593L567.425 890.73L561.573 886.8L555.778 882.803L550.043 878.74L544.371 874.613L538.767 870.424L533.233 866.174L527.774 861.864L522.391 857.495L517.09 853.071L511.872 848.592L506.743 844.061L501.704 839.479L496.76 834.849L491.914 830.173L487.169 825.453L482.528 820.691L477.994 815.89L473.571 811.053L469.262 806.182L465.069 801.279L460.995 796.348L457.044 791.391L453.216 786.411L449.515 781.412L445.943 776.395L442.502 771.365L439.193 766.325L436.018 761.276L432.979 756.224L430.076 751.17L427.309 746.118L424.68 741.072L422.19 736.033L419.837 731.006L417.623 725.993L415.547 720.997L413.609 716.021L411.809 711.068L410.146 706.141L408.619 701.241L407.228 696.373L405.972 691.538L404.849 686.739L403.858 681.977L402.997 677.256L402.265 672.578L401.661 667.943L401.181 663.356L400.825 658.816L400.589 654.326L400.471 649.888L400.469 645.502L400.58 641.171L400.802 636.896L401.131 632.677L401.564 628.515L402.098 624.412L402.731 620.368L403.458 616.384L404.277 612.46L405.184 608.596L406.175 604.793L407.246 601.05L408.395 597.368L409.618 593.746L410.911 590.185L412.269 586.683L413.689 583.24L415.167 579.855L416.698 576.526L418.277 573.254L419.9 570.036L421.563 566.871L423.259 563.757L424.986 560.693L426.738 557.676L428.511 554.705L430.301 551.776L432.102 548.889L433.912 546.04L435.725 543.227L437.539 540.448L439.35 537.699L441.154 534.98L442.949 532.285L444.732 529.615L446.501 526.965L448.253 524.333L449.988 521.717L451.703 519.115L453.397 516.524L455.071 513.942L456.723 511.368L458.353 508.799L459.962 506.233L461.551 503.67L463.12 501.108L464.67 498.545L466.204 495.982L467.722 493.416L469.227 490.847L470.721 488.275L472.206 485.699L473.685 483.12L475.16 480.537L476.635 477.95L478.112 475.361L479.594 472.769L481.085 470.176L482.59 467.584L484.111 464.993L485.654 462.405L487.222 459.823L488.82 457.25L490.452 454.687L492.123 452.138L493.837 449.605L495.6 447.093L497.415 444.605L499.287 442.144L501.22 439.715L503.219 437.321L505.287 434.966L507.429 432.655L509.647 430.393L511.946 428.182L514.328 426.029L516.796 423.937L519.353 421.911L522.001 419.954L524.742 418.072L527.577 416.268L530.507 414.546L533.534 412.91L536.656 411.363L539.875 409.91L543.19 408.553L546.601 407.296L550.105 406.141L553.702 405.09L557.389 404.146L561.165 403.309L565.025 402.583L568.968 401.966L572.989 401.459L577.084 401.062L581.249 400.773L585.479 400.592L589.77 400.517L594.116 400.545L598.512 400.674L602.953 400.902L607.435 401.223L611.951 401.636L616.497 402.136L621.068 402.719L625.658 403.381L630.264 404.116L634.88 404.921L639.502 405.79L644.126 406.719L648.748 407.701L653.364 408.733L657.972 409.81L662.569 410.925L667.151 412.075L671.717 413.255L676.265 414.46L680.793 415.686L685.301 416.928L689.786 418.184L694.25 419.449L698.691 420.719L703.11 421.993L707.507 423.267L711.883 424.54L716.239 425.809L720.577 427.074L724.897 428.332L729.201 429.585L733.491 430.831L737.769 432.071L742.037 433.305L746.296 434.534L750.548 435.76L754.795 436.983L759.039 438.204L763.282 439.425L767.525 440.647L771.77 441.874L776.018 443.106L780.272 444.345L784.531 445.594L788.798 446.856L793.073 448.132L797.356 449.425L801.65 450.737L805.953 452.072L810.267 453.431L814.591 454.817L818.925 456.233L823.269 457.681L827.623 459.163L831.986 460.682L836.356 462.24L840.733 463.839L845.116 465.481L849.504 467.168L853.893 468.903L858.284 470.686L862.674 472.519L867.061 474.403L871.443 476.34L875.817 478.332L880.182 480.377L884.534 482.479Z" fill="#B30909"/>
</g>
<defs>
<filter id="filter0_f_0_3" x="0.469055" y="0.516968" width="1519.41" height="1396.94" filterUnits="userSpaceOnUse" color-interpolation-filters="sRGB">
<feFlood flood-opacity="0" result="BackgroundImageFix"/>
<feBlend mode="normal" in="SourceGraphic" in2="BackgroundImageFix" result="shape"/>
<feGaussianBlur stdDeviation="200" result="effect1_foregroundBlur_0_3"/>
</filter>
</defs>
</svg>
