<svg width="947" height="240" viewBox="0 0 947 240" fill="none" xmlns="http://www.w3.org/2000/svg">
<g clip-path="url(#clip0_1_4216)">
<path d="M833.859 19.1696L842.115 14L1036 -103.5L1342 77.1711L842.115 241L0 241L8.2561 237.319C16.5121 233.637 33.024 226.275 49.5361 224.009C66.0482 221.743 82.5602 224.574 99.0723 223.643C115.584 222.712 132.096 218.019 148.609 209.646C165.121 201.274 181.633 189.221 198.145 186.435C214.657 183.649 231.169 190.13 247.681 186.039C264.193 181.948 280.705 167.284 297.217 163.162C313.729 159.041 330.241 165.461 346.753 165.941C363.265 166.421 379.777 160.96 396.289 151.073C412.801 141.186 429.313 126.872 445.825 120.136C462.338 113.4 478.85 114.242 495.362 112.705C511.874 111.168 528.386 107.252 544.898 103.038C561.41 98.8243 577.922 94.313 594.434 93.1335C610.946 91.9539 627.458 94.1062 643.97 91.3865C660.482 88.6669 676.994 81.0754 693.506 77.171C710.018 73.2667 726.53 73.0494 743.042 68.305C759.555 63.5607 776.067 54.2892 792.579 44.4838C809.089 34.6797 825.599 24.3419 833.856 19.1717L833.859 19.1696Z" fill="url(#paint0_linear_1_4216)"/>
<path d="M842 13.0001L833.745 18.1697C825.49 23.3393 808.98 33.6785 792.471 43.4839C775.961 53.2892 759.451 62.5607 742.941 67.3051C726.431 72.0494 709.922 72.2667 693.412 76.1711C676.902 80.0754 660.392 87.6669 643.882 90.3865C627.373 93.1062 610.863 90.954 594.353 92.1335C577.843 93.313 561.333 97.8243 544.824 102.038C528.314 106.252 511.804 110.168 495.294 111.705C478.784 113.242 462.274 112.4 445.765 119.136C429.255 125.872 412.745 140.186 396.235 150.073C379.725 159.961 363.216 165.421 346.706 164.941C330.196 164.461 313.686 158.041 297.176 162.162C280.667 166.284 264.157 180.948 247.647 185.039C231.137 189.13 214.627 182.649 198.118 185.435C181.608 188.221 165.098 200.274 148.588 208.646C132.078 217.019 115.569 221.712 99.0587 222.643C82.5489 223.574 66.0392 220.743 49.5294 223.009C33.0196 225.275 16.5098 232.637 8.25485 236.319L-2.49147e-05 240" stroke="#4CC67F" stroke-width="7" stroke-linecap="round"/>
<circle cx="842" cy="13" r="11" fill="#4CC67F"/>
<circle cx="842" cy="13" r="5.5" fill="#101010"/>
</g>
<defs>
<linearGradient id="paint0_linear_1_4216" x1="606" y1="241" x2="464.178" y2="-126.454" gradientUnits="userSpaceOnUse">
<stop stop-color="#4CC67F" stop-opacity="0"/>
<stop offset="1" stop-color="#4CC67F"/>
</linearGradient>
<clipPath id="clip0_1_4216">
<path d="M0 0H947V240H0V0Z" fill="white"/>
</clipPath>
</defs>
</svg>
