<svg width="971" height="735" viewBox="0 0 971 735" fill="none" xmlns="http://www.w3.org/2000/svg">
<g filter="url(#filter0_f_0_3)">
<path fill-rule="evenodd" clip-rule="evenodd" d="M403.015 120.79L407.609 119.254L412.23 117.769L416.877 116.337L421.547 114.959L426.239 113.638L430.95 112.376L435.679 111.173L440.422 110.03L445.177 108.951L449.943 107.934L454.715 106.982L459.492 106.095L464.272 105.274L469.05 104.519L473.826 103.831L478.595 103.21L483.357 102.656L488.107 102.17L492.843 101.751L497.564 101.399L502.266 101.114L506.948 100.894L511.606 100.74L516.24 100.651L520.846 100.626L525.423 100.664L529.969 100.764L534.483 100.924L538.963 101.144L543.407 101.422L547.814 101.757L552.183 102.148L556.514 102.592L560.804 103.088L565.054 103.635L569.262 104.231L573.429 104.873L577.554 105.561L581.637 106.293L585.679 107.065L589.678 107.878L593.636 108.728L597.553 109.615L601.43 110.535L605.268 111.487L609.067 112.47L612.828 113.481L616.553 114.518L620.244 115.579L623.901 116.663L627.526 117.768L631.121 118.892L634.688 120.034L638.228 121.191L641.744 122.363L645.237 123.548L648.71 124.745L652.164 125.952L655.602 127.169L659.025 128.393L662.436 129.626L665.837 130.865L669.229 132.11L672.616 133.361L675.997 134.617L679.376 135.879L682.754 137.146L686.132 138.417L689.512 139.695L692.895 140.978L696.282 142.267L699.673 143.564L703.07 144.869L706.473 146.182L709.881 147.505L713.296 148.84L716.717 150.186L720.144 151.546L723.577 152.92L727.016 154.31L730.461 155.715L733.911 157.139L737.367 158.581L740.828 160.043L744.293 161.526L747.761 163.032L751.232 164.561L754.704 166.115L758.176 167.695L761.647 169.304L765.115 170.941L768.578 172.609L772.034 174.31L775.481 176.044L778.916 177.813L782.337 179.618L785.741 181.462L789.125 183.345L792.485 185.269L795.819 187.236L799.123 189.246L802.393 191.301L805.626 193.402L808.817 195.551L811.964 197.747L815.061 199.993L818.106 202.289L821.095 204.635L824.023 207.032L826.887 209.481L829.684 211.982L832.409 214.535L835.06 217.141L837.635 219.798L840.129 222.507L842.54 225.267L844.866 228.078L847.105 230.94L849.254 233.851L851.311 236.812L853.273 239.821L855.139 242.878L856.907 245.982L858.574 249.132L860.138 252.327L861.599 255.566L862.954 258.847L864.202 262.171L865.342 265.535L866.372 268.939L867.292 272.38L868.1 275.858L868.796 279.372L869.379 282.92L869.848 286.501L870.204 290.112L870.444 293.754L870.571 297.424L870.582 301.121L870.479 304.843L870.261 308.589L869.929 312.358L869.483 316.148L868.923 319.957L868.249 323.785L867.462 327.629L866.563 331.488L865.552 335.361L864.429 339.247L863.195 343.143L861.851 347.049L860.398 350.963L858.836 354.884L857.168 358.81L855.394 362.741L853.517 366.674L851.538 370.61L849.459 374.547L847.282 378.483L845.009 382.418L842.642 386.352L840.182 390.283L837.632 394.21L834.993 398.133L832.267 402.051L829.457 405.964L826.562 409.87L823.586 413.77L820.528 417.663L817.392 421.548L814.177 425.424L810.885 429.292L807.516 433.151L804.073 436.999L800.554 440.838L796.962 444.666L793.296 448.482L789.557 452.286L785.746 456.078L781.864 459.857L777.909 463.621L773.883 467.372L769.787 471.107L765.619 474.827L761.382 478.53L757.075 482.216L752.699 485.885L748.253 489.535L743.74 493.167L739.158 496.779L734.51 500.371L729.795 503.943L725.014 507.493L720.167 511.022L715.256 514.529L710.28 518.013L705.239 521.474L700.135 524.909L694.966 528.319L689.734 531.703L684.439 535.059L679.08 538.387L673.658 541.685L668.174 544.952L662.628 548.187L657.02 551.388L651.35 554.555L645.619 557.685L639.828 560.778L633.977 563.832L628.067 566.845L622.098 569.815L616.072 572.742L609.989 575.623L603.85 578.457L597.657 581.242L591.41 583.977L585.112 586.66L578.762 589.289L572.364 591.862L565.918 594.377L559.426 596.834L552.89 599.23L546.312 601.564L539.693 603.833L533.036 606.036L526.343 608.172L519.616 610.239L512.858 612.235L506.071 614.158L499.257 616.007L492.419 617.779L485.56 619.474L478.683 621.09L471.79 622.624L464.884 624.076L457.969 625.444L451.048 626.726L444.123 627.921L437.199 629.027L430.278 630.043L423.364 630.968L416.461 631.8L409.572 632.537L402.7 633.18L395.85 633.726L389.026 634.175L382.231 634.525L375.469 634.776L368.743 634.927L362.059 634.977L355.419 634.925L348.828 634.771L342.29 634.515L335.809 634.157L329.388 633.695L323.032 633.131L316.744 632.464L310.529 631.694L304.389 630.823L298.329 629.849L292.352 628.775L286.462 627.602L280.662 626.329L274.954 624.959L269.342 623.494L263.829 621.934L258.417 620.282L253.109 618.539L247.906 616.707L242.812 614.789L237.828 612.786L232.956 610.701L228.198 608.535L223.555 606.291L219.029 603.972L214.621 601.579L210.331 599.115L206.162 596.583L202.112 593.985L198.184 591.324L194.377 588.603L190.691 585.823L187.127 582.988L183.683 580.101L180.361 577.164L177.158 574.18L174.075 571.152L171.11 568.082L168.263 564.974L165.531 561.83L162.914 558.652L160.41 555.445L158.017 552.21L155.733 548.95L153.557 545.668L151.485 542.366L149.515 539.047L147.646 535.714L145.874 532.368L144.196 529.013L142.611 525.651L141.113 522.284L139.702 518.914L138.371 515.545L137.119 512.177L135.94 508.815L134.83 505.459L133.786 502.113L132.802 498.778L131.873 495.456L130.997 492.15L130.167 488.86L129.379 485.588L128.628 482.337L127.91 479.106L127.22 475.898L126.554 472.712L125.907 469.55L125.276 466.412L124.657 463.298L124.045 460.209L123.438 457.144L122.832 454.103L122.225 451.086L121.613 448.092L120.995 445.12L120.368 442.168L119.731 439.237L119.083 436.325L118.422 433.43L117.748 430.551L117.061 427.687L116.36 424.834L115.646 421.993L114.921 419.161L114.183 416.337L113.436 413.517L112.68 410.702L111.917 407.888L111.148 405.074L110.377 402.259L109.605 399.439L108.836 396.615L108.072 393.783L107.318 390.942L106.577 388.09L105.853 385.227L105.151 382.349L104.477 379.456L103.834 376.547L103.228 373.62L102.665 370.674L102.151 367.709L101.69 364.724L101.289 361.718L100.954 358.691L100.69 355.642L100.503 352.572L100.398 349.482L100.383 346.371L100.461 343.24L100.638 340.091L100.919 336.923L101.31 333.739L101.814 330.54L102.436 327.327L103.18 324.103L104.049 320.869L105.047 317.627L106.176 314.38L107.439 311.13L108.838 307.88L110.374 304.632L112.049 301.389L113.863 298.153L115.816 294.928L117.908 291.716L120.137 288.521L122.501 285.344L124.999 282.188L127.625 279.056L130.378 275.951L133.253 272.875L136.244 269.829L139.348 266.816L142.559 263.838L145.87 260.896L149.276 257.992L152.772 255.126L156.349 252.3L160.002 249.513L163.725 246.768L167.51 244.062L171.351 241.398L175.241 238.773L179.175 236.189L183.145 233.643L187.147 231.134L191.173 228.663L195.219 226.227L199.279 223.824L203.348 221.453L207.422 219.113L211.497 216.8L215.568 214.514L219.634 212.251L223.69 210.011L227.734 207.79L231.765 205.587L235.781 203.399L239.781 201.225L243.764 199.062L247.731 196.909L251.681 194.765L255.616 192.627L259.536 190.494L263.443 188.366L267.338 186.241L271.225 184.119L275.103 181.999L278.976 179.88L282.846 177.763L286.715 175.646L290.585 173.53L294.46 171.416L298.34 169.303L302.229 167.191L306.13 165.082L310.044 162.977L313.974 160.876L317.923 158.78L321.892 156.692L325.883 154.611L329.9 152.54L333.942 150.481L338.013 148.435L342.113 146.404L346.244 144.39L350.407 142.396L354.603 140.423L358.833 138.473L363.098 136.55L367.397 134.654L371.731 132.79L376.1 130.958L380.503 129.161L384.94 127.402L389.411 125.684L393.915 124.007L398.45 122.375L403.015 120.79Z" fill="#8782FF"/>
</g>
<defs>
<filter id="filter0_f_0_3" x="0.382568" y="0.626068" width="970.2" height="734.35" filterUnits="userSpaceOnUse" color-interpolation-filters="sRGB">
<feFlood flood-opacity="0" result="BackgroundImageFix"/>
<feBlend mode="normal" in="SourceGraphic" in2="BackgroundImageFix" result="shape"/>
<feGaussianBlur stdDeviation="50" result="effect1_foregroundBlur_0_3"/>
</filter>
</defs>
</svg>
