<svg width="971" height="735" viewBox="0 0 971 735" fill="none" xmlns="http://www.w3.org/2000/svg">
<g filter="url(#filter0_f_0_3)">
<path fill-rule="evenodd" clip-rule="evenodd" d="M403.348 120.79L407.942 119.254L412.563 117.769L417.21 116.337L421.88 114.959L426.572 113.638L431.283 112.376L436.012 111.173L440.755 110.03L445.51 108.951L450.276 107.934L455.048 106.982L459.825 106.095L464.605 105.274L469.383 104.519L474.159 103.831L478.928 103.21L483.69 102.656L488.44 102.17L493.176 101.751L497.897 101.399L502.599 101.114L507.281 100.894L511.939 100.74L516.573 100.651L521.179 100.626L525.756 100.664L530.302 100.764L534.816 100.924L539.296 101.144L543.74 101.422L548.147 101.757L552.516 102.148L556.847 102.592L561.137 103.088L565.387 103.635L569.595 104.231L573.762 104.873L577.887 105.561L581.97 106.293L586.012 107.065L590.011 107.878L593.969 108.728L597.886 109.615L601.763 110.535L605.601 111.487L609.4 112.47L613.161 113.481L616.886 114.518L620.577 115.579L624.234 116.663L627.859 117.768L631.454 118.892L635.021 120.034L638.561 121.191L642.077 122.363L645.57 123.548L649.043 124.745L652.497 125.952L655.935 127.169L659.358 128.393L662.769 129.626L666.17 130.865L669.562 132.11L672.949 133.361L676.33 134.617L679.709 135.879L683.087 137.146L686.465 138.417L689.845 139.695L693.228 140.978L696.615 142.267L700.006 143.564L703.403 144.869L706.806 146.182L710.214 147.505L713.629 148.84L717.05 150.186L720.477 151.546L723.91 152.92L727.349 154.31L730.794 155.715L734.244 157.139L737.7 158.581L741.161 160.043L744.626 161.526L748.094 163.032L751.565 164.561L755.037 166.115L758.509 167.695L761.98 169.304L765.448 170.941L768.911 172.609L772.367 174.31L775.814 176.044L779.249 177.813L782.67 179.618L786.074 181.462L789.458 183.345L792.818 185.269L796.152 187.236L799.456 189.246L802.726 191.301L805.959 193.402L809.15 195.551L812.297 197.747L815.394 199.993L818.439 202.289L821.428 204.635L824.356 207.032L827.22 209.481L830.017 211.982L832.742 214.535L835.393 217.141L837.968 219.798L840.462 222.507L842.873 225.267L845.199 228.078L847.438 230.94L849.587 233.851L851.644 236.812L853.606 239.821L855.472 242.878L857.24 245.982L858.907 249.132L860.471 252.327L861.932 255.566L863.287 258.847L864.535 262.171L865.675 265.535L866.705 268.939L867.625 272.38L868.433 275.858L869.129 279.372L869.712 282.92L870.181 286.501L870.537 290.112L870.777 293.754L870.904 297.424L870.915 301.121L870.812 304.843L870.594 308.589L870.262 312.358L869.816 316.148L869.256 319.957L868.582 323.785L867.795 327.629L866.896 331.488L865.885 335.361L864.762 339.247L863.528 343.143L862.184 347.049L860.731 350.963L859.169 354.884L857.501 358.81L855.727 362.741L853.85 366.674L851.871 370.61L849.792 374.547L847.615 378.483L845.342 382.418L842.975 386.352L840.515 390.283L837.965 394.21L835.326 398.133L832.601 402.051L829.79 405.964L826.895 409.87L823.919 413.77L820.862 417.663L817.725 421.548L814.51 425.424L811.218 429.292L807.849 433.151L804.406 436.999L800.887 440.838L797.295 444.666L793.629 448.482L789.89 452.286L786.079 456.078L782.197 459.857L778.242 463.621L774.216 467.372L770.12 471.107L765.952 474.827L761.715 478.53L757.408 482.216L753.032 485.885L748.586 489.535L744.073 493.167L739.491 496.779L734.843 500.371L730.128 503.943L725.347 507.493L720.5 511.022L715.589 514.529L710.613 518.013L705.572 521.474L700.468 524.909L695.299 528.319L690.067 531.703L684.772 535.059L679.413 538.387L673.991 541.685L668.507 544.952L662.961 548.187L657.353 551.388L651.683 554.555L645.952 557.685L640.161 560.778L634.31 563.832L628.4 566.845L622.431 569.815L616.405 572.742L610.322 575.623L604.183 578.457L597.99 581.242L591.743 583.977L585.445 586.66L579.095 589.289L572.697 591.862L566.251 594.377L559.759 596.834L553.223 599.23L546.645 601.564L540.026 603.833L533.369 606.036L526.676 608.172L519.949 610.239L513.191 612.235L506.404 614.158L499.59 616.007L492.752 617.779L485.893 619.474L479.016 621.09L472.123 622.624L465.217 624.076L458.302 625.444L451.381 626.726L444.456 627.921L437.532 629.027L430.611 630.043L423.697 630.968L416.794 631.8L409.905 632.537L403.033 633.18L396.183 633.726L389.359 634.175L382.564 634.525L375.802 634.776L369.076 634.927L362.392 634.977L355.752 634.925L349.161 634.771L342.623 634.515L336.142 634.157L329.721 633.695L323.365 633.131L317.077 632.464L310.862 631.694L304.722 630.823L298.662 629.849L292.685 628.775L286.795 627.602L280.995 626.329L275.287 624.959L269.675 623.494L264.162 621.934L258.75 620.282L253.442 618.539L248.239 616.707L243.145 614.789L238.161 612.786L233.289 610.701L228.531 608.535L223.888 606.291L219.362 603.972L214.954 601.579L210.664 599.115L206.495 596.583L202.445 593.985L198.517 591.324L194.71 588.603L191.024 585.823L187.46 582.988L184.016 580.101L180.694 577.164L177.491 574.18L174.408 571.152L171.443 568.082L168.596 564.974L165.864 561.83L163.247 558.652L160.743 555.445L158.35 552.21L156.066 548.95L153.89 545.668L151.818 542.366L149.848 539.047L147.979 535.714L146.207 532.368L144.529 529.013L142.944 525.651L141.446 522.284L140.035 518.914L138.704 515.545L137.452 512.177L136.273 508.815L135.163 505.459L134.119 502.113L133.135 498.778L132.206 495.456L131.33 492.15L130.5 488.86L129.712 485.588L128.961 482.337L128.243 479.106L127.553 475.898L126.887 472.712L126.24 469.55L125.609 466.412L124.99 463.298L124.378 460.209L123.771 457.144L123.165 454.103L122.558 451.086L121.946 448.092L121.328 445.12L120.701 442.168L120.064 439.237L119.416 436.325L118.755 433.43L118.081 430.551L117.394 427.687L116.693 424.834L115.979 421.993L115.254 419.161L114.516 416.337L113.769 413.517L113.013 410.702L112.25 407.888L111.481 405.074L110.71 402.259L109.938 399.439L109.169 396.615L108.405 393.783L107.651 390.942L106.91 388.09L106.186 385.227L105.484 382.349L104.81 379.456L104.167 376.547L103.561 373.62L102.998 370.674L102.484 367.709L102.023 364.724L101.622 361.718L101.287 358.691L101.023 355.642L100.836 352.572L100.731 349.482L100.716 346.371L100.794 343.24L100.971 340.091L101.252 336.923L101.643 333.739L102.147 330.54L102.769 327.327L103.513 324.103L104.382 320.869L105.38 317.627L106.509 314.38L107.772 311.13L109.171 307.88L110.708 304.632L112.382 301.389L114.196 298.153L116.149 294.928L118.241 291.716L120.47 288.521L122.834 285.344L125.332 282.188L127.958 279.056L130.711 275.951L133.586 272.875L136.577 269.829L139.681 266.816L142.892 263.838L146.203 260.896L149.609 257.992L153.105 255.126L156.682 252.3L160.335 249.513L164.058 246.768L167.843 244.062L171.684 241.398L175.574 238.773L179.508 236.189L183.478 233.643L187.48 231.134L191.506 228.663L195.552 226.227L199.612 223.824L203.681 221.453L207.755 219.113L211.83 216.8L215.902 214.514L219.967 212.251L224.023 210.011L228.067 207.79L232.098 205.587L236.114 203.399L240.114 201.225L244.097 199.062L248.064 196.909L252.014 194.765L255.949 192.627L259.869 190.494L263.776 188.366L267.672 186.241L271.558 184.119L275.436 181.999L279.309 179.88L283.179 177.763L287.048 175.646L290.918 173.53L294.793 171.416L298.673 169.303L302.562 167.191L306.463 165.082L310.377 162.977L314.307 160.876L318.256 158.78L322.225 156.692L326.216 154.611L330.233 152.54L334.275 150.481L338.346 148.435L342.446 146.404L346.577 144.39L350.74 142.396L354.936 140.423L359.166 138.473L363.431 136.55L367.73 134.654L372.064 132.79L376.433 130.958L380.836 129.161L385.273 127.402L389.744 125.684L394.248 124.007L398.783 122.375L403.348 120.79Z" fill="#8782FF"/>
</g>
<defs>
<filter id="filter0_f_0_3" x="0.715576" y="0.626068" width="970.2" height="734.35" filterUnits="userSpaceOnUse" color-interpolation-filters="sRGB">
<feFlood flood-opacity="0" result="BackgroundImageFix"/>
<feBlend mode="normal" in="SourceGraphic" in2="BackgroundImageFix" result="shape"/>
<feGaussianBlur stdDeviation="50" result="effect1_foregroundBlur_0_3"/>
</filter>
</defs>
</svg>
