<svg version="1.1" id="Layer_1" xmlns="http://www.w3.org/2000/svg" xmlns:xlink="http://www.w3.org/1999/xlink" x="0px" y="0px"
	 viewBox="0 0 10.592 10.592" enable-background="new 0 0 10.592 10.592" xml:space="preserve">
<g>
	<path d="M4.6,0.166c0.123,0.123,0.184,0.274,0.184,0.456c0,0.181-0.061,0.334-0.184,0.456C4.487,1.192,4.339,1.247,4.158,1.245
		l-2.91,0.003l-0.003,2.91C1.247,4.339,1.192,4.487,1.078,4.6C0.956,4.723,0.804,4.784,0.623,4.784
		c-0.182,0-0.334-0.061-0.456-0.184C0.053,4.486-0.002,4.339,0,4.158l0-3.536C-0.002,0.441,0.053,0.294,0.166,0.18
		C0.289,0.058,0.441-0.002,0.622,0l3.536,0C4.339-0.002,4.486,0.053,4.6,0.166z"/>
	<path d="M7.801,7.546c0,0.09-0.014,0.173-0.042,0.25S7.688,7.941,7.631,8.001c-0.116,0.113-0.268,0.17-0.455,0.17
		S6.839,8.114,6.724,7.999C6.609,7.884,6.551,7.733,6.551,7.546V4.921c0-0.343-0.123-0.638-0.368-0.882
		C5.939,3.794,5.645,3.671,5.301,3.671S4.664,3.794,4.419,4.039C4.174,4.284,4.051,4.578,4.051,4.921v2.625
		c0,0.187-0.058,0.337-0.172,0.453C3.764,8.114,3.613,8.171,3.426,8.171S3.089,8.114,2.974,7.999
		C2.859,7.884,2.801,7.733,2.801,7.546v-4.5c0-0.187,0.058-0.337,0.172-0.453C3.089,2.479,3.24,2.421,3.426,2.421
		c0.163,0,0.298,0.053,0.405,0.16c0.063,0.06,0.113,0.131,0.15,0.215c0.393-0.25,0.833-0.375,1.32-0.375
		c0.69,0,1.279,0.244,1.768,0.732c0.488,0.488,0.732,1.078,0.732,1.768V7.546z"/>
	<path d="M10.592,6.434V9.97c0.002,0.181-0.058,0.334-0.18,0.456c-0.113,0.113-0.261,0.168-0.442,0.166H6.434
		c-0.182,0.002-0.328-0.053-0.442-0.166C5.87,10.303,5.809,10.152,5.809,9.97c0-0.181,0.061-0.333,0.184-0.456
		c0.113-0.113,0.261-0.168,0.442-0.166l2.91-0.004l0.004-2.91C9.345,6.253,9.401,6.105,9.514,5.992
		C9.636,5.87,9.788,5.809,9.97,5.808c0.182,0,0.334,0.061,0.456,0.184C10.539,6.106,10.594,6.253,10.592,6.434z"/>
</g>
</svg>
