<?xml version="1.0" standalone="no"?>
<!DOCTYPE svg PUBLIC "-//W3C//DTD SVG 1.1//EN" "http://www.w3.org/Graphics/SVG/1.1/DTD/svg11.dtd" >
<svg xmlns="http://www.w3.org/2000/svg" xmlns:xlink="http://www.w3.org/1999/xlink" version="1.1">
<metadata>
Created by FontForge 20170731 at Thu Apr  1 14:10:41 2021
 By Aleksey,,,
(C) Copyright SoftUnion Ltd, 1994. Created by N.Vsesvetskii
</metadata>
<defs>
<font id="WienDemiC" horiz-adv-x="970" >
  <font-face 
    font-family="WienDemiC"
    font-weight="600"
    font-stretch="normal"
    units-per-em="2048"
    panose-1="0 0 7 0 0 0 0 0 0 0"
    ascent="1694"
    descent="-354"
    x-height="1149"
    cap-height="1645"
    bbox="-272 -354 1921 2030"
    underline-thickness="102"
    underline-position="-102"
    unicode-range="U+0020-2122"
  />
<missing-glyph horiz-adv-x="1024" 
 />
    <glyph glyph-name=".notdef" horiz-adv-x="1024" 
 />
    <glyph glyph-name=".null" horiz-adv-x="0" 
 />
    <glyph glyph-name="nonmarkingreturn" horiz-adv-x="682" 
 />
    <glyph glyph-name="space" unicode=" " horiz-adv-x="471" 
 />
    <glyph glyph-name="space" unicode="&#xa0;" horiz-adv-x="471" 
 />
    <glyph glyph-name="exclam" unicode="!" horiz-adv-x="409" 
d="M205 229q51 0 87 -36t36 -87t-36 -86.5t-87 -35.5t-87 35.5t-36 86.5q0 52 36 87.5t87 35.5zM102 453v1118q0 43 30 72.5t73 29.5t72.5 -29.5t29.5 -72.5v-1118q0 -43 -29.5 -73t-72.5 -30t-73 30t-30 73z" />
    <glyph glyph-name="quotedbl" unicode="&#x22;" horiz-adv-x="614" 
d="M184 1673q43 0 73 -29.5t30 -72.5v-320q0 -43 -30 -72.5t-73 -29.5t-72.5 29.5t-29.5 72.5v320q0 43 29.5 72.5t72.5 29.5zM430 1673q43 0 72.5 -29.5t29.5 -72.5v-320q0 -43 -29.5 -72.5t-72.5 -29.5t-72.5 29.5t-29.5 72.5v320q0 43 29.5 72.5t72.5 29.5z" />
    <glyph glyph-name="numbersign" unicode="#" horiz-adv-x="1490" 
d="M1061 1094h291q34 0 58 -23t24 -57t-24 -57t-58 -23h-326l-47 -227h293q34 0 58 -23t24 -57t-24 -57t-58 -23h-328l-110 -508q-6 -28 -31.5 -48t-54.5 -20q-35 0 -58.5 16.5t-23.5 39.5q0 17 6 41l106 479h-233l-111 -508q-6 -28 -31.5 -48t-54.5 -20q-35 0 -58.5 16.5
t-23.5 39.5q0 17 6 41l107 479h-285q-34 0 -58 23t-24 57t24 57t58 23h320l49 227h-291q-34 0 -58 23t-24 57t24 57t58 23h326l110 512q6 28 31.5 47.5t54.5 19.5q35 0 58.5 -16t23.5 -39q0 -17 -6 -41l-106 -483h231l111 512q6 28 31.5 47.5t54.5 19.5q35 0 58.5 -16
t23.5 -39q0 -13 -7 -41zM629 934l-49 -227h233l47 227h-231z" />
    <glyph glyph-name="dollar" unicode="$" horiz-adv-x="983" 
d="M578 1479v-525q49 -40 71.5 -59.5t67 -60.5t67 -68.5t54 -70.5t47 -80.5t27.5 -85.5t12 -97q0 -185 -98 -303t-248 -147v-134q0 -38 -26.5 -64t-64.5 -26t-64 26t-26 64v123q-117 6 -184.5 20t-138.5 44q-28 11 -45 34.5t-17 55.5q0 38 25 67t57 29q23 0 47 -8
q135 -55 256 -55v708q-62 53 -105 98t-87.5 108t-67 138t-22.5 160q0 105 77 187t205 106v113q0 38 26 64t64 26t64.5 -26t26.5 -64v-111q112 -15 174 -35q55 -22 55 -84q0 -38 -21.5 -64t-54.5 -26q-17 0 -41 8q-48 11 -112 15zM397 1128v342q-80 -26 -80 -145
q0 -97 80 -197zM578 707v-527q143 61 143 256q0 76 -37 139.5t-106 131.5z" />
    <glyph glyph-name="percent" unicode="%" horiz-adv-x="1353" 
d="M438 -29q-34 0 -58 23.5t-24 58.5q0 13 6 31l443 1501q10 35 34.5 61.5t55.5 26.5q34 0 57 -23.5t23 -58.5q0 -13 -6 -28l-443 -1504q-10 -35 -33.5 -61.5t-54.5 -26.5zM1034 -29q-123 0 -199.5 125.5t-76.5 370.5q0 91 16 159t41.5 108t63.5 64t74 32t81 8q36 0 67 -5.5
t64 -20t58 -41.5t45.5 -66.5t31.5 -100t11 -137.5q0 -244 -77 -370t-200 -126zM1034 115q119 0 119 352q0 78 -8 126t-26.5 69t-36 26.5t-48.5 5.5q-35 0 -52.5 -5t-35.5 -26.5t-24.5 -68.5t-6.5 -127q0 -180 29 -266t90 -86zM317 807q-123 0 -199.5 125.5t-76.5 370.5
q0 91 16 159t41.5 107.5t63.5 63.5t74 32t81 8q44 0 80 -7.5t74.5 -31.5t64 -63.5t42 -107.5t16.5 -160q0 -244 -77 -370t-200 -126zM317 950q119 0 119 353q0 78 -8 126t-26.5 69t-36 26.5t-48.5 5.5q-34 0 -52 -5t-35.5 -26.5t-24 -68.5t-6.5 -127q0 -181 28.5 -267
t89.5 -86z" />
    <glyph glyph-name="ampersand" unicode="&#x26;" horiz-adv-x="931" 
d="M694 176v551h-104q-37 0 -61.5 25.5t-24.5 62.5t24.5 62.5t61.5 25.5h209q40 0 69 -29t29 -69v-707q0 -40 -29 -69t-69 -29h-314q-184 0 -305 148t-121 374q0 158 74 292.5t189 232.5q-72 37 -126.5 117.5t-54.5 162.5q0 127 85.5 222.5t226.5 95.5h241q36 0 61 -26
t25 -63t-24.5 -62.5t-61.5 -25.5h-205q-69 0 -107 -39t-38 -102q0 -70 54 -117t134 -47h299q37 0 62 -25.5t25 -62.5t-25 -62.5t-62 -25.5h-290q-54 -40 -89 -70t-74.5 -74.5t-62.5 -88.5t-38 -105t-15 -131q0 -150 90 -246t205 -96h137z" />
    <glyph glyph-name="quotesingle" unicode="'" horiz-adv-x="368" 
d="M184 1673q51 0 87 -36t36 -87q0 -17 -8 -41l-84 -280q-10 -26 -29 -45t-34 -19q-31 0 -52.5 16.5t-21.5 39.5q0 11 12 57l49 158q-34 14 -56 45t-22 69q0 52 36 87.5t87 35.5z" />
    <glyph glyph-name="parenleft" unicode="(" horiz-adv-x="626" 
d="M299 670q0 -127 2.5 -223t8.5 -188t17 -157t28 -121t41.5 -89t57 -51.5t74.5 -18.5q37 0 61.5 -25.5t24.5 -62.5t-24.5 -62.5t-61.5 -25.5q-69 0 -127 22t-100.5 57.5t-76.5 92t-56.5 114t-39 136t-25 146t-14 155.5t-6.5 152.5t-1 148.5q0 67 1 123.5t6.5 138t14 148.5
t25 146t39 140t56.5 121t76.5 99t100.5 63t127 24q37 0 61.5 -25.5t24.5 -62.5t-24.5 -62.5t-61.5 -25.5q-48 0 -85 -27t-62 -82t-41.5 -124t-25 -167.5t-12 -198t-3.5 -228.5z" />
    <glyph glyph-name="parenright" unicode=")" horiz-adv-x="626" 
d="M328 670q0 129 -3.5 228.5t-12.5 198t-25.5 167.5t-41.5 124t-62 82t-85 27q-37 0 -61.5 25.5t-24.5 62.5t24.5 62.5t61.5 25.5q69 0 127 -24t100.5 -63t77 -99t56.5 -121t39 -140t25.5 -146t13.5 -148.5t6.5 -138t1.5 -123.5q0 -84 -1.5 -148.5t-6.5 -152.5
t-13.5 -155.5t-25 -146t-39.5 -136t-57 -114t-76.5 -92t-100.5 -57.5t-127 -22q-37 0 -61.5 25.5t-24.5 62.5t24.5 62.5t61.5 25.5q42 0 75 18.5t57 51.5t41.5 89t28.5 121t17 157t8.5 188t2.5 223z" />
    <glyph glyph-name="asterisk" unicode="*" horiz-adv-x="798" 
d="M172 1513l162 -100l-10 184q-2 31 20 53.5t55 22.5t55.5 -22.5t20.5 -53.5l-8 -184l160 100q27 17 57 8t45 -36q16 -31 7 -59t-38 -42l-168 -84l166 -81q28 -14 38 -45.5t-7 -57.5q-17 -27 -45.5 -34t-54.5 8l-160 100l8 -182q2 -32 -20 -54t-58 -22q-31 0 -52.5 22.5
t-20.5 53.5l10 182l-162 -100q-26 -16 -54 -10t-46 36q-15 26 -7 58t35 45l166 81l-166 84q-28 13 -36.5 44t6.5 57q17 28 46.5 35.5t55.5 -7.5z" />
    <glyph glyph-name="plus" unicode="+" horiz-adv-x="1019" 
d="M604 1227v-297h297q37 0 61.5 -25.5t24.5 -62.5t-24.5 -62.5t-61.5 -25.5h-297v-297q0 -38 -27 -65t-65 -27t-65 27t-27 65v297h-301q-37 0 -61.5 25.5t-24.5 62.5t24.5 62.5t61.5 25.5h301v297q0 38 27 65t65 27t65 -27t27 -65z" />
    <glyph glyph-name="comma" unicode="," horiz-adv-x="368" 
d="M184 209q51 0 87 -36t36 -87q0 -17 -8 -41l-84 -281q-10 -26 -29 -44.5t-34 -18.5q-31 0 -52.5 16t-21.5 39q0 12 12 58l49 157q-34 14 -56 45.5t-22 69.5q0 52 36 87.5t87 35.5z" />
    <glyph glyph-name="hyphen" unicode="-" horiz-adv-x="565" 
d="M147 846h271q37 0 61.5 -25.5t24.5 -62.5t-24.5 -62.5t-61.5 -25.5h-271q-37 0 -61.5 25.5t-24.5 62.5t24.5 62.5t61.5 25.5z" />
    <glyph glyph-name="hyphen" unicode="&#xad;" horiz-adv-x="565" 
d="M147 846h271q37 0 61.5 -25.5t24.5 -62.5t-24.5 -62.5t-61.5 -25.5h-271q-37 0 -61.5 25.5t-24.5 62.5t24.5 62.5t61.5 25.5z" />
    <glyph glyph-name="period" unicode="." horiz-adv-x="368" 
d="M184 229q51 0 87 -36t36 -87t-36 -86.5t-87 -35.5t-87 35.5t-36 86.5q0 52 36 87.5t87 35.5z" />
    <glyph glyph-name="slash" unicode="/" horiz-adv-x="638" 
d="M92 -29q-34 0 -58 23.5t-24 58.5q0 13 6 31l443 1501q10 35 34.5 61.5t55.5 26.5q34 0 57 -23.5t23 -58.5q0 -13 -6 -28l-443 -1504q-10 -35 -33.5 -61.5t-54.5 -26.5z" />
    <glyph glyph-name="zero" unicode="0" 
d="M483 1673q79 0 141.5 -16t106.5 -43.5t76 -71.5t51 -91t30.5 -112t15 -125.5t3.5 -138.5q0 -119 -3.5 -217.5t-14 -216t-29 -209t-51 -181.5t-76 -149t-107.5 -95t-143 -36q-69 0 -126.5 26.5t-99.5 77.5t-74 114.5t-53 149t-35 169.5t-21.5 187t-10 190t-2.5 190
q0 77 4 137.5t15.5 125t30.5 112t51 91.5t76 71.5t105.5 44t139.5 16.5zM483 1485q-122 0 -165.5 -88.5t-43.5 -321.5q0 -101 1.5 -181.5t5 -169t10.5 -156.5t17.5 -135t26.5 -114.5t37 -84.5t49 -55.5t62 -18.5q45 0 80 32t57.5 96.5t37.5 142.5t22.5 188.5t10.5 215
t3 240.5q0 229 -46 319.5t-165 90.5z" />
    <glyph glyph-name="one" unicode="1" 
d="M512 1386l-221 -202q-19 -19 -55 -19q-38 0 -62 25t-24 61q0 21 10 45.5t24 38.5l342 310q13 12 41.5 20t53.5 8q40 0 68 -30.5t28 -73.5v-1495q0 -43 -30 -73t-73 -30t-72.5 30t-29.5 73v1312z" />
    <glyph glyph-name="two" unicode="2" 
d="M295 176h489q37 0 61.5 -25.5t24.5 -62.5t-24.5 -62.5t-61.5 -25.5h-596q-40 0 -69 29t-29 69v27q0 86 31.5 177t81.5 172.5t110 165t120.5 166t110.5 163t81.5 168.5t31.5 170q0 89 -33.5 134.5t-115.5 45.5q-81 0 -131 -9.5t-125 -41.5q-45 -17 -62 -17q-41 0 -70.5 30
t-29.5 71q0 29 19 55t53 41q56 24 157.5 40.5t178.5 16.5q152 0 262 -101.5t110 -246.5q0 -89 -31.5 -187t-82.5 -186t-112 -177t-122.5 -171t-112.5 -156.5t-82.5 -145.5t-31.5 -126z" />
    <glyph glyph-name="three" unicode="3" 
d="M483 973h-268q-37 0 -61.5 25.5t-24.5 62.5t24.5 62.5t61.5 25.5h219q75 0 127.5 59.5t52.5 137.5q0 67 -54 103t-148 36q-43 0 -95 -11t-81 -26q-30 -12 -46 -12q-38 0 -65 27t-27 65q0 37 19 67.5t45 36.5q55 17 128.5 29t121.5 12q185 0 293 -80.5t108 -249.5
q0 -84 -40 -166.5t-99 -125.5q178 -221 178 -508q0 -73 -11.5 -146.5t-42.5 -152t-77.5 -137.5t-123.5 -97.5t-175 -38.5q-21 0 -39 0.5t-36.5 2.5t-30 3t-31.5 5t-28 5.5l-32 6t-32 6.5q-30 7 -48 36.5t-18 67.5t28 65.5t66 27.5q13 0 45 -13q81 -24 156 -24
q58 0 103.5 36.5t71 94t38 120t12.5 124.5q0 260 -164 438z" />
    <glyph glyph-name="four" unicode="4" 
d="M551 403h-426q-32 0 -55 23t-23 55q0 37 19 84l403 1026q15 34 58.5 58t90.5 24q57 0 97.5 -30.5t40.5 -73.5v-989h106q37 0 61.5 -25.5t24.5 -62.5t-25 -63t-61 -26h-106v-329q0 -43 -30 -73t-73 -30t-72.5 30t-29.5 73v329zM551 580v747l-285 -747h285z" />
    <glyph glyph-name="five" unicode="5" 
d="M231 1645h484q36 0 61 -26t25 -63t-24.5 -62.5t-61.5 -25.5h-398v-344q35 24 75.5 32.5t105.5 8.5q76 0 141 -32.5t110 -86.5t77.5 -124.5t47.5 -146.5t15 -152q0 -109 -29 -221t-82.5 -209.5t-140.5 -159.5t-191 -62q-48 0 -121 12t-128 29q-26 6 -45 37t-19 68
q0 38 27 65t65 27q15 0 45 -12q29 -15 81 -26t95 -11q64 0 119.5 65.5t87 169.5t31.5 217q0 197 -50.5 281t-154.5 84q-66 0 -107 -32t-79 -97q-8 -15 -31 -26t-51 -11q-32 0 -55 25.5t-23 60.5v649q0 40 29 69.5t69 29.5z" />
    <glyph glyph-name="six" unicode="6" 
d="M510 -29q-94 0 -169 41.5t-123.5 111t-80.5 166t-45.5 200.5t-13.5 221q0 101 5 194t18 191.5t33.5 181t53 157t74.5 126t101 82t129 30.5q134 0 278 -35q28 -6 47 -36.5t19 -67.5q0 -34 -24.5 -58t-59.5 -24q-15 0 -45 12q-61 21 -197 21q-54 0 -95.5 -33t-66.5 -90
t-39 -121t-18 -137q81 63 217 63q88 0 158.5 -34t115.5 -89t74.5 -129t42 -149t12.5 -154q0 -115 -25 -226t-72.5 -205t-126.5 -152t-177 -58zM514 160q54 0 93 44.5t57.5 118t26 144t7.5 145.5q0 43 -2 77t-8 80t-19 80t-33.5 65.5t-54 48t-77.5 16.5q-60 0 -119.5 -30.5
t-93.5 -90.5v-246q0 -61 7 -121.5t24 -121t41.5 -106.5t63.5 -74.5t87 -28.5z" />
    <glyph glyph-name="seven" unicode="7" 
d="M651 1468h-465q-37 0 -61.5 25.5t-24.5 62.5t25 63t61 26h570q41 0 70.5 -25.5t29.5 -60.5q0 -31 -27 -123l-419 -1393q-9 -30 -44 -51t-77 -21q-34 0 -57 25.5t-23 62.5q0 20 10 47z" />
    <glyph glyph-name="eight" unicode="8" 
d="M492 -29q-82 0 -151.5 30.5t-118 82t-83 120t-51 145.5t-16.5 157q0 75 29 172.5t88.5 198.5t134.5 159q-82 57 -137.5 152.5t-55.5 171.5q0 144 102.5 228.5t258.5 84.5q152 0 257 -85t105 -228q0 -73 -58 -169.5t-139 -154.5q113 -86 183.5 -248t70.5 -282
q0 -80 -17 -157t-52 -145.5t-84 -120t-117.5 -82t-148.5 -30.5zM492 160q215 0 215 346q0 146 -52.5 243.5t-162.5 184.5q-74 -63 -117.5 -117.5t-71 -133t-27.5 -177.5q0 -165 53.5 -255.5t162.5 -90.5zM492 1485q-84 0 -124 -31t-40 -94q0 -20 14.5 -57t54.5 -88t95 -87
q83 52 123 117.5t40 114.5q0 61 -43 93t-120 32z" />
    <glyph glyph-name="nine" unicode="9" 
d="M461 1673q94 0 169 -41.5t124 -111t81.5 -165.5t46 -200.5t13.5 -220.5q0 -119 -8.5 -228t-27.5 -220.5t-53.5 -202t-82 -162t-117 -111t-155.5 -39.5q-48 0 -121.5 12t-128.5 29q-26 6 -45 37t-19 68q0 38 27 65t65 27q15 0 45 -12q30 -15 81.5 -26t95.5 -11q53 0 95 38
t67 95.5t41 134t22 145.5t6 138q-99 -84 -219 -84q-88 0 -158 30t-115 79.5t-74.5 117t-42 138.5t-12.5 149q0 99 25 192t72.5 170t126 123.5t176.5 46.5zM457 1485q-183 0 -183 -336q0 -36 1 -63.5t5.5 -64t12 -63.5t22 -55.5t34.5 -46.5t50 -29.5t68 -11.5q65 0 124 43
t91 103q-8 209 -25 295q-46 228 -200 229z" />
    <glyph glyph-name="colon" unicode=":" horiz-adv-x="368" 
d="M184 229q51 0 87 -36t36 -87t-36 -86.5t-87 -35.5t-87 35.5t-36 86.5q0 52 36 87.5t87 35.5zM184 1165q51 0 87 -36t36 -87t-36 -86.5t-87 -35.5t-87 35.5t-36 86.5q0 52 36 87.5t87 35.5z" />
    <glyph glyph-name="semicolon" unicode=";" horiz-adv-x="368" 
d="M184 209q51 0 87 -36t36 -87q0 -17 -8 -41l-84 -281q-10 -26 -29 -44.5t-34 -18.5q-31 0 -52.5 16t-21.5 39q0 12 12 58l49 157q-34 14 -56 45.5t-22 69.5q0 52 36 87.5t87 35.5zM184 1165q51 0 87 -36t36 -87t-36 -86.5t-87 -35.5t-87 35.5t-36 86.5q0 52 36 87.5
t87 35.5z" />
    <glyph glyph-name="less" unicode="&#x3c;" horiz-adv-x="1019" 
d="M330 821l577 -260q32 -15 45 -49t-2 -66q-17 -35 -50.5 -47t-65.5 2l-742 334q-21 9 -36 34t-15 52t15 52t36 34l742 336q32 14 65.5 2.5t48.5 -43.5q15 -34 3 -69t-44 -50z" />
    <glyph glyph-name="equal" unicode="=" horiz-adv-x="1019" 
d="M127 846h766q37 0 61.5 -25.5t24.5 -62.5t-24.5 -62.5t-61.5 -25.5h-766q-37 0 -61.5 25.5t-24.5 62.5t24.5 62.5t61.5 25.5zM127 1149h766q37 0 61.5 -25.5t24.5 -62.5t-24.5 -62.5t-61.5 -25.5h-766q-37 0 -61.5 25.5t-24.5 62.5t24.5 62.5t61.5 25.5z" />
    <glyph glyph-name="greater" unicode="&#x3e;" horiz-adv-x="1019" 
d="M690 821l-577 262q-32 15 -44 50t3 69q15 32 48.5 43.5t65.5 -2.5l742 -336q21 -9 36 -34t15 -52t-15 -52t-36 -34l-742 -334q-32 -14 -65.5 -2t-50.5 47q-15 32 -2 66t45 49z" />
    <glyph glyph-name="question" unicode="?" horiz-adv-x="870" 
d="M362 229q51 0 87 -36t36 -87t-36 -86.5t-87 -35.5t-86.5 35.5t-35.5 86.5q0 52 35.5 87.5t86.5 35.5zM436 1673q150 0 257.5 -112.5t107.5 -266.5q0 -83 -18.5 -151.5t-48.5 -117.5t-66 -93t-72 -89t-66 -94.5t-48.5 -120.5t-18.5 -157v-43q0 -43 -30 -72.5t-73 -29.5
t-72.5 29.5t-29.5 72.5v43q0 96 18.5 178t48.5 140t66 108.5t72 94.5t66 86.5t48.5 95.5t18.5 112q0 89 -45.5 144t-114.5 55q-209 0 -284 -41q-30 -12 -46 -12q-38 0 -65 27t-27 65q0 37 19 67.5t45 36.5q60 19 164.5 32t193.5 13z" />
    <glyph glyph-name="at" unicode="@" horiz-adv-x="1404" 
d="M872 518h107q23 0 48.5 8t59.5 36.5t60 74.5t44.5 131t18.5 197q0 117 -37.5 218.5t-100.5 171.5t-147 110t-175 40q-160 0 -286.5 -94t-195.5 -256t-69 -360q0 -142 46.5 -265t122.5 -204t171 -127.5t194 -46.5q239 0 371 163q11 15 38.5 27t53.5 12t44 -17t15 -40
q-4 -36 -18 -53q-114 -151 -238.5 -205.5t-304.5 -54.5q-124 0 -244 62t-212.5 168t-149.5 259t-57 322q0 165 39.5 307.5t108 246t160 177.5t196 110.5t215.5 36.5q122 0 235 -49t200.5 -135.5t140 -217t52.5 -282.5t-35.5 -277.5t-94.5 -204.5t-132 -122t-151 -43h-447
q-94 0 -156.5 71.5t-62.5 180.5q0 99 43 207t115 200.5t159 168t181.5 118.5t175.5 43q28 0 45.5 -14.5t17.5 -36.5q0 -2 -1 -6t-1 -6zM700 518l136 606q-90 -43 -173.5 -130.5t-135.5 -193.5t-52 -196q0 -47 22.5 -66.5t67.5 -19.5h135z" />
    <glyph glyph-name="A" unicode="A" 
d="M745 43l-151 930h-217l-150 -930q-5 -28 -32.5 -50t-59.5 -22q-44 0 -75 28t-31 67l4 32l241 1430q8 47 51 82t95 35h133q52 0 94.5 -34.5t50.5 -82.5l242 -1430q1 -6 2 -14.5t1.5 -12.5t0.5 -5q0 -39 -31 -67t-75 -28q-32 0 -60 22t-33 50zM516 1468h-61l-54 -319h168z
" />
    <glyph glyph-name="B" unicode="B" 
d="M82 102v1440q0 43 29.5 73t72.5 30h342q141 0 227.5 -95.5t86.5 -222.5q0 -82 -55.5 -162t-127.5 -118q118 -98 195.5 -232.5t77.5 -292.5q0 -225 -125.5 -373.5t-310.5 -148.5h-310q-43 0 -72.5 29.5t-29.5 72.5zM287 1468v-319h159q78 0 133.5 53t55.5 125
q0 63 -38.5 102t-107.5 39h-202zM287 973v-797h135q115 0 205 96t90 246q0 51 -8 96t-19.5 79.5t-34.5 69.5t-42 58.5t-53 53.5t-57.5 48.5t-64.5 49.5h-151z" />
    <glyph glyph-name="C" unicode="C" horiz-adv-x="847" 
d="M274 1079q0 -98 19.5 -218t58 -240t88.5 -220t118.5 -162.5t141.5 -62.5q37 0 64 -29.5t27 -70.5q0 -43 -27.5 -74t-65.5 -31q-85 0 -164 41.5t-141.5 112t-117 163.5t-93 196.5t-66.5 210t-41.5 204.5t-13.5 180q0 86 12 164.5t44.5 159t83 138.5t133.5 95t190 37
q59 0 226 -31q32 -7 54.5 -36.5t22.5 -63.5t-21 -58t-50 -24q-3 0 -39 6q-97 19 -193 19q-64 0 -110.5 -24t-73 -60.5t-42 -93.5t-20 -108.5t-4.5 -119.5z" />
    <glyph glyph-name="D" unicode="D" horiz-adv-x="972" 
d="M82 102v1489q0 34 29.5 58t72.5 24q38 0 103 -28q193 -93 337.5 -263.5t221 -393t76.5 -468.5q0 -137 -69.5 -257t-188.5 -191.5t-256 -71.5h-224q-43 0 -72.5 29.5t-29.5 72.5zM287 1419v-1243h98q133 0 228.5 94.5t95.5 247.5q0 137 -27 273t-78 258.5t-133 220.5
t-184 149z" />
    <glyph glyph-name="E" unicode="E" horiz-adv-x="931" 
d="M287 973v-797h399q37 0 61.5 -25.5t24.5 -62.5t-24.5 -62.5t-61.5 -25.5h-502q-43 0 -72.5 29.5t-29.5 72.5v1440q0 43 29.5 73t72.5 30h502q36 0 61 -26t25 -63t-24.5 -62.5t-61.5 -25.5h-399v-319h559q37 0 61.5 -25.5t24.5 -62.5t-24.5 -62.5t-61.5 -25.5h-559z" />
    <glyph glyph-name="F" unicode="F" horiz-adv-x="931" 
d="M184 1645h510q36 0 61 -26t25 -63t-24.5 -62.5t-61.5 -25.5h-407v-319h538q37 0 61.5 -25.5t24.5 -62.5t-24.5 -62.5t-61.5 -25.5h-538v-899q0 -43 -30 -73t-73 -30t-72.5 30t-29.5 73v1468q0 43 29.5 73t72.5 30z" />
    <glyph glyph-name="G" unicode="G" horiz-adv-x="958" 
d="M694 973h-180q-37 0 -61.5 25.5t-24.5 62.5t24.5 62.5t61.5 25.5h279q44 0 75 -29.5t31 -72.5v-967q0 -44 -34 -76.5t-79 -32.5q-19 0 -129 56q-137 71 -253 197.5t-189 272t-113.5 297.5t-40.5 285q0 86 12 164.5t44.5 159t83 138.5t133.5 95t190 37q109 0 221 -28
q31 -8 53.5 -39t22.5 -68q0 -31 -28 -53.5t-68 -22.5q-19 0 -51 8q-47 15 -150 15q-49 0 -87.5 -12.5t-64 -32.5t-44.5 -52.5t-29 -64.5t-16 -77t-7.5 -81.5t-1.5 -85.5q0 -230 113.5 -459t306.5 -384v737z" />
    <glyph glyph-name="H" unicode="H" horiz-adv-x="1017" 
d="M82 74v1497q0 43 29.5 72.5t72.5 29.5t73 -29.5t30 -72.5v-422h428v422q0 43 29.5 72.5t72.5 29.5t73 -29.5t30 -72.5v-1497q0 -43 -30 -73t-73 -30t-72.5 30t-29.5 73v899h-428v-899q0 -43 -30 -73t-73 -30t-72.5 30t-29.5 73z" />
    <glyph glyph-name="I" unicode="I" horiz-adv-x="366" 
d="M82 74v1497q0 43 29.5 72.5t72.5 29.5t73 -29.5t30 -72.5v-1497q0 -43 -30 -73t-73 -30t-72.5 30t-29.5 73z" />
    <glyph glyph-name="J" unicode="J" horiz-adv-x="366" 
d="M82 70v1501q0 43 29.5 72.5t72.5 29.5t73 -29.5t30 -72.5v-1553q0 -156 -129.5 -264t-343.5 -108q-37 0 -61.5 25.5t-24.5 62.5t24.5 62.5t61.5 25.5q129 0 198.5 70t69.5 178z" />
    <glyph glyph-name="K" unicode="K" horiz-adv-x="925" 
d="M82 74v1497q0 43 29.5 72.5t72.5 29.5t73 -29.5t30 -72.5v-422h78q77 0 130 56.5t76 166.5l50 230q5 28 32.5 49.5t59.5 21.5q44 0 75 -28t31 -66q0 -1 -4 -33l-35 -170q-21 -103 -49 -169.5t-88 -116.5q131 -112 162 -365l72 -627q1 -6 2 -14.5t1.5 -12.5t0.5 -5
q0 -38 -31.5 -66.5t-75.5 -28.5q-32 0 -59.5 22t-32.5 50l-74 606q-17 156 -45.5 216t-105.5 108h-170v-899q0 -43 -30 -73t-73 -30t-72.5 30t-29.5 73z" />
    <glyph glyph-name="L" unicode="L" horiz-adv-x="813" 
d="M287 176h432q37 0 61.5 -25.5t24.5 -62.5t-24.5 -62.5t-61.5 -25.5h-535q-43 0 -72.5 29.5t-29.5 72.5v1469q0 43 29.5 72.5t72.5 29.5t73 -29.5t30 -72.5v-1395z" />
    <glyph glyph-name="M" unicode="M" horiz-adv-x="1384" 
d="M29 98l155 1458q6 47 42 82t79 35t85 -20.5t63 -50.5l241 -363l236 363q21 30 62.5 50.5t84.5 20.5t79 -35t42 -82l156 -1458q1 -6 2 -14.5t1.5 -12.5t0.5 -5q0 -38 -31.5 -66.5t-75.5 -28.5q-32 0 -59.5 22t-32.5 50l-139 1374l-246 -356q-12 -18 -35 -31.5t-43 -13.5
q-51 0 -80 43l-256 358l-137 -1374q-5 -28 -32.5 -50t-59.5 -22q-44 0 -75 28t-31 67z" />
    <glyph glyph-name="N" unicode="N" horiz-adv-x="1040" 
d="M752 758l-465 588v-1272q0 -43 -30 -73t-73 -30t-72.5 30t-29.5 73v1509q0 37 29 63.5t69 26.5q29 0 65 -18.5t56 -44.5l451 -559v520q0 43 29.5 72.5t72.5 29.5t72.5 -29.5t29.5 -72.5v-1497q0 -43 -29.5 -73t-72.5 -30t-72.5 30t-29.5 73v684z" />
    <glyph glyph-name="O" unicode="O" horiz-adv-x="1048" 
d="M528 -29q-69 0 -127 21.5t-102 58t-79.5 93t-60 118t-42.5 142t-28.5 156.5t-17 169t-8.5 172t-2 174q0 73 5 134t18.5 124t35.5 112t58 93t84 73t115 45.5t149 16.5q110 0 192.5 -32t133 -85t81.5 -132t42.5 -162.5t11.5 -186.5q0 -96 -1.5 -173t-7.5 -171.5t-15.5 -169
t-27 -156t-41.5 -142.5t-59 -118.5t-78 -94t-101.5 -58t-127.5 -21.5zM528 160q42 0 76 17.5t59 54.5t43.5 82t30.5 113t19.5 133t11.5 157.5t5 171t1 186.5q0 410 -248 410q-71 0 -120.5 -29.5t-78 -85.5t-41 -128t-12.5 -167q0 -107 1.5 -186.5t5.5 -170.5t12 -157.5
t20.5 -133.5t31.5 -112.5t44.5 -82.5t60.5 -54.5t78 -17.5z" />
    <glyph glyph-name="P" unicode="P" horiz-adv-x="878" 
d="M82 74v1468q0 43 29.5 73t72.5 30h299q145 0 251 -114t106 -271q0 -168 -73.5 -315.5t-197 -251t-282.5 -163.5v-456q0 -43 -30 -73t-73 -30t-72.5 30t-29.5 73zM287 1468v-723q155 71 247.5 200.5t92.5 305.5q0 93 -52.5 155t-128.5 62h-159z" />
    <glyph glyph-name="Q" unicode="Q" horiz-adv-x="1062" 
d="M528 158q45 0 64 24q-7 4 -29 13q-33 15 -33 57q0 36 24.5 62t61.5 26q44 0 95 -31q24 61 37.5 136.5t19 198.5t6 187.5t0.5 239.5q0 414 -248 414q-70 0 -120 -30t-78.5 -87t-41 -129.5t-12.5 -167.5q0 -107 1.5 -187t5.5 -171t12 -157t20.5 -133t31.5 -112t44.5 -81.5
t60.5 -54t78 -17.5zM528 -29q-88 0 -158.5 35t-118.5 92t-83.5 145t-55.5 178t-32 208t-15.5 218t-3.5 224q0 73 5 134t18.5 124.5t35.5 113t58 94t84 73.5t115 46t149 17q110 0 192.5 -32.5t133 -86t81.5 -133t42.5 -163.5t11.5 -187q0 -284 -24 -502t-93 -364
q186 -146 291 -377q4 -9 10.5 -33.5t6.5 -42.5q0 -45 -30 -75.5t-77 -30.5q-23 0 -48.5 22t-35.5 53q-79 196 -229 328q-94 -78 -230 -78z" />
    <glyph glyph-name="R" unicode="R" horiz-adv-x="921" 
d="M82 74v1468q0 43 29.5 73t72.5 30h322q142 0 246 -90t104 -220q0 -75 -50 -166t-132 -129q52 -56 85.5 -125t45.5 -190l65 -627q1 -6 2 -14.5t1.5 -12.5t0.5 -5q0 -39 -31 -67t-75 -28q-32 0 -59.5 22t-32.5 50l-68 629q-9 93 -46 177t-91 124h-184v-899q0 -43 -30 -73
t-73 -30t-72.5 30t-29.5 73zM287 1468v-319h164q87 0 139.5 56.5t52.5 131.5q0 58 -42.5 94.5t-117.5 36.5h-196z" />
    <glyph glyph-name="S" unicode="S" horiz-adv-x="935" 
d="M463 -29q-244 0 -391 56q-29 10 -46.5 38.5t-17.5 65.5q0 38 27 65t65 27q15 0 45 -12q179 -51 301 -51q107 0 172.5 65.5t65.5 210.5q0 69 -33 132.5t-85.5 115.5t-116.5 104.5t-128 111.5t-116.5 124t-85.5 154.5t-33 191.5q0 126 106 214.5t273 88.5q95 0 221 -37
q32 -7 55 -36.5t23 -63.5t-21.5 -58t-50.5 -24q-3 0 -39 6q-113 25 -194 25q-96 0 -132 -39.5t-36 -120.5q0 -64 33.5 -126t87 -114.5t118 -106t129 -111.5t118 -120.5t87 -144t33.5 -170.5q0 -108 -36 -197t-96.5 -145.5t-138.5 -87.5t-163 -31z" />
    <glyph glyph-name="T" unicode="T" horiz-adv-x="892" 
d="M102 1645h689q36 0 61 -26t25 -63t-24.5 -62.5t-61.5 -25.5h-242v-1394q0 -43 -30 -73t-73 -30t-72.5 30t-29.5 73v1394h-242q-37 0 -61.5 25.5t-24.5 62.5t25 63t61 26z" />
    <glyph glyph-name="U" unicode="U" horiz-adv-x="966" 
d="M682 252v1319q0 43 29.5 72.5t72.5 29.5t73 -29.5t30 -72.5v-1518q0 -34 -30 -58t-73 -24q-35 0 -102 29q-141 71 -259 196.5t-196.5 277.5t-122 324t-43.5 341q0 225 43 440q6 38 41 66t78 28q38 0 63 -20.5t25 -50.5q0 -7 -5 -30t-5 -24q-27 -174 -27 -409
q0 -279 110.5 -514.5t297.5 -372.5z" />
    <glyph glyph-name="V" unicode="V" 
d="M223 1602l232 -1426h61l225 1426q5 28 33 49.5t60 21.5q44 0 75 -28t31 -66q0 -1 -4 -33l-242 -1429q-8 -48 -50.5 -82.5t-94.5 -34.5h-133q-52 0 -95 35t-51 82l-241 1429q-4 32 -4 33q0 38 31 66t75 28q32 0 59.5 -21.5t32.5 -49.5z" />
    <glyph glyph-name="W" unicode="W" horiz-adv-x="1384" 
d="M1356 1546l-156 -1458q-6 -47 -42 -82t-79 -35t-84.5 21t-62.5 51l-242 363l-235 -363q-21 -30 -63 -51t-85 -21t-79 35t-42 82l-155 1458q-4 32 -4 33q0 38 31 66t75 28q32 0 59.5 -21.5t32.5 -49.5l140 -1375l245 357q12 17 35 30t43 15q20 3 43 -9.5t37 -33.5
l256 -359l137 1375q5 28 32.5 49.5t59.5 21.5q44 0 75.5 -28t31.5 -66q0 -1 -4 -33z" />
    <glyph glyph-name="X" unicode="X" horiz-adv-x="878" 
d="M209 1616l219 -516l211 516q9 24 34.5 40.5t53.5 16.5q40 0 67 -27t27 -67q0 -13 -6 -31l-270 -659l307 -789q6 -21 6 -32q0 -40 -28 -68.5t-68 -28.5q-28 0 -54.5 17.5t-35.5 42.5l-244 612l-219 -612q-9 -25 -35.5 -42.5t-54.5 -17.5q-40 0 -68 28.5t-28 68.5
q0 11 6 32l274 789l-270 659q-6 18 -6 31q0 40 27 67t67 27q28 0 53.5 -16.5t34.5 -40.5z" />
    <glyph glyph-name="Y" unicode="Y" horiz-adv-x="929" 
d="M516 1161l184 441q12 32 46.5 51.5t78.5 19.5q32 0 58 -25t26 -59q0 -11 -8 -39l-239 -551q-117 -266 -170.5 -470t-53.5 -455q0 -43 -29.5 -73t-72.5 -30t-73 30t-30 73q0 128 9 233t21.5 180t42 167.5t52.5 151.5t72 177q-57 37 -93 64t-83 74t-80 99.5t-68.5 133
t-64.5 182.5q-4 20 -4 49q0 36 28.5 62t67.5 26q42 0 78 -25t43 -63q22 -102 58 -176.5t80.5 -126t123.5 -121.5z" />
    <glyph glyph-name="Z" unicode="Z" horiz-adv-x="919" 
d="M272 1645h459q41 0 70.5 -31t29.5 -74q0 -74 -32.5 -156.5t-84 -161.5t-114 -163.5t-124.5 -177.5t-113.5 -189t-84 -211.5t-32.5 -232.5v-72h563q37 0 61.5 -25.5t24.5 -62.5t-24.5 -62.5t-61.5 -25.5h-666q-43 0 -72.5 29.5t-29.5 72.5v138q0 110 31.5 226.5t82 217
t111.5 198.5t122.5 183.5t112 158.5t82 137t31.5 107h-342q-37 0 -61.5 25.5t-24.5 62.5t25 63t61 26z" />
    <glyph glyph-name="bracketleft" unicode="[" horiz-adv-x="591" 
d="M305 1468v-1630h168q37 0 61.5 -25.5t24.5 -62.5t-24.5 -62.5t-61.5 -25.5h-268q-43 0 -74 25.5t-31 62.5v1790q0 40 31.5 72.5t73.5 32.5h268q36 0 61 -26t25 -63t-24.5 -62.5t-61.5 -25.5h-168z" />
    <glyph glyph-name="backslash" unicode="\" horiz-adv-x="638" 
d="M547 -29q-31 0 -54.5 26.5t-33.5 61.5l-443 1504q-6 15 -6 28q0 35 23 58.5t57 23.5q31 0 55.5 -26.5t34.5 -61.5l443 -1501q6 -18 6 -31q0 -35 -24 -58.5t-58 -23.5z" />
    <glyph glyph-name="bracketright" unicode="]" horiz-adv-x="591" 
d="M367 -338h-269q-37 0 -61.5 25.5t-24.5 62.5t24.5 62.5t61.5 25.5h168v1630h-168q-37 0 -61.5 25.5t-24.5 62.5t25 63t61 26h269q43 0 73.5 -26t30.5 -63v-1789q0 -41 -31 -73t-73 -32z" />
    <glyph glyph-name="asciicircum" unicode="^" horiz-adv-x="976" 
d="M483 909l-282 -522q-15 -32 -49 -45t-66 2q-34 17 -46.5 51t1.5 66l356 653q9 21 34 36t52 15t52 -15t34 -36l361 -655q14 -32 2.5 -66t-43.5 -49q-34 -14 -67.5 -2t-51.5 43z" />
    <glyph glyph-name="underscore" unicode="_" horiz-adv-x="1179" 
d="M86 -162h1008q37 0 61.5 -25.5t24.5 -62.5t-24.5 -62.5t-61.5 -25.5h-1008q-37 0 -61.5 25.5t-24.5 62.5t24.5 62.5t61.5 25.5z" />
    <glyph glyph-name="grave" unicode="`" horiz-adv-x="368" 
d="M217 1673q31 0 52.5 -16t21.5 -39q0 -17 -12 -57l-50 -158q34 -14 56 -45.5t22 -69.5q0 -52 -36 -87.5t-87 -35.5t-87 36t-36 87q0 14 9 41l84 281q7 25 27 44t36 19z" />
    <glyph glyph-name="a" unicode="a" horiz-adv-x="862" 
d="M690 0h-297q-139 0 -240.5 123.5t-101.5 298.5q0 111 36.5 223t100.5 204t144 164t174 112t184 40q37 0 63.5 -26.5t26.5 -63.5v-985q0 -37 -26.5 -63.5t-63.5 -26.5zM588 176v787q-131 -62 -231.5 -225t-100.5 -316q0 -120 45.5 -183t120.5 -63h166z" />
    <glyph glyph-name="b" unicode="b" horiz-adv-x="862" 
d="M82 90v1485q0 40 29 69t69 29q38 0 66 -29t28 -69v-410q137 -35 260.5 -144t201 -268t77.5 -325q0 -71 -25 -138t-67.5 -118.5t-95.5 -91t-110.5 -60t-111.5 -20.5h-231q-37 0 -63.5 26.5t-26.5 63.5zM274 969v-793h109q52 0 102 27t86.5 86.5t36.5 138.5
q0 154 -101 315.5t-233 225.5z" />
    <glyph glyph-name="c" unicode="c" horiz-adv-x="696" 
d="M246 668q0 -136 33 -251t90.5 -182t124.5 -67q37 0 63.5 -28t26.5 -66q0 -37 -26.5 -63.5t-63.5 -26.5q-123 0 -227.5 91t-165 248.5t-60.5 342.5q0 499 379 499q69 0 194 -32q28 -7 46 -31t18 -51q0 -41 -30.5 -65.5t-67.5 -16.5q-90 20 -177 20q-50 0 -83 -26
t-53.5 -99t-20.5 -196z" />
    <glyph glyph-name="d" unicode="d" horiz-adv-x="862" 
d="M682 0h-223q-74 0 -147.5 33.5t-131 89.5t-93.5 136.5t-36 168.5q0 125 45 245t120 215t171.5 166.5t200.5 110.5v410q0 40 29 69t69 29q38 0 66 -29t28 -69v-1477q0 -40 -29 -69t-69 -29zM588 176v795q-139 -75 -235.5 -232.5t-96.5 -310.5q0 -117 70 -184.5t153 -67.5
h109z" />
    <glyph glyph-name="e" unicode="e" horiz-adv-x="788" 
d="M655 670h-411q0 -110 17 -198.5t53.5 -158t99 -107.5t147.5 -38q37 0 63.5 -28t26.5 -66q0 -37 -26.5 -63.5t-63.5 -26.5q-117 0 -209 44t-147.5 112.5t-91 161.5t-49 181.5t-13.5 182.5q0 144 38.5 255t120 177.5t196.5 66.5q156 0 252 -113.5t96 -283.5
q0 -40 -29.5 -69t-69.5 -29zM406 989q-63 0 -110.5 -41.5t-51.5 -101.5h317q-4 60 -49.5 101.5t-105.5 41.5z" />
    <glyph glyph-name="f" unicode="f" horiz-adv-x="651" 
d="M274 973v-891q0 -40 -29 -69t-69 -29q-38 0 -66 29t-28 69v1294q0 120 82 208.5t192 88.5q75 0 158 -28q29 -9 46.5 -32t17.5 -50q0 -41 -31 -67t-68 -15q-53 16 -82 16q-55 0 -89 -32.5t-34 -88.5v-227h289q37 0 62.5 -25.5t25.5 -62.5t-25.5 -62.5t-62.5 -25.5h-289z
" />
    <glyph glyph-name="g" unicode="g" horiz-adv-x="862" 
d="M780 1075v-1095q0 -141 -118 -237.5t-318 -96.5q-37 0 -62.5 25.5t-25.5 62.5t25.5 62.5t62.5 25.5q119 0 182.5 51.5t61.5 126.5h-195q-140 0 -241 120.5t-101 295.5q0 138 58.5 277t149.5 241.5t206.5 166.5t224.5 64q37 0 63.5 -26.5t26.5 -63.5zM588 176v780
q-131 -63 -231.5 -225t-100.5 -315q0 -121 45 -180.5t121 -59.5h166z" />
    <glyph glyph-name="h" unicode="h" horiz-adv-x="831" 
d="M274 971v-889q0 -40 -29 -69t-69 -29q-38 0 -66 29t-28 69v1493q0 40 29 69t69 29q38 0 66 -29t28 -69v-410q50 -8 94 -18t96 -27.5t94 -39.5t82.5 -55.5t68 -74t44.5 -95.5t17 -120v-653q0 -40 -29 -69t-69 -29q-38 0 -66 29t-28 69v627q0 61 -16 105.5t-41 71
t-67.5 44.5t-81.5 26t-98 15z" />
    <glyph glyph-name="i" unicode="i" horiz-adv-x="356" 
d="M178 1673q47 0 82 -35t35 -82t-35 -81.5t-82 -34.5t-82 34.5t-35 81.5t35 82t82 35zM82 82v985q0 40 29 69t69 29q38 0 66 -29t28 -69v-985q0 -40 -29 -69t-69 -29q-38 0 -66 29t-28 69z" />
    <glyph glyph-name="j" unicode="j" horiz-adv-x="354" 
d="M178 1673q47 0 82 -35t35 -82t-35 -81.5t-82 -34.5t-82 34.5t-35 81.5t35 82t82 35zM80 -53v1120q0 40 29 69t69 29q38 0 66 -29t28 -69v-1120q0 -119 -82 -210t-192 -91q-66 0 -160 32q-30 10 -46.5 32.5t-16.5 49.5q0 40 31.5 65.5t66.5 16.5q70 -20 84 -20q55 0 89 34
t34 91z" />
    <glyph glyph-name="k" unicode="k" horiz-adv-x="790" 
d="M82 82v1493q0 40 29 69t69 29q38 0 66 -29t28 -69v-729h39q41 0 73.5 20t57.5 78l68 156q12 28 39 46.5t55 18.5q38 0 66 -23t28 -55q0 -18 -6 -30l-55 -131q-51 -119 -115 -174q17 -21 31 -51t21 -52t19.5 -64t18.5 -61l138 -424q4 -16 4 -26q0 -37 -28.5 -63.5
t-68.5 -26.5q-28 0 -53.5 18t-34.5 47l-141 443q-5 16 -15 48.5t-14.5 44.5t-12 31.5t-14.5 31.5t-16 22h-84v-588q0 -40 -29 -69t-69 -29q-38 0 -66 29t-28 69z" />
    <glyph glyph-name="l" unicode="l" horiz-adv-x="356" 
d="M82 70v1505q0 40 29 69t69 29q38 0 66 -29t28 -69v-1505q0 -40 -29 -69.5t-69 -29.5q-38 0 -66 29.5t-28 69.5z" />
    <glyph glyph-name="m" unicode="m" horiz-adv-x="1277" 
d="M82 82v977q0 37 26.5 63.5t63.5 26.5h485q156 0 284.5 -55t202 -152t73.5 -215v-645q0 -40 -29.5 -69t-69.5 -29q-38 0 -66 29t-28 69v616q0 110 -80 188t-199 87v-891q0 -40 -29 -69t-69 -29q-38 0 -66 29t-28 69v891h-279v-891q0 -40 -29 -69t-69 -29q-38 0 -66 29
t-28 69z" />
    <glyph glyph-name="n" unicode="n" horiz-adv-x="831" 
d="M82 82v977q0 37 26.5 63.5t63.5 26.5h78q70 0 140 -14.5t139 -48t122 -82t86 -122.5t33 -163v-637q0 -40 -29 -69t-69 -29q-38 0 -66 29t-28 69v614q0 102 -81.5 180t-222.5 85v-879q0 -40 -29 -69t-69 -29q-38 0 -66 29t-28 69z" />
    <glyph glyph-name="o" unicode="o" horiz-adv-x="884" 
d="M442 -16q-86 0 -151 32t-108.5 90t-71 147.5t-39 196.5t-11.5 244q0 98 20.5 180t64 148.5t119 104.5t177.5 38q104 0 180 -38t118.5 -105.5t62.5 -149t20 -180.5q0 -152 -19.5 -274.5t-62 -222.5t-118.5 -155.5t-181 -55.5zM442 160q55 0 90.5 34t54 107.5t25 163
t6.5 227.5q0 153 -39 225t-137 72q-97 0 -136.5 -72.5t-39.5 -224.5q0 -91 2.5 -157.5t9.5 -130t19.5 -106t31.5 -75t47 -48t66 -15.5z" />
    <glyph glyph-name="p" unicode="p" horiz-adv-x="862" 
d="M82 -256v1331q0 37 26.5 63.5t63.5 26.5q115 0 233 -69t207 -175.5t145 -242t56 -262.5q0 -86 -38.5 -165.5t-99 -133t-132.5 -85.5t-140 -32h-129v-256q0 -40 -29 -69t-69 -29q-38 0 -66 29t-28 69zM608 416q0 153 -101.5 315.5t-232.5 224.5v-780h109q38 0 76.5 14.5
t72.5 42.5t55 76t21 107z" />
    <glyph glyph-name="q" unicode="q" horiz-adv-x="862" 
d="M588 0h-129q-68 0 -140 32t-131.5 85.5t-98 133t-38.5 165.5q0 127 56 262.5t144 242t206 175.5t233 69q37 0 63.5 -26.5t26.5 -63.5v-1331q0 -40 -29 -69t-69 -29q-38 0 -66 29t-28 69v256zM479 176h109v780q-131 -62 -231.5 -224.5t-100.5 -315.5q0 -59 21 -107t54 -76
t71.5 -42.5t76.5 -14.5z" />
    <glyph glyph-name="r" unicode="r" horiz-adv-x="579" 
d="M78 82v680q0 171 115 287t299 116q37 0 62.5 -25.5t25.5 -62.5t-25.5 -62.5t-62.5 -25.5q-92 0 -157 -65.5t-65 -159.5v-682q0 -40 -29 -69t-69 -29q-38 0 -66 29t-28 69z" />
    <glyph glyph-name="s" unicode="s" horiz-adv-x="774" 
d="M733 303q0 -78 -47.5 -151t-136 -120.5t-193.5 -47.5q-173 0 -258 28q-31 10 -48 33.5t-17 52.5q0 42 33 68.5t69 17.5q105 -24 225 -24q45 0 83.5 12t68 46.5t29.5 86.5q0 57 -25.5 101.5t-66.5 75.5t-90 59t-98.5 60t-90.5 70.5t-66.5 98t-25.5 135.5q0 71 24 122.5
t66.5 81t94.5 43t114 13.5q72 0 211 -32q29 -9 46 -32t17 -50q0 -41 -30.5 -67t-67.5 -15q-87 20 -176 20q-55 0 -81 -23t-26 -73q0 -46 25.5 -81.5t66.5 -60t90 -49t98.5 -57t90.5 -74.5t66.5 -110.5t25.5 -157.5z" />
    <glyph glyph-name="t" unicode="t" horiz-adv-x="651" 
d="M274 1149h289q37 0 62.5 -25.5t25.5 -62.5t-25.5 -62.5t-62.5 -25.5h-289v-692q0 -56 34 -88.5t89 -32.5q28 0 84 16q34 11 66.5 -15t32.5 -67q0 -27 -17 -49.5t-47 -32.5q-83 -28 -160 -28q-110 0 -192 88.5t-82 208.5v1294q0 40 29 69t69 29q38 0 66 -29t28 -69v-426z
" />
    <glyph glyph-name="u" unicode="u" horiz-adv-x="831" 
d="M770 1067v-993q0 -37 -26.5 -63.5t-63.5 -26.5q-123 0 -234.5 56t-191 150.5t-126 223.5t-46.5 270q0 220 70 414q12 32 36 49.5t52 17.5q43 0 70 -34t18 -72q-54 -188 -54 -375q0 -92 37 -191.5t108 -185.5t159 -125v885q0 40 29 69t69 29q38 0 66 -29t28 -69z" />
    <glyph glyph-name="v" unicode="v" horiz-adv-x="763" 
d="M301 0q-35 0 -59.5 26.5t-30.5 63.5l-180 973q-9 36 18.5 69t69.5 33q30 0 56 -17.5t32 -47.5l160 -926h32l154 926q16 65 88 65q42 0 69.5 -33t18.5 -69l-186 -973q-5 -37 -30 -63.5t-60 -26.5h-152z" />
    <glyph glyph-name="w" unicode="w" horiz-adv-x="1191" 
d="M887 223l86 877q3 34 29 49.5t59 15.5q45 0 73.5 -30t24.5 -72l-98 -963q-6 -47 -41.5 -81.5t-79.5 -34.5q-42 0 -86 20.5t-61 50.5l-199 359l-195 -359q-17 -31 -59 -51t-88 -20q-43 0 -80 34.5t-41 81.5l-98 963q-3 37 27 69.5t71 32.5q33 0 59 -15.5t29 -49.5l90 -877
l207 344q25 45 82 45q19 0 42 -13t36 -32z" />
    <glyph glyph-name="x" unicode="x" horiz-adv-x="782" 
d="M391 797l141 319q9 20 32 34.5t46 14.5q38 0 65 -23t27 -57q0 -14 -4 -22l-202 -438l241 -539q4 -8 4 -23q0 -33 -27.5 -56t-66.5 -23q-23 0 -47 14.5t-33 34.5l-176 409l-176 -409q-9 -20 -33 -34.5t-47 -14.5q-39 0 -66.5 23t-27.5 56q0 15 4 23l242 539l-203 438
q-4 8 -4 22q0 34 27 57t65 23q23 0 46 -14.5t32 -34.5z" />
    <glyph glyph-name="y" unicode="y" horiz-adv-x="770" 
d="M57 1059q-4 8 -4 22q0 35 28.5 59.5t68.5 24.5q25 0 47.5 -14.5t33.5 -36.5l181 -407l143 407q11 22 34 36.5t48 14.5q40 0 68 -24.5t28 -59.5q0 -14 -4 -22l-467 -1362q-8 -25 -31.5 -38t-50.5 -13q-40 0 -68 24.5t-28 59.5q0 14 4 22l234 717z" />
    <glyph glyph-name="z" unicode="z" horiz-adv-x="772" 
d="M180 1149h404q37 0 63.5 -26.5t26.5 -63.5q0 -76 -44.5 -176.5t-107.5 -197t-126 -189.5t-107.5 -179t-44.5 -141h430q37 0 61.5 -25.5t24.5 -62.5t-24.5 -62.5t-61.5 -25.5h-533q-37 0 -63.5 26.5t-26.5 63.5q0 94 44.5 202.5t107.5 203.5t126 183t107.5 166.5
t44.5 127.5h-301q-37 0 -61.5 25.5t-24.5 62.5t24.5 62.5t61.5 25.5z" />
    <glyph glyph-name="braceleft" unicode="{" horiz-adv-x="673" 
d="M236 997v349q0 135 103 231t249 96q37 0 61.5 -25.5t24.5 -62.5t-24.5 -62.5t-61.5 -25.5q-61 0 -104.5 -69.5t-43.5 -167.5v-320q0 -65 -32 -135t-93 -105q59 -42 92 -106.5t33 -124.5v-410q0 -98 43.5 -167.5t104.5 -69.5q37 0 61.5 -25.5t24.5 -62.5t-24.5 -62.5
t-61.5 -25.5q-146 0 -249 96t-103 231v441q0 87 -33.5 145.5t-79.5 58.5h-37q-36 0 -61 26t-25 63t24.5 62.5t61.5 25.5h37q47 0 80 58t33 144z" />
    <glyph glyph-name="bar" unicode="|" horiz-adv-x="356" 
d="M274 1575v-1831q0 -40 -29 -69t-69 -29q-38 0 -66 29t-28 69v1831q0 40 29 69t69 29q38 0 66 -29t28 -69z" />
    <glyph glyph-name="braceright" unicode="}" horiz-adv-x="673" 
d="M436 997q0 -86 33 -144t80 -58h37q37 0 61.5 -25.5t24.5 -62.5t-25 -63t-61 -26h-37q-46 0 -79.5 -58.5t-33.5 -145.5v-441q0 -135 -103 -231t-249 -96q-37 0 -61.5 25.5t-24.5 62.5t24.5 62.5t61.5 25.5q61 0 104 69.5t43 167.5v410q0 60 33 124.5t92 106.5
q-61 35 -93 105t-32 135v320q0 98 -43 167.5t-104 69.5q-37 0 -61.5 25.5t-24.5 62.5t24.5 62.5t61.5 25.5q146 0 249 -96t103 -231v-349z" />
    <glyph glyph-name="asciitilde" unicode="~" horiz-adv-x="1191" 
d="M799 713q-66 0 -131.5 23t-108.5 50.5t-93 50.5t-89 23q-62 0 -97.5 -25.5t-58.5 -80.5q-16 -41 -84 -41q-24 0 -50 24t-26 51q0 130 90 198.5t226 68.5q62 0 127 -23t109.5 -51t95 -51t88.5 -23q130 0 166 99q7 20 35 34.5t55 14.5q32 0 54.5 -19t22.5 -47
q0 -75 -53 -140.5t-128.5 -100.5t-149.5 -35z" />
    <glyph glyph-name="currency" unicode="&#xa4;" horiz-adv-x="1150" 
d="M578 324q136 0 232.5 96t96.5 233t-96.5 233.5t-232.5 96.5t-233 -96.5t-97 -233.5q0 -136 96.5 -232.5t233.5 -96.5zM1051 291q25 -25 25 -58.5t-25 -58.5q-25 -23 -59.5 -23t-57.5 25l-62 62q-135 -97 -294 -97q-167 0 -297 97l-60 -62q-25 -25 -59.5 -24t-59.5 26
q-23 25 -23 57.5t23 57.5l62 63q-98 135 -98 297q0 168 96 297l-62 60q-25 25 -24 59t26 59q25 23 57.5 23t57.5 -23l64 -61q135 98 297 98q156 0 284 -88l64 64q25 25 58 25t58 -25q23 -25 23 -59.5t-25 -57.5l-57 -57q107 -139 107 -314q0 -163 -101 -301z" />
    <glyph glyph-name="brokenbar" unicode="&#xa6;" horiz-adv-x="356" 
d="M274 496v-756q0 -39 -27.5 -66.5t-68.5 -27.5q-38 0 -67 28t-29 66v756q0 38 29 66t67 28q41 0 68.5 -27.5t27.5 -66.5zM82 811v768q0 38 29 66t67 28q41 0 68.5 -27.5t27.5 -66.5v-768q0 -38 -29 -66t-67 -28q-41 0 -68.5 27.5t-27.5 66.5z" />
    <glyph glyph-name="section" unicode="&#xa7;" horiz-adv-x="886" 
d="M803 776q0 -63 -36.5 -137.5t-102.5 -122.5q73 -97 73 -223q0 -47 -21 -101t-59.5 -104.5t-104 -83.5t-144.5 -33q-131 0 -191 10t-135 39q-28 11 -46 40t-18 65q0 38 27.5 65t65.5 27q15 0 45 -12q67 -25 94.5 -34.5t67.5 -16.5t88 -7q60 0 99.5 32.5t39.5 92.5
q0 58 -25.5 104.5t-66.5 79.5t-90 63.5t-98.5 64.5t-90.5 74t-66.5 101.5t-25.5 137.5q0 92 39.5 161.5t105.5 104.5q-80 90 -80 217q0 139 86 216t213 77q129 0 259 -43q28 -9 46.5 -38.5t18.5 -65.5q0 -34 -24.5 -58t-59.5 -24q-15 0 -45 12q-68 26 -105 33.5t-90 7.5
q-116 0 -116 -96q0 -48 26 -88t68 -71t92 -61.5t100.5 -67.5t92.5 -80.5t68 -109.5t26 -147zM264 918q0 -31 11.5 -59.5t27 -49t45.5 -45t52 -39t63 -41t63 -41.5q36 16 60 46.5t24 66.5q0 40 -12.5 75t-28 58.5t-48.5 51.5t-54 42.5t-66 42.5q-14 9 -22 14
q-42 -7 -78.5 -42t-36.5 -80z" />
    <glyph glyph-name="copyright" unicode="&#xa9;" horiz-adv-x="1812" 
d="M743 913q0 -136 33 -251t90.5 -181.5t124.5 -66.5q37 0 63.5 -28.5t26.5 -66.5q0 -37 -26.5 -63.5t-63.5 -26.5q-123 0 -227 91t-164.5 248.5t-60.5 342.5q0 500 379 500q65 0 194 -33q28 -7 46 -31t18 -51q0 -41 -31 -65.5t-68 -16.5q-95 21 -176 21q-50 0 -83 -26
t-54 -99.5t-21 -196.5zM905 1546q-153 0 -290.5 -57t-236.5 -153.5t-157.5 -230.5t-58.5 -282t58.5 -282t157.5 -231t237 -154.5t290 -57.5q204 0 375.5 97t271 264t99.5 364t-99.5 363.5t-271 263t-375.5 96.5zM905 -29q-141 0 -274 43.5t-240 123t-187.5 184.5
t-124.5 234.5t-44 266.5t44 266.5t124.5 234t187.5 183.5t240 122.5t274 43.5t274 -43.5t240.5 -122.5t188.5 -183.5t125.5 -234t44.5 -266.5q0 -171 -69.5 -328.5t-186.5 -272t-279 -183t-338 -68.5z" />
    <glyph glyph-name="guillemotleft" unicode="&#xab;" horiz-adv-x="747" 
d="M686 426q0 -26 -20.5 -45t-49.5 -21q-29 -3 -49 17l-184 180q-14 14 -24.5 39t-10.5 45t10.5 44t24.5 38l184 178q20 20 51 17q27 -2 47.5 -20.5t20.5 -45.5q0 -41 -20 -61l-162 -154l160 -150q22 -22 22 -61zM399 426q0 -26 -20 -45.5t-49 -20.5q-29 -3 -49 17l-185 180
q-14 14 -24.5 39t-10.5 45t10.5 44t24.5 38l185 178q20 20 51 17q27 -2 47 -20.5t20 -45.5q0 -41 -20 -61l-162 -154l160 -150q22 -22 22 -61z" />
    <glyph glyph-name="logicalnot" unicode="&#xac;" horiz-adv-x="1261" 
d="M109 731h1019q40 0 67.5 -27t27.5 -65v-244q0 -39 -27.5 -66.5t-65.5 -27.5t-65 27t-27 67v160h-929q-37 0 -61.5 25.5t-24.5 62.5t24.5 62.5t61.5 25.5z" />
    <glyph glyph-name="registered" unicode="&#xae;" horiz-adv-x="1812" 
d="M905 1546q-153 0 -290.5 -57t-236.5 -153.5t-157.5 -230.5t-58.5 -282t58.5 -282t157.5 -231t237 -154.5t290 -57.5q204 0 375.5 97t271 264t99.5 364t-99.5 363.5t-271 263t-375.5 96.5zM905 -29q-141 0 -274 43.5t-240 123t-187.5 184.5t-124.5 234.5t-44 266.5
t44 266.5t124.5 234t187.5 183.5t240 122.5t274 43.5t274 -43.5t240.5 -122.5t188.5 -183.5t125.5 -234t44.5 -266.5q0 -171 -69.5 -328.5t-186.5 -272t-279 -183t-338 -68.5zM657 297v1026q0 35 24 59.5t58 24.5h228q105 0 179.5 -71t74.5 -167q0 -52 -34.5 -114t-90.5 -92
q76 -80 92 -218l47 -444q0 -35 -24.5 -58.5t-59.5 -23.5q-34 0 -57.5 23.5t-26.5 58.5l-37 406q-5 62 -30.5 124.5t-61.5 90.5h-121v-625q0 -32 -23 -55t-57 -23t-57 23t-23 55zM817 1264v-199h103q64 0 100.5 28.5t36.5 75.5q0 42 -34 68.5t-89 26.5h-117z" />
    <glyph glyph-name="degree" unicode="&#xb0;" horiz-adv-x="561" 
d="M281 1206q-95 0 -167.5 71t-72.5 163t72.5 162.5t167.5 70.5t167 -70.5t72 -162.5t-72 -163t-167 -71zM281 1321q54 0 89.5 33.5t35.5 85.5t-35.5 85.5t-89.5 33.5t-89.5 -33.5t-35.5 -85.5t35.5 -85.5t89.5 -33.5z" />
    <glyph glyph-name="plusminus" unicode="&#xb1;" horiz-adv-x="1019" 
d="M602 1085v-297h297q37 0 61.5 -25.5t24.5 -62.5t-24.5 -62.5t-61.5 -25.5h-297v-297q0 -38 -27 -65t-65 -27t-65 27t-27 65v297h-301q-37 0 -61.5 25.5t-24.5 62.5t24.5 62.5t61.5 25.5h301v297q0 38 27 65.5t65 27.5t65 -27.5t27 -65.5zM125 176h766q37 0 61.5 -25.5
t24.5 -62.5t-24.5 -62.5t-61.5 -25.5h-766q-37 0 -61.5 25.5t-24.5 62.5t24.5 62.5t61.5 25.5z" />
    <glyph glyph-name="mu" unicode="&#xb5;" horiz-adv-x="829" 
d="M756 1067v-985q0 -40 -29.5 -69t-69.5 -29q-38 0 -66 29t-28 69v82q-59 -66 -142.5 -118t-160.5 -60v-242q0 -40 -29 -69t-69 -29q-38 0 -66 29t-28 69v1323q0 40 29 69t69 29q38 0 66 -29t28 -69v-905q86 23 179.5 105t123.5 143v657q0 40 29.5 69t69.5 29q38 0 66 -29
t28 -69z" />
    <glyph glyph-name="mu" unicode="&#x3bc;" horiz-adv-x="829" 
d="M756 1067v-985q0 -40 -29.5 -69t-69.5 -29q-38 0 -66 29t-28 69v82q-59 -66 -142.5 -118t-160.5 -60v-242q0 -40 -29 -69t-69 -29q-38 0 -66 29t-28 69v1323q0 40 29 69t69 29q38 0 66 -29t28 -69v-905q86 23 179.5 105t123.5 143v657q0 40 29.5 69t69.5 29q38 0 66 -29
t28 -69z" />
    <glyph glyph-name="paragraph" unicode="&#xb6;" horiz-adv-x="980" 
d="M332 1645h530q35 0 60.5 -25.5t25.5 -60.5q0 -33 -25.5 -57.5t-60.5 -24.5h-69v-1733q0 -40 -29.5 -69t-69.5 -29q-38 0 -66 29t-28 69v1733h-100v-1733q0 -40 -29.5 -69t-69.5 -29q-38 0 -66 29t-28 69v1298q-119 9 -203 95.5t-84 201.5q0 121 93.5 213.5t218.5 92.5z
" />
    <glyph glyph-name="periodcentered" unicode="&#xb7;" horiz-adv-x="438" 
d="M219 584q-40 0 -64 24t-24 62t24 62t64 24t64 -24t24 -62t-24 -62t-64 -24z" />
    <glyph glyph-name="periodcentered" unicode="&#x2219;" horiz-adv-x="438" 
d="M219 584q-40 0 -64 24t-24 62t24 62t64 24t64 -24t24 -62t-24 -62t-64 -24z" />
    <glyph glyph-name="guillemotright" unicode="&#xbb;" horiz-adv-x="747" 
d="M61 426q0 38 23 61l160 150l-162 154q-21 21 -21 61q0 27 20.5 45.5t47.5 20.5q31 3 51 -17l185 -178q14 -14 24 -38t10 -44t-10 -45t-24 -39l-185 -180q-20 -20 -49 -17q-29 2 -49.5 21t-20.5 45zM348 426q0 38 23 61l159 150l-161 154q-21 21 -21 61q0 27 20.5 45.5
t47.5 20.5q31 3 51 -17l184 -178q14 -14 24.5 -38t10.5 -44t-10.5 -45t-24.5 -39l-184 -180q-20 -20 -49 -17q-29 2 -49.5 21t-20.5 45z" />
    <glyph glyph-name="afii10023" unicode="&#x401;" horiz-adv-x="931" 
d="M285 973v-797h399q37 0 61.5 -25.5t24.5 -62.5t-24.5 -62.5t-61.5 -25.5h-502q-43 0 -72.5 29.5t-29.5 72.5v1440q0 43 29.5 73t72.5 30h502q36 0 61 -26t25 -63t-24.5 -62.5t-61.5 -25.5h-399v-319h559q37 0 61.5 -25.5t24.5 -62.5t-24.5 -62.5t-61.5 -25.5h-559z
M266 1972q51 0 87 -36t36 -87t-36 -87t-87 -36t-87 36t-36 87q0 52 36 87.5t87 35.5zM575 1972q51 0 87 -36t36 -87t-36 -87t-87 -36t-86.5 36t-35.5 87q0 52 35.5 87.5t86.5 35.5z" />
    <glyph glyph-name="afii10053" unicode="&#x404;" horiz-adv-x="561" 
d="M422 946h-166q-87 0 -151 78t-64 186q0 86 36.5 172t93.5 149t129.5 102.5t141.5 39.5q26 0 44 -14.5t18 -36.5v-598q0 -32 -24 -55t-58 -23zM365 1081v443q-72 -40 -124.5 -132.5t-52.5 -181.5q0 -129 86 -129h91z" />
    <glyph glyph-name="afii10054" unicode="&#x405;" horiz-adv-x="1454" 
d="M371 670q-35 0 -59.5 25.5t-24.5 62.5v663l-76 -57q-21 -16 -55 -16q-31 0 -52.5 18.5t-21.5 46.5q0 21 11.5 44t29.5 38l170 133q3 2 12.5 9.5t13 10t12 8t13.5 7.5l12.5 5t15 4t15.5 1q29 0 51.5 -22.5t22.5 -53.5v-839q0 -37 -26.5 -62.5t-63.5 -25.5zM1303 14h-404
q-31 0 -52.5 25.5t-21.5 60.5q0 65 38 134.5t92 129.5t107.5 118.5t91.5 123t38 121.5q0 48 -19.5 80.5t-62.5 32.5q-66 0 -131 -23q-45 -18 -59 -18q-25 0 -44.5 22t-19.5 49q0 31 19.5 54.5t46.5 31.5q92 29 188 29q124 0 193 -77.5t69 -184.5q0 -63 -34.5 -130
t-85.5 -125t-102.5 -111.5t-93 -106t-50.5 -92.5h297q29 0 49 -22t20 -52q0 -29 -20 -49.5t-49 -20.5zM418 -29q-34 0 -58 23.5t-24 58.5q0 13 6 31l442 1501q10 35 34.5 61.5t55.5 26.5q34 0 57 -23.5t23 -58.5q0 -13 -6 -28l-442 -1504q-10 -35 -33.5 -61.5t-54.5 -26.5z
" />
    <glyph glyph-name="afii10055" unicode="&#x406;" horiz-adv-x="710" 
d="M559 702h-403q-31 0 -52.5 25.5t-21.5 60.5q0 65 38 134.5t92 129.5t107.5 118.5t91.5 123t38 121.5q0 48 -19.5 80.5t-62.5 32.5q-66 0 -131 -23q-45 -18 -60 -18q-24 0 -43.5 22.5t-19.5 49.5q0 31 19.5 54.5t45.5 31.5q89 28 189 28q64 0 115 -22.5t82.5 -59.5
t48 -83.5t16.5 -96.5q0 -63 -34.5 -130t-85.5 -125t-103 -111.5t-93.5 -106t-50.5 -92.5h297q29 0 49.5 -22t20.5 -52q0 -29 -20.5 -49.5t-49.5 -20.5z" />
    <glyph glyph-name="afii10062" unicode="&#x40e;" horiz-adv-x="366" 
d="M182 1165q51 0 87 -36t36 -87t-36 -86.5t-87 -35.5t-87 35.5t-36 86.5q0 52 36 87.5t87 35.5zM80 -252v1022q0 43 29.5 72.5t72.5 29.5t73 -29.5t30 -72.5v-1022q0 -43 -30 -72.5t-73 -29.5t-72.5 29.5t-29.5 72.5z" />
    <glyph glyph-name="afii10017" unicode="&#x410;" 
d="M745 43l-151 930h-217l-150 -930q-5 -28 -32.5 -50t-59.5 -22q-44 0 -75 28t-31 67l4 32l241 1430q8 47 51 82t95 35h133q52 0 94.5 -34.5t50.5 -82.5l242 -1430q1 -6 2 -14.5t1.5 -12.5t0.5 -5q0 -39 -31 -67t-75 -28q-32 0 -60 22t-33 50zM516 1468h-61l-54 -319h168z
" />
    <glyph glyph-name="afii10018" unicode="&#x411;" horiz-adv-x="927" 
d="M287 1468v-303q116 -18 223.5 -78t189 -149t130.5 -208.5t49 -248.5q0 -93 -25.5 -177t-75.5 -153t-132.5 -110t-186.5 -41h-275q-43 0 -72.5 29.5t-29.5 72.5v1440q0 43 29.5 73t72.5 30h533q36 0 61 -26t25 -63t-24.5 -62.5t-61.5 -25.5h-430zM666 479
q0 189 -103.5 314t-275.5 163v-780h129q125 0 187.5 82t62.5 221z" />
    <glyph glyph-name="afii10019" unicode="&#x412;" 
d="M82 102v1440q0 43 29.5 73t72.5 30h342q141 0 227.5 -95.5t86.5 -222.5q0 -82 -55.5 -162t-127.5 -118q118 -98 195.5 -232.5t77.5 -292.5q0 -225 -125.5 -373.5t-310.5 -148.5h-310q-43 0 -72.5 29.5t-29.5 72.5zM287 1468v-319h159q78 0 133.5 53t55.5 125
q0 63 -38.5 102t-107.5 39h-202zM287 973v-797h135q115 0 205 96t90 246q0 51 -8 96t-19.5 79.5t-34.5 69.5t-42 58.5t-53 53.5t-57.5 48.5t-64.5 49.5h-151z" />
    <glyph glyph-name="afii10020" unicode="&#x413;" horiz-adv-x="798" 
d="M82 74v1468q0 43 29.5 73t72.5 30h525q36 0 61 -26t25 -63t-24.5 -62.5t-61.5 -25.5h-422v-1394q0 -43 -30 -73t-73 -30t-72.5 30t-29.5 73z" />
    <glyph glyph-name="afii10021" unicode="&#x414;" horiz-adv-x="1112" 
d="M578 1468h-62l-207 -1292h475zM434 1645h228q37 0 61.5 -25t30.5 -66l233 -1378h17q38 0 64 -27t26 -65v-348q0 -38 -27 -64t-66 -26q-38 0 -65 26t-27 64v264h-704v-264q0 -38 -27 -64t-65 -26q-39 0 -66 26t-27 64v350q0 38 27 64t66 26l229 1378q6 42 30 66.5t62 24.5
z" />
    <glyph glyph-name="afii10022" unicode="&#x415;" horiz-adv-x="931" 
d="M287 973v-797h399q37 0 61.5 -25.5t24.5 -62.5t-24.5 -62.5t-61.5 -25.5h-502q-43 0 -72.5 29.5t-29.5 72.5v1440q0 43 29.5 73t72.5 30h502q36 0 61 -26t25 -63t-24.5 -62.5t-61.5 -25.5h-399v-319h559q37 0 61.5 -25.5t24.5 -62.5t-24.5 -62.5t-61.5 -25.5h-559z" />
    <glyph glyph-name="afii10024" unicode="&#x416;" horiz-adv-x="1484" 
d="M629 74v899h-170q-53 -33 -80 -66t-43.5 -91.5t-28.5 -166.5l-74 -606q-5 -28 -32.5 -50t-59.5 -22q-44 0 -75 28t-31 67l4 32l72 627q31 254 161 365q-60 50 -88 116.5t-49 169.5l-35 170q-4 32 -4 33q0 38 31.5 66t75.5 28q32 0 59.5 -21.5t32.5 -49.5l49 -230
q23 -109 76.5 -166t130.5 -57h78v422q0 43 29.5 72.5t72.5 29.5t73 -29.5t30 -72.5v-422h77q77 0 130.5 57t76.5 166l49 230q5 28 33 49.5t60 21.5q44 0 75 -28t31 -66q0 -1 -4 -33l-35 -170q-21 -103 -49 -169.5t-88 -116.5q131 -112 162 -365l71 -627q1 -6 2 -14.5
t1.5 -12.5t0.5 -5q0 -39 -31 -67t-75 -28q-32 0 -59.5 22t-32.5 50l-74 606q-17 156 -45.5 216t-105.5 108h-170v-899q0 -43 -30 -73t-73 -30t-72.5 30t-29.5 73z" />
    <glyph glyph-name="afii10025" unicode="&#x417;" horiz-adv-x="821" 
d="M391 973h-305q-37 0 -61.5 25.5t-24.5 62.5t24.5 62.5t61.5 25.5h256q75 0 127.5 59.5t52.5 137.5q0 67 -50 103t-142 36q-38 0 -53 -0.5t-37.5 -5t-40.5 -13.5q-25 -10 -47 -10q-37 0 -64 28t-27 68q0 39 23 67.5t57 33.5q100 20 178 20q185 0 293.5 -80.5t108.5 -249.5
q0 -84 -40 -166.5t-99 -125.5q178 -221 178 -508q0 -73 -11.5 -146.5t-42.5 -152t-77.5 -137.5t-123.5 -97.5t-175 -38.5q-68 0 -103 6t-100 25q-30 9 -48 38t-18 66q0 38 28 64.5t67 26.5q8 0 45 -15q75 -22 151 -22q58 0 100 36t63.5 95t30.5 119t9 125q0 260 -164 438z
" />
    <glyph glyph-name="afii10026" unicode="&#x418;" horiz-adv-x="1042" 
d="M961 1583v-1509q0 -43 -30 -73t-73 -30t-72.5 30t-29.5 73v1272l-469 -588v-684q0 -43 -30 -73t-73 -30t-72.5 30t-29.5 73v1497q0 43 29.5 72.5t72.5 29.5t73 -29.5t30 -72.5v-520l454 559q20 26 56 44.5t65 18.5q40 0 69.5 -26.5t29.5 -63.5z" />
    <glyph glyph-name="afii10027" unicode="&#x419;" horiz-adv-x="1042" 
d="M961 1583v-1509q0 -43 -30 -73t-73 -30t-72.5 30t-29.5 73v1272l-469 -588v-684q0 -43 -30 -73t-73 -30t-72.5 30t-29.5 73v1497q0 43 29.5 72.5t72.5 29.5t73 -29.5t30 -72.5v-520l454 559q20 26 56 44.5t65 18.5q40 0 69.5 -26.5t29.5 -63.5zM528 1673
q-102 0 -186.5 56t-128.5 178q-8 32 -8 49q0 31 24 52.5t58 21.5q32 0 60.5 -19t35.5 -47q22 -66 55 -90.5t90 -24.5q52 0 86 22.5t58 92.5q9 28 36.5 47t59.5 19q34 0 58 -21.5t24 -52.5q0 -17 -8 -49q-28 -79 -83.5 -134t-114 -77.5t-116.5 -22.5z" />
    <glyph glyph-name="afii10028" unicode="&#x41a;" horiz-adv-x="925" 
d="M82 74v1497q0 43 29.5 72.5t72.5 29.5t73 -29.5t30 -72.5v-422h78q77 0 130 56.5t76 166.5l50 230q5 28 32.5 49.5t59.5 21.5q44 0 75 -28t31 -66q0 -1 -4 -33l-35 -170q-21 -103 -49 -169.5t-88 -116.5q131 -112 162 -365l72 -627q1 -6 2 -14.5t1.5 -12.5t0.5 -5
q0 -38 -31.5 -66.5t-75.5 -28.5q-32 0 -59.5 22t-32.5 50l-74 606q-17 156 -45.5 216t-105.5 108h-170v-899q0 -43 -30 -73t-73 -30t-72.5 30t-29.5 73z" />
    <glyph glyph-name="afii10029" unicode="&#x41b;" 
d="M512 1468h-61l-226 -1425q-5 -28 -32.5 -50t-59.5 -22q-44 0 -75 28t-31 67l4 32l241 1430q8 47 51 82t95 35h133q52 0 94.5 -34.5t50.5 -82.5l242 -1430q1 -6 2 -14.5t1.5 -12.5t0.5 -5q0 -39 -31 -67t-75 -28q-32 0 -60 22t-33 50z" />
    <glyph glyph-name="afii10030" unicode="&#x41c;" horiz-adv-x="1384" 
d="M29 98l155 1458q6 47 42 82t79 35t85 -20.5t63 -50.5l241 -363l236 363q21 30 62.5 50.5t84.5 20.5t79 -35t42 -82l156 -1458q1 -6 2 -14.5t1.5 -12.5t0.5 -5q0 -38 -31.5 -66.5t-75.5 -28.5q-32 0 -59.5 22t-32.5 50l-139 1374l-246 -356q-12 -18 -35 -31.5t-43 -13.5
q-22 0 -45.5 12.5t-36.5 32.5l-254 356l-137 -1374q-5 -28 -32.5 -50t-59.5 -22q-44 0 -75 28t-31 67z" />
    <glyph glyph-name="afii10031" unicode="&#x41d;" horiz-adv-x="1017" 
d="M82 74v1497q0 43 29.5 72.5t72.5 29.5t73 -29.5t30 -72.5v-422h428v422q0 43 29.5 72.5t72.5 29.5t73 -29.5t30 -72.5v-1497q0 -43 -30 -73t-73 -30t-72.5 30t-29.5 73v899h-428v-899q0 -43 -30 -73t-73 -30t-72.5 30t-29.5 73z" />
    <glyph glyph-name="afii10032" unicode="&#x41e;" horiz-adv-x="1069" 
d="M539 -29q-69 0 -127 21.5t-102 58t-79.5 93t-60 118t-42.5 142t-28.5 156.5t-17 169t-8.5 172t-2 174q0 73 5 134t18.5 124t35.5 112t58 93t84 73t115 45.5t149 16.5q110 0 192.5 -32t132.5 -85t81 -132t42.5 -162.5t11.5 -186.5q0 -96 -1.5 -173t-7.5 -171.5t-15.5 -169
t-27 -156t-41 -142.5t-58.5 -118.5t-78.5 -94t-101.5 -58t-127 -21.5zM539 160q42 0 76 17.5t59 55t43.5 82t30 113t19 133t11.5 157.5t5 170.5t1 186.5q0 410 -247 410q-71 0 -120.5 -29.5t-78 -85.5t-41 -128t-12.5 -167q0 -107 1.5 -186.5t5.5 -170.5t12 -157.5
t20.5 -133.5t31.5 -112.5t44.5 -82.5t60.5 -54.5t78 -17.5z" />
    <glyph glyph-name="afii10033" unicode="&#x41f;" horiz-adv-x="1017" 
d="M82 74v1468q0 43 29.5 73t72.5 30h633q43 0 73 -30t30 -73v-1468q0 -43 -30 -73t-73 -30t-72.5 30t-29.5 73v1394h-428v-1394q0 -43 -30 -73t-73 -30t-72.5 30t-29.5 73z" />
    <glyph glyph-name="afii10034" unicode="&#x420;" horiz-adv-x="878" 
d="M82 74v1468q0 43 29.5 73t72.5 30h299q145 0 251 -114t106 -271q0 -168 -73.5 -315.5t-197 -251t-282.5 -163.5v-456q0 -43 -30 -73t-73 -30t-72.5 30t-29.5 73zM287 1468v-723q155 71 247.5 200.5t92.5 305.5q0 93 -52.5 155t-128.5 62h-159z" />
    <glyph glyph-name="afii10035" unicode="&#x421;" horiz-adv-x="847" 
d="M274 1079q0 -98 19.5 -218t58 -240t88.5 -220t118.5 -162.5t141.5 -62.5q37 0 64 -29.5t27 -70.5q0 -43 -27.5 -74t-65.5 -31q-85 0 -164 41.5t-141.5 112t-117 163.5t-93 196.5t-66.5 210t-41.5 204.5t-13.5 180q0 86 12 164.5t44.5 159t83 138.5t133.5 95t190 37
q59 0 226 -31q32 -7 54.5 -36.5t22.5 -63.5t-21 -58t-50 -24q-3 0 -39 6q-97 19 -193 19q-64 0 -110.5 -24t-73 -60.5t-42 -93.5t-20 -108.5t-4.5 -119.5z" />
    <glyph glyph-name="afii10036" unicode="&#x422;" horiz-adv-x="892" 
d="M102 1645h689q36 0 61 -26t25 -63t-24.5 -62.5t-61.5 -25.5h-242v-1394q0 -43 -30 -73t-73 -30t-72.5 30t-29.5 73v1394h-242q-37 0 -61.5 25.5t-24.5 62.5t25 63t61 26z" />
    <glyph glyph-name="afii10037" unicode="&#x423;" horiz-adv-x="929" 
d="M516 1161l184 441q12 32 46.5 51.5t78.5 19.5q32 0 58 -25t26 -59q0 -11 -8 -39l-239 -551q-117 -266 -170.5 -470t-53.5 -455q0 -43 -29.5 -73t-72.5 -30t-73 30t-30 73q0 128 9 233t21.5 180t42 167.5t52.5 151.5t72 177q-57 37 -93 64t-83 74t-80 99.5t-68.5 133
t-64.5 182.5q-4 20 -4 49q0 36 28.5 62t67.5 26q42 0 78 -25t43 -63q22 -102 58 -176.5t80.5 -126t123.5 -121.5z" />
    <glyph glyph-name="afii10038" unicode="&#x424;" horiz-adv-x="1357" 
d="M578 1417v154q0 43 29.5 72.5t72.5 29.5t72.5 -29.5t29.5 -72.5v-154h74q217 0 340 -120.5t123 -340.5q0 -116 -30 -226.5t-85.5 -202.5t-146 -148.5t-201.5 -56.5h-74v-248q0 -43 -29.5 -73t-72.5 -30t-72.5 30t-29.5 73v248h-76q-111 0 -201 56.5t-145.5 148.5
t-85 202.5t-29.5 226.5q0 220 122 340.5t339 120.5h76zM578 1241h-43q-56 0 -95.5 -6t-77 -23.5t-59.5 -48.5t-35.5 -83t-13.5 -124q0 -218 67 -338t203 -120h54v743zM782 1241v-743h52q136 0 204 120t68 338q0 90 -19 148t-59 87t-87 39.5t-118 10.5h-41z" />
    <glyph glyph-name="afii10039" unicode="&#x425;" horiz-adv-x="878" 
d="M209 1616l219 -516l211 516q9 24 34.5 40.5t53.5 16.5q40 0 67 -27t27 -67q0 -13 -6 -31l-270 -659l307 -789q6 -21 6 -32q0 -40 -28 -68.5t-68 -28.5q-28 0 -54.5 17.5t-35.5 42.5l-244 612l-219 -612q-9 -25 -35.5 -42.5t-54.5 -17.5q-40 0 -68 28.5t-28 68.5
q0 11 6 32l274 789l-270 659q-6 18 -6 31q0 40 27 67t67 27q28 0 53.5 -16.5t34.5 -40.5z" />
    <glyph glyph-name="afii10040" unicode="&#x426;" horiz-adv-x="1050" 
d="M82 102v1469q0 43 29.5 72.5t72.5 29.5t73 -29.5t30 -72.5v-1395h422v1395q0 43 29.5 72.5t72.5 29.5t72.5 -29.5t29.5 -72.5v-1395h17q38 0 64 -27t26 -65v-348q0 -38 -27 -64t-65 -26t-65 26t-27 64v264h-652q-43 0 -72.5 29.5t-29.5 72.5z" />
    <glyph glyph-name="afii10041" unicode="&#x427;" horiz-adv-x="976" 
d="M672 74v596h-76q-150 0 -277.5 64t-202.5 177t-75 250v410q0 43 29.5 72.5t72.5 29.5t73 -29.5t30 -72.5v-410q0 -138 104 -226.5t260 -88.5h62v725q0 43 29.5 72.5t72.5 29.5t73 -29.5t30 -72.5v-1497q0 -43 -30 -73t-73 -30t-72.5 30t-29.5 73z" />
    <glyph glyph-name="afii10042" unicode="&#x428;" horiz-adv-x="1488" 
d="M82 102v1469q0 43 29.5 72.5t72.5 29.5t73 -29.5t30 -72.5v-1395h356v1395q0 43 29.5 72.5t72.5 29.5t73 -29.5t30 -72.5v-1395h356v1395q0 43 30 72.5t73 29.5t72.5 -29.5t29.5 -72.5v-1473q0 -40 -28 -69t-66 -29h-1131q-43 0 -72.5 29.5t-29.5 72.5z" />
    <glyph glyph-name="afii10043" unicode="&#x429;" horiz-adv-x="1531" 
d="M82 102v1469q0 43 29.5 72.5t72.5 29.5t73 -29.5t30 -72.5v-1395h356v1395q0 43 29.5 72.5t72.5 29.5t73 -29.5t30 -72.5v-1395h356v1395q0 43 30 72.5t73 29.5t72.5 -29.5t29.5 -72.5v-1395h16q38 0 64.5 -27t26.5 -65v-348q0 -38 -27 -64t-66 -26q-38 0 -65 26t-27 64
v264h-1147q-43 0 -72.5 29.5t-29.5 72.5z" />
    <glyph glyph-name="afii10044" unicode="&#x42a;" horiz-adv-x="1173" 
d="M96 1645h334q43 0 72.5 -30t29.5 -73v-377q116 -18 223.5 -78t189 -149t130.5 -208.5t49 -248.5q0 -93 -25.5 -177t-75 -153t-132 -110t-186.5 -41h-275q-43 0 -72.5 29.5t-29.5 72.5v1366h-232q-37 0 -61.5 25.5t-24.5 62.5t25 63t61 26zM532 956v-780h130q125 0 187 82
t62 221q0 189 -103.5 314t-275.5 163z" />
    <glyph glyph-name="afii10045" unicode="&#x42b;" horiz-adv-x="1230" 
d="M82 102v1469q0 43 29.5 72.5t72.5 29.5t73 -29.5t30 -72.5v-406q116 -18 223.5 -78t189 -149t130.5 -208.5t49 -248.5q0 -93 -25.5 -177t-75.5 -153t-132.5 -110t-186.5 -41h-275q-43 0 -72.5 29.5t-29.5 72.5zM287 956v-780h129q125 0 187.5 82t62.5 221
q0 189 -103.5 314t-275.5 163zM944 74v1497q0 43 30 72.5t73 29.5t72.5 -29.5t29.5 -72.5v-1497q0 -43 -29.5 -73t-72.5 -30t-73 30t-30 73z" />
    <glyph glyph-name="afii10046" unicode="&#x42c;" horiz-adv-x="927" 
d="M82 102v1469q0 43 29.5 72.5t72.5 29.5t73 -29.5t30 -72.5v-406q116 -18 223.5 -78t189 -149t130.5 -208.5t49 -248.5q0 -93 -25.5 -177t-75.5 -153t-132.5 -110t-186.5 -41h-275q-43 0 -72.5 29.5t-29.5 72.5zM287 967v-781h129q125 0 187.5 82t62.5 221
q0 189 -103.5 314.5t-275.5 163.5z" />
    <glyph glyph-name="afii10047" unicode="&#x42d;" horiz-adv-x="905" 
d="M88 1149h541q-3 57 -10 102.5t-24.5 90.5t-44 75.5t-69.5 49t-100 18.5q-96 0 -193 -19q-36 -6 -38 -6q-29 0 -50.5 24t-21.5 58q0 35 21 63t57 37q140 31 225 31q107 0 190 -37t133.5 -95t83 -138.5t44.5 -159t12 -164.5q0 -82 -13.5 -180t-41.5 -204.5t-66.5 -210
t-93 -196.5t-117 -163.5t-141.5 -112t-164 -41.5q-38 0 -65 31t-27 74q0 41 26.5 70.5t63.5 29.5q81 0 157 77.5t129.5 198t89.5 257t48 264.5h-541q-37 0 -61.5 25.5t-24.5 62.5t24.5 62.5t61.5 25.5z" />
    <glyph glyph-name="afii10048" unicode="&#x42e;" horiz-adv-x="1382" 
d="M862 -29q-83 0 -151 30.5t-115.5 81t-83 128t-57 160t-35 188.5t-19 202t-6.5 212h-108v-899q0 -43 -30 -73t-73 -30t-72.5 30t-29.5 73v1497q0 43 29.5 72.5t72.5 29.5t73 -29.5t30 -72.5v-422h108q4 90 19.5 163t49 142t84 116t130 75t182.5 28q110 0 192.5 -32
t133 -85t81.5 -132t42.5 -162.5t11.5 -186.5q0 -96 -1.5 -173t-7.5 -171.5t-15.5 -169t-27 -156t-41.5 -142.5t-59 -118.5t-78 -94t-101.5 -58t-127.5 -21.5zM862 160q42 0 76 17.5t59 54.5t43.5 82t30.5 113t19.5 133t11.5 157.5t5 171t1 186.5q0 410 -248 410
q-71 0 -120.5 -29.5t-78 -85.5t-41 -128t-12.5 -167q0 -107 1.5 -186.5t5.5 -170.5t12 -157.5t20.5 -133.5t31.5 -112.5t44.5 -82.5t60.5 -54.5t78 -17.5z" />
    <glyph glyph-name="afii10049" unicode="&#x42f;" horiz-adv-x="925" 
d="M844 74q0 -43 -30 -73t-73 -30t-72.5 30t-29.5 73v899h-184q-54 -40 -91.5 -124.5t-46.5 -176.5l-67 -629q-5 -28 -32.5 -50t-59.5 -22q-44 0 -75.5 28.5t-31.5 66.5l4 32l66 627q12 121 45.5 190t85.5 125q-82 38 -132 129t-50 166q0 130 104 220t246 90h321
q43 0 73 -30t30 -73v-1468zM639 1468h-197q-75 0 -117 -36.5t-42 -94.5q0 -75 52.5 -131.5t139.5 -56.5h164v319z" />
    <glyph glyph-name="afii10065" unicode="&#x430;" horiz-adv-x="862" 
d="M690 0h-297q-139 0 -240.5 123.5t-101.5 298.5q0 111 36.5 223t100.5 204t144 164t174 112t184 40q37 0 63.5 -26.5t26.5 -63.5v-985q0 -37 -26.5 -63.5t-63.5 -26.5zM588 176v787q-131 -62 -231.5 -225t-100.5 -316q0 -120 45.5 -183t120.5 -63h166z" />
    <glyph glyph-name="afii10066" unicode="&#x431;" horiz-adv-x="909" 
d="M459 -16q-63 0 -118 21.5t-103.5 69.5t-83.5 120t-55.5 178.5t-20.5 238.5q0 15 -1 75t-1.5 109t2 128t8 144t18 145t31 142t48.5 124t67.5 102.5t91 66t117.5 25.5q119 0 243 -31q29 -9 49.5 -34.5t20.5 -51.5q0 -44 -32.5 -69t-73.5 -17q-11 2 -47.5 9.5t-49.5 9.5
t-40.5 5t-53.5 3q-78 0 -130.5 -112.5t-61.5 -288.5q69 69 176 69q61 0 113 -15t102.5 -54t86.5 -100t57.5 -159t21.5 -225q0 -130 -22 -237t-59 -178.5t-86.5 -120.5t-103 -70.5t-110.5 -21.5zM459 160q93 0 135.5 102t42.5 350q0 164 -52 270.5t-126 106.5
q-70 0 -110 -43.5t-54 -117.5t-14 -195q0 -255 41.5 -364t136.5 -109z" />
    <glyph glyph-name="afii10067" unicode="&#x432;" horiz-adv-x="815" 
d="M74 102v945q0 43 29.5 72.5t72.5 29.5h238q131 0 223 -72t92 -192q0 -119 -113 -213q66 -61 108 -150.5t42 -181.5q0 -139 -105.5 -239.5t-254.5 -100.5h-230q-43 0 -72.5 29.5t-29.5 72.5zM266 973v-191h135q69 0 102.5 20.5t33.5 80.5q0 52 -31.5 71t-99.5 19h-140z
M266 606v-430h131q86 0 125 46t39 138q0 81 -23.5 129.5t-97.5 116.5h-174z" />
    <glyph glyph-name="afii10068" unicode="&#x433;" horiz-adv-x="565" 
d="M74 82v965q0 43 29.5 72.5t72.5 29.5h303q37 0 61.5 -25.5t24.5 -62.5t-24.5 -62.5t-61.5 -25.5h-213v-891q0 -41 -28 -69.5t-68 -28.5t-68 28.5t-28 69.5z" />
    <glyph glyph-name="afii10069" unicode="&#x434;" horiz-adv-x="862" 
d="M780 1075v-1095q0 -141 -118 -237.5t-318 -96.5q-37 0 -62.5 25.5t-25.5 62.5t25.5 62.5t62.5 25.5q119 0 182.5 51.5t61.5 126.5h-195q-140 0 -241 120.5t-101 295.5q0 138 58.5 277t149.5 241.5t206.5 166.5t224.5 64q37 0 63.5 -26.5t26.5 -63.5zM588 176v780
q-131 -63 -231.5 -225t-100.5 -315q0 -121 45 -180.5t121 -59.5h166z" />
    <glyph glyph-name="afii10070" unicode="&#x435;" horiz-adv-x="788" 
d="M655 670h-411q0 -110 17 -198.5t53.5 -158t99 -107.5t147.5 -38q37 0 63.5 -28t26.5 -66q0 -37 -26.5 -63.5t-63.5 -26.5q-117 0 -209 44t-147.5 112.5t-91 161.5t-49 181.5t-13.5 182.5q0 144 38.5 255t120 177.5t196.5 66.5q156 0 252 -113.5t96 -283.5
q0 -40 -29.5 -69t-69.5 -29zM406 989q-63 0 -110.5 -41.5t-51.5 -101.5h317q-4 60 -49.5 101.5t-105.5 41.5z" />
    <glyph glyph-name="afii10072" unicode="&#x436;" horiz-adv-x="1216" 
d="M512 78v592h-84q-9 -10 -16 -22t-14.5 -31.5t-12 -31.5t-14.5 -44.5t-15 -48.5l-141 -443q-9 -29 -34.5 -47t-53.5 -18q-40 0 -68 26.5t-28 63.5q0 10 4 26l137 424q6 19 18.5 61t19.5 64t21 52t31 51q-64 55 -115 174l-55 131q-6 12 -6 30q0 32 28 55t66 23
q28 0 55 -18.5t39 -46.5l68 -156q25 -58 57.5 -78t73.5 -20h39v221q0 41 28 69.5t68 28.5t68.5 -28.5t28.5 -69.5v-221h38q41 0 73.5 20t57.5 78l68 156q12 28 39 46.5t55 18.5q38 0 66 -23t28 -55q0 -18 -6 -30l-55 -131q-51 -119 -115 -174q17 -21 31 -51t21 -52t19.5 -64
t18.5 -61l138 -424q4 -16 4 -26q0 -37 -28 -63.5t-68 -26.5q-29 0 -54.5 18t-34.5 47l-141 443q-5 16 -15 48.5t-14.5 44.5t-12 31.5t-14.5 31.5t-16 22h-83v-592q0 -39 -28.5 -66.5t-68.5 -27.5t-68 27t-28 67z" />
    <glyph glyph-name="afii10073" unicode="&#x437;" horiz-adv-x="772" 
d="M713 373q0 -159 -107 -274t-254 -115q-112 0 -207 26q-31 10 -48 33.5t-17 52.5q0 42 33 68.5t69 17.5q82 -22 150 -22q75 0 126.5 60.5t51.5 152.5q0 54 -39 123.5t-104 109.5h-281q-37 0 -61.5 25.5t-24.5 62.5t24.5 62.5t61.5 25.5h262q69 0 102 20.5t33 80.5
q0 56 -32 81t-97 25q-87 0 -145 -20q-32 -13 -41 -13q-37 0 -62.5 24.5t-25.5 59.5q0 34 17 62.5t42 34.5q97 28 217 28q132 0 226 -78.5t94 -199.5q0 -124 -111 -213q69 -55 108.5 -142.5t39.5 -158.5z" />
    <glyph glyph-name="afii10074" unicode="&#x438;" horiz-adv-x="831" 
d="M770 1067v-993q0 -37 -26.5 -63.5t-63.5 -26.5q-123 0 -234.5 56t-191 150.5t-126 223.5t-46.5 270q0 220 70 414q12 32 36 49.5t52 17.5q43 0 70 -34t18 -72q-54 -188 -54 -375q0 -92 37 -191.5t108 -185.5t159 -125v885q0 40 29 69t69 29q38 0 66 -29t28 -69z" />
    <glyph glyph-name="afii10075" unicode="&#x439;" horiz-adv-x="831" 
d="M750 1067v-993q0 -37 -27 -63.5t-64 -26.5q-123 0 -234.5 56t-191 150.5t-126 223.5t-46.5 270q0 220 70 414q12 32 36 49.5t52 17.5q43 0 70 -34t18 -72q-53 -185 -53 -375q0 -144 85.5 -293.5t217.5 -208.5v885q0 40 29 69t69 29q38 0 66.5 -29t28.5 -69zM432 1339
q-62 0 -115.5 19t-103.5 69.5t-78 128.5q-8 32 -8 48q0 29 23 49t55 20q31 0 57.5 -17.5t32.5 -43.5q21 -63 52 -86t85 -23q48 0 80 21.5t55 87.5q7 26 33 43.5t57 17.5q32 0 55 -20t23 -49q0 -16 -8 -48q-38 -109 -122.5 -163t-172.5 -54z" />
    <glyph glyph-name="afii10076" unicode="&#x43a;" horiz-adv-x="774" 
d="M266 670v-588q0 -40 -29 -69t-69 -29q-38 0 -66 29t-28 69v985q0 40 29 69t69 29q38 0 66 -29t28 -69v-221h39q41 0 73.5 20t57.5 78l68 156q12 28 39 46.5t55 18.5q38 0 66 -23t28 -55q0 -18 -6 -30l-55 -131q-51 -119 -115 -174q17 -21 31 -51t21 -52t19.5 -64
t18.5 -61l137 -424q5 -20 5 -26q0 -37 -28.5 -63.5t-68.5 -26.5q-28 0 -53.5 18t-34.5 47l-141 443q-5 16 -15 48.5t-14.5 44.5t-12 31.5t-14.5 31.5t-16 22h-84z" />
    <glyph glyph-name="afii10077" unicode="&#x43b;" horiz-adv-x="763" 
d="M461 1149q35 0 59.5 -26.5t30.5 -63.5l180 -973q7 -42 -19 -72t-69 -30q-31 0 -57.5 17.5t-30.5 47.5l-154 928h-39l-153 -928q-16 -65 -88 -65q-42 0 -69.5 33t-18.5 69l186 973q5 37 30 63.5t60 26.5h152z" />
    <glyph glyph-name="afii10078" unicode="&#x43c;" horiz-adv-x="1228" 
d="M999 51l-98 875l-205 -342q-13 -19 -36 -32t-42 -13q-22 0 -45.5 13t-35.5 32l-213 342l-95 -875q-3 -28 -30.5 -47.5t-61.5 -19.5q-43 0 -69.5 31t-22.5 75l102 959q6 47 41.5 81.5t79.5 34.5q41 0 84.5 -21t63.5 -50l200 -346l199 346q20 29 63.5 50t84.5 21
q44 0 79 -34t41 -82l101 -959q4 -44 -22.5 -75t-69.5 -31q-34 0 -62 20t-31 47z" />
    <glyph glyph-name="afii10079" unicode="&#x43d;" horiz-adv-x="835" 
d="M74 82v985q0 40 29 69t69 29q38 0 66 -29t28 -69v-221h303v221q0 40 29.5 69t69.5 29q38 0 66 -29t28 -69v-985q0 -40 -29 -69t-69 -29q-38 0 -66.5 29t-28.5 69v588h-303v-588q0 -40 -29 -69t-69 -29q-38 0 -66 29t-28 69z" />
    <glyph glyph-name="afii10080" unicode="&#x43e;" horiz-adv-x="884" 
d="M442 -16q-86 0 -151 32t-108.5 90t-71 147.5t-39 196.5t-11.5 244q0 98 20.5 180t64 148.5t119 104.5t177.5 38q104 0 180 -38t118.5 -105.5t62.5 -149t20 -180.5q0 -152 -19.5 -274.5t-62 -222.5t-118.5 -155.5t-181 -55.5zM442 989q-97 0 -136.5 -72.5t-39.5 -224.5
q0 -91 2.5 -157.5t9.5 -130t19.5 -106t31.5 -75t47 -48t66 -15.5q55 0 90.5 34t54 107.5t25 163t6.5 227.5q0 153 -39 225t-137 72z" />
    <glyph glyph-name="afii10081" unicode="&#x43f;" horiz-adv-x="831" 
d="M82 82v977q0 37 26.5 63.5t63.5 26.5h78q70 0 140 -14.5t139 -48t122 -82t86 -122.5t33 -163v-637q0 -40 -29 -69t-69 -29q-38 0 -66 29t-28 69v614q0 102 -81.5 180t-222.5 85v-879q0 -40 -29 -69t-69 -29q-38 0 -66 29t-28 69z" />
    <glyph glyph-name="afii10082" unicode="&#x440;" horiz-adv-x="862" 
d="M82 -256v1331q0 37 26.5 63.5t63.5 26.5q115 0 233 -69t207 -175.5t145 -242t56 -262.5q0 -86 -38.5 -165.5t-99 -133t-132.5 -85.5t-140 -32h-129v-256q0 -40 -29 -69t-69 -29q-38 0 -66 29t-28 69zM608 416q0 153 -101.5 315.5t-232.5 224.5v-780h109q38 0 76.5 14.5
t72.5 42.5t55 76t21 107z" />
    <glyph glyph-name="afii10083" unicode="&#x441;" horiz-adv-x="696" 
d="M246 668q0 -136 33 -251t90.5 -182t124.5 -67q37 0 63.5 -28t26.5 -66q0 -37 -26.5 -63.5t-63.5 -26.5q-123 0 -227.5 91t-165 248.5t-60.5 342.5q0 499 379 499q69 0 194 -32q28 -7 46 -31t18 -51q0 -41 -30.5 -65.5t-67.5 -16.5q-90 20 -177 20q-50 0 -83 -26
t-53.5 -99t-20.5 -196z" />
    <glyph glyph-name="afii10084" unicode="&#x442;" horiz-adv-x="765" 
d="M287 82v891h-201q-37 0 -61.5 25.5t-24.5 62.5t24.5 62.5t61.5 25.5h594q37 0 61.5 -25.5t24.5 -62.5t-24.5 -62.5t-61.5 -25.5h-201v-891q0 -41 -28 -69.5t-68 -28.5t-68 28.5t-28 69.5z" />
    <glyph glyph-name="afii10085" unicode="&#x443;" horiz-adv-x="770" 
d="M57 1059q-4 8 -4 22q0 35 28.5 59.5t68.5 24.5q25 0 47.5 -14.5t33.5 -36.5l181 -407l143 407q11 22 34 36.5t48 14.5q40 0 68 -24.5t28 -59.5q0 -14 -4 -22l-467 -1362q-8 -25 -31.5 -38t-50.5 -13q-40 0 -68 24.5t-28 59.5q0 14 4 22l234 717z" />
    <glyph glyph-name="afii10086" unicode="&#x444;" horiz-adv-x="1138" 
d="M473 1165v410q0 40 29 69t69 29q38 0 66.5 -29t28.5 -69v-410q111 0 194.5 -38t131.5 -105.5t71.5 -149.5t23.5 -180q0 -147 -25.5 -273.5t-76 -224.5t-132.5 -154t-187 -56v-240q0 -41 -28.5 -69.5t-68.5 -28.5t-68 28.5t-28 69.5v240q-105 0 -187 56t-132.5 154
t-76.5 224.5t-26 273.5q0 97 23.5 180t72 150t132 105t194.5 38zM666 989v-829q217 0 217 532q0 144 -57 220.5t-160 76.5zM473 989q-103 0 -160 -76.5t-57 -220.5q0 -532 217 -532v829z" />
    <glyph glyph-name="afii10087" unicode="&#x445;" horiz-adv-x="782" 
d="M391 797l141 319q9 20 32 34.5t46 14.5q38 0 65 -23t27 -57q0 -14 -4 -22l-202 -438l241 -539q4 -8 4 -23q0 -33 -27.5 -56t-66.5 -23q-23 0 -47 14.5t-33 34.5l-176 409l-176 -409q-9 -20 -33 -34.5t-47 -14.5q-39 0 -66.5 23t-27.5 56q0 15 4 23l242 539l-203 438
q-4 8 -4 22q0 34 27 57t65 23q23 0 46 -14.5t32 -34.5z" />
    <glyph glyph-name="afii10088" unicode="&#x446;" horiz-adv-x="890" 
d="M82 102v965q0 40 29 69t69 29q38 0 66 -29t28 -69v-891h304v891q0 40 29 69t69 29q38 0 66 -29t28 -69v-891q37 0 63.5 -30t26.5 -72v-342q0 -37 -24.5 -61.5t-61.5 -24.5t-61.5 24.5t-24.5 61.5v268h-504q-43 0 -72.5 29.5t-29.5 72.5z" />
    <glyph glyph-name="afii10089" unicode="&#x447;" horiz-adv-x="821" 
d="M739 1067v-985q0 -40 -29 -69t-69 -29q-38 0 -66 29t-28 69v317h-45q-120 0 -225 57t-165.5 149.5t-60.5 193.5v268q0 40 29.5 69t69.5 29q38 0 66 -29t28 -69v-254q0 -101 69 -169.5t172 -68.5h62v492q0 40 29 69t69 29q38 0 66 -29t28 -69z" />
    <glyph glyph-name="afii10090" unicode="&#x448;" horiz-adv-x="1208" 
d="M1135 1067v-969q0 -40 -28.5 -69t-66.5 -29h-864q-43 0 -72.5 29.5t-29.5 72.5v965q0 40 29 69t69 29q38 0 66 -29t28 -69v-891h242v891q0 40 29 69t69 29q38 0 66 -29t28 -69v-891h242v891q0 40 29 69t69 29q38 0 66.5 -29t28.5 -69z" />
    <glyph glyph-name="afii10091" unicode="&#x449;" horiz-adv-x="1251" 
d="M1135 1067v-891q37 0 63.5 -30t26.5 -72v-342q0 -37 -24.5 -61.5t-61.5 -24.5t-61.5 24.5t-24.5 61.5v268h-877q-43 0 -72.5 29.5t-29.5 72.5v965q0 40 29 69t69 29q38 0 66 -29t28 -69v-891h242v891q0 40 29 69t69 29q38 0 66 -29t28 -69v-891h242v891q0 40 29 69t69 29
q38 0 66.5 -29t28.5 -69z" />
    <glyph glyph-name="afii10092" unicode="&#x44a;" horiz-adv-x="870" 
d="M166 98v875h-80q-37 0 -61.5 25.5t-24.5 62.5t24.5 62.5t61.5 25.5h178q38 0 66 -29t28 -69v-197q87 -6 174 -60.5t148.5 -130t100 -159.5t38.5 -150q0 -147 -97 -250.5t-243 -103.5h-219q-38 0 -66 29t-28 69zM358 670v-494h88q87 0 128.5 44t41.5 134q0 39 -18 89.5
t-49 99.5t-82 85t-109 42z" />
    <glyph glyph-name="afii10093" unicode="&#x44b;" horiz-adv-x="1083" 
d="M82 98v969q0 40 29 69t69 29q38 0 66 -29t28 -69v-213q87 -6 174 -60.5t148.5 -130t100 -159.5t38.5 -150q0 -147 -97 -250.5t-243 -103.5h-219q-38 0 -66 29t-28 69zM274 670v-494h88q87 0 128.5 44t41.5 134q0 39 -18 89.5t-49 99.5t-82 85t-109 42zM809 82v985
q0 40 29 69t69 29q38 0 66 -29t28 -69v-985q0 -40 -29 -69t-69 -29q-38 0 -66 29t-28 69z" />
    <glyph glyph-name="afii10094" unicode="&#x44c;" horiz-adv-x="786" 
d="M82 98v969q0 40 29 69t69 29q38 0 66 -29t28 -69v-213q87 -6 174 -60.5t148.5 -130t100 -159.5t38.5 -150q0 -147 -97 -250.5t-243 -103.5h-219q-38 0 -66 29t-28 69zM274 670v-494h88q87 0 128.5 44t41.5 134q0 39 -18 89.5t-49 99.5t-82 85t-109 42z" />
    <glyph glyph-name="afii10095" unicode="&#x44d;" horiz-adv-x="794" 
d="M96 846h422q-11 73 -55.5 108t-102.5 35q-86 0 -176 -20q-37 -8 -67.5 16.5t-30.5 65.5q0 27 18 51t46 31q125 32 194 32q379 0 379 -499q0 -185 -60.5 -342.5t-165 -248.5t-227.5 -91q-37 0 -63.5 26.5t-26.5 63.5q0 38 26.5 66t63.5 28q67 0 124.5 67t90.5 182t33 251
v2h-422q-37 0 -61.5 25.5t-24.5 62.5t24.5 62.5t61.5 25.5z" />
    <glyph glyph-name="afii10096" unicode="&#x44e;" horiz-adv-x="1136" 
d="M705 -16q-95 0 -168 56t-116.5 153.5t-65 217.5t-21.5 259h-68v-588q0 -40 -29 -69t-69 -29q-38 0 -66 29t-28 69v985q0 40 29 69t69 29q38 0 66 -29t28 -69v-221h68q3 130 110.5 224.5t260.5 94.5q104 0 180 -38t119 -105.5t63 -149.5t20 -180q0 -152 -19.5 -274.5
t-62.5 -222.5t-119 -155.5t-181 -55.5zM705 160q37 0 65 15.5t47.5 48t32.5 75.5t20 105.5t10 130t3 157.5q0 152 -40 224.5t-138 72.5q-97 0 -137 -72.5t-40 -224.5q0 -110 4 -186.5t15 -146t30 -110.5t51 -65t77 -24z" />
    <glyph glyph-name="afii10097" unicode="&#x44f;" horiz-adv-x="788" 
d="M514 82v588h-123q-31 -21 -51.5 -59.5t-27 -68t-11.5 -73.5l-43 -383q-4 -43 -34 -72.5t-68 -29.5q-46 0 -75.5 30t-23.5 72l54 416q5 42 29 94t59 90q-78 40 -113 99t-35 143q0 93 74 157t190 64h297q38 0 66.5 -29t28.5 -69v-969q0 -40 -29.5 -69t-69.5 -29
q-38 0 -66 29t-28 69zM514 846v127h-205q-27 0 -44 -17.5t-17 -42.5q0 -28 24.5 -47.5t59.5 -19.5h182z" />
    <glyph glyph-name="afii10071" unicode="&#x451;" horiz-adv-x="823" 
d="M276 1673q47 0 82 -35t35 -82t-35 -81.5t-82 -34.5t-81.5 34.5t-34.5 81.5t34.5 82t81.5 35zM553 1673q47 0 82 -35t35 -82t-35 -81.5t-82 -34.5t-82 34.5t-35 81.5t35 82t82 35zM659 670h-411q0 -110 17 -198.5t53.5 -158t99 -107.5t147.5 -38q37 0 63.5 -28t26.5 -66
q0 -37 -26.5 -63.5t-63.5 -26.5q-117 0 -209 44t-147.5 112.5t-91 161.5t-49 181.5t-13.5 182.5q0 144 38.5 255t120 177.5t196.5 66.5q156 0 252 -113.5t96 -283.5q0 -40 -29.5 -69t-69.5 -29zM410 989q-63 0 -110.5 -41.5t-51.5 -101.5h317q-4 60 -49.5 101.5t-105.5 41.5
z" />
    <glyph glyph-name="afii10100" unicode="&#x453;" horiz-adv-x="831" 
d="M512 1149h141q37 0 61.5 -25.5t24.5 -62.5t-24.5 -62.5t-61.5 -25.5h-174l-231 -1051q-25 -110 -113.5 -193t-185.5 -83h-60q-37 0 -61.5 25.5t-24.5 62.5t24.5 62.5t61.5 25.5h62q34 0 64.5 31.5t39.5 76.5l232 1043h-111q-37 0 -61.5 25.5t-24.5 62.5t24.5 62.5
t61.5 25.5h148l53 248q25 110 113.5 193t185.5 83h69q37 0 61.5 -25.5t24.5 -62.5t-24.5 -62.5t-61.5 -25.5h-71q-34 0 -64.5 -30t-40.5 -74z" />
    <glyph glyph-name="afii10101" unicode="&#x454;" horiz-adv-x="595" 
d="M299 936q-130 0 -184 113t-54 329q0 129 58 212t180 83q64 0 111.5 -24t74 -66.5t38.5 -93.5t12 -113q0 -93 -12 -169t-38 -138.5t-73.5 -97.5t-112.5 -35zM299 1071q24 0 40.5 12.5t26.5 35t15.5 62t7.5 84t2 111.5q0 91 -19 126.5t-73 35.5t-74 -36.5t-20 -125.5
q0 -167 18 -236t76 -69z" />
    <glyph glyph-name="afii10102" unicode="&#x455;" horiz-adv-x="1515" 
d="M317 686q-90 0 -170 16q-27 6 -46 31t-19 55q0 29 21 47.5t51 18.5q15 0 39 -6q82 -19 135 -19q65 0 99 45t34 111q0 64 -22.5 109t-71.5 90h-125q-29 0 -50.5 21t-21.5 50t21.5 50.5t50.5 21.5h80q59 0 83.5 26.5t24.5 80.5q0 96 -78 96h-13.5t-13 -1t-10.5 -1.5t-11 -2
t-9.5 -2t-10 -3t-10 -3t-12 -4t-12.5 -4.5q-6 -2 -37 -2q-29 0 -48.5 18t-19.5 46q0 27 17.5 49.5t44.5 30.5q73 22 145 22q71 0 122 -20t77.5 -55t38.5 -74t12 -86q0 -114 -84 -185q41 -40 76 -117.5t35 -144.5q0 -126 -91.5 -215.5t-220.5 -89.5zM1194 -29
q-35 0 -60.5 25.5t-25.5 60.5v166h-256q-25 0 -43 18.5t-18 41.5q0 46 16 82l248 542q15 31 53 52.5t78 21.5t69 -28t29 -66v-525h84q26 0 46 -21t20 -50q0 -28 -20 -48t-46 -20h-84v-166q0 -35 -26.5 -60.5t-63.5 -25.5zM1108 362v291l-131 -291h131zM535 -29
q-34 0 -58 23.5t-24 58.5q0 13 6 31l442 1501q10 35 34.5 61.5t55.5 26.5q34 0 57 -23.5t23 -58.5q0 -13 -6 -28l-442 -1504q-10 -35 -33.5 -61.5t-54.5 -26.5z" />
    <glyph glyph-name="afii10103" unicode="&#x456;" horiz-adv-x="665" 
d="M274 686q-90 0 -170 16q-27 6 -46 31t-19 55q0 29 21 47.5t51 18.5q15 0 39 -6q82 -19 135 -19q65 0 99 45t34 111q0 64 -22.5 109t-71.5 90h-125q-29 0 -50.5 21t-21.5 50t21.5 50.5t50.5 21.5h80q59 0 83.5 26.5t24.5 80.5q0 96 -78 96q-41 0 -102 -21q-6 -2 -37 -2
q-29 0 -48.5 18t-19.5 46q0 27 17.5 49.5t44.5 30.5q73 22 145 22q71 0 122 -20t77.5 -55t38.5 -74t12 -86q0 -114 -84 -185q41 -40 76 -117.5t35 -144.5q0 -126 -91.5 -215.5t-220.5 -89.5z" />
    <glyph glyph-name="afii10104" unicode="&#x457;" horiz-adv-x="870" 
d="M473 1165q51 0 87 -36t36 -87t-36 -86.5t-87 -35.5t-87 35.5t-36 86.5q0 52 36 87.5t87 35.5zM399 -354q-152 0 -257 101t-105 253q0 83 18.5 153t48.5 119t66 93t72 85.5t66 85.5t48.5 104t18.5 130q0 43 29.5 72.5t72.5 29.5t73 -29.5t30 -72.5q0 -76 -19 -142.5
t-48.5 -116t-66 -96t-73 -91t-66 -91t-48.5 -106.5t-19 -127q0 -60 47.5 -113t111.5 -53q210 0 285 41q30 12 45 12q38 0 65 -27t27 -65q0 -37 -18.5 -67.5t-44.5 -36.5q-60 -19 -165 -32t-194 -13z" />
    <glyph glyph-name="afii10105" unicode="&#x458;" horiz-adv-x="1402" 
d="M416 -29q-34 0 -58 23.5t-24 58.5q0 13 6 31l442 1501q10 35 34.5 61.5t55.5 26.5q34 0 57 -23.5t23 -58.5q0 -13 -6 -28l-442 -1504q-10 -35 -33.5 -61.5t-54.5 -26.5zM371 670q-35 0 -59.5 25.5t-24.5 62.5v663l-76 -57q-21 -16 -55 -16q-31 0 -52.5 18.5t-21.5 46.5
q0 21 11.5 44t29.5 38l170 133q3 2 12.5 9.5t13 10t12 8t13.5 7.5l12.5 5t15 4t15.5 1q29 0 51.5 -22.5t22.5 -53.5v-839q0 -37 -26.5 -62.5t-63.5 -25.5zM1081 -29q-35 0 -60.5 25.5t-25.5 60.5v166h-256q-25 0 -43 18.5t-18 41.5q0 46 16 82l248 542q15 31 53 52.5
t78 21.5t69 -28t29 -66v-525h84q26 0 46 -21t20 -50q0 -28 -20 -48t-46 -20h-84v-166q0 -35 -26.5 -60.5t-63.5 -25.5zM995 362v291l-131 -291h131z" />
    <glyph glyph-name="afii10110" unicode="&#x45e;" horiz-adv-x="706" 
d="M266 668q0 -136 33 -251t90.5 -182t124.5 -67q37 0 63.5 -28t26.5 -66q0 -37 -26.5 -63.5t-63.5 -26.5q-88 0 -170 51l-27 -92q-10 -35 -33.5 -61.5t-54.5 -26.5q-34 0 -58 23.5t-24 58.5q0 9 7 30l57 195q-71 96 -110.5 226t-39.5 278q0 488 361 499l29 92
q10 35 34.5 62t55.5 27q34 0 57 -23.5t23 -58.5q0 -6 -3 -16t-4 -13l-26 -90q8 -2 23.5 -6t23.5 -6q28 -7 45.5 -31t17.5 -51q0 -41 -30.5 -65.5t-67.5 -16.5q-90 20 -176 20q-50 0 -83 -26t-54 -99t-21 -196z" />
    <glyph glyph-name="afii10050" unicode="&#x490;" horiz-adv-x="950" 
d="M94 922h328q4 10 13.5 30.5t13.5 30.5q-57 37 -93 64t-83.5 74t-80.5 99.5t-68.5 133t-64.5 182.5q-4 20 -4 49q0 36 29 62t68 26q42 0 77.5 -25t42.5 -63q22 -102 58.5 -176.5t81 -126t123.5 -121.5l184 441q12 32 46.5 51.5t78.5 19.5q32 0 58 -25t26 -59q0 -11 -8 -39
l-240 -551q-22 -49 -33 -77h213q37 0 61.5 -25.5t24.5 -62.5t-25 -63t-61 -26h-282q-30 -81 -43 -127h325q37 0 61.5 -25.5t24.5 -62.5t-24.5 -62.5t-61.5 -25.5h-368q-35 -172 -35 -368q0 -43 -30 -73t-73 -30t-72.5 30t-29.5 73q0 215 24 368h-182q-37 0 -61.5 25.5
t-24.5 62.5t24.5 62.5t61.5 25.5h219q19 67 41 127h-260q-36 0 -61 26t-25 63t24.5 62.5t61.5 25.5z" />
    <glyph glyph-name="endash" unicode="&#x2013;" horiz-adv-x="1261" 
d="M1135 647h-1008q-37 0 -61.5 25.5t-24.5 62.5t24.5 62.5t61.5 25.5h1008q37 0 61.5 -25.5t24.5 -62.5t-24.5 -62.5t-61.5 -25.5z" />
    <glyph glyph-name="emdash" unicode="&#x2014;" horiz-adv-x="1982" 
d="M1835 764h-1708q-37 0 -61.5 25.5t-24.5 62.5t24.5 62.5t61.5 25.5h1708q37 0 61.5 -25.5t24.5 -62.5t-24.5 -62.5t-61.5 -25.5z" />
    <glyph glyph-name="quoteleft" unicode="&#x2018;" horiz-adv-x="368" 
d="M217 1673q31 0 52.5 -16t21.5 -39q0 -17 -12 -57l-50 -158q34 -14 56 -45.5t22 -69.5q0 -52 -36 -87.5t-87 -35.5t-87 36t-36 87q0 14 9 41l84 281q7 25 27 44t36 19z" />
    <glyph glyph-name="quoteright" unicode="&#x2019;" horiz-adv-x="368" 
d="M184 1673q51 0 87 -36t36 -87q0 -17 -8 -41l-84 -280q-10 -26 -29 -45t-34 -19q-31 0 -52.5 16.5t-21.5 39.5q0 11 12 57l49 158q-34 14 -56 45t-22 69q0 52 36 87.5t87 35.5z" />
    <glyph glyph-name="quotesinglbase" unicode="&#x201a;" horiz-adv-x="368" 
d="M184 209q51 0 87 -36t36 -87q0 -17 -8 -41l-84 -281q-10 -26 -29 -44.5t-34 -18.5q-31 0 -52.5 16t-21.5 39q0 12 12 58l49 157q-34 14 -56 45.5t-22 69.5q0 52 36 87.5t87 35.5z" />
    <glyph glyph-name="quotedblleft" unicode="&#x201c;" horiz-adv-x="663" 
d="M217 1673q31 0 52.5 -16t21.5 -39q0 -17 -12 -57l-50 -158q34 -14 56 -45.5t22 -69.5q0 -52 -36 -87.5t-87 -35.5t-87 36t-36 87q0 14 9 41l84 281q7 25 27 44t36 19zM512 1673q31 0 52.5 -16t21.5 -39q0 -14 -13 -57l-49 -158q34 -14 56 -45.5t22 -69.5q0 -52 -36 -87.5
t-87 -35.5t-87 36t-36 87q0 14 9 41l84 281q7 25 27 44t36 19z" />
    <glyph glyph-name="quotedblright" unicode="&#x201d;" horiz-adv-x="663" 
d="M184 1673q51 0 87 -36t36 -87q0 -17 -8 -41l-84 -280q-10 -26 -29 -45t-34 -19q-31 0 -52.5 16.5t-21.5 39.5q0 11 12 57l49 158q-34 14 -56 45t-22 69q0 52 36 87.5t87 35.5zM479 1673q51 0 87 -36t36 -87q0 -17 -8 -41l-84 -280q-10 -26 -29.5 -45t-34.5 -19
q-31 0 -52 16.5t-21 39.5q0 11 12 57l49 158q-34 14 -56 45t-22 69q0 52 36 87.5t87 35.5z" />
    <glyph glyph-name="quotedblbase" unicode="&#x201e;" horiz-adv-x="698" 
d="M205 209q51 0 87 -36t36 -87q0 -14 -9 -41l-83 -281q-10 -26 -29.5 -44.5t-34.5 -18.5q-31 0 -52.5 16t-21.5 39q0 8 13 58l49 157q-34 14 -56 45.5t-22 69.5q0 52 36 87.5t87 35.5zM494 209q51 0 86.5 -36t35.5 -87q0 -17 -8 -41l-84 -281q-10 -26 -29 -44.5t-34 -18.5
q-31 0 -52.5 16t-21.5 39q0 12 12 58l50 157q-34 14 -56 45.5t-22 69.5q0 52 36 87.5t87 35.5z" />
    <glyph glyph-name="dagger" unicode="&#x2020;" horiz-adv-x="765" 
d="M287 -256v1229h-181q-37 0 -61.5 25.5t-24.5 62.5t24.5 62.5t61.5 25.5h181v426q0 40 29 69t69 29q38 0 66 -29t28 -69v-426h180q37 0 61.5 -25.5t24.5 -62.5t-24.5 -62.5t-61.5 -25.5h-180v-1229q0 -40 -29 -69t-69 -29q-38 0 -66 29t-28 69z" />
    <glyph glyph-name="daggerdbl" unicode="&#x2021;" horiz-adv-x="765" 
d="M287 846v127h-181q-37 0 -61.5 25.5t-24.5 62.5t24.5 62.5t61.5 25.5h181v426q0 40 29 69t69 29q38 0 66 -29t28 -69v-426h180q37 0 61.5 -25.5t24.5 -62.5t-24.5 -62.5t-61.5 -25.5h-180v-127h180q37 0 61.5 -25.5t24.5 -62.5t-24.5 -62.5t-61.5 -25.5h-180v-926
q0 -40 -29 -69t-69 -29q-38 0 -66 29t-28 69v926h-181q-37 0 -61.5 25.5t-24.5 62.5t24.5 62.5t61.5 25.5h181z" />
    <glyph glyph-name="bullet" unicode="&#x2022;" horiz-adv-x="548" 
d="M274 473q-70 0 -116.5 45.5t-46.5 114.5t46.5 114.5t116.5 45.5q71 0 117.5 -45.5t46.5 -114.5t-46.5 -114.5t-117.5 -45.5z" />
    <glyph glyph-name="ellipsis" unicode="&#x2026;" horiz-adv-x="1064" 
d="M205 229q51 0 87 -36t36 -87t-36 -86.5t-87 -35.5t-87 35.5t-36 86.5q0 52 36 87.5t87 35.5zM532 229q51 0 87 -36t36 -87t-36 -86.5t-87 -35.5t-86.5 35.5t-35.5 86.5q0 52 35.5 87.5t86.5 35.5zM860 229q51 0 87 -36t36 -87t-36 -86.5t-87 -35.5t-87 35.5t-36 86.5
q0 52 36 87.5t87 35.5z" />
    <glyph glyph-name="perthousand" unicode="&#x2030;" horiz-adv-x="1918" 
d="M432 -29q-34 0 -58 23.5t-24 58.5q0 13 6 31l443 1501q10 35 34.5 61.5t55.5 26.5q34 0 57 -23.5t23 -58.5q0 -13 -6 -28l-443 -1504q-10 -35 -33.5 -61.5t-54.5 -26.5zM999 -29q-123 0 -199.5 125.5t-76.5 370.5q0 91 16 159t41.5 108t63.5 64t74 32t81 8q36 0 67 -5.5
t64 -20t58 -41.5t45.5 -66.5t31.5 -100t11 -137.5q0 -244 -77 -370t-200 -126zM999 115q119 0 119 352q0 78 -8 126t-26.5 69t-36 26.5t-48.5 5.5q-34 0 -52 -5t-35.5 -26.5t-24 -68.5t-6.5 -127q0 -181 28.5 -266.5t89.5 -85.5zM328 807q-123 0 -200 126t-77 370
q0 91 16.5 159t42 107.5t63 63.5t74 32t81.5 8q44 0 80 -7.5t74 -31.5t63.5 -63.5t42 -107.5t16.5 -160q0 -245 -76.5 -370.5t-199.5 -125.5zM328 950q118 0 118 353q0 78 -8 126t-26.5 69t-36 26.5t-47.5 5.5q-35 0 -52.5 -5t-35.5 -26.5t-24.5 -68.5t-6.5 -127
q0 -181 29 -267t90 -86zM1591 -29q-123 0 -199.5 125.5t-76.5 370.5q0 91 16 159t41.5 108t63.5 64t74 32t81 8q36 0 67 -5.5t64 -20t58 -41.5t45.5 -66.5t31.5 -100t11 -137.5q0 -244 -77 -370t-200 -126zM1591 115q119 0 119 352q0 78 -8 126t-26.5 69t-36 26.5t-48.5 5.5
q-34 0 -52 -5t-35.5 -26.5t-24 -68.5t-6.5 -127q0 -181 28.5 -266.5t89.5 -85.5z" />
    <glyph glyph-name="Euro" unicode="&#x20ac;" 
d="M897 1354h-41q-12 107 -67.5 161t-145.5 54q-133 0 -197.5 -145.5t-80.5 -434.5h442l-29 -92h-416v-74v-78h367l-29 -92h-335q12 -283 82.5 -430t197.5 -147q82 0 140 52.5t71 162.5h41l-10 -189q-39 -61 -106.5 -95t-182.5 -34q-205 0 -312 169.5t-126 510.5h-125l26 92
h91q-2 20 -2 82q0 47 2 70h-117l26 92h95q24 348 126.5 516t315.5 168q206 0 289 -125z" />
    <glyph glyph-name="afii61352" unicode="&#x2116;" horiz-adv-x="1669" 
d="M1311 188q-123 0 -200 126t-77 370q0 91 16.5 159t42 108t63 64t74 32t81.5 8q36 0 67 -5.5t63.5 -20t57.5 -41.5t45.5 -66.5t31.5 -100t11 -137.5q0 -245 -76.5 -370.5t-199.5 -125.5zM1311 332q119 0 119 352q0 78 -8 126t-26.5 69t-36 26.5t-48.5 5.5q-35 0 -52.5 -5
t-35.5 -26.5t-24.5 -68.5t-6.5 -127q0 -180 29 -266t90 -86zM1112 152h397q32 0 55 -23t23 -55q0 -30 -23 -52t-55 -22h-397q-32 0 -55 23t-23 55q0 30 23 52t55 22zM754 758l-465 588v-1272q0 -43 -30 -73t-73 -30t-72.5 30t-29.5 73v1509q0 37 29 63.5t69 26.5
q29 0 65 -18.5t56 -44.5l451 -559v520q0 43 29.5 72.5t72.5 29.5t72.5 -29.5t29.5 -72.5v-1497q0 -43 -29.5 -73t-72.5 -30t-72.5 30t-29.5 73v684z" />
    <glyph glyph-name="trademark" unicode="&#x2122;" horiz-adv-x="1538" 
d="M293 1507h-143q-28 0 -48 19.5t-20 48.5q0 28 20 49t48 21h432q27 0 47 -21t20 -49q0 -29 -19.5 -48.5t-47.5 -19.5h-144v-770q0 -28 -19.5 -47.5t-47.5 -19.5h-11q-28 0 -47.5 19.5t-19.5 47.5v770zM733 1583q-19 28 15.5 54t70.5 26q29 0 58 -13t43 -36l129 -199
l137 201q14 22 38.5 34.5t49.5 12.5q28 0 52.5 -20.5t27.5 -51.5l94 -846q3 -30 -17.5 -52.5t-50.5 -22.5q-34 0 -55.5 17t-24.5 44l-73 715l-109 -162q-11 -19 -32 -31t-37 -12q-43 0 -72 43l-115 166l-74 -719q-3 -27 -23 -44t-52 -17q-29 0 -50 22t-18 51z" />
    <glyph glyph-name="quilsinglleft" horiz-adv-x="460" 
d="M399 426q0 -26 -20 -45.5t-49 -20.5q-29 -3 -49 17l-185 180q-14 14 -24.5 39t-10.5 45t10.5 44t24.5 38l185 178q20 20 51 17q27 -2 47 -20.5t20 -45.5q0 -41 -20 -61l-162 -154l160 -150q22 -22 22 -61z" />
    <glyph glyph-name="quilsinglright" horiz-adv-x="460" 
d="M59 426q0 38 23 61l160 150l-162 154q-21 21 -21 61q0 27 20.5 45.5t47.5 20.5q31 3 51 -17l184 -178q14 -14 24.5 -38t10.5 -44t-10.5 -45t-24.5 -39l-184 -180q-20 -20 -49 -17q-29 2 -49.5 21t-20.5 45z" />
    </font>
</defs>
</svg>
