<svg xmlns="http://www.w3.org/2000/svg" width="56" height="56" viewBox="0 0 56 56">
  <defs>
    <style>
      .cls-1 {
        fill: #333;
        fill-rule: evenodd;
      }
    </style>
  </defs>
  <path id="email" class="cls-1" d="M777.9,533.411a1.974,1.974,0,0,1,.1.588v36a2,2,0,0,1-2,2H724a2,2,0,0,1-2-2V534a1.962,1.962,0,0,1,.105-0.61,0.973,0.973,0,0,1,1.3-1.29,1.984,1.984,0,0,1,.6-0.1h52a1.961,1.961,0,0,1,.615.107,0.966,0.966,0,0,1,1.262.393A1,1,0,0,1,777.9,533.411ZM740.436,549.47L725.111,570h49.778l-15.328-20.534-8.745,7.6a0.98,0.98,0,0,1-.669.411,0.849,0.849,0,0,1-.133.009,0.972,0.972,0,0,1-.2-0.014,0.939,0.939,0,0,1-.231-0.078c-0.025-.012-0.052-0.011-0.076-0.025l-0.032-.028a0.95,0.95,0,0,1-.2-0.175ZM724,568.44l15.056-20.17L724,535.165V568.44ZM725.651,534L750,555.189,774.387,534H725.651ZM776,535.184l-15.059,13.082L776,568.44V535.184Z" transform="translate(-722 -524)"/>
</svg>
