<svg xmlns="http://www.w3.org/2000/svg" width="60" height="60" viewBox="0 0 60 60">
  <metadata><?xpacket begin="﻿" id="W5M0MpCehiHzreSzNTczkc9d"?>
<x:xmpmeta xmlns:x="adobe:ns:meta/" x:xmptk="Adobe XMP Core 5.6-c138 79.159824, 2016/09/14-01:09:01        ">
   <rdf:RDF xmlns:rdf="http://www.w3.org/1999/02/22-rdf-syntax-ns#">
      <rdf:Description rdf:about=""/>
   </rdf:RDF>
</x:xmpmeta>
                                                                                                    
                                                                                                    
                                                                                                    
                                                                                                    
                                                                                                    
                                                                                                    
                                                                                                    
                                                                                                    
                                                                                                    
                                                                                                    
                                                                                                    
                                                                                                    
                                                                                                    
                                                                                                    
                                                                                                    
                                                                                                    
                                                                                                    
                                                                                                    
                                                                                                    
                                                                                                    
                           
<?xpacket end="w"?></metadata>
<defs>
    <style>
      .cls-1 {
        fill: #222;
        fill-rule: evenodd;
      }
    </style>
  </defs>
  <path id="icon_no_result_medium_" data-name="icon_no result(medium)" class="cls-1" d="M800,600a28,28,0,1,1,28-28A28,28,0,0,1,800,600Zm0-54a26,26,0,1,0,26,26A26,26,0,0,0,800,546ZM799.994,585a2.005,2.005,0,1,1,1.993-2A2,2,0,0,1,799.994,585Zm0-6.648A1.834,1.834,0,0,1,798,576.742V560.607a2.038,2.038,0,0,1,3.987,0v16.135A1.835,1.835,0,0,1,799.994,578.356Z" transform="translate(-770 -542)"/>
</svg>
