<svg xmlns="http://www.w3.org/2000/svg" width="20" height="20" viewBox="0 0 20 20">
  <defs>
    <style>
      .cls-1 {
        fill: #6b6b6b;
        fill-rule: evenodd;
      }
    </style>
  </defs>
  <path id="print" class="cls-1" d="M910,1181h-2v1a2.006,2.006,0,0,1-2,2h-8a2.006,2.006,0,0,1-2-2v-1h-2a2.006,2.006,0,0,1-2-2v-6a2.006,2.006,0,0,1,2-2h2v-3a2.006,2.006,0,0,1,2-2h8a2.006,2.006,0,0,1,2,2v2.98l-0.323.02H910a2.006,2.006,0,0,1,2,2v6A2.006,2.006,0,0,1,910,1181Zm-12.5,1a0.507,0.507,0,0,0,.5.5h8a0.507,0.507,0,0,0,.5-0.5v-5a0.507,0.507,0,0,0-.5-0.5h-8a0.507,0.507,0,0,0-.5.5v5Zm9-14a0.507,0.507,0,0,0-.5-0.5h-8a0.507,0.507,0,0,0-.5.5v3h9v-3Zm4,5a0.507,0.507,0,0,0-.5-0.5H894a0.507,0.507,0,0,0-.5.5v6a0.507,0.507,0,0,0,.5.5h2V1177a2.006,2.006,0,0,1,2-2h8a2.006,2.006,0,0,1,2,2v2.5h2a0.507,0.507,0,0,0,.5-0.5v-6Z" transform="translate(-892 -1165)"/>
</svg>
