<svg xmlns="http://www.w3.org/2000/svg" width="20" height="20" viewBox="0 0 20 20">
  <defs>
    <style>
      .cls-1 {
        fill: #333;
        fill-rule: evenodd;
      }
    </style>
  </defs>
  <path id="WeChat" class="cls-1" d="M857.5,5970.99c-4.138,0-7.492,2.88-7.492,6.44a6.14,6.14,0,0,0,2.861,5.04l-0.988,2.04,2.691-1.19a8.288,8.288,0,0,0,1.817.46,5.519,5.519,0,0,1-.137-1.21c0-3.54,3.36-6.43,7.492-6.43a8.167,8.167,0,0,1,1.113.08C864.2,5973.24,861.159,5970.99,857.5,5970.99Zm-2.5,4.83a0.965,0.965,0,0,1,0-1.93A0.965,0.965,0,0,1,855.005,5975.82Zm5,0a0.965,0.965,0,1,1,.937-0.97A0.958,0.958,0,0,1,860,5975.82Zm9.99,6.75c0-2.84-2.8-5.14-6.244-5.14s-6.244,2.3-6.244,5.14,2.8,5.15,6.244,5.15a7.245,7.245,0,0,0,1.63-.2l3.365,1.49-1.163-2.4A4.868,4.868,0,0,0,869.99,5982.57Zm-8.117-.32a0.965,0.965,0,1,1,.937-0.96A0.948,0.948,0,0,1,861.873,5982.25Zm3.747,0a0.965,0.965,0,1,1,.936-0.96A0.949,0.949,0,0,1,865.62,5982.25Z" transform="translate(-850 -5970)"/>
</svg>
