<svg version="1.1" id="레이어_1" xmlns="http://www.w3.org/2000/svg" xmlns:xlink="http://www.w3.org/1999/xlink" width="20px" height="20px"
	 viewBox="0 0 20 20" style="enable-background:new 0 0 20 20;" xml:space="preserve">
<path fill-rule="evenodd" fill="#A50034" d="M10.1,19.4c-5.2,0-9.4-4.2-9.4-9.4s4.2-9.4,9.4-9.4s9.4,4.2,9.4,9.4S15.3,19.4,10.1,19.4z
	 M10.1,2c-4.4,0-8,3.6-8,8s3.6,8,8,8s8-3.6,8-8c0.2-4.3-3.2-7.8-7.4-8C10.5,1.9,10.3,1.9,10.1,2z"/>
<path fill="#A50034" d="M9.3,12.5c0.5-0.1,1.1-0.1,1.7,0v2.1c0,0.2-1.7,0.2-1.7,0V12.5z"/>
<path fill="#A50034" d="M11.2,8.1l-0.3,3.1H9.4L9,8.1V5.8c0,0,0.3-0.6,1.1-0.6c0.8,0,1.1,0.6,1.1,0.6V8.1z"/>
	
</svg>
