<svg xmlns="http://www.w3.org/2000/svg" width="60" height="60" viewBox="0 0 60 60">
  <defs>
    <style>
      .cls-1 {
        fill: #e4e4e4;
        fill-rule: evenodd;
      }
    </style>
  </defs>
  <path class="cls-1" d="M800,1832a15,15,0,0,0,15-15H785A15,15,0,0,0,800,1832Zm0-3a12,12,0,0,1-11.607-9h23.214A12,12,0,0,1,800,1829Zm11-17a4,4,0,1,0-4-3.99A4,4,0,0,0,811,1812Zm-20.99,0a4,4,0,1,0-4-3.99A4,4,0,0,0,790.01,1812Zm9.99-27a30,30,0,1,0,30,30A30,30,0,0,0,800,1785Zm0,57.01A27.01,27.01,0,1,1,827.013,1815,27.19,27.19,0,0,1,800,1842.01Z" transform="translate(-770 -1785)"/>
</svg>
