<svg id="_" data-name="+" xmlns="http://www.w3.org/2000/svg" width="20" height="20" viewBox="0 0 20 20">
  <defs>
    <style>
      .cls-1 {
        fill: #767676;
        fill-rule: evenodd;
      }
    </style>
  </defs>
  <path id="Rounded_Rectangle_1003_copy_6" data-name="Rounded Rectangle 1003 copy 6" class="cls-1" d="M1275,515l15.97,0.024a1.013,1.013,0,0,1,1,1,0.984,0.984,0,0,1-.99.991L1275.01,517a1.015,1.015,0,0,1-1-1A0.984,0.984,0,0,1,1275,515Z" transform="translate(-1272.985 -506)"/>
  <path id="Rounded_Rectangle_1003_copy_7" data-name="Rounded Rectangle 1003 copy 7" class="cls-1" d="M1282,524l0.03-16a1,1,0,0,1,.98-1,0.975,0.975,0,0,1,.98.988l-0.02,16a1.011,1.011,0,0,1-.99,1A0.981,0.981,0,0,1,1282,524Z" transform="translate(-1272.985 -506)"/>
</svg>
