<svg width="364" height="36" viewBox="0 0 364 36" fill="none" xmlns="http://www.w3.org/2000/svg">
<path d="M364 30.294V34.5476H335.781V1.65995H364V5.91356H340.467V15.9769H363.491V20.2305H340.467V30.3977H364V30.294ZM326.102 34.5476C326.102 30.7089 323.25 22.8242 314.591 22.8242H304.607V34.4438H299.921V1.5562H321.926C327.631 1.5562 330.891 4.46111 330.891 10.1672V14.4207C330.891 19.2968 328.242 21.683 325.084 22.513C328.547 25.0029 330.585 29.049 330.891 34.5476H326.102ZM326.102 14.732V9.64843C326.102 7.05477 324.269 5.8098 321.722 5.8098H304.607V18.5706H321.926C324.472 18.5706 326.102 17.2219 326.102 14.732ZM283.824 34.4438H275.063C267.83 34.4438 264.468 30.8127 264.468 23.8617V1.45244H269.256V24.2766C269.256 27.7003 270.886 29.9827 274.961 29.9827H284.13C288.205 29.9827 289.835 27.7003 289.835 24.2766V1.45244H294.623V23.9654C294.623 30.8127 291.057 34.4438 283.824 34.4438ZM248.27 5.8098V34.4438H243.482V5.8098H230.951V1.5562H260.699V5.8098H248.575H248.27ZM231.868 34.5476L228.099 26.5591H208.742L204.871 34.5476H199.675L215.67 1.5562H221.069L237.064 34.5476H231.868ZM218.42 6.22478L210.78 22.2017H225.959L218.42 6.22478ZM169.928 7.15849V34.4438H165.445V1.45244H171.252L192.035 28.7378V1.34872H196.619V34.3401H190.71L169.928 7.15849ZM150.062 34.4438H138.346C131.725 34.4438 128.159 30.6052 128.159 24.6917V11.3083C128.159 5.29106 131.725 1.5562 138.346 1.5562H158.416V5.8098H138.245C135.086 5.8098 132.947 7.57348 132.947 10.7896V25.3141C132.947 28.4265 135.086 30.1902 138.245 30.1902H150.368C153.832 30.1902 155.665 28.7377 155.665 25.3141V20.3343H143.848V16.0807H160.352V24.6917C160.25 31.0202 156.684 34.4438 150.062 34.4438ZM117.055 1.5562H121.537V34.5476H117.055V1.5562ZM102.283 34.4438H80.2776H79.6664V30.0864H80.2776H102.486C104.728 30.0864 106.052 28.8415 106.154 27.1816V27.0778V23.3429C106.154 21.3718 104.931 20.1268 102.69 20.1268H87.307C82.0095 20.1268 79.0551 17.3256 78.8514 12.4496C78.8514 12.3458 78.8514 12.2421 78.8514 12.1383V9.54468C78.8514 8.71471 78.9533 7.98847 79.157 7.26225C79.972 3.63112 82.8245 1.45244 87.307 1.45244H108.599V5.8098H87.1033C84.862 5.8098 83.5377 7.05475 83.4358 8.71469V8.81844V12.5533C83.4358 14.5245 84.6583 15.7695 86.8995 15.7695H102.283C107.58 15.7695 110.535 18.5706 110.738 23.4467C110.738 23.5504 110.738 23.6542 110.738 23.7579V26.3516C110.738 27.1815 110.636 27.9078 110.433 28.634C109.618 32.3689 106.765 34.4438 102.283 34.4438ZM43.2969 36C31.3776 36 25.9782 29.6715 25.9782 17.9481C25.9782 6.2248 31.9888 0 43.3988 0C48.3907 0 53.892 1.3487 56.9482 5.70605L51.8545 10.2709C49.9188 7.88472 47.5757 6.53604 43.5007 6.53604C36.1657 6.53604 33.8226 10.7896 33.8226 17.9481C33.8226 25.4179 36.2676 29.1527 43.6026 29.1527C45.8438 29.1527 48.2888 28.7378 49.4095 28.219V22.098H42.7876V15.6657H56.9482V32.5764C54.0957 34.6513 48.7982 36 43.2969 36ZM0 0.518732H8.15001V28.634H24.9594V35.4813H0V0.518732Z" fill="black"/>
</svg>
