<svg width="260" height="168" viewBox="0 0 260 168" fill="none" xmlns="http://www.w3.org/2000/svg">
<circle cx="5.5642" cy="5.5642" r="5.5642" fill="#282828"/>
<ellipse cx="28.3269" cy="5.5642" rx="6.07004" ry="5.5642" fill="#282828"/>
<circle cx="51.0893" cy="5.5642" r="5.5642" fill="#282828"/>
<circle cx="73.3462" cy="5.5642" r="5.5642" fill="#282828"/>
<ellipse cx="96.1091" cy="5.5642" rx="6.07004" ry="5.5642" fill="#282828"/>
<circle cx="118.872" cy="5.5642" r="5.5642" fill="#282828"/>
<circle cx="141.128" cy="5.5642" r="5.5642" fill="#282828"/>
<ellipse cx="163.891" cy="5.5642" rx="6.07004" ry="5.5642" fill="#282828"/>
<circle cx="186.654" cy="5.5642" r="5.5642" fill="#282828"/>
<circle cx="208.91" cy="5.5642" r="5.5642" fill="#282828"/>
<ellipse cx="231.673" cy="5.5642" rx="6.07004" ry="5.5642" fill="#282828"/>
<circle cx="254.436" cy="5.5642" r="5.5642" fill="#282828"/>
<circle cx="5.5642" cy="27.821" r="5.5642" fill="#282828"/>
<ellipse cx="28.3269" cy="27.821" rx="6.07004" ry="5.5642" fill="#282828"/>
<circle cx="51.0893" cy="27.821" r="5.5642" fill="#282828"/>
<circle cx="73.3462" cy="27.821" r="5.5642" fill="#282828"/>
<ellipse cx="96.1091" cy="27.821" rx="6.07004" ry="5.5642" fill="#282828"/>
<circle cx="118.872" cy="27.821" r="5.5642" fill="#282828"/>
<circle cx="141.128" cy="27.821" r="5.5642" fill="#282828"/>
<ellipse cx="163.891" cy="27.821" rx="6.07004" ry="5.5642" fill="#282828"/>
<circle cx="186.654" cy="27.821" r="5.5642" fill="#282828"/>
<circle cx="208.91" cy="27.821" r="5.5642" fill="#282828"/>
<ellipse cx="231.673" cy="27.821" rx="6.07004" ry="5.5642" fill="#282828"/>
<circle cx="254.436" cy="27.821" r="5.5642" fill="#282828"/>
<circle cx="5.5642" cy="50.0779" r="5.5642" fill="#282828"/>
<ellipse cx="28.3269" cy="50.0779" rx="6.07004" ry="5.5642" fill="#282828"/>
<circle cx="51.0893" cy="50.0779" r="5.5642" fill="#282828"/>
<circle cx="73.3462" cy="50.0779" r="5.5642" fill="#282828"/>
<ellipse cx="96.1091" cy="50.0779" rx="6.07004" ry="5.5642" fill="#282828"/>
<circle cx="118.872" cy="50.0779" r="5.5642" fill="#282828"/>
<circle cx="141.128" cy="50.0779" r="5.5642" fill="#282828"/>
<ellipse cx="163.891" cy="50.0779" rx="6.07004" ry="5.5642" fill="#282828"/>
<circle cx="186.654" cy="50.0779" r="5.5642" fill="#282828"/>
<circle cx="208.91" cy="50.0779" r="5.5642" fill="#282828"/>
<ellipse cx="231.673" cy="50.0779" rx="6.07004" ry="5.5642" fill="#282828"/>
<circle cx="254.436" cy="50.0779" r="5.5642" fill="#282828"/>
<ellipse cx="5.5642" cy="72.8403" rx="5.5642" ry="5.05837" fill="#282828"/>
<ellipse cx="28.3269" cy="72.8403" rx="6.07004" ry="5.05837" fill="#282828"/>
<ellipse cx="51.0893" cy="72.8403" rx="5.5642" ry="5.05837" fill="#282828"/>
<ellipse cx="73.3462" cy="72.8403" rx="5.5642" ry="5.05837" fill="#282828"/>
<ellipse cx="96.1091" cy="72.8403" rx="6.07004" ry="5.05837" fill="#282828"/>
<ellipse cx="118.872" cy="72.8403" rx="5.5642" ry="5.05837" fill="#282828"/>
<ellipse cx="141.128" cy="72.8403" rx="5.5642" ry="5.05837" fill="#282828"/>
<ellipse cx="163.891" cy="72.8403" rx="6.07004" ry="5.05837" fill="#282828"/>
<ellipse cx="186.654" cy="72.8403" rx="5.5642" ry="5.05837" fill="#282828"/>
<ellipse cx="208.91" cy="72.8403" rx="5.5642" ry="5.05837" fill="#282828"/>
<ellipse cx="231.673" cy="72.8403" rx="6.07004" ry="5.05837" fill="#282828"/>
<ellipse cx="254.436" cy="72.8403" rx="5.5642" ry="5.05837" fill="#282828"/>
<circle cx="5.5642" cy="95.6033" r="5.5642" fill="#282828"/>
<ellipse cx="28.3269" cy="95.6033" rx="6.07004" ry="5.5642" fill="#282828"/>
<circle cx="51.0893" cy="95.6033" r="5.5642" fill="#282828"/>
<circle cx="73.3462" cy="95.6033" r="5.5642" fill="#282828"/>
<ellipse cx="96.1091" cy="95.6033" rx="6.07004" ry="5.5642" fill="#282828"/>
<circle cx="118.872" cy="95.6033" r="5.5642" fill="#282828"/>
<circle cx="141.128" cy="95.6033" r="5.5642" fill="#282828"/>
<ellipse cx="163.891" cy="95.6033" rx="6.07004" ry="5.5642" fill="#282828"/>
<circle cx="186.654" cy="95.6033" r="5.5642" fill="#282828"/>
<circle cx="208.91" cy="95.6033" r="5.5642" fill="#282828"/>
<ellipse cx="231.673" cy="95.6033" rx="6.07004" ry="5.5642" fill="#282828"/>
<circle cx="254.436" cy="95.6033" r="5.5642" fill="#282828"/>
<circle cx="5.5642" cy="117.86" r="5.5642" fill="#282828"/>
<ellipse cx="28.3269" cy="117.86" rx="6.07004" ry="5.5642" fill="#282828"/>
<circle cx="51.0893" cy="117.86" r="5.5642" fill="#282828"/>
<circle cx="73.3462" cy="117.86" r="5.5642" fill="#282828"/>
<ellipse cx="96.1091" cy="117.86" rx="6.07004" ry="5.5642" fill="#282828"/>
<circle cx="118.872" cy="117.86" r="5.5642" fill="#282828"/>
<circle cx="141.128" cy="117.86" r="5.5642" fill="#282828"/>
<ellipse cx="163.891" cy="117.86" rx="6.07004" ry="5.5642" fill="#282828"/>
<circle cx="186.654" cy="117.86" r="5.5642" fill="#282828"/>
<circle cx="208.91" cy="117.86" r="5.5642" fill="#282828"/>
<ellipse cx="231.673" cy="117.86" rx="6.07004" ry="5.5642" fill="#282828"/>
<circle cx="254.436" cy="117.86" r="5.5642" fill="#282828"/>
<circle cx="5.5642" cy="140.117" r="5.5642" fill="#282828"/>
<ellipse cx="28.3269" cy="140.117" rx="6.07004" ry="5.5642" fill="#282828"/>
<circle cx="51.0893" cy="140.117" r="5.5642" fill="#282828"/>
<circle cx="73.3462" cy="140.117" r="5.5642" fill="#282828"/>
<ellipse cx="96.1091" cy="140.117" rx="6.07004" ry="5.5642" fill="#282828"/>
<circle cx="118.872" cy="140.117" r="5.5642" fill="#282828"/>
<circle cx="141.128" cy="140.117" r="5.5642" fill="#282828"/>
<ellipse cx="163.891" cy="140.117" rx="6.07004" ry="5.5642" fill="#282828"/>
<circle cx="186.654" cy="140.117" r="5.5642" fill="#282828"/>
<circle cx="208.91" cy="140.117" r="5.5642" fill="#282828"/>
<ellipse cx="231.673" cy="140.117" rx="6.07004" ry="5.5642" fill="#282828"/>
<circle cx="254.436" cy="140.117" r="5.5642" fill="#282828"/>
<circle cx="5.5642" cy="162.373" r="5.5642" fill="#282828"/>
<ellipse cx="28.3269" cy="162.373" rx="6.07004" ry="5.5642" fill="#282828"/>
<circle cx="51.0893" cy="162.373" r="5.5642" fill="#282828"/>
<circle cx="73.3462" cy="162.373" r="5.5642" fill="#282828"/>
<ellipse cx="96.1091" cy="162.373" rx="6.07004" ry="5.5642" fill="#282828"/>
<circle cx="118.872" cy="162.373" r="5.5642" fill="#282828"/>
<circle cx="141.128" cy="162.373" r="5.5642" fill="#282828"/>
<ellipse cx="163.891" cy="162.373" rx="6.07004" ry="5.5642" fill="#282828"/>
<circle cx="186.654" cy="162.373" r="5.5642" fill="#282828"/>
<circle cx="208.91" cy="162.373" r="5.5642" fill="#282828"/>
<ellipse cx="231.673" cy="162.373" rx="6.07004" ry="5.5642" fill="#282828"/>
<circle cx="254.436" cy="162.373" r="5.5642" fill="#282828"/>
</svg>