<svg width="41" height="41" viewBox="0 0 41 41" fill="none" xmlns="http://www.w3.org/2000/svg">
<path d="M20.5001 23.2333C24.2741 23.2333 27.3334 20.174 27.3334 16.4C27.3334 12.626 24.2741 9.56665 20.5001 9.56665C16.7261 9.56665 13.6667 12.626 13.6667 16.4C13.6708 20.1723 16.7277 23.2293 20.5001 23.2333ZM20.5001 10.9333C23.5194 10.9333 25.9667 13.3807 25.9667 16.4C25.9667 19.4193 23.5194 21.8666 20.5001 21.8666C17.4808 21.8666 15.0334 19.4193 15.0334 16.4C15.0368 13.3824 17.4825 10.9367 20.5001 10.9333Z" fill="#E00102"/>
<path d="M19.8166 19.1334C19.9978 19.1334 20.1716 19.0613 20.2997 18.9332L24.3997 14.8332L23.4335 13.8669L19.8166 17.4837L18.2497 15.9169L17.2834 16.8832L19.3334 18.9332C19.4616 19.0613 19.6354 19.1334 19.8166 19.1334Z" fill="#E00102"/>
<path d="M37.5833 0H3.41667C1.53049 0.00233562 0.00233562 1.53049 0 3.41667V29.3833C0.00233562 31.2695 1.53049 32.7977 3.41667 32.8H14.9426L14.4301 36.9H12.9833C11.8512 36.9 10.9333 37.8179 10.9333 38.95C10.9333 40.0821 11.8512 41 12.9833 41H28.0167C29.1488 41 30.0667 40.0821 30.0667 38.95C30.0667 37.8179 29.1488 36.9 28.0167 36.9H26.5699L26.0574 32.8H37.5833C39.4695 32.7977 40.9977 31.2695 41 29.3833V3.41667C40.9977 1.53049 39.4695 0.00233562 37.5833 0ZM3.41667 1.36667H37.5833C38.7154 1.36667 39.6333 2.28456 39.6333 3.41667V5.46667H1.36667V3.41667C1.36667 2.28456 2.28456 1.36667 3.41667 1.36667ZM39.6333 6.83333V25.9667H1.36667V6.83333H39.6333ZM28.7 38.95C28.7 39.3274 28.394 39.6333 28.0167 39.6333H12.9833C12.606 39.6333 12.3 39.3274 12.3 38.95C12.3 38.5726 12.606 38.2667 12.9833 38.2667H28.0167C28.394 38.2667 28.7 38.5726 28.7 38.95ZM25.1926 36.9H15.8074L16.3199 32.8H24.6801L25.1926 36.9ZM37.5833 31.4333H3.41667C2.28456 31.4333 1.36667 30.5154 1.36667 29.3833V27.3333H39.6333V29.3833C39.6333 30.5154 38.7154 31.4333 37.5833 31.4333Z" fill="#E00102"/>
<path d="M35.5332 28.7H36.8999V30.0667H35.5332V28.7Z" fill="#E00102"/>
<path d="M4.1001 2.73334H5.46677V4.1H4.1001V2.73334Z" fill="#E00102"/>
<path d="M6.8335 2.73334H8.20016V4.1H6.8335V2.73334Z" fill="#E00102"/>
<path d="M9.56665 2.73334H10.9333V4.1H9.56665V2.73334Z" fill="#E00102"/>
</svg>
