<svg width="51" height="51" viewBox="0 0 51 51" fill="none" xmlns="http://www.w3.org/2000/svg">
	<path d="M50.8926 10.2128L46.6425 2.56275C46.5023 2.30945 46.2422 2.14539 45.9523 2.12756C45.9345 2.12497 45.9175 2.13015 45.8996 2.12925V2.12497H5.09949V2.12925C5.08166 2.13015 5.06462 2.12497 5.04679 2.12666C4.75693 2.14449 4.49685 2.30855 4.3566 2.56186L0.106548 10.2119C-0.0600989 10.5128 -0.0303156 10.8834 0.183049 11.152L16.0781 31.2307C15.0521 32.907 14.4495 34.8696 14.4495 36.975C14.4495 43.0679 19.4066 48.0251 25.4995 48.0251C31.5923 48.0251 36.5495 43.0679 36.5495 36.975C36.5495 34.8696 35.9468 32.9069 34.9209 31.2307L50.8159 11.1528C51.0294 10.8843 51.0591 10.5128 50.8926 10.2128ZM47.2018 7.0686L31.2125 27.5341C30.6854 27.2137 30.1321 26.9349 29.5524 26.7045L45.801 4.54748L47.2018 7.0686ZM27.8303 26.1775C27.0781 26.0152 26.2994 25.9251 25.4997 25.9251C24.6998 25.9251 23.9212 26.0153 23.169 26.1775L12.3874 11.475H38.6117L27.8303 26.1775ZM44.2226 3.82501L39.8587 9.775H11.1405L6.77741 3.82501H44.2226ZM5.1981 4.54748L21.4467 26.7054C20.867 26.9349 20.3137 27.2145 19.7866 27.535L3.79819 7.0686L5.1981 4.54748ZM1.86775 10.5418L2.9014 8.68198L18.3995 28.5194C17.9362 28.9095 17.5079 29.3388 17.1134 29.7987L1.86775 10.5418ZM25.4996 46.3252C20.3443 46.3252 16.1495 42.1304 16.1495 36.9751C16.1495 31.8198 20.3443 27.6251 25.4996 27.6251C30.6549 27.6251 34.8496 31.8198 34.8496 36.9751C34.8496 42.1304 30.6557 46.3252 25.4996 46.3252ZM33.8857 29.7995C33.4914 29.3396 33.0629 28.9103 32.5996 28.5202L48.0977 8.68198L49.1305 10.5418L33.8857 29.7995Z" fill="#E00102"/>
	<path d="M32.26 34.986C32.1606 34.6757 31.8928 34.4496 31.5698 34.4038L27.8978 33.8827L26.259 30.6416C25.97 30.0696 25.0307 30.0696 24.7417 30.6416L23.103 33.8827L19.4309 34.4038C19.1079 34.4497 18.8402 34.6758 18.7408 34.986C18.6413 35.2962 18.728 35.6363 18.9643 35.8615L21.6086 38.3783L20.9856 41.9279C20.9303 42.2458 21.0595 42.5671 21.3188 42.7593C21.5797 42.9514 21.924 42.9777 22.2122 42.8307L25.5 41.1426L28.7887 42.8307C28.9119 42.8935 29.0445 42.925 29.1772 42.925C29.3557 42.925 29.5325 42.8689 29.6821 42.7593C29.9414 42.5671 30.0706 42.2459 30.0153 41.9279L29.3922 38.3783L32.0366 35.8615C32.2718 35.6363 32.3594 35.2963 32.26 34.986ZM27.8892 37.4612C27.6835 37.6575 27.5883 37.944 27.6376 38.2236L28.0447 40.5382L25.889 39.4315C25.7666 39.3686 25.6332 39.338 25.5006 39.338C25.368 39.338 25.2345 39.3694 25.1121 39.4315L22.9564 40.5382L23.3635 38.2236C23.4128 37.9431 23.3176 37.6566 23.1119 37.4612L21.4085 35.8411L23.7817 35.5045C24.0562 35.4653 24.2951 35.2937 24.4209 35.0464L25.4996 32.9094L26.5799 35.0464C26.7049 35.2946 26.9446 35.4654 27.2191 35.5045L29.5923 35.8411L27.8892 37.4612Z" fill="#E00102"/>
	<path d="M49.7719 35.4178L47.4089 33.8428L45.81 30.6442C45.5211 30.0679 44.5784 30.0679 44.2894 30.6442L42.6906 33.8428L40.3284 35.4178C40.0921 35.5759 39.9502 35.8412 39.9502 36.1251C39.9502 36.4089 40.0921 36.6742 40.3284 36.8323L42.7373 38.4379L44.3429 40.846C44.501 41.0831 44.7662 41.2251 45.0501 41.2251C45.334 41.2251 45.5993 41.0831 45.7573 40.8469L47.363 38.4388L49.7718 36.8332C50.0081 36.6742 50.15 36.409 50.15 36.1252C50.1502 35.8412 50.0083 35.5759 49.7719 35.4178ZM46.2784 37.1179C46.1858 37.1799 46.105 37.2598 46.0429 37.3533L45.0501 38.8425L44.0573 37.3533C43.9952 37.2598 43.9145 37.1799 43.8218 37.1179L42.3327 36.1251L43.8218 35.1322C43.945 35.0498 44.0446 34.9376 44.1108 34.805L45.05 32.9257L45.9892 34.805C46.0556 34.9376 46.155 35.0499 46.2782 35.1322L47.7674 36.1251L46.2784 37.1179Z" fill="#E00102"/>
	<path d="M10.6718 43.0679L8.30878 41.4929L6.70994 38.2943C6.42097 37.718 5.47827 37.718 5.1893 38.2943L3.59046 41.4929L1.22832 43.0679C0.992042 43.226 0.850098 43.4913 0.850098 43.7752C0.850098 44.0591 0.992042 44.3243 1.22832 44.4824L3.63718 46.0881L5.24279 48.4962C5.40087 48.7333 5.66613 48.8753 5.95002 48.8753C6.23391 48.8753 6.49917 48.7333 6.65725 48.4971L8.26286 46.089L10.6717 44.4834C10.908 44.3244 11.0499 44.0593 11.0499 43.7754C11.05 43.4913 10.9081 43.226 10.6718 43.0679ZM7.17831 44.768C7.08567 44.83 7.00489 44.9099 6.94283 45.0035L5.95002 46.4926L4.95721 45.0035C4.89515 44.9099 4.81437 44.83 4.72173 44.768L3.23256 43.7752L4.72173 42.7824C4.84495 42.6999 4.94446 42.5877 5.0107 42.4551L5.94992 40.5758L6.88914 42.4551C6.95548 42.5877 7.05489 42.7 7.17811 42.7824L8.66727 43.7752L7.17831 44.768Z" fill="#E00102"/>
</svg>
