<svg width="47" height="47" viewBox="0 0 47 47" fill="none" xmlns="http://www.w3.org/2000/svg">
	<path d="M34.1434 20.3459V11.4513C34.1434 11.1967 34.0258 10.9615 33.8594 10.7754L23.8873 0.303719C23.7012 0.107933 23.4365 0 23.1723 0H7.36168C4.44283 0 2.11133 2.38026 2.11133 5.29948V35.1962C2.11133 38.1154 4.44283 40.4566 7.36168 40.4566H19.8418C22.2023 44.3748 26.4931 47 31.3809 47C38.8061 47 44.8697 40.9658 44.8697 33.531C44.8797 27.0363 40.2167 21.6096 34.1434 20.3459ZM24.1519 3.43844L30.8423 10.4813H26.5028C25.2097 10.4813 24.1519 9.41384 24.1519 8.1208V3.43844ZM7.36168 38.4973C5.53005 38.4973 4.07062 37.0278 4.07062 35.1962V5.29948C4.07062 3.4578 5.53005 1.95929 7.36168 1.95929H22.1926V8.1208C22.1926 10.5011 24.1225 12.4406 26.5028 12.4406H32.1841V20.091C31.8905 20.0813 31.6552 20.0519 31.4006 20.0519C27.9819 20.0519 24.8375 21.3646 22.4669 23.4218H10.0263C9.48735 23.4218 9.04665 23.8625 9.04665 24.4011C9.04665 24.9401 9.48735 25.3808 10.0263 25.3808H20.645C19.9493 26.3604 19.3713 27.34 18.9209 28.4176H10.0263C9.48735 28.4176 9.04665 28.8583 9.04665 29.3972C9.04665 29.9358 9.48735 30.3769 10.0263 30.3769H18.2841C18.0392 31.3565 17.9119 32.4437 17.9119 33.531C17.9119 35.2941 18.2547 37.0379 18.8718 38.5074H7.36168V38.4973ZM31.3909 45.0508C25.0433 45.0508 19.8808 39.8883 19.8808 33.5406C19.8808 27.193 25.0333 22.0305 31.3909 22.0305C37.7482 22.0305 42.9007 27.193 42.9007 33.5406C42.9007 39.8883 37.7386 45.0508 31.3909 45.0508Z" fill="#E00102"/>
	<path d="M10.0263 20.4732H19.9493C20.4882 20.4732 20.9289 20.0322 20.9289 19.4936C20.9289 18.9546 20.4882 18.5139 19.9493 18.5139H10.0263C9.48733 18.5139 9.04663 18.9546 9.04663 19.4936C9.04663 20.0322 9.48733 20.4732 10.0263 20.4732Z" fill="#E00102"/>
	<path d="M36.406 33.3348L32.3802 37.6744V26.9775C32.3802 26.4386 31.9391 25.9979 31.4006 25.9979C30.8616 25.9979 30.4209 26.4386 30.4209 26.9775V37.6744L26.3654 33.3348C25.9931 32.9432 25.3663 32.9138 24.9744 33.286C24.5825 33.6582 24.5531 34.2754 24.9256 34.6673L30.6561 40.8288C30.8422 41.0246 31.0968 41.1422 31.3712 41.1422C31.6455 41.1422 31.9001 41.0246 32.0862 40.8288L37.8267 34.6673C38.1989 34.2754 38.1792 33.6486 37.7873 33.286C37.3856 32.9138 36.7786 32.9432 36.406 33.3348Z" fill="#E00102"/>
</svg>
