<svg width="41" height="41" viewBox="0 0 41 41" fill="none" xmlns="http://www.w3.org/2000/svg">
<path d="M36.9961 3.52344H33.179V2.40234C33.179 1.07769 32.1013 0 30.7767 0C29.452 0 28.3743 1.07769 28.3743 2.40234V3.52344H14.9212V2.40234C14.9212 1.07769 13.8435 0 12.5189 0C11.1942 0 10.1165 1.07769 10.1165 2.40234V3.55307C10.0484 3.53425 9.97709 3.52344 9.90302 3.52344H6.71239C4.50463 3.52344 2.70848 5.31959 2.70848 7.52734V21.1673C2.70848 21.6096 3.06707 21.9681 3.50926 21.9681C3.95146 21.9681 4.31005 21.6096 4.31005 21.1673V11.7715H33.179C33.6212 11.7715 33.9798 11.413 33.9798 10.9707C33.9798 10.5284 33.6212 10.1699 33.179 10.1699H4.31005V7.52734C4.31005 6.20269 5.38774 5.125 6.71239 5.125H9.90302C9.97709 5.125 10.0484 5.11411 10.1165 5.09537V6.12598C10.1165 7.45063 11.1942 8.52832 12.5189 8.52832C13.8435 8.52832 14.9212 7.45063 14.9212 6.12598V5.125H28.3743V6.12598C28.3743 7.45063 29.452 8.52832 30.7767 8.52832C32.1013 8.52832 33.179 7.45063 33.179 6.12598V5.125H36.9961C38.3207 5.125 39.3984 6.20269 39.3984 7.52734V37.9566C39.3984 38.7516 38.7516 39.3984 37.9566 39.3984C37.1615 39.3984 36.5147 38.7516 36.5147 37.9566V35.885C36.5147 35.4427 36.1561 35.0842 35.7139 35.0842H26.3991C25.9569 35.0842 25.5983 35.4427 25.5983 35.885C25.5983 36.3273 25.9569 36.6858 26.3991 36.6858H34.9131V37.9566C34.9131 38.4779 35.0451 38.969 35.2771 39.3984H3.04297C2.24819 39.3984 1.60156 38.7518 1.60156 37.957V36.6858H19.525C19.9672 36.6858 20.3258 36.3273 20.3258 35.885C20.3258 35.4427 19.9672 35.0842 19.525 35.0842H11.524C12.9232 33.8791 13.8118 32.0966 13.8118 30.1094C13.8118 26.4886 10.8661 23.543 7.24539 23.543C3.62466 23.543 0.678982 26.4886 0.678982 30.1094C0.678982 32.0966 1.56753 33.8791 2.96681 35.0842H0.800781C0.35859 35.0842 0 35.4427 0 35.885V37.957C0 39.6349 1.36509 41 3.04297 41H37.9566C39.6347 41 41 39.6347 41 37.9566V7.52734C41 5.31959 39.2038 3.52344 36.9961 3.52344ZM13.3196 6.12598C13.3196 6.56753 12.9604 6.92676 12.5189 6.92676C12.0773 6.92676 11.7181 6.56753 11.7181 6.12598V2.40234C11.7181 1.96079 12.0773 1.60156 12.5189 1.60156C12.9604 1.60156 13.3196 1.96079 13.3196 2.40234V6.12598ZM31.5774 6.12598C31.5774 6.56753 31.2182 6.92676 30.7767 6.92676C30.3351 6.92676 29.9759 6.56753 29.9759 6.12598V2.40234C29.9759 1.96079 30.3351 1.60156 30.7767 1.60156C31.2182 1.60156 31.5774 1.96079 31.5774 2.40234V6.12598ZM2.28054 30.1094C2.28054 27.3717 4.50776 25.1445 7.24539 25.1445C9.98302 25.1445 12.2102 27.3717 12.2102 30.1094C12.2102 32.847 9.98302 35.0742 7.24539 35.0742C4.50776 35.0742 2.28054 32.847 2.28054 30.1094Z" fill="#E00102"/>
<path d="M37.5014 10.4046C37.3525 10.2556 37.1459 10.1699 36.9353 10.1699C36.7246 10.1699 36.5181 10.2556 36.3692 10.4046C36.2202 10.5535 36.1345 10.7601 36.1345 10.9707C36.1345 11.1813 36.2201 11.3879 36.3692 11.5369C36.5182 11.6858 36.7246 11.7715 36.9353 11.7715C37.1459 11.7715 37.3525 11.6858 37.5014 11.5369C37.6503 11.3879 37.7361 11.1813 37.7361 10.9707C37.7361 10.7601 37.6504 10.5535 37.5014 10.4046Z" fill="#E00102"/>
<path d="M23.9152 35.3185C23.7663 35.1695 23.5597 35.0846 23.3491 35.0846C23.1385 35.0846 22.9319 35.1695 22.783 35.3185C22.634 35.4682 22.5483 35.674 22.5483 35.8846C22.5483 36.096 22.6339 36.3018 22.783 36.4516C22.9319 36.6005 23.1385 36.6854 23.3491 36.6854C23.5597 36.6854 23.7663 36.6005 23.9152 36.4516C24.0641 36.3018 24.1499 36.0952 24.1499 35.8846C24.1499 35.674 24.0642 35.4682 23.9152 35.3185Z" fill="#E00102"/>
<path d="M18.1172 24.3438C16.4393 24.3438 15.0742 25.7088 15.0742 27.3867C15.0742 29.0646 16.4393 30.4297 18.1172 30.4297C19.7951 30.4297 21.1602 29.0646 21.1602 27.3867C21.1602 25.7088 19.7951 24.3438 18.1172 24.3438ZM18.1172 28.8281C17.3224 28.8281 16.6758 28.1815 16.6758 27.3867C16.6758 26.5919 17.3224 25.9453 18.1172 25.9453C18.912 25.9453 19.5586 26.5919 19.5586 27.3867C19.5586 28.1815 18.912 28.8281 18.1172 28.8281Z" fill="#E00102"/>
<path d="M25.5911 24.3438C23.9132 24.3438 22.5481 25.7088 22.5481 27.3867C22.5481 29.0646 23.9132 30.4297 25.5911 30.4297C27.2689 30.4297 28.634 29.0646 28.634 27.3867C28.634 25.7088 27.2689 24.3438 25.5911 24.3438ZM25.5911 28.8281C24.7963 28.8281 24.1497 28.1815 24.1497 27.3867C24.1497 26.5919 24.7963 25.9453 25.5911 25.9453C26.3858 25.9453 27.0325 26.5919 27.0325 27.3867C27.0325 28.1815 26.3858 28.8281 25.5911 28.8281Z" fill="#E00102"/>
<path d="M33.0652 24.3438C31.3873 24.3438 30.0222 25.7088 30.0222 27.3867C30.0222 29.0646 31.3873 30.4297 33.0652 30.4297C34.7431 30.4297 36.1082 29.0646 36.1082 27.3867C36.1082 25.7088 34.7431 24.3438 33.0652 24.3438ZM33.0652 28.8281C32.2704 28.8281 31.6238 28.1815 31.6238 27.3867C31.6238 26.5919 32.2704 25.9453 33.0652 25.9453C33.86 25.9453 34.5066 26.5919 34.5066 27.3867C34.5066 28.1815 33.86 28.8281 33.0652 28.8281Z" fill="#E00102"/>
<path d="M10.6433 16.0156C8.96543 16.0156 7.60034 17.3807 7.60034 19.0586C7.60034 20.7365 8.96543 22.1016 10.6433 22.1016C12.3212 22.1016 13.6863 20.7365 13.6863 19.0586C13.6863 17.3807 12.3212 16.0156 10.6433 16.0156ZM10.6433 20.5C9.84853 20.5 9.2019 19.8534 9.2019 19.0586C9.2019 18.2638 9.84853 17.6172 10.6433 17.6172C11.4381 17.6172 12.0847 18.2638 12.0847 19.0586C12.0847 19.8534 11.4381 20.5 10.6433 20.5Z" fill="#E00102"/>
<path d="M25.5911 16.0156C23.9132 16.0156 22.5481 17.3807 22.5481 19.0586C22.5481 20.7365 23.9132 22.1016 25.5911 22.1016C27.2689 22.1016 28.634 20.7365 28.634 19.0586C28.634 17.3807 27.2689 16.0156 25.5911 16.0156ZM25.5911 20.5C24.7963 20.5 24.1497 19.8534 24.1497 19.0586C24.1497 18.2638 24.7963 17.6172 25.5911 17.6172C26.3858 17.6172 27.0325 18.2638 27.0325 19.0586C27.0325 19.8534 26.3858 20.5 25.5911 20.5Z" fill="#E00102"/>
<path d="M33.0652 16.0156C31.3873 16.0156 30.0222 17.3807 30.0222 19.0586C30.0222 20.7365 31.3873 22.1016 33.0652 22.1016C34.7431 22.1016 36.1082 20.7365 36.1082 19.0586C36.1082 17.3807 34.7431 16.0156 33.0652 16.0156ZM33.0652 20.5C32.2704 20.5 31.6238 19.8534 31.6238 19.0586C31.6238 18.2638 32.2704 17.6172 33.0652 17.6172C33.86 17.6172 34.5066 18.2638 34.5066 19.0586C34.5066 19.8534 33.86 20.5 33.0652 20.5Z" fill="#E00102"/>
<path d="M18.1172 16.0156C16.4393 16.0156 15.0742 17.3807 15.0742 19.0586C15.0742 20.7365 16.4393 22.1016 18.1172 22.1016C19.7951 22.1016 21.1602 20.7365 21.1602 19.0586C21.1602 17.3807 19.7951 16.0156 18.1172 16.0156ZM18.1172 20.5C17.3224 20.5 16.6758 19.8534 16.6758 19.0586C16.6758 18.2638 17.3224 17.6172 18.1172 17.6172C18.912 17.6172 19.5586 18.2638 19.5586 19.0586C19.5586 19.8534 18.912 20.5 18.1172 20.5Z" fill="#E00102"/>
<path d="M10.0982 28.1578C9.78546 27.8451 9.27856 27.8451 8.9657 28.1578L6.35787 30.7657L5.46668 29.8745C5.1539 29.5618 4.647 29.5618 4.33414 29.8745C4.02143 30.1872 4.02143 30.6943 4.33414 31.0071L5.79164 32.4644C5.94187 32.6146 6.14551 32.699 6.35787 32.699C6.57024 32.699 6.77388 32.6146 6.92411 32.4644L10.0982 29.2903C10.4109 28.9776 10.4109 28.4705 10.0982 28.1578Z" fill="#E00102"/>
</svg>
