<svg width="27" height="28" viewBox="0 0 27 28" fill="#8F8F8F" xmlns="http://www.w3.org/2000/svg">
<path d="M19.6913 0.9986L7.30864 0.998597C3.27859 0.998597 -5.73247e-07 4.27718 -1.27788e-06 8.30724L-3.44297e-06 20.6901C-4.14757e-06 24.72 3.27858 27.9985 7.30864 27.9985L19.6915 27.9985C23.7214 27.9985 26.9999 24.72 26.9999 20.6901L27 8.30724C27 4.27719 23.7214 0.9986 19.6913 0.9986V0.9986ZM13.5 21.8812C9.42913 21.8812 6.11738 18.5694 6.11738 14.4986C6.11738 10.4277 9.42914 7.11598 13.5 7.11598C17.5708 7.11598 20.8826 10.4277 20.8826 14.4986C20.8826 18.5694 17.5708 21.8812 13.5 21.8812ZM21.0591 8.85704C19.8561 8.85704 18.8776 7.87857 18.8776 6.67557C18.8776 5.47257 19.8561 4.49389 21.0591 4.49389C22.2621 4.49389 23.2408 5.47257 23.2408 6.67557C23.2408 7.87857 22.2621 8.85704 21.0591 8.85704Z" />
</svg>