<svg width="49" height="49" viewBox="0 0 49 49" fill="none" xmlns="http://www.w3.org/2000/svg">
<path d="M35.7361 6.24831e-06L13.2639 2.31913e-06C5.95004 1.04034e-06 -1.04034e-06 5.95004 -2.31913e-06 13.2639L-6.24837e-06 35.7365C-7.52709e-06 43.0499 5.95004 49 13.2638 49L35.7365 49C43.05 49 49 43.05 49 35.7365L49 13.2639C49 5.95005 43.05 7.52709e-06 35.7361 6.24831e-06V6.24831e-06ZM24.5 37.8981C17.1122 37.8981 11.1019 31.8878 11.1019 24.5C11.1019 17.1122 17.1122 11.1019 24.5 11.1019C31.8878 11.1019 37.8981 17.1122 37.8981 24.5C37.8981 31.8878 31.8878 37.8981 24.5 37.8981ZM38.2184 14.2616C36.0352 14.2616 34.2595 12.4859 34.2595 10.3027C34.2595 8.11944 36.0352 6.34333 38.2185 6.34333C40.4017 6.34333 42.1778 8.11944 42.1778 10.3027C42.1778 12.4859 40.4017 14.2616 38.2184 14.2616Z" fill="white"/>
<circle cx="24.5" cy="24.5" r="9.5" fill="white"/>
</svg>
