<svg width="37" height="23" viewBox="0 0 37 23" fill="#8F8F8F" xmlns="http://www.w3.org/2000/svg">
<path d="M36.8038 20.867C36.759 20.7663 36.7172 20.6828 36.6784 20.6159C36.0364 19.4111 34.8097 17.9322 32.9989 16.1788L32.9606 16.1386L32.9416 16.1189L32.9222 16.0987H32.9027C32.0808 15.2823 31.5604 14.7333 31.3424 14.4523C30.9438 13.9169 30.8544 13.3749 31.0723 12.8258C31.2263 12.4109 31.8048 11.5347 32.8062 10.1961C33.3329 9.48666 33.75 8.91808 34.0582 8.4897C36.2803 5.41117 37.2436 3.44394 36.9479 2.58727L36.8332 2.38707C36.7561 2.26655 36.557 2.15629 36.2362 2.05573C35.9149 1.95539 35.504 1.93879 35.003 2.00567L29.4551 2.04561C29.3652 2.01242 29.2368 2.01551 29.0697 2.05573C28.9027 2.09595 28.819 2.11614 28.819 2.11614L28.7225 2.16641L28.6459 2.22682C28.5817 2.26676 28.511 2.33701 28.4339 2.43742C28.3571 2.53748 28.2931 2.65491 28.2417 2.78873C27.6376 4.40822 26.9509 5.91395 26.1802 7.30583C25.705 8.13579 25.2685 8.85507 24.87 9.4641C24.4719 10.0729 24.138 10.5215 23.8685 10.809C23.5985 11.0968 23.3551 11.3274 23.1362 11.5016C22.9179 11.6758 22.7512 11.7494 22.6356 11.7225C22.52 11.6956 22.411 11.6689 22.3078 11.6421C22.1282 11.5216 21.9837 11.3577 21.8747 11.1503C21.7652 10.9428 21.6916 10.6817 21.6531 10.3672C21.6146 10.0524 21.592 9.78172 21.5856 9.5541C21.5795 9.32677 21.5822 9.00521 21.5954 8.59032C21.6087 8.17523 21.6146 7.89438 21.6146 7.74714C21.6146 7.23847 21.6242 6.68639 21.6433 6.0908C21.6627 5.49519 21.6784 5.0233 21.6916 4.67565C21.7047 4.32763 21.7108 3.95946 21.7108 3.57131C21.7108 3.18315 21.6881 2.87873 21.6433 2.6578C21.5991 2.43714 21.5312 2.22295 21.4416 2.0153C21.3515 1.80786 21.2196 1.64739 21.0467 1.53348C20.8733 1.4197 20.6578 1.32942 20.4014 1.26233C19.7206 1.1018 18.8537 1.01495 17.8004 1.00145C15.4117 0.974732 13.8769 1.13548 13.1962 1.48348C12.9265 1.63052 12.6825 1.83142 12.4643 2.08555C12.233 2.38011 12.2008 2.54086 12.3677 2.5673C13.1384 2.68761 13.684 2.97543 14.0051 3.43045L14.1208 3.67158C14.2108 3.84554 14.3007 4.15353 14.3907 4.59514C14.4805 5.03672 14.5384 5.52523 14.5639 6.06034C14.628 7.03755 14.628 7.87406 14.5639 8.56993C14.4996 9.26608 14.4389 9.80801 14.3809 10.1962C14.323 10.5843 14.2363 10.8989 14.1208 11.1397C14.0051 11.3806 13.9281 11.5279 13.8895 11.5813C13.851 11.6348 13.8189 11.6684 13.7934 11.6816C13.6264 11.7483 13.4528 11.7823 13.2731 11.7823C13.0932 11.7823 12.875 11.6885 12.6182 11.501C12.3614 11.3135 12.095 11.056 11.8188 10.7281C11.5426 10.4 11.2312 9.94162 10.8843 9.35278C10.5377 8.76394 10.178 8.068 9.80559 7.26498L9.49743 6.68259C9.30479 6.30793 9.04165 5.76241 8.70773 5.04649C8.3736 4.33031 8.07827 3.63753 7.82152 2.96831C7.71888 2.68726 7.56471 2.47328 7.35926 2.32604L7.26284 2.26563C7.19874 2.21219 7.09584 2.15544 6.95469 2.09497C6.81333 2.03457 6.66583 1.99125 6.51158 1.9646L1.23316 2.00454C0.693769 2.00454 0.32779 2.13189 0.135083 2.38623L0.0579602 2.50654C0.0194325 2.57355 0 2.68058 0 2.8279C0 2.97514 0.0385276 3.15587 0.11565 3.36983C0.886203 5.25718 1.72416 7.07737 2.62953 8.83067C3.5349 10.584 4.32165 11.9963 4.98929 13.0664C5.65708 14.1373 6.33777 15.148 7.03133 16.098C7.7249 17.0483 8.18399 17.6574 8.40862 17.9249C8.6335 18.193 8.81014 18.3934 8.93855 18.5272L9.42025 19.0089C9.72848 19.3302 10.1811 19.715 10.7783 20.1633C11.3756 20.6119 12.037 21.0534 12.7626 21.4887C13.4883 21.9235 14.3326 22.278 15.2959 22.5524C16.2591 22.8269 17.1966 22.9372 18.1085 22.884H20.3241C20.7732 22.8435 21.1136 22.6964 21.3451 22.4423L21.4217 22.3417C21.4733 22.2617 21.5216 22.1377 21.566 21.9705C21.6111 21.8034 21.6335 21.6191 21.6335 21.4185C21.6203 20.843 21.6623 20.3244 21.7585 19.8628C21.8546 19.4012 21.9639 19.0532 22.0864 18.8189C22.2086 18.5847 22.3467 18.3871 22.5004 18.2269C22.6543 18.0664 22.764 17.9692 22.8284 17.9357C22.8924 17.902 22.9435 17.8791 22.9819 17.8654C23.2901 17.7584 23.6529 17.8621 24.0707 18.1769C24.4882 18.4914 24.8799 18.8798 25.246 19.3413C25.6121 19.8033 26.0518 20.3217 26.5654 20.897C27.0795 21.4727 27.5289 21.9005 27.9138 22.182L28.299 22.423C28.5563 22.5836 28.8903 22.7309 29.3013 22.8647C29.7117 22.9985 30.0711 23.0321 30.3797 22.9652L35.3112 22.885C35.7991 22.885 36.1785 22.8007 36.4477 22.6338C36.7176 22.4664 36.8778 22.2821 36.9294 22.0818C36.981 21.8811 36.9838 21.6534 36.9392 21.3987C36.8935 21.1448 36.8486 20.9672 36.8038 20.867Z" />
</svg>