<svg width="57" height="33" viewBox="0 0 57 33" fill="none" xmlns="http://www.w3.org/2000/svg">
<path d="M56.6978 29.8025C56.6288 29.6516 56.5644 29.5264 56.5045 29.426C55.5156 27.6187 53.6258 25.4003 50.8362 22.7703L50.7772 22.71L50.7478 22.6805L50.7179 22.6502H50.688C49.4217 21.4255 48.62 20.6021 48.2843 20.1805C47.6701 19.3774 47.5325 18.5645 47.8682 17.7408C48.1053 17.1185 48.9965 15.8042 50.5392 13.7963C51.3506 12.7321 51.9933 11.8792 52.4681 11.2367C55.8912 6.61886 57.3752 3.66802 56.9198 2.38301L56.7431 2.08271C56.6242 1.90193 56.3176 1.73654 55.8234 1.5857C55.3284 1.43519 54.6954 1.4103 53.9236 1.5106L45.3767 1.57051C45.2382 1.52073 45.0404 1.52537 44.7831 1.5857C44.5257 1.64604 44.3969 1.67631 44.3969 1.67631L44.2481 1.75173L44.1302 1.84233C44.0313 1.90224 43.9224 2.00761 43.8035 2.15823C43.6853 2.30833 43.5867 2.48447 43.5074 2.6852C42.5769 5.11444 41.519 7.37303 40.3317 9.46085C39.5995 10.7058 38.9272 11.7847 38.3133 12.6983C37.7 13.6115 37.1856 14.2843 36.7703 14.7156C36.3545 15.1473 35.9795 15.4932 35.6423 15.7545C35.306 16.0158 35.0492 16.1262 34.8711 16.0858C34.693 16.0455 34.5251 16.0054 34.3661 15.9653C34.0893 15.7845 33.8668 15.5387 33.6989 15.2275C33.5302 14.9163 33.4167 14.5247 33.3575 14.0529C33.2982 13.5808 33.2634 13.1747 33.2534 12.8333C33.244 12.4923 33.2483 12.0099 33.2685 11.3876C33.2891 10.765 33.2982 10.3437 33.2982 10.1228C33.2982 9.35981 33.313 8.53169 33.3424 7.63831C33.3723 6.74489 33.3965 6.03706 33.4167 5.51558C33.437 4.99355 33.4464 4.4413 33.4464 3.85906C33.4464 3.27682 33.4113 2.82021 33.3424 2.4888C33.2742 2.15781 33.1697 1.83653 33.0317 1.52505C32.8929 1.2139 32.6897 0.973197 32.4232 0.802326C32.1562 0.631662 31.8242 0.496229 31.4292 0.395606C30.3804 0.154801 29.0449 0.0245365 27.4222 0.00428488C23.7424 -0.0357964 21.3779 0.205324 20.3293 0.727331C19.9138 0.947884 19.5379 1.24923 19.2017 1.63042C18.8455 2.07227 18.7958 2.31339 19.053 2.35305C20.2403 2.53352 21.0807 2.96524 21.5754 3.64778L21.7537 4.00947C21.8924 4.27042 22.0308 4.73241 22.1694 5.39481C22.3078 6.05719 22.397 6.78995 22.4363 7.59262C22.5351 9.05844 22.5351 10.3132 22.4363 11.357C22.3373 12.4012 22.2437 13.2141 22.1544 13.7964C22.0651 14.3786 21.9317 14.8504 21.7537 15.2117C21.5754 15.573 21.4568 15.7939 21.3974 15.8741C21.338 15.9542 21.2885 16.0048 21.2493 16.0246C20.9921 16.1246 20.7246 16.1755 20.4478 16.1755C20.1706 16.1755 19.8344 16.0348 19.4388 15.7536C19.0433 15.4724 18.6328 15.0862 18.2074 14.5942C17.7819 14.1022 17.3021 13.4145 16.7677 12.5313C16.2337 11.648 15.6797 10.6041 15.1059 9.39957L14.6312 8.526C14.3344 7.964 13.929 7.14572 13.4146 6.07185C12.8999 4.99757 12.4449 3.9584 12.0494 2.95457C11.8913 2.53299 11.6537 2.21203 11.3372 1.99116L11.1887 1.90055C11.09 1.82039 10.9314 1.73527 10.714 1.64456C10.4962 1.55396 10.269 1.48898 10.0314 1.449L1.89973 1.50892C1.06878 1.50892 0.504973 1.69994 0.208101 2.08145L0.08929 2.26192C0.0299366 2.36244 0 2.52297 0 2.74395C0 2.96481 0.0593534 3.2359 0.178164 3.55685C1.36523 6.38788 2.65615 9.11815 4.0509 11.7481C5.44565 14.3781 6.65767 16.4966 7.6862 18.1017C8.71497 19.7081 9.76359 21.2241 10.8321 22.6491C11.9005 24.0746 12.6078 24.9881 12.9538 25.3895C13.3003 25.7916 13.5724 26.0922 13.7702 26.2929L14.5123 27.0155C14.9871 27.4974 15.6844 28.0746 16.6044 28.747C17.5246 29.4199 18.5434 30.0822 19.6613 30.7352C20.7793 31.3873 22.08 31.9192 23.564 32.3307C25.0479 32.7425 26.4921 32.9079 27.8969 32.8281H31.31C32.002 32.7674 32.5264 32.5467 32.8829 32.1656L33.0009 32.0146C33.0804 31.8946 33.1548 31.7086 33.2232 31.4579C33.2928 31.2072 33.3273 30.9307 33.3273 30.6299C33.307 29.7667 33.3717 28.9887 33.5199 28.2963C33.6678 27.604 33.8363 27.082 34.0249 26.7304C34.2133 26.3792 34.4259 26.0828 34.6628 25.8425C34.8999 25.6017 35.0689 25.4558 35.1681 25.4056C35.2667 25.3551 35.3453 25.3208 35.4046 25.3002C35.8794 25.1397 36.4383 25.2952 37.0818 25.7674C37.7251 26.2392 38.3284 26.8217 38.8924 27.5141C39.4564 28.2071 40.1339 28.9847 40.9251 29.8477C41.7171 30.7112 42.4093 31.3529 43.0024 31.7751L43.5958 32.1366C43.9922 32.3775 44.5066 32.5985 45.1399 32.7992C45.772 32.9999 46.3258 33.0502 46.8012 32.9499L54.3984 32.8296C55.1499 32.8296 55.7345 32.7032 56.1491 32.4527C56.565 32.2017 56.8118 31.9252 56.8913 31.6248C56.9708 31.3237 56.9751 30.9822 56.9064 30.6001C56.836 30.2193 56.7667 29.9529 56.6978 29.8025Z" fill="white"/>
</svg>
