<svg width="132" height="418" viewBox="0 0 132 418" fill="none" xmlns="http://www.w3.org/2000/svg">
<circle cx="4.36576" cy="413.634" r="4.36576" transform="rotate(-90 4.36576 413.634)" fill="#EEF1F3"/>
<ellipse cx="4.36576" cy="395.774" rx="4.76265" ry="4.36576" transform="rotate(-90 4.36576 395.774)" fill="#EEF1F3"/>
<circle cx="4.36576" cy="377.915" r="4.36576" transform="rotate(-90 4.36576 377.915)" fill="#EEF1F3"/>
<circle cx="4.36576" cy="360.451" r="4.36576" transform="rotate(-90 4.36576 360.451)" fill="#EEF1F3"/>
<ellipse cx="4.36576" cy="342.591" rx="4.76265" ry="4.36576" transform="rotate(-90 4.36576 342.591)" fill="#EEF1F3"/>
<circle cx="4.36576" cy="324.731" r="4.36576" transform="rotate(-90 4.36576 324.731)" fill="#EEF1F3"/>
<circle cx="4.36576" cy="307.269" r="4.36576" transform="rotate(-90 4.36576 307.269)" fill="#EEF1F3"/>
<ellipse cx="4.36576" cy="289.409" rx="4.76265" ry="4.36576" transform="rotate(-90 4.36576 289.409)" fill="#EEF1F3"/>
<circle cx="4.36576" cy="271.549" r="4.36576" transform="rotate(-90 4.36576 271.549)" fill="#EEF1F3"/>
<circle cx="4.36576" cy="254.086" r="4.36576" transform="rotate(-90 4.36576 254.086)" fill="#EEF1F3"/>
<ellipse cx="4.36576" cy="236.226" rx="4.76265" ry="4.36576" transform="rotate(-90 4.36576 236.226)" fill="#EEF1F3"/>
<circle cx="4.36576" cy="218.366" r="4.36576" transform="rotate(-90 4.36576 218.366)" fill="#EEF1F3"/>
<circle cx="21.8286" cy="413.634" r="4.36576" transform="rotate(-90 21.8286 413.634)" fill="#EEF1F3"/>
<ellipse cx="21.8286" cy="395.774" rx="4.76265" ry="4.36576" transform="rotate(-90 21.8286 395.774)" fill="#EEF1F3"/>
<circle cx="21.8286" cy="377.915" r="4.36576" transform="rotate(-90 21.8286 377.915)" fill="#EEF1F3"/>
<circle cx="21.8286" cy="360.451" r="4.36576" transform="rotate(-90 21.8286 360.451)" fill="#EEF1F3"/>
<ellipse cx="21.8286" cy="342.591" rx="4.76265" ry="4.36576" transform="rotate(-90 21.8286 342.591)" fill="#EEF1F3"/>
<circle cx="21.8286" cy="324.731" r="4.36576" transform="rotate(-90 21.8286 324.731)" fill="#EEF1F3"/>
<circle cx="21.8286" cy="307.269" r="4.36576" transform="rotate(-90 21.8286 307.269)" fill="#EEF1F3"/>
<ellipse cx="21.8286" cy="289.409" rx="4.76265" ry="4.36576" transform="rotate(-90 21.8286 289.409)" fill="#EEF1F3"/>
<circle cx="21.8286" cy="271.549" r="4.36576" transform="rotate(-90 21.8286 271.549)" fill="#EEF1F3"/>
<circle cx="21.8286" cy="254.086" r="4.36576" transform="rotate(-90 21.8286 254.086)" fill="#EEF1F3"/>
<ellipse cx="21.8286" cy="236.226" rx="4.76265" ry="4.36576" transform="rotate(-90 21.8286 236.226)" fill="#EEF1F3"/>
<circle cx="21.8286" cy="218.366" r="4.36576" transform="rotate(-90 21.8286 218.366)" fill="#EEF1F3"/>
<circle cx="39.292" cy="413.634" r="4.36576" transform="rotate(-90 39.292 413.634)" fill="#EEF1F3"/>
<ellipse cx="39.292" cy="395.774" rx="4.76265" ry="4.36576" transform="rotate(-90 39.292 395.774)" fill="#EEF1F3"/>
<circle cx="39.292" cy="377.915" r="4.36576" transform="rotate(-90 39.292 377.915)" fill="#EEF1F3"/>
<circle cx="39.292" cy="360.451" r="4.36576" transform="rotate(-90 39.292 360.451)" fill="#EEF1F3"/>
<ellipse cx="39.292" cy="342.591" rx="4.76265" ry="4.36576" transform="rotate(-90 39.292 342.591)" fill="#EEF1F3"/>
<circle cx="39.292" cy="324.731" r="4.36576" transform="rotate(-90 39.292 324.731)" fill="#EEF1F3"/>
<circle cx="39.292" cy="307.269" r="4.36576" transform="rotate(-90 39.292 307.269)" fill="#EEF1F3"/>
<ellipse cx="39.292" cy="289.409" rx="4.76265" ry="4.36576" transform="rotate(-90 39.292 289.409)" fill="#EEF1F3"/>
<circle cx="39.292" cy="271.549" r="4.36576" transform="rotate(-90 39.292 271.549)" fill="#EEF1F3"/>
<circle cx="39.292" cy="254.086" r="4.36576" transform="rotate(-90 39.292 254.086)" fill="#EEF1F3"/>
<ellipse cx="39.292" cy="236.226" rx="4.76265" ry="4.36576" transform="rotate(-90 39.292 236.226)" fill="#EEF1F3"/>
<circle cx="39.292" cy="218.366" r="4.36576" transform="rotate(-90 39.292 218.366)" fill="#EEF1F3"/>
<ellipse cx="57.152" cy="413.634" rx="4.36576" ry="3.96887" transform="rotate(-90 57.152 413.634)" fill="#EEF1F3"/>
<ellipse cx="57.152" cy="395.774" rx="4.76265" ry="3.96887" transform="rotate(-90 57.152 395.774)" fill="#EEF1F3"/>
<ellipse cx="57.152" cy="377.915" rx="4.36576" ry="3.96887" transform="rotate(-90 57.152 377.915)" fill="#EEF1F3"/>
<ellipse cx="57.152" cy="360.451" rx="4.36576" ry="3.96887" transform="rotate(-90 57.152 360.451)" fill="#EEF1F3"/>
<ellipse cx="57.152" cy="342.591" rx="4.76265" ry="3.96887" transform="rotate(-90 57.152 342.591)" fill="#EEF1F3"/>
<ellipse cx="57.152" cy="324.731" rx="4.36576" ry="3.96887" transform="rotate(-90 57.152 324.731)" fill="#EEF1F3"/>
<ellipse cx="57.152" cy="307.269" rx="4.36576" ry="3.96887" transform="rotate(-90 57.152 307.269)" fill="#EEF1F3"/>
<ellipse cx="57.152" cy="289.409" rx="4.76265" ry="3.96887" transform="rotate(-90 57.152 289.409)" fill="#EEF1F3"/>
<ellipse cx="57.152" cy="271.549" rx="4.36576" ry="3.96887" transform="rotate(-90 57.152 271.549)" fill="#EEF1F3"/>
<ellipse cx="57.152" cy="254.086" rx="4.36576" ry="3.96887" transform="rotate(-90 57.152 254.086)" fill="#EEF1F3"/>
<ellipse cx="57.152" cy="236.226" rx="4.76265" ry="3.96887" transform="rotate(-90 57.152 236.226)" fill="#EEF1F3"/>
<ellipse cx="57.152" cy="218.366" rx="4.36576" ry="3.96887" transform="rotate(-90 57.152 218.366)" fill="#EEF1F3"/>
<circle cx="75.0118" cy="413.634" r="4.36576" transform="rotate(-90 75.0118 413.634)" fill="#EEF1F3"/>
<ellipse cx="75.0118" cy="395.774" rx="4.76265" ry="4.36576" transform="rotate(-90 75.0118 395.774)" fill="#EEF1F3"/>
<circle cx="75.0118" cy="377.915" r="4.36576" transform="rotate(-90 75.0118 377.915)" fill="#EEF1F3"/>
<circle cx="75.0118" cy="360.451" r="4.36576" transform="rotate(-90 75.0118 360.451)" fill="#EEF1F3"/>
<ellipse cx="75.0118" cy="342.591" rx="4.76265" ry="4.36576" transform="rotate(-90 75.0118 342.591)" fill="#EEF1F3"/>
<circle cx="75.0118" cy="324.731" r="4.36576" transform="rotate(-90 75.0118 324.731)" fill="#EEF1F3"/>
<circle cx="75.0118" cy="307.269" r="4.36576" transform="rotate(-90 75.0118 307.269)" fill="#EEF1F3"/>
<ellipse cx="75.0118" cy="289.409" rx="4.76265" ry="4.36576" transform="rotate(-90 75.0118 289.409)" fill="#EEF1F3"/>
<circle cx="75.0118" cy="271.549" r="4.36576" transform="rotate(-90 75.0118 271.549)" fill="#EEF1F3"/>
<circle cx="75.0118" cy="254.086" r="4.36576" transform="rotate(-90 75.0118 254.086)" fill="#EEF1F3"/>
<ellipse cx="75.0118" cy="236.226" rx="4.76265" ry="4.36576" transform="rotate(-90 75.0118 236.226)" fill="#EEF1F3"/>
<circle cx="75.0118" cy="218.366" r="4.36576" transform="rotate(-90 75.0118 218.366)" fill="#EEF1F3"/>
<circle cx="92.4746" cy="413.634" r="4.36576" transform="rotate(-90 92.4746 413.634)" fill="#EEF1F3"/>
<ellipse cx="92.4746" cy="395.774" rx="4.76265" ry="4.36576" transform="rotate(-90 92.4746 395.774)" fill="#EEF1F3"/>
<circle cx="92.4746" cy="377.914" r="4.36576" transform="rotate(-90 92.4746 377.914)" fill="#EEF1F3"/>
<circle cx="92.4746" cy="360.451" r="4.36576" transform="rotate(-90 92.4746 360.451)" fill="#EEF1F3"/>
<ellipse cx="92.4746" cy="342.591" rx="4.76265" ry="4.36576" transform="rotate(-90 92.4746 342.591)" fill="#EEF1F3"/>
<circle cx="92.4746" cy="324.731" r="4.36576" transform="rotate(-90 92.4746 324.731)" fill="#EEF1F3"/>
<circle cx="92.4746" cy="307.269" r="4.36576" transform="rotate(-90 92.4746 307.269)" fill="#EEF1F3"/>
<ellipse cx="92.4746" cy="289.409" rx="4.76265" ry="4.36576" transform="rotate(-90 92.4746 289.409)" fill="#EEF1F3"/>
<circle cx="92.4746" cy="271.549" r="4.36576" transform="rotate(-90 92.4746 271.549)" fill="#EEF1F3"/>
<circle cx="92.4746" cy="254.086" r="4.36576" transform="rotate(-90 92.4746 254.086)" fill="#EEF1F3"/>
<ellipse cx="92.4746" cy="236.226" rx="4.76265" ry="4.36576" transform="rotate(-90 92.4746 236.226)" fill="#EEF1F3"/>
<circle cx="92.4746" cy="218.366" r="4.36576" transform="rotate(-90 92.4746 218.366)" fill="#EEF1F3"/>
<circle cx="109.938" cy="413.634" r="4.36576" transform="rotate(-90 109.938 413.634)" fill="#EEF1F3"/>
<ellipse cx="109.938" cy="395.774" rx="4.76265" ry="4.36576" transform="rotate(-90 109.938 395.774)" fill="#EEF1F3"/>
<circle cx="109.938" cy="377.914" r="4.36576" transform="rotate(-90 109.938 377.914)" fill="#EEF1F3"/>
<circle cx="109.938" cy="360.451" r="4.36576" transform="rotate(-90 109.938 360.451)" fill="#EEF1F3"/>
<ellipse cx="109.938" cy="342.591" rx="4.76265" ry="4.36576" transform="rotate(-90 109.938 342.591)" fill="#EEF1F3"/>
<circle cx="109.938" cy="324.731" r="4.36576" transform="rotate(-90 109.938 324.731)" fill="#EEF1F3"/>
<circle cx="109.938" cy="307.269" r="4.36576" transform="rotate(-90 109.938 307.269)" fill="#EEF1F3"/>
<ellipse cx="109.938" cy="289.409" rx="4.76265" ry="4.36576" transform="rotate(-90 109.938 289.409)" fill="#EEF1F3"/>
<circle cx="109.938" cy="271.549" r="4.36576" transform="rotate(-90 109.938 271.549)" fill="#EEF1F3"/>
<circle cx="109.938" cy="254.086" r="4.36576" transform="rotate(-90 109.938 254.086)" fill="#EEF1F3"/>
<ellipse cx="109.938" cy="236.226" rx="4.76265" ry="4.36576" transform="rotate(-90 109.938 236.226)" fill="#EEF1F3"/>
<circle cx="109.938" cy="218.366" r="4.36576" transform="rotate(-90 109.938 218.366)" fill="#EEF1F3"/>
<circle cx="127.401" cy="413.634" r="4.36576" transform="rotate(-90 127.401 413.634)" fill="#EEF1F3"/>
<ellipse cx="127.401" cy="395.774" rx="4.76265" ry="4.36576" transform="rotate(-90 127.401 395.774)" fill="#EEF1F3"/>
<circle cx="127.401" cy="377.914" r="4.36576" transform="rotate(-90 127.401 377.914)" fill="#EEF1F3"/>
<circle cx="127.401" cy="360.451" r="4.36576" transform="rotate(-90 127.401 360.451)" fill="#EEF1F3"/>
<ellipse cx="127.401" cy="342.591" rx="4.76265" ry="4.36576" transform="rotate(-90 127.401 342.591)" fill="#EEF1F3"/>
<circle cx="127.401" cy="324.731" r="4.36576" transform="rotate(-90 127.401 324.731)" fill="#EEF1F3"/>
<circle cx="127.401" cy="307.269" r="4.36576" transform="rotate(-90 127.401 307.269)" fill="#EEF1F3"/>
<ellipse cx="127.401" cy="289.409" rx="4.76265" ry="4.36576" transform="rotate(-90 127.401 289.409)" fill="#EEF1F3"/>
<circle cx="127.401" cy="271.549" r="4.36576" transform="rotate(-90 127.401 271.549)" fill="#EEF1F3"/>
<circle cx="127.401" cy="254.086" r="4.36576" transform="rotate(-90 127.401 254.086)" fill="#EEF1F3"/>
<ellipse cx="127.401" cy="236.226" rx="4.76265" ry="4.36576" transform="rotate(-90 127.401 236.226)" fill="#EEF1F3"/>
<circle cx="127.401" cy="218.366" r="4.36576" transform="rotate(-90 127.401 218.366)" fill="#EEF1F3"/>
<circle cx="4.36576" cy="199.634" r="4.36576" transform="rotate(-90 4.36576 199.634)" fill="#EEF1F3"/>
<ellipse cx="4.36576" cy="181.774" rx="4.76265" ry="4.36576" transform="rotate(-90 4.36576 181.774)" fill="#EEF1F3"/>
<circle cx="4.36576" cy="163.915" r="4.36576" transform="rotate(-90 4.36576 163.915)" fill="#EEF1F3"/>
<circle cx="4.36576" cy="146.451" r="4.36576" transform="rotate(-90 4.36576 146.451)" fill="#EEF1F3"/>
<ellipse cx="4.36576" cy="128.591" rx="4.76265" ry="4.36576" transform="rotate(-90 4.36576 128.591)" fill="#EEF1F3"/>
<circle cx="4.36576" cy="110.731" r="4.36576" transform="rotate(-90 4.36576 110.731)" fill="#EEF1F3"/>
<circle cx="4.36576" cy="93.2685" r="4.36576" transform="rotate(-90 4.36576 93.2685)" fill="#EEF1F3"/>
<ellipse cx="4.36576" cy="75.4085" rx="4.76265" ry="4.36576" transform="rotate(-90 4.36576 75.4085)" fill="#EEF1F3"/>
<circle cx="4.36576" cy="57.5485" r="4.36576" transform="rotate(-90 4.36576 57.5485)" fill="#EEF1F3"/>
<circle cx="4.36576" cy="40.0857" r="4.36576" transform="rotate(-90 4.36576 40.0857)" fill="#EEF1F3"/>
<ellipse cx="4.36576" cy="22.2256" rx="4.76265" ry="4.36576" transform="rotate(-90 4.36576 22.2256)" fill="#EEF1F3"/>
<circle cx="4.36576" cy="4.36569" r="4.36576" transform="rotate(-90 4.36576 4.36569)" fill="#EEF1F3"/>
<circle cx="21.8286" cy="199.634" r="4.36576" transform="rotate(-90 21.8286 199.634)" fill="#EEF1F3"/>
<ellipse cx="21.8286" cy="181.774" rx="4.76265" ry="4.36576" transform="rotate(-90 21.8286 181.774)" fill="#EEF1F3"/>
<circle cx="21.8286" cy="163.915" r="4.36576" transform="rotate(-90 21.8286 163.915)" fill="#EEF1F3"/>
<circle cx="21.8286" cy="146.451" r="4.36576" transform="rotate(-90 21.8286 146.451)" fill="#EEF1F3"/>
<ellipse cx="21.8286" cy="128.591" rx="4.76265" ry="4.36576" transform="rotate(-90 21.8286 128.591)" fill="#EEF1F3"/>
<circle cx="21.8286" cy="110.731" r="4.36576" transform="rotate(-90 21.8286 110.731)" fill="#EEF1F3"/>
<circle cx="21.8286" cy="93.2685" r="4.36576" transform="rotate(-90 21.8286 93.2685)" fill="#EEF1F3"/>
<ellipse cx="21.8286" cy="75.4085" rx="4.76265" ry="4.36576" transform="rotate(-90 21.8286 75.4085)" fill="#EEF1F3"/>
<circle cx="21.8286" cy="57.5485" r="4.36576" transform="rotate(-90 21.8286 57.5485)" fill="#EEF1F3"/>
<circle cx="21.8286" cy="40.0857" r="4.36576" transform="rotate(-90 21.8286 40.0857)" fill="#EEF1F3"/>
<ellipse cx="21.8286" cy="22.2256" rx="4.76265" ry="4.36576" transform="rotate(-90 21.8286 22.2256)" fill="#EEF1F3"/>
<circle cx="21.8286" cy="4.36569" r="4.36576" transform="rotate(-90 21.8286 4.36569)" fill="#EEF1F3"/>
<circle cx="39.292" cy="199.634" r="4.36576" transform="rotate(-90 39.292 199.634)" fill="#EEF1F3"/>
<ellipse cx="39.292" cy="181.774" rx="4.76265" ry="4.36576" transform="rotate(-90 39.292 181.774)" fill="#EEF1F3"/>
<circle cx="39.292" cy="163.915" r="4.36576" transform="rotate(-90 39.292 163.915)" fill="#EEF1F3"/>
<circle cx="39.292" cy="146.451" r="4.36576" transform="rotate(-90 39.292 146.451)" fill="#EEF1F3"/>
<ellipse cx="39.292" cy="128.591" rx="4.76265" ry="4.36576" transform="rotate(-90 39.292 128.591)" fill="#EEF1F3"/>
<circle cx="39.292" cy="110.731" r="4.36576" transform="rotate(-90 39.292 110.731)" fill="#EEF1F3"/>
<circle cx="39.292" cy="93.2685" r="4.36576" transform="rotate(-90 39.292 93.2685)" fill="#EEF1F3"/>
<ellipse cx="39.292" cy="75.4085" rx="4.76265" ry="4.36576" transform="rotate(-90 39.292 75.4085)" fill="#EEF1F3"/>
<circle cx="39.292" cy="57.5485" r="4.36576" transform="rotate(-90 39.292 57.5485)" fill="#EEF1F3"/>
<circle cx="39.292" cy="40.0857" r="4.36576" transform="rotate(-90 39.292 40.0857)" fill="#EEF1F3"/>
<ellipse cx="39.292" cy="22.2256" rx="4.76265" ry="4.36576" transform="rotate(-90 39.292 22.2256)" fill="#EEF1F3"/>
<circle cx="39.292" cy="4.36569" r="4.36576" transform="rotate(-90 39.292 4.36569)" fill="#EEF1F3"/>
<ellipse cx="57.152" cy="199.634" rx="4.36576" ry="3.96887" transform="rotate(-90 57.152 199.634)" fill="#EEF1F3"/>
<ellipse cx="57.152" cy="181.774" rx="4.76265" ry="3.96887" transform="rotate(-90 57.152 181.774)" fill="#EEF1F3"/>
<ellipse cx="57.152" cy="163.915" rx="4.36576" ry="3.96887" transform="rotate(-90 57.152 163.915)" fill="#EEF1F3"/>
<ellipse cx="57.152" cy="146.451" rx="4.36576" ry="3.96887" transform="rotate(-90 57.152 146.451)" fill="#EEF1F3"/>
<ellipse cx="57.152" cy="128.591" rx="4.76265" ry="3.96887" transform="rotate(-90 57.152 128.591)" fill="#EEF1F3"/>
<ellipse cx="57.152" cy="110.731" rx="4.36576" ry="3.96887" transform="rotate(-90 57.152 110.731)" fill="#EEF1F3"/>
<ellipse cx="57.152" cy="93.2685" rx="4.36576" ry="3.96887" transform="rotate(-90 57.152 93.2685)" fill="#EEF1F3"/>
<ellipse cx="57.152" cy="75.4085" rx="4.76265" ry="3.96887" transform="rotate(-90 57.152 75.4085)" fill="#EEF1F3"/>
<ellipse cx="57.152" cy="57.5485" rx="4.36576" ry="3.96887" transform="rotate(-90 57.152 57.5485)" fill="#EEF1F3"/>
<ellipse cx="57.152" cy="40.0857" rx="4.36576" ry="3.96887" transform="rotate(-90 57.152 40.0857)" fill="#EEF1F3"/>
<ellipse cx="57.152" cy="22.2256" rx="4.76265" ry="3.96887" transform="rotate(-90 57.152 22.2256)" fill="#EEF1F3"/>
<ellipse cx="57.152" cy="4.36569" rx="4.36576" ry="3.96887" transform="rotate(-90 57.152 4.36569)" fill="#EEF1F3"/>
<circle cx="75.0118" cy="199.634" r="4.36576" transform="rotate(-90 75.0118 199.634)" fill="#EEF1F3"/>
<ellipse cx="75.0118" cy="181.774" rx="4.76265" ry="4.36576" transform="rotate(-90 75.0118 181.774)" fill="#EEF1F3"/>
<circle cx="75.0118" cy="163.915" r="4.36576" transform="rotate(-90 75.0118 163.915)" fill="#EEF1F3"/>
<circle cx="75.0118" cy="146.451" r="4.36576" transform="rotate(-90 75.0118 146.451)" fill="#EEF1F3"/>
<ellipse cx="75.0118" cy="128.591" rx="4.76265" ry="4.36576" transform="rotate(-90 75.0118 128.591)" fill="#EEF1F3"/>
<circle cx="75.0118" cy="110.731" r="4.36576" transform="rotate(-90 75.0118 110.731)" fill="#EEF1F3"/>
<circle cx="75.0118" cy="93.2685" r="4.36576" transform="rotate(-90 75.0118 93.2685)" fill="#EEF1F3"/>
<ellipse cx="75.0118" cy="75.4085" rx="4.76265" ry="4.36576" transform="rotate(-90 75.0118 75.4085)" fill="#EEF1F3"/>
<circle cx="75.0118" cy="57.5485" r="4.36576" transform="rotate(-90 75.0118 57.5485)" fill="#EEF1F3"/>
<circle cx="75.0118" cy="40.0857" r="4.36576" transform="rotate(-90 75.0118 40.0857)" fill="#EEF1F3"/>
<ellipse cx="75.0118" cy="22.2256" rx="4.76265" ry="4.36576" transform="rotate(-90 75.0118 22.2256)" fill="#EEF1F3"/>
<circle cx="75.0118" cy="4.36569" r="4.36576" transform="rotate(-90 75.0118 4.36569)" fill="#EEF1F3"/>
<circle cx="92.4746" cy="199.634" r="4.36576" transform="rotate(-90 92.4746 199.634)" fill="#EEF1F3"/>
<ellipse cx="92.4746" cy="181.774" rx="4.76265" ry="4.36576" transform="rotate(-90 92.4746 181.774)" fill="#EEF1F3"/>
<circle cx="92.4746" cy="163.914" r="4.36576" transform="rotate(-90 92.4746 163.914)" fill="#EEF1F3"/>
<circle cx="92.4746" cy="146.451" r="4.36576" transform="rotate(-90 92.4746 146.451)" fill="#EEF1F3"/>
<ellipse cx="92.4746" cy="128.591" rx="4.76265" ry="4.36576" transform="rotate(-90 92.4746 128.591)" fill="#EEF1F3"/>
<circle cx="92.4746" cy="110.731" r="4.36576" transform="rotate(-90 92.4746 110.731)" fill="#EEF1F3"/>
<circle cx="92.4746" cy="93.2685" r="4.36576" transform="rotate(-90 92.4746 93.2685)" fill="#EEF1F3"/>
<ellipse cx="92.4746" cy="75.4085" rx="4.76265" ry="4.36576" transform="rotate(-90 92.4746 75.4085)" fill="#EEF1F3"/>
<circle cx="92.4746" cy="57.5485" r="4.36576" transform="rotate(-90 92.4746 57.5485)" fill="#EEF1F3"/>
<circle cx="92.4746" cy="40.0857" r="4.36576" transform="rotate(-90 92.4746 40.0857)" fill="#EEF1F3"/>
<ellipse cx="92.4746" cy="22.2256" rx="4.76265" ry="4.36576" transform="rotate(-90 92.4746 22.2256)" fill="#EEF1F3"/>
<circle cx="92.4746" cy="4.36569" r="4.36576" transform="rotate(-90 92.4746 4.36569)" fill="#EEF1F3"/>
<circle cx="109.938" cy="199.634" r="4.36576" transform="rotate(-90 109.938 199.634)" fill="#EEF1F3"/>
<ellipse cx="109.938" cy="181.774" rx="4.76265" ry="4.36576" transform="rotate(-90 109.938 181.774)" fill="#EEF1F3"/>
<circle cx="109.938" cy="163.914" r="4.36576" transform="rotate(-90 109.938 163.914)" fill="#EEF1F3"/>
<circle cx="109.938" cy="146.451" r="4.36576" transform="rotate(-90 109.938 146.451)" fill="#EEF1F3"/>
<ellipse cx="109.938" cy="128.591" rx="4.76265" ry="4.36576" transform="rotate(-90 109.938 128.591)" fill="#EEF1F3"/>
<circle cx="109.938" cy="110.731" r="4.36576" transform="rotate(-90 109.938 110.731)" fill="#EEF1F3"/>
<circle cx="109.938" cy="93.2685" r="4.36576" transform="rotate(-90 109.938 93.2685)" fill="#EEF1F3"/>
<ellipse cx="109.938" cy="75.4085" rx="4.76265" ry="4.36576" transform="rotate(-90 109.938 75.4085)" fill="#EEF1F3"/>
<circle cx="109.938" cy="57.5485" r="4.36576" transform="rotate(-90 109.938 57.5485)" fill="#EEF1F3"/>
<circle cx="109.938" cy="40.0857" r="4.36576" transform="rotate(-90 109.938 40.0857)" fill="#EEF1F3"/>
<ellipse cx="109.938" cy="22.2256" rx="4.76265" ry="4.36576" transform="rotate(-90 109.938 22.2256)" fill="#EEF1F3"/>
<circle cx="109.938" cy="4.36569" r="4.36576" transform="rotate(-90 109.938 4.36569)" fill="#EEF1F3"/>
<circle cx="127.401" cy="199.634" r="4.36576" transform="rotate(-90 127.401 199.634)" fill="#EEF1F3"/>
<ellipse cx="127.401" cy="181.774" rx="4.76265" ry="4.36576" transform="rotate(-90 127.401 181.774)" fill="#EEF1F3"/>
<circle cx="127.401" cy="163.914" r="4.36576" transform="rotate(-90 127.401 163.914)" fill="#EEF1F3"/>
<circle cx="127.401" cy="146.451" r="4.36576" transform="rotate(-90 127.401 146.451)" fill="#EEF1F3"/>
<ellipse cx="127.401" cy="128.591" rx="4.76265" ry="4.36576" transform="rotate(-90 127.401 128.591)" fill="#EEF1F3"/>
<circle cx="127.401" cy="110.731" r="4.36576" transform="rotate(-90 127.401 110.731)" fill="#EEF1F3"/>
<circle cx="127.401" cy="93.2685" r="4.36576" transform="rotate(-90 127.401 93.2685)" fill="#EEF1F3"/>
<ellipse cx="127.401" cy="75.4085" rx="4.76265" ry="4.36576" transform="rotate(-90 127.401 75.4085)" fill="#EEF1F3"/>
<circle cx="127.401" cy="57.5485" r="4.36576" transform="rotate(-90 127.401 57.5485)" fill="#EEF1F3"/>
<circle cx="127.401" cy="40.0857" r="4.36576" transform="rotate(-90 127.401 40.0857)" fill="#EEF1F3"/>
<ellipse cx="127.401" cy="22.2256" rx="4.76265" ry="4.36576" transform="rotate(-90 127.401 22.2256)" fill="#EEF1F3"/>
<circle cx="127.401" cy="4.36569" r="4.36576" transform="rotate(-90 127.401 4.36569)" fill="#EEF1F3"/>
</svg>
