<svg width="204" height="132" viewBox="0 0 204 132" fill="none" xmlns="http://www.w3.org/2000/svg">
<circle cx="4.36576" cy="4.59965" r="4.36576" fill="#EEF1F3"/>
<ellipse cx="22.2258" cy="4.59965" rx="4.76265" ry="4.36576" fill="#EEF1F3"/>
<circle cx="40.0855" cy="4.59965" r="4.36576" fill="#EEF1F3"/>
<circle cx="57.5486" cy="4.59965" r="4.36576" fill="#EEF1F3"/>
<ellipse cx="75.4086" cy="4.59965" rx="4.76265" ry="4.36576" fill="#EEF1F3"/>
<circle cx="93.2686" cy="4.59965" r="4.36576" fill="#EEF1F3"/>
<circle cx="110.731" cy="4.59965" r="4.36576" fill="#EEF1F3"/>
<ellipse cx="128.592" cy="4.59965" rx="4.76265" ry="4.36576" fill="#EEF1F3"/>
<circle cx="146.451" cy="4.59965" r="4.36576" fill="#EEF1F3"/>
<circle cx="163.914" cy="4.59965" r="4.36576" fill="#EEF1F3"/>
<ellipse cx="181.774" cy="4.59965" rx="4.76265" ry="4.36576" fill="#EEF1F3"/>
<circle cx="199.634" cy="4.59965" r="4.36576" fill="#EEF1F3"/>
<circle cx="4.36576" cy="22.0625" r="4.36576" fill="#EEF1F3"/>
<ellipse cx="22.2258" cy="22.0625" rx="4.76265" ry="4.36576" fill="#EEF1F3"/>
<circle cx="40.0855" cy="22.0625" r="4.36576" fill="#EEF1F3"/>
<circle cx="57.5486" cy="22.0625" r="4.36576" fill="#EEF1F3"/>
<ellipse cx="75.4086" cy="22.0625" rx="4.76265" ry="4.36576" fill="#EEF1F3"/>
<circle cx="93.2686" cy="22.0625" r="4.36576" fill="#EEF1F3"/>
<circle cx="110.731" cy="22.0625" r="4.36576" fill="#EEF1F3"/>
<ellipse cx="128.592" cy="22.0625" rx="4.76265" ry="4.36576" fill="#EEF1F3"/>
<circle cx="146.451" cy="22.0625" r="4.36576" fill="#EEF1F3"/>
<circle cx="163.914" cy="22.0625" r="4.36576" fill="#EEF1F3"/>
<ellipse cx="181.774" cy="22.0625" rx="4.76265" ry="4.36576" fill="#EEF1F3"/>
<circle cx="199.634" cy="22.0625" r="4.36576" fill="#EEF1F3"/>
<circle cx="4.36576" cy="39.5259" r="4.36576" fill="#EEF1F3"/>
<ellipse cx="22.2258" cy="39.5259" rx="4.76265" ry="4.36576" fill="#EEF1F3"/>
<circle cx="40.0855" cy="39.5259" r="4.36576" fill="#EEF1F3"/>
<circle cx="57.5486" cy="39.5259" r="4.36576" fill="#EEF1F3"/>
<ellipse cx="75.4086" cy="39.5259" rx="4.76265" ry="4.36576" fill="#EEF1F3"/>
<circle cx="93.2686" cy="39.5259" r="4.36576" fill="#EEF1F3"/>
<circle cx="110.731" cy="39.5259" r="4.36576" fill="#EEF1F3"/>
<ellipse cx="128.592" cy="39.5259" rx="4.76265" ry="4.36576" fill="#EEF1F3"/>
<circle cx="146.451" cy="39.5259" r="4.36576" fill="#EEF1F3"/>
<circle cx="163.914" cy="39.5259" r="4.36576" fill="#EEF1F3"/>
<ellipse cx="181.774" cy="39.5259" rx="4.76265" ry="4.36576" fill="#EEF1F3"/>
<circle cx="199.634" cy="39.5259" r="4.36576" fill="#EEF1F3"/>
<ellipse cx="4.36576" cy="57.3859" rx="4.36576" ry="3.96887" fill="#EEF1F3"/>
<ellipse cx="22.2258" cy="57.3859" rx="4.76265" ry="3.96887" fill="#EEF1F3"/>
<ellipse cx="40.0855" cy="57.3859" rx="4.36576" ry="3.96887" fill="#EEF1F3"/>
<ellipse cx="57.5486" cy="57.3859" rx="4.36576" ry="3.96887" fill="#EEF1F3"/>
<ellipse cx="75.4086" cy="57.3859" rx="4.76265" ry="3.96887" fill="#EEF1F3"/>
<ellipse cx="93.2686" cy="57.3859" rx="4.36576" ry="3.96887" fill="#EEF1F3"/>
<ellipse cx="110.731" cy="57.3859" rx="4.36576" ry="3.96887" fill="#EEF1F3"/>
<ellipse cx="128.592" cy="57.3859" rx="4.76265" ry="3.96887" fill="#EEF1F3"/>
<ellipse cx="146.451" cy="57.3859" rx="4.36576" ry="3.96887" fill="#EEF1F3"/>
<ellipse cx="163.914" cy="57.3859" rx="4.36576" ry="3.96887" fill="#EEF1F3"/>
<ellipse cx="181.774" cy="57.3859" rx="4.76265" ry="3.96887" fill="#EEF1F3"/>
<ellipse cx="199.634" cy="57.3859" rx="4.36576" ry="3.96887" fill="#EEF1F3"/>
<circle cx="4.36576" cy="75.2456" r="4.36576" fill="#EEF1F3"/>
<ellipse cx="22.2258" cy="75.2456" rx="4.76265" ry="4.36576" fill="#EEF1F3"/>
<circle cx="40.0855" cy="75.2456" r="4.36576" fill="#EEF1F3"/>
<circle cx="57.5486" cy="75.2456" r="4.36576" fill="#EEF1F3"/>
<ellipse cx="75.4086" cy="75.2456" rx="4.76265" ry="4.36576" fill="#EEF1F3"/>
<circle cx="93.2686" cy="75.2456" r="4.36576" fill="#EEF1F3"/>
<circle cx="110.731" cy="75.2456" r="4.36576" fill="#EEF1F3"/>
<ellipse cx="128.592" cy="75.2456" rx="4.76265" ry="4.36576" fill="#EEF1F3"/>
<circle cx="146.451" cy="75.2456" r="4.36576" fill="#EEF1F3"/>
<circle cx="163.914" cy="75.2456" r="4.36576" fill="#EEF1F3"/>
<ellipse cx="181.774" cy="75.2456" rx="4.76265" ry="4.36576" fill="#EEF1F3"/>
<circle cx="199.634" cy="75.2456" r="4.36576" fill="#EEF1F3"/>
<circle cx="4.36576" cy="92.7085" r="4.36576" fill="#EEF1F3"/>
<ellipse cx="22.2258" cy="92.7085" rx="4.76265" ry="4.36576" fill="#EEF1F3"/>
<circle cx="40.0855" cy="92.7085" r="4.36576" fill="#EEF1F3"/>
<circle cx="57.5486" cy="92.7085" r="4.36576" fill="#EEF1F3"/>
<ellipse cx="75.4086" cy="92.7085" rx="4.76265" ry="4.36576" fill="#EEF1F3"/>
<circle cx="93.2686" cy="92.7085" r="4.36576" fill="#EEF1F3"/>
<circle cx="110.731" cy="92.7085" r="4.36576" fill="#EEF1F3"/>
<ellipse cx="128.592" cy="92.7085" rx="4.76265" ry="4.36576" fill="#EEF1F3"/>
<circle cx="146.451" cy="92.7085" r="4.36576" fill="#EEF1F3"/>
<circle cx="163.914" cy="92.7085" r="4.36576" fill="#EEF1F3"/>
<ellipse cx="181.774" cy="92.7085" rx="4.76265" ry="4.36576" fill="#EEF1F3"/>
<circle cx="199.634" cy="92.7085" r="4.36576" fill="#EEF1F3"/>
<circle cx="4.36576" cy="110.171" r="4.36576" fill="#EEF1F3"/>
<ellipse cx="22.2258" cy="110.171" rx="4.76265" ry="4.36576" fill="#EEF1F3"/>
<circle cx="40.0855" cy="110.171" r="4.36576" fill="#EEF1F3"/>
<circle cx="57.5486" cy="110.171" r="4.36576" fill="#EEF1F3"/>
<ellipse cx="75.4086" cy="110.171" rx="4.76265" ry="4.36576" fill="#EEF1F3"/>
<circle cx="93.2686" cy="110.171" r="4.36576" fill="#EEF1F3"/>
<circle cx="110.731" cy="110.171" r="4.36576" fill="#EEF1F3"/>
<ellipse cx="128.592" cy="110.171" rx="4.76265" ry="4.36576" fill="#EEF1F3"/>
<circle cx="146.451" cy="110.171" r="4.36576" fill="#EEF1F3"/>
<circle cx="163.914" cy="110.171" r="4.36576" fill="#EEF1F3"/>
<ellipse cx="181.774" cy="110.171" rx="4.76265" ry="4.36576" fill="#EEF1F3"/>
<circle cx="199.634" cy="110.171" r="4.36576" fill="#EEF1F3"/>
<circle cx="4.36576" cy="127.635" r="4.36576" fill="#EEF1F3"/>
<ellipse cx="22.2258" cy="127.635" rx="4.76265" ry="4.36576" fill="#EEF1F3"/>
<circle cx="40.0855" cy="127.635" r="4.36576" fill="#EEF1F3"/>
<circle cx="57.5486" cy="127.635" r="4.36576" fill="#EEF1F3"/>
<ellipse cx="75.4086" cy="127.635" rx="4.76265" ry="4.36576" fill="#EEF1F3"/>
<circle cx="93.2686" cy="127.635" r="4.36576" fill="#EEF1F3"/>
<circle cx="110.731" cy="127.635" r="4.36576" fill="#EEF1F3"/>
<ellipse cx="128.592" cy="127.635" rx="4.76265" ry="4.36576" fill="#EEF1F3"/>
<circle cx="146.451" cy="127.635" r="4.36576" fill="#EEF1F3"/>
<circle cx="163.914" cy="127.635" r="4.36576" fill="#EEF1F3"/>
<ellipse cx="181.774" cy="127.635" rx="4.76265" ry="4.36576" fill="#EEF1F3"/>
<circle cx="199.634" cy="127.635" r="4.36576" fill="#EEF1F3"/>
</svg>
