<?xml version="1.0" encoding="utf-8"?>
<svg version="1.1" id="Layer_1" xmlns="http://www.w3.org/2000/svg" xmlns:xlink="http://www.w3.org/1999/xlink" x="0px" y="0px"
	 viewBox="0 0 69.2 64.5" enable-background="new 0 0 69.2 64.5" xml:space="preserve">
<rect x="0" y="0" fill-rule="evenodd" clip-rule="evenodd" fill="none" width="69.2" height="64.5"/>
<path fill-rule="evenodd" clip-rule="evenodd" fill="#FFFFFF" d="M53.5,10.9c-1.4-1.4-2.2-1.6-1.6-0.6c0.4,0.6,0.7,1.3,0.9,1.9
	c0.7,1.8,1,3.4,1,4.9c0,2.5-0.3,4.6-1,6.2c-0.7,1.6-1.5,3-2.4,4.2c-1,1.2-2,2.1-3.2,2.9c-1.2,0.8-2.3,1.6-3.3,2.4
	c-1,0.8-2,1.7-2.8,2.8c-0.4,0.5-0.8,1.2-1,1.9c-0.4,1.1-0.5,2.7-0.5,3.6c0,0.8-2.4,1.5-5.3,1.5c-2.9,0-5.3-0.8-5.3-1.8V39
	c0.2-2.2,0.6-4.1,1.3-5.7c0.7-1.5,1.5-2.8,2.5-3.9c0.9-1.1,1.9-2,3-2.8c1-0.8,2-1.6,2.9-2.4c0.9-0.8,1.6-1.6,2.2-2.6
	c0.5-0.9,0.8-2.1,0.7-3.5c0-2.4-0.6-4.2-1.8-5.3c-1.2-1.1-2.8-1.7-4.9-1.7c-1.4,0-2.6,0.3-3.7,0.8c-1,0.5-1.9,1.3-2.5,2.2
	c-0.7,0.9-1.1,2-1.5,3.2c-0.2,0.6-0.3,1.3-0.4,2c-0.1,1.1-2.7,2-5.9,2c-3.2,0-5.8-1.8-5.4-4c0.2-1.3,0.6-2.6,1.1-3.8
	c0.9-2.4,2.2-4.4,3.9-6.1c0.1-0.1,0.1-0.1,0.2-0.2l0,0h0c-0.1,0-1.4,0.7-2.8,1.9c-6.4,5-10.5,12.8-10.5,21.5
	C7.3,42.8,15.1,53,26,56.6c1.9,0.6,2.7,0.2,2.2-1c-0.3-0.7-0.4-1.5-0.4-2.2c0-3.3,2.8-6.1,6.2-6.1c3.4,0,6.2,2.7,6.2,6.1
	c0,0.9-0.2,1.7-0.5,2.4c-0.6,1.3,0.2,1.8,2.1,1.3C53.3,54,61.9,43.3,61.9,30.7C62,22.9,58.7,15.8,53.5,10.9z"/>
</svg>
