<?xml version="1.0" encoding="utf-8"?>
<svg version="1.1" id="Layer_1" xmlns="http://www.w3.org/2000/svg" xmlns:xlink="http://www.w3.org/1999/xlink" x="0px" y="0px"
	 viewBox="0 0 20.3 37.1" enable-background="new 0 0 20.3 37.1" xml:space="preserve">
<path fill-rule="evenodd" clip-rule="evenodd" fill="#D0D1D1" d="M14.9,0.9c1.2-1.2,3.2-1.2,4.5,0c1.2,1.2,1.2,3.2,0,4.5l-13,13l0,0
	l0,0c0,0,0,0.1,0,0.1c0,0.1,0,0.1,0.1,0.2l0,0l0,0l13,13c1.2,1.2,1.2,3.2,0,4.5c-1.2,1.2-3.2,1.2-4.5,0l-13-13l0,0l0,0l0,0
	C0.6,21.9,0,20.2,0,18.5c0-1.6,0.6-3.1,1.7-4.4c0.1-0.1,0.1-0.2,0.2-0.2l0,0L14.9,0.9z"/>
</svg>
