<?xml version="1.0" encoding="utf-8"?>
<svg version="1.1" id="Layer_1" xmlns="http://www.w3.org/2000/svg" xmlns:xlink="http://www.w3.org/1999/xlink" x="0px" y="0px"
	 viewBox="0 0 34.1 33.8" enable-background="new 0 0 34.1 33.8" xml:space="preserve">
<path fill-rule="evenodd" clip-rule="evenodd" fill="#FFFFFF" d="M10.4,5.7h13.3c0.1,0,0.1,0,0.2,0.1l0.3,0.3
	c0.1,0.1,0.1,0.5-0.1,0.6l-0.4,0.2H10.4c-0.1,0,0,0-0.1,0c-0.1,0-0.1,0-0.2-0.1l0,0C10,6.7,10,6.6,9.9,6.6c-0.1-0.3,0-0.6,0.2-0.8
	c0,0,0,0,0,0C10.3,5.8,10.3,5.7,10.4,5.7L10.4,5.7z M34.1,14.1c-0.1,0-0.1,0-0.1-0.1c0-0.1,0-0.1-0.1-0.2c-0.1-0.1-0.1-0.2-0.2-0.2
	l-0.3-0.2c-0.1-0.1-0.2-0.1-0.3-0.2L32.6,13c0,0,0,0,0,0l-0.3-0.2c0,0,0,0,0,0l-0.1,0c0,0,0,0-0.1,0c0,0,0,0,0,0l-0.1-0.1
	c0,0,0,0,0,0c0,0,0,0,0,0l-1.4-0.8c0,0,0,0,0,0c0,0,0,0,0,0l-0.2-0.1c0,0,0,0,0,0l-0.6-0.4c0,0,0,0,0,0l0,0c0,0,0,0,0,0c0,0,0,0,0,0
	c0,0,0,0,0,0l-0.1-0.1c0,0,0,0,0,0c0,0,0,0,0,0l-0.3-0.2c0,0,0,0,0,0l0,0c0,0,0,0,0,0l-0.1,0c0,0,0,0,0,0c0,0,0,0,0,0l-0.3-0.2
	c-0.1-0.1,0.1,0,0,0l-0.3-0.1c-0.1,0-0.2-0.1-0.2-0.1c0-0.1,0-8.1,0-9.1c0-0.5,0.1-0.9-0.4-1.1c0,0,0,0-0.1,0c-0.1,0-0.2,0-0.2,0
	H7.2C6.8,0,6.6-0.1,6.4,0.1C6.3,0.2,6.2,0.3,6.2,0.4c0,0,0,0,0,0c0,0.1,0,8.4,0,9.5c0,0.1,0,0.3-0.1,0.4c0,0-0.1,0.1-0.1,0.1
	l-0.7,0.4c0,0,0,0,0,0l-0.2,0.1c0,0,0,0-0.1,0L4.9,11c0,0,0,0,0,0l-0.2,0.1c0,0,0,0,0,0c-0.2,0.1-0.3,0.2-0.5,0.3l-0.7,0.4
	c0,0,0,0-0.1,0l-1,0.6c0,0,0,0,0,0l-0.7,0.4c0,0,0,0,0,0l-0.4,0.2c0,0,0,0,0,0c0,0,0,0,0,0c0,0,0,0,0,0c-0.1,0.1-0.1,0.1-0.2,0.1
	c0,0,0,0,0,0c0,0,0,0,0,0c0,0,0,0,0,0l-0.4,0.2c0,0,0,0,0,0l-0.2,0.1l-0.1,0.2c0,0.1,0,0,0,0.1L0,14.2c0,0.1,0,0.4,0,0.5
	c0,2.5,0,18.4,0,18.5c0,0.1,0,0,0,0c0.1,0.1,0,0.2,0.1,0.3c0.1,0.1,0.1,0.2,0.2,0.2c0.2,0.1,0.4,0.1,0.6,0.1h30.1c0.2,0,2.3,0,2.5,0
	c0.2,0,0.3-0.2,0.4-0.3c0.1-0.1,0-0.3,0.1-0.3V14.1L34.1,14.1z M1.3,15.4c0-0.1,0-0.1,0-0.1l0.2,0.1c0,0,0,0,0,0L2,15.6c0,0,0,0,0,0
	c0,0,0,0,0,0l0.5,0.3c0,0,0,0,0,0c0.1,0,0,0,0,0l0.5,0.3c0,0,0,0,0,0c0,0,0,0,0,0l0.2,0.1c0,0,0,0,0,0c0,0,0,0,0,0l0.3,0.2
	c0,0,0,0,0,0L4.3,17c0,0,0,0,0,0c0,0,0,0,0,0l0.1,0.1c0.1,0,0,0,0.1,0l0.8,0.5c0,0,0,0,0,0c0,0,0,0,0,0l0.9,0.5c0,0,0,0,0,0l0,0
	c0,0,0,0,0,0c0,0,0,0,0,0l0.8,0.5c0.1,0.1,0.1,0.1,0.2,0.1v0.1c0.1,0,0.3,0.1,0.4,0.2l1,0.6c0,0,0,0,0,0c0,0,0,0,0.1,0c0,0,0,0,0,0
	L9,19.7c0,0,0,0,0.1,0l0.1,0.1c0,0,0,0,0,0L9.4,20c0,0,0,0,0,0l0.1,0c0,0,0,0,0,0l0.4,0.2c0,0,0,0,0,0l0.3,0.2c0,0,0,0,0,0l0.3,0.2
	c0,0,0,0,0.1,0c0,0,0,0,0,0l0.5,0.3c0,0,0,0,0,0l0.4,0.2c0,0,0,0,0,0l0.7,0.4c0.1,0.1-0.1,0,0,0l0.5,0.3c0,0,0,0,0,0c0,0,0,0,0,0
	c0,0,0,0,0,0l0.2,0.1c0,0,0,0,0,0l1,0.6c0,0,0,0,0,0l0.3,0.2c0,0,0,0,0,0l0,0c0,0,0,0,0,0l1.4,0.8c0,0,0,0,0,0c0,0,0,0,0.1,0
	l0.2,0.1c0,0,0,0,0,0l0,0c0,0,0,0,0,0l0.3,0.2c0,0,0,0,0,0l0,0c0,0,0,0,0,0c0,0,0,0,0,0l0.3,0.1c0.1,0,0.2,0,0.3,0l0.6-0.3
	c0,0,0,0,0,0l0.1-0.1c0,0,0,0,0,0l0.3-0.2c0,0,0,0,0,0l0.1,0c0,0,0,0,0,0l0.7-0.4c0,0,0,0,0,0l0.6-0.4c0,0,0,0,0.1,0c0,0,0,0,0,0
	c0,0,0,0,0,0c0,0,0,0,0,0l0.4-0.2c0,0,0,0,0,0l0.2-0.1c0,0,0,0,0,0l0.1-0.1c0,0,0,0,0,0l0.1,0c0,0,0,0,0,0l1-0.6
	c0.1,0,0.1,0,0.1-0.1l0,0c0,0,0,0,0,0l0.2-0.1c0,0,0,0,0,0c0,0,0,0,0,0l0.2-0.1c0,0,0,0,0,0l0.1,0c0,0,0,0,0,0l0.5-0.3c0,0,0,0,0,0
	l1.4-0.8c0,0,0,0,0.1,0c0,0,0,0,0.1,0l0.3-0.2c0,0,0,0,0,0l0.1,0v-0.1c0.1,0,0.1-0.1,0.2-0.1c0,0,0,0,0,0l0.8-0.4c0,0,0,0,0,0
	l0.6-0.3c0,0,0,0,0,0c0,0,0,0,0,0l0.6-0.3c0,0,0,0,0,0l0.3-0.2c0,0,0,0,0,0l0.3-0.2c0,0,0,0,0,0c0,0,0,0,0,0l0.8-0.5
	c0.2-0.1,0.4-0.3,0.7-0.4l0.1,0c0,0,0,0,0,0l0.3-0.2c0,0,0,0,0.1,0l0.5-0.3c0,0,0,0,0,0c0,0,0,0,0,0l0.2-0.1c0,0,0,0,0,0l0.1-0.1
	c0,0,0,0,0,0l0.7-0.4c0,0,0,0,0,0l0.1-0.1c0,0,0,0,0,0l0.1-0.1c0,0,0,0,0,0s0,0,0,0c0,0,0,0,0,0l0.9-0.5c0,0,0,0,0,0c0,0,0,0,0,0
	l0.1-0.1c0,0,0,0.1,0,0.1v17.1c0,0.1-0.1,0.1-0.1,0.1H1.4c-0.1,0-0.1,0-0.1-0.1V15.4L1.3,15.4z M7.4,1.2c0,0.1,0,0.1,0,0.2
	c0,1.4,0,15.8,0,16c0,0.1,0,0,0.1,0.1c0,0,0,0,0.1,0c0,0,0,0,0,0c0,0,0,0,0,0l0,0c0,0,0,0,0,0l0.2,0.1c0,0,0,0,0,0l0.3,0.2
	c0,0,0,0,0,0l0.2,0.1c0,0,0,0,0,0l0.3,0.2c0,0,0,0,0.1,0c0,0,0,0,0.1,0l0.5,0.3c0,0,0,0,0,0l1,0.6c0,0,0,0,0,0l0.4,0.2c0,0,0,0,0,0
	c0,0,0,0,0,0l1.2,0.7c0,0,0,0,0,0c0,0,0,0,0,0l0.2,0.1c0,0,0,0,0,0c0,0,0,0,0,0l0.5,0.3c0,0,0.1,0,0.1,0l0.2,0.1c0,0,0,0,0,0l0.1,0
	c0,0,0,0,0,0l0.1,0.1c0,0,0,0,0,0l0,0c0,0,0,0,0,0l0.3,0.2c0,0,0,0,0,0l3.4,2c0.1,0,0.1,0.1,0.2,0l0.8-0.5c0,0,0,0,0,0c0,0,0,0,0,0
	c0,0,0,0,0,0l0.1,0c0,0,0,0,0,0c0,0,0,0,0,0l0.5-0.3c0,0,0,0,0,0c0,0,0,0,0,0l0.4-0.2c0,0,0,0,0.1,0l0.5-0.3c0,0,0,0,0.1,0l0.7-0.4
	c0,0,0,0,0,0l0.1,0c0,0,0,0,0.1,0l1-0.6c0,0,0,0,0,0c0,0,0,0,0,0l0.2-0.1c0,0,0,0,0,0l0,0c0,0,0,0,0,0l0.5-0.3c0,0,0,0,0,0
	c0,0,0,0,0,0c0,0,0,0,0,0l0.1,0c0,0,0,0,0,0l1.2-0.7c0,0,0,0,0,0l0.5-0.3c0,0,0,0,0,0l0.3-0.2c0,0,0,0,0,0l0.2-0.1v-0.1
	c0.1,0,0.1,0,0.2-0.1l0.5-0.3c0.1,0,0.2-0.1,0.3-0.1V18c0.1,0,0,0,0.1,0l0.9-0.5c0.1,0,0.1-0.1,0.1-0.1c0,0,0-0.1,0-0.1V1.4
	c0-0.1,0-0.1,0-0.2c-0.1,0-0.1,0-0.2,0h-19C7.4,1.2,7.4,1.2,7.4,1.2L7.4,1.2z M2,14.2c0-0.1,0.1-0.1,0.2-0.2c0,0,0,0,0,0
	c0,0,0,0,0,0l0.6-0.4c0,0,0,0,0,0c0,0,0,0,0,0c0,0,0,0,0.1,0l0.2-0.1c0,0,0,0,0,0l0.4-0.2c0.1-0.1-0.1,0,0,0l0.1-0.1c0,0,0,0,0.1,0
	l0.1,0c0,0,0,0,0,0c0,0,0,0,0,0l0.4-0.2c0,0,0,0,0.1,0l0.8-0.4c0,0,0,0,0,0c0,0,0,0,0,0l0.3-0.2c0,0,0,0,0,0l0.4-0.2c0,0,0,0,0,0
	l0,0c0.1,0,0.1,0,0.1-0.1c0,0.1,0,0.1,0,0.2v4.4c0,0.1,0,0.1,0,0.2c-0.1,0-0.2,0-0.3-0.1l0,0c0,0,0,0,0,0l0,0c0,0,0,0,0,0l-0.2-0.1
	c0,0,0,0,0,0l-0.9-0.5c0,0,0,0,0,0l-0.1-0.1c0,0,0,0,0,0l-0.2-0.1c0,0,0,0,0,0l-0.1,0c0,0,0,0,0,0c-0.1,0-0.1-0.1-0.2-0.1v-0.1
	c-0.1,0-0.2-0.1-0.3-0.1l-0.8-0.5c0,0,0,0,0,0l-0.2-0.1c0,0,0,0,0,0l-0.6-0.3c0,0,0,0,0,0c0,0,0,0,0,0L2,14.2L2,14.2z M27.9,11.9
	c0-0.1,0-0.1,0-0.2c0.2,0,0.2,0.1,0.4,0.2c0,0,0,0,0,0c0,0,0,0,0,0l0.3,0.2c0,0,0,0,0,0c0,0,0,0,0,0l0.3,0.2c0,0,0,0,0,0l0.7,0.4
	c0,0,0,0,0,0l1.2,0.7c0,0,0,0,0,0l0.8,0.5c0,0,0,0,0,0c0.1,0.1,0.3,0.2,0.4,0.3c0,0.1-0.1,0.1-0.2,0.1l-0.4,0.2c0,0,0,0-0.1,0
	l-1.2,0.7c0,0,0,0,0,0l-0.5,0.3c0,0,0,0,0,0c0,0,0,0,0,0l-0.1,0c0,0,0,0,0,0c0,0,0,0,0,0c0,0,0,0,0,0c0,0,0,0,0,0l-1,0.6
	c0,0,0,0,0,0l-0.1,0.1c0,0,0,0,0,0l-0.1,0.1c0,0,0,0,0,0l-0.3,0.2c0,0,0,0,0,0c0,0-0.1,0-0.1,0c0-0.1,0-0.1,0-0.2V11.9L27.9,11.9z
	 M22.3,30.3l5.7,0.1c0,0,0,0,0,0c0.2,0.1,0.1,0,0.2,0.2l0.1,0.1c0.1,0.2,0.1,0.4-0.1,0.6c-0.1,0.1-0.1,0.2-0.3,0.2
	c-0.2,0,0,0.1-0.4,0.1c-1.8,0-3.6,0-5.3,0c-0.1,0-0.3-0.1-0.4-0.1c-0.2-0.1,0-0.1-0.1-0.1c0,0,0,0,0,0c0,0,0,0,0,0L21.5,31
	c0-0.1,0-0.2,0-0.3c0.1-0.2,0-0.1,0.1-0.2c0.1-0.1,0-0.1,0.2-0.2c0.1-0.1,0.1,0,0.2-0.1C22.1,30.3,22.2,30.3,22.3,30.3L22.3,30.3z
	 M29.7,31.2c0-0.2,0-0.1-0.1-0.2c-0.1-0.3-0.1-0.1,0-0.5c0-0.1,0.1-0.2,0.1-0.2c0.2-0.2,0-0.1,0.3-0.1c0.2,0,0,0,0.2,0
	c0.3,0.1,0-0.1,0.3,0.1c0.2,0.1,0.2,0.2,0.2,0.3c0,0.1,0.1,0.1,0.1,0.2c-0.1,0,0,0-0.1,0.1c0,0.1,0,0.1,0,0.2
	c-0.1,0.1-0.1,0.1-0.1,0.2c-0.1,0.1-0.1,0.2-0.5,0.1C29.8,31.3,29.9,31.3,29.7,31.2C29.7,31.2,29.8,31.2,29.7,31.2L29.7,31.2z
	 M17.3,17.3L17.3,17.3l-7.1,0.1c0-0.1,0-0.1-0.1-0.1c-0.1-0.1,0.1,0.1,0,0c-0.1-0.1,0,0-0.1-0.1l-0.1-0.1c0,0,0,0,0,0
	c-0.1-0.4,0-0.6,0.3-0.7c0.1-0.1,0.1,0,0.2-0.1c0.1-0.1,0-0.1,0.3-0.1h6.2c0.4,0,0.1,0,0.4,0.1c0.1,0,0,0,0.1,0
	c0.2,0.1,0.1,0.1,0.1,0.2h0.1c0,0.1,0,0,0,0.1l0,0.4c0,0.1-0.1,0.2-0.2,0.3C17.3,17.3,17.4,17.3,17.3,17.3L17.3,17.3z M10.7,12.7
	h12.8c0.2,0,0.4,0,0.4,0.1c0,0,0,0,0,0l0.1,0.1c0,0,0,0.1,0.1,0.1l0,0c0.1,0.1,0.1,0.4,0,0.6c0,0.1-0.1,0.1-0.2,0.2l-0.3,0.2H10.4
	c-0.1,0,0,0-0.2-0.1l-0.3-0.3c0,0,0,0,0,0C9.8,13.4,9.9,13.1,10,13l0.2-0.2C10.3,12.7,10.5,12.7,10.7,12.7L10.7,12.7z M23.8,10.4
	H10.3c-0.1,0-0.2-0.1-0.3-0.1c-0.1-0.1,0,0-0.1-0.1c0,0,0,0,0,0c-0.1-0.1-0.1-0.5,0-0.5L10,9.4c0.1-0.1,0.2-0.1,0.4-0.2
	c0.1,0,10.8,0,12.1,0c0.2,0,1-0.1,1.2,0c0.2,0.1,0.1,0,0.3,0.1l0.2,0.3c0,0.1,0,0.2,0,0.3c0,0,0,0,0,0.1l0,0.1
	c0,0.1-0.1,0.2-0.2,0.2C23.9,10.3,23.9,10.4,23.8,10.4z"/>
</svg>
