<?xml version="1.0" encoding="utf-8"?>
<svg version="1.1" id="Layer_1" xmlns="http://www.w3.org/2000/svg" xmlns:xlink="http://www.w3.org/1999/xlink" x="0px" y="0px"
	 viewBox="0 0 403.7 101.7" enable-background="new 0 0 403.7 101.7" xml:space="preserve">
<g>
	<g>
		<path fill-rule="evenodd" clip-rule="evenodd" fill="#FFFFFF" d="M41.4,72.2c-4.5-0.1-8-3.8-10.9-5.5c-1.7-1-3.2-1.4-4.9-2.3
			c-11.6-5.9-9.2-14.4-6-26c0.9-3.2,1.5-3.9-0.7-5.1C3.7,25.6,5.2,11.8,13.2,5.8c3.3-2.5,8.3-2.8,11.2-0.1c1.9,1.8,3.5,6.8,4.2,10.4
			c1,5,1.5,5.8,4,5.7c2.8-0.1,5.8,0,8.8,0.1c3-0.1,6-0.1,8.8-0.1c2.5,0.1,2.9-0.7,4-5.7c0.7-3.6,2.3-8.6,4.2-10.4
			c2.9-2.7,7.9-2.4,11.2,0.1c7.9,6,9.5,19.8-5.7,27.5c-2.2,1.1-1.6,1.8-0.7,5.1c3.2,11.6,5.6,20.1-6,26c-1.8,0.9-3.2,1.3-4.9,2.3
			C49.4,68.4,45.9,72.1,41.4,72.2L41.4,72.2z M32.6,18.2C30.1-14.4-2.9,2.7,4.7,23.9c2.6,7.2,6.9,9,11.5,12.3
			c-0.2,2.1-2.2,7.7-2.7,12c-0.5,4.6,0,9.4,2,12.5c-3-0.4-6.5-2.3-12.3-2.7c-2.1-0.2-3.7-0.4-3.1,2.1c0.5,0.3,7.9,1,12.5,2.4
			c8.9,2.8,7.5,3.5,10.2,4.5c-0.9,0.7-8.7,2.7-10.7,3.4l-7.8,2.8c-1.7,0.7-1.6,0.6-1,2.6c1.7,0.4,7-2.1,9.1-2.8
			c3.3-1.1,6.6-2.1,10.1-3c5-1.2,5-1.2,9.2,2.1c2.4,1.9,5.2,3.6,9.4,3.7c0.1,0,0.2,0,0.3,0c0.1,0,0.2,0,0.3,0c4.1-0.1,7-1.8,9.4-3.7
			c4.2-3.3,4.2-3.3,9.2-2.1c3.5,0.8,6.8,1.9,10.1,3c2.1,0.7,7.4,3.3,9.1,2.8c0.5-2,0.6-1.8-1-2.6l-7.8-2.8c-2-0.7-9.8-2.7-10.7-3.4
			c2.7-1,1.3-1.7,10.2-4.5c4.6-1.5,11.9-2.2,12.5-2.4c0.7-2.4-0.9-2.2-3.1-2.1c-5.8,0.4-9.2,2.3-12.3,2.7c2-3.1,2.5-7.9,2-12.5
			c-0.5-4.3-2.6-9.9-2.7-12c4.6-3.3,9-5.1,11.5-12.3c7.6-21.2-25.4-38.3-27.9-5.7C44,18.2,38.8,18.2,32.6,18.2L32.6,18.2z
			 M41.4,70.6c2.6,0,5-2,4.3-4.6c-0.4-1.6-2.4-2.3-4.3-2.3c-2,0-3.9,0.7-4.3,2.3C36.4,68.6,38.8,70.7,41.4,70.6L41.4,70.6z
			 M56.9,49.6c1.2-5.6-5.5-9.3-7.3-3.7c-0.9,3-0.4,5,1.8,6C54.4,53.1,56.4,51.9,56.9,49.6L56.9,49.6z M65.4,5.7
			C63,4.5,60.3,6.4,58.9,8c-5,6.2-3.5,20.2-2.1,21.8c0.9,1,2.4,0.4,2.7-0.7c0.6-1.8-1.3-6.8,0-13.1c1.9-9.1,4.9-6,6.4-7.5
			C67.3,7.4,66.4,6.1,65.4,5.7L65.4,5.7z M25.9,49.6c0.5,2.3,2.5,3.5,5.4,2.2c2.2-1,2.8-3,1.8-6C31.4,40.3,24.7,44,25.9,49.6
			L25.9,49.6z M17.4,5.7c-1,0.5-1.8,1.7-0.6,2.9c1.5,1.5,4.6-1.7,6.4,7.5c1.3,6.2-0.6,11.3,0,13.1c0.4,1.1,1.9,1.7,2.7,0.7
			c1.5-1.6,2.9-15.6-2.1-21.8C22.5,6.4,19.8,4.5,17.4,5.7z"/>
		<g>
			<path fill-rule="evenodd" clip-rule="evenodd" fill="#FFFFFF" d="M320.4,59.2c-0.8-0.4-4.6-2-5-2.9c-0.4,0.1-0.2,0.1-0.7-0.2
				l-1.6-1.2c-0.9-0.7-3.4-2.7-4.1-3.4c-0.7-0.7-1.2-1.3-1.7-2.2L301,62.7c0.5,0.8,3.4,3.5,4.2,4.1c3.2,2.6,6.3,4.5,10.2,6.1
				c11.1,4.6,24,4.3,33.8-3c1.1-0.9,1.9-1.7,2.9-2.9c4-4.9,5.6-11.4,4.3-18c-4.1-20.3-31.8-16.8-35.5-26c-2.1-5.1,2-7.3,6.4-8.1
				c4.6-0.8,9.4,0.1,13.2,1.6c-0.3,0.5-0.4,0.6,0,0c0.6,0.1,2.9,1.2,3.4,1.5c0.4,0.2,0.2,0.1,0.6,0.3c0.4,0.3,0.3,0.2,0.7,0.4l4,2.6
				c0.5,0.4,0.5,0.3,1,0.8c0.3-0.3,2.6-5.9,3-6.7l2.9-6.9c-0.4-0.4-1.1-0.9-1.6-1.2c-2-1.4-2.8-1.9-5.2-3.2
				c-8.2-4.1-19.1-5.6-27.9-2.9c-2.8,0.8-5.6,2.1-7.6,3.5c-4.6,3.4-7.7,8-8.2,13.9c-0.5,5,0.5,10.3,3.5,14.3
				c1.1,1.6,0.9,1.2,1.8,2.2c1.4,1.5,3.3,2.8,5.1,3.9c7.4,4.1,27.3,5.5,25.8,16.1c-0.3,2.1-1.8,3.4-3.2,4.2
				c-2.4,1.4-6.5,1.9-9.4,1.8C326.7,61.2,322.4,60.3,320.4,59.2z"/>
			<path fill-rule="evenodd" clip-rule="evenodd" fill="#D0D1D1" d="M307.4,49.3c0.5,0.9,1,1.4,1.7,2.2c0.7,0.7,3.3,2.7,4.1,3.4
				l1.6,1.2c0.4,0.3,0.3,0.3,0.7,0.2l4.5-8.3C319.1,48,307.7,49,307.4,49.3z"/>
			<path fill-rule="evenodd" clip-rule="evenodd" fill="#D0D1D1" d="M336.2,24.8c1.9-0.5,13.1-2.1,13.8-2.6c-0.4-0.5-0.5-0.5-1-0.8
				l-4-2.6c-0.3-0.2-0.3-0.1-0.7-0.4c-0.4-0.3-0.1-0.1-0.6-0.3c-0.5-0.3-2.8-1.4-3.4-1.5C340.1,17.1,336.3,24.1,336.2,24.8z"/>
		</g>
		<g>
			<rect x="92.8" y="1.9" fill-rule="evenodd" clip-rule="evenodd" fill="#D0D1D1" width="15.7" height="72.1"/>
			<path fill-rule="evenodd" clip-rule="evenodd" fill="#FFFFFF" d="M92.8,74h15.7v-26L92.8,16.7V74L92.8,74z M92.8,16.7"/>
			<rect x="157.6" y="1.9" fill-rule="evenodd" clip-rule="evenodd" fill="#D0D1D1" width="15.7" height="72.1"/>
			<polygon fill-rule="evenodd" clip-rule="evenodd" fill="#FFFFFF" points="138.6,71.4 133,71.4 127.5,71.4 92.8,1.9 109.5,1.9 
				133,50.5 156.5,1.9 173.2,1.9 			"/>
			<path fill-rule="evenodd" clip-rule="evenodd" fill="#FFFFFF" d="M173.2,74h-15.7v-26l15.7-31.4V74L173.2,74z M173.2,16.7"/>
		</g>
		<g>
			<polygon fill-rule="evenodd" clip-rule="evenodd" fill="#D0D1D1" points="258.4,74 238.9,74 209.4,1.9 228.9,1.9 			"/>
			<polygon fill-rule="evenodd" clip-rule="evenodd" fill="#FFFFFF" points="258.4,74 238.9,74 228.9,49.7 228.9,1.9 			"/>
			<polygon fill-rule="evenodd" clip-rule="evenodd" fill="#FFFFFF" points="179.9,74 199.4,74 228.9,1.9 209.4,1.9 			"/>
		</g>
		<g>
			<rect x="265.3" y="16.7" fill-rule="evenodd" clip-rule="evenodd" fill="#FFFFFF" width="15.8" height="57.4"/>
			<rect x="265.3" y="17.7" fill-rule="evenodd" clip-rule="evenodd" fill="#D0D1D1" width="15.8" height="7.8"/>
			<polygon fill-rule="evenodd" clip-rule="evenodd" fill="#FFFFFF" points="243.6,17.7 299,17.7 303.1,1.9 247.6,1.9 			"/>
		</g>
	</g>
	<g>
		<path fill="#FFFFFF" d="M14.2,101.5h-0.9V90.3h0.9l4.5,6.1l4.3-6.1h0.8v11.2H23v-9.8l-4.3,6h-0.1l-4.4-6V101.5z"/>
		<path fill="#FFFFFF" d="M28.8,95.9c0-1.6,0.5-3,1.6-4.1c1.1-1.1,2.4-1.6,4-1.6c1.6,0,2.9,0.5,4,1.6c1.1,1.1,1.6,2.4,1.6,4.1
			c0,1.6-0.5,3-1.6,4.1c-1.1,1.1-2.4,1.6-4,1.6s-2.9-0.5-4-1.6C29.4,99,28.8,97.6,28.8,95.9z M29.8,95.9c0,1.4,0.4,2.6,1.3,3.5
			c0.9,0.9,2,1.4,3.3,1.4c1.4,0,2.5-0.5,3.4-1.4c0.9-0.9,1.3-2.1,1.3-3.5c0-1.4-0.5-2.6-1.4-3.5c-0.9-0.9-2-1.4-3.3-1.4
			c-1.3,0-2.4,0.5-3.3,1.4C30.2,93.3,29.8,94.5,29.8,95.9z"/>
		<path fill="#FFFFFF" d="M52.8,90.3h0.9v6.5c0,1.6-0.4,2.8-1.2,3.6s-1.8,1.2-3,1.2c-1.4,0-2.5-0.4-3.3-1.3
			c-0.8-0.8-1.2-2.1-1.2-3.7v-6.4h0.9v6.2c0,1.3,0.3,2.4,1,3.1c0.7,0.8,1.5,1.1,2.7,1.1c1,0,1.9-0.4,2.5-1.1
			c0.6-0.7,0.9-1.7,0.9-3.1V90.3z"/>
		<path fill="#FFFFFF" d="M64.5,98.7c0-0.5-0.1-0.9-0.4-1.3s-0.6-0.6-1.1-0.8c-0.4-0.2-0.9-0.4-1.4-0.6c-0.5-0.2-1-0.4-1.4-0.6
			c-0.4-0.2-0.8-0.5-1.1-1c-0.3-0.4-0.4-0.9-0.4-1.5c0-0.8,0.3-1.5,0.9-2c0.6-0.5,1.4-0.8,2.4-0.8c1.3,0,2.3,0.4,3,1.1L64.5,92
			c-0.6-0.6-1.5-1-2.5-1c-0.7,0-1.3,0.2-1.7,0.5c-0.4,0.4-0.6,0.8-0.6,1.4c0,0.5,0.1,0.9,0.4,1.2s0.6,0.6,1.1,0.8
			c0.4,0.2,0.9,0.4,1.4,0.6c0.5,0.2,1,0.4,1.4,0.6c0.4,0.2,0.8,0.5,1.1,1c0.3,0.4,0.4,1,0.4,1.6c0,0.9-0.3,1.6-1,2.1
			c-0.7,0.5-1.5,0.8-2.5,0.8c-0.7,0-1.4-0.1-2-0.4c-0.7-0.3-1.1-0.7-1.4-1.2l0.5-0.6c0.3,0.4,0.7,0.8,1.3,1c0.5,0.3,1.1,0.4,1.6,0.4
			c0.7,0,1.3-0.2,1.9-0.6C64.2,99.9,64.5,99.4,64.5,98.7z"/>
		<path fill="#FFFFFF" d="M76.7,101.5h-6.3V90.3h6.2v0.8h-5.3v4.3h4.8v0.8h-4.8v4.4h5.5V101.5z"/>
		<path fill="#FFFFFF" d="M87.8,101.5h-0.9l4.9-11.3h0.7l4.9,11.3h-0.9l-1.6-3.8h-5.4L87.8,101.5z M94.5,96.9l-2.3-5.4l-2.3,5.4
			H94.5z"/>
		<path fill="#FFFFFF" d="M109.3,99.8l0.4,0.7c-0.4,0.4-0.9,0.7-1.5,0.9s-1.3,0.3-2,0.3c-1.7,0-3-0.5-4.1-1.6c-1-1-1.5-2.4-1.5-4.2
			c0-1.7,0.5-3,1.5-4.1c1-1.1,2.3-1.6,4-1.6c1.4,0,2.5,0.4,3.4,1.1l-0.4,0.7c-0.8-0.6-1.7-0.9-3-0.9c-1.4,0-2.5,0.5-3.3,1.4
			c-0.8,0.9-1.3,2.1-1.3,3.5c0,1.5,0.4,2.6,1.3,3.5c0.9,0.9,2,1.4,3.4,1.4C107.4,100.8,108.4,100.5,109.3,99.8z"/>
		<path fill="#FFFFFF" d="M116.8,91.2h-4.1v-0.8h9.2v0.8h-4.1v10.4h-0.9V91.2z"/>
		<path fill="#FFFFFF" d="M127.3,101.5h-0.9V90.3h0.9V101.5z"/>
		<path fill="#FFFFFF" d="M141.2,90.3h0.9l-4.7,11.3h-0.6L132,90.3h0.9l4.2,9.9L141.2,90.3z"/>
		<path fill="#FFFFFF" d="M147.6,101.5h-0.9V90.3h0.9V101.5z"/>
		<path fill="#FFFFFF" d="M156.4,91.2h-4.1v-0.8h9.2v0.8h-4.1v10.4h-0.9V91.2z"/>
		<path fill="#FFFFFF" d="M172.1,90.3h1l-4,6.3v4.9h-0.9v-4.9l-4-6.3h1l3.4,5.5L172.1,90.3z"/>
		<path fill="#FFFFFF" d="M186.3,91.2h-4.1v-0.8h9.2v0.8h-4.1v10.4h-0.9V91.2z"/>
		<path fill="#FFFFFF" d="M196.5,96.8v4.7h-0.9V90.3c0.5,0,1,0,1.5,0c0.5,0,0.9,0,1.2,0c2.6,0,3.9,1.1,3.9,3.2c0,0.8-0.3,1.4-0.8,2
			c-0.5,0.6-1.1,0.9-1.9,1.1l3.9,4.9h-1.1l-3.7-4.7H196.5z M198.3,91.1c-0.2,0-0.8,0-1.8,0V96h1.9c0.8,0,1.4-0.2,2-0.7
			c0.6-0.5,0.9-1,0.9-1.8C201.3,91.9,200.3,91.1,198.3,91.1z"/>
		<path fill="#FFFFFF" d="M207.2,101.5h-0.9l4.9-11.3h0.7l4.9,11.3h-0.9l-1.6-3.8h-5.4L207.2,101.5z M213.8,96.9l-2.3-5.4l-2.3,5.4
			H213.8z"/>
		<path fill="#FFFFFF" d="M228.6,99.8l0.4,0.7c-0.4,0.4-0.9,0.7-1.5,0.9s-1.3,0.3-2,0.3c-1.7,0-3-0.5-4.1-1.6c-1-1-1.5-2.4-1.5-4.2
			c0-1.7,0.5-3,1.5-4.1c1-1.1,2.3-1.6,4-1.6c1.4,0,2.5,0.4,3.4,1.1l-0.4,0.7c-0.8-0.6-1.7-0.9-3-0.9c-1.4,0-2.5,0.5-3.3,1.4
			c-0.8,0.9-1.3,2.1-1.3,3.5c0,1.5,0.4,2.6,1.3,3.5c0.9,0.9,2,1.4,3.4,1.4C226.8,100.8,227.8,100.5,228.6,99.8z"/>
		<path fill="#FFFFFF" d="M234.5,101.5h-0.9V90.3h0.9V101.5z M240.3,90.3h1.1l-5.3,5.3l5.5,5.9h-1.1l-5.4-5.8L240.3,90.3z"/>
		<path fill="#FFFFFF" d="M247.4,101.5h-0.9V90.3h0.9V101.5z"/>
		<path fill="#FFFFFF" d="M262.8,90.3v11.2h-0.7l-7.7-9.6v9.6h-0.8V90.3h0.7l7.7,9.6v-9.6H262.8z"/>
		<path fill="#FFFFFF" d="M276.7,96.9h-3.3v-0.8h4.1v4c-0.5,0.5-1.1,0.9-1.9,1.1c-0.8,0.3-1.5,0.4-2.3,0.4c-1.7,0-3-0.5-4-1.6
			c-1-1-1.5-2.4-1.5-4.2c0-1.7,0.5-3,1.5-4.1c1-1.1,2.3-1.6,3.9-1.6c1.4,0,2.6,0.4,3.5,1.1l-0.4,0.7c-0.7-0.6-1.7-0.9-3-0.9
			c-1.4,0-2.5,0.5-3.3,1.4c-0.9,0.9-1.3,2.1-1.3,3.5c0,1.5,0.4,2.7,1.3,3.6c0.9,0.9,2,1.3,3.4,1.3c0.6,0,1.2-0.1,1.9-0.3
			c0.6-0.2,1.1-0.5,1.5-0.8V96.9z"/>
		<path fill="#FFFFFF" d="M294.3,98.7c0-0.5-0.1-0.9-0.4-1.3c-0.3-0.4-0.6-0.6-1.1-0.8c-0.4-0.2-0.9-0.4-1.4-0.6
			c-0.5-0.2-1-0.4-1.4-0.6c-0.4-0.2-0.8-0.5-1.1-1c-0.3-0.4-0.4-0.9-0.4-1.5c0-0.8,0.3-1.5,0.9-2c0.6-0.5,1.4-0.8,2.4-0.8
			c1.3,0,2.3,0.4,3,1.1l-0.5,0.7c-0.6-0.6-1.5-1-2.5-1c-0.7,0-1.3,0.2-1.7,0.5c-0.4,0.4-0.6,0.8-0.6,1.4c0,0.5,0.1,0.9,0.4,1.2
			c0.3,0.3,0.6,0.6,1.1,0.8c0.4,0.2,0.9,0.4,1.4,0.6c0.5,0.2,1,0.4,1.4,0.6s0.8,0.5,1.1,1c0.3,0.4,0.4,1,0.4,1.6
			c0,0.9-0.3,1.6-1,2.1c-0.7,0.5-1.5,0.8-2.5,0.8c-0.7,0-1.4-0.1-2-0.4c-0.7-0.3-1.1-0.7-1.4-1.2l0.5-0.6c0.3,0.4,0.7,0.8,1.3,1
			c0.5,0.3,1.1,0.4,1.6,0.4c0.7,0,1.3-0.2,1.9-0.6C294,99.9,294.3,99.4,294.3,98.7z"/>
		<path fill="#FFFFFF" d="M306.5,90.3h1l-4,6.3v4.9h-0.9v-4.9l-4-6.3h1l3.4,5.5L306.5,90.3z"/>
		<path fill="#FFFFFF" d="M317,98.7c0-0.5-0.1-0.9-0.4-1.3c-0.3-0.4-0.6-0.6-1.1-0.8c-0.4-0.2-0.9-0.4-1.4-0.6
			c-0.5-0.2-1-0.4-1.4-0.6c-0.4-0.2-0.8-0.5-1.1-1c-0.3-0.4-0.4-0.9-0.4-1.5c0-0.8,0.3-1.5,0.9-2c0.6-0.5,1.4-0.8,2.4-0.8
			c1.3,0,2.3,0.4,3,1.1L317,92c-0.6-0.6-1.5-1-2.5-1c-0.7,0-1.3,0.2-1.7,0.5c-0.4,0.4-0.6,0.8-0.6,1.4c0,0.5,0.1,0.9,0.4,1.2
			c0.3,0.3,0.6,0.6,1.1,0.8c0.4,0.2,0.9,0.4,1.4,0.6c0.5,0.2,1,0.4,1.4,0.6s0.8,0.5,1.1,1c0.3,0.4,0.4,1,0.4,1.6
			c0,0.9-0.3,1.6-1,2.1c-0.7,0.5-1.5,0.8-2.5,0.8c-0.7,0-1.4-0.1-2-0.4c-0.7-0.3-1.1-0.7-1.4-1.2l0.5-0.6c0.3,0.4,0.7,0.8,1.3,1
			c0.5,0.3,1.1,0.4,1.6,0.4c0.7,0,1.3-0.2,1.9-0.6C316.7,99.9,317,99.4,317,98.7z"/>
		<path fill="#FFFFFF" d="M325.4,91.2h-4.1v-0.8h9.2v0.8h-4.1v10.4h-0.9V91.2z"/>
		<path fill="#FFFFFF" d="M341,101.5h-6.3V90.3h6.2v0.8h-5.3v4.3h4.8v0.8h-4.8v4.4h5.5V101.5z"/>
		<path fill="#FFFFFF" d="M347.1,101.5h-0.9V90.3h0.9l4.5,6.1l4.3-6.1h0.8v11.2h-0.9v-9.8l-4.3,6h-0.1l-4.4-6V101.5z"/>
	</g>
	<g>
		<path fill="#FFFFFF" d="M355.9,72.3c0-0.4,0.2-0.8,0.5-1.2s0.8-0.5,1.3-0.5c0.5,0,0.9,0.2,1.2,0.5s0.5,0.7,0.5,1.2
			c0,0.5-0.2,0.9-0.5,1.3c-0.3,0.4-0.7,0.5-1.2,0.5c-0.5,0-1-0.2-1.3-0.5S355.9,72.8,355.9,72.3z"/>
		<path fill="#FFFFFF" d="M373.3,70.7l1.1,2.1c-0.4,0.4-0.9,0.8-1.7,1.1c-0.7,0.3-1.5,0.4-2.4,0.4c-1.9,0-3.5-0.6-4.7-1.8
			c-1.2-1.2-1.8-2.8-1.8-4.7c0-1.9,0.6-3.4,1.7-4.6c1.1-1.2,2.8-1.8,4.8-1.8c0.8,0,1.5,0.1,2.2,0.4c0.7,0.2,1.2,0.6,1.6,0.9
			l-1.3,2.1c-0.8-0.5-1.7-0.8-2.6-0.8c-1,0-1.9,0.3-2.5,1c-0.7,0.7-1,1.6-1,2.8c0,1.1,0.4,2,1.1,2.7c0.7,0.7,1.6,1.1,2.7,1.1
			C371.6,71.6,372.5,71.3,373.3,70.7z"/>
		<path fill="#FFFFFF" d="M374.9,67.8c0-1.8,0.6-3.4,1.8-4.6c1.2-1.2,2.8-1.9,4.8-1.9c2,0,3.5,0.6,4.8,1.8c1.3,1.2,1.9,2.7,1.9,4.7
			c0,1.9-0.6,3.4-1.9,4.6c-1.3,1.2-2.8,1.8-4.8,1.8c-1.9,0-3.5-0.6-4.8-1.8C375.6,71.3,374.9,69.7,374.9,67.8z M378,67.8
			c0,1.1,0.4,2,1.1,2.7c0.7,0.7,1.5,1.1,2.6,1.1c1.1,0,2-0.4,2.7-1.1c0.6-0.7,0.9-1.6,0.9-2.7c0-1.1-0.3-2-1-2.7
			c-0.7-0.7-1.6-1.1-2.6-1.1c-1,0-1.9,0.4-2.6,1.1C378.3,65.7,378,66.7,378,67.8z"/>
		<path fill="#FFFFFF" d="M393.4,74h-2.9V61.5h2.9l3.9,5.3l3.6-5.3h2.7V74h-2.9v-8l-3.5,4.9h-0.4l-3.5-4.8V74z"/>
	</g>
</g>
</svg>
