<?xml version="1.0" encoding="utf-8"?>
<!-- Generator: Adobe Illustrator 17.1.0, SVG Export Plug-In . SVG Version: 6.00 Build 0)  -->
<!DOCTYPE svg PUBLIC "-//W3C//DTD SVG 1.1//EN" "http://www.w3.org/Graphics/SVG/1.1/DTD/svg11.dtd">
<svg version="1.1" id="Layer_1" xmlns="http://www.w3.org/2000/svg" xmlns:xlink="http://www.w3.org/1999/xlink" x="0px" y="0px"
	 viewBox="294.4 385 24.7 23.6" enable-background="new 294.4 385 24.7 23.6" xml:space="preserve">
<path fill="#FFFFFF" d="M300.6,393.2c-0.4-3.6,2.3-6.5,5.4-6.9c3.6-0.4,6.5,2.3,6.8,5.4c0.4,3.6-2.3,6.5-5.4,6.8
	C303.8,399,301,396.3,300.6,393.2L300.6,393.2z M294.4,404.2v1.1c0.3,0.5,0.3,2,1.7,2.8c0.3,0.2,0.8,0.3,1.1,0.5h18.6
	c0.9-0.4,1.9-0.2,2.8-2.1c0.2-0.4,0.3-0.9,0.5-1.2V404c-0.3-0.6-0.3-2.5-2.4-4.3c-2.2-1.9-3.3-1.9-4.2-2.5c0.3-0.2,0.7-1.1,1-1.6
	c0.3-0.6,0.5-1.3,0.6-2c0.4-2.5-0.4-4.9-2.2-6.5c-2.1-2-3.4-1.6-4.4-2.1h-1.3c-0.6,0.2-1.8,0-3.8,1.5c-4.8,3.5-3.5,11.4,2.5,13.1
	c1.6,0.4,3.2,0.3,4.7-0.2c2.6-1,1.4-1.7,3.6-0.7c1.3,0.6,2.5,1.4,3.2,2.2c2.9,3.2,1.7,6.5-0.9,6.5h-16.2c-2.1,0-3.1,0.1-3.6-1.8
	c-0.6-2.3,1.4-4.8,3.2-6c0.3-0.2,0.6-0.3,0.9-0.5c-0.2-0.2-0.5-0.6-0.7-0.8c-0.4,0.1-1.3,0.8-1.6,1c-1.3,1.1-2.3,2.2-2.7,3.9
	C294.5,403.4,294.5,403.9,294.4,404.2z"/>
</svg>
