<?xml version="1.0" encoding="utf-8"?>
<!-- Generator: Adobe Illustrator 17.1.0, SVG Export Plug-In . SVG Version: 6.00 Build 0)  -->
<!DOCTYPE svg PUBLIC "-//W3C//DTD SVG 1.1//EN" "http://www.w3.org/Graphics/SVG/1.1/DTD/svg11.dtd">
<svg version="1.1" id="Layer_1" xmlns="http://www.w3.org/2000/svg" xmlns:xlink="http://www.w3.org/1999/xlink" x="0px" y="0px"
	 viewBox="298.1 385 17.7 23.5" enable-background="new 298.1 385 17.7 23.5" xml:space="preserve">
<g>
	<path fill="#FFFFFF" d="M305.7,394.1l-2.4,2.4l-0.9-1c-0.3-0.3-0.8-0.3-1,0c-0.3,0.3-0.3,0.8,0,1l1.5,1.5c0.1,0.1,0.3,0.2,0.5,0.2
		s0.4-0.1,0.5-0.2l2.9-2.9c0.3-0.3,0.3-0.8,0-1C306.4,393.8,306,393.8,305.7,394.1z"/>
	<path fill="#FFFFFF" d="M305.7,399.9l-2.4,2.4l-0.9-0.9c-0.3-0.3-0.8-0.3-1,0c-0.3,0.3-0.3,0.8,0,1l1.5,1.5
		c0.1,0.1,0.3,0.2,0.5,0.2s0.4-0.1,0.5-0.2l2.9-2.9c0.3-0.3,0.3-0.8,0-1C306.4,399.6,306,399.6,305.7,399.9z"/>
	<path fill="#FFFFFF" d="M308.4,396c0,0.4,0.3,0.7,0.7,0.7h2.9c0.4,0,0.7-0.3,0.7-0.7c0-0.4-0.3-0.7-0.7-0.7h-2.9
		C308.7,395.3,308.4,395.6,308.4,396z"/>
	<path fill="#FFFFFF" d="M312.1,401.2h-2.9c-0.4,0-0.7,0.3-0.7,0.7c0,0.4,0.3,0.7,0.7,0.7h2.9c0.4,0,0.7-0.3,0.7-0.7
		C312.8,401.5,312.5,401.2,312.1,401.2z"/>
	<path fill="#FFFFFF" d="M314.3,389.4V407h-14.7v-17.6h2.9v0.7c0,0.4,0.3,0.7,0.7,0.7h7.3c0.4,0,0.7-0.3,0.7-0.7v-0.7H314.3
		L314.3,389.4z M304,388v1.5h5.9V388h-1.5c-0.4,0-0.7-0.3-0.7-0.7c0-0.4-0.3-0.7-0.7-0.7c-0.4,0-0.7,0.3-0.7,0.7
		c0,0.4-0.3,0.7-0.7,0.7H304L304,388z M310.6,386.5H309c-0.3-0.9-1.1-1.5-2.1-1.5s-1.8,0.6-2.1,1.5h-1.6c-0.4,0-0.7,0.3-0.7,0.7v0.7
		h-2.9c-0.8,0-1.5,0.7-1.5,1.5V407c0,0.8,0.7,1.5,1.5,1.5h14.7c0.8,0,1.5-0.7,1.5-1.5v-17.6c0-0.8-0.7-1.5-1.5-1.5h-2.9v-0.7
		C311.3,386.8,311,386.5,310.6,386.5z"/>
</g>
</svg>
