<?xml version="1.0" encoding="utf-8"?>
<svg version="1.1" id="Layer_1" xmlns="http://www.w3.org/2000/svg" xmlns:xlink="http://www.w3.org/1999/xlink" x="0px" y="0px"
	 viewBox="0 0 20.3 37.1" enable-background="new 0 0 20.3 37.1" xml:space="preserve">
<path fill-rule="evenodd" clip-rule="evenodd" fill="#D0D1D1" d="M5.4,0.9c-1.2-1.2-3.2-1.2-4.5,0c-1.2,1.2-1.2,3.2,0,4.5l13,13l0,0
	l0,0c0,0,0,0.1,0,0.1c0,0.1,0,0.1-0.1,0.2l0,0l0,0l-13,13c-1.2,1.2-1.2,3.2,0,4.5c1.2,1.2,3.2,1.2,4.5,0l13-13l0,0l0,0l0,0
	c1.3-1.3,1.9-2.9,1.9-4.6c0-1.6-0.6-3.1-1.7-4.4c-0.1-0.1-0.1-0.2-0.2-0.2l0,0L5.4,0.9z"/>
</svg>
