<?xml version="1.0" encoding="utf-8"?>
<svg version="1.1" id="Layer_1" xmlns="http://www.w3.org/2000/svg" xmlns:xlink="http://www.w3.org/1999/xlink" x="0px" y="0px"
	 viewBox="0 0 28.4 27" enable-background="new 0 0 28.4 27" xml:space="preserve">
<g>
	<path fill-rule="evenodd" clip-rule="evenodd" fill="#FFFFFF" d="M0,12.6v11.7c0.1,0.3,0.1,0.6,0.4,1c0.8,1.4,1.6,1.3,2.2,1.7h23.3
		c0.3-0.2,1.2-0.4,1.7-1c0.6-0.7,0.5-0.9,0.8-1.8V12.6c-0.4-0.7-0.9-2.4-2.8-2.5c-1.5-0.1-3.7-0.1-5.2,0c-1.8,0.1-1.7,2.5-0.1,2.6
		c1.6,0.1,3.6-0.1,5.1,0.1l0.2,0.2c0.1,0.7,0.1,10.8,0,11.2c-0.5,0.3-2,0.1-2.8,0.1c-4.9,0-9.7,0-14.6,0c-0.7,0-5.4,0.2-5.6-0.1
		c-0.1-0.4-0.1-10.6,0-11.3c0.6-0.3,4.1-0.1,5.2-0.2c1.9-0.1,1.8-2.5,0.2-2.6c-1.6-0.1-3.8-0.1-5.3,0C0.9,10.3,0.4,11.9,0,12.6z"/>
	<path fill-rule="evenodd" clip-rule="evenodd" fill="#FFFFFF" d="M14.4,20.9H14c-0.4-0.4-2.2-2.7-2.6-3.3C11,17.1,8.8,14.3,8.9,14
		c0.2-0.4,3.2-0.2,3.9-0.2l0-11.3c0-0.8-0.2-2.5,1.3-2.5c0.6,0,1,0.4,1.1,0.7c0.2,0.4,0.2,1.2,0.2,1.7l0,11.4c1.1,0,3.1-0.1,3.9,0.1
		c0.1,0.5-0.2,0.7-0.4,1c-0.3,0.4-0.4,0.5-0.6,0.9L15.2,20C14.8,20.4,14.8,20.6,14.4,20.9z"/>
</g>
</svg>
