<svg width="140" height="101" viewBox="0 0 140 101" fill="none" xmlns="http://www.w3.org/2000/svg">
<path d="M115.59 38.4431L108.511 27.8422V38.4431H104.637V20.9399H108.074L115.182 31.5409V20.9399H119.027V38.4431H115.59Z" fill="#000003"/>
<path d="M117.163 62.8191V54.0821L114.162 60.1397H111.511L108.511 54.1112V62.8191H104.637V45.3159H108.132L112.822 55.5382L117.367 45.3159H121.037V62.8191H117.163Z" fill="#000003"/>
<path d="M60.7068 28.2205H57.0364V24.3762H60.7068C61.406 24.3762 62.8334 24.5218 62.8334 26.2983C62.8334 28.0749 61.4351 28.2205 60.7068 28.2205ZM63.6781 31.2784C65.1929 30.7251 66.7659 29.4145 66.7659 26.3275C66.7659 21.1435 62.4838 20.9688 60.2699 20.9688H53.1621V38.4428H57.0364V31.6862H59.7747L62.5421 38.4428H66.9116L63.6781 31.2784Z" fill="#000003"/>
<path d="M66.5922 45.3159H53.6583V48.7816V48.8398H61.8731L53.3379 59.5281V62.8191H66.5922V59.3243V59.266H58.0279L66.5922 48.5195V45.3159Z" fill="#000003"/>
<path d="M136.533 80.3224H20.6825V3.43656H136.563V80.3224H136.533ZM98.2855 88.9429H12.0599V32.9968H17.216V83.7589H98.2855V88.9429ZM58.6392 97.5343H3.43737V62.5571H8.59342V92.3795H58.6101V97.5343H58.6392ZM140 0H17.216V29.5603H8.62255V59.1205H0V101H62.0766V92.3795H101.723V83.7589H139.971V0H140Z" fill="#92C549"/>
<path d="M76.6999 59.878C75.1851 59.878 73.1751 59.1499 73.1751 54.0825C73.1751 49.015 75.1851 48.2869 76.6999 48.2869C78.2146 48.2869 80.2246 49.015 80.2246 54.0825C80.2246 59.1499 78.2146 59.878 76.6999 59.878ZM76.6999 44.6465C71.0195 44.6465 69.3008 49.6848 69.3008 54.0825C69.3008 58.4801 71.0195 63.5185 76.6999 63.5185C82.3803 63.5185 84.099 58.4801 84.099 54.0825C84.099 49.6848 82.4094 44.6465 76.6999 44.6465Z" fill="#92C549"/>
<path d="M93.8288 59.878C92.314 59.878 90.304 59.1499 90.304 54.0825C90.304 49.015 92.314 48.2869 93.8288 48.2869C95.3435 48.2869 97.3535 49.015 97.3535 54.0825C97.3535 59.1499 95.3435 59.878 93.8288 59.878ZM93.8288 44.6465C88.1484 44.6465 86.4297 49.6848 86.4297 54.0825C86.4297 58.4801 88.1484 63.5185 93.8288 63.5185C99.5092 63.5185 101.228 58.4801 101.228 54.0825C101.228 49.6848 99.5092 44.6465 93.8288 44.6465Z" fill="#92C549"/>
<path d="M49.9587 28.7737H42.2683V32.0647H46.2883C46.2883 34.5693 44.6861 35.5013 43.1714 35.5013C41.6566 35.5013 39.4427 34.7732 39.4427 29.7057C39.4427 24.6382 41.6566 23.9101 43.1714 23.9101C44.2492 23.9101 45.56 24.2305 46.23 26.2983L49.9296 24.9877C48.9683 22.3083 46.8709 20.2988 43.1714 20.2988C37.491 20.2988 35.5684 25.3372 35.5684 29.7348C35.5684 34.1325 37.4618 39.1708 43.1714 39.1708C46.4922 39.1708 48.6478 37.2778 49.5217 35.0935C50.483 32.5598 49.9587 28.7737 49.9587 28.7737Z" fill="#000003"/>
<path d="M79.4964 34.0743C78.6807 35.0645 77.7194 35.3849 76.8746 35.3849C75.3599 35.3849 73.1751 34.6568 73.1751 29.5893C73.1751 24.5218 75.1851 23.7937 76.6999 23.7937C78.0981 23.7937 79.9625 24.4345 80.1955 28.6574H75.826V31.9483H83.9242C84.0407 31.162 84.099 30.3756 84.099 29.5893C84.099 25.1917 82.4094 20.1533 76.6999 20.1533C71.0195 20.1533 69.3008 25.1917 69.3008 29.5893C69.3008 33.9869 71.1651 39.0253 76.8746 39.0253C79.642 39.0253 81.5355 37.8021 82.759 36.113L79.4964 34.0743Z" fill="#92C549"/>
<path d="M96.6253 34.0743C95.8096 35.0645 94.8483 35.3849 94.0036 35.3849C92.4888 35.3849 90.304 34.6568 90.304 29.5893C90.304 24.5218 92.314 23.7937 93.8288 23.7937C95.227 23.7937 97.0914 24.4345 97.3244 28.6574H92.9549V31.9483H101.053C101.17 31.162 101.228 30.3756 101.228 29.5893C101.228 25.1917 99.5383 20.1533 93.8288 20.1533C88.1484 20.1533 86.4297 25.1917 86.4297 29.5893C86.4297 33.9869 88.294 39.0253 94.0036 39.0253C96.7709 39.0253 98.6644 37.8021 99.8879 36.113L96.6253 34.0743Z" fill="#92C549"/>
</svg>
