<svg width="190" height="190" viewBox="0 0 190 190" fill="none" xmlns="http://www.w3.org/2000/svg">
	<path d="M94.9856 82.319C94.7206 82.3231 94.4681 82.4323 94.2835 82.6224C94.099 82.8126 93.9974 83.0683 94.0012 83.3333V94H83.3346C83.202 93.9981 83.0705 94.0226 82.9475 94.072C82.8245 94.1214 82.7126 94.1948 82.6183 94.2878C82.5239 94.3808 82.4489 94.4917 82.3978 94.614C82.3467 94.7362 82.3203 94.8674 82.3203 95C82.3203 95.1325 82.3467 95.2637 82.3978 95.3859C82.4489 95.5082 82.5239 95.6191 82.6183 95.7121C82.7126 95.8052 82.8245 95.8785 82.9475 95.9279C83.0705 95.9774 83.202 96.0018 83.3346 96H94.0012V106.667C93.9993 106.799 94.0238 106.931 94.0732 107.054C94.1227 107.177 94.196 107.289 94.2891 107.383C94.3821 107.477 94.493 107.552 94.6152 107.603C94.7375 107.655 94.8687 107.681 95.0012 107.681C95.1337 107.681 95.265 107.655 95.3872 107.603C95.5095 107.552 95.6203 107.477 95.7134 107.383C95.8064 107.289 95.8798 107.177 95.9292 107.054C95.9786 106.931 96.0031 106.799 96.0012 106.667V96H106.668C106.8 96.0018 106.932 95.9774 107.055 95.9279C107.178 95.8785 107.29 95.8052 107.384 95.7121C107.479 95.6191 107.553 95.5082 107.605 95.3859C107.656 95.2637 107.682 95.1325 107.682 95C107.682 94.8674 107.656 94.7362 107.605 94.614C107.553 94.4917 107.479 94.3808 107.384 94.2878C107.29 94.1948 107.178 94.1214 107.055 94.072C106.932 94.0226 106.8 93.9981 106.668 94H96.0012V83.3333C96.0031 83.1994 95.9782 83.0666 95.9278 82.9426C95.8774 82.8185 95.8027 82.7059 95.7079 82.6113C95.6132 82.5167 95.5005 82.4421 95.3764 82.3919C95.2523 82.3417 95.1194 82.3169 94.9856 82.319Z" fill="white"/>
</svg>
