<svg width="100%" height="22" viewBox="0 0 82 22" fill="none" xmlns="http://www.w3.org/2000/svg">
<path d="M4.92868 3.24555C4.92868 3.24555 1.0268 3.75175 1.07938 10.0133C1.13197 16.2748 -0.582336 20.6105 3.76127 21.5349C8.10488 22.4592 20.6624 21.4028 28.8974 21.3368C37.1324 21.2708 58.8083 21.5789 63.5726 21.5459C68.3369 21.5129 75.7095 21.931 77.8655 20.4674C80.0215 19.0039 81.7253 14.6681 81.2626 11.3008C80.7998 7.93342 81.6412 5.40241 80.7577 3.48764C79.8743 1.57288 70.4719 1.52886 47.292 3.24555C24.1226 4.96223 22.3347 3.97184 17.5598 4.01585C12.7956 4.04887 7.08471 1.78196 4.92868 3.24555Z" fill="#003A23"/>
<path d="M4.13962 1.25387C4.13962 1.25387 0.237734 1.76007 0.29032 8.02157C0.342906 14.2831 -1.3714 18.6078 2.97221 19.5322C7.31581 20.4565 19.8734 19.4001 28.1083 19.3341C36.3433 19.2681 58.0193 19.5762 62.7836 19.5432C67.5479 19.5102 74.9204 19.9283 77.0764 18.4648C79.2325 17.0012 80.9362 12.6654 80.4735 9.29808C80.0107 5.93074 80.8521 3.39972 79.9687 1.48496C79.0852 -0.429809 69.6829 -0.473826 46.5029 1.24286C23.344 2.97055 21.5456 1.98016 16.7813 2.01317C12.0065 2.05719 6.29565 -0.209721 4.13962 1.25387Z" fill="#F7941D"/>
</svg>
