<svg width="203" height="146" viewBox="0 0 203 146" fill="none" xmlns="http://www.w3.org/2000/svg">
<path d="M144.204 23.2782C143.933 20.5422 143.597 17.7932 143.158 15.0443C142.474 10.6305 141.518 6.08759 139.038 1.95771C138.728 1.44148 138.134 0.834906 137.643 1.0414C137.294 1.18336 137.281 1.64797 137.333 2.03514C137.811 6.19083 138.999 10.3594 140.2 14.5151C141.376 18.6192 142.564 22.7232 143.739 26.8402C143.468 24.7366 143.571 22.6587 144.036 20.7099" fill="#D0ACD1"/>
<path d="M144.204 23.2782C143.933 20.5422 143.597 17.7932 143.158 15.0443C142.474 10.6305 141.518 6.08759 139.038 1.95771C138.728 1.44148 138.134 0.834905 137.643 1.0414C137.294 1.18336 137.281 1.64797 137.333 2.03515C137.811 6.19083 138.999 10.3594 140.2 14.5151C141.376 18.6192 142.564 22.7232 143.739 26.8402C143.468 24.7366 143.571 22.6587 144.036 20.7099" stroke="#DAC7E1" stroke-width="0.2295" stroke-miterlimit="10"/>
<path d="M142.977 25.5237C142.693 22.7748 142.486 20 142.344 17.2124C142.138 12.734 142.138 8.07502 143.713 3.55797C143.907 2.99011 144.359 2.2803 144.876 2.39645C145.238 2.47388 145.341 2.93849 145.367 3.32566C145.728 7.50716 145.405 11.8435 145.083 16.167C144.76 20.4388 144.437 24.6978 144.127 28.9696C143.972 26.8401 143.468 24.8139 142.628 22.9813" fill="#D0ACD1"/>
<path d="M142.977 25.5237C142.693 22.7748 142.486 20 142.344 17.2124C142.138 12.734 142.138 8.07502 143.713 3.55797C143.907 2.99011 144.359 2.2803 144.876 2.39645C145.238 2.47388 145.341 2.93849 145.367 3.32566C145.728 7.50716 145.405 11.8435 145.083 16.167C144.76 20.4388 144.437 24.6978 144.127 28.9696C143.972 26.8401 143.468 24.8139 142.628 22.9813" stroke="#DAC7E1" stroke-width="0.2295" stroke-miterlimit="10"/>
<path d="M142.912 26.4659C143.3 23.7299 143.777 20.9809 144.333 18.2449C145.224 13.844 146.374 9.33986 148.996 5.32614C149.319 4.82281 149.926 4.24204 150.403 4.47435C150.739 4.64212 150.726 5.10673 150.662 5.49391C149.99 9.63669 148.621 13.7666 147.252 17.8706C145.896 21.936 144.54 25.9884 143.196 30.0538C143.571 27.9501 143.571 25.8594 143.209 23.8719" fill="#D0ACD1"/>
<path d="M142.912 26.4659C143.3 23.7299 143.777 20.9809 144.333 18.2449C145.224 13.844 146.374 9.33986 148.996 5.32614C149.319 4.82281 149.926 4.24204 150.403 4.47435C150.739 4.64212 150.726 5.10673 150.662 5.49391C149.99 9.63669 148.621 13.7666 147.252 17.8706C145.896 21.936 144.54 25.9884 143.196 30.0538C143.571 27.9501 143.571 25.8594 143.209 23.8719" stroke="#DAC7E1" stroke-width="0.2295" stroke-miterlimit="10"/>
<path d="M140.936 32.5574C141.44 29.4213 142.28 26.3626 141.918 23.2007C141.311 18.0254 140.355 12.6824 137.165 7.71366C136.764 7.09418 135.977 6.34564 135.253 6.55213C134.737 6.6941 134.698 7.23615 134.724 7.68785C135.034 12.5534 136.39 17.4834 137.733 22.3876C139.051 25.9238 140.019 29.9505 140.781 33.6415C140.833 33.2802 140.885 32.9188 140.936 32.5574Z" fill="#D0ACD1"/>
<path d="M140.936 32.5574C141.44 29.4213 142.28 26.3626 141.918 23.2007C141.311 18.0254 140.355 12.6824 137.165 7.71366C136.764 7.09418 135.977 6.34564 135.253 6.55213C134.737 6.6941 134.698 7.23615 134.724 7.68785C135.034 12.5534 136.39 17.4834 137.733 22.3876C139.051 25.9238 140.019 29.9505 140.781 33.6415C140.833 33.2802 140.885 32.9188 140.936 32.5574Z" stroke="#DAC7E1" stroke-width="0.3242" stroke-miterlimit="10"/>
<path d="M136.971 27.7953C137.849 30.9701 139.631 33.9643 140.703 37.1004C141.44 33.9901 141.62 31.3444 140.807 28.2986C139.502 23.3299 137.849 18.232 134.284 13.6504C133.845 13.0826 133.031 12.4115 132.411 12.6567C131.972 12.8374 132.011 13.3536 132.114 13.7924C133.122 18.4643 135.046 23.1363 136.971 27.7953Z" fill="#D0ACD1"/>
<path d="M136.971 27.7953C137.849 30.9701 139.631 33.9643 140.703 37.1004C141.44 33.9901 141.62 31.3444 140.807 28.2986C139.502 23.3299 137.849 18.232 134.284 13.6504C133.845 13.0826 133.031 12.4115 132.411 12.6567C131.972 12.8374 132.011 13.3536 132.114 13.7924C133.122 18.4643 135.046 23.1363 136.971 27.7953Z" stroke="#DAC7E1" stroke-width="0.3242" stroke-miterlimit="10"/>
<path d="M134.827 29.6536C136.119 33.7706 138.625 37.3197 139.903 41.3721C140.898 37.281 139.8 33.9126 138.883 29.9117C137.85 25.4463 136.455 20.8647 132.98 16.8639C132.541 16.3606 131.727 15.7927 131.056 16.0508C130.578 16.2315 130.578 16.709 130.655 17.1091C131.379 21.3293 133.109 25.4979 134.827 29.6536Z" fill="#D0ACD1"/>
<path d="M134.827 29.6536C136.119 33.7706 138.625 37.3197 139.903 41.3721C140.898 37.281 139.8 33.9126 138.883 29.9117C137.85 25.4463 136.455 20.8647 132.98 16.8639C132.541 16.3606 131.727 15.7927 131.056 16.0508C130.578 16.2315 130.578 16.709 130.655 17.1091C131.379 21.3293 133.109 25.4979 134.827 29.6536Z" stroke="#DAC7E1" stroke-width="0.3242" stroke-miterlimit="10"/>
<path d="M140.497 44.3664C139.929 41.6432 139.27 38.9201 138.521 36.1841C137.32 31.7961 135.822 27.2661 132.67 23.0846C132.283 22.5684 131.559 21.936 131.043 22.1167C130.668 22.2457 130.707 22.7103 130.797 23.0975C131.74 27.2274 133.471 31.396 135.202 35.5517C136.907 39.6557 138.624 43.7727 140.329 47.8768C139.813 45.786 139.722 43.734 140.045 41.8239" fill="#D0ACD1"/>
<path d="M140.497 44.3664C139.929 41.6432 139.27 38.9201 138.521 36.1841C137.32 31.7961 135.822 27.2661 132.67 23.0846C132.283 22.5684 131.559 21.936 131.043 22.1167C130.668 22.2457 130.707 22.7103 130.797 23.0975C131.74 27.2274 133.471 31.396 135.202 35.5517C136.907 39.6557 138.624 43.7727 140.329 47.8768C139.813 45.786 139.722 43.734 140.045 41.8239" stroke="#DAC7E1" stroke-width="0.3242" stroke-miterlimit="10"/>
<path d="M136.726 53.4133C135.964 48.0058 137.501 43.7339 135.783 38.1457C135.279 36.5067 134.621 35.087 134.117 33.4351C133.536 31.4863 132.799 29.602 131.921 27.8726C131.637 27.3048 131.107 26.6079 130.681 26.7369C130.384 26.8273 130.397 27.2919 130.449 27.679C130.978 31.8993 132.141 36.2485 133.303 40.572C134.44 44.8567 135.576 49.1415 136.726 53.4133Z" fill="#D0ACD1"/>
<path d="M136.726 53.4133C135.964 48.0058 137.501 43.7339 135.783 38.1457C135.279 36.5067 134.621 35.087 134.117 33.4351C133.536 31.4863 132.799 29.602 131.921 27.8726C131.637 27.3048 131.107 26.6079 130.681 26.7369C130.384 26.8273 130.397 27.2919 130.449 27.679C130.978 31.8993 132.141 36.2485 133.303 40.572C134.44 44.8567 135.576 49.1415 136.726 53.4133Z" stroke="#DAC7E1" stroke-width="0.2522" stroke-miterlimit="10"/>
<path d="M137.087 45.0891C136.105 40.6495 134.827 36.0551 131.882 31.7316C131.52 31.1895 130.835 30.5314 130.293 30.6862C129.918 30.8024 129.931 31.2541 130.009 31.6542C130.745 35.8228 132.282 40.0688 133.806 44.3019C134.271 45.5925 134.697 47.0896 135.305 48.3156C135.924 49.5675 136.88 50.6 137.423 51.9293C137.604 52.0583 137.875 51.9422 137.991 51.7486C138.107 51.555 138.094 51.3227 138.094 51.1033C138.056 49.9934 138.146 48.806 137.901 47.7219C137.72 46.896 136.984 45.9797 137.087 45.0891Z" fill="#D0ACD1"/>
<path d="M137.087 45.0891C136.105 40.6495 134.827 36.0551 131.882 31.7316C131.52 31.1895 130.835 30.5314 130.293 30.6862C129.918 30.8024 129.931 31.2541 130.009 31.6542C130.745 35.8228 132.282 40.0688 133.806 44.3019C134.271 45.5925 134.697 47.0896 135.305 48.3156C135.924 49.5675 136.88 50.6 137.423 51.9293C137.604 52.0583 137.875 51.9422 137.991 51.7486C138.107 51.555 138.094 51.3227 138.094 51.1033C138.056 49.9934 138.146 48.806 137.901 47.7219C137.72 46.896 136.984 45.9797 137.087 45.0891Z" stroke="#DAC7E1" stroke-width="0.3242" stroke-miterlimit="10"/>
<path d="M139.322 49.619C138.572 47.7219 137.746 45.8505 136.829 43.9921C135.356 41.0108 133.587 38.0167 130.267 35.7581C129.854 35.4742 129.131 35.2032 128.64 35.5C128.291 35.7065 128.369 36.0421 128.485 36.3131C129.686 39.1653 131.662 41.8239 133.613 44.4696C135.55 47.0895 137.487 49.6965 139.425 52.3163C138.779 50.8838 138.534 49.348 138.702 47.8251" fill="#D0ACD1"/>
<path d="M139.322 49.619C138.572 47.7219 137.746 45.8505 136.829 43.9921C135.356 41.0108 133.587 38.0167 130.267 35.7581C129.854 35.4742 129.131 35.2032 128.64 35.5C128.291 35.7065 128.369 36.0421 128.485 36.3131C129.686 39.1653 131.662 41.8239 133.613 44.4696C135.55 47.0895 137.487 49.6965 139.425 52.3163C138.779 50.8838 138.534 49.348 138.702 47.8251" stroke="#DAC7E1" stroke-width="0.2447" stroke-miterlimit="10"/>
<path d="M137.397 56.5624C137.164 54.5362 136.829 52.51 136.415 50.4837C135.744 47.2315 134.801 43.8759 132.166 40.856C131.843 40.4817 131.197 40.03 130.655 40.1849C130.267 40.301 130.254 40.6366 130.293 40.9205C130.732 43.9792 131.959 47.0637 133.173 50.1224C134.387 53.1423 135.589 56.1752 136.803 59.1952C136.544 57.6465 136.699 56.1107 137.255 54.6652" fill="#D0ACD1"/>
<path d="M137.397 56.5624C137.164 54.5362 136.829 52.51 136.415 50.4837C135.744 47.2315 134.801 43.8759 132.166 40.856C131.843 40.4817 131.197 40.03 130.655 40.1849C130.267 40.301 130.254 40.6366 130.293 40.9205C130.732 43.9792 131.959 47.0637 133.173 50.1224C134.387 53.1423 135.589 56.1752 136.803 59.1952C136.544 57.6465 136.699 56.1107 137.255 54.6652" stroke="#DAC7E1" stroke-width="0.2447" stroke-miterlimit="10"/>
<path d="M136.002 61.7634C135.757 59.7501 135.447 57.7109 135.072 55.6589C134.465 52.3679 133.639 48.935 131.507 45.5794C131.236 45.1664 130.732 44.6373 130.319 44.7018C130.022 44.7535 130.022 45.089 130.061 45.3729C130.487 48.4445 131.52 51.6452 132.554 54.82C133.574 57.9691 134.594 61.1052 135.615 64.2542C135.369 62.6926 135.447 61.2084 135.834 59.8662" fill="#D0ACD1"/>
<path d="M136.002 61.7634C135.757 59.7501 135.447 57.7109 135.072 55.6589C134.465 52.3679 133.639 48.935 131.507 45.5794C131.236 45.1664 130.732 44.6373 130.319 44.7018C130.022 44.7535 130.022 45.089 130.061 45.3729C130.487 48.4445 131.52 51.6452 132.554 54.82C133.574 57.9691 134.594 61.1052 135.615 64.2542C135.369 62.6926 135.447 61.2084 135.834 59.8662" stroke="#DAC7E1" stroke-width="0.2447" stroke-miterlimit="10"/>
<path d="M136.454 67.2096C136.209 65.1963 135.899 63.1572 135.524 61.1051C134.917 57.8141 134.091 54.3812 131.96 51.0257C131.688 50.6127 131.185 50.0835 130.771 50.1481C130.474 50.1997 130.474 50.5352 130.513 50.8192C130.939 53.8908 131.972 57.0914 133.006 60.2663L136.067 69.7004C135.821 68.1388 135.899 66.6547 136.286 65.3124" fill="#D0ACD1"/>
<path d="M136.454 67.2096C136.209 65.1963 135.899 63.1572 135.524 61.1051C134.917 57.8141 134.091 54.3812 131.96 51.0257C131.688 50.6127 131.185 50.0835 130.771 50.1481C130.474 50.1997 130.474 50.5352 130.513 50.8192C130.939 53.8908 131.972 57.0914 133.006 60.2663L136.067 69.7004C135.821 68.1388 135.899 66.6547 136.286 65.3124" stroke="#DAC7E1" stroke-width="0.2447" stroke-miterlimit="10"/>
<path d="M143.391 28.6857C144.514 22.478 145.328 16.0251 142.009 10.3723C141.802 10.0239 141.595 9.6754 141.272 9.4431C140.949 9.21079 140.485 9.12045 140.162 9.33984C139.865 9.53343 139.748 9.89479 139.671 10.2433C139.154 12.5018 139.722 14.8635 140.278 17.1092C139.8 15.6895 139.09 14.3473 138.185 13.16C138.043 12.9664 137.824 12.7599 137.591 12.8244C137.32 12.9019 137.281 13.2632 137.307 13.5472C137.63 17.5351 138.47 21.8198 140.149 25.4722C139.942 23.717 139.193 22.0392 138.03 20.7228C138.16 24.0783 138.896 27.408 140.175 30.5184C138.947 28.7244 137.733 26.9434 136.506 25.1624C136.455 28.3373 137.062 31.525 138.276 34.4676C137.63 33.035 136.971 31.5895 136.326 30.157C136.209 33.3576 136.765 36.5841 137.966 39.5654C137.152 38.0812 136.171 36.6745 135.06 35.3968C134.763 38.3909 135.499 41.3722 136.248 44.2889C135.628 41.7335 134.556 39.2943 133.109 37.1003C133.071 40.5204 133.691 43.9534 134.931 47.154C134.026 45.6698 132.89 44.3276 131.572 43.179C131.727 44.6245 131.74 46.1344 132.205 47.5154C132.593 48.6511 133.432 49.6448 133.639 50.8838C132.916 50.4966 132.192 50.1094 131.456 49.7223C131.727 52.2647 132.425 54.7685 133.523 57.0786C132.657 56.6011 131.805 56.1236 130.939 55.6461C132.179 61.1052 132.799 66.6935 132.761 72.2946C134.621 70.3458 135.189 67.5195 135.641 64.8608C136.338 60.6923 136.945 56.4978 137.372 52.2905C137.63 49.6577 137.837 47.012 138.625 44.4825C139.232 42.5466 140.162 40.7269 140.898 38.8297C142.138 35.5645 142.771 32.1058 143.391 28.6857Z" fill="#8C64AB"/>
<path d="M141.841 26.2596C141.298 25.511 141.389 23.2396 141.247 22.3104C140.911 20.0519 140.704 17.974 140.652 15.7026C140.627 14.6314 140.704 9.40451 140.084 8.81084C142.344 11.0048 143.869 13.9474 144.321 17.0706C144.437 16.877 146.168 13.3924 146.181 13.3924C146.671 13.5086 146.749 14.1539 146.723 14.6443C146.555 17.9611 146.129 21.265 145.431 24.5044C145.212 25.5497 144.837 26.2209 144.734 27.2791C144.605 28.5955 144.747 29.9765 144.682 31.2929C144.553 34.016 144.256 36.7391 143.856 39.4364C143.081 44.6375 141.905 49.7611 140.627 54.8589C139.503 59.3502 137.927 64.1124 134.117 66.7452C133.536 65.9709 134.207 64.9255 134.556 64.035C135.253 62.2798 134.659 60.3181 134.323 58.4468C134.026 56.7561 133.949 55.0267 134.104 53.3102C134.763 53.4651 135.357 53.8136 135.822 54.304C135.912 53.5813 135.576 52.8714 135.331 52.1874C135.086 51.5034 134.943 50.6774 135.37 50.0838C135.783 49.4772 136.958 49.5159 137.075 50.2387C136.235 48.4447 136.08 46.354 136.623 44.4568C137.023 44.702 137.423 44.9343 137.824 45.1796C137.462 43.2824 137.514 41.3078 138.005 39.4364C138.805 39.3719 139.632 39.7978 140.045 40.4818C139.141 38.8557 138.805 36.9327 139.102 35.1001C139.903 35.2679 140.652 35.6679 141.221 36.2487C140.02 34.7516 139.49 32.7254 139.813 30.8282C140.407 30.5572 141.156 30.6605 141.66 31.0864C140.949 29.3312 140.588 27.434 140.588 25.5368C141.117 25.6143 141.557 25.8724 141.841 26.2596Z" fill="#B0489B"/>
<path d="M154.472 86.4783C154.821 86.2718 155.015 85.8846 155.208 85.5362C156.461 83.226 158.437 81.3289 160.788 80.1544C159.51 73.8693 155.751 57.8531 142.228 60.9376C137.358 62.0475 134.84 63.8285 131.352 67.0034C128.743 69.3909 126.586 72.3206 123.641 74.2823C118.359 77.7797 111.513 77.5603 105.417 79.3155C94.2957 82.5162 85.7452 93.1506 84.9961 104.688C84.6086 110.664 86.1198 116.755 84.7765 122.589C84.544 123.621 84.2211 124.783 84.7636 125.686C85.2415 126.486 86.2102 126.822 87.1143 127.003C92.5908 128.1 96.7756 125.648 101.671 123.983C107.38 122.047 113.347 120.098 119.211 118.678C126.07 117.026 132.166 112.445 135.666 106.315C138.921 100.61 140.084 93.5636 144.824 89.0207C148.053 85.9362 151.411 88.2593 154.472 86.4783Z" fill="#A07AB6"/>
<path d="M98.8813 110.16C96.6597 111.244 93.7665 111.632 91.7903 113.051C89.6075 114.613 87.8509 116.755 86.7401 119.194C87.1663 118.007 86.4559 116.742 86.0684 115.542C85.6551 114.252 85.6164 112.858 85.9651 111.541C86.6497 108.908 86.5205 106.637 87.8509 103.953C89.1812 101.294 90.9508 98.8548 93.0044 96.6996C92.7203 94.9314 101.439 89.7949 102.834 88.8915C106.295 86.633 108.246 83.4323 110.764 80.1284C111.888 78.6572 113.025 77.173 114.458 76.0244C117.687 73.4561 121.859 72.9012 125.527 71.2621C129.105 69.6618 131.172 67.0032 134.026 64.4478C136.325 62.3958 138.973 60.8471 142.435 60.5373C146.658 60.1631 151.024 61.7376 154.033 64.7317C154.266 64.9641 154.511 65.2351 154.602 65.5577C154.821 66.3708 154.033 67.0677 153.349 67.5452C148.518 70.9007 143.688 74.2563 138.87 77.6118C136.48 79.2766 134.078 80.9544 132.011 83.0064C125.347 89.653 118.126 95.6155 110.906 101.642C107.135 104.817 103.312 108.005 98.8813 110.16Z" fill="#455AA9"/>
<path d="M106.45 104.675C105.585 104.469 104.655 104.521 103.815 104.843C103.673 104.895 103.518 104.959 103.415 105.088C103.311 105.205 103.26 105.372 103.195 105.514C102.511 107.011 100.263 106.508 98.9586 106.573C98.7261 107.36 99.2298 108.289 100.018 108.521C98.8811 108.108 97.6153 108.031 96.427 108.289C96.0395 108.999 96.5691 110.031 97.3699 110.135C95.6908 109.412 93.7017 109.438 92.0484 110.199C92.9267 110.767 93.8179 111.335 94.6962 111.916C94.0375 111.477 93.3271 111.012 92.5392 110.935C91.7384 110.87 90.8343 111.335 90.718 112.122C90.4985 113.516 92.5005 114.019 93.9213 113.942C91.648 113.477 89.1939 113.916 87.2307 115.155C87.8377 116.226 89.1681 116.846 90.3822 116.6C88.7677 116.575 87.1402 116.871 85.642 117.465C85.1382 117.672 84.5699 118.059 84.6733 118.588C84.7508 118.962 85.1253 119.182 85.4741 119.324C86.3524 119.698 87.2823 119.943 88.2252 120.059C87.1661 119.879 86.0165 119.698 85.0349 120.175C84.0662 120.653 83.4979 122.06 84.2341 122.847C84.6603 123.286 85.3191 123.376 85.9261 123.428C94.3733 124.073 103.027 121.621 109.873 116.626C111.759 115.245 113.541 113.671 115.672 112.716C117.106 112.083 118.707 111.722 119.934 110.741C121.006 109.889 121.691 108.638 122.815 107.85C124.068 106.947 125.359 106.534 126.535 105.385C128.95 103.011 130.552 99.9261 132.437 97.1513C138.185 88.7109 147.007 82.5548 152.018 73.6627C152.974 71.972 154.162 69.9329 156.113 69.9329C156.009 67.6614 155.996 66.4612 154.227 64.7834C153.762 64.3446 148.88 61.9829 148.918 62.2152C148.944 63.1057 149.487 63.9704 150.287 64.3834C149.215 63.467 147.717 63.0799 146.335 63.3767C146.697 63.9962 147.058 64.6157 147.42 65.2351C146.103 64.3963 144.411 64.2156 142.938 64.7318C143.171 65.3255 143.584 65.8417 144.101 66.2031C142.77 65.8417 141.375 65.7643 140.019 65.9579C140.549 66.3838 141.078 66.8097 141.608 67.2485C140.226 67.3259 138.844 67.4033 137.462 67.4808C137.203 68.3584 138.03 69.3779 138.947 69.2876C137.513 69.0811 136.028 69.2747 134.698 69.8425C134.891 70.733 135.653 71.4687 136.545 71.6364C135.021 71.2493 133.354 71.4816 131.985 72.2559C132.67 73.0561 133.613 73.6369 134.633 73.8821C133.316 73.8046 131.972 74.2305 130.926 75.0436C131.469 75.5727 131.998 76.089 132.528 76.6181C131.275 76.2826 129.854 76.8117 129.118 77.87C129.725 78.0119 130.332 78.1668 130.939 78.3088C129.828 78.2701 128.717 78.5153 127.723 79.0057C128.692 79.7155 129.893 80.1156 131.094 80.1027C129.518 80.2834 128.02 80.9932 126.87 82.0902C127.413 82.8774 128.356 83.3937 129.312 83.4195C127.361 83.3937 125.411 83.897 123.706 84.852C124.675 85.6651 125.902 86.1555 127.155 86.233C125.773 86.1039 124.365 86.2846 123.073 86.775C124.197 87.8075 125.656 88.4786 127.168 88.6593C125.359 88.427 123.499 88.4786 121.704 88.84C122.389 90.1176 123.835 90.9436 125.282 90.9178C123.396 90.479 121.316 90.8662 119.728 91.9761L122.246 93.1634C119.818 93.0085 117.351 93.3183 115.039 94.0539C116.447 94.7121 117.855 95.3832 119.263 96.0414C117.196 95.6026 115 95.822 113.063 96.6351C114.484 97.6288 116.124 98.2999 117.829 98.5968C115.181 98.0031 112.366 98.2096 109.834 99.1905C110.984 99.9261 112.327 100.365 113.683 100.442C111.526 100.3 109.343 100.52 107.251 101.088C108.297 101.875 109.576 102.365 110.88 102.481C108.245 102.172 105.546 102.572 103.105 103.604C104.913 104.611 107.186 105.05 108.788 106.392C107.083 105.76 105.197 105.618 103.428 105.979C104.073 106.379 104.732 106.779 105.378 107.179C103.944 106.818 102.485 106.611 100.999 106.534" fill="#8C64AB"/>
<path d="M153.052 66.4999C151.088 65.5062 148.983 64.8867 147.356 64.7189C147.394 65.661 147.782 66.5903 148.415 67.2872C147.188 66.0611 145.354 65.4804 143.649 65.7643C143.674 67.0678 144.165 68.3455 145.031 69.3263C143.364 68.8488 141.569 68.8359 139.903 69.3134C139.67 70.3975 140.265 71.6106 141.272 72.0882C140.045 71.5203 138.573 71.4816 137.32 71.9849C136.868 72.1656 136.403 72.4882 136.351 72.9658C136.312 73.2497 136.454 73.5336 136.596 73.7917C137.255 74.9791 138.237 75.9857 139.399 76.6826C137.849 75.6502 135.718 75.5986 134.116 76.5407C134.917 77.5086 135.809 78.3991 136.777 79.1864C136.054 79.096 135.331 78.9928 134.607 78.9025C134.414 78.8766 134.194 78.8508 134.026 78.967C133.703 79.1864 133.845 79.7026 134.065 80.0253C134.736 81.0061 135.783 81.7159 136.945 81.9611C135.486 81.6514 134.181 85.1876 136.183 84.7617C134.995 84.7359 133.819 84.8779 132.683 85.2005C132.954 85.9749 133.574 86.6072 134.336 86.9041C132.67 86.8396 131.004 87.6397 130.022 88.969C130.384 89.8466 131.21 90.5177 132.14 90.7113C130.5 90.6468 128.847 90.8533 127.258 91.3179C127.426 92.4278 128.472 93.3183 129.583 93.3312C128.149 92.8924 126.47 93.3054 125.411 94.3637L127.555 95.3961C125.902 94.7508 123.874 95.2284 122.686 96.5318C123.073 97.19 123.732 97.6805 124.481 97.8482C123.151 97.4482 121.639 97.6676 120.477 98.4419C121.187 99.3582 122.221 100.029 123.344 100.313C121.394 99.5389 119.03 99.9906 117.493 101.423C118.281 102.21 119.392 102.675 120.503 102.675C118.811 102.185 116.899 102.623 115.582 103.785C116.292 104.069 117.003 104.353 117.713 104.65C115.827 104.211 113.786 104.43 112.043 105.243C112.727 106.121 113.799 106.676 114.91 106.753C113.218 106.147 111.255 106.353 109.731 107.295C110.493 108.263 111.655 108.896 112.882 109.012C111.397 108.405 109.602 108.599 108.271 109.515C108.801 110.212 109.537 110.741 110.364 111.012C108.581 110.354 106.489 110.586 104.887 111.606C105.313 112.613 106.179 113.426 107.199 113.813C105.455 112.742 103.04 112.909 101.464 114.213C102.627 114.819 103.802 115.413 104.965 116.007C102.976 115.052 100.534 115.065 98.5582 116.058C99.5786 116.691 100.599 117.336 101.619 117.968C99.5657 116.471 96.5304 116.497 94.5155 118.033C95.6133 118.833 96.9437 119.337 98.2999 119.44C96.6854 118.949 94.9288 118.911 93.2884 119.324C94.0117 119.814 94.8513 120.124 95.7296 120.214C92.9526 120.033 90.124 120.511 87.5536 121.595C88.1607 122.615 89.2973 123.286 90.4856 123.337C89.1165 123.105 87.6311 123.621 86.7012 124.654C87.8895 125.389 89.2069 125.906 90.576 126.19C89.9044 125.97 89.1682 125.996 88.5094 126.254C90.5889 127.145 93.0043 126.835 95.1354 126.06C97.2537 125.273 99.1782 124.047 101.219 123.053C106.321 120.575 112.081 119.62 117.145 117.052C122.285 114.445 126.457 110.289 130.526 106.211C133.497 103.243 136.532 100.158 138.146 96.2866C138.947 94.3766 139.386 92.3116 140.445 90.5306C142.525 87.046 146.529 85.3167 150.145 83.4969C153.723 81.6901 159.2 78.141 158.967 73.4175C158.825 70.4749 156.1 68.0486 153.052 66.4999Z" fill="#B295C6"/>
<path d="M100.599 123.557C95.6004 125.26 90.3306 126.138 85.0479 126.164C88.5611 127.867 92.7201 126.809 96.4658 125.725C104.5 123.389 112.572 121.388 120.464 118.64C127.697 116.11 133.148 112.083 137.281 105.501C139.283 102.314 139.528 98.2482 141.427 94.9573C142.318 93.4215 143.558 92.1051 144.85 90.879C147.64 88.2333 151.515 85.8199 155.105 87.175C152.767 86.2845 160.685 80.6576 161.163 80.3865C159.083 78.1538 160.013 76.4632 159.523 73.9207C159.471 73.6368 159.406 73.3657 159.316 73.0947C158.567 70.5781 156.616 68.255 154.666 66.616C152.651 64.9124 149.151 64.7705 151.515 68.2679C150.417 66.7838 148.505 65.9449 146.684 66.1385C146.71 67.4291 147.007 68.7067 147.536 69.8812C146.8 68.8358 145.573 68.1647 144.307 68.0873C144.346 69.1068 144.579 70.1264 144.953 71.0685C144.436 70.5265 143.868 69.9457 143.132 69.7908C142.396 69.6231 141.479 70.0877 141.466 70.8362C141.466 71.1459 141.608 71.4299 141.75 71.7009C142.176 72.4365 142.732 73.1076 143.39 73.6626C142.861 73.3787 142.267 74.1401 142.447 74.708C142.628 75.2887 143.222 75.6114 143.752 75.8953C144.281 76.1792 144.863 76.5277 145.031 77.1084C144.721 76.5535 143.765 77.173 143.894 77.7925C144.023 78.4119 144.695 78.7604 145.276 79.0056C146.141 79.3799 147.007 79.7283 147.833 80.1671C146.374 80.6188 143.713 80.464 144.553 82.5805C143.894 82.245 143.067 82.2063 142.486 82.7225C142.744 83.5098 143.287 84.2067 143.997 84.6455C143.003 84.3357 141.814 85.0843 141.711 86.1167C141.621 87.1492 142.732 88.1171 143.726 87.8203C142.538 88.1171 141.207 88.3107 140.097 88.7753C140.458 89.2012 141.027 89.511 141.35 90.0143C139.218 90.0143 137.242 90.2982 135.421 91.5243C136.235 92.1954 137.358 92.5051 138.405 92.3245C136.958 92.3374 135.524 92.7762 134.323 93.5634C134.181 93.6538 134.039 93.7699 134 93.9248C133.949 94.17 134.155 94.3765 134.349 94.5314C135.15 95.125 136.144 95.4477 137.126 95.4348C135.266 95.2154 133.316 95.9897 132.114 97.4352C132.902 98.1579 134 98.5193 135.059 98.416C133.006 98.558 130.991 99.2678 129.312 100.442C129.919 100.752 130.603 100.946 131.288 100.997C130.358 100.997 129.402 101.01 128.511 101.32C127.62 101.617 126.806 102.249 126.496 103.127C127.245 103.643 128.175 103.875 129.079 103.759C127.038 103.759 124.998 104.275 123.202 105.243C124.261 105.901 125.527 106.211 126.767 106.121C124.52 105.85 122.195 106.263 120.167 107.308C119.909 107.437 119.624 107.631 119.586 107.915C119.534 108.289 119.922 108.56 120.283 108.715C121.213 109.089 122.234 109.205 123.215 109.025C120.761 108.573 118.165 109.012 116.008 110.264C117.183 111.128 118.682 111.554 120.141 111.412C118.281 111.115 116.357 111.193 114.523 111.657C114.484 111.851 114.445 112.032 114.419 112.225C115.375 112.806 116.499 113.103 117.61 113.077C114.497 112.677 111.255 113.284 108.504 114.768C109.86 115.516 111.397 115.916 112.934 115.942C111.061 115.581 109.124 115.555 107.251 115.865C106.773 115.942 106.153 116.252 106.282 116.729C107.716 117.142 109.137 117.555 110.57 117.955C110.299 117.878 109.033 118.356 108.659 118.42C107.742 118.601 106.85 118.833 105.933 118.962C106.037 119.44 106.45 119.827 106.928 119.904C105.275 120.227 103.621 120.562 101.981 120.885C103.014 121.066 104.073 121.117 105.12 121.027L99.5915 122.163C100.651 122.653 101.826 122.873 102.988 122.821C101.891 123.002 100.793 123.182 99.6948 123.363C103.118 123.389 106.476 122.86 109.795 122.034" fill="#D0ACD1"/>
<path d="M40.4226 121.259C38.9501 121.376 37.426 121.505 36.1086 122.176C34.7911 122.834 33.6933 124.163 33.7449 125.647C41.8304 127.699 50.3422 127.17 58.6215 126.086C67.7661 124.886 76.8204 123.04 85.6938 120.55C70.6594 120.356 55.457 120.124 40.4226 121.259Z" fill="#564EA1"/>
<path d="M41.3007 128.938C39.867 129.313 38.3945 129.713 37.2192 130.603C36.0438 131.494 35.1913 132.991 35.5142 134.436C43.8323 135.017 52.1245 132.965 60.0679 130.423C68.8509 127.609 77.4273 124.163 85.7065 120.124C70.8787 122.653 55.8831 125.144 41.3007 128.938Z" fill="#564EA1"/>
<path d="M46.9843 127.222C45.5506 127.596 44.0781 127.996 42.9028 128.887C41.7274 129.777 40.8749 131.274 41.1978 132.72C49.5159 133.301 57.808 131.249 65.7515 128.706C74.5345 125.893 83.1108 122.447 91.403 118.407C76.5623 120.937 61.5667 123.415 46.9843 127.222Z" fill="#8C64AB"/>
<path d="M50.8977 133.146C49.5415 133.739 48.1466 134.359 47.1262 135.417C46.0929 136.475 45.4988 138.089 46.0283 139.47C54.3463 138.76 62.2123 135.469 69.6649 131.739C77.9055 127.609 85.8489 122.898 93.4178 117.633C79.1583 122.382 64.7309 127.144 50.8977 133.146Z" fill="#564EA1"/>
<path d="M52.3962 139.069C51.1304 139.844 49.8388 140.644 48.9605 141.831C48.0822 143.032 47.7076 144.709 48.4309 146C56.5681 144.167 63.9174 139.844 70.8018 135.12C78.4094 129.906 85.6296 124.15 92.4106 117.917C78.9261 124.576 65.2736 131.249 52.3962 139.069Z" fill="#564EA1"/>
<path d="M57.7305 137.986C56.4518 138.734 55.1602 139.534 54.2689 140.709C53.3777 141.896 52.9902 143.561 53.6877 144.864C61.8507 143.122 69.2388 138.876 76.1748 134.243C83.8341 129.119 91.1317 123.454 97.9902 117.285C84.4282 123.789 70.6983 130.307 57.7305 137.986Z" fill="#8C64AB"/>
<path d="M90.8219 70.2167C71.4218 66.5256 49.2189 63.3508 29.483 64.8866C29.1988 64.9124 28.8759 64.9511 28.6822 65.1705C28.3334 65.5835 28.7209 66.1901 29.0955 66.5773C31.5754 69.1713 34.0682 71.7783 36.5481 74.3724C37.8139 75.7017 39.0926 77.031 40.4488 78.2829C51.2338 88.1817 66.8107 93.886 80.7085 97.6546C88.7424 99.8356 97.0863 101.294 105.378 100.597C113.296 99.9389 134.763 94.4797 123.384 84.3615C114.497 76.4373 102.343 72.4107 90.8219 70.2167Z" fill="#8C64AB"/>
<path d="M111.435 90.1048C113.386 90.8146 115.452 91.2405 117.532 91.3824C116.537 91.5631 115.594 92.0277 114.832 92.6988C114.626 92.8795 114.445 93.2151 114.652 93.3958C114.729 93.4603 114.832 93.4732 114.936 93.4861C115.84 93.5635 116.757 93.357 117.558 92.9311C116.692 93.2796 115.93 93.8862 115.388 94.6476C116.486 95.0993 117.777 95.0219 118.823 94.4798C116.718 96.0544 114.949 98.0677 112.753 99.5131C110.557 100.959 107.664 101.772 105.287 100.636C104.939 100.468 104.59 100.249 104.422 99.9003C103.983 99.0356 104.822 98.1064 105.442 97.3579C106.424 96.1447 106.941 94.4282 106.372 92.9699" fill="#455AA9"/>
<path d="M68.4763 66.4354C60.1841 65.5965 51.8661 65.0028 43.5481 64.6414C30.1798 64.0607 16.4241 64.1381 3.92124 68.8875C2.35839 69.4811 0.511371 70.8233 1.11843 72.385C1.55758 73.482 2.96545 73.7659 4.14082 73.8691C16.7212 74.9274 29.3661 73.9078 41.9465 72.9012L79.2613 69.8941C72.8937 69.4553 66.5906 67.9453 60.7137 65.4545" fill="#D0ACD1"/>
<path d="M68.4763 66.4354C60.1841 65.5965 51.8661 65.0028 43.5481 64.6414C30.1798 64.0607 16.4241 64.1381 3.92124 68.8875C2.35839 69.4811 0.511371 70.8233 1.11843 72.385C1.55758 73.482 2.96545 73.7659 4.14082 73.8691C16.7212 74.9274 29.3661 73.9078 41.9465 72.9012L79.2613 69.8941C72.8937 69.4553 66.5906 67.9453 60.7137 65.4545" stroke="#DAC7E1" stroke-width="0.6764" stroke-miterlimit="10"/>
<path d="M72.2095 66.7839C63.8657 67.2098 55.496 67.8163 47.1392 68.6294C33.7193 69.9329 19.9507 71.8301 7.66738 77.4183C6.13036 78.1152 4.34792 79.4703 5.0454 80.6706C5.53621 81.5224 6.96991 81.5611 8.1582 81.4836C20.8161 80.6835 33.4222 78.1539 45.9768 75.6373C58.3892 73.1465 70.7888 70.6685 83.2012 68.1777C76.7948 68.6681 70.4142 68.268 64.3953 67.0033" fill="#D0ACD1"/>
<path d="M72.2095 66.7839C63.8657 67.2098 55.496 67.8163 47.1392 68.6294C33.7193 69.9329 19.9507 71.8301 7.66738 77.4183C6.13036 78.1152 4.34792 79.4703 5.0454 80.6706C5.53621 81.5224 6.96991 81.5611 8.1582 81.4836C20.8161 80.6835 33.4222 78.1539 45.9768 75.6373C58.3892 73.1465 70.7888 70.6685 83.2012 68.1777C76.7948 68.6681 70.4142 68.268 64.3953 67.0033" stroke="#DAC7E1" stroke-width="0.6764" stroke-miterlimit="10"/>
<path d="M80.5529 68.81C72.5061 69.7263 64.4464 70.8104 56.3996 72.0623C43.4705 74.0885 30.2185 76.6697 18.4906 82.4644C17.0311 83.1871 15.3261 84.5164 16.0365 85.5489C16.5273 86.2845 17.9094 86.22 19.046 86.078C31.2389 84.5422 43.3672 81.4836 55.418 78.4249C67.3396 75.4049 79.2612 72.372 91.1829 69.3521C85.0089 70.2038 78.8479 70.2426 73.0098 69.494" fill="#D0ACD1"/>
<path d="M80.5529 68.81C72.5061 69.7263 64.4464 70.8104 56.3996 72.0623C43.4705 74.0885 30.2185 76.6697 18.4906 82.4644C17.0311 83.1871 15.3261 84.5164 16.0365 85.5489C16.5273 86.2845 17.9094 86.22 19.046 86.078C31.2389 84.5422 43.3672 81.4836 55.418 78.4249C67.3396 75.4049 79.2612 72.372 91.1829 69.3521C85.0089 70.2038 78.8479 70.2426 73.0098 69.494" stroke="#DAC7E1" stroke-width="0.6764" stroke-miterlimit="10"/>
<path d="M84.9061 74.7338C77.6084 75.2501 70.3108 75.947 63.0261 76.8375C51.3369 78.27 39.3894 80.2834 29.0048 85.8329C27.7132 86.5298 26.2408 87.8591 26.9382 89.0077C27.4291 89.8208 28.6819 89.8466 29.7281 89.7562C40.7715 88.8141 51.6727 86.22 62.5094 83.626C73.2169 81.0577 83.9374 78.5023 94.6449 75.9341C89.0651 76.489 83.4207 76.1793 78.0476 75.0307" fill="#D0ACD1"/>
<path d="M84.9061 74.7338C77.6084 75.2501 70.3108 75.947 63.0261 76.8375C51.3369 78.27 39.3894 80.2834 29.0048 85.8329C27.7132 86.5298 26.2408 87.8591 26.9382 89.0077C27.4291 89.8208 28.6819 89.8466 29.7281 89.7562C40.7715 88.8141 51.6727 86.22 62.5094 83.626C73.2169 81.0577 83.9374 78.5023 94.6449 75.9341C89.0651 76.489 83.4207 76.1793 78.0476 75.0307" stroke="#DAC7E1" stroke-width="0.6764" stroke-miterlimit="10"/>
<path d="M86.9207 74.0886C80.088 75.5083 73.2683 77.0699 66.4615 78.7864C55.5344 81.5353 44.3748 84.8005 34.7652 90.7114C33.5639 91.447 32.2207 92.7247 32.9052 93.5507C33.3831 94.1443 34.5585 93.9895 35.5401 93.7701C45.8731 91.4986 56.0381 87.8979 66.1386 84.323L96.1041 73.7144C90.8731 74.9275 85.5903 75.4567 80.5272 75.2631" fill="#D0ACD1"/>
<path d="M86.9207 74.0886C80.088 75.5083 73.2683 77.0699 66.4615 78.7864C55.5344 81.5353 44.3748 84.8005 34.7652 90.7114C33.5639 91.447 32.2207 92.7247 32.9052 93.5507C33.3831 94.1443 34.5585 93.9895 35.5401 93.7701C45.8731 91.4986 56.0381 87.8979 66.1386 84.323L96.1041 73.7144C90.8731 74.9275 85.5903 75.4567 80.5272 75.2631" stroke="#DAC7E1" stroke-width="0.6764" stroke-miterlimit="10"/>
<path d="M89.6207 79.3025C83.408 80.4641 77.2082 81.7676 71.0343 83.2259C61.1147 85.5619 51.0013 88.3883 42.3991 93.8603C41.3271 94.5444 40.1388 95.7446 40.7846 96.5835C41.2496 97.1771 42.3216 97.061 43.1999 96.8803C52.59 94.9961 61.7734 91.8212 70.9052 88.6464L97.9904 79.2509C93.2502 80.2705 88.4195 80.606 83.7697 80.2447" fill="#D0ACD1"/>
<path d="M89.6207 79.3025C83.408 80.4641 77.2082 81.7676 71.0343 83.2259C61.1147 85.5619 51.0013 88.3883 42.3991 93.8603C41.3271 94.5444 40.1388 95.7446 40.7846 96.5835C41.2496 97.1771 42.3216 97.061 43.1999 96.8803C52.59 94.9961 61.7734 91.8212 70.9052 88.6464L97.9904 79.2509C93.2502 80.2705 88.4195 80.606 83.7697 80.2447" stroke="#DAC7E1" stroke-width="0.6764" stroke-miterlimit="10"/>
<path d="M96.9178 73.1593C90.731 75.4953 84.6216 78.0119 78.5898 80.7093C68.8897 85.0198 59.1638 89.9498 52.0082 97.7837C51.117 98.7645 50.2904 100.378 51.2849 101.268C51.9953 101.901 53.0932 101.604 53.9715 101.255C63.2712 97.5643 71.8733 92.3503 80.4368 87.1751C88.8969 82.0515 97.357 76.9278 105.817 71.8042C101.141 73.753 96.1299 74.9016 91.0668 75.1985C92.9138 75.0694 95.045 74.7597 96.8791 74.6306C97.2666 76.6052 96.2462 78.7734 94.4767 79.7413" fill="#D0ACD1"/>
<path d="M96.9178 73.1593C90.731 75.4953 84.6216 78.0119 78.5897 80.7093C68.8897 85.0198 59.1638 89.9498 52.0082 97.7837C51.117 98.7645 50.2904 100.378 51.2849 101.268C51.9953 101.901 53.0932 101.604 53.9715 101.255C63.2712 97.5643 71.8733 92.3503 80.4368 87.1751C88.8969 82.0515 97.357 76.9278 105.817 71.8042C101.141 73.753 96.1299 74.9016 91.0668 75.1985C92.9138 75.0694 95.045 74.7597 96.8791 74.6306C97.2666 76.6052 96.2462 78.7734 94.4767 79.7413" stroke="#DAC7E1" stroke-width="0.6764" stroke-miterlimit="10"/>
<path d="M95.5225 74.0498C90.6531 76.7987 85.8741 79.7026 81.2243 82.7484C73.7458 87.6397 66.4094 93.0988 62.1342 100.933C61.6046 101.914 61.2946 103.462 62.4183 104.172C63.2191 104.675 64.1104 104.288 64.7949 103.888C72.0796 99.5905 78.3569 94.0023 84.5825 88.4269C90.7435 82.9161 96.9046 77.4182 103.066 71.9074C99.4232 74.1401 95.2771 75.6888 90.8469 76.4761C92.4485 76.1793 94.2697 75.6759 95.8713 75.3791C96.7496 77.1343 96.4137 79.2121 95.0963 80.2575" fill="#D0ACD1"/>
<path d="M95.5225 74.0498C90.6531 76.7987 85.8741 79.7026 81.2243 82.7484C73.7458 87.6397 66.4094 93.0988 62.1342 100.933C61.6046 101.914 61.2946 103.462 62.4183 104.172C63.2191 104.675 64.1104 104.288 64.7949 103.888C72.0796 99.5905 78.3569 94.0023 84.5825 88.4269C90.7435 82.9161 96.9046 77.4182 103.066 71.9074C99.4232 74.1401 95.2771 75.6888 90.8469 76.4761C92.4485 76.1793 94.2697 75.6759 95.8713 75.3791C96.7496 77.1343 96.4137 79.2121 95.0963 80.2575" stroke="#DAC7E1" stroke-width="0.6764" stroke-miterlimit="10"/>
<path d="M95.2261 78.5797C91.5966 81.5222 88.0705 84.5551 84.6219 87.7041C79.0938 92.7503 73.7077 98.2095 70.7887 105.101C70.427 105.966 70.2591 107.244 71.1632 107.631C71.809 107.915 72.4807 107.463 72.9844 107.037C78.3963 102.507 82.9557 97.0867 87.4893 91.705C91.9712 86.3748 96.4531 81.0576 100.935 75.7275C98.2356 78.0635 95.1098 79.9348 91.7387 81.2383C92.9657 80.7479 94.3349 80.0768 95.5619 79.5864C96.324 80.8511 96.169 82.5418 95.2002 83.5872" fill="#D0ACD1"/>
<path d="M95.2261 78.5797C91.5966 81.5222 88.0705 84.5551 84.6219 87.7041C79.0938 92.7503 73.7077 98.2095 70.7887 105.101C70.427 105.966 70.2591 107.244 71.1632 107.631C71.809 107.915 72.4807 107.463 72.9844 107.037C78.3963 102.507 82.9557 97.0867 87.4893 91.705C91.9712 86.3748 96.4531 81.0576 100.935 75.7275C98.2356 78.0635 95.1098 79.9348 91.7387 81.2383C92.9657 80.7479 94.3349 80.0768 95.5619 79.5864C96.324 80.8511 96.169 82.5418 95.2002 83.5872" stroke="#DAC7E1" stroke-width="0.6764" stroke-miterlimit="10"/>
<path d="M99.6691 77.2892C96.3755 80.5931 93.1722 84.0003 90.0853 87.4978C85.1255 93.1118 80.3336 99.1259 78.1507 106.276C77.8795 107.166 77.8536 108.457 78.7836 108.754C79.4423 108.96 80.0752 108.444 80.5273 107.966C85.4354 102.869 89.4007 96.9965 93.3401 91.163C97.2408 85.3812 101.142 79.6123 105.042 73.8305C102.601 76.4503 99.6949 78.6443 96.4788 80.3092C97.6412 79.6897 98.9329 78.8766 100.108 78.2572C100.999 79.4316 101.025 81.1352 100.173 82.2709" fill="#D0ACD1"/>
<path d="M99.6691 77.2892C96.3755 80.5931 93.1722 84.0003 90.0853 87.4978C85.1255 93.1118 80.3336 99.1259 78.1507 106.276C77.8795 107.166 77.8536 108.457 78.7836 108.754C79.4423 108.96 80.0752 108.444 80.5273 107.966C85.4354 102.869 89.4007 96.9965 93.3401 91.163C97.2408 85.3812 101.142 79.6123 105.042 73.8305C102.601 76.4503 99.6949 78.6443 96.4788 80.3092C97.6412 79.6897 98.9329 78.8766 100.108 78.2572C100.999 79.4316 101.025 81.1352 100.173 82.2709" stroke="#DAC7E1" stroke-width="0.6764" stroke-miterlimit="10"/>
<path d="M102.795 80.1284C100.082 83.0839 97.4731 86.1296 94.9803 89.2529C90.9762 94.2603 87.2047 99.6163 86.1068 105.914C85.9648 106.702 86.1327 107.837 87.0755 108.07C87.7472 108.237 88.2767 107.773 88.6513 107.347C92.6683 102.791 95.6648 97.5771 98.6484 92.389C101.593 87.2524 104.538 82.1288 107.496 76.9923C105.507 79.3282 103.014 81.3158 100.134 82.8257C101.167 82.2579 102.304 81.5222 103.35 80.9544C104.37 81.961 104.642 83.4452 103.983 84.4648" fill="#D0ACD1"/>
<path d="M102.795 80.1284C100.082 83.0839 97.4731 86.1296 94.9803 89.2529C90.9762 94.2603 87.2047 99.6163 86.1068 105.914C85.9648 106.702 86.1327 107.837 87.0755 108.07C87.7472 108.237 88.2767 107.773 88.6513 107.347C92.6683 102.791 95.6648 97.5771 98.6484 92.389C101.593 87.2524 104.538 82.1288 107.496 76.9923C105.507 79.3282 103.014 81.3158 100.134 82.8257C101.167 82.2579 102.304 81.5222 103.35 80.9544C104.37 81.961 104.642 83.4452 103.983 84.4648" stroke="#DAC7E1" stroke-width="0.6764" stroke-miterlimit="10"/>
<path d="M106.98 79.3282C104.5 82.4902 102.136 85.7166 99.8886 89.0205C96.285 94.3119 92.9397 99.9518 92.3327 106.314C92.2552 107.115 92.5006 108.224 93.4693 108.379C94.1538 108.495 94.6447 107.992 94.9805 107.54C98.6358 102.688 101.232 97.2545 103.802 91.8598C106.347 86.5168 108.891 81.1738 111.436 75.8307C109.64 78.3087 107.303 80.4768 104.551 82.2062C105.546 81.5609 106.618 80.735 107.613 80.1026C108.71 81.0318 109.085 82.4902 108.504 83.5484" fill="#D0ACD1"/>
<path d="M106.98 79.3282C104.5 82.4902 102.136 85.7166 99.8886 89.0205C96.285 94.3119 92.9397 99.9518 92.3327 106.314C92.2552 107.115 92.5006 108.224 93.4693 108.379C94.1538 108.495 94.6447 107.992 94.9805 107.54C98.6358 102.688 101.232 97.2545 103.802 91.8598C106.347 86.5168 108.891 81.1738 111.436 75.8307C109.64 78.3087 107.303 80.4768 104.551 82.2062C105.546 81.5609 106.618 80.735 107.613 80.1026C108.71 81.0318 109.085 82.4902 108.504 83.5484" stroke="#DAC7E1" stroke-width="0.6764" stroke-miterlimit="10"/>
<path d="M108.982 80.3995C107.212 83.2646 105.546 86.1684 103.996 89.1239C101.516 93.8603 99.2944 98.8549 99.6173 104.185C99.656 104.856 100.031 105.747 100.896 105.785C101.516 105.811 101.891 105.347 102.123 104.934C104.706 100.558 106.282 95.8091 107.832 91.0856C109.369 86.4137 110.906 81.7417 112.443 77.0698C111.177 79.3025 109.395 81.3287 107.199 83.0323C107.987 82.3999 108.839 81.6127 109.627 80.9803C110.725 81.6385 111.255 82.8129 110.88 83.7421" fill="#D0ACD1"/>
<path d="M108.982 80.3995C107.212 83.2646 105.546 86.1684 103.996 89.1239C101.516 93.8603 99.2944 98.8549 99.6173 104.185C99.656 104.856 100.031 105.747 100.896 105.785C101.516 105.811 101.891 105.347 102.123 104.934C104.706 100.558 106.282 95.8091 107.832 91.0856C109.369 86.4137 110.906 81.7417 112.443 77.0698C111.177 79.3025 109.395 81.3287 107.199 83.0323C107.987 82.3999 108.839 81.6127 109.627 80.9803C110.725 81.6385 111.255 82.8129 110.88 83.7421" stroke="#DAC7E1" stroke-width="0.6764" stroke-miterlimit="10"/>
<path d="M112.857 79.7671C111.087 82.6322 109.421 85.5361 107.871 88.4915C105.391 93.2279 103.169 98.2225 103.492 103.553C103.531 104.224 103.906 105.114 104.771 105.153C105.391 105.179 105.766 104.714 105.998 104.301C108.581 99.9261 110.157 95.1767 111.707 90.4532C113.244 85.7813 114.781 81.1093 116.318 76.4374C115.052 78.6701 113.27 80.6964 111.074 82.3999C111.862 81.7675 112.714 80.9803 113.502 80.3479C114.6 81.0061 115.13 82.1805 114.755 83.1098" fill="#D0ACD1"/>
<path d="M112.857 79.7671C111.087 82.6322 109.421 85.5361 107.871 88.4915C105.391 93.2279 103.169 98.2225 103.492 103.553C103.531 104.224 103.906 105.114 104.771 105.153C105.391 105.179 105.766 104.714 105.998 104.301C108.581 99.9261 110.157 95.1767 111.707 90.4532C113.244 85.7813 114.781 81.1093 116.318 76.4374C115.052 78.6701 113.27 80.6964 111.074 82.3999C111.862 81.7675 112.714 80.9803 113.502 80.3479C114.6 81.0061 115.13 82.1805 114.755 83.1098" stroke="#DAC7E1" stroke-width="0.6764" stroke-miterlimit="10"/>
<path d="M77.1431 67.7776C74.4694 66.7194 72.067 65.3255 69.2384 64.3576C64.4594 62.7056 58.6858 62.9509 53.7131 63.2735C50.2386 63.4929 41.0811 65.9321 38.1104 64.2156C44.336 67.8164 51.3365 70.0362 58.505 70.6944C53.2352 69.9845 47.7846 70.6298 42.8248 72.527C50.5357 74.3983 58.5567 74.992 66.4485 74.2564C62.9998 74.7339 59.5641 75.2243 56.1155 75.7018C54.656 75.9083 52.7315 76.8634 53.2869 78.2185C61.2562 79.522 69.4321 79.4574 77.3755 78.0507C72.997 79.109 68.7475 80.7351 64.7823 82.8646C72.9065 84.6456 81.3796 84.7876 89.5555 83.2905C86.3523 84.0906 83.2524 85.3038 80.3592 86.8783C89.2455 90.1564 99.2943 87.0203 108.555 88.9949C112.146 89.7563 122.156 94.325 124.3 89.0723C126.25 84.2713 116.266 80.064 113.115 78.5024C102.808 73.3917 91.7125 71.3138 80.5788 68.8488C79.3646 68.5907 78.228 68.2164 77.1431 67.7776Z" fill="#8C64AB"/>
<path d="M113.412 74.308C98.3003 67.5066 81.6642 64.0994 65.0928 64.4092C66.1519 66.6677 68.903 67.4937 71.3313 68.0615C79.3393 69.9329 87.2053 70.5523 95.3166 71.8558C89.6464 70.8621 83.7308 71.3525 78.306 73.2626C78.6677 74.2176 79.8818 74.4757 80.9022 74.5661C87.5282 75.2243 94.2188 75.3533 100.871 74.9533C96.6987 75.0049 92.3201 75.1081 88.7036 77.186C90.5247 78.3991 92.8755 78.3217 95.0583 78.1926C99.3207 77.9474 103.583 77.7022 107.845 77.457C105.249 77.9732 102.64 78.4895 100.044 79.0186C99.6694 79.096 99.2302 79.2251 99.1269 79.5994C98.9719 80.1672 99.7211 80.5157 100.302 80.606C104.965 81.3546 109.266 81.4191 113.993 81.1093C111.087 81.1739 108.181 81.6772 105.43 82.6064C106.618 84.168 108.879 84.3229 110.855 84.2971C113.877 84.2455 116.9 84.0519 119.909 83.7292C117.61 84.7746 116.254 87.5365 116.809 89.9886C119.224 89.0206 121.382 87.4203 122.996 85.3812C120.503 87.8978 118.927 91.305 118.63 94.8283C118.63 94.8412 123.332 91.6018 123.836 90.892C125.127 89.0723 126.458 85.9361 125.76 83.6647C124.43 79.2122 117.235 76.0373 113.412 74.308Z" fill="#B0489B"/>
<path d="M159.755 80.322C163.966 83.6775 198.994 111.49 200.932 113.129C202.869 114.781 202.042 114.768 200.26 114.045C198.478 113.335 155.531 86.9814 154.446 86.3748C154.924 84.026 157.236 80.7737 159.755 80.322Z" fill="black"/>
<path d="M156.062 82.9419L197.807 111.374L158.632 80.6189C158.619 80.6318 156.746 81.6642 156.062 82.9419Z" fill="#A7A9AC"/>
<path d="M145.767 71.8557C147.214 72.8236 148.234 74.3594 148.169 76.1017C148.169 76.2695 148.144 76.4502 148.027 76.5663C147.924 76.6825 147.769 76.7212 147.614 76.747C146.387 77.0051 145.083 77.0439 143.907 76.5792C142.745 76.1146 141.763 75.0951 141.569 73.8561C141.531 73.598 141.518 73.327 141.427 73.0818C141.285 72.7204 140.962 72.4494 140.588 72.3719C140.459 72.3461 140.316 72.3332 140.226 72.2429C139.529 71.533 142.151 70.849 142.383 70.8232C143.61 70.6813 144.747 71.1717 145.767 71.8557Z" fill="white"/>
<path d="M145.767 71.8557C147.214 72.8236 148.234 74.3594 148.169 76.1017C148.169 76.2695 148.144 76.4502 148.027 76.5663C147.924 76.6825 147.769 76.7212 147.614 76.747C146.387 77.0051 145.083 77.0439 143.907 76.5792C142.745 76.1146 141.763 75.0951 141.569 73.8561C141.531 73.598 141.518 73.327 141.427 73.0818C141.285 72.7204 140.962 72.4494 140.588 72.3719C140.459 72.3461 140.316 72.3332 140.226 72.2429C139.529 71.533 142.151 70.849 142.383 70.8232C143.61 70.6813 144.747 71.1717 145.767 71.8557Z" stroke="#5566AF" stroke-width="0.5575" stroke-miterlimit="10"/>
<path d="M145.974 72.5527C146.271 72.8237 146.452 73.198 146.594 73.5851C146.723 73.9207 146.813 74.2691 146.839 74.6305C146.865 75.0177 146.8 75.4307 146.542 75.7146C146.348 75.934 146.064 76.0631 145.767 76.1147C145.47 76.1663 145.173 76.1405 144.889 76.0889C144.204 75.9727 143.52 75.7146 143.067 75.1984C142.822 74.9273 142.654 74.6047 142.499 74.2691C142.331 73.9207 142.176 73.5593 142.215 73.1851C142.241 72.9011 142.396 72.643 142.577 72.4236C142.77 72.2042 143.003 72.0364 143.235 71.8816C143.39 71.7783 143.545 71.6751 143.713 71.6105C144.191 71.4299 144.734 71.5202 145.173 71.7654C145.612 72.0235 145.948 72.4236 146.219 72.8495" fill="#8C64AB"/>
<path d="M145.288 75.5468C143.338 76.4373 141.414 73.056 143.558 72.0235C145.573 71.0556 147.42 74.566 145.288 75.5468Z" fill="black"/>
<path d="M143.791 73.0044C143.274 73.056 143.184 72.2688 143.701 72.2172C144.217 72.1526 144.321 72.9528 143.791 73.0044Z" fill="white"/>
<path d="M144.011 73.4303C143.636 73.469 143.571 72.9012 143.946 72.8495C144.334 72.8108 144.411 73.3916 144.011 73.4303Z" fill="white"/>
<path d="M145.56 71.3653C146.425 71.7783 147.123 72.4881 147.652 73.2754C148.182 74.0626 148.569 74.9531 148.918 75.8436C149.176 76.476 149.422 77.1342 149.396 77.8182C148.079 77.6505 146.761 77.444 145.469 77.1729C145.263 77.1342 145.03 77.0697 144.914 76.889C145.366 76.9019 145.805 76.889 146.257 76.8503C146.645 76.8245 147.045 76.7729 147.381 76.5922C147.949 76.2824 148.285 75.5984 148.221 74.9531C148.156 74.3207 147.756 73.7787 147.394 73.2496C147.368 73.2237 147.381 73.1592 147.407 73.185" fill="#5566AF"/>
</svg>
