<svg width="238" height="49" viewBox="0 0 238 49" fill="none" xmlns="http://www.w3.org/2000/svg">
<mask id="mask0" mask-type="alpha" maskUnits="userSpaceOnUse" x="0" y="0" width="238" height="49">
<path d="M218.324 0H19.6601C8.80659 0 0 7.99853 0 17.8562V31.1582C0 41.0159 8.79072 49 19.6601 49H218.34C229.193 49 238 41.0159 238 31.1582V17.8562C237.984 7.98412 229.178 0 218.324 0Z" fill="#03428E"/>
</mask>
<g mask="url(#mask0)">
<path d="M218.525 -2.33472H19.6782C8.8147 -2.33472 0 6.46411 0 17.3276V31.987C0 42.8506 8.79882 51.6494 19.6782 51.6494H218.541C229.405 51.6494 238.219 42.8506 238.219 31.987V17.3276C238.204 6.46411 229.389 -2.33472 218.525 -2.33472Z" fill="#F7941D"/>
<path fill-rule="evenodd" clip-rule="evenodd" d="M198.561 29.0648C193.225 28.8583 187.872 28.6519 182.52 28.5883C177.057 28.5248 171.672 28.6518 166.225 28.8583C156.012 29.2395 145.721 29.3189 135.492 28.8742C125.28 28.4295 115.068 27.556 105.522 25.936C95.9771 24.316 86.7971 22.2513 76.9024 21.0283C66.563 19.7419 55.7312 19.2018 45.1059 18.4871C39.9918 18.1377 34.973 17.6771 29.9065 17.2483C25.523 16.883 21.0283 16.5813 16.5336 16.6924C7.40121 16.9148 1.4771 17.2801 -5.71761 19.4083C-10.26 20.7424 -27.0476 20.2818 -42.93 22.3148V22.8548C-34.9888 22.0766 -23.617 22.013 -14.2941 21.616C-14.3417 21.6319 -14.4053 21.6477 -14.4529 21.6477C-4.0182 21.5207 6.01945 20.5201 16.3747 20.2183C26.2536 19.9324 36.0371 20.7742 45.7253 21.5048C55.1277 22.2195 64.133 23.1724 73.043 24.6654C81.9371 26.1583 90.6089 27.413 100.059 28.096C111.717 28.9377 121.659 31.0977 132.3 31.5742C146.054 32.1936 169.957 29.5254 184.251 29.4618C184.188 29.446 184.124 29.446 184.045 29.4301C186.459 29.446 188.873 29.4936 191.303 29.5413C201.897 29.7795 212.49 30.3036 223.115 30.3354C228.277 30.3513 233.502 30.256 238.601 29.9066C243.286 29.573 247.86 29.0648 252.418 28.5089C259.883 27.5877 267.3 26.6189 274.971 26.1583V25.4118C263.599 25.9519 252.514 28.0642 241.459 29.0489C227.245 30.2719 212.839 29.6366 198.561 29.0648ZM233.804 -15.9776C224.704 -16.3587 215.635 -16.8034 206.502 -17.0417C197.545 -17.2799 188.587 -17.4229 179.614 -17.534C168.226 -17.677 156.838 -17.7405 145.451 -17.8676C135.81 -17.9629 126.185 -18.217 116.545 -18.2964C106.602 -18.3917 96.6124 -18.3758 86.7177 -17.9311C81.9371 -17.7246 77.1724 -17.4229 72.4712 -16.9782C67.7542 -16.5176 63.1483 -15.8982 58.5106 -15.2946C40.6589 -12.9917 22.4736 -10.8952 3.62122 -11.197C-6.41643 -11.3558 -12.3882 -12.547 -22.0447 -13.6746C-27.6988 -14.3258 -30.9229 -15.644 -42.9617 -15.787V-14.9452V-12.9123C-34.02 -13.4364 -26.1264 -11.6099 -12.0547 -9.05286C-1.98526 -7.22639 12.8171 -6.79756 16.2159 -6.86109C51.1253 -7.49639 83.0965 -16.6605 118.991 -16.9782C121.341 -16.9623 123.692 -16.9305 126.042 -16.9146C133.078 -16.4699 149.739 -14.9611 162.572 -14.6276C169.052 -14.4529 183.33 -14.6434 197.307 -14.2623C211.537 -13.8811 216.397 -12.9599 230.771 -12.8964C240.824 -12.8487 251.37 -12.7217 261.376 -12.3087C265.871 -12.1182 274.876 -12.9282 274.876 -12.9282V-15.7711C261.265 -16.0887 247.463 -15.3899 233.804 -15.9776ZM259.597 -29.8905C252.355 -29.7317 247.082 -29.7476 239.871 -30.0493C232.883 -30.3511 225.911 -30.7482 218.922 -31.034C211.362 -31.3517 203.802 -31.3834 196.211 -31.3199C173.578 -31.1452 151.025 -30.1923 128.393 -29.9382C117.704 -29.827 106.92 -29.684 96.263 -29.2711C85.9236 -28.874 75.743 -28.0164 65.3559 -27.8417C54.7147 -27.667 44.3118 -28.2705 33.7818 -28.8264C23.363 -29.3823 12.9442 -29.9858 2.47768 -30.4464C-7.9729 -30.907 -18.487 -31.2087 -29.0011 -31.2087C-33.6229 -31.2087 -38.3082 -31.2087 -42.93 -31.0499V-27.4129C-37.927 -27.4605 -34.0676 -27.4605 -29.1282 -27.8417C-22.0764 -28.3976 -14.3735 -27.6829 -7.36938 -27.2223C1.36592 -26.6346 13.2618 -25.8087 22.1718 -25.6023C39.4042 -25.2529 55.9853 -25.9358 67.8495 -26.6505C71.8359 -26.714 75.8224 -26.857 79.7612 -27.0634C84.8595 -27.3176 89.91 -27.7146 95.0242 -27.937C100.313 -28.1752 105.618 -28.334 110.938 -28.4452C121.849 -28.6676 132.777 -28.747 143.688 -29.017C154.917 -29.287 166.114 -29.684 177.342 -29.9699C181.996 -30.0811 186.649 -30.1764 191.303 -30.2558C191.637 -30.1764 191.954 -30.1129 192.288 -30.0493C192.304 -30.0493 192.319 -30.0493 192.335 -30.0334C192.621 -29.9858 192.923 -29.9382 193.225 -29.8905C194.225 -29.7476 195.242 -29.6523 196.274 -29.5729C196.608 -29.557 197.052 -29.5252 197.291 -29.5252C197.894 -29.4934 198.498 -29.4776 199.085 -29.4617C200.451 -29.414 201.833 -29.3823 203.199 -29.3505C208.758 -29.2393 214.317 -29.2393 219.875 -29.0487C226.403 -28.8105 246.383 -27.1905 250.211 -27.1111C261.868 -26.8887 266.633 -27.3334 274.908 -27.397V-31.0499C266.824 -30.7164 263.997 -29.9858 259.597 -29.8905ZM243.349 -25.8564C236.393 -26.1105 229.437 -26.3329 222.448 -26.317C214.968 -26.3011 207.503 -26.047 200.022 -25.9834C177.295 -25.7929 154.567 -26.2217 131.855 -26.5711C120.817 -26.7299 109.668 -27.0476 98.6294 -26.7934C88.1471 -26.5552 77.7759 -25.8882 67.4365 -25.1258C57.3036 -24.3793 47.1706 -23.5693 36.9106 -23.1405C31.8124 -22.934 26.6665 -22.7593 21.5365 -22.807C16.4859 -22.8546 11.4989 -23.2358 6.59121 -23.6964C1.63592 -24.1729 -3.28761 -24.7287 -8.29055 -25.1258C-13.3729 -25.5387 -18.4553 -25.7134 -23.617 -25.777C-30.0176 -25.8723 -36.1958 -26.0787 -42.9141 -26.047V-25.094V-22.4099C-37.9111 -22.4576 -34.0517 -22.4576 -29.1123 -22.8387C-22.0606 -23.3946 -14.3576 -22.6799 -7.35349 -22.2193C1.3818 -21.6317 13.2936 -20.3929 22.1877 -20.5993C33.2895 -20.8852 40.1506 -21.5364 44.0259 -22.0605C55.8583 -22.6799 67.5795 -23.6805 79.3642 -24.4746C78.5224 -24.3952 77.6806 -24.2999 76.8548 -24.2046C83.843 -24.5064 96.7553 -24.7287 103.204 -24.4746C117.307 -23.9029 126.741 -24.0776 141.004 -23.8552C159.252 -23.5693 176.453 -22.0923 194.559 -21.1234C217.906 -19.8687 223.782 -22.6958 274.939 -22.394V-26.047C264.409 -26.2693 253.864 -25.4593 243.349 -25.8564ZM198.752 46.1542C176.342 46.9007 153.995 47.933 131.569 48.6001C109.128 49.2671 86.7018 49.3942 64.2124 49.4101C53.2059 49.4101 42.1836 49.4577 31.1771 49.7119C21.4412 49.9342 11.753 50.4742 2.00121 50.506C-7.22643 50.5377 -14.6594 50.9824 -23.7441 50.2677C-29.6047 49.8071 -37.3235 49.3783 -42.9141 48.4571V52.7454C-30.7641 53.9048 -24.5382 53.6824 -17.1688 53.2536C-4.35173 52.5071 9.40239 53.5871 22.2353 53.2536C33.7977 52.9519 45.6459 52.7613 57.1924 52.7136C63.4659 52.6977 69.5806 52.3166 75.6318 51.9513C78.1253 51.7924 89.1636 51.2048 98.0259 50.6807C105.538 50.6171 113.051 50.5219 120.563 50.3471C142.846 49.8071 165.034 48.7113 187.253 47.8377L190.064 47.7266C202.611 48.6319 217.429 48.3142 230.135 48.6636C244.604 49.0607 255.198 51.173 274.971 52.7454V48.4571C265.617 46.9166 255.341 46.2495 245.494 45.916C229.945 45.3919 214.269 45.6301 198.752 46.1542ZM233.788 36.7677C223.306 36.4501 212.967 37.276 202.516 37.4189C191.605 37.5777 180.646 37.1171 169.751 37.4983C164.176 37.6889 158.776 38.2607 153.217 38.5148C147.69 38.7689 142.099 38.8483 136.541 38.7213C125.439 38.483 114.48 37.6571 103.617 36.7042C91.7841 35.656 80.0312 34.5442 68.0718 33.7819C45.0742 32.3048 21.5206 31.1771 -1.76291 31.5583C-10.0058 31.6854 -35.8782 30.5736 -42.93 30.6371V31.1136V33.7183C-34.1788 33.7183 -26.4282 33.3689 -11.0223 33.1624C-1.34996 33.0354 12.8647 32.813 25.3483 32.543C41.9295 33.0195 58.4153 34.0677 74.7424 35.3224C89.1477 36.4342 103.299 38.0224 117.72 39.1024C128.536 39.9124 139.558 40.4683 150.565 40.1983C156.171 40.0713 161.555 39.5948 167.082 39.2613C172.514 38.9277 177.994 38.8166 183.489 38.8324C194.368 38.8483 205.121 39.023 215.968 38.5942C226.467 38.1813 237.346 37.673 247.495 39.1977C255.642 40.4207 263.631 41.7866 272.112 42.5648C273.034 42.6442 273.971 42.7236 274.908 42.803V41.5642C270.016 41.2783 265.172 40.6907 260.566 40.0395C251.735 38.7848 243.222 37.0695 233.788 36.7677ZM120.357 66.8171C98.28 67.516 68.4371 70.3113 45.1377 71.4707C15.9459 72.8207 -15.3106 73.8054 -42.93 72.3442V76.156C-24.1729 76.3307 -1.82643 75.203 10.1171 74.536C26.9524 74.0118 39.7853 72.8842 47.3295 72.4713C47.5677 72.4395 47.8218 72.4236 48.06 72.4077C61.5759 71.9154 85.59 70.0571 93.0547 69.5013C92.9436 69.5171 104.474 68.7548 107.301 68.6119C112.622 68.3577 117.942 68.1195 123.279 67.913C125.137 67.8495 163.715 66.9124 180.154 67.9766C183.314 68.0401 191.637 68.8024 196.735 69.3424C198.927 69.5489 201.245 69.7871 203.659 70.0413C212.204 71.6613 220.479 73.583 230.262 73.853C244.731 74.2501 253.625 76.3465 274.924 76.156V72.3124C265.267 71.3277 240.919 71.9789 224.005 70.3907C191.192 67.373 157.219 65.6577 120.357 66.8171ZM256.357 161.762C245.414 161.825 233.82 163.509 222.909 163.175C202.055 162.556 180.916 162.381 160.459 164.446C142.211 166.304 124.804 169.465 106.11 170.561C101.155 170.847 96.1359 170.974 91.133 170.942C85.7806 170.91 80.3806 170.529 75.1077 170.164C64.4347 169.433 53.873 168.575 42.9936 168.671C35.0524 168.734 27.1589 169.179 19.2495 169.449C11.3083 169.703 3.55768 169.481 -4.33585 169.115C-16.8829 168.544 -30.097 167.416 -42.9141 167.479V170.577C-42.9141 170.577 -36.577 170.577 -32.2094 170.704C-19.2176 171.117 -4.68526 172.212 9.65651 171.688C24.0142 171.164 51.0777 171.259 73.9959 173.213C90.593 174.642 112.844 173.372 129.791 171.911C143.878 170.704 157.315 168.242 171.688 167.479C188.333 166.59 202.452 165.923 219.367 165.939C226.752 165.939 237.346 164.684 244.747 163.398C253.133 162.794 262.456 162.365 274.939 162.985V162.238C271.668 162 263.457 161.714 256.357 161.762ZM274.939 110.795C268.221 110.764 262.059 110.986 255.642 111.065C250.481 111.129 245.398 111.304 240.316 111.717C235.313 112.114 230.405 112.669 225.434 113.146C220.527 113.622 215.524 114.004 210.489 114.035C205.359 114.083 200.213 113.908 195.115 113.702C184.855 113.273 174.706 112.463 164.557 111.732C154.218 110.986 143.847 110.303 133.364 110.065C122.326 109.811 111.177 110.112 100.138 110.287C77.4265 110.637 54.7147 111.065 31.9712 110.875C24.4906 110.811 17.0259 110.557 9.54533 110.541C2.5571 110.525 -4.39938 110.732 -11.34 111.002C-21.8541 111.399 -32.4 110.573 -42.93 110.827V114.48C8.22709 114.178 14.1036 117.005 37.4506 115.751C55.5565 114.766 72.7412 113.305 91.0059 113.019C105.268 112.797 114.702 112.971 128.806 112.399C135.27 112.145 148.167 112.368 155.155 112.669C154.329 112.574 153.487 112.479 152.645 112.384C164.43 113.162 176.151 114.178 187.984 114.798C191.859 115.322 198.72 115.973 209.822 116.227C218.732 116.434 230.628 115.195 239.363 114.607C246.367 114.147 254.086 113.432 261.122 113.988C266.045 114.385 269.921 114.369 274.924 114.417V111.732V110.795H274.939ZM229.532 106.38C219.081 106.841 208.662 107.444 198.228 108C187.698 108.556 177.295 109.175 166.654 108.985C156.267 108.81 146.086 107.952 135.747 107.555C125.089 107.142 114.305 106.999 103.617 106.888C80.9841 106.65 58.4312 105.681 35.7989 105.507C28.2071 105.443 20.6471 105.475 13.0871 105.792C6.09886 106.078 -0.873493 106.491 -7.86173 106.793C-15.0723 107.095 -20.3453 107.111 -27.5876 106.952C-31.987 106.857 -34.8141 106.126 -42.93 105.777V109.43C-34.6553 109.477 -29.8906 109.938 -18.2329 109.715C-14.4053 109.636 5.55886 108.016 12.1024 107.778C17.6453 107.587 23.22 107.587 28.7789 107.476C30.1606 107.444 31.5265 107.412 32.8924 107.365C33.4959 107.349 34.0994 107.317 34.6871 107.301C34.9412 107.285 35.37 107.27 35.7036 107.254C36.7359 107.174 37.7683 107.095 38.753 106.936C39.0547 106.888 39.3406 106.841 39.6424 106.793C39.6583 106.793 39.6742 106.793 39.69 106.777C40.0236 106.714 40.3412 106.634 40.6747 106.571C45.3283 106.634 49.9818 106.745 54.6353 106.857C65.8642 107.127 77.0612 107.524 88.29 107.809C99.2012 108.079 110.128 108.159 121.039 108.381C126.36 108.492 131.665 108.651 136.954 108.889C142.068 109.128 147.118 109.509 152.217 109.763C156.171 109.954 160.142 110.112 164.128 110.176C176.008 110.907 192.574 111.574 209.806 111.192C218.716 111.002 230.612 110.16 239.347 109.572C246.351 109.112 254.07 108.397 261.106 108.953C266.029 109.35 269.905 109.334 274.908 109.398V105.761C270.286 105.602 265.617 105.602 260.979 105.602C250.497 105.602 239.998 105.919 229.532 106.38ZM228.357 125.661C209.504 125.963 191.335 123.867 173.467 121.564C168.829 120.96 164.239 120.341 159.507 119.88C154.821 119.419 150.057 119.134 145.276 118.927C135.381 118.482 125.391 118.467 115.449 118.562C105.808 118.657 96.1836 118.895 86.543 118.991C75.1553 119.118 63.7677 119.181 52.38 119.324C43.4065 119.435 34.4489 119.578 25.4912 119.817C16.3589 120.055 7.29004 120.499 -1.81055 120.881C-15.4694 121.468 -29.2711 120.769 -42.9458 121.087V123.962C-42.9458 123.962 -33.9247 124.772 -29.4458 124.581C-19.44 124.168 -8.89408 124.041 1.15945 123.994C15.533 123.93 20.4089 123.009 34.6236 122.628C48.6 122.247 62.8942 122.437 69.3583 122.262C82.1912 121.929 98.8518 120.404 105.888 119.975C108.238 119.944 110.589 119.928 112.939 119.912C148.834 120.229 180.821 129.394 215.73 130.029C219.129 130.092 233.947 129.664 244.001 127.837C258.057 125.296 265.966 123.454 274.908 123.978V121.945V121.103C262.869 121.23 259.645 122.548 253.991 123.215C244.366 124.295 238.41 125.487 228.357 125.661ZM186.872 208.313C163.572 207.154 133.729 204.358 111.653 203.66C74.7742 202.5 40.8177 204.215 7.97298 207.233C-8.94173 208.821 -33.2894 208.154 -42.9458 209.155V212.998C-21.6635 213.189 -12.7535 211.092 1.71533 210.695C11.4989 210.425 19.7736 208.519 28.3183 206.884C30.7324 206.629 33.0512 206.391 35.243 206.185C40.3571 205.645 48.6636 204.867 51.8242 204.803C68.2624 203.739 106.825 204.676 108.699 204.74C114.035 204.946 119.356 205.184 124.677 205.438C127.504 205.565 139.034 206.344 138.923 206.328C146.404 206.884 170.402 208.742 183.918 209.234C184.156 209.25 184.41 209.282 184.648 209.298C192.192 209.711 205.041 210.838 221.861 211.362C233.804 212.03 256.167 213.157 274.908 212.982V209.171C247.336 210.648 216.064 209.663 186.872 208.313ZM230.024 187.348C220.257 187.317 210.584 186.777 200.848 186.554C189.858 186.3 178.835 186.268 167.813 186.252C145.324 186.237 122.898 186.109 100.456 185.442C78.03 184.775 55.6836 183.743 33.2736 182.997C17.7565 182.472 2.08062 182.234 -13.4364 182.758C-23.2676 183.092 -33.5594 183.759 -42.9141 185.299V189.588C-23.1406 188.031 -12.547 185.919 1.9218 185.506C14.6277 185.157 29.4459 185.474 41.993 184.569C42.93 184.601 43.8671 184.648 44.8042 184.68C67.0236 185.554 89.2112 186.65 111.494 187.189C119.007 187.364 126.519 187.475 134.031 187.539C142.894 188.047 153.948 188.651 156.425 188.794C162.477 189.159 168.591 189.54 174.865 189.556C186.411 189.588 198.259 189.778 209.822 190.08C222.655 190.429 236.409 189.334 249.226 190.08C256.595 190.509 262.821 190.731 274.971 189.572V185.284C269.397 186.205 261.662 186.634 255.801 187.094C246.685 187.825 239.252 187.38 230.024 187.348ZM113.702 80.603C108.778 80.5554 99.8365 82.4136 97.9624 82.5724C93.0547 82.9854 79.9359 85.193 82.3183 85.876C85.7171 85.9554 96.1359 85.1454 102.727 85.2407C109.858 85.336 118.355 85.4789 125.328 85.2883C146.054 84.7165 160.92 83.3348 159.395 81.7624C157.871 80.1742 151.772 81.1748 150.358 80.0313C148.945 78.8877 123.851 81.3018 117.053 81.8577C119.165 81.7624 121.23 81.6989 122.993 81.6354C122.612 81.6671 122.247 81.6989 121.849 81.7466C126.122 81.8895 131.284 81.4765 131.284 82.6201C131.284 83.446 121.627 84.3989 116.449 84.8595C109.858 84.9389 102.743 84.7642 104.172 83.4777C104.347 83.2554 105.586 81.3177 113.702 80.603ZM248.416 91.8318C241.634 91.3236 234.312 90.4024 227.022 89.6718C196.211 84.0813 163.715 90.1324 154.948 90.2754C131.967 90.6565 113.448 92.2766 99.3759 93.3724C91.8 93.9601 86.8765 94.1983 84.1447 94.2777C79.6977 94.1983 75.3459 94.5477 71.1689 95.0083C68.4053 95.3101 65.1812 95.5324 62.2112 95.5166C59.6065 95.5007 57.7642 95.3736 55.2547 95.1195C48.2983 94.3889 41.9771 94.4048 35.2589 94.3413C32.1618 94.1666 26.9206 93.8489 18.5189 93.3248C9.13239 92.7371 1.06416 91.8318 -7.05173 91.7524C-26.2535 91.5618 -21.3458 92.8642 -39.0229 92.6577C-40.357 92.5465 -41.6594 92.4671 -42.9141 92.4195V94.4207C-40.8335 94.5795 -38.4829 94.5795 -37.1011 94.6113C-33.6547 94.7066 -30.1923 94.6589 -27.937 94.7224C-23.9982 94.8336 -18.1058 94.246 -14.1829 94.0871C-2.62055 93.6107 2.65239 94.1824 14.0242 94.8018C19.7577 95.1195 25.7453 94.786 31.59 94.9448C43.3906 95.2783 55.8901 97.2477 67.7542 95.993C73.3289 95.4054 76.8071 94.8654 82.5724 94.8971C85.6536 94.913 91.6095 94.7224 98.3118 94.4366C112.797 94.0395 127.837 94.2301 127.837 94.2301C143.481 94.2301 161.158 94.5477 175.881 92.483C183.282 91.4507 190.334 90.1007 198.085 89.4971C202.5 89.1477 216.731 89.783 221.162 89.7989C226.546 89.8148 233.264 91.3554 238.267 92.1018C246.764 93.3566 254.88 93.5789 263.758 93.9601C267.491 94.1189 271.223 94.2777 274.955 94.4207V92.4195C265.902 91.9589 257.723 92.5307 248.416 91.8318ZM247.495 95.3101C242.428 94.643 234.805 94.3095 220.447 93.2295C199.578 91.6571 180.201 95.3577 159.983 96.3266C138.462 97.3748 116.751 98.0577 94.8971 98.0577C83.3665 98.0577 71.6771 97.2795 60.3212 97.5495C49.0924 97.8195 40.0712 96.9936 28.6836 96.7395C19.3765 96.5489 6.98827 95.7071 -2.08055 95.2942C-13.9288 94.7383 -36.6088 95.7707 -42.9458 96.0089V97.2795C-37.8158 97.0095 -6.89291 95.9136 2.84298 96.4854C10.8159 96.9619 19.9959 97.343 28.3659 97.5654C45.5189 98.0101 59.5589 99.0742 76.4418 98.6295C85.1136 98.4071 93.9759 98.6295 102.664 98.6295C125.645 98.6295 146.594 98.5024 169.211 96.3107C186.713 94.6271 205.168 93.0548 223.02 94.4366C231.676 95.1036 239.681 96.7395 248.273 97.5177C254.817 98.1054 267.888 97.5654 274.908 97.2636V96.0089C260.645 96.2313 255.372 96.3424 247.495 95.3101ZM237.124 96.6442C231.327 95.7071 226.594 95.2942 220.606 94.8813C207.868 93.9918 204.088 94.516 192.669 95.0242C169.735 96.0089 162.365 98.9471 109.239 100.964C94.1506 101.155 79.0147 101.044 64.0377 100.869C39.69 100.583 15.3106 99.1377 -9.00526 99.106C-13.1506 99.106 -35.6876 99.503 -42.93 99.5983V100.329C-30.8435 100.249 -21.1076 100.091 -12.5311 99.8207C3.43323e-05 99.4236 12.7059 100.71 25.3642 100.758C28.7153 100.774 32.0824 100.885 35.4494 101.028L40.5159 101.25C42.2153 101.329 43.9306 101.377 45.63 101.409C49.0447 101.488 52.4436 101.504 55.8424 101.504C62.64 101.504 69.39 101.472 76.14 101.679C93.0389 102.124 110.16 101.504 127.075 101.266C130.489 101.218 133.904 101.123 137.303 100.98C163.159 99.8048 188.238 97.6924 214.412 98.7724C231.739 99.4872 248.527 100.901 265.982 100.472C268.984 100.392 271.969 100.345 274.971 100.313V99.5824C271.842 99.5665 268.698 99.5983 265.569 99.6142C256.405 98.9313 242.349 97.486 237.124 96.6442ZM198.275 75.3142C196.115 75.0124 193.749 74.7266 191.271 74.4407C190.842 74.3771 190.414 74.3136 189.969 74.2501C176.914 72.233 163.414 72.0424 149.612 72.0583C137.271 71.9154 125.169 71.963 114.909 72.5507C97.3906 73.5671 85.1136 75.9018 72.9 76.5371C67.5636 76.8071 62.3224 77.5218 57.0971 78.2683C47.3612 78.6018 34.7824 79.0624 28.5565 79.3801C0.905327 80.7936 -4.84408 80.476 -16.1523 80.206C-23.1882 80.0313 -32.94 80.3171 -42.93 80.2695V85.876C-24.7447 86.4001 -3.9229 84.4942 0.921215 84.1289C12.0706 83.2871 27.9212 82.2707 39.0389 81.3336C59.7018 79.6024 66.3565 79.396 79.9042 77.2836C87.0036 76.1719 114.401 73.1542 122.31 73.0113C124.518 72.9636 131.458 72.8207 139.336 72.6777C150.93 72.9954 163.318 73.6624 174.261 74.9648C184.045 76.1242 193.527 77.3154 201.706 79.3007C210.838 81.5242 221.877 83.6366 233.407 84.1607C238.759 84.7166 245.065 85.0977 252.45 85.1454C257.929 85.193 267.665 85.6377 274.939 85.876V80.2854C274.939 80.2854 236.345 80.2854 222.845 78.2683C212.442 76.6801 209.091 76.823 198.275 75.3142ZM213.284 73.853C207.122 72.4395 199.721 71.8042 192.732 71.026C179.661 69.5489 166.257 69.0407 152.455 69.0407C140.114 68.9295 127.932 69.3424 117.672 69.7871C100.154 70.5336 87.8771 72.233 75.6636 72.6936C64.6253 73.1065 53.8889 74.8695 43.1842 75.473C32.3047 76.0924 21.3459 76.3148 10.2442 76.9183C3.62121 77.2836 -6.87702 77.5536 -13.8653 77.4424C-17.7564 77.3789 -30.2717 78.3636 -42.9141 78.4271V79.4277C-29.3982 79.8883 -12.5311 79.0466 3.68474 78.2207C14.85 77.6489 30.7006 76.8548 41.8024 76.1718C62.4653 74.9013 69.12 74.7583 82.6677 73.2018C89.7671 72.3918 117.164 70.1842 125.089 70.073C128.091 70.0413 139.86 69.8507 150.819 69.7236C158.538 69.7871 167.067 69.5807 184.839 70.8671C193.114 71.4707 202.341 72.9636 209.869 74.1866C213.157 74.7107 225.259 78.7766 255.229 78.9513C260.042 78.983 268.142 79.2371 274.955 79.4118V78.4113C260.121 78.4589 245.446 77.8713 230.945 77.0295C227.372 76.8548 222.242 75.9018 213.284 73.853ZM47.9012 72.4395C47.7265 72.4554 47.5359 72.4554 47.3453 72.4713C46.043 72.5824 45.0265 72.6936 47.9012 72.4395ZM178.391 -0.412857C172.292 -1.47697 165.161 -1.61992 158.601 -1.58815C153.567 -1.55639 147.039 -1.71521 142.052 -1.42933C136.429 -1.0958 130.887 -1.0005 125.439 -0.238152C121.659 0.301849 112.479 1.6042 110.605 3.19244C108.381 5.06656 114.258 5.51126 117.323 6.95655C120.071 8.25891 125.105 10.8477 128.663 11.753C132.062 12.6266 135.715 13.1983 139.574 13.5795C147.309 14.3418 155.314 14.0401 163.096 13.5636C167.114 13.3254 171.101 13.0077 175.103 12.706C176.31 12.6107 177.549 12.7219 178.724 12.6266C179.836 12.5313 180.964 12.4518 182.091 12.3883C184.728 12.2454 187.364 12.166 190.017 12.1501C195.432 12.1183 200.88 12.2454 206.264 12.4201C210.918 12.563 216.699 12.0707 221.321 11.5783C224.418 11.2448 233.296 10.2283 235.091 9.03714C236.774 7.92538 229.961 7.08361 228.039 6.06714C224.656 4.27244 220.066 4.09773 215.031 3.3195C210.759 2.66832 206.232 2.16008 201.69 1.96949C197.243 1.77891 192.717 1.39773 188.381 0.953026C185.157 0.667145 179.026 -0.301682 178.391 -0.412857ZM205.137 3.95479C209.107 4.46302 218.414 4.86008 220.828 6.54361C224.37 9.02126 210.124 10.4824 207.185 10.6413C201.055 10.943 196.639 10.8795 192.177 10.8477C186.84 10.8001 185.093 11.213 179.836 11.626C176.104 11.9118 168.687 12.436 166.812 12.5948C162.842 12.9283 156.727 13.3571 152.693 13.4683C144.863 13.6589 136.89 12.5471 130.251 10.6254C125.915 9.37067 120.96 5.70185 119.054 4.25655C116.545 2.33479 133.857 0.270084 139.018 0.0477314C145.546 -0.222267 151.248 -0.666975 157.791 -0.778151C159.729 -0.809916 162.572 -0.762268 164.509 -0.746386C168.734 -0.714621 171.879 -0.809917 175.881 -0.158741C176.088 -0.126976 177.882 0.349495 178.152 0.349495C183.108 1.76302 189.937 2.1442 195.861 2.66832C199.371 2.9542 201.69 3.51008 205.137 3.95479ZM152.042 1.8742C148.055 1.73126 144.101 1.17538 140.082 1.3342C136.525 1.47714 132.554 2.1442 131.236 3.66891C130.092 5.00303 131.252 6.62303 133.634 7.60773C136.318 8.70362 139.558 9.57714 143.227 9.94244C146.896 10.3236 150.771 10.1966 154.456 9.92656C156.425 9.78362 158.379 9.62479 160.285 9.37067C162.127 9.11655 163.969 8.79891 165.859 8.6242C170.974 8.14773 175.675 8.56067 180.789 8.49714C183.441 8.46538 195.75 7.2742 194.257 6.44832C192.78 5.63832 184.68 5.30479 182.504 4.86008C177.327 2.74773 170.068 2.1442 163.08 2.01714C159.379 1.95361 155.695 2.00126 152.042 1.8742ZM180.995 5.06656C181.218 5.16185 181.504 5.25714 181.805 5.32067C182.806 5.79714 185.601 6.11479 184.648 6.65479C182.838 7.70303 175.913 7.67126 173.292 7.68715C171.164 7.68715 169.449 8.00479 167.479 8.22714C165.526 8.4495 163.493 8.56067 161.508 8.70361C157.458 9.00538 153.392 9.45008 149.278 9.56126C145.101 9.67244 140.559 9.49773 137.224 8.32244C134.571 7.38538 134.158 5.52714 135.937 4.32008C138.177 2.79538 142.322 2.54126 146.213 2.38244C150.136 2.22361 153.932 2.44597 157.855 2.54126C161.952 2.65244 166.05 2.73185 170.1 3.01773C174.087 3.30361 178.073 3.81185 180.995 5.06656ZM147.341 4.97126C145.387 6.16244 150.342 6.60714 152.391 6.87714C155.107 7.24244 159.761 6.78185 162.492 6.75008C166.114 6.71832 170.354 6.35302 170.878 5.41597C171.132 4.9395 166.495 4.78067 164.001 4.78067C163.985 4.78067 166.574 5.13008 166.193 5.6542C165.732 6.27361 160.904 6.65479 158.442 6.54361C155.933 6.43244 150.978 6.0195 150.787 5.46362C150.692 5.19361 152.518 4.70126 154.234 4.5742C159.189 4.22479 163.144 4.65361 163.144 4.65361C163.144 4.65361 160.523 4.08185 158.76 4.01832C156.965 3.93891 153.741 4.11361 152.01 4.3042C150.755 4.46302 148.119 4.51067 147.341 4.97126ZM245.748 -2.82698C234.757 -2.38227 223.798 -2.39815 212.824 -2.92227C201.96 -3.4305 191.208 -4.28815 180.503 -5.19345C175.103 -5.65404 169.767 -6.19403 164.319 -6.54345C161.778 -6.70227 159.062 -6.90874 156.346 -7.01992C149.929 -7.27403 147.992 -6.71815 144.768 -6.68639C141.242 -6.65462 137.732 -6.43227 134.238 -6.2258C127.281 -5.84462 120.372 -5.32051 113.543 -4.66933C108.381 -4.17698 103.235 -3.50991 97.9783 -3.27168C94.103 -3.09697 90.2753 -2.8905 86.4318 -2.60462C81.2383 -2.22344 74.9012 -1.31815 74.123 1.22303C73.17 4.32008 80.5236 5.7495 86.13 6.78185C90.1483 7.52832 93.6741 8.46538 96.9936 9.68832C100.678 11.0542 104.236 12.4519 108 13.786C111.542 15.0407 114.988 16.343 119.086 17.2642C119.832 17.4389 120.579 17.5818 121.341 17.7248C121.421 17.7407 121.516 17.7566 121.595 17.7724C122.787 17.9948 123.994 18.2013 125.264 18.3601C125.995 18.4554 126.741 18.5507 127.488 18.646C131.967 19.853 138.161 19.6942 143.227 19.4877C150.152 19.2177 156.934 18.5983 163.779 18.106C168.909 17.7407 174.182 17.6454 179.359 17.5183C184.998 17.3754 190.636 17.3118 196.29 17.2801C201.785 17.2483 207.281 17.2166 212.776 17.2642C218.081 17.3277 223.385 17.4707 228.69 17.5342C233.963 17.5977 239.268 17.6136 244.541 17.4548C247.606 17.3595 250.719 17.2642 253.705 16.9466C258.501 16.4383 263.107 15.6283 267.792 14.993C270.254 14.6595 272.605 14.1989 274.939 13.7224V12.6424C273.542 12.9442 272.128 13.2301 270.699 13.516C265.759 14.4848 261.027 15.533 255.817 16.216C249.194 17.0895 242.206 17.1689 235.313 17.1213C224.608 17.0577 213.919 16.6766 203.199 16.6924C192.002 16.7083 180.821 16.8989 169.655 17.3436C162.254 17.6454 155.044 18.3442 147.69 18.773C143.989 18.9795 140.241 19.1542 136.493 19.1224C134.269 19.1066 131.824 19.043 129.648 18.7254C129.044 18.5824 128.425 18.4713 127.789 18.3601C127.694 18.3283 127.583 18.3124 127.488 18.2807C127.265 18.2171 127.043 18.2013 126.868 18.2171C126.376 18.1377 125.884 18.0742 125.375 17.9948C122.723 17.6136 120.214 17.1371 117.847 16.5019C113.162 15.2471 109.271 13.5954 105.078 12.0866C100.98 10.6095 97.4542 8.87832 92.9912 7.57597C92.3559 7.38538 91.6889 7.21067 91.0377 7.05185C81.953 3.3195 83.2236 2.03302 89.5289 0.413025C94.643 -0.90521 103.077 -2.0805 108.588 -2.63639C123.533 -4.14521 136.048 -5.79697 151.661 -4.98697C146.721 -4.90756 141.782 -4.68521 136.89 -4.38345C131.617 -4.04992 126.281 -3.74815 121.087 -3.19227C116.894 -2.74756 112.701 -2.28697 108.715 -1.57227C105.491 -0.984621 102.187 -0.285797 99.8524 0.84185C97.9147 1.77891 93.7853 2.27126 94.6906 3.4942C96.0089 5.28891 102.759 7.22655 106.126 8.3542C110.367 9.78362 114.845 11.1177 119.229 12.4677C123.152 13.6748 126.964 15.0724 131.395 15.946C139.527 17.5342 148.722 17.423 157.426 17.0101C167.924 16.5177 178.359 16.073 188.905 15.8348C198.18 15.6283 207.455 15.3266 216.731 15.1836C221.972 15.1042 227.197 15.0883 232.438 14.9771C235.472 14.9136 238.521 14.8342 241.555 14.6913C244.62 14.5483 247.368 14.183 250.401 13.9448C254.213 13.6271 258.263 13.4366 263.314 12.7536C266.268 12.3566 270.572 11.6101 272.748 10.673C273.367 10.403 274.177 10.006 274.908 9.57714V6.54361C273.177 6.14656 270.762 5.68597 270.429 5.46362C268.364 4.05009 263.806 3.36715 259.788 2.84303C253.069 1.95361 245.891 2.09655 238.934 2.08067C234.916 2.06479 231.009 1.93773 227.102 1.50891C222.178 0.96891 217.366 0.254202 212.363 -0.158741C207.106 -0.587564 201.833 -1.01639 196.608 -1.52462C195.909 -1.58815 195.21 -1.66756 194.511 -1.73109C201.452 -1.38168 208.488 -1.34992 215.508 -0.96874C220.685 -0.69874 225.752 0.190674 230.739 0.460674C236.139 0.76244 241.523 0.206554 246.621 -0.0316811C252.244 -0.301682 268.126 -0.603445 274.908 0.413025V-3.04933C270.794 -3.30345 266.633 -3.39874 262.583 -3.4305C256.897 -3.41462 251.434 -3.06521 245.748 -2.82698ZM225.625 14.7071C221.972 14.7548 218.446 14.7707 214.984 14.8024C219.447 14.723 223.894 14.6754 228.357 14.6119C227.435 14.6595 226.53 14.7071 225.625 14.7071ZM209.298 0.365377C212.569 0.635378 215.762 0.984791 218.954 1.3342C231.612 5.09832 237.568 4.51067 240.761 5.1142C244.763 5.86067 258.184 6.94067 259.041 8.40185C259.47 9.14832 251.418 11.0066 241.872 12.1024C223.465 14.2148 198.752 12.9124 186.856 13.1983C162.016 13.7701 153.789 17.3754 129.267 15.0724C125.661 14.1989 122.31 13.0713 119.038 12.0389C114.766 10.6889 112.669 9.18008 108.81 7.62361C106.221 6.57538 100.932 5.30479 101.711 3.62126C102.33 2.27126 105.109 1.3342 107.682 0.635378C110.938 -0.254034 115.512 -1.28639 119.134 -1.84227C123.867 -2.57286 127.789 -2.84286 132.745 -3.27168C137.954 -3.73227 143.291 -3.98639 148.595 -4.14521C159.094 -4.47874 169.099 -3.92286 179.232 -2.77933C184.124 -2.22345 188.984 -1.58815 193.892 -1.06403C199.022 -0.539917 204.152 -0.0793285 209.298 0.365377ZM250.576 -5.57462C237.664 -5.35227 224.735 -5.6858 211.902 -6.30521C190.763 -7.33756 169.862 -9.06874 148.691 -9.98992C138.304 -10.4346 127.774 -10.7999 117.339 -10.4505C107.206 -10.117 96.7553 -9.37051 87.1147 -7.97286C80.8571 -7.06756 74.7265 -5.93991 68.6594 -4.84403C63.053 -3.81168 49.41 -0.841679 44.5024 0.71479C41.2306 1.74714 31.2565 1.46126 35.6083 2.63655C38.1495 3.3195 40.2777 4.11361 45.7889 5.24126C55.6359 7.25832 77.8871 12.3566 92.1653 14.5642C97.3271 15.3583 101.965 16.6924 106.777 17.8201C111.049 18.8207 115.179 20.0277 119.658 20.8695C135.286 23.8077 153.821 23.4583 170.354 22.3624C174.563 22.0766 178.692 21.6795 182.885 21.3619C188.111 20.9648 193.399 20.7583 198.704 20.7424C208.932 20.7266 219.034 21.3301 229.182 21.7271C234.169 21.9177 239.268 22.1401 244.287 22.0924C248.845 22.0448 253.339 21.616 257.612 20.9648C263.742 20.0436 269.397 18.6777 274.955 17.2324V16.7083C269.285 17.9948 263.488 19.1542 257.389 20.0913C253.006 20.7583 248.416 21.2666 243.715 21.346C238.887 21.4254 233.979 21.2189 229.167 21.0283C219.177 20.6154 209.187 19.9483 199.133 19.8689C193.876 19.8213 188.603 19.9166 183.394 20.2501C178.962 20.536 174.611 20.9807 170.179 21.2666C161.46 21.8542 152.598 22.2195 143.767 22.0924C135.318 21.9813 126.455 21.4889 118.784 19.9166C114.178 18.9636 109.858 17.7248 105.364 16.6766C100.615 15.5807 95.8183 14.5007 90.99 13.4683C87.3847 12.706 83.7477 11.9436 80.1265 11.1813C76.8706 10.3871 67.8495 7.98891 65.1653 5.57479C62.513 3.17656 58.6536 3.57361 59.7653 1.6042C60.9089 -0.42874 72.2489 -1.82639 75.8859 -2.92227C79.1895 -3.92286 91.9589 -5.44756 110.748 -7.14697C118.975 -7.89345 123.12 -9.40227 137.335 -9.7358C146.245 -9.54521 155.155 -9.06874 163.89 -8.5605C184.982 -7.32168 205.947 -5.63815 227.197 -4.95521C237.807 -4.62168 248.479 -4.52639 259.105 -4.8758C264.394 -5.0505 269.651 -5.38404 274.971 -5.46345V-6.43227C273.319 -6.40051 271.652 -6.36874 270.016 -6.32109C263.488 -6.09874 257.088 -5.6858 250.576 -5.57462ZM234.916 26.9207C254.07 27.5401 258.914 24.6654 274.939 22.8548V22.3148C264.155 23.6966 258.501 24.7924 252.402 25.7136C248.702 26.2854 241.666 26.8095 234.916 26.9207ZM-3.7482 8.00479C7.22651 4.87597 -10.4506 -0.301682 -19.0747 -2.66815C-26.1741 -4.6058 -30.0494 -6.38462 -42.9141 -6.43227V-5.44756C-39.9441 -5.46345 -38.1335 -5.35227 -37.0217 -5.22521C-29.7476 -4.47874 -26.9047 -3.68462 -21.0282 -1.95345C-13.4682 0.270084 -5.39996 4.54244 -13.087 7.86185C-16.47 9.32303 -21.997 12.5948 -29.7635 14.1354C-34.83 15.1518 -39.8488 15.946 -42.9141 16.6924V17.2324C-31.8758 15.1201 -29.3347 15.5171 -21.9494 14.2466C-17.2641 13.4524 -10.1488 9.83126 -3.7482 8.00479ZM-21.6794 8.11597C-14.3735 4.82832 -16.2476 3.12891 -17.2482 2.62067C-19.3923 1.50891 -22.5211 0.476557 -25.9676 -0.476385C-31.0182 -1.85815 -37.4029 -2.79521 -42.93 -3.00168V-1.96933V0.444792C-34.9094 1.49303 -25.7929 2.52538 -24.2206 5.54303C-23.4582 7.0042 -29.0329 9.7995 -31.2247 11.0701C-31.8758 11.2607 -32.5906 11.4354 -33.3688 11.5783C-36.9741 12.293 -41.1353 12.1183 -42.9458 12.6266V13.6907C-37.7523 12.6901 -34.7982 12.3566 -29.3982 11.626C-25.9835 11.1813 -24.6017 9.4342 -21.6794 8.11597ZM-39.3406 7.33773C-40.1823 7.11538 -41.2623 6.92479 -42.93 6.62302V9.65656C-42.4694 9.48185 -41.8976 9.30714 -41.31 9.11655C-38.2288 8.19538 -38.8323 7.46479 -39.3406 7.33773ZM207.868 22.4101C194.861 22.0448 181.805 22.7595 168.051 24.7289C165.415 24.8718 162.778 25.0307 160.126 25.1419C155.123 25.3483 150.088 25.4754 145.054 25.4436C134.984 25.396 125.042 24.7766 115.465 23.4583C106.221 22.1877 97.7401 20.393 89.5606 18.1854C81.6353 16.0413 74.0595 13.6589 65.9436 11.6418C58.0818 9.68832 49.6959 7.94126 40.6589 7.19479C28.3659 6.17832 6.27356 9.41832 -4.22467 12.1977C-13.8494 14.7548 -34.6711 18.0424 -42.93 19.313V20.1389C-36.6406 19.3289 -25.65 18.2966 -18.6458 17.2483C-15.9617 16.8513 -13.1506 16.3271 -10.26 15.7554C-10.4029 15.803 -10.5617 15.8666 -10.7047 15.9142C4.38357 13.6589 14.5959 12.3089 26.1424 12.023C35.0524 11.8007 36.72 10.7524 45.6936 11.2607C56.0489 11.8483 67.9924 14.1989 83.9383 17.5183C94.3094 20.3136 104.855 22.9501 116.878 24.443C126.058 25.5866 135.604 26.1901 145.165 26.2695C150.152 26.3171 155.155 26.2218 160.126 26.0313C165.494 25.8248 170.783 25.4277 176.151 25.2054C186.729 24.7766 197.322 24.9354 207.884 25.3166C213.109 25.5071 218.319 25.7295 223.528 25.9201C228.341 26.0948 233.28 26.3966 238.124 26.2377C245.891 25.9995 253.054 24.6971 259.756 23.1089C264.6 21.9495 269.603 20.8377 274.939 20.123V19.313C270.524 19.8689 266.22 20.7266 261.948 21.616C240.967 25.2848 223.735 22.8548 207.868 22.4101ZM205.311 -12.2452C194.035 -12.277 182.695 -12.134 171.434 -12.4358C161.031 -12.7217 150.755 -13.4364 140.416 -13.897C135.381 -14.1193 130.299 -14.294 125.232 -14.3099C119.848 -14.3258 114.575 -14.1352 109.239 -13.8652C98.7247 -13.3411 88.3536 -12.4199 78.1412 -11.2605C67.8177 -10.0852 57.6371 -8.68756 47.5994 -7.13109C42.533 -6.35286 37.5142 -5.52698 32.2094 -5.06639C27.5877 -4.66933 22.8706 -4.43109 18.1536 -4.44697C-0.841728 -4.5105 -14.977 -11.1176 -42.9141 -10.7999V-10.1329C-42.9141 -10.1329 -36.8788 -10.1329 -32.1935 -9.76756C-14.4053 -8.3858 7.17886 -2.25521 30.0177 -3.62109C40.3571 -4.24051 49.9183 -5.97168 59.7495 -7.36933C70.0889 -8.83051 80.5712 -10.1487 91.2283 -11.1334C101.599 -12.1023 112.336 -12.9123 122.977 -13.0552C133.38 -13.1823 143.688 -12.6423 153.979 -12.0864C164.573 -11.5146 175.087 -11.1334 185.792 -11.0858C196.941 -11.0382 208.107 -11.1017 219.256 -11.054C230.437 -11.0064 241.539 -10.7046 252.672 -10.2917C259.947 -10.0058 268.205 -10.0058 274.955 -10.1487V-10.784C264.171 -10.7682 254.499 -11.0064 244.191 -11.4193C231.231 -11.9752 218.303 -12.2134 205.311 -12.2452ZM212.76 32.5907C204.835 32.3366 196.957 31.8918 189.016 31.8124C178.137 31.7171 167.575 32.5748 156.902 33.3054C151.629 33.6707 146.229 34.0518 140.877 34.0836C135.874 34.1154 130.855 33.9883 125.899 33.7024C107.206 32.6066 89.7989 29.4301 71.55 27.5877C51.1095 25.5071 29.9542 25.6977 9.10062 26.3171C-1.81055 26.6348 -13.4047 24.9671 -24.3476 24.9036C-31.447 24.856 -39.6582 25.1418 -42.93 25.3801V26.1266C-30.4464 25.5071 -21.1076 25.9518 -12.7376 26.5395C-5.33643 27.826 5.2571 29.0807 12.6424 29.0807C29.573 29.0648 43.6765 29.7318 60.3212 30.6213C74.6789 31.3995 88.1153 33.8454 102.219 35.0683C119.149 36.5136 141.401 37.7842 158.014 36.3548C180.948 34.3854 207.995 34.306 222.353 34.8301C236.711 35.3542 251.227 34.2424 264.219 33.8454C268.587 33.7024 274.924 33.7183 274.924 33.7183V30.6213C262.107 30.5577 248.877 31.7013 236.345 32.2571C228.452 32.6224 220.717 32.8607 212.76 32.5907ZM244.048 59.3366C236.568 59.2095 228.96 59.6224 221.495 59.7971C213.808 59.9877 206.089 60.1148 198.387 59.9242C176.866 59.3842 156.155 56.6842 134.841 55.493C113.527 54.3018 91.8953 55.1595 70.6765 56.3507C49.1718 57.5418 27.81 59.1936 6.2418 60.1783C-4.41526 60.6707 -11.9276 60.4801 -22.6323 60.496C-28.0482 60.496 -36.0847 60.353 -42.93 60.353V60.766C-26.2853 60.766 -12.277 61.4013 -4.66938 61.2424C10.8477 60.9248 19.4718 60.9566 34.83 60.0036C56.2712 58.6695 77.6806 57.0813 99.3283 56.446C110.065 56.1283 120.912 55.9536 131.633 56.4142C142.242 56.8589 152.709 57.7324 163.159 58.5742C173.61 59.4319 184.092 60.2895 194.718 60.6707C205.534 61.0518 216.318 60.7819 227.102 60.4007C232.391 60.2101 237.791 59.8289 243.095 59.8448C247.876 59.8607 252.641 60.0671 257.389 60.2736C263.075 60.5119 269.063 60.8613 274.908 60.7819V60.353C271.112 60.4007 267.3 60.2736 263.552 60.1148C257.088 59.8448 250.592 59.4477 244.048 59.3366ZM249.639 56.4142C236.012 56.2871 222.417 56.8113 208.789 56.8271C203.151 56.8271 197.513 56.7636 191.907 56.5254C186.395 56.2871 180.916 55.8901 175.437 55.5566C164.827 54.9213 154.234 54.2701 143.561 53.8095C132.967 53.3648 122.31 53.0789 111.653 53.1107C100.424 53.1424 89.1795 53.4283 77.9665 53.6507C56.033 54.0636 36.0212 55.6677 14.0718 55.8107C-4.30408 55.9219 -22.4894 58.8919 -42.9458 57.5736V58.8283C-20.6629 60.9566 5.94004 56.8589 29.3665 56.7001C51.5224 56.5413 71.5024 54.4607 93.6424 54.0636C104.839 53.873 116.243 54.0795 127.44 54.3018C138.081 54.5083 148.675 54.9848 159.237 55.5566C170.084 56.1601 180.884 56.986 191.748 57.5418C202.738 58.1136 213.824 58.066 224.878 57.923C235.98 57.7801 247.145 57.5577 258.247 57.8913C263.599 58.0501 268.968 58.3201 274.241 58.7489C274.463 58.7648 274.685 58.7807 274.924 58.8124V57.5736C273.129 57.4148 271.334 57.2719 269.524 57.1766C262.901 56.8271 256.357 56.4777 249.639 56.4142ZM234.9 40.3254C224.211 39.6583 213.475 40.0236 202.707 40.1666C191.382 40.3254 180.106 40.6589 168.814 41.0877C146.308 41.9136 123.628 42.9618 101.012 42.3583C83.1441 41.8819 62.64 37.9907 45.0106 36.736C39.7853 36.3548 12.0706 32.3366 -28.3023 35.2113C4.11356 34.2583 29.9224 36.4183 30.1447 36.7995C36.7042 37.2283 43.2318 37.7048 49.7436 38.1813C67.5477 39.4677 74.6789 43.7083 106.396 43.7083C128.822 43.7083 151.089 42.9777 173.372 42.1836C184.664 41.7707 195.941 41.4689 207.281 41.3101C212.824 41.2307 218.414 41.0401 223.941 41.0401C229.182 41.0401 234.392 41.2624 239.554 41.6595C249.035 42.3901 258.311 43.5495 267.824 44.2166C270.095 44.3754 272.494 44.4866 274.924 44.6295V43.756C271.223 43.5018 267.475 43.2954 263.79 42.9777C254.181 42.1042 244.636 40.9448 234.9 40.3254ZM237.314 -18.4393C229.643 -18.6458 221.988 -18.884 214.301 -18.9793C205.804 -19.0746 197.322 -19.0587 188.825 -19.1699C166.511 -19.4558 144.212 -19.8529 121.881 -20.0276C111.304 -20.107 100.805 -20.7582 90.2277 -20.917C79.7612 -21.0758 69.7553 -20.5676 59.6542 -19.4082C49.7595 -18.2805 40.0712 -16.7558 29.8271 -16.327C19.5036 -15.914 10.8477 -14.3258 0.682976 -15.1358C-9.62467 -15.9617 -11.6576 -15.7552 -21.8858 -16.7082C-25.9358 -17.0893 -35.6717 -18.3917 -42.93 -18.2646V-17.7246C-37.1488 -17.7405 -30.7006 -17.0417 -27.9211 -16.6446C-19.8529 -15.4852 -13.6906 -15.2152 -5.39996 -14.3417C10.7206 -12.6582 23.0294 -14.3258 39.5153 -15.6917C49.41 -16.5017 58.8441 -18.1217 68.6753 -19.0429C79.2053 -20.0276 89.7671 -20.0276 100.488 -19.694C105.729 -19.5193 110.97 -19.3129 116.211 -19.1699C121.516 -19.027 126.805 -19.0429 132.109 -19.027C143.243 -19.0111 154.361 -18.8682 165.478 -18.7093C176.485 -18.5505 187.475 -18.3917 198.498 -18.3282C208.615 -18.2646 218.7 -18.2805 228.817 -18.0423C238.648 -17.804 248.479 -17.5182 258.342 -17.4705C263.901 -17.4387 269.46 -17.4864 274.955 -17.7405V-18.2646C262.44 -17.8358 249.798 -18.1058 237.314 -18.4393ZM83.7 46.4718C107.127 46.4718 130.632 46.4401 154.011 45.8207C165.653 45.503 177.263 45.0583 188.873 44.6136C194.67 44.3913 217.636 44.2166 223.338 44.1689C233.709 44.0736 263.584 46.3289 263.584 46.3289C260.836 45.5507 253.975 45.3124 243.365 44.3754C236.822 43.8036 230.167 43.2636 223.465 43.2318C215.841 43.2001 208.138 42.8824 200.689 43.1207C177.327 43.8989 154.011 44.9313 130.569 45.1536C107.047 45.3601 83.5095 45.4395 59.9877 45.2966C36.3071 45.1536 12.6265 44.8042 -11.0064 44.153C-21.6635 43.8671 -32.2888 41.9295 -42.9141 41.5483V42.7713C-21.87 44.7566 -2.06467 45.5348 13.4524 45.8366C36.8471 46.2813 60.2736 46.4718 83.7 46.4718ZM3.44651 47.3613C7.36945 47.3613 15.9459 47.536 25.6977 46.9483C15.8506 47.0436 -18.757 45.9636 -23.5217 45.6301C-30.1923 44.963 -36.8311 44.153 -42.93 43.7083V44.5818C-37.9111 44.8042 -31.6217 46.0748 -23.2835 46.4083C-13.6429 46.8213 -5.84467 47.3613 3.44651 47.3613ZM0.55592 9.60891C6.81357 7.73479 9.24357 7.51244 13.5953 6.82949C18.5347 6.05126 26.2218 4.76479 26.3171 3.54185C26.4124 0.428907 15.0406 -1.52462 9.37062 -2.20756C4.90768 -2.74756 2.92239 -3.11286 -1.60408 -3.55756C-5.49526 -3.93874 -6.00349 -3.9705 -10.4506 -4.65345C-10.4506 -4.65345 -8.9735 -3.66874 0.619446 -2.23933C12.1024 -0.524033 19.7418 1.81067 18.9 3.62126C18.0583 5.3842 4.57416 6.54361 0.55592 9.60891ZM24.8242 89.6718C33.3371 89.6718 35.5447 92.1654 43.5971 92.1813C51.6177 92.1971 63.4342 92.1336 71.9471 92.1336C75.6795 92.1336 85.3042 90.6248 99.1853 89.8465C116.132 88.8936 133.491 89.1318 142.608 87.5754C140.019 87.766 137.001 87.8771 133.682 87.9566C132.491 87.9407 126.868 87.8771 120.992 87.7342C115.592 87.6071 110.128 87.353 106.237 87.5436C97.5653 87.9883 90.7677 87.3371 83.3506 87.5436C78.5859 87.6866 72.4236 88.4489 67.7859 88.163C62.3859 87.8136 56.2236 87.6389 63.18 86.1142C71.3436 84.3195 70.073 82.7154 81.1589 80.1107C88.3694 79.3801 96.803 78.9195 103.871 78.7289C115.163 78.4271 126.138 76.9977 137.764 76.6801C145.181 76.4736 152.582 76.1083 157.839 76.8866C162.619 77.5854 165.049 79.2848 166.876 79.5071C173.832 80.3648 176.31 81.1748 176.31 82.0165C176.31 83.0489 171.879 85.0183 154.504 87.0354C154.504 87.0354 165.526 87.0354 176.691 84.2083C183.108 82.5883 192.748 84.3036 192.018 83.1124C191.128 81.6671 184.791 79.9836 177.406 78.5224C167.988 76.6642 156.886 75.203 153.249 75.1077C140.209 74.7901 102.807 77.6013 89.7671 78.3318C76.0924 79.1101 62.6718 80.6189 50.0612 83.4142C37.0695 86.2889 34.3536 85.3677 28.7312 86.2889C23.6965 87.0989 10.0218 87.7024 10.4983 88.6554C9.89474 89.7671 18.2171 89.6718 24.8242 89.6718ZM-0.651142 70.0254C18.5347 69.676 39.7853 66.7695 43.3906 66.5154C47.0436 66.2771 64.673 65.2924 72.5189 65.0066C71.9471 65.0224 82.9218 64.5142 90.2118 64.2601C91.0377 64.2124 102.743 63.863 106.872 63.7836C111.081 63.7042 115.227 63.5771 119.451 63.593C121.881 63.5771 172.069 64.1807 194.019 65.483C208.996 66.293 224.338 67.8018 238.474 67.1348C249.575 66.5789 264.616 66.9283 273.859 67.5477C274.161 67.5795 274.495 67.6113 274.924 67.643V66.4042C256.182 64.4507 232.057 66.0071 221.241 65.5148C182.949 63.7836 136.525 61.4489 97.6447 62.6401C65.0065 63.6407 35.6559 66.3883 3.87533 67.913C-14.8341 68.8024 -27.2382 67.6272 -42.93 66.4042V67.6272C-42.0564 67.7701 -41.1353 67.8813 -40.23 67.9607C-38.0541 68.183 -20.5358 70.3907 -0.651142 70.0254ZM81.683 216.858C80.2694 218.001 74.1706 217.001 72.63 218.589C71.1053 220.177 85.9712 221.543 106.698 222.131C113.67 222.321 122.167 222.194 129.298 222.083C135.889 221.988 146.292 222.798 149.707 222.718C152.089 222.035 138.971 219.844 134.063 219.415C132.189 219.256 123.247 217.398 118.324 217.445C126.424 218.16 127.662 220.098 127.885 220.288C129.314 221.575 122.183 221.75 115.608 221.67C110.43 221.21 100.774 220.257 100.774 219.431C100.774 218.287 105.919 218.716 110.208 218.557C109.827 218.525 109.445 218.494 109.064 218.446C110.827 218.509 112.892 218.573 115.004 218.668C108.191 218.112 83.0965 215.714 81.683 216.858ZM239.077 228.579C230.961 228.658 222.877 229.564 213.507 230.151C205.105 230.675 199.864 230.993 196.767 231.168C190.032 231.247 183.727 231.215 176.771 231.946C174.261 232.216 172.403 232.327 169.814 232.343C166.844 232.359 163.62 232.137 160.857 231.835C156.679 231.374 152.328 231.025 147.881 231.104C145.149 231.025 140.225 230.787 132.649 230.199C118.578 229.103 100.059 227.467 77.0771 227.102C68.31 226.959 35.7989 220.908 5.00298 226.498C-2.28702 227.245 -9.60879 228.166 -16.3747 228.674C-25.6658 229.373 -33.8611 228.801 -42.8982 229.23V231.231C-39.1658 231.088 -35.4335 230.93 -31.7011 230.771C-22.8229 230.389 -14.707 230.167 -6.20996 228.928C-1.20702 228.182 5.49533 226.641 10.8795 226.625C15.3265 226.609 29.5412 225.99 33.9565 226.324C41.723 226.927 48.7747 228.277 56.16 229.31C70.8671 231.374 88.56 231.057 104.204 231.057C104.204 231.057 119.245 230.866 133.729 231.263C140.432 231.533 146.404 231.74 149.469 231.724C155.218 231.692 158.712 232.232 164.271 232.819C176.135 234.074 188.635 232.105 200.435 231.771C206.28 231.612 212.268 231.93 218.001 231.628C229.389 231.009 234.646 230.453 246.208 230.914C250.131 231.072 256.024 231.66 259.962 231.549C262.234 231.485 265.68 231.517 269.127 231.438C270.524 231.406 272.859 231.406 274.939 231.231V229.23C273.685 229.278 272.382 229.373 271.048 229.484C253.371 229.691 258.279 228.388 239.077 228.579ZM234.074 232.152C225.005 232.581 212.601 233.407 203.31 233.598C191.922 233.836 182.901 234.662 171.672 234.408C160.317 234.138 148.627 234.916 137.097 234.916C115.242 234.916 93.5312 234.217 72.0106 233.185C51.7924 232.2 32.4159 228.515 11.5465 230.088C-2.81114 231.168 -10.4347 231.501 -15.5011 232.168C-23.3788 233.201 -28.6517 233.074 -42.9458 232.883V234.138C-35.9258 234.455 -22.8388 234.979 -16.3111 234.392C-7.71879 233.614 0.285919 231.978 8.9418 231.311C26.7936 229.929 45.2489 231.501 62.7512 233.185C85.3836 235.377 106.317 235.504 129.298 235.504C137.986 235.504 146.864 235.281 155.52 235.504C172.403 235.932 186.443 234.884 203.596 234.424C211.966 234.201 221.146 233.804 229.119 233.344C238.855 232.772 269.778 233.868 274.908 234.138V232.883C268.602 232.629 245.922 231.597 234.074 232.152ZM167.972 237.711C152.995 237.886 137.875 237.997 122.787 237.807C69.66 235.789 62.2906 232.867 39.3565 231.867C27.9371 231.374 24.1571 230.834 11.4195 231.724C5.4318 232.137 0.69886 232.549 -5.0982 233.487C-10.3235 234.328 -24.3953 235.774 -33.5117 236.457C-36.6406 236.441 -39.7853 236.425 -42.9141 236.425V237.155C-39.9123 237.187 -36.9264 237.235 -33.9247 237.314C-16.47 237.743 0.317684 236.329 17.6453 235.615C43.8195 234.535 68.8977 236.647 94.7542 237.822C98.153 237.981 101.568 238.061 104.982 238.108C121.897 238.347 139.002 238.966 155.917 238.521C162.651 238.315 169.401 238.347 176.215 238.347C179.614 238.347 183.028 238.331 186.427 238.251C188.127 238.219 189.842 238.156 191.541 238.077L196.608 237.854C199.975 237.711 203.326 237.6 206.693 237.584C219.351 237.537 232.057 236.25 244.588 236.647C253.165 236.917 262.917 237.076 274.987 237.155V236.425C267.745 236.345 245.224 235.932 241.062 235.932C216.699 235.964 192.319 237.425 167.972 237.711ZM248.162 217.032C236.854 217.318 231.104 217.62 203.453 216.207C197.227 215.889 184.648 215.428 174.912 215.095C169.703 214.348 164.446 213.634 159.109 213.364C146.896 212.744 134.619 210.394 117.101 209.377C106.841 208.79 94.7383 208.742 82.3977 208.885C68.5801 208.885 55.0959 209.075 42.0406 211.077C41.6118 211.14 41.183 211.204 40.7383 211.267C38.2606 211.537 35.8942 211.839 33.7342 212.141C22.9183 213.65 19.5671 213.507 9.16415 215.063C-4.33585 217.08 -42.93 217.08 -42.93 217.08V222.671C-35.6558 222.432 -25.92 221.972 -20.4406 221.94C-13.0553 221.877 -6.74996 221.511 -1.39761 220.955C10.133 220.431 21.1712 218.319 30.3036 216.095C38.483 214.11 47.9647 212.919 57.7483 211.76C68.7071 210.457 81.0794 209.79 92.6736 209.472C100.551 209.615 107.492 209.774 109.699 209.806C117.625 209.949 145.006 212.967 152.121 214.078C165.669 216.207 172.324 216.397 192.987 218.128C204.088 219.065 219.939 220.098 231.088 220.924C235.948 221.289 256.754 223.195 274.939 222.671V217.064C264.965 217.144 255.214 216.858 248.162 217.032ZM221.781 213.777C210.679 213.173 199.721 212.935 188.841 212.331C178.137 211.728 167.4 209.965 156.362 209.552C144.148 209.091 131.871 207.376 114.353 206.645C104.093 206.217 91.9112 205.788 79.5706 205.899C65.7689 205.899 52.3483 206.407 39.293 207.884C32.3047 208.662 24.9036 209.298 18.7412 210.711C9.78357 212.76 4.65357 213.713 1.09592 213.92C-13.4047 214.761 -28.08 215.349 -42.9141 215.285V216.286C-36.0847 216.111 -28.0006 215.841 -23.1723 215.825C6.81356 215.651 18.9159 211.601 22.1877 211.077C29.7159 209.854 38.9436 208.361 47.2183 207.757C64.9747 206.455 73.5194 206.677 81.2383 206.614C92.213 206.741 103.966 206.931 106.968 206.963C114.893 207.074 142.274 209.266 149.389 210.076C162.937 211.632 169.592 211.775 190.255 213.046C201.357 213.729 217.207 214.523 228.372 215.095C244.588 215.921 261.455 216.747 274.971 216.302V215.301C262.345 215.238 249.814 214.253 245.922 214.317C238.918 214.412 228.42 214.126 221.781 213.777ZM184.664 209.314C184.474 209.298 184.283 209.298 184.108 209.282C186.983 209.536 185.967 209.425 184.664 209.314ZM73.4083 135.27C66.8489 135.238 59.7177 135.381 53.6189 136.43C52.9995 136.541 46.853 137.509 43.6447 137.843C39.3089 138.288 34.7665 138.669 30.3353 138.859C25.793 139.05 21.2665 139.542 16.9942 140.209C11.9594 140.988 7.36945 141.162 3.98651 142.957C2.04886 143.99 -4.76467 144.815 -3.06526 145.927C-1.25467 147.118 7.62357 148.135 10.7047 148.468C15.3106 148.961 21.0918 149.453 25.7453 149.31C31.1453 149.135 36.5771 149.008 41.993 149.04C44.6453 149.056 47.2818 149.135 49.9183 149.278C51.0459 149.342 52.1736 149.421 53.2853 149.517C54.4606 149.612 55.7153 149.501 56.9065 149.596C60.893 149.898 64.8953 150.215 68.9136 150.454C76.6959 150.914 84.7006 151.216 92.4353 150.469C96.2948 150.088 99.9477 149.517 103.347 148.643C106.904 147.738 111.939 145.149 114.687 143.847C117.752 142.385 123.628 141.957 121.405 140.082C119.531 138.494 110.351 137.192 106.571 136.652C101.123 135.874 95.58 135.778 89.9577 135.461C84.9706 135.143 78.443 135.302 73.4083 135.27ZM92.9912 136.874C98.153 137.097 115.481 139.161 112.955 141.083C111.065 142.528 106.094 146.197 101.758 147.452C95.1194 149.374 87.1465 150.501 79.3165 150.311C75.2824 150.215 69.1677 149.771 65.1971 149.437C63.323 149.278 55.9059 148.77 52.1736 148.468C46.9165 148.055 45.1694 147.642 39.833 147.69C35.37 147.722 30.9547 147.801 24.8242 147.484C21.87 147.341 7.62357 145.864 11.1812 143.386C13.5953 141.702 22.9024 141.305 26.873 140.797C30.3195 140.352 32.6383 139.797 36.1642 139.479C42.0883 138.939 48.9018 138.558 53.873 137.16C54.1271 137.176 55.9377 136.684 56.1441 136.652C60.1465 136.017 63.2753 136.112 67.5159 136.08C69.4536 136.064 72.2965 136.001 74.2341 136.048C80.7618 136.16 86.4795 136.604 92.9912 136.874ZM49.5371 141.702C47.3771 142.147 39.2612 142.481 37.7842 143.291C36.2912 144.117 48.5842 145.308 51.2524 145.34C56.3506 145.403 61.0677 144.99 66.1818 145.467C68.0718 145.641 69.93 145.959 71.7565 146.213C73.6624 146.467 75.6318 146.626 77.5853 146.769C81.27 147.039 85.1612 147.15 88.8142 146.785C92.483 146.404 95.723 145.546 98.4071 144.45C100.789 143.465 101.949 141.845 100.805 140.511C99.4871 138.987 95.5006 138.32 91.9589 138.177C87.9406 138.018 83.9859 138.574 79.9995 138.717C76.3306 138.844 72.6459 138.796 68.9771 138.859C61.973 139.002 54.6989 139.59 49.5371 141.702ZM85.8124 139.225C89.7195 139.384 93.8489 139.638 96.0883 141.162C97.8671 142.369 97.4383 144.228 94.8018 145.165C91.4665 146.34 86.9241 146.515 82.7471 146.404C78.6336 146.292 74.5677 145.848 70.5177 145.546C68.5324 145.403 66.4995 145.292 64.5459 145.069C62.5765 144.847 60.8612 144.529 58.733 144.529C56.1124 144.529 49.1877 144.545 47.3771 143.497C46.4242 142.957 49.2195 142.639 50.22 142.163C50.5377 142.1 50.8236 142.004 51.03 141.909C53.9524 140.654 57.923 140.146 61.9253 139.876C65.9753 139.59 70.0889 139.495 74.1706 139.399C78.0936 139.288 81.8895 139.082 85.8124 139.225ZM61.1471 142.274C61.6553 143.211 65.9118 143.577 69.533 143.608C72.2647 143.624 76.9183 144.101 79.6342 143.735C81.683 143.449 86.6383 143.021 84.6847 141.829C83.9224 141.369 81.27 141.321 80.0312 141.178C78.2842 140.972 75.0759 140.813 73.2812 140.892C71.5024 140.972 68.8977 141.528 68.8977 141.528C68.8977 141.528 72.8524 141.115 77.8077 141.464C79.523 141.591 81.3495 142.084 81.2542 142.354C81.0477 142.894 76.0924 143.322 73.5989 143.434C71.1371 143.545 66.3089 143.148 65.8483 142.544C65.4671 142.02 68.0559 141.671 68.04 141.671C65.5147 141.639 60.8771 141.814 61.1471 142.274ZM-21.6953 153.805C-18.7094 154.122 -15.5964 154.218 -12.5311 154.313C-7.2582 154.488 -1.96938 154.456 3.31945 154.392C8.62415 154.329 13.9289 154.186 19.2336 154.122C24.7289 154.059 30.2242 154.107 35.7195 154.122C41.3577 154.154 47.0118 154.218 52.65 154.361C57.8277 154.488 63.1006 154.583 68.2306 154.948C75.0759 155.441 81.8577 156.06 88.7824 156.33C93.833 156.521 100.027 156.695 104.522 155.488C105.268 155.393 106.015 155.298 106.745 155.202C108.016 155.028 109.223 154.837 110.414 154.615C110.509 154.599 110.589 154.583 110.668 154.567C111.431 154.424 112.177 154.265 112.924 154.107C117.021 153.185 120.468 151.883 124.009 150.628C127.774 149.294 131.331 147.897 135.016 146.531C138.335 145.308 141.861 144.355 145.879 143.624C151.47 142.592 158.824 141.178 157.887 138.065C157.108 135.508 150.771 134.619 145.578 134.222C141.734 133.936 137.907 133.729 134.031 133.555C128.758 133.317 123.612 132.634 118.467 132.157C111.621 131.506 104.712 130.982 97.7718 130.601C94.2777 130.41 90.7677 130.188 87.2418 130.14C84.0177 130.108 82.08 129.537 75.6636 129.807C72.9477 129.918 70.2318 130.124 67.6906 130.283C62.243 130.632 56.9065 131.172 51.5065 131.633C40.8018 132.538 30.0495 133.396 19.1859 133.904C8.21122 134.428 -2.74761 134.444 -13.7382 133.999C-19.4241 133.761 -24.8876 133.428 -30.6211 133.459C-34.6553 133.491 -38.8164 133.587 -42.9458 133.841V137.303C-36.1482 136.287 -20.2817 136.604 -14.6594 136.858C-9.54526 137.097 -4.17702 137.652 1.22298 137.351C6.21004 137.065 11.2924 136.191 16.4542 135.921C23.4742 135.556 30.51 135.524 37.4506 135.159C36.7518 135.238 36.053 135.302 35.3542 135.365C30.1289 135.874 24.8559 136.287 19.5989 136.731C14.5959 137.144 9.78357 137.875 4.86004 138.399C0.95298 138.828 -2.95408 138.955 -6.97232 138.971C-13.9288 138.987 -21.1076 138.844 -27.8258 139.733C-31.8441 140.273 -36.4023 140.94 -38.467 142.354C-38.8006 142.576 -41.2306 143.052 -42.9458 143.434V146.467C-42.2153 146.896 -41.4053 147.293 -40.7858 147.563C-38.61 148.5 -34.3058 149.247 -31.3517 149.644C-26.3011 150.311 -22.2511 150.517 -18.4394 150.819C-15.4217 151.073 -12.6582 151.438 -9.59291 151.581C-6.55938 151.724 -3.52584 151.804 -0.476433 151.867C4.74886 151.962 9.99004 151.994 15.2312 152.058C24.5065 152.185 33.7977 152.502 43.0571 152.709C53.603 152.947 64.0377 153.392 74.5359 153.884C83.2394 154.297 92.4353 154.408 100.567 152.82C104.998 151.947 108.826 150.549 112.733 149.342C117.117 147.992 121.595 146.658 125.836 145.228C129.203 144.101 135.953 142.163 137.271 140.368C138.161 139.145 134.031 138.653 132.109 137.716C129.775 136.588 126.455 135.874 123.247 135.302C119.277 134.587 115.068 134.111 110.875 133.666C105.697 133.126 100.361 132.808 95.0718 132.475C90.1959 132.173 85.2406 131.951 80.3012 131.871C95.9136 131.061 108.429 132.697 123.374 134.206C128.885 134.762 137.319 135.937 142.433 137.271C148.722 138.891 149.993 140.178 140.924 143.91C140.273 144.069 139.606 144.244 138.971 144.434C134.524 145.721 130.982 147.468 126.884 148.945C122.691 150.454 118.8 152.105 114.115 153.36C111.732 153.995 109.239 154.472 106.587 154.853C106.078 154.932 105.586 154.996 105.094 155.075C104.919 155.059 104.697 155.091 104.474 155.139C104.379 155.171 104.268 155.187 104.172 155.218C103.537 155.329 102.918 155.441 102.314 155.584C100.138 155.901 97.6924 155.965 95.4689 155.981C91.7206 156.012 87.9724 155.854 84.2718 155.631C76.9024 155.218 69.7077 154.504 62.3065 154.202C51.1571 153.757 39.9759 153.567 28.7789 153.551C18.0583 153.535 7.38533 153.916 -3.33526 153.979C-10.2441 154.027 -17.2164 153.948 -23.8394 153.074C-29.0488 152.391 -33.7976 151.327 -38.7211 150.358C-40.1506 150.088 -41.5641 149.787 -42.9617 149.485V150.565C-40.627 151.041 -38.2764 151.502 -35.8147 151.835C-31.0817 152.502 -26.4917 153.297 -21.6953 153.805ZM6.38474 151.549C5.49533 151.534 4.57416 151.502 3.65298 151.454C8.10004 151.518 12.563 151.565 17.0259 151.645C13.5636 151.629 10.0377 151.597 6.38474 151.549ZM83.3983 132.681C88.703 132.856 94.0236 133.11 99.2489 133.555C104.188 133.984 108.111 134.254 112.86 134.984C116.497 135.54 121.055 136.572 124.311 137.462C126.9 138.161 129.679 139.114 130.283 140.448C131.061 142.131 125.772 143.402 123.184 144.45C119.324 146.007 117.244 147.515 112.955 148.865C109.684 149.898 106.332 151.025 102.727 151.899C78.2047 154.202 69.9777 150.597 45.1377 150.025C33.2418 149.755 8.52886 151.041 -9.8629 148.929C-19.3923 147.833 -27.4606 145.975 -27.0317 145.228C-26.19 143.767 -12.7535 142.687 -8.75114 141.941C-5.55878 141.337 0.397095 141.925 13.0553 138.161C16.2477 137.795 19.44 137.462 22.7118 137.192C27.8577 136.763 33.0036 136.302 38.0859 135.762C42.9936 135.238 47.8536 134.603 52.7453 134.047C62.8942 132.904 72.9 132.348 83.3983 132.681ZM-12.2453 158.935C-7.22643 158.998 -2.1282 158.776 2.85886 158.569C13.0236 158.172 23.1089 157.569 33.3371 157.585C38.6418 157.601 43.9465 157.807 49.1559 158.204C53.3489 158.522 57.4783 158.919 61.6871 159.205C78.2206 160.301 96.7553 160.65 112.384 157.712C116.862 156.87 120.992 155.663 125.248 154.662C130.061 153.519 134.698 152.201 139.86 151.407C154.138 149.199 176.389 144.101 186.237 142.084C191.732 140.956 193.86 140.178 196.417 139.479C200.769 138.304 190.779 138.589 187.523 137.557C182.599 136.001 168.972 133.031 163.366 131.998C157.283 130.887 151.168 129.775 144.911 128.869C135.27 127.472 124.835 126.725 114.687 126.392C104.252 126.042 93.7218 126.408 83.3348 126.852C62.1636 127.774 41.2624 129.505 20.123 130.537C7.29004 131.172 -5.6382 131.49 -18.5506 131.268C-25.0623 131.157 -31.4629 130.728 -37.9588 130.521C-39.6106 130.474 -41.2623 130.442 -42.93 130.41V131.411C-37.6253 131.49 -32.3682 131.824 -27.0635 131.998C-16.4382 132.348 -5.76525 132.252 4.84416 131.919C26.1106 131.252 47.0595 129.552 68.1512 128.314C76.8865 127.805 85.7806 127.329 94.7065 127.138C108.905 127.472 113.067 128.981 121.294 129.727C140.082 131.427 152.852 132.951 156.155 133.968C159.792 135.064 171.132 136.461 172.276 138.494C173.372 140.464 169.528 140.067 166.876 142.465C164.208 144.879 155.171 147.261 151.915 148.071C148.278 148.818 144.657 149.58 141.051 150.358C136.223 151.391 131.427 152.455 126.678 153.567C122.183 154.615 117.863 155.854 113.257 156.807C105.586 158.395 96.7236 158.871 88.2742 158.982C79.4436 159.094 70.5812 158.744 61.8618 158.157C57.4306 157.855 53.0789 157.426 48.6477 157.14C43.4383 156.807 38.1653 156.711 32.9083 156.759C22.8547 156.838 12.8647 157.505 2.87474 157.918C-1.93761 158.109 -6.82938 158.315 -11.6735 158.236C-16.3588 158.157 -20.9488 157.648 -25.3482 156.981C-31.4629 156.06 -37.2441 154.885 -42.9141 153.598V154.138C-37.3553 155.568 -31.7011 156.949 -25.5706 157.871C-21.2982 158.458 -16.8035 158.887 -12.2453 158.935ZM-2.89055 163.763C-9.64055 163.668 -16.6764 163.128 -20.377 162.572C-26.4917 161.651 -32.13 160.555 -42.93 159.173V159.697C-26.9047 161.508 -22.0447 164.382 -2.89055 163.763ZM235.758 144.847C242.158 146.674 249.274 150.279 253.975 151.089C261.36 152.375 263.901 151.962 274.939 154.075V153.535C271.89 152.788 266.855 151.994 261.789 150.978C254.038 149.421 248.511 146.165 245.112 144.704C237.409 141.385 245.494 137.112 253.054 134.889C258.93 133.158 261.773 132.364 269.047 131.617C270.159 131.506 271.969 131.395 274.939 131.395V130.41C262.059 130.458 258.184 132.237 251.1 134.174C242.476 136.541 224.783 141.718 235.758 144.847ZM249.258 139.463C248.257 139.987 246.367 141.671 253.689 144.958C256.611 146.277 257.993 148.024 261.392 148.484C266.792 149.215 269.746 149.548 274.939 150.549V149.485C273.145 148.977 268.968 149.151 265.362 148.437C264.584 148.278 263.885 148.103 263.218 147.928C261.027 146.642 255.452 143.862 256.214 142.385C257.802 139.368 266.903 138.351 274.924 137.287V134.873V133.841C269.412 134.047 263.012 134.984 257.961 136.366C254.531 137.319 251.418 138.367 249.258 139.463ZM273.319 145.959C273.923 146.134 274.479 146.308 274.939 146.499V143.465C273.272 143.751 272.208 143.958 271.35 144.18C270.858 144.307 270.238 145.038 273.319 145.959ZM191.351 144.053C182.329 144.799 173.928 146.531 166.066 148.5C157.95 150.517 150.374 152.9 142.449 155.044C134.269 157.251 125.804 159.046 116.545 160.317C106.968 161.635 97.0253 162.254 86.9559 162.302C81.9212 162.334 76.8865 162.207 71.8836 161.984C69.2312 161.873 66.5948 161.73 63.9583 161.571C50.2201 159.602 37.1489 158.887 24.1412 159.252C8.27474 159.697 -8.95761 162.127 -29.9541 158.474C-34.2264 157.585 -38.5147 156.727 -42.9458 156.171V156.981C-37.6094 157.68 -32.6064 158.808 -27.7623 159.967C-21.06 161.571 -13.897 162.858 -6.13055 163.096C-1.30231 163.239 3.65298 162.953 8.46533 162.778C13.6747 162.588 18.9 162.365 24.1095 162.175C34.6712 161.794 45.2647 161.635 55.8424 162.064C61.1947 162.286 66.4995 162.683 71.8677 162.889C76.8389 163.08 81.8418 163.16 86.8289 163.128C96.39 163.048 105.951 162.429 115.115 161.301C127.138 159.808 137.684 157.188 148.055 154.377C164.001 151.057 175.945 148.707 186.3 148.119C195.274 147.611 196.941 148.659 205.851 148.881C217.398 149.167 227.61 150.517 242.698 152.772C242.555 152.725 242.397 152.661 242.254 152.614C245.144 153.185 247.955 153.71 250.639 154.107C257.628 155.155 268.618 156.187 274.924 156.997V156.187C266.665 154.917 245.843 151.629 236.218 149.072C225.736 146.261 203.644 143.037 191.351 144.053ZM213.872 132.395C209.155 132.411 204.438 132.173 199.816 131.776C194.511 131.315 189.492 130.505 184.426 129.711C174.388 128.155 164.224 126.741 153.884 125.582C143.672 124.422 133.301 123.501 122.787 122.977C117.434 122.707 112.177 122.501 106.793 122.532C101.727 122.548 96.6441 122.723 91.6095 122.945C81.2542 123.406 70.9783 124.121 60.5912 124.407C49.3306 124.708 37.9906 124.581 26.7142 124.597C13.7224 124.629 0.794151 124.883 -12.15 125.407C-22.4576 125.82 -32.13 126.058 -42.9141 126.042V126.678C-36.1482 126.821 -27.9053 126.821 -20.6153 126.535C-9.49761 126.106 1.62004 125.804 12.7853 125.757C23.9347 125.709 35.1 125.788 46.2495 125.725C56.9383 125.677 67.4524 125.296 78.0618 124.724C88.3536 124.168 98.6612 123.628 109.048 123.755C119.689 123.898 130.426 124.708 140.797 125.677C151.454 126.678 161.937 127.98 172.276 129.441C182.107 130.823 191.668 132.57 202.008 133.189C224.847 134.555 246.431 128.441 264.219 127.043C268.888 126.678 274.939 126.678 274.939 126.678V126.027C247.002 125.709 232.867 132.332 213.872 132.395ZM215.476 153.535C210.981 153.424 206.502 153.725 202.103 154.107C197.037 154.535 192.018 154.996 186.904 155.345C176.278 156.06 165.447 156.6 155.107 157.887C145.228 159.109 136.032 161.19 126.487 162.794C116.942 164.414 106.729 165.288 96.5171 165.732C86.3048 166.177 76.013 166.098 65.7847 165.717C60.3371 165.51 54.9689 165.383 49.4895 165.447C44.1212 165.51 38.7847 165.701 33.4483 165.923C19.17 166.495 4.76474 167.13 -9.4182 165.875C-20.4723 164.907 -31.5582 162.794 -42.93 162.238V162.985C-35.2588 163.445 -27.8417 164.414 -20.377 165.335C-15.8347 165.907 -11.2447 166.4 -6.55938 166.733C-1.46114 167.098 3.76416 167.178 8.92592 167.178C19.5512 167.146 30.1447 166.622 40.7383 166.384C43.1524 166.336 45.5665 166.288 47.9806 166.272C47.9171 166.288 47.8377 166.288 47.79 166.304C62.0842 166.368 85.9871 169.052 99.7412 168.432C110.382 167.956 120.325 165.796 131.982 164.954C141.417 164.271 150.104 163.017 158.998 161.524C167.908 160.031 176.914 159.078 186.316 158.363C195.988 157.632 205.788 156.791 215.667 157.077C226.022 157.378 236.059 158.379 246.494 158.506C246.431 158.49 246.383 158.474 246.335 158.474C255.658 158.855 267.03 158.935 274.971 159.713V159.173C259.089 157.124 242.285 157.601 237.759 156.267C230.517 154.122 224.592 153.757 215.476 153.535ZM225.768 197.021C204.199 196.036 182.838 194.384 161.333 193.193C140.114 192.018 118.482 191.144 97.1683 192.351C75.87 193.542 55.1595 196.258 33.623 196.782C25.92 196.973 18.2012 196.83 10.5142 196.655C3.04945 196.481 -4.57408 196.068 -12.0388 196.195C-18.5823 196.306 -25.0623 196.703 -31.5741 196.973C-35.3223 197.132 -39.1341 197.259 -42.93 197.211V197.64C-37.0853 197.719 -31.0976 197.37 -25.4117 197.132C-20.6629 196.925 -15.8982 196.719 -11.1176 196.719C-5.8129 196.703 -0.412907 197.084 4.87592 197.275C15.66 197.656 26.46 197.926 37.26 197.545C47.8853 197.164 58.3677 196.306 68.8183 195.448C79.2689 194.591 89.7353 193.733 100.345 193.288C111.081 192.828 121.913 193.002 132.649 193.32C154.297 193.971 175.707 195.544 197.148 196.894C212.522 197.847 221.13 197.815 236.647 198.132C244.255 198.291 258.263 197.656 274.908 197.656V197.243C268.062 197.243 260.026 197.386 254.61 197.386C243.921 197.338 236.409 197.513 225.768 197.021ZM217.922 192.669C195.972 192.526 175.961 190.938 154.027 190.509C142.814 190.287 131.569 190.001 120.341 189.969C109.684 189.937 99.0424 190.207 88.433 190.668C77.7759 191.112 67.1665 191.764 56.5571 192.415C51.0777 192.748 45.5983 193.129 40.0871 193.384C34.4806 193.638 28.8424 193.701 23.2042 193.685C9.5771 193.669 -4.0182 193.13 -17.6453 193.272C-24.3635 193.336 -30.907 193.685 -37.5458 194.035C-39.3564 194.13 -41.1511 194.273 -42.9458 194.432V195.702C-42.7235 195.687 -42.4853 195.655 -42.2629 195.639C-36.99 195.226 -31.6058 194.94 -26.2694 194.781C-15.1835 194.448 -4.00232 194.67 7.08357 194.813C18.1377 194.956 29.2236 195.004 40.2142 194.432C51.0777 193.876 61.8777 193.05 72.7253 192.447C83.2871 191.859 93.8806 191.398 104.522 191.176C115.719 190.954 127.122 190.731 138.319 190.938C160.459 191.335 180.424 193.415 202.595 193.574C226.022 193.733 252.625 197.815 274.908 195.687V194.432C254.483 195.734 236.298 192.78 217.922 192.669ZM-7.55996 178.47C-2.3982 178.073 2.81121 177.851 8.05239 177.851C13.5953 177.835 19.1859 178.041 24.7289 178.121C36.0689 178.279 47.3453 178.597 58.6377 179.01C80.9206 179.82 103.188 180.535 125.614 180.535C157.331 180.535 164.462 176.31 182.266 175.024C188.778 174.547 195.321 174.071 201.881 173.642C202.103 173.261 227.912 171.101 260.328 172.054C219.955 169.179 192.24 173.213 187.015 173.578C169.385 174.833 148.881 178.74 131.014 179.201C108.397 179.804 85.7171 178.74 63.2118 177.914C51.9195 177.501 40.643 177.168 29.3189 177.009C18.5665 176.85 7.83004 176.485 -2.87467 177.168C-12.6105 177.787 -22.1558 178.931 -31.7806 179.772C-35.4653 180.09 -39.1976 180.297 -42.9141 180.551V181.424C-40.4841 181.281 -38.0858 181.17 -35.8147 181.011C-26.317 180.36 -17.0417 179.201 -7.55996 178.47ZM274.939 167.479C267.888 167.416 242.015 168.544 233.772 168.401C210.489 168.02 186.935 169.163 163.938 170.624C151.978 171.387 140.241 172.514 128.393 173.547C117.529 174.5 106.571 175.325 95.4689 175.564C89.91 175.691 84.3195 175.611 78.7924 175.357C73.2495 175.103 67.8336 174.531 62.2589 174.341C51.3636 173.96 40.4047 174.42 29.4936 174.261C19.043 174.118 8.70357 173.292 -1.77879 173.61C-11.2288 173.896 -19.7258 175.611 -28.5882 176.85C-33.21 177.501 -38.0382 178.089 -42.93 178.375V179.614C-41.9929 179.55 -41.0558 179.471 -40.1347 179.375C-31.6535 178.597 -23.6647 177.231 -15.517 176.008C-5.3682 174.5 5.5271 174.992 16.0094 175.405C26.873 175.834 37.6094 175.659 48.4889 175.643C53.9842 175.627 59.4636 175.738 64.8953 176.072C70.4224 176.421 75.8065 176.882 81.413 177.009C92.4194 177.263 103.442 176.723 114.258 175.913C128.663 174.833 142.83 173.245 157.235 172.133C173.562 170.878 190.064 169.83 206.629 169.354C219.113 169.624 233.328 169.846 243 169.973C258.422 170.179 266.172 170.529 274.908 170.529V167.924V167.479H274.939ZM253.895 120.118C243.667 121.071 241.634 120.865 231.327 121.691C221.162 122.501 212.506 120.928 202.182 120.515C191.938 120.102 182.25 118.578 172.371 117.434C162.27 116.275 152.264 115.767 141.798 115.925C131.22 116.084 120.722 116.719 110.144 116.815C87.8136 116.99 65.5147 117.387 43.2 117.672C34.703 117.784 26.2059 117.768 17.7247 117.863C10.0377 117.958 2.38239 118.197 -5.28878 118.403C-17.7723 118.737 -30.4147 119.007 -42.93 118.578V119.102C-37.4347 119.356 -31.8758 119.388 -26.317 119.372C-16.47 119.324 -6.62291 119.022 3.20827 118.8C13.3253 118.562 23.3947 118.578 33.5277 118.514C44.5342 118.451 55.5406 118.276 66.5471 118.117C77.6647 117.958 88.7983 117.815 99.9159 117.799C105.237 117.799 110.509 117.799 115.814 117.657C121.071 117.514 126.297 117.307 131.538 117.132C142.258 116.783 152.82 116.799 163.35 117.784C173.181 118.705 182.615 120.309 192.51 121.135C208.98 122.501 221.305 124.168 237.425 122.485C245.7 121.611 251.862 121.341 259.947 120.182C262.726 119.785 269.174 119.086 274.955 119.102V118.562C267.665 118.435 257.945 119.737 253.895 120.118ZM172.022 182.139C148.5 182.282 124.962 182.202 101.441 181.996C77.9983 181.789 54.683 180.741 31.3359 179.963C23.8712 179.709 16.1683 180.042 8.54474 180.074C1.84239 180.09 -4.81232 180.63 -11.3558 181.218C-21.9653 182.155 -28.8106 182.377 -31.5741 183.171C-31.5741 183.171 -1.69937 180.916 8.67181 181.011C14.3736 181.059 37.3236 181.234 43.1206 181.456C54.7306 181.901 66.3406 182.345 77.9824 182.663C101.361 183.298 124.883 183.314 148.294 183.314C171.72 183.33 195.147 183.124 218.541 182.679C234.058 182.377 253.864 181.599 274.908 179.614V178.391C264.267 178.772 253.657 180.71 243 180.995C219.383 181.647 195.718 181.996 172.022 182.139ZM206.312 183.807C216.064 184.394 224.64 184.22 228.563 184.22C237.854 184.22 245.652 183.664 255.293 183.267C263.631 182.917 269.921 181.662 274.939 181.44V180.567C268.841 181.011 262.202 181.821 255.531 182.488C250.767 182.822 216.175 183.886 206.312 183.807ZM231.406 134.619C240.999 133.189 242.476 132.189 242.476 132.189C238.029 132.872 237.521 132.904 233.629 133.285C229.119 133.729 227.118 134.095 222.655 134.635C216.985 135.318 205.613 137.271 205.708 140.384C205.804 141.607 213.475 142.894 218.43 143.672C222.782 144.355 225.212 144.593 231.469 146.451C227.435 143.386 213.967 142.227 213.141 140.479C212.284 138.669 219.923 136.334 231.406 134.619ZM203.31 223.147C197.688 222.242 194.956 223.163 181.98 220.272C169.369 217.477 155.949 215.968 142.274 215.19C129.251 214.444 91.8477 211.632 78.7924 211.966C75.1553 212.061 64.0536 213.522 54.6353 215.381C47.2659 216.826 40.9289 218.525 40.0236 219.955C39.293 221.146 48.9177 219.431 55.35 221.051C66.5153 223.878 77.5377 223.878 77.5377 223.878C60.1624 221.877 55.7312 219.891 55.7312 218.859C55.7312 218.017 58.2089 217.223 65.1653 216.35C66.9918 216.127 69.4218 214.428 74.2024 213.729C79.4595 212.951 86.8606 213.316 94.2777 213.522C105.888 213.84 116.878 215.285 128.171 215.571C135.238 215.762 143.656 216.222 150.882 216.953C161.968 219.558 160.698 221.162 168.861 222.957C175.818 224.481 169.655 224.672 164.255 225.005C159.618 225.307 153.439 224.529 148.691 224.386C141.274 224.18 134.476 224.831 125.804 224.386C121.913 224.18 116.449 224.434 111.049 224.577C105.173 224.719 99.5506 224.783 98.3595 224.799C95.04 224.719 92.0065 224.608 89.4336 224.418C98.55 225.974 115.909 225.736 132.856 226.689C146.737 227.467 156.362 228.976 160.094 228.976C168.607 228.976 180.424 229.055 188.444 229.024C196.497 229.008 198.704 226.498 207.217 226.498C213.808 226.498 222.147 226.594 221.575 225.498C222.019 224.561 208.361 223.957 203.31 223.147ZM-6.46408 204.009C7.67121 204.676 23.0136 203.167 37.9906 202.357C59.94 201.055 110.112 200.435 112.558 200.467C116.783 200.451 120.912 200.562 125.137 200.658C129.267 200.737 140.972 201.087 141.798 201.134C149.088 201.388 160.062 201.897 159.491 201.881C167.337 202.167 184.966 203.151 188.619 203.389C192.208 203.628 213.475 206.55 232.661 206.9C252.545 207.265 270.064 205.057 272.224 204.867C273.129 204.787 274.05 204.66 274.924 204.533V203.31C259.232 204.533 246.828 205.724 228.118 204.819C196.338 203.294 166.971 200.547 134.349 199.546C95.4689 198.355 49.0447 200.674 10.7524 202.405C-0.0634956 202.897 -24.1888 201.341 -42.93 203.294V204.533C-42.5011 204.501 -42.1676 204.469 -41.8658 204.438C-32.6223 203.802 -17.5658 203.453 -6.46408 204.009Z" fill="#DF861C"/>
</g>
</svg>
