<svg width="107" height="111" viewBox="0 0 107 111" fill="none" xmlns="http://www.w3.org/2000/svg">
<path d="M1.42453 17.3066C1.77264 18.3435 2.01363 18.8347 2.30818 19.5442L3.13827 21.4545C3.70059 22.7097 4.26291 23.9105 4.852 25.0839C6.0302 27.458 7.28872 29.7503 8.57402 32.0152C11.3321 36.8181 17.3837 38.4281 22.0965 35.6174C26.4611 33.0249 28.1481 27.5399 26.1934 22.9281L26.1666 22.8462C25.2829 20.7722 24.4796 18.6983 23.7299 16.6243C23.355 15.5874 23.0069 14.5504 22.7124 13.5407L22.2571 12.0398C22.1232 11.6032 21.9626 10.9755 21.9626 10.8391C21.7751 4.67183 16.7143 -0.185577 10.6359 0.00544357C4.58423 0.196465 -0.182096 5.38134 0.00534435 11.5486C0.0321215 12.722 0.246337 13.8409 0.621217 14.9051L1.42453 17.3066Z" fill="white"/>
<path d="M26.0679 55.8296C33.5852 64.5372 41.8406 72.4531 50.6427 79.5774C53.3763 81.7884 57.3673 81.379 59.5815 78.6494C61.6317 76.1381 61.413 72.5077 59.2262 70.2421L59.1988 70.2148C51.8182 62.5991 45.1209 54.3829 39.2984 45.7027C36.7288 41.8812 31.5351 40.844 27.708 43.4098C23.881 45.9757 22.8423 51.162 25.4118 54.9834C25.6032 55.2564 25.7945 55.5021 25.9859 55.7477L26.0679 55.8296Z" fill="white"/>
<path d="M74.228 96.3354C83.6267 101.902 93.4259 106.727 103.465 110.809C104.774 111.339 106.269 110.729 106.803 109.431C107.31 108.238 106.803 106.859 105.682 106.25C96.4431 101.107 87.5784 95.3281 79.2745 88.9395C77.2986 87.4286 74.4683 87.7732 72.9464 89.7348C71.4244 91.6964 71.7715 94.5063 73.7474 96.0173C73.8809 96.1233 74.0411 96.2293 74.1746 96.3089L74.228 96.3354Z" fill="white"/>
</svg>
