<svg width="329" height="541" viewBox="0 0 329 541" fill="none" xmlns="http://www.w3.org/2000/svg">
<path d="M42.9695 3.88857C42.6841 3.05647 41.6543 -0.0732077 41.0463 0.00130848C38.2668 0.36147 36.0209 2.77083 35.2392 5.56518C35.2144 5.66454 35.1896 5.76389 35.1524 5.87566C34.4451 8.79421 34.2342 15.0411 35.5494 17.761C39.8923 26.7029 47.5854 31.3353 54.8938 37.8803C55.2164 38.166 55.5639 38.4641 55.9733 38.5013C56.2835 38.5261 56.5937 38.402 56.8791 38.2902C58.2068 37.7313 59.5469 37.1724 60.8746 36.6136C59.5593 37.16 50.7495 21.4495 49.9181 19.7481C47.2628 14.2836 44.9052 9.66357 42.9695 3.88857Z" fill="#F79669"/>
<path d="M38.0813 2.34851C37.4484 8.819 39.198 15.7366 43.5781 20.4559C45.3277 22.3437 47.4495 23.8464 49.0129 25.8956C50.5763 27.9448 51.4821 30.8634 50.353 33.1609C47.71 31.4719 45.6875 28.9135 43.7146 26.4048C41.3818 23.4242 39.0243 20.4187 37.3368 17.0158C34.9048 12.1598 33.5399 6.19851 38.0813 2.34851Z" fill="#FDC793"/>
<path d="M65.6641 300.003C68.0216 339.745 70.1682 379.326 70.9872 419.117C71.3098 435.101 72.4141 433.611 72.9849 449.582C73.506 464.361 86.6463 474.644 86.4726 454.724C86.3982 446.043 87.8872 444.714 87.577 435.921C87.2543 426.345 89.6988 415.479 90.5425 405.928C92.2548 386.479 99.5136 369.738 98.9677 350.041" fill="#D9773F"/>
<path d="M197.006 345.669C192.439 355.654 190.243 366.683 190.417 377.649C190.566 386.839 191.099 393.658 196.162 401.718C200.877 409.219 207.019 418.273 207.9 427.289C208.347 431.897 209.86 436.144 210.58 440.739C210.928 442.95 210.456 445.571 210.903 447.632C211.411 449.955 214.414 451.507 216.499 452.053C218.559 452.6 223.361 453.42 225.11 451.842C226.003 451.023 226.438 448.762 226.922 447.657C227.654 445.993 228.448 444.353 229.254 442.727C232.356 436.467 235.794 430.332 238.027 423.688C239.578 419.092 240.707 415.938 240.422 410.995C240.099 405.419 239.38 399.867 239.243 394.279C238.759 373.812 245.919 354.04 252.979 334.827" fill="#D9773F"/>
<path d="M116.525 182.988C116.65 183.46 116.6 183.969 116.315 184.354C116.128 184.603 115.831 184.851 115.917 185.149C115.98 185.373 116.24 185.472 116.451 185.596C117.109 185.994 117.357 186.95 116.96 187.608C116.848 187.794 116.699 187.968 116.699 188.179C116.699 188.527 117.084 188.713 117.32 188.949C117.878 189.483 117.692 190.576 116.985 190.899C117.952 191.371 118.3 192.799 117.655 193.669C118.337 193.83 118.908 194.389 119.069 195.072C119.23 195.755 118.995 196.513 118.461 196.972C119.218 197.345 119.752 198.152 119.801 198.997C119.838 199.692 119.528 200.114 119.23 200.686C118.809 201.493 118.784 200.897 118.982 201.592C119.106 202.039 119.677 202.524 119.814 203.145C120.012 203.977 120.025 204.846 120.273 205.666C120.943 207.877 123.052 209.367 123.933 211.491C124.318 212.434 124.454 213.465 124.752 214.446C125.323 216.359 126.502 218.011 127.668 219.638C128.574 220.904 129.48 222.171 130.51 223.351C131.142 224.071 131.874 224.866 131.837 225.835C129.765 225.214 127.805 224.183 126.129 222.817C124.876 221.799 123.784 220.619 122.618 219.501C121.538 218.458 120.025 217.675 119.094 216.533C117.196 214.223 115.831 210.857 115.57 207.901C115.483 206.821 115.644 205.976 115.334 204.896C114.912 203.468 114.404 202.077 114.143 200.611C113.796 198.711 113.498 196.774 113.026 194.873C111.786 189.893 109.589 185.199 108.249 180.243C107.616 177.921 107.182 175.549 106.748 173.177C106.438 171.488 106.053 169.799 105.805 168.097C105.631 166.918 105.668 166.023 105.147 164.918C103.832 162.099 102.455 159.317 101.363 156.386C98.4343 148.487 97.3672 140.03 96.3373 131.659C94.2031 114.433 92.0689 97.1952 89.9347 79.9696C89.2274 74.207 88.4209 68.4568 87.7136 62.7067C87.4034 60.2104 87.2545 57.7265 87.0808 55.2551C86.9071 52.796 85.6911 50.2128 84.9466 47.8655C84.289 45.7667 83.3211 43.4318 83.1722 41.2212C83.0357 39.2962 85.6042 38.8988 87.1677 39.0602C88.0114 39.1471 88.8924 39.4825 89.3267 40.2152C89.7486 40.948 89.4135 42.103 88.5822 42.2396C89.3887 42.165 90.2325 42.1775 90.977 42.5128C91.7215 42.8481 92.3295 43.556 92.3543 44.3757C92.3667 45.1954 91.6098 45.9902 90.8157 45.866C91.8828 46.4497 93.0243 47.108 93.5083 48.2257C93.9922 49.3434 93.3469 50.9828 92.1309 50.9828C92.9747 51.3305 93.6075 52.1751 93.682 53.0817C93.7564 54.0007 93.2725 54.9322 92.4908 55.4041C93.7564 55.7146 94.7987 56.7578 95.1213 58.0246C95.4439 59.2913 95.0096 60.7072 94.0418 61.5765C95.2206 61.8001 96.2008 62.8433 96.3373 64.0355C96.4738 65.2278 95.7914 66.4822 94.6994 66.9789C95.841 67.3888 96.7096 68.4817 96.8337 69.6863C96.9577 70.891 96.3373 72.1454 95.295 72.7788C96.511 72.431 97.8015 73.5612 97.9132 74.828C98.0248 76.0823 97.2183 77.287 96.1636 77.9825C97.392 78.1067 98.5088 79.0381 98.8438 80.2304C99.1788 81.4226 98.7197 82.8012 97.7394 83.5588C98.6577 83.1986 99.551 84.4281 99.2905 85.3844C99.0299 86.3407 98.1241 86.9493 97.2804 87.4709C98.2234 87.4585 99.154 88.1167 99.4394 89.0233C99.7248 89.9299 99.3525 90.998 98.5708 91.532C99.8364 91.7804 100.68 93.1217 100.668 94.4009C100.655 95.6925 99.9481 96.8847 99.0299 97.7914C100.134 97.2946 100.606 98.7476 100.643 99.5301C100.693 100.673 100.072 101.281 99.3897 102.163C100.234 102.536 100.842 103.405 100.904 104.324C100.966 105.243 100.469 106.187 99.6751 106.659C100.382 106.783 100.978 107.379 101.114 108.087C101.251 108.795 100.928 109.565 100.32 109.95C101.114 110.273 101.71 111.018 101.871 111.85C102.02 112.695 101.722 113.601 101.102 114.185C102.231 115.489 102.244 117.613 101.127 118.917C101.884 119.115 102.281 120.01 102.157 120.78C102.033 121.55 101.512 122.195 100.941 122.717C101.673 123.052 102.206 123.785 102.293 124.592C102.38 125.4 101.995 126.232 101.35 126.704C102.641 127.138 103.149 129.026 102.256 130.057C102.405 129.883 103.087 131.137 103.125 131.262C103.323 131.994 103.013 132.429 102.79 133.087C102.194 134.863 103.497 134.354 103.981 135.708C104.192 136.279 103.658 136.838 103.187 137.223C103.832 137.086 104.552 137.484 104.775 138.117C104.998 138.75 104.7 139.508 104.105 139.806C104.837 139.607 105.495 140.477 105.395 141.222C105.308 141.967 104.75 142.576 104.229 143.11C105.122 142.675 106.165 143.743 106.065 144.724C105.966 145.718 105.16 146.475 104.341 147.034C105.246 146.922 106.177 147.531 106.45 148.4C106.723 149.27 106.289 150.3 105.482 150.723C106.165 150.425 107.008 151.021 107.12 151.753C107.232 152.486 106.76 153.231 106.127 153.616C106.971 153.678 107.753 154.275 108.013 155.082C108.274 155.889 108.001 156.833 107.356 157.379C108.038 157.23 108.77 157.702 108.994 158.361C109.217 159.019 108.956 159.789 108.423 160.236C109.416 160.298 110.321 161.043 110.57 162.012C110.818 162.968 110.383 164.073 109.54 164.595C110.334 164.831 110.991 165.514 111.19 166.321C111.388 167.129 111.14 168.035 110.557 168.631C111.674 168.867 112.468 169.997 112.518 171.103C112.555 172.109 111.885 172.879 112.294 173.885C112.964 175.537 114.987 176.53 113.386 178.542C114.019 178.666 114.751 178.79 115.21 179.3C115.669 179.809 115.545 180.827 114.875 180.964C115.421 181.374 115.98 181.796 116.327 182.38C116.401 182.603 116.476 182.789 116.525 182.988Z" fill="#634941"/>
<path d="M71.8682 31.1367C73.3571 25.697 74.7345 20.22 76.0001 14.7183C76.9679 14.9915 77.9358 15.2647 78.9036 15.5379C77.5015 20.7168 76.1118 25.8833 74.7096 31.0621C74.387 32.2296 74.0768 33.4591 74.3126 34.6513C74.3498 34.85 74.3746 35.1233 74.1885 35.2102C74.0024 35.2971 73.9652 34.8376 74.1265 34.9742" fill="#634941"/>
<path d="M72.2403 12.9795C71.26 11.5885 71.0615 9.57659 72.0542 8.18562C73.3446 6.3724 75.9751 6.21095 78.1466 6.64562C79.7472 6.96853 81.4223 7.60191 82.3157 8.98046C83.3456 10.5453 83.0106 12.8056 81.6705 14.1221C79.2137 16.5314 74.1387 15.6745 72.2403 12.9795Z" fill="#F79669"/>
<path d="M61.2839 31.4471C61.2591 25.8087 61.1102 20.1579 60.8496 14.5195C61.8547 14.5195 62.8597 14.532 63.8648 14.532C63.9144 19.8847 63.9641 25.2499 64.0137 30.6026C64.0261 31.8197 64.0509 33.0865 64.5969 34.167C64.6837 34.3532 64.783 34.6016 64.6341 34.7382C64.4852 34.8749 64.3239 34.4402 64.51 34.5271" fill="#634941"/>
<path d="M97.628 16.4942C98.2484 15.7118 98.8316 14.8921 99.3775 14.0228C100.904 11.601 102.827 8.59553 106.053 8.63279C108.498 8.65763 111.029 27.3239 102.976 34.1794C97.963 38.4517 86.2993 40.0041 79.8222 39.793C77.961 39.7309 76.0501 39.0851 74.8093 37.7065C74.6232 37.5202 74.4495 37.2842 74.4495 37.011C74.4371 36.5515 74.8838 36.241 75.2808 36.005C81.9564 32.1054 88.0489 27.1873 93.2603 21.4868C94.7865 19.8226 96.2755 18.233 97.628 16.4942Z" fill="#F79669"/>
<path d="M285.786 387.187C285.463 376.122 287.039 364.87 287.734 353.754C288.367 343.632 289.719 333.573 291.779 323.637C294.397 311.007 297.139 299.246 290.476 287.025C282.907 273.115 266.64 266.62 251.316 262.658C211.051 252.251 163.118 252.176 130.199 223.748C125.695 219.861 121.427 215.527 118.722 210.211C115.322 203.517 114.677 195.83 113.175 188.49C110.942 177.586 106.748 167.178 103.757 156.46C94.1411 122.071 96.995 85.2974 89.0785 50.4736C87.2421 42.4258 83.2343 33.1237 75.5164 29.1247C66.1482 24.2687 55.6136 30.081 48.5906 36.3279C41.7909 42.3761 36.2196 47.8655 26.901 49.7905C21.5903 50.8958 16.0687 51.3926 11.155 53.6778C7.49462 55.3792 4.04514 58.4095 2.68023 62.3092C1.2657 66.3828 -0.384592 71.189 1.30292 75.3744C3.35028 80.4539 8.95878 83.2234 14.3564 84.0679C21.9626 85.2602 28.8243 83.1116 36.232 82.292C44.2973 81.4102 52.7597 81.9566 60.8623 81.8324C64.5227 113.253 67.5503 144.749 69.9575 176.282C70.9874 189.769 71.8932 203.331 70.6027 216.794C68.9524 234.044 64.895 250.897 64.1132 268.297C63.406 284.107 64.4483 300.053 67.4138 315.602C69.8582 328.394 79.2512 341.409 87.5896 351.233C90.431 354.586 93.5207 357.815 95.444 361.765C100.618 372.383 105.395 388.926 106.959 400.389C109.056 415.665 111.624 433.909 113.721 449.185C115.061 458.983 114.416 467.764 116.563 475.774C117.692 479.985 116.699 484.431 121.054 484.456C123.4 481.214 127.805 453.892 128.375 449.93C129.765 440.28 130.72 431.027 133.128 410.858C135.039 394.862 134.344 389.361 135.733 373.315C136.143 368.558 137.024 363.23 140.92 360.461C143.253 358.809 146.218 358.424 149.06 358.101C173.851 355.207 198.643 352.326 223.435 349.432C222.74 349.507 231.984 371.862 232.989 373.799C237.22 381.921 242.146 389.659 247.01 397.408C251.887 405.17 256.775 412.945 260.932 421.117C263.079 425.327 264.704 429.711 266.665 433.996C273.402 448.75 273.824 467.106 273.452 483.412C273.452 496.391 270.424 508.611 269.047 521.403C268.737 524.297 268.427 527.215 268.613 530.122C268.65 530.767 268.737 531.438 269.109 531.972C269.792 532.941 271.156 533.065 272.348 533.09C275.264 533.152 278.192 533.214 281.108 533.264C282.783 533.301 278.291 532.717 279.619 531.699C281.368 530.358 281.207 528.656 281.306 526.458C281.517 521.589 284.123 513.331 284.483 508.512C285.066 500.75 287.808 488.243 288.032 480.457C288.391 467.429 292.052 462.299 295.204 449.632C297.139 441.845 301.432 434.356 300.7 426.358C300.13 420.098 296.544 414.584 293.404 409.145C289.471 402.364 286.009 395.011 285.786 387.187Z" fill="#F79669"/>
<path d="M65.1559 80.1682C59.262 81.8945 52.6484 82.1181 45.7619 82.3913C35.9346 82.7763 26.1197 83.4718 16.342 84.4653C16.95 76.43 16.7887 68.345 15.8457 60.3469C23.8614 59.7632 32.5471 59.3534 39.1235 54.4229C45.4269 49.6911 50.1172 42.7487 57.6241 39.7184C63.6669 37.2842 70.9009 38.079 76.2612 41.7676C77.9488 42.9226 79.4501 44.3508 80.5545 46.0771C88.7315 58.8318 77.8619 76.4548 65.1559 80.1682Z" fill="#FDC793"/>
<path d="M24.1713 62.7315C25.9457 67.6744 26.4916 73.7972 25.3873 78.3426C24.5932 81.5965 23.3648 83.3849 20.0518 84.0555C14.4805 85.1733 6.0305 82.6894 2.44453 78.0818C-0.285276 74.5796 -0.210827 68.3326 0.235869 64.1101C0.335134 63.1041 0.521257 62.0857 0.943136 61.1667C1.73726 59.428 3.30069 58.186 4.88894 57.1304C7.32095 55.5159 9.93908 54.187 12.6813 53.181C13.2769 52.9575 13.8849 52.7588 14.5301 52.7712C15.2994 52.7836 16.0191 53.1065 16.6891 53.4667C18.9847 54.721 20.9452 56.5715 22.3101 58.7946C23.0297 59.9371 23.6626 61.2909 24.1713 62.7315Z" fill="#FFE9B6"/>
<path d="M60.5153 43.6801C62.3889 42.6121 64.8085 42.4879 65.7764 44.9345C66.2975 46.2261 65.553 47.7909 64.3743 48.5237C63.1955 49.2564 61.6693 49.2688 60.3168 48.9335C56.5695 48.0021 58.0833 45.0587 60.5153 43.6801Z" fill="black"/>
<path d="M11.1923 63.5139C9.66612 62.806 6.93631 63.4146 7.56913 65.6128C7.73043 66.1717 8.26399 66.5442 8.80995 66.743C9.86465 67.128 11.2295 66.8796 11.8003 65.9109C12.5076 64.731 12.0361 63.9113 11.1923 63.5139Z" fill="#F79669"/>
<path d="M5.4101 61.6758C3.88389 60.9679 1.15408 61.5764 1.7869 63.7747C1.94821 64.3335 2.48176 64.7061 3.02772 64.9048C4.08242 65.2898 5.44732 65.0414 6.0181 64.0727C6.72537 62.8929 6.25386 62.0732 5.4101 61.6758Z" fill="#F79669"/>
<path d="M3.47461 77.4856C9.16997 80.7146 16.2799 79.125 20.0644 73.7722" stroke="#F79669" stroke-width="1.7879" stroke-miterlimit="10" stroke-linecap="round"/>
<path d="M56.7551 13.8489C55.4274 12.7684 54.7077 10.8807 55.2785 9.27857C56.0354 7.19211 58.5171 6.31034 60.7381 6.14889C62.376 6.02469 64.1504 6.18615 65.3912 7.26663C66.8057 8.49615 67.0911 10.7689 66.1481 12.3958C64.4234 15.4013 59.3112 15.9353 56.7551 13.8489Z" fill="#F79669"/>
<path d="M82.9238 36.9985C90.3812 33.7571 94.6372 30.8013 97.2801 28.1311C103.186 22.1574 104.7 15.1901 108.125 13.7371C109.477 19.2637 108.323 30.0809 102.975 34.2042C96.1386 39.47 86.6587 40.0164 85.3186 39.8301C84.4376 39.7059 83.0975 36.924 82.9238 36.9985Z" fill="#FDC793"/>
<path d="M82.192 74.7037C80.9015 76.4673 79.6235 78.2308 78.333 79.9944C79.3629 81.6586 80.4052 83.3228 81.4351 84.987C81.584 85.2229 81.7453 85.4713 81.9934 85.5955C82.2788 85.7321 82.6262 85.67 82.9489 85.6079C84.8721 85.2105 86.7954 84.8255 88.7187 84.4281C88.334 81.4723 88.1603 78.4792 88.2099 75.4986C86.5845 75.5607 84.959 75.4365 83.3707 75.126C83.7678 75.2378 84.1649 75.3371 84.5619 75.4489" fill="#C96A3E"/>
<path d="M71.9678 93.0968C73.7918 92.8732 75.6034 92.5627 77.4026 92.1777C77.6383 89.8926 78.5814 83.8195 74.9209 85.8439C74.1268 86.2785 71.0744 87.4584 70.8386 88.0793C70.6897 88.4519 72.5386 93.0222 71.9678 93.0968Z" fill="#C96A3E"/>
<path d="M84.8845 91.0228C86.1254 90.8117 87.4158 91.1719 88.7683 92.5132C90.3069 94.0283 91.647 95.7422 92.9623 97.4561C93.2229 97.779 93.4834 98.1267 93.5951 98.5241C93.7192 98.934 93.6695 99.3811 93.6199 99.8033C93.2973 102.635 92.801 105.454 92.1185 108.236C88.545 108.348 84.9714 108.733 81.4599 109.366C79.9957 106.622 78.668 103.815 77.5017 100.946C77.0302 99.7785 76.5835 98.4124 77.1915 97.3194C77.4024 96.9469 77.7002 96.6364 78.0104 96.3507C80.095 94.314 82.3657 91.4575 84.8845 91.0228Z" fill="#C96A3E"/>
<path d="M95.0099 90.5882C93.248 90.7372 91.7838 89.3214 90.5926 88.005C90.4065 87.8063 90.208 87.5703 90.1832 87.2971C90.1583 86.9369 90.4437 86.6264 90.7043 86.3905C91.6597 85.5087 92.6896 84.7014 93.7939 83.9935C94.5881 83.4843 93.4465 83.8942 94.2158 83.3229C94.4019 86.0303 94.5881 88.7253 94.7742 91.4327C93.8932 91.1471 95.4442 91.4079 95.0099 90.5882Z" fill="#C96A3E"/>
<path d="M69.7716 108.385C69.7468 108.472 69.722 108.571 69.7592 108.658C69.7964 108.77 69.9081 108.832 70.0198 108.894C70.9876 109.403 71.9431 109.913 72.9109 110.434C73.2211 110.608 73.5809 110.782 73.9284 110.707C74.1641 110.658 74.3751 110.496 74.5488 110.335C75.4918 109.528 76.2983 108.559 76.9436 107.491C77.018 107.367 77.0925 107.218 77.0552 107.081C77.018 106.969 76.9187 106.882 76.8195 106.808C75.8392 106.087 73.9284 104.013 72.6007 104.175C71.0745 104.374 70.1191 107.143 69.7716 108.385Z" fill="#C96A3E"/>
<path d="M74.0022 117.563C73.7417 118.047 73.4935 118.581 73.5183 119.14C73.5307 119.687 73.7913 120.196 74.0395 120.68C75.5409 123.586 77.0422 126.492 78.5436 129.399C81.8442 129.026 84.8222 127.312 87.6885 125.648C87.8746 125.536 88.0855 125.412 88.1848 125.226C88.2841 125.039 88.2841 124.816 88.2717 124.605C88.1228 122.071 86.2739 119.873 86.0878 117.339C85.0952 117.265 84.0901 117.19 83.0975 117.116C82.0924 117.041 81.199 116.905 80.3552 116.333C79.5611 115.799 79.0648 114.657 78.1342 114.334C76.1365 113.638 74.7964 116.085 74.0022 117.563Z" fill="#C96A3E"/>
<path d="M89.6742 115.936C90.7661 117.19 91.858 118.445 92.9499 119.711C93.8681 119.165 94.7863 118.619 95.6921 118.072C96.0148 117.873 96.3622 117.662 96.4863 117.302C96.9702 115.973 94.3893 112.707 93.0244 112.57C91.8952 112.446 88.7684 114.905 89.6742 115.936Z" fill="#C96A3E"/>
<path d="M96.9335 143.321C97.1444 143.296 100.805 142.911 100.755 142.712C99.4151 137.67 100.122 132.093 97.8641 127.399C95.6802 129.423 93.819 131.957 91.8461 134.18C91.5111 134.565 91.1388 135.024 91.2257 135.534C91.3001 135.943 91.6351 136.229 91.9453 136.515C93.7569 138.167 94.8613 140.439 95.916 142.662C96.0401 142.936 96.2014 143.234 96.4868 143.321C96.6233 143.358 96.7722 143.345 96.9335 143.321Z" fill="#C96A3E"/>
<path d="M79.6484 139.881C80.3184 140.862 81.0009 141.855 81.6709 142.836C81.7826 142.998 81.8942 143.172 82.0804 143.246C82.2665 143.333 82.4774 143.308 82.676 143.284C84.8102 143.023 86.932 142.774 89.0662 142.514C89.1406 142.501 89.2275 142.489 89.2895 142.439C89.3516 142.389 89.3764 142.29 89.4012 142.215C89.7486 140.551 88.9421 138.899 88.5574 137.248C88.21 135.733 88.3217 134.205 88.1604 132.69C86.0758 132.566 83.9416 132.218 82.192 133.584C80.2191 135.124 78.0105 137.484 79.6484 139.881Z" fill="#C96A3E"/>
<path d="M80.6906 156.659C80.3928 156.982 80.095 157.33 80.033 157.764C79.9709 158.137 80.1074 158.51 80.2439 158.87C81.8198 163.105 83.743 167.191 86.0013 171.103C86.1378 171.351 86.2991 171.612 86.5473 171.736C86.8699 171.91 87.267 171.823 87.6268 171.724C91.3741 170.78 95.1089 169.824 98.8562 168.88C98.9555 168.855 96.995 158.795 96.8337 157.864C96.3994 155.529 96.3001 148.723 94.0915 147.692C92.0193 146.736 89.699 148.115 88.2224 149.381C85.5422 151.654 83.0234 154.088 80.6906 156.659Z" fill="#C96A3E"/>
<path d="M78.4328 145.842C76.4723 146.699 74.6111 147.804 72.9236 149.133C72.7622 149.257 72.6009 149.394 72.5389 149.58C72.4644 149.816 72.5761 150.077 72.6754 150.3C73.1221 151.244 73.5564 152.188 74.0031 153.132C74.276 153.716 74.6731 154.386 75.3183 154.424C75.6037 154.436 75.8767 154.312 76.1249 154.2C78.3087 153.194 80.4926 152.188 82.6764 151.182C82.937 151.058 83.2348 150.884 83.2472 150.598C83.2596 150.412 83.1479 150.251 83.0362 150.114C82.3166 149.108 81.5845 148.102 80.8648 147.096C80.7903 146.997 80.7283 146.897 80.7283 146.773C80.7283 146.649 80.8772 146.55 80.9765 146.612" fill="#C96A3E"/>
<path d="M100.668 159.702C101.921 161.068 103.671 162.335 105.296 163.154C105.532 163.279 105.867 163.241 105.991 163.005C106.065 162.856 106.053 162.682 106.016 162.521C105.855 161.676 105.47 160.894 105.135 160.112C103.906 157.268 103.15 154.237 102.405 151.232C101.276 152.387 100.469 154.287 99.8614 155.765C99.6504 156.299 99.4519 156.858 99.4767 157.429C99.5263 158.298 100.072 159.068 100.668 159.702Z" fill="#C96A3E"/>
<path d="M100.221 171.898C99.1542 173.686 98.0871 175.487 96.9952 177.263C96.1018 178.728 94.7245 179.883 93.645 181.225C93.4589 181.46 93.2603 181.734 93.3472 182.019C93.4092 182.243 93.6202 182.392 93.8187 182.516C96.0646 183.92 98.3105 185.335 100.556 186.739C100.891 186.95 101.239 187.173 101.636 187.26C102.157 187.385 102.715 187.273 103.224 187.099C105.47 186.304 107.071 184.155 109.354 183.448C107.778 179.262 106.574 174.928 105.755 170.531C105.681 170.146 105.321 170.631 104.936 170.569C102.951 170.221 101.524 169.724 100.345 171.699C100.308 171.761 100.271 171.823 100.221 171.898Z" fill="#C96A3E"/>
<path d="M79.9088 190.154C82.8868 190.837 85.8027 191.769 88.6193 192.948C89.6368 190.241 90.4682 187.459 91.101 184.64C91.374 183.41 88.5201 181.895 87.515 181.498C86.299 181.001 85.2939 181.038 84.2392 181.846C83.3086 182.553 79.4373 190.042 79.9088 190.154Z" fill="#C96A3E"/>
<path d="M88.6442 206.299C92.925 207.491 97.0073 209.404 100.68 211.913C101.065 212.174 101.487 212.459 101.958 212.434C102.38 212.41 102.74 212.149 103.075 211.888C105.867 209.752 108.671 207.603 111.463 205.467C111.686 205.306 111.91 205.132 112.046 204.883C112.269 204.486 112.207 203.989 112.083 203.555C111.376 200.76 109.118 198.425 108.994 195.556C108.969 195.035 109.006 194.451 108.646 194.079C108.435 193.855 108.137 193.768 107.852 193.669C105.06 192.799 102.268 191.93 99.4766 191.048C97.6277 190.477 95.2826 189.123 93.7191 190.837C92.7141 191.942 88.0238 205.976 88.6442 206.299Z" fill="#C96A3E"/>
<path d="M85.455 63.7498C84.6609 64.5198 83.7303 65.4637 83.9536 66.5566C84.0529 67.0782 84.4127 67.5005 84.7477 67.8979C87.0433 70.6053 89.5249 73.4369 92.9123 74.4553C92.7262 71.2884 92.8255 68.0842 92.354 64.9421C92.1927 63.8492 92.0686 62.5824 91.5598 61.5889C91.3861 61.2411 89.649 58.9684 89.2023 59.403C87.7877 60.7319 86.8323 62.4085 85.455 63.7498Z" fill="#C96A3E"/>
<path d="M88.3096 211.416C86.4236 212.124 84.612 213.006 82.8997 214.049C82.788 214.111 82.6763 214.186 82.6143 214.297C82.5398 214.446 82.577 214.633 82.6143 214.807C83.3339 217.626 83.5573 220.569 83.2843 223.463C87.652 222.121 92.1065 221.041 96.6107 220.259C95.2582 218.942 94.3524 217.154 94.0794 215.278C94.005 214.732 93.943 214.111 93.5087 213.776C93.335 213.639 93.1116 213.565 92.9007 213.502C90.8161 212.832 88.7315 212.149 86.6469 211.478" fill="#C96A3E"/>
<path d="M113.61 218.073C115.297 216.93 117.158 216.048 119.106 215.465C119.268 215.415 119.442 215.365 119.578 215.241C119.963 214.881 119.652 214.248 119.342 213.813C117.754 211.652 116.339 209.342 115.136 206.945C115.012 206.709 114.863 206.436 114.59 206.398C114.342 206.361 114.118 206.548 113.932 206.734C111.786 208.845 109.924 211.441 107.84 213.639C109.217 215.489 111.6 216.98 113.61 218.073Z" fill="#C96A3E"/>
<path d="M96.8214 226.903C96.7346 227.077 96.6353 227.263 96.6601 227.462C96.6973 227.685 96.8835 227.847 97.0572 227.971C100.457 230.554 104.725 231.92 107.79 234.876C108.038 235.112 108.274 235.361 108.597 235.472C109.503 235.808 110.371 234.951 110.979 234.193C113.3 231.337 116.005 228.791 118.995 226.642C114.838 222.631 110.458 218.855 105.867 215.353C103.261 213.366 102.368 216.409 101.363 218.309C99.849 221.178 98.3352 224.034 96.8214 226.903Z" fill="#C96A3E"/>
<path d="M83.2344 236.665C85.716 237.882 87.9495 239.633 89.7115 241.769C89.8852 241.98 90.1085 242.216 90.3815 242.204C90.5552 242.191 90.7041 242.079 90.8406 241.968C92.7266 240.465 94.501 238.801 96.1141 237C96.2382 236.863 96.3746 236.702 96.3746 236.503C96.3746 236.342 96.2754 236.193 96.1761 236.056C94.9849 234.429 92.615 229.337 90.1954 230.231C87.6269 231.188 84.9963 234.653 83.2344 236.665Z" fill="#C96A3E"/>
<path d="M120.273 224.643C120.856 226.456 121.092 228.368 121.316 230.256C121.651 233.1 121.986 235.957 122.321 238.801C127.023 236.95 132.098 236.081 137.136 236.267C137.508 236.28 137.98 236.23 138.067 235.87C138.104 235.708 138.054 235.547 137.992 235.398C137.335 233.622 136.677 231.833 136.019 230.057C135.908 229.772 135.808 229.474 135.635 229.225C135.374 228.853 134.989 228.604 134.617 228.356C131.776 226.481 128.835 224.705 126.093 222.705C123.859 221.078 122.221 220.954 119.591 222.184C119.628 223.028 120.013 223.848 120.273 224.643Z" fill="#C96A3E"/>
<path d="M106.934 241.744C108.745 242.613 110.271 244.091 111.19 245.892C111.276 246.054 111.363 246.24 111.537 246.302C111.661 246.352 111.81 246.314 111.947 246.277C112.654 246.054 113.225 245.544 113.771 245.048C115.111 243.843 116.451 242.626 117.791 241.421C117.89 241.334 117.989 241.235 118.027 241.111C118.076 240.937 118.002 240.763 117.927 240.601C117.021 238.739 115.979 236.975 113.833 237.981C111.475 239.086 109.217 240.49 106.934 241.744Z" fill="#C96A3E"/>
<path d="M90.4439 252.251C90.1585 252.685 89.8607 253.195 90.0221 253.691C90.1337 254.064 90.4812 254.312 90.8038 254.536C94.489 257.119 98.1742 259.702 101.859 262.286C101.984 262.373 102.12 262.46 102.269 262.484C102.678 262.559 102.989 262.161 103.224 261.814C105.024 259.106 107.443 256.809 110.247 255.169C105.967 250.922 103.162 245.457 100.433 240.08C100.246 239.72 97.2436 241.434 96.9955 241.657C96.1517 242.415 96.2013 243.321 95.6678 244.29C94.1292 247.059 92.1563 249.63 90.4439 252.251Z" fill="#C96A3E"/>
<path d="M121.501 245.693C120.955 245.905 120.397 246.128 119.925 246.476C119.144 247.06 118.66 247.979 118.312 248.885C117.63 250.649 117.332 252.561 117.444 254.449C123.884 254.921 130.299 255.554 136.701 256.337C136.614 253.667 136.664 250.984 136.813 248.326C136.9 246.948 136.999 245.569 137.148 244.191C137.309 242.676 137.272 242.353 135.709 241.93C133.649 241.372 131.093 242.539 129.095 243.123C126.551 243.88 124.008 244.737 121.501 245.693Z" fill="#C96A3E"/>
<path d="M203.557 479.09C207.118 458.636 213.508 436.579 204.029 416.745C215.072 413.727 226.897 413.578 238.015 416.335C238.3 416.41 238.598 416.497 238.784 416.733C238.958 416.956 238.958 417.267 238.945 417.552C238.697 426.035 236.712 434.468 233.151 442.168C230.185 448.588 226.152 454.488 223.509 461.07C220.904 467.528 218.509 474.16 216.387 480.829C213.918 488.591 211.697 496.428 209.525 504.277C208.421 508.251 207.329 512.225 206.212 516.199C205.207 519.801 204.649 523.154 202.056 525.961C201.894 526.135 201.721 526.321 201.485 526.408C201.2 526.507 200.889 526.433 200.604 526.358C197.899 525.638 195.194 524.93 192.477 524.21C193.035 518.845 195.479 513.964 197.055 508.847C200.07 499.123 201.82 489.088 203.557 479.09Z" fill="#ECAC73"/>
<path d="M220.37 340.49C220.841 341.136 220.829 341.993 220.841 342.8C220.916 345.657 221.623 348.501 222.926 351.059C203.892 352.338 184.1 354.822 165.141 357.84C161.977 358.349 138.86 361.665 138.302 363.888C140.622 356.288 142.31 348.501 143.339 340.615C143.402 340.168 143.476 339.683 143.786 339.348C144.047 339.075 144.431 338.975 144.791 338.876C156.517 335.709 170.005 337.87 182.053 337.622C194.35 337.622 206.274 336.218 218.223 339.36C219.017 339.571 219.886 339.82 220.37 340.49Z" fill="#FDC793"/>
<path d="M74.524 278.804C74.2014 292.949 75.1816 306.946 80.4303 320.856C83.7433 329.648 92.4911 336.193 99.7002 341.981C101.413 343.359 103.249 344.788 104.093 346.812C105.036 349.06 104.614 351.618 104.167 354.015C102.939 360.709 101.698 367.403 100.47 374.097C92.3918 358.325 78.1968 345.918 72.1913 329.35C65.4908 310.846 63.8281 294.539 64.6223 274.817C65.0566 264.012 64.5726 252.686 65.9748 241.955C67.2156 232.43 70.0074 222.842 71.9679 213.428C72.2781 211.95 73.1343 208.721 75.2685 209.739C76.8567 210.497 76.1867 216.943 76.2363 218.421C76.4597 225.264 76.5217 232.119 76.4225 238.962C76.2612 252.4 74.8342 265.664 74.524 278.804Z" fill="#FDC793"/>
<path d="M158.838 272.333C163.305 266.844 168.281 261.491 172.301 255.691C170.725 254.772 169.025 254.449 167.375 253.344C165.427 252.027 163.466 250.711 161.518 249.394C162.511 246.774 163.987 244.34 165.836 242.241C160.203 241.52 154.718 239.67 149.792 236.838C150.127 240.03 150.475 243.21 150.81 246.401C150.872 247.022 150.934 247.668 150.735 248.264C150.4 249.196 149.482 249.767 148.651 250.301C144.966 252.673 142.236 255.356 140.437 259.342C141.963 260.236 160.252 270.619 158.838 272.333Z" fill="#C96A3E"/>
<path d="M114.379 287.447C120.62 289.397 126.836 291.384 133.04 293.421C136.527 286.354 140.585 279.573 145.163 273.165C141.416 271.563 138.302 268.793 134.914 266.533C131.601 264.335 127.345 262.745 123.623 261.305C123.114 261.106 122.593 260.92 122.047 260.895C121.389 260.882 120.756 261.118 120.148 261.354C116.265 262.869 112.381 264.372 108.497 265.887C111.339 269.042 114.527 271.886 118.002 274.332C118.275 275.91 117.58 288.453 114.379 287.447Z" fill="#C96A3E"/>
<path d="M187.811 285.746C186.93 286.28 185.999 286.876 185.602 287.82C184.982 289.335 185.999 290.962 186.855 292.353C190.181 297.668 191.943 303.953 191.881 310.224C195.33 309.28 198.891 308.771 202.465 308.709C205.939 308.647 212.764 309.206 215.655 306.648C216.101 306.25 216.412 305.729 216.709 305.207C220.767 298.115 224.824 291.036 228.882 283.945C229.341 283.15 229.812 282.231 229.539 281.349C229.192 280.232 227.864 279.809 226.723 279.549C224.303 279.002 221.896 278.456 219.476 277.909C213.285 276.506 209.401 273.836 202.949 276.233C197.353 278.319 192.836 282.703 187.811 285.746Z" fill="#C96A3E"/>
<path d="M171.307 296.017C172.201 294.502 173.094 292.999 173.987 291.484C175.141 289.534 176.221 286.814 174.608 285.237C173.466 284.119 171.642 284.305 170.054 284.429C166.319 284.727 163.341 280.691 159.966 284.516C157.361 287.472 157.41 291.931 160.314 294.588C163.441 297.47 168.59 300.599 171.307 296.017Z" fill="#C96A3E"/>
<path d="M254.703 267.005C250.646 270.246 246.911 273.923 243.61 277.934C243.486 278.095 243.337 278.282 243.387 278.48C243.424 278.63 243.548 278.741 243.66 278.828C247.357 281.859 251.067 284.876 254.765 287.907C254.951 288.056 255.162 288.217 255.41 288.205C255.621 288.192 255.783 288.043 255.944 287.907C260.398 283.957 264.853 280.008 269.32 276.059C266.875 273.277 264.084 270.793 261.044 268.682" fill="#C96A3E"/>
<path d="M315.776 340.528C319.61 361.765 320.504 383.759 328.048 403.978C324.909 402.165 321.285 401.209 317.662 401.258C314.089 378.754 310.528 356.251 306.954 333.747C306.023 327.872 305.08 321.973 303.368 316.273C301.507 310.088 296.395 304.102 295.179 298.041C293.342 288.888 300.154 298.078 301.891 300.873C309.312 312.87 313.282 326.742 315.776 340.528Z" fill="#F79669"/>
<path d="M176.581 259.988C178.058 263.043 181.11 271.985 184.746 271.923C187.649 271.886 199.958 259.901 201.534 261.044C197.514 258.113 193.171 255.616 188.605 253.604C184.622 255.778 180.614 257.902 176.581 259.988Z" fill="#C96A3E"/>
<path d="M108.622 313.056C107.195 315.105 105.942 317.266 104.85 319.514C106.674 320.992 108.547 322.383 110.483 323.687C110.967 324.01 111.488 324.345 112.071 324.345C112.977 324.345 113.659 323.563 114.218 322.855C115.483 321.24 116.737 319.638 118.002 318.024C115.322 315.888 112.369 314.087 109.23 312.708" fill="#C96A3E"/>
<path d="M100.507 287.547C102.405 288.491 107.691 280.406 109.069 278.779C109.23 278.592 109.404 278.369 109.379 278.108C109.354 277.81 109.056 277.624 108.796 277.475C107.307 276.642 105.78 275.897 104.205 275.252C103.932 275.14 103.634 275.028 103.336 275.09C103.026 275.152 102.802 275.401 102.579 275.624C101.313 276.99 94.4889 282.554 97.1691 284.777C98.2858 285.709 99.3901 286.628 100.507 287.547Z" fill="#C96A3E"/>
<path d="M151.492 319.887C152.944 322.842 154.073 325.947 154.855 329.139C157.671 326.332 160.501 323.513 163.317 320.706C160.166 319.253 156.952 317.937 153.701 316.757" fill="#C96A3E"/>
<path d="M256.726 316.148C256.639 316.447 256.54 316.757 256.589 317.068C256.651 317.539 256.999 317.912 257.334 318.247C259.059 320.011 260.796 321.774 262.521 323.538C265.25 321.812 267.98 320.098 270.71 318.372C269.184 314.161 268.204 309.74 267.806 305.269C261.131 306.399 258.835 309.38 256.726 316.148Z" fill="#C96A3E"/>
<path d="M236.711 325.264C233.684 325.823 229.986 325.215 227.864 324.32C227.492 324.159 227.095 323.973 226.884 323.625C226.636 323.215 226.71 322.706 226.797 322.234C227.132 320.284 228.919 318.781 228.671 316.819C228.236 313.429 228.857 309.914 230.42 306.871C235.433 307.84 240.434 308.796 245.447 309.765C246.166 309.902 247.06 310.212 247.122 310.945C247.159 311.293 246.985 311.615 246.812 311.913C244.963 315.242 242.828 321.787 239.788 324.035C238.957 324.656 237.89 325.053 236.711 325.264Z" fill="#C96A3E"/>
<path d="M214.911 266.26C215.333 267.104 215.792 267.986 216.549 268.557C217.256 269.092 218.149 269.303 219.03 269.402C224.056 269.936 229.18 266.347 230.421 261.441C230.657 260.522 230.669 259.367 229.875 258.846C229.602 258.672 229.267 258.597 228.944 258.535C225.619 257.877 216.846 254.424 213.769 255.927C209.563 257.964 213.558 263.329 214.911 266.26Z" fill="#C96A3E"/>
<path d="M164.942 279.921C166.171 280.828 167.784 281.113 169.298 281.002C171.159 280.865 172.722 280.579 173.802 279.089C174.186 278.567 176.395 273.053 176.656 273.128C174.211 272.345 171.73 271.637 169.236 271.016C167.697 270.631 166.791 270.458 165.215 270.333C165.401 271.476 164.756 272.631 163.888 273.413C163.019 274.196 161.964 274.705 160.984 275.338C160.748 275.5 160.488 275.723 160.525 275.997C160.55 276.17 160.699 276.307 160.835 276.419C162.25 277.611 163.714 278.729 165.24 279.76C165.761 280.132 164.483 280.343 164.942 279.921Z" fill="#C96A3E"/>
<path d="M143.7 295.06C141.007 298.091 138.315 301.121 135.622 304.151C137.719 305.803 139.816 307.467 141.913 309.119C142.285 309.405 142.707 309.715 143.166 309.653C143.514 309.603 143.787 309.367 144.047 309.131C146.765 306.685 149.494 304.226 152.212 301.779C152.423 301.593 152.646 301.369 152.659 301.084C152.671 300.773 152.448 300.525 152.224 300.301C150.189 298.264 148.167 296.215 146.132 294.178C145.735 293.781 145.238 293.346 144.68 293.433C144.184 293.508 143.849 293.98 143.588 294.414C142.707 295.855 141.901 297.333 141.169 298.861" fill="#C96A3E"/>
<path d="M229.8 298.587C234.44 299.978 238.969 301.754 243.337 303.866C244.777 301.965 246.228 300.053 247.668 298.153C248.288 297.345 248.983 296.476 249.976 296.253C250.36 296.166 250.869 296.104 250.956 295.719C251.005 295.507 250.894 295.296 250.77 295.11C248.797 291.931 244.404 286.963 240.161 287.845C237.257 288.453 231.103 298.985 229.8 298.587Z" fill="#C96A3E"/>
<path d="M271.988 294.067C274.011 294.837 276.033 295.607 278.068 296.377C278.676 296.613 279.309 296.849 279.967 296.836C280.835 296.824 281.642 296.389 282.399 295.967C284.632 294.725 286.878 293.471 289.112 292.229C290.476 291.471 283.342 279.623 280.488 279.586C275.81 279.524 273.192 290.59 271.988 294.067Z" fill="#C96A3E"/>
<path d="M282.051 308.622C280.178 310.1 278.453 311.752 276.877 313.541C279.061 315.838 280.649 318.707 281.418 321.787C284.793 318.024 287.97 314.075 290.935 309.976C289.248 308.983 287.56 307.977 285.873 306.983C285.128 306.536 284.347 306.089 283.491 306.014C282.634 305.94 281.654 306.337 281.369 307.157" fill="#C96A3E"/>
<path d="M149.779 289.024C151.119 288.168 151.454 286.392 151.988 284.889C152.534 283.361 153.402 281.933 154.519 280.766C154.941 280.319 155.437 279.76 155.226 279.188C155.152 278.977 154.991 278.816 154.842 278.654C153.464 277.263 152.137 275.748 150.66 274.469C150.052 277.114 150.176 279.313 148.154 281.324C147.149 282.33 145.436 282.964 145.622 284.33C145.684 284.802 149.878 288.962 149.779 289.024Z" fill="#C96A3E"/>
<path d="M83.7062 293.98C83.1354 297.209 82.5523 300.425 81.9815 303.655C81.7954 304.685 81.6589 305.878 82.3413 306.672C82.8501 307.269 83.669 307.455 84.4383 307.604C87.6272 308.25 90.8037 308.896 93.9926 309.541C93.9678 306.213 93.8437 302.76 92.2803 299.817C90.7169 296.874 87.317 294.651 84.1157 295.532" fill="#C96A3E"/>
<path d="M122.134 363.64C119.354 364.509 117.146 366.993 116.6 369.85C119.181 370.62 121.774 371.39 124.355 372.16C125.124 372.383 125.968 372.619 126.7 372.284C127.271 372.036 127.655 371.489 127.978 370.968C129.827 367.937 130.596 363.826 128.574 360.908C126.539 357.989 121.104 357.94 119.962 361.305" fill="#C96A3E"/>
<path d="M82.5896 515.74C83.0735 508.301 83.4954 500.849 83.9296 493.41C84.8106 478.532 85.5551 463.616 87.0069 448.775C82.1056 451.383 77.9365 451.358 72.4148 447.334C71.4346 471.999 70.4419 496.664 69.5734 521.329C69.4245 525.39 70.0076 534.866 75.3556 535.561C83.9296 536.679 82.2918 520.385 82.5896 515.74Z" fill="#ECAC73"/>
<path d="M69.4491 524.918C69.4491 524.918 76.9064 528.693 81.9069 526.147C80.9267 534.245 82.1923 537.424 75.07 538.294C67.9601 539.163 69.4491 524.918 69.4491 524.918Z" fill="#2D2A2C"/>
<path d="M127.147 517.044C127.271 509.592 127.345 502.128 127.432 494.677C127.606 479.773 127.643 464.833 128.388 449.942C123.611 452.786 119.441 452.96 113.746 449.197C113.932 473.874 114.118 498.564 114.416 523.241C114.466 527.302 115.483 536.741 120.856 537.188C129.48 537.909 127.073 521.701 127.147 517.044Z" fill="#FFEDDC"/>
<path d="M114.466 526.843C114.466 526.843 122.097 530.258 126.961 527.476C126.365 535.611 127.78 538.728 120.707 539.933C113.634 541.138 114.466 526.843 114.466 526.843Z" fill="#2D2A2C"/>
<path d="M192.662 519.578C192.662 519.578 199.288 522.509 204.773 521.316C201.782 528.904 201.844 534.915 194.734 533.947C187.625 532.978 192.662 519.578 192.662 519.578Z" fill="#2D2A2C"/>
<path d="M268.638 521.155C268.638 521.155 278.192 522.856 283.54 521.155C281.269 528.979 282.708 534.257 275.599 535.238C261.304 537.213 268.638 521.155 268.638 521.155Z" fill="#2D2A2C"/>
<path d="M262.371 424.122C277.186 423.986 290.587 422.607 297.809 417.031C302.971 429.214 301.668 428.668 297.809 441.447C293.95 454.239 288.354 480.096 286.418 494.304C284.482 508.512 281.306 526.445 281.306 526.445L266.962 526.818C266.962 526.818 270.747 499.533 273.551 477.277C276.343 455.009 262.371 424.122 262.371 424.122Z" fill="#FFEDDC"/>
<path d="M18.5127 71.2635C20.0265 72.0832 21.6644 73.7226 21.7885 75.896" stroke="#F79669" stroke-width="1.7879" stroke-miterlimit="10" stroke-linecap="round"/>
</svg>
