<svg width="62" height="48" viewBox="0 0 62 48" fill="none" xmlns="http://www.w3.org/2000/svg">
<path d="M19.2736 10.7116C34.3331 1.04034 50.1526 4.86282 52.8007 5.55363C52.8928 7.74118 53.4224 25.6331 38.9846 37.9986C22.221 52.3443 1.12832 45.7355 0 45.3671C0.0460538 43.5249 1.03627 22.4323 19.2736 10.7116Z" fill="#F89726"/>
<path d="M19.2739 10.7116C34.3335 1.04034 50.153 4.86282 52.8011 5.55363C44.7417 12.1393 36.5671 18.5638 28.2774 24.8502C18.9976 31.8734 9.57959 38.7123 0.0234375 45.3671C0.0464644 43.5249 1.03666 22.4323 19.2739 10.7116Z" fill="#E58225"/>
<path d="M61.3202 0.0271017C61.4814 -0.041979 61.6656 0.0270961 61.7807 0.165257C61.8959 0.303419 61.8959 0.533761 61.7807 0.671922C52.0634 7.44183 42.3921 14.3038 32.8129 21.258C23.9706 27.6594 15.1973 34.153 6.49316 40.7157C14.7828 33.9688 23.1877 27.3831 31.7537 21.0047C41.448 13.7743 51.3035 6.79701 61.3202 0.0271017Z" fill="#AB5826"/>
<path d="M7.34594 35.7879C7.36897 35.857 8.88879 35.2813 11.3527 34.6366C13.1257 34.153 14.6225 33.8537 15.5896 33.6695C14.4613 33.6925 12.8494 33.8307 10.9612 34.3603C8.98087 34.9129 7.32291 35.7188 7.34594 35.7879Z" fill="#AB5826"/>
<path d="M8.6808 30.8834C8.72686 30.9985 11.3519 30.1926 15.6118 29.3406C18.6974 28.7189 21.2305 28.3735 22.9344 28.1662C21.0232 28.0971 18.26 28.1662 15.0132 28.8339C11.5361 29.5708 8.65777 30.7452 8.6808 30.8834Z" fill="#AB5826"/>
<path d="M12.0893 25.0576C12.1353 25.2188 15.4973 24.4359 20.9086 23.7451C24.8232 23.2615 28.0239 23.0311 30.1654 22.916C27.7936 22.6627 24.3166 22.5015 20.1717 23.0542C15.7736 23.6759 12.0432 24.8964 12.0893 25.0576Z" fill="#AB5826"/>
<path d="M18.9278 18.3337C18.9509 18.4949 22.3819 18.0344 27.8393 17.8502C31.7769 17.712 35.0006 17.804 37.1421 17.8731C34.7934 17.4126 31.3394 16.906 27.1946 17.0903C22.7273 17.2745 18.9048 18.1725 18.9278 18.3337Z" fill="#AB5826"/>
<path d="M26.7804 12.2083C26.8034 12.3695 30.2344 11.9089 35.6918 11.7247C39.6294 11.5865 42.8531 11.6787 44.9946 11.7477C42.6459 11.2872 39.1919 10.7806 35.047 10.9648C30.5798 11.149 26.7574 12.0471 26.7804 12.2083Z" fill="#AB5826"/>
<path d="M10.8919 40.6926C10.8229 40.6465 11.8591 39.38 13.2637 37.2385C14.2769 35.6957 15.0368 34.3832 15.5204 33.5082C15.1289 34.5674 14.4841 36.0642 13.4019 37.676C12.2275 39.4261 10.938 40.7386 10.8919 40.6926Z" fill="#AB5826"/>
<path d="M15.9804 40.9689C15.8653 40.8998 17.4772 38.6431 19.6187 34.8667C21.1615 32.1495 22.3128 29.8239 23.0497 28.3041C22.5201 30.1462 21.576 32.7482 19.9181 35.6266C18.122 38.6662 16.0725 41.0379 15.9804 40.9689Z" fill="#AB5826"/>
<path d="M22.5661 39.5873C22.4279 39.4952 24.224 36.5477 26.5727 31.62C28.2767 28.0738 29.4971 25.0803 30.257 23.1C29.7504 25.4487 28.8063 28.7877 26.9872 32.5411C25.0529 36.5247 22.7042 39.6794 22.5661 39.5873Z" fill="#AB5826"/>
<path d="M30.6718 34.6135C30.5337 34.5445 32.0535 31.4359 33.9417 26.3239C35.3003 22.6396 36.2443 19.554 36.843 17.5046C36.5437 19.8763 35.922 23.3074 34.4483 27.1989C32.8594 31.3208 30.833 34.6826 30.6718 34.6135Z" fill="#AB5826"/>
<path d="M39.6064 27.5902C39.4682 27.5211 40.988 24.4126 42.8762 19.3006C44.2348 15.6163 45.1789 12.5307 45.7776 10.4813C45.4782 12.853 44.8565 16.2839 43.3828 20.1755C41.817 24.3203 39.7676 27.6593 39.6064 27.5902Z" fill="#AB5826"/>
</svg>
