<svg width="56" height="28" viewBox="0 0 56 28" fill="none" xmlns="http://www.w3.org/2000/svg">
<path d="M25.0611 25.2533C12.4547 19.8405 8.11736 8.16849 7.41211 6.19378C8.75209 5.18879 19.8775 -2.81593 33.9121 1.04534C50.2034 5.52371 55.0521 21.7446 55.2989 22.6086C54.1 23.3667 40.2946 31.7945 25.0611 25.2533Z" fill="#F89726"/>
<path d="M25.0611 25.2533C12.4547 19.8405 8.11736 8.1685 7.41211 6.19379C15.0465 8.48586 22.628 10.919 30.1742 13.4756C38.6196 16.3495 46.9946 19.382 55.3166 22.6086C54.1 23.3667 40.2946 31.7945 25.0611 25.2533Z" fill="#E58225"/>
<path d="M0.235825 3.14349C0.130037 3.05534 0.0771837 2.91437 0.112446 2.79095C0.147709 2.6499 0.288747 2.56175 0.429798 2.57938C8.89286 5.84119 17.3912 9.03244 25.9247 12.1356C33.7707 14.9918 41.6519 17.7776 49.5684 20.4928C41.7225 18.1302 33.947 15.609 26.2245 12.929C17.4793 9.86113 8.8223 6.61687 0.235825 3.14349Z" fill="#AB5826"/>
<path d="M46.0772 22.062C46.1125 22.0091 45.0899 21.3038 43.6265 20.0167C42.5686 19.0823 41.7399 18.2713 41.1934 17.7423C41.687 18.4476 42.4804 19.4173 43.6088 20.387C44.8254 21.4096 46.042 22.1149 46.0772 22.062Z" fill="#AB5826"/>
<path d="M42.3752 23.3138C42.4457 23.2433 40.7883 21.9209 38.4257 19.5759C36.7155 17.8833 35.3932 16.42 34.5469 15.4326C35.3227 16.6668 36.5568 18.4123 38.3729 20.1755C40.3123 22.062 42.3047 23.3843 42.3752 23.3138Z" fill="#AB5826"/>
<path d="M37.2443 23.6488C37.3324 23.5606 35.393 21.7622 32.6425 18.6062C30.6501 16.3318 29.1338 14.3923 28.1465 13.0876C29.0104 14.7097 30.3857 16.9841 32.5191 19.3643C34.7759 21.9209 37.1385 23.7545 37.2443 23.6488Z" fill="#AB5826"/>
<path d="M30.0332 22.203C30.1214 22.1148 28.3582 20.1402 25.9075 16.7726C24.1444 14.3395 22.8044 12.2589 21.9404 10.866C22.6457 12.5586 23.8093 14.9565 25.7135 17.5131C27.7235 20.246 29.9274 22.2911 30.0332 22.203Z" fill="#AB5826"/>
<path d="M22.7862 19.8404C22.8743 19.7523 21.1112 17.7775 18.6604 14.4099C16.8973 11.9768 15.5573 9.89636 14.6934 8.50348C15.3986 10.1961 16.5623 12.5939 18.4665 15.1504C20.4765 17.8833 22.6804 19.9286 22.7862 19.8404Z" fill="#AB5826"/>
<path d="M47.6643 17.7071C47.6643 17.7599 46.4301 17.6541 44.473 17.6894C43.0625 17.707 41.8988 17.7953 41.1406 17.8658C41.9693 17.6542 43.2035 17.425 44.7021 17.4073C46.289 17.4073 47.6643 17.6542 47.6643 17.7071Z" fill="#AB5826"/>
<path d="M45.6545 14.3747C45.6545 14.4805 43.5388 14.4277 40.2241 14.6745C37.8262 14.8685 35.8868 15.1329 34.582 15.3269C35.9749 14.8861 38.0378 14.3571 40.5591 14.1808C43.2743 13.9869 45.6545 14.2689 45.6545 14.3747Z" fill="#AB5826"/>
<path d="M41.9517 10.778C41.9517 10.9014 39.307 11.0248 35.1813 11.6419C32.2016 12.0827 29.7861 12.594 28.1816 12.9642C29.8919 12.2766 32.4132 11.4303 35.5692 10.9895C38.9368 10.5135 41.9517 10.6545 41.9517 10.778Z" fill="#AB5826"/>
<path d="M35.322 7.78055C35.3397 7.90397 32.7126 8.27428 28.6574 9.26163C25.7306 9.98452 23.368 10.7074 21.8164 11.2187C23.4561 10.39 25.8893 9.3145 28.9924 8.57398C32.2895 7.78057 35.2868 7.6395 35.322 7.78055Z" fill="#AB5826"/>
<path d="M27.0359 5.10066C27.0535 5.22408 24.4265 5.59428 20.3713 6.58163C17.4444 7.30452 15.0818 8.02738 13.5303 8.53869C15.17 7.71002 17.6031 6.6345 20.7063 5.89398C24.021 5.1182 27.0183 4.97724 27.0359 5.10066Z" fill="#AB5826"/>
</svg>
