<svg width="267" height="191" viewBox="0 0 267 191" fill="none" xmlns="http://www.w3.org/2000/svg">
<path d="M173.253 31.6079C173.05 26.6112 172.846 21.5919 172.643 16.3917C175.762 15.7813 178.814 15.1708 182.115 14.5152C182.612 20.6649 183.109 26.6791 183.607 32.6932C183.742 32.7158 183.878 32.7384 184.036 32.761C184.873 30.6357 185.686 28.5104 186.5 26.3625C187.789 22.9485 189.055 19.5345 190.411 16.1657C190.66 15.5778 191.293 14.8769 191.88 14.7413C194.684 14.0856 197.532 13.6108 200.471 13.0681C200.584 13.4977 200.719 13.8369 200.765 14.1986C202.031 25.3903 203.251 36.582 204.562 47.7737C204.743 49.3111 204.11 49.8989 202.799 50.012C199.996 50.2833 197.17 50.5094 194.367 50.7129C192.92 50.8259 192.265 50.2381 192.265 48.6554C192.265 44.1335 192.106 39.6116 191.7 34.9993C191.496 35.3837 191.27 35.768 191.112 36.1524C189.371 40.6743 187.698 45.2188 185.845 49.6728C185.506 50.4868 184.466 51.3912 183.629 51.5268C181.165 51.9564 178.656 52.0468 176.147 52.2051C174.7 52.2955 174.112 51.7303 174.022 50.125C173.773 45.3771 173.298 40.6517 173.276 35.8811C173.14 37.3055 173.095 38.7525 172.869 40.1769C171.354 49.0398 164.233 54.5339 154.874 54.1721C145.538 53.8104 139.457 48.4519 138.168 39.1595C137.761 36.1298 137.558 32.9645 137.988 29.98C139.434 19.8284 147.233 15.51 156.253 15.7587C165.318 16.0074 171.06 21.2076 172.62 30.1835C172.71 30.6809 172.824 31.1557 172.937 31.6305H173.253V31.6079ZM155.779 29.46C150.76 29.7765 148.499 31.8792 148.545 36.4463C148.567 37.9385 148.929 39.4308 149.291 40.8778C149.404 41.33 150.104 41.9178 150.579 41.963C152.817 42.0987 155.1 42.3926 157.271 42.0309C160.774 41.443 162.04 39.7247 162.357 36.2428C162.809 30.8392 161.136 29.1209 155.779 29.46Z" fill="#FFCB05"/>
<path d="M262.08 30.78L252.192 31.3711C252.357 32.5231 252.458 33.3885 252.552 34.1575C256.218 33.9384 259.744 33.8243 263.305 33.4663C265.087 33.3113 266.035 33.7872 266.093 35.575C266.215 38.424 266.334 41.2248 266.312 44.0825C266.289 44.5196 265.606 45.2382 265.175 45.3124C257.24 46.174 249.301 46.9875 241.074 47.8182C240.784 38.9276 240.572 30.5165 240.317 22.2048C240.016 22.0291 239.911 21.8902 239.814 21.8959C236.418 21.7601 236.324 21.8141 235.827 18.3581C235.487 15.9094 235.482 13.3922 235.318 10.6426C240.603 9.98772 245.449 9.26235 250.306 8.72994C254.298 8.29767 258.307 8.15482 262.301 7.77079C263.408 7.65623 264.103 7.95355 264.17 9.06307C264.42 12.437 264.573 15.8167 264.784 19.3382C259.93 19.9189 255.507 20.4253 251.035 20.9347L251.188 23.4914L261.558 22.8715L262.031 30.7829L262.08 30.78Z" fill="#FFCB05"/>
<path d="M233.104 21.3772C229.739 21.772 226.95 22.0839 223.969 22.4074C224.572 27.6483 225.17 32.7927 225.814 37.8859C226.123 40.627 226.435 43.4163 226.84 46.1515C227.012 47.4 226.518 48.0588 225.412 48.1734C222.183 48.4148 219 48.6051 215.765 48.75C214.463 48.8279 214.079 48.0763 214.05 46.7709C213.876 39.8099 213.65 32.8035 213.428 25.8454C213.382 25.0736 213.336 24.3017 213.281 23.3851C210.725 23.538 208.211 23.5914 205.711 23.8861C204.222 24.0719 203.461 23.4881 203.332 22.1402C203.071 19.3963 202.859 16.6495 202.74 13.8487C202.714 13.4145 203.49 12.6419 203.921 12.5677C212.912 11.5461 221.909 10.621 230.911 9.79243C231.393 9.7636 232.359 10.5289 232.385 10.963C232.734 14.3794 232.891 17.8074 233.104 21.3772Z" fill="#FFCB05"/>
<path d="M1.42418 47.4798C1.53721 45.3545 1.46937 43.2066 1.78585 41.1039C3.36828 30.794 11.3482 26.5435 20.255 26.8826C30.3373 27.267 36.3279 33.7559 36.9383 44.7893C37.0739 47.3894 36.9609 50.1025 36.3957 52.6348C34.6325 60.6611 27.489 65.6578 18.6952 65.296C8.45467 64.8665 2.55449 58.7167 1.42418 47.4798ZM26.1778 45.3997C25.4318 40.7196 26.0422 40.9909 20.888 40.6065C19.7125 40.5161 18.4918 40.697 17.3388 40.9457C13.6993 41.7144 11.8908 44.3371 12.4786 48.6103C13.1567 53.4487 12.6594 53.1096 18.0849 53.5843C18.4465 53.6296 18.8309 53.5843 19.2152 53.5617C24.3919 53.2452 26.6752 50.5547 26.1778 45.3997Z" fill="#FFCB05"/>
<path d="M80.3416 22.6999C81.065 27.674 81.7206 32.1959 82.3988 36.9212C83.7325 36.7404 84.9533 36.5821 86.2418 36.4012C86.8974 31.6306 87.553 26.9957 88.2085 22.1799C92.0516 22.2251 95.7816 22.2703 99.7376 22.3155C98.7656 27.2896 97.997 32.0602 96.8215 36.7178C96.0755 39.657 96.4372 42.0084 98.0874 44.6311C100.506 48.4973 102.36 52.7026 104.553 56.9984C103.784 57.3602 103.287 57.7898 102.744 57.8576C99.5794 58.2646 96.4145 58.6941 93.2497 58.875C92.5941 58.9202 91.5542 58.0837 91.2604 57.4054C90.1527 54.941 89.2936 52.3861 88.3442 49.8538C87.2817 47.0503 87.1913 47.0051 83.9586 47.932C84.4107 51.0748 84.7724 54.2401 85.3376 57.3828C85.6088 58.875 85.1115 59.5759 83.7325 59.7116C80.7938 59.9829 77.855 60.2316 74.9162 60.4351C73.5598 60.5255 72.9721 59.9603 72.9042 58.4454C72.6104 51.527 72.2034 44.6311 71.8191 37.7352C71.7739 37.1247 71.7287 36.4917 71.6609 35.8586C71.48 35.7682 71.2992 35.6325 71.141 35.6325C67.9309 35.6099 67.8179 35.6325 67.2753 32.4446C66.9136 30.3645 66.891 28.194 66.8458 26.0687C66.8458 25.6165 67.3657 24.8026 67.7274 24.7347C71.8644 24.0338 76.0013 23.4008 80.3416 22.6999Z" fill="#FFCB05"/>
<path d="M107.786 33.9368C106.475 34.4116 105.367 34.8186 104.101 35.2708C102.654 31.6985 101.818 28.0131 101.614 24.1695C101.592 23.7851 102.112 23.1747 102.541 22.9712C109.527 19.625 116.806 17.7032 124.582 19.105C130.121 20.0998 133.67 23.4912 134.687 29.1436C135.049 31.2237 135.185 33.4168 134.936 35.4968C134.258 41.1266 130.392 44.7893 124.492 45.7615C123.135 45.9876 121.779 46.1459 120.242 46.3494C120.626 49.1303 120.92 51.7983 121.417 54.421C121.689 55.9132 121.214 56.6141 119.812 56.7497C116.874 57.021 113.935 57.2697 111.019 57.4732C109.64 57.5637 109.074 56.9532 109.029 55.4836C108.758 48.9495 108.351 42.4379 107.989 35.9038C107.922 35.316 107.854 34.7055 107.786 33.9368ZM118.298 33.0324C118.637 35.2933 118.953 37.283 119.27 39.3178C121.53 39.3405 123.791 39.4761 124.718 37.283C125.17 36.2203 125.012 34.2533 124.311 33.4846C122.683 31.7663 120.468 33.1002 118.298 33.0324Z" fill="#FFCB05"/>
<path d="M46.5912 37.916C43.9011 38.1421 41.3466 38.3003 38.8147 38.5716C37.8201 38.6847 37.2097 38.3455 37.0741 37.3733C36.7124 34.5245 36.3959 31.6758 36.1472 28.8044C36.1246 28.42 36.6219 27.6965 36.961 27.6513C46.0713 26.3399 55.2041 25.0738 64.7439 23.7625C65.083 27.9678 65.3995 31.6531 65.6934 35.4967C62.6189 35.9263 59.9062 36.2881 56.9448 36.695C57.3065 39.4534 57.6682 42.1665 58.0525 44.8797C58.7533 49.7859 59.4315 54.7148 60.2227 59.621C60.4488 61.0454 59.8836 61.6559 58.6177 61.7915C55.6789 62.0855 52.7401 62.3115 49.8013 62.515C48.4901 62.6055 47.812 62.1081 47.7668 60.5706C47.4955 53.72 47.1112 46.8919 46.7495 40.0413C46.7269 39.363 46.6591 38.6847 46.5912 37.916Z" fill="#FFCB05"/>
<path d="M178.633 1.26614C184.601 5.94628 188.964 4.36363 192.92 1.43051e-05C193.666 0.610468 194.503 1.15309 195.204 1.83137C197.645 4.27319 197.51 7.48372 194.932 9.74467C191.225 13.0456 182.454 13.7691 178.181 11.1238C174.316 8.74985 174.497 4.45406 178.633 1.26614Z" fill="#FFCB05"/>
<path d="M43.0767 96.4924C43.2761 98.8289 43.4755 101.08 43.6465 103.303C43.7889 105.012 43.8744 106.722 44.0738 108.431C44.1308 109.087 43.9598 109.514 43.2761 109.514C41.2248 109.514 39.1736 109.486 37.1508 109.372C36.9513 109.372 36.6095 108.716 36.581 108.375C36.524 106.779 36.5525 105.183 36.5525 103.673H26.3531C26.4956 105.297 26.5525 106.722 26.7235 108.147C26.8374 109.087 26.4955 109.571 25.6124 109.543C23.7035 109.543 21.8232 109.486 19.9144 109.372C19.658 109.343 19.2022 108.802 19.2306 108.488C19.3161 104.841 19.487 101.165 19.6295 97.3757C20.5127 97.3188 21.3389 97.2903 22.2506 97.2333C22.9058 94.4408 23.5896 91.6484 24.2733 88.742C23.8745 88.7135 23.5896 88.685 23.3047 88.685C21.4813 88.7135 21.3958 88.685 21.2819 86.9184C21.1679 85.5791 21.2534 84.2684 21.2249 82.9292C21.2249 82.2453 21.4813 81.9034 22.222 81.8749C26.8374 81.7039 31.4243 81.5045 36.0397 81.2765C36.7804 81.248 36.9229 81.647 37.0653 82.2168C38.1764 86.5195 39.316 90.8506 40.3701 95.1817C40.5981 96.179 40.9114 96.6919 41.994 96.4354C42.2789 96.4354 42.5924 96.4924 43.0767 96.4924ZM34.1023 96.9198C33.618 94.4123 33.1337 92.1043 32.7348 89.7963C32.6209 89.1124 32.393 88.7705 31.5953 88.742C30.7406 88.7135 30.5981 89.1694 30.4841 89.8248C30.3702 90.5371 30.1707 91.2495 30.0568 91.9333C29.7719 93.586 29.487 95.2672 29.2021 96.9198H34.1023Z" fill="#FEFFBB"/>
<path d="M31.111 159.408C31.5953 167.956 31.8802 176.533 32.7064 185.052C33.0768 188.928 31.7092 190.238 28.205 190.238C22.5925 190.238 16.9799 190.238 11.3674 190.181C8.43292 190.153 7.23637 188.871 7.37881 185.651C7.9771 171.575 8.26199 157.499 8.66085 143.422C8.68935 142.311 8.66085 141.2 8.66085 140.174C1.62383 139.091 1.62382 139.091 0.854584 131.996C-0.65538 117.863 0.455757 116.495 14.6438 115.641C19.2022 115.356 24.6722 113.703 28.091 115.612C31.3674 117.407 32.564 123.021 34.5867 126.981C38.4899 134.589 42.3645 142.226 46.524 150.403C47.2932 149.121 47.8915 148.238 48.3759 147.298C52.9913 138.179 57.6636 129.061 62.1365 119.886C63.2192 117.664 64.6436 116.638 67.0653 116.467C72.1365 116.068 77.2077 115.413 82.6208 114.843C83.1336 122.821 83.6749 130.572 84.1023 138.322C85.014 154.165 85.8117 170.008 86.8658 185.85C87.0652 188.956 85.8402 190.124 83.1051 190.153C77.3786 190.238 71.6237 190.238 65.8687 190.21C62.6493 190.181 61.3103 188.871 61.4528 185.252C61.7946 176.561 61.5667 167.87 61.5667 158.695C56.8089 167.272 52.1365 175.735 46.8944 185.166C41.6237 175.963 36.8089 167.557 32.0226 159.151C31.7092 159.208 31.3959 159.294 31.111 159.408Z" fill="#FEFFBB"/>
<path d="M66.3249 96.008C67.3505 96.1505 68.0058 96.2359 68.775 96.3499V89.1124C68.0058 89.3119 67.265 89.5398 66.2394 89.7963C65.9545 88.1151 65.5841 86.4624 65.4132 84.8098C65.1852 82.4163 65.2422 82.3878 67.5784 81.7894C71.9658 80.6211 76.4388 80.1937 80.9117 81.1055C85.0143 81.9604 86.9231 84.8668 85.9829 88.571C85.5841 90.1667 84.5299 91.1925 83.1339 91.9618C86.2678 94.0134 87.151 96.8343 85.7265 99.9687C84.6154 102.391 82.4217 103.331 80.057 103.673C75.5841 104.328 71.1681 103.929 66.8947 102.391C66.0684 102.106 65.6411 101.678 65.7835 100.738C66.04 99.1993 66.1539 97.6606 66.3249 96.008ZM74.9288 96.7488C75.1567 96.8058 75.2992 96.8343 75.4416 96.8343C76.1254 96.8343 76.8092 96.8058 77.4929 96.8343C78.4616 96.8343 79.1453 96.5494 79.1738 95.4666C79.2308 94.3553 78.718 93.6145 77.5784 93.5005C76.6952 93.415 75.7835 93.472 74.9003 93.472V96.7488H74.9288ZM74.8433 91.05C76.0684 90.936 77.1795 90.936 78.2052 90.6796C78.604 90.5941 78.9744 89.9102 79.0599 89.4258C79.1169 89.1694 78.604 88.5425 78.2906 88.514C77.151 88.4 75.9829 88.457 74.8433 88.457V91.05Z" fill="#FEFFBB"/>
<path d="M192.535 88.685C190.113 88.4286 190.056 88.4286 189.942 86.0635C189.885 84.9238 189.942 83.784 190.056 82.6442C190.085 82.3593 190.484 81.8749 190.769 81.8464C193.276 81.5899 195.754 81.419 198.404 81.2195C198.575 83.955 198.717 86.5194 198.888 89.1409H204.33C204.33 87.2888 204.301 85.5506 204.33 83.8125C204.387 81.8179 203.988 81.9319 206.21 81.7324C207.464 81.6184 208.689 81.4475 210.028 81.2765C210.17 83.4136 210.313 85.4652 210.427 87.5167C210.712 92.5032 210.996 97.4897 211.31 102.476C211.367 103.331 211.053 103.701 210.256 103.73C208.432 103.758 206.609 103.758 204.786 103.73C203.988 103.73 203.703 103.303 203.732 102.476C203.789 100.311 203.76 98.1451 203.76 95.894H199.23C199.373 98.0026 199.487 100.054 199.629 102.077C199.743 103.587 199.714 103.701 198.233 103.758C196.666 103.815 195.128 103.787 193.561 103.787C192.506 103.787 192.051 103.417 192.108 102.22C192.307 98.0596 192.393 93.8994 192.506 89.7678C192.535 89.4258 192.535 89.0839 192.535 88.685Z" fill="#FEFFBB"/>
<path d="M165.384 81.1624C165.697 87.2601 166.011 93.0445 166.324 98.8288C166.381 100.083 166.438 101.336 166.552 102.59C166.609 103.331 166.296 103.701 165.64 103.701C163.732 103.73 161.851 103.73 159.942 103.701C159.173 103.701 158.974 103.245 159.002 102.505C159.145 98.5438 159.259 94.5831 159.373 90.6225C159.401 89.9671 159.373 89.3402 159.373 88.6279H156.153C156.153 89.2262 156.182 89.7106 156.153 90.1665C156.068 92.8165 156.21 95.5235 155.811 98.1449C155.185 102.22 152.877 103.958 148.803 103.986C146.552 104.015 146.495 103.986 146.21 101.735C146.096 100.823 146.039 99.9116 146.039 98.9998C146.011 98.4584 146.096 97.9455 146.153 97.4611C146.296 97.3756 146.353 97.2901 146.41 97.2901C149.173 97.0336 150.056 96.3213 150.427 93.5574C150.655 91.9902 150.626 90.3945 150.712 88.7418C150.256 88.7133 149.999 88.6848 149.771 88.6848C147.663 88.7418 147.663 88.7418 147.435 86.6333C146.922 82.1312 147.008 81.9602 151.424 81.7038C155.982 81.4758 160.626 81.3333 165.384 81.1624Z" fill="#FEFFBB"/>
<path d="M245.07 81.932C247.036 81.7041 248.916 81.5046 250.911 81.2767V92.3039C250.968 92.3324 251.025 92.3324 251.11 92.3609C251.281 92.0475 251.481 91.7625 251.623 91.4491C253.019 88.5712 254.358 85.6648 255.783 82.7868C255.953 82.4164 256.324 81.932 256.666 81.875C258.461 81.5901 260.255 81.4476 262.392 81.2197C262.392 83.6132 262.364 85.8357 262.392 88.0868C262.506 92.8453 262.62 97.6323 262.82 102.391C262.848 103.303 262.535 103.702 261.68 103.702C259.942 103.73 258.176 103.73 256.438 103.702C255.612 103.702 255.241 103.331 255.327 102.419C255.526 100.054 255.64 97.6893 255.783 95.3528C255.811 94.9539 255.783 94.555 255.583 94.0706C254.785 95.7232 253.988 97.3759 253.19 99.057C252.592 100.282 252.05 101.565 251.395 102.761C251.139 103.189 250.597 103.673 250.142 103.702C248.518 103.816 246.865 103.759 245.241 103.73C244.7 103.73 244.216 103.559 244.244 102.79C244.501 95.8942 244.785 88.9986 245.07 81.932Z" fill="#FEFFBB"/>
<path d="M56.2672 94.0705C55.0421 96.578 53.7316 99.057 52.6489 101.65C51.9937 103.274 51.025 104.015 49.3156 103.873C48.1475 103.787 46.9509 103.787 45.7828 103.73C45.1845 103.702 44.8142 103.445 44.8427 102.704C45.156 95.8372 45.4695 88.9986 45.7544 82.1315C45.7544 82.103 45.7828 82.046 45.8398 81.932C47.6632 81.7325 49.5435 81.5046 51.5093 81.3051V92.7313C51.7942 92.2754 51.9652 92.0759 52.0791 91.8195C53.5321 88.7991 54.9566 85.7787 56.4381 82.7583C56.6091 82.4164 57.0079 81.9605 57.3498 81.9035C59.1162 81.6471 60.8825 81.5046 62.7914 81.2766C62.8199 81.7325 62.8484 82.103 62.8484 82.4734C63.0193 89.0555 63.1902 95.6662 63.4182 102.248C63.4467 103.303 63.1333 103.759 62.1361 103.759C60.5122 103.759 58.8598 103.759 57.2358 103.759C56.3242 103.759 55.8968 103.388 55.9823 102.362C56.2102 99.6269 56.3241 96.8914 56.4951 94.156C56.4381 94.1275 56.3527 94.099 56.2672 94.0705Z" fill="#FEFFBB"/>
<path d="M99.5158 94.0988C98.1483 96.9482 96.7523 99.7692 95.4417 102.647C95.0998 103.416 94.6155 103.787 93.7893 103.787C92.2793 103.787 90.7409 103.787 89.2309 103.758C88.5756 103.73 88.1198 103.502 88.1483 102.647C88.4617 95.8655 88.7466 89.0838 89.0315 82.3022C89.0315 82.2167 89.06 82.1597 89.1169 81.9603C90.9403 81.7608 92.8206 81.5329 94.8149 81.3049V92.4746C94.9004 92.5031 94.9574 92.5031 95.0429 92.5316C95.3847 91.8763 95.6981 91.2209 96.04 90.537C97.2936 87.9156 98.5186 85.2941 99.8007 82.7011C99.9716 82.3592 100.399 81.9603 100.741 81.9033C102.479 81.6468 104.217 81.5044 106.04 81.3049C106.097 81.6468 106.154 81.9318 106.154 82.2167C106.353 88.9699 106.524 95.723 106.752 102.448C106.781 103.359 106.439 103.73 105.613 103.73C103.875 103.758 102.108 103.758 100.371 103.73C99.6013 103.73 99.2309 103.388 99.3164 102.505C99.4873 100.425 99.5728 98.316 99.7152 96.2359C99.7437 95.5235 99.8007 94.8112 99.8292 94.0988C99.6583 94.0988 99.5728 94.0988 99.5158 94.0988Z" fill="#FEFFBB"/>
<path d="M133.589 157.641C132.592 159.636 131.566 161.63 130.597 163.625C126.894 171.347 123.333 179.126 119.401 186.734C118.632 188.244 116.495 189.868 114.899 190.01C109.572 190.409 104.187 190.238 98.8311 190.124C96.5235 190.067 95.1274 189.156 95.2699 186.335C96.324 163.568 97.2642 140.829 98.2329 118.062C98.2329 117.806 98.3753 117.578 98.5747 116.951C104.7 116.267 111.025 115.555 117.635 114.786V152.113C117.834 152.227 118.033 152.313 118.233 152.427C118.746 151.572 119.315 150.717 119.743 149.834C124.501 139.918 129.315 130.059 133.902 120.057C135.013 117.607 136.495 116.638 139.059 116.438C144.387 116.039 149.714 115.384 155.355 114.814C155.469 116.125 155.64 117.236 155.669 118.319C156.295 140.715 156.865 163.083 157.606 185.48C157.72 188.586 156.808 190.124 153.731 190.153C147.862 190.181 141.993 190.181 136.124 190.124C133.475 190.096 132.392 188.842 132.62 185.964C133.219 178.955 133.503 171.917 133.931 164.907C134.073 162.542 134.159 160.205 134.273 157.84C134.073 157.783 133.845 157.726 133.589 157.641Z" fill="#FEFFBB"/>
<path d="M142.279 94.7542H136.438C136.495 95.4381 136.524 95.951 136.552 96.4069C138.718 96.4069 140.797 96.4639 142.906 96.3784C143.96 96.3499 144.501 96.6633 144.473 97.7176C144.444 99.3988 144.416 101.051 144.302 102.733C144.273 102.989 143.846 103.388 143.589 103.416C138.889 103.644 134.188 103.844 129.316 104.043C129.458 98.8004 129.629 93.8424 129.772 88.9414C129.601 88.8274 129.544 88.7419 129.487 88.7419C127.493 88.5425 127.436 88.571 127.265 86.5194C127.151 85.0662 127.236 83.5845 127.236 81.9603C130.37 81.7609 133.248 81.5044 136.125 81.3619C138.49 81.248 140.854 81.305 143.219 81.2195C143.874 81.191 144.273 81.3904 144.273 82.0458C144.302 84.0404 144.273 86.035 144.273 88.1151C141.396 88.286 138.775 88.4285 136.125 88.571V90.0812H142.25V94.7542H142.279Z" fill="#FEFFBB"/>
<path d="M173.561 141.77C170.797 142.539 168.489 143.194 165.811 143.935C163.561 136.356 162.393 128.719 162.649 120.912C162.677 120.114 163.874 119.003 164.757 118.661C179.344 113.048 194.33 110.54 209.771 114.358C220.683 117.065 227.635 125.072 228.831 136.213C229.287 140.459 229.202 144.961 228.404 149.15C226.21 160.576 217.635 167.585 205.355 168.583C202.592 168.811 199.8 168.896 196.694 169.067C197.008 174.68 197.093 180.037 197.72 185.309C198.119 188.757 196.837 190.096 193.675 190.124C187.948 190.153 182.193 190.181 176.467 190.124C173.589 190.096 172.279 188.928 172.421 185.622C172.962 172.458 173.219 159.294 173.561 146.101C173.589 144.904 173.561 143.622 173.561 141.77ZM195.897 154.507C200.512 155.076 205.042 155.618 207.321 151.401C208.432 149.349 208.489 145.303 207.15 143.622C204.187 139.861 199.458 142.226 195.071 141.656C195.355 146.186 195.612 150.204 195.897 154.507Z" fill="#FEFFBB"/>
<path d="M169.743 81.9319C171.652 81.704 173.447 81.5045 175.384 81.2766C175.583 84.4964 175.783 87.6308 175.982 90.7936C176.096 90.7081 176.182 90.6796 176.182 90.6227C177.15 87.4028 179.572 86.2915 182.734 86.5765C185.355 86.8044 187.35 88.6281 187.863 91.7624C188.204 93.7855 188.29 95.9511 187.977 97.9742C187.521 101.023 185.469 102.847 182.478 103.531C178.005 104.585 173.789 103.36 169.657 101.878C169.401 101.792 169.145 101.336 169.145 101.052C169.316 94.7543 169.515 88.4286 169.743 81.9319ZM176.096 92.7597C176.182 94.0989 176.21 95.0108 176.324 95.8941C176.353 96.179 176.723 96.6064 176.951 96.6064C178.318 96.7204 179.686 96.8059 181.053 96.8059C181.338 96.8059 181.794 96.5495 181.937 96.2645C182.649 94.6973 181.709 92.9307 179.999 92.7882C178.774 92.6457 177.521 92.7597 176.096 92.7597Z" fill="#FEFFBB"/>
<path d="M214.586 81.9319C216.467 81.7039 218.319 81.5045 220.227 81.2765C220.427 84.5249 220.626 87.6307 220.826 90.7366C220.883 90.7081 220.997 90.7081 220.997 90.6511C222.25 86.8329 224.985 86.3485 227.521 86.5479C230.17 86.7474 232.222 88.628 232.735 91.7909C233.048 93.814 233.133 95.9795 232.82 98.0026C232.364 100.994 230.341 102.79 227.378 103.502C222.877 104.585 218.632 103.36 214.444 101.849C214.216 101.764 213.96 101.336 213.96 101.108C214.159 94.7828 214.358 88.4001 214.586 81.9319ZM220.94 92.8737C221.025 94.0704 221.025 94.9537 221.168 95.8085C221.225 96.122 221.595 96.5779 221.88 96.6064C223.162 96.7489 224.444 96.8058 225.754 96.8058C226.096 96.8058 226.609 96.5779 226.78 96.2929C227.578 94.8397 226.609 92.9021 224.928 92.7597C223.646 92.6742 222.336 92.8452 220.94 92.8737Z" fill="#FEFFBB"/>
<path d="M3.01964 95.6376C6.12505 97.3187 8.23331 96.8343 9.03103 94.3268C8.03388 94.2699 7.06523 94.1559 6.09657 94.2129C5.12791 94.2699 4.61509 93.7855 4.27321 92.9876C3.13361 90.1952 2.02248 87.4312 0.911369 84.6388C0.59798 83.8125 0.341593 82.9862 -0.000286102 82.0174C0.484043 81.9319 0.911352 81.8464 1.3387 81.8179C2.33585 81.7039 3.30454 81.6184 4.30168 81.5329C5.27034 81.4475 6.52389 81.0201 7.17916 81.476C7.83443 81.9319 7.89141 83.2426 8.2048 84.1829C8.83158 86.1775 9.42986 88.1721 10.1136 90.4516C10.3131 89.9672 10.4555 89.7678 10.5125 89.5683C11.0538 87.0893 11.5951 84.5818 12.0794 82.0743C12.1934 81.4475 12.4213 81.248 13.0481 81.305C14.9854 81.5045 16.8943 81.6754 18.9171 81.8464C18.9171 82.1028 18.974 82.3308 18.9171 82.5303C17.7205 87.0323 16.6664 91.5344 15.2703 95.9795C14.6436 97.9171 13.5894 99.8547 12.3074 101.45C9.97118 104.357 4.89996 104.784 1.88002 102.59C1.68059 102.448 1.45269 102.191 1.45269 101.992C1.65212 99.7692 1.76608 97.6037 3.01964 95.6376Z" fill="#FEFFBB"/>
<path d="M125.555 88.2006C123.561 88.3145 121.908 88.4 120.142 88.4855C120.313 91.5914 120.484 94.6403 120.683 97.6606C120.769 99.2848 120.854 100.937 120.997 102.562C121.054 103.303 120.74 103.673 120.085 103.701C118.176 103.73 116.296 103.73 114.387 103.701C113.618 103.701 113.418 103.246 113.447 102.476C113.589 98.373 113.703 94.2413 113.817 90.1382C113.817 89.6823 113.817 89.2264 113.817 88.685C112.307 88.685 110.826 88.628 109.344 88.7135C108.461 88.7705 108.034 88.4 108.005 87.6022C107.948 85.978 107.92 84.3538 107.948 82.7012C107.948 82.4447 108.433 82.0173 108.689 81.9888C114.017 81.7039 119.344 81.4759 124.672 81.305C124.957 81.305 125.498 81.7894 125.498 82.0458C125.584 84.0689 125.555 86.092 125.555 88.2006Z" fill="#FEFFBB"/>
<path d="M240.939 81.3049C241.139 84.7812 241.366 88.1435 241.566 91.4774C241.794 95.0391 241.936 98.6294 242.221 102.191C242.307 103.274 242.022 103.787 240.939 103.787C239.23 103.787 237.52 103.787 235.811 103.758C235.013 103.758 234.643 103.416 234.671 102.476C234.899 96.0079 235.07 89.5397 235.241 83.0715C235.27 82.2167 235.526 81.8463 236.381 81.7893C237.834 81.6753 239.315 81.4759 240.939 81.3049Z" fill="#FEFFBB"/>
<path d="M259.344 156.159C259.173 157.328 257.948 158.895 256.808 159.351C251.395 161.545 245.811 161.459 240.369 159.322C239.372 158.923 238.261 157.413 238.204 156.359C237.463 143.337 236.865 130.315 236.409 117.293C236.381 116.21 237.549 114.444 238.546 114.102C245.27 111.879 252.136 111.879 258.859 114.102C259.942 114.472 261.224 116.125 261.309 117.265C261.594 121.311 260.512 147.326 259.344 156.159Z" fill="#FEFFBB"/>
<path d="M249.429 73.0987C252.563 76.062 255.298 75.6631 258.119 73.0417C258.546 73.4406 259.03 73.811 259.401 74.2669C260.74 75.8626 260.512 77.8002 258.86 79.0539C256.438 80.8775 251.11 80.8775 248.66 79.0539C246.466 77.4013 246.78 74.8083 249.429 73.0987Z" fill="#FEFFBB"/>
<path d="M247.834 190.352C246.068 190.153 244.244 190.096 242.535 189.668C239.401 188.899 235.469 189.554 234.871 184.539C233.902 176.675 235.612 170.777 240.427 168.668C247.464 165.591 254.643 166.332 261.766 168.64C262.421 168.839 263.304 169.865 263.276 170.492C263.19 174.88 263.703 179.524 262.478 183.599C260.712 189.497 254.9 189.611 249.8 190.153C249.173 190.21 248.518 190.153 247.891 190.153C247.863 190.238 247.834 190.295 247.834 190.352Z" fill="#FEFFBB"/>
</svg>
