<svg width="264" height="155" viewBox="0 0 264 155" fill="none" xmlns="http://www.w3.org/2000/svg">
<path d="M46.3068 62.5604C43.2549 73.5825 40.203 84.5825 37.1511 95.6046C35.2628 102.455 35.2628 109.481 32.672 116.265C31.9035 118.263 31.5083 121.074 30.1251 122.721C28.5442 124.587 25.5582 125.092 23.4284 125.992C20.9254 127.046 18.4224 128.407 16.8196 130.625C16.4903 131.086 16.2048 131.635 16.3366 132.162C19.125 131.92 21.4743 129.395 24.2628 129.593C22.616 130.471 20.9254 131.371 19.6739 132.755C18.4004 134.138 17.61 136.092 18.115 137.892C18.9274 137.717 19.608 137.124 20.2009 136.553C21.4963 135.279 22.66 133.874 24.0432 132.733C25.4484 131.591 27.161 130.713 28.9614 130.713C28.3027 131.283 22.0013 139.868 23.4723 140.264C24.5262 140.549 25.6241 139.89 26.2827 139.056C26.9414 138.2 27.3147 137.168 27.8416 136.224C29.1151 134.006 32.5183 130.844 35.2189 130.822C37.2169 130.8 39.0613 132.228 41.0593 132.074C41.3228 132.052 41.6082 131.986 41.7619 131.788C42.0473 131.415 41.7619 130.866 41.3886 130.581C40.0493 129.483 37.8976 129.681 36.7778 128.363C35.4604 126.782 36.6241 124.828 37.2828 123.269C38.1171 121.293 38.7758 119.208 39.4565 117.144C40.9715 112.599 42.5084 108.032 44.0234 103.487C47.0753 94.375 50.1052 85.2632 53.1572 76.1513" fill="#334758"/>
<path d="M42.7501 79.2911C42.5306 80.6085 43.1673 82.0357 44.2651 82.7602" stroke="#5B738A" stroke-width="0.823" stroke-miterlimit="10" stroke-linecap="round"/>
<path d="M40.8838 85.5927C41.2131 86.8442 41.8718 87.9859 42.8159 88.8861" stroke="#5B738A" stroke-width="0.823" stroke-miterlimit="10" stroke-linecap="round"/>
<path d="M132.023 96.4829C139.313 99.6885 147.546 100.896 155.363 99.3372C163.179 97.7784 170.469 93.3651 175.014 86.8222C181.315 77.7762 181.952 66.0955 185.597 55.6882C189.527 44.4686 197.233 35.2031 208.695 28.5503C222.988 20.2728 238.862 20.2509 251.268 31.8877C255.944 36.2789 259.26 42.2291 259.94 48.6183C258.952 48.4866 257.964 48.3549 256.976 48.2231C253.727 47.806 250.499 40.3408 247.513 38.4087C245.515 37.1352 243.1 36.6302 240.751 36.3668C225.491 34.72 209.661 43.5025 202.986 57.313C196.421 70.9259 198.265 87.942 189.615 100.325C186.694 104.519 182.72 107.878 178.439 110.645C165.111 119.23 148.227 122.106 132.814 118.417" fill="#939EAF"/>
<path d="M144.187 99.491C146.251 106.232 145.921 113.653 143.309 120.196C143.528 120.196 143.748 120.196 143.967 120.196" stroke="#2B3846" stroke-width="1.6459" stroke-miterlimit="10"/>
<path d="M151.915 99.1836C155.252 105.156 156.745 112.16 156.131 118.988" stroke="#2B3846" stroke-width="1.6459" stroke-miterlimit="10"/>
<path d="M161.269 97.8004C165.155 103.246 166.955 110.162 166.231 116.815" stroke="#2B3846" stroke-width="1.6459" stroke-miterlimit="10"/>
<path d="M166.253 92.6187C169.261 93.8702 171.588 96.4391 173.147 99.3154C175.167 103.048 177.187 108.23 176.748 112.489" stroke="#2B3846" stroke-width="1.6459" stroke-miterlimit="10"/>
<path d="M170.402 88.447C175.057 90.8183 178.153 92.7285 181.073 97.5149C183.422 101.357 185.838 104.914 185.289 109.393" stroke="#2B3846" stroke-width="1.6459" stroke-miterlimit="10"/>
<path d="M171.018 85.6146C180.459 85.6146 189.812 91.0158 195.565 98.437" stroke="#2B3846" stroke-width="1.6459" stroke-miterlimit="10"/>
<path d="M174.069 80.0815C175.453 80.6085 176.968 80.5426 178.461 80.6304C186.65 81.0915 194.137 81.9917 200.351 88.0077" stroke="#2B3846" stroke-width="1.6459" stroke-miterlimit="10"/>
<path d="M177.473 74.6586C185.091 71.4969 194.511 73.2315 200.483 78.9401" stroke="#2B3846" stroke-width="1.6459" stroke-miterlimit="10"/>
<path d="M178.966 65.2611C181.579 63.7022 184.499 62.6483 187.507 62.2311C189.988 61.8798 192.579 61.9676 194.928 62.8459C197.277 63.7241 199.385 65.4587 200.351 67.7861" stroke="#2B3846" stroke-width="1.6459" stroke-miterlimit="10"/>
<path d="M183.071 54.1733C189.307 50.5725 193.698 52.2851 198.946 55.8639C200.614 57.0057 202.327 58.4987 202.568 60.5187" stroke="#2B3846" stroke-width="1.6459" stroke-miterlimit="10"/>
<path d="M187.639 42.1852C191.657 41.9876 195.784 42.5804 199.341 44.4687C202.898 46.3569 205.775 49.7162 206.521 53.6683" stroke="#2B3846" stroke-width="1.6459" stroke-miterlimit="10"/>
<path d="M197.321 36.1035C200.285 37.0915 203.293 38.1015 205.928 39.7921C208.563 41.4827 210.824 43.9638 211.593 47.0157C211.637 47.1474 211.615 47.345 211.461 47.345C211.307 47.345 211.571 47.1474 211.483 47.2792" stroke="#2B3846" stroke-width="1.6459" stroke-miterlimit="10"/>
<path d="M204.413 29.5603C208.519 31.3388 212.822 33.2929 215.479 36.8937C216.84 38.76 217.675 40.9775 218.202 43.2171C218.355 43.3488 218.619 43.1293 218.531 42.9536C218.443 42.778 218.114 42.8877 218.136 43.0853" stroke="#2B3846" stroke-width="1.6459" stroke-miterlimit="10"/>
<path d="M214.425 22.6003C216.203 24.2031 218.487 25.1034 220.441 26.4646C224.942 29.6483 227.247 35.6423 226.062 41.0216" stroke="#2B3846" stroke-width="1.6459" stroke-miterlimit="10"/>
<path d="M227.555 21.1291C228.411 22.0952 229.267 23.0393 230.014 24.0712C233.505 28.8138 234.8 35.1152 233.439 40.8458C233.68 40.8677 233.922 40.9117 234.164 40.9336C234.515 40.3188 234.888 39.7041 235.239 39.0893" stroke="#2B3846" stroke-width="1.6459" stroke-miterlimit="10"/>
<path d="M239.652 20.3389C239.367 22.5125 240.355 24.6423 240.904 26.772C242.046 31.2072 241.343 35.8839 240.64 40.4069C241.409 40.6484 242.331 40.0775 242.463 39.2871" stroke="#2B3846" stroke-width="1.6459" stroke-miterlimit="10"/>
<path d="M249.796 21.0851C251.904 29.0113 252.321 35.8617 245.734 42.0533" stroke="#2B3846" stroke-width="1.6459" stroke-miterlimit="10"/>
<path d="M263.036 26.0912C262.026 30.3068 260.972 34.5664 258.886 38.3428C257.239 41.3289 254.956 43.9417 252.255 46.0056C252.145 46.0934 252.014 46.2251 252.057 46.3569C252.101 46.4886 252.387 46.3788 252.277 46.291" stroke="#2B3846" stroke-width="1.6459" stroke-miterlimit="10"/>
<path d="M49.8193 7.95534C52.2126 8.35055 54.5838 7.05514 56.494 5.54016C59.3703 3.27866 64.0031 -1.13454 67.9991 0.27066C68.8115 0.556091 69.536 1.23673 69.6239 2.07107C69.6678 2.48824 69.558 2.90541 69.4482 3.30062C67.3404 11.0073 65.1009 17.7917 58.7994 23.1271C57.7895 23.9834 56.5819 25.0812 56.9112 26.3547" fill="#334758"/>
<path d="M49.8193 7.95534C52.2126 8.35055 54.5838 7.05514 56.494 5.54016C59.3703 3.27866 64.0031 -1.13454 67.9991 0.27066C68.8115 0.556091 69.536 1.23673 69.6239 2.07107C69.6678 2.48824 69.558 2.90541 69.4482 3.30062C67.3404 11.0073 65.1009 17.7917 58.7994 23.1271C57.7895 23.9834 56.5819 25.0812 56.9112 26.3547" fill="#334758"/>
<path d="M13.46 7.60392C10.3422 6.1109 7.07073 4.96917 3.68947 4.22266C2.87709 4.04701 1.97688 3.89332 1.23037 4.28853C0.396036 4.7057 -0.0211325 5.73764 0.000823702 6.68176C0.0227799 7.62588 0.417992 8.52608 0.813204 9.38238C3.31622 14.8275 6.45596 24.4883 13.0428 25.8935C17.6536 26.8815 23.999 24.9054 23.999 19.3286C23.999 17.5721 23.5159 15.8595 23.0329 14.1688" fill="#334758"/>
<path d="M59.0197 131.657C59.9857 130.844 60.9518 130.054 61.9179 129.242C60.6664 130.779 59.327 132.557 59.5466 134.533C59.6125 135.016 59.832 135.565 60.3151 135.697C60.6883 135.785 61.0616 135.609 61.369 135.367C62.4448 134.577 63.1035 133.369 63.85 132.25C66.353 128.495 70.1954 125.268 74.4768 123.753C77.6605 122.611 82.1615 122.26 82.0737 117.824C82.0298 116.156 80.9539 114.663 79.7024 113.543C79.1316 113.016 78.4948 112.533 77.7264 112.357C76.9799 112.182 76.2114 112.313 75.4649 112.467C68.8121 113.85 61.874 117.715 56.7362 122.106C53.9478 124.499 51.6204 127.551 50.6982 131.108C53.838 131.108 56.9338 129.549 58.8221 127.024C57.3729 128.429 55.7921 130.076 55.814 132.096C55.814 132.337 55.858 132.579 55.9897 132.777C56.4288 133.413 57.4169 132.952 58.0097 132.447C58.339 132.206 58.6903 131.942 59.0197 131.657Z" fill="#334758"/>
<path d="M53.1353 47.7181C49.9297 49.255 43.738 52.3289 40.0494 51.253C38.7978 50.8798 38.9296 50.265 38.3368 49.0355C37.3707 47.0155 35.8777 45.259 34.0333 43.9636C31.2669 42.0314 27.8856 42.0095 25.0972 40.3847C22.9235 39.1332 20.3985 37.0034 18.8616 35.0054C17.1051 32.7 15.5901 29.7579 14.2069 27.189C11.3086 21.8317 13.6799 14.6081 18.1151 10.9414C19.8716 9.49229 21.9135 8.35056 24.0433 7.5821C32.3427 4.57409 41.7619 4.79365 49.8857 8.19687C51.8838 9.03121 53.8598 10.0851 55.2431 11.7318C56.8239 13.5981 57.5265 16.0352 58.0096 18.4285C58.5585 21.0852 58.8659 23.7858 58.9976 26.5084C59.0854 28.6381 58.4706 31.2948 59.8539 33.1172C60.5126 33.9735 61.4347 34.5443 62.3349 35.1372C63.0375 35.6202 63.7621 36.1252 64.2671 36.8058C64.7721 37.5084 65.0356 38.4086 64.794 39.221C64.4866 40.231 63.4986 40.8238 62.6204 41.3727C59.3708 43.3708 56.5165 46.1153 53.1353 47.7181Z" fill="#5B738A"/>
<path d="M113.866 131.723C122.846 130.296 130.334 127.551 134.769 119.295C135.647 117.649 136.547 115.98 137.096 114.202C137.865 111.786 137.996 109.218 138.194 106.693C139.226 93.6286 142.014 79.8621 136.635 67.9179C132.705 59.2013 124.757 52.7461 115.996 48.8818C107.236 45.0175 97.6627 43.4806 88.1556 42.3828C83.0179 41.79 78.0997 41.3069 73.0278 40.0335C68.6365 38.9357 64.6624 36.1033 60.3151 35.2251C55.4408 34.237 50.2811 36.0155 45.8899 38.0354C42.5525 39.5724 34.9996 42.3608 35.307 46.8179C35.3948 48.0914 35.8778 49.277 36.3828 50.4407C42.3549 64.2073 51.9278 76.0636 59.0636 89.2593C59.7882 90.6206 60.5127 91.9819 60.9518 93.453C61.6105 95.5827 61.7203 97.8223 62.2253 99.9959C63.367 104.826 67.4948 109.986 71.0298 113.345C73.6645 115.848 76.7164 117.868 79.7683 119.866C84.9281 123.248 90.1317 126.651 95.8183 129.022C101.505 131.371 107.784 132.689 113.866 131.723Z" fill="#5B738A"/>
<path d="M93.8196 75.7124C96.63 76.0857 99.4623 75.8222 102.295 76.3272C108.047 77.3592 113.514 79.972 118.059 83.6167C125.041 89.2155 129.938 97.1198 132.902 105.573C134.834 111.062 135.932 117.363 133.297 122.567C129.74 129.637 121.067 132.425 113.953 134.226C105.742 136.312 97.2667 136.97 88.8355 137.585C86.8595 137.739 84.8395 137.892 82.9073 138.354C81.4363 138.705 80.0091 139.232 78.7357 140.066C76.584 141.471 75.0251 143.645 72.9392 145.16C71.9512 145.885 70.5679 146.433 69.558 145.775C68.6797 145.182 68.5041 143.887 68.9212 142.899C69.3164 141.91 70.1508 141.186 70.9412 140.483C69.1188 141.91 67.3184 143.316 65.4961 144.743C64.9691 145.138 64.3104 145.577 63.7176 145.27C63.037 144.919 63.1248 143.909 63.3663 143.184C63.9372 141.471 64.8593 139.891 66.023 138.507C64.4422 139.627 62.8833 140.747 61.3024 141.845C59.5679 141.186 59.3044 138.639 60.3363 137.102C61.3683 135.565 63.2126 134.797 64.9252 134.116C67.5599 133.062 70.1947 132.03 72.8294 130.976C75.8594 129.769 78.9333 128.561 82.095 127.793C86.2008 126.783 90.4822 126.541 94.6759 127.024C88.1768 120.152 82.3804 111.808 79.6578 102.697C77.8355 96.6367 77.5281 89.984 79.6139 83.9899C80.7337 80.8282 82.6439 77.7324 85.6519 76.2394C88.4184 74.8562 90.7677 75.3172 93.6 75.7344C93.6879 75.6905 93.7537 75.7124 93.8196 75.7124Z" fill="#728398"/>
<path d="M28.5005 13.0932C24.3288 12.8516 20.0473 14.9814 17.8517 18.5383C16.5782 20.6241 16.0733 23.1491 16.3587 25.5643C16.6441 28.0454 16.4685 30.5703 17.8298 32.7879C18.3347 33.6003 18.9715 34.3468 19.6302 35.0274C24.9216 40.6043 31.3328 44.6882 35.1532 51.6044C36.4926 54.0196 38.271 56.1493 39.0175 58.7841C39.8958 61.8799 41.2351 64.7342 42.9038 67.4788C46.3509 73.1874 50.83 78.1715 54.2112 83.924C57.1534 88.9739 59.1953 94.5069 61.9618 99.6447C64.7283 104.782 68.4389 109.701 73.6645 112.313C75.399 112.335 75.9259 109.964 75.7942 108.23C74.9599 97.471 70.9419 86.9978 64.377 78.4569C60.7322 73.6924 56.341 69.5646 52.5426 64.9318C48.7441 60.2991 45.4727 54.9637 44.6822 49.0136C44.4188 47.0595 44.4627 44.9517 45.4726 43.261C48.4148 38.4087 54.4967 36.8279 56.5825 31.2071C58.7123 25.4326 56.0556 18.3627 50.7641 15.2449C46.1094 12.5882 40.3349 12.7858 35.1313 14.0373" fill="#98A8B1"/>
<path d="M41.7392 28.5722C40.7072 27.7598 40.2242 26.5522 39.2581 25.6959C38.797 25.3007 38.314 24.7957 37.787 24.5103C37.7651 24.4883 36.8868 24.159 36.9307 24.2468C36.7331 23.8955 36.5136 23.5222 36.2501 23.2148C36.2062 23.8296 36.0964 24.4444 35.9427 25.0372C35.6573 24.8396 35.3938 24.62 35.1523 24.3566C34.9547 25.7837 34.5156 27.167 33.8349 28.4404C32.8688 30.2189 31.9906 32.151 31.5076 34.1051C31.0904 35.7958 31.288 37.7279 32.4956 39.0014C33.3958 39.9455 34.7132 40.4066 36.0086 40.6042C38.4457 40.9774 41.0805 40.5164 42.9907 39.0014C44.9009 37.4864 45.9108 34.8077 45.0985 32.5243C44.5276 30.8337 43.1224 29.67 41.7392 28.5722Z" fill="#334758"/>
<path d="M22.0011 18.2089C21.3644 18.6041 20.7716 19.0432 20.3325 19.636C19.2127 21.129 19.4323 23.2368 20.0251 25.0153C20.574 26.7059 21.5181 28.4185 23.1429 29.1431C24.7896 29.8676 26.7217 29.3626 28.3245 28.5722C29.6639 27.8916 30.9593 26.9694 31.6619 25.6301C32.4743 24.0712 32.3206 22.1171 31.4643 20.6021C29.4882 17.1989 25.2068 16.1889 22.0011 18.2089Z" fill="#334758"/>
<path d="M45.4278 15.9254C44.7472 16.0791 44.1763 16.4963 43.6055 16.8695C42.7053 17.4843 41.8051 18.1211 41.1025 18.9554C40.3999 19.7897 39.9607 20.9095 40.1364 21.9853C40.2462 22.644 40.5755 23.2369 40.9707 23.7638C42.4857 25.8057 45.0546 27.0792 47.5796 26.8596C50.1045 26.6401 52.4758 24.8177 53.2003 22.4025C53.398 21.7438 53.4638 21.0632 53.3101 20.3825C53.0247 19.1969 52.0367 18.3187 51.0047 17.6819C49.6434 16.8037 47.1404 15.5083 45.4278 15.9254Z" fill="#334758"/>
<path d="M25.4266 21.2827C24.724 21.2388 24.1312 21.8536 23.7579 22.4464C23.3627 23.0392 23.0334 23.7858 23.2968 24.4444C23.5603 25.0592 24.2629 25.3446 24.9216 25.4764C25.5364 25.6081 26.1951 25.6301 26.722 25.3446C27.3807 24.9933 27.71 24.2249 27.754 23.4784C27.7979 22.7538 27.6003 21.9414 27.0294 21.5023C26.4585 21.0412 25.4705 21.0851 25.0972 21.7219" fill="#001328"/>
<path d="M48.4587 23.0833C49.0734 22.4905 49.2271 21.4585 48.788 20.734C47.9756 19.3946 45.0335 19.7459 44.6602 21.3268C44.1992 23.2809 47.1852 24.3348 48.4587 23.0833Z" fill="#001328"/>
<path d="M82.4688 48.9476C83.9179 47.0813 86.2672 45.9396 88.6384 45.9396" stroke="#728398" stroke-width="0.823" stroke-miterlimit="10" stroke-linecap="round"/>
<path d="M104.008 53.822C101.68 54.8978 99.1333 55.5345 96.5645 55.6443" stroke="#728398" stroke-width="0.823" stroke-miterlimit="10" stroke-linecap="round"/>
<path d="M86.8818 55.271C88.7042 53.9536 90.9218 53.1851 93.1833 53.1193" stroke="#728398" stroke-width="0.823" stroke-miterlimit="10" stroke-linecap="round"/>
<path d="M112.373 52.5047C114.678 53.339 116.874 54.4368 118.916 55.7762" stroke="#728398" stroke-width="0.823" stroke-miterlimit="10" stroke-linecap="round"/>
<path d="M124.361 63.241C126.25 63.219 128.138 63.8997 129.587 65.1073" stroke="#728398" stroke-width="0.823" stroke-miterlimit="10" stroke-linecap="round"/>
<path d="M111.912 62.1652C113.932 62.5385 115.82 63.5704 117.247 65.0415" stroke="#728398" stroke-width="0.823" stroke-miterlimit="10" stroke-linecap="round"/>
<path d="M122.714 70.6842C124.075 70.9038 125.305 71.8698 125.854 73.1433" stroke="#728398" stroke-width="0.823" stroke-miterlimit="10" stroke-linecap="round"/>
<path d="M103.854 64.8C102.888 63.8998 101.329 63.6803 100.165 64.2951" stroke="#728398" stroke-width="0.823" stroke-miterlimit="10" stroke-linecap="round"/>
<path d="M109.475 67.0397C110.88 67.7862 112.241 68.6205 113.537 69.5207C114.063 69.894 114.634 70.4868 114.393 71.0796" stroke="#728398" stroke-width="0.823" stroke-miterlimit="10" stroke-linecap="round"/>
<path d="M133.012 87.3272C133.253 88.2274 133.495 89.1276 133.714 90.0059C133.824 90.445 133.934 90.8841 133.846 91.3232" stroke="#728398" stroke-width="0.823" stroke-miterlimit="10" stroke-linecap="round"/>
<path d="M123.505 81.0696C123.724 82.2772 123.966 83.4848 124.186 84.6924" stroke="#728398" stroke-width="0.823" stroke-miterlimit="10" stroke-linecap="round"/>
<path d="M132.507 73.5607C132.858 75.0098 133.209 76.4589 133.583 77.908" stroke="#728398" stroke-width="0.823" stroke-miterlimit="10" stroke-linecap="round"/>
<path d="M128.643 78.3249C129.148 79.4227 129.872 80.4327 130.75 81.2451" stroke="#728398" stroke-width="0.823" stroke-miterlimit="10" stroke-linecap="round"/>
<path d="M38.4678 12.061C39.873 11.6439 41.2562 10.9632 42.2882 9.90931C43.3201 8.85541 44.0227 7.4063 43.9129 5.93523C43.7373 3.65179 26.1284 4.33243 24.7012 6.57197C21.4737 11.578 36.0965 12.7856 38.4678 12.061Z" fill="#334758"/>
<path d="M95.3789 47.6961C98.2552 46.5324 101.658 46.6861 104.425 48.0913" stroke="#728398" stroke-width="0.823" stroke-miterlimit="10" stroke-linecap="round"/>
<path d="M105.808 57.7083C107.915 57.1813 110.287 57.862 111.802 59.4428" stroke="#728398" stroke-width="0.823" stroke-miterlimit="10" stroke-linecap="round"/>
<path d="M72.6318 45.3908C74.7177 44.3588 77.2426 44.271 79.4163 45.1053" stroke="#728398" stroke-width="0.823" stroke-miterlimit="10" stroke-linecap="round"/>
<path d="M36.3607 30.5701C37.3707 30.131 38.732 30.087 39.5883 30.3066C39.8957 30.3944 40.2031 30.5042 40.4885 30.6799C41.0374 31.0531 41.3229 31.7338 41.3448 32.3705C41.3887 33.8635 40.0494 35.2028 38.5344 35.3126C37.0194 35.4224 35.5264 34.3466 35.0873 32.9414C34.714 31.7777 35.3947 31.0092 36.3607 30.5701Z" fill="#001328"/>
<path d="M47.3163 20.5363C47.0309 20.3826 46.6576 20.7119 46.7235 21.0413C46.7893 21.3706 47.1187 21.5682 47.4261 21.6121C47.6456 21.6341 47.8871 21.5682 47.9969 21.3706C48.1506 21.1071 47.953 20.7997 47.7554 20.5582" fill="white"/>
<path d="M26.6334 21.8975C26.5236 21.7877 26.326 21.8755 26.2602 22.0073C26.1943 22.139 26.2602 22.3146 26.348 22.4244C26.5017 22.6001 26.7432 22.6879 26.9628 22.6001C27.1823 22.5122 27.3141 22.2488 27.2262 22.0512C27.1384 21.8316 26.831 21.7438 26.6554 21.8975" fill="white"/>
<path d="M50.3469 138.968C50.1054 137.409 49.4906 135.807 49.4686 134.314C49.4467 129.066 52.4547 124.982 54.299 120.371C56.4946 114.904 58.3829 109.305 60.0735 103.663C63.3669 92.5309 65.7382 81.1575 67.4069 69.6744C67.846 66.6664 68.1973 63.6145 67.6704 60.6285C67.1434 57.6424 65.6723 54.7003 63.1474 53.0316C55.9457 48.2891 48.9197 56.5226 49.5565 63.5047C49.8858 67.0616 51.0275 70.5746 51.9277 73.9998C52.806 77.2713 53.0255 79.7962 52.8499 83.2653C52.4327 92.2235 51.1593 100.721 48.6343 109.305C46.8339 115.409 45.9776 121.733 44.265 127.858C43.5405 130.449 43.5624 133.721 41.9596 135.982C40.2031 138.463 37.9197 137.036 35.3069 137.519C35.9216 138.178 36.7999 138.595 37.7001 138.771C37.9636 138.815 38.3149 138.924 38.3368 139.188C38.3588 139.407 38.1392 139.583 37.9197 139.693C34.6921 141.515 31.0693 144.26 28.7639 147.18C28.2589 147.817 27.7978 148.695 28.215 149.376C29.0493 149.924 30.1032 149.178 30.8278 148.497C32.2989 147.092 33.5065 145.928 35.263 145.006C36.9975 144.084 40.0055 143.491 41.3668 142.086C38.2929 145.094 34.3408 147.992 33.9895 152.625C35.0653 152.932 36.1192 152.054 36.734 151.11C38.3588 148.651 41.0155 145.972 43.6502 144.567C42.3109 145.27 40.6861 149.156 40.3129 150.561C40.0714 151.483 40.0275 152.515 40.5325 153.328C41.0374 154.14 42.2231 154.557 42.9916 153.986C43.6502 153.503 43.7381 152.603 43.8918 151.813C44.7261 147.356 49.7541 144.918 50.3469 140.878C50.4786 140.242 50.4347 139.627 50.3469 138.968Z" fill="#334758"/>
<path d="M60.4248 61.0676C61.3909 61.0017 62.3789 61.2213 63.2132 61.6823" stroke="#5B738A" stroke-width="0.7748" stroke-miterlimit="10" stroke-linecap="round"/>
<path d="M60.4463 65.261C62.0271 65.4806 63.5202 66.2491 64.596 67.4128" stroke="#5B738A" stroke-width="0.7748" stroke-miterlimit="10" stroke-linecap="round"/>
<path d="M60.4023 70.816C61.9832 71.0356 63.4982 71.826 64.596 72.9897" stroke="#5B738A" stroke-width="0.7748" stroke-miterlimit="10" stroke-linecap="round"/>
<path d="M59.5469 77.7104C60.9082 78.1056 62.2036 78.6984 63.3892 79.4888" stroke="#5B738A" stroke-width="0.7748" stroke-miterlimit="10" stroke-linecap="round"/>
</svg>
