<svg width="17" height="17" viewBox="0 0 17 17" fill="none" xmlns="http://www.w3.org/2000/svg">
<path d="M2.6578 14.4544C2.68838 12.4956 3.29862 10.7145 4.38359 9.42501C5.46227 8.14333 6.92413 7.4375 8.50035 7.4375C10.0766 7.4375 11.5384 8.14333 12.6171 9.42501C13.7011 10.7132 14.3109 12.4918 14.3428 14.4481C13.7298 14.7552 11.1935 15.9375 8.50035 15.9375C5.58817 15.9375 3.2262 14.7621 2.6578 14.4544Z" fill="white"/>
<path d="M8.5 6.90625C6.88629 6.90625 5.57812 5.59808 5.57812 3.98438C5.57812 2.37067 6.88629 1.0625 8.5 1.0625C10.1137 1.0625 11.4219 2.37067 11.4219 3.98438C11.4219 5.59808 10.1137 6.90625 8.5 6.90625Z" fill="white"/>
</svg>
