<svg width="30" height="30" viewBox="0 0 30 30" fill="none" xmlns="http://www.w3.org/2000/svg">
<path d="M29.9842 14.1986C29.9741 13.8699 29.9336 13.5512 29.8881 13.2427C29.8729 13.1213 29.8527 12.9999 29.8425 12.8785C29.7566 12.1451 29.5846 11.3762 29.3064 10.4658C29.0889 9.76271 28.8309 9.10011 28.5376 8.50326C27.9862 7.38037 27.3894 6.43957 26.7116 5.62016C26.4182 5.2661 26.0692 4.85134 25.6949 4.46187C25.2751 4.02688 24.7997 3.602 24.2332 3.16195C23.4036 2.51452 22.4932 1.94296 21.522 1.4675C20.7026 1.06791 19.8529 0.749256 19.0031 0.526702C18.4973 0.395192 17.9814 0.288973 17.5413 0.202986C17.0457 0.106883 16.55 0.0461864 16.0644 0.0259542H16.0088C15.1438 -0.00945222 14.4408 -0.00945222 13.9198 0.0310122C13.5455 0.0563025 13.1155 0.0866509 12.7008 0.157464C12.2203 0.243451 11.7043 0.354728 11.0771 0.511528C10.2173 0.729024 9.36752 1.03757 8.55318 1.43715C7.79447 1.80639 7.1268 2.1908 6.50466 2.6258C5.98368 2.98998 5.4627 3.39968 4.9569 3.84479C4.43592 4.30507 3.94529 4.81593 3.45465 5.40773C2.91344 6.06022 2.42281 6.75823 2.00805 7.48659C1.53259 8.31105 1.16841 9.10011 0.880102 9.89422C0.637315 10.5771 0.434993 11.3004 0.283251 12.0338C0.217497 12.3524 0.177032 12.6762 0.136568 12.9898C0.126451 13.0707 0.116335 13.1567 0.106219 13.2376C0.0910451 13.3742 0.0758709 13.5107 0.0657548 13.6372C0.0606967 13.708 0.0556386 13.7788 0.0455225 13.8496C0.0354064 13.8648 0.0303484 13.88 0.0252903 13.9002L0 13.9761V16.0044L0.0252903 16.0752C0.0303484 16.0853 0.0354064 16.1005 0.0404645 16.1106C0.0404645 16.5304 0.111277 16.935 0.171974 17.2942C0.252903 17.7696 0.359122 18.2704 0.52098 18.9178C0.738477 19.7726 1.04702 20.6224 1.4466 21.4468C1.79055 22.16 2.18508 22.8428 2.62007 23.4751C3.09047 24.163 3.6418 24.8408 4.25889 25.4781C4.69388 25.9283 5.18957 26.3734 5.7763 26.8286C6.59065 27.4659 7.49604 28.0274 8.46213 28.5079C9.20061 28.8721 9.98461 29.1705 10.799 29.4031C11.1733 29.5094 11.5577 29.5954 11.932 29.6763L11.9522 29.6813C12.3467 29.7724 12.7514 29.828 13.1358 29.8786L13.2319 29.8938C13.8136 29.9747 14.3902 30 14.9415 30C15.159 30 15.3714 29.9949 15.5839 29.9899C15.9481 29.9798 16.3021 29.9393 16.6511 29.8988L16.818 29.8786C17.1873 29.8331 17.5666 29.7926 17.9409 29.7117C18.5631 29.5852 19.165 29.4234 19.7365 29.2362C21.0112 28.8114 22.2302 28.2145 23.3581 27.4507C24.0106 27.0107 24.6479 26.5049 25.2549 25.9384C26.2513 25.0128 27.1314 23.9253 27.8648 22.7063C28.578 21.5227 29.1142 20.2734 29.4531 18.9886C29.5644 18.5738 29.6655 18.1186 29.7717 17.5521C29.8577 17.102 29.8982 16.6467 29.9386 16.2067L29.9488 16.1005C30.0145 15.4631 30.0044 14.841 29.9842 14.1986ZM11.5475 10.9412C12.4529 10.0409 13.6618 9.54522 14.9466 9.54522C14.9567 9.54522 14.9617 9.54522 14.9719 9.54522C16.2617 9.55027 17.4655 10.0561 18.3709 10.9615C19.2763 11.8719 19.772 13.0859 19.7669 14.3807C19.7618 15.6705 19.2611 16.8743 18.3506 17.7747C17.4452 18.675 16.2313 19.1707 14.9364 19.1859C13.6416 19.1707 12.4327 18.6598 11.5324 17.7595C10.632 16.8541 10.1313 15.6452 10.1363 14.3605C10.1313 13.0606 10.632 11.8466 11.5475 10.9412ZM14.0007 21.5834C15.9228 21.4165 17.7083 21.7604 19.3117 22.6001C20.5711 23.2576 21.6232 24.1276 22.4426 25.1898C20.3081 26.7932 17.6324 27.6531 14.8606 27.6227C12.1393 27.5924 9.5395 26.7173 7.5011 25.1493C8.69986 23.551 11.148 21.8312 14.0007 21.5834ZM22.1088 14.755C22.2352 12.6205 21.5271 10.7794 20.0097 9.27714C18.5428 7.83054 16.6258 7.08194 14.6077 7.17805C12.6148 7.27415 10.7281 8.21495 9.43328 9.76271C8.11818 11.3307 7.54157 13.3893 7.84505 15.4126C8.12324 17.2436 9.0691 18.8571 10.5461 20.0255C8.61893 20.7943 7.0307 21.9627 5.72066 23.5813C5.2098 23.0452 4.74446 22.3876 4.6433 22.2409C4.00598 21.3254 3.485 20.3189 3.10059 19.2466C2.91344 18.7306 2.75664 18.1793 2.61502 17.5572C2.55432 17.2942 2.52397 17.021 2.48856 16.7327C2.47339 16.6164 2.45822 16.5 2.44304 16.3837C2.36211 15.7818 2.33176 15.2254 2.35706 14.6893C2.38235 14.148 2.42281 13.6524 2.48856 13.1769C2.58973 12.4435 2.7617 11.705 3.00449 10.9868C3.485 9.55027 4.19819 8.23518 5.13393 7.06677C6.03426 5.94388 7.11669 4.98791 8.35591 4.21908C9.20061 3.69305 10.1616 3.25299 11.2137 2.9141C11.765 2.73707 12.367 2.59545 12.9891 2.49429C13.3078 2.44371 13.6264 2.41841 13.9653 2.39312L14.1423 2.37795C14.4711 2.35266 14.7695 2.33243 15.068 2.33243C15.5991 2.33749 16.1656 2.38301 16.8029 2.469C17.5262 2.57016 18.2596 2.74213 18.9728 2.9748C20.4042 3.45026 21.7244 4.16344 22.8928 5.09918C23.5503 5.62522 24.1623 6.22713 24.7086 6.88468C25.3662 7.67374 25.9175 8.52349 26.3525 9.41877C26.8027 10.3444 27.1314 11.2902 27.3388 12.231C27.4349 12.666 27.5057 13.1111 27.5512 13.5411C27.617 14.1582 27.6575 14.6791 27.6372 15.1951C27.617 15.6958 27.5765 16.2219 27.5057 16.758C27.3692 17.8151 27.0808 18.852 26.6206 19.9395C26.2614 20.7943 25.8012 21.6036 25.2599 22.3421L25.2549 22.3472C24.8098 22.9592 24.4709 23.3992 24.2584 23.6774C22.9484 22.0234 21.2995 20.7943 19.342 20.0103C21.0516 18.675 21.9823 16.8996 22.1088 14.755Z" fill="white"/>
</svg>
