<svg width="20" height="20" viewBox="0 0 20 20" fill="none" xmlns="http://www.w3.org/2000/svg">
<path d="M9.99529 0C5.576 0 1.97852 3.59748 1.97852 8.01677C1.97852 8.51992 2.02464 9.02725 2.12107 9.52201C2.12527 9.55136 2.14204 9.63941 2.17558 9.79036C2.29717 10.3312 2.47747 10.8637 2.71227 11.3711C3.576 13.4046 5.47537 16.5283 9.64309 19.8742C9.74791 19.9581 9.87369 20 9.99948 20C10.1253 20 10.2511 19.9581 10.3559 19.8742C14.5194 16.5283 16.423 13.4046 17.2867 11.3711C17.5215 10.8637 17.7018 10.3354 17.8234 9.79036C17.8569 9.63941 17.8737 9.55136 17.8779 9.52201C17.9701 9.02725 18.0204 8.51992 18.0204 8.01677C18.0121 3.59748 14.4146 0 9.99529 0ZM16.7542 9.32495C16.7542 9.33333 16.75 9.34172 16.75 9.3501C16.7458 9.37107 16.7332 9.43396 16.7123 9.5304C16.7123 9.53459 16.7123 9.53459 16.7123 9.53878C16.6074 10.0084 16.4523 10.4654 16.2469 10.9057C16.2427 10.9099 16.2427 10.9182 16.2385 10.9224C15.4544 12.7799 13.7353 15.6143 9.99529 18.7044C6.25525 15.6143 4.53617 12.7799 3.7521 10.9224C3.74791 10.9182 3.74791 10.9099 3.74371 10.9057C3.54246 10.4696 3.38732 10.0084 3.27831 9.53878C3.27831 9.53459 3.27831 9.53459 3.27831 9.5304C3.25315 9.43396 3.24476 9.37107 3.24057 9.3501C3.24057 9.34172 3.23638 9.33333 3.23638 9.32075C3.15252 8.88889 3.11059 8.45283 3.11059 8.01258C3.11059 4.21803 6.20074 1.12788 9.99529 1.12788C13.7898 1.12788 16.88 4.21803 16.88 8.01258C16.88 8.45702 16.8381 8.89727 16.7542 9.32495Z" fill="#DC793E"/>
<path d="M9.99542 3.01465C7.19039 3.01465 4.90527 5.29976 4.90527 8.10479C4.90527 10.9098 7.19039 13.1949 9.99542 13.1949C12.8005 13.1949 15.0856 10.9098 15.0856 8.10479C15.0856 5.29976 12.8005 3.01465 9.99542 3.01465ZM9.99542 12.0629C7.81093 12.0629 6.03735 10.2851 6.03735 8.10479C6.03735 5.9245 7.81513 4.14672 9.99542 4.14672C12.1757 4.14672 13.9535 5.9245 13.9535 8.10479C13.9535 10.2851 12.1799 12.0629 9.99542 12.0629Z" fill="#DC793E"/>
</svg>
