<svg width="67" height="69" viewBox="0 0 67 69" fill="none" xmlns="http://www.w3.org/2000/svg">
<rect width="67" height="67" rx="33.5" fill="#FED700"/>
<mask id="mask0" mask-type="alpha" maskUnits="userSpaceOnUse" x="8" y="12" width="51" height="56">
<g clip-path="url(#clip0)">
<path d="M45.3968 46.1668H38.597V41.4802C41.7485 39.6964 43.6919 36.4015 43.6969 32.8337V28.6671H44.5469V27.0005H42.1014C40.9227 26.999 39.8981 26.2072 39.6212 25.0838L37.7155 18.4423C37.6127 18.0825 37.2781 17.8339 36.897 17.834C36.5172 17.8339 36.1834 18.0809 36.0793 18.439L34.3283 24.4755C33.9502 25.9586 32.5914 26.9994 31.0321 27.0005H22.4473V28.6671H23.2972V32.8337C23.3022 36.4015 25.2456 39.6964 28.3972 41.4802V47.0001C28.3972 47.2211 28.4868 47.433 28.6462 47.5893L32.8961 51.7559C33.228 52.0812 33.7661 52.0812 34.098 51.7559L38.0989 47.8334H45.3968C47.7428 47.8361 49.644 49.7001 49.6468 52V70.3332H51.3467V52C51.343 48.78 48.6813 46.1705 45.3968 46.1668ZM36.897 46.6551L33.4971 49.9884L30.0971 46.6551V42.2502C32.2943 43.0279 34.6998 43.0279 36.897 42.2502V46.6551ZM33.4971 41.1669C28.8027 41.1669 24.9972 37.436 24.9972 32.8337V28.6671H31.0321C33.3638 28.6725 35.4005 27.1224 35.9731 24.9064L36.8953 21.7272L37.9816 25.5113C38.4446 27.3271 40.0883 28.6156 41.9969 28.6588V32.8337C41.9969 37.436 38.1914 41.1669 33.4971 41.1669Z" fill="#A68D00"/>
<path d="M16 76.3327V57.9995H17.7V76.3327H16Z" fill="#A68D00"/>
<path d="M24.1473 46.167H21.5974V47.8336H24.1473C26.4944 47.8336 28.3972 49.6991 28.3972 52.0002C28.3972 54.3013 26.4944 56.1668 24.1473 56.1668H19.8974C18.4891 56.1668 17.3474 55.0476 17.3474 53.6668H15.6475C15.6502 55.9668 17.5514 57.8307 19.8974 57.8334H24.1473C27.4333 57.8334 30.0972 55.2218 30.0972 52.0002C30.0972 48.7786 27.4333 46.167 24.1473 46.167Z" fill="#A68D00"/>
<path d="M52.7522 42.6533C52.1488 42.1255 51.442 41.7239 50.675 41.4729V41.4696C51.1089 40.9011 51.3444 40.2105 51.3465 39.5005C51.3465 37.6596 49.8243 36.1672 47.9466 36.1672V26.544C48.0628 18.875 42.0032 12.4742 34.1938 12.0168C26.2227 11.6393 19.4489 17.6686 19.0639 25.4833C19.0527 25.7111 19.0471 25.9393 19.0471 26.1673V36.1671C17.1694 36.1671 15.6472 37.6594 15.6472 39.5004C15.6493 40.2104 15.8848 40.901 16.3187 41.4695C13.2031 42.4934 11.524 45.7997 12.5684 48.8542C13.3798 51.2271 15.6445 52.8281 18.1971 52.8334H23.297V51.1668H18.1971C15.85 51.1668 13.9472 49.3013 13.9472 47.0002C13.9472 44.6991 15.85 42.8336 18.1971 42.8336H23.297V41.167H19.0471C18.1082 41.167 17.3472 40.4209 17.3472 39.5004C17.3472 38.5798 18.1082 37.8337 19.0471 37.8337H19.8971C20.3665 37.8337 20.7471 37.4606 20.7471 37.0004V26.1673C20.7468 19.2639 26.4548 13.6673 33.4963 13.667C33.7026 13.667 33.9088 13.6719 34.1148 13.6817C41.0159 14.0996 46.3606 19.7661 46.2466 26.5439V37.0004C46.2466 37.4606 46.6272 37.8337 47.0966 37.8337H47.9466C48.8855 37.8337 49.6466 38.5798 49.6466 39.5004C49.6466 40.4209 48.8855 41.167 47.9466 41.167H43.6967V42.8336H48.7966C51.1437 42.8336 53.0465 44.6991 53.0464 47.0003C53.0464 48.0251 52.6611 49.0138 51.9645 49.7777L53.2309 50.8893C55.4186 48.4854 55.2042 44.798 52.7522 42.6533Z" fill="#A68D00"/>
<path d="M29.2472 30.542C28.4257 30.542 27.7598 31.1949 27.7598 32.0003C27.7598 32.8057 28.4257 33.4586 29.2472 33.4586C30.0687 33.4586 30.7347 32.8057 30.7347 32.0003C30.7338 31.1953 30.0683 30.5429 29.2472 30.542ZM29.0347 32.0003C29.0347 31.8852 29.1298 31.792 29.2472 31.792C29.3646 31.792 29.4597 31.8852 29.4597 32.0003C29.4597 32.2295 29.0347 32.2295 29.0347 32.0003Z" fill="#A68D00"/>
<path d="M37.7472 30.542C36.9257 30.542 36.2598 31.1949 36.2598 32.0003C36.2607 32.8053 36.9262 33.4577 37.7472 33.4586C38.5687 33.4586 39.2347 32.8057 39.2347 32.0003C39.2347 31.1949 38.5687 30.542 37.7472 30.542ZM37.5347 32.0003C37.5347 31.8852 37.6298 31.792 37.7472 31.792C37.8646 31.792 37.9597 31.8852 37.9597 32.0003C37.9597 32.2295 37.5347 32.2295 37.5347 32.0003Z" fill="#A68D00"/>
<path d="M35.4095 36.167C35.4095 37.2025 34.5532 38.042 33.497 38.042C32.4408 38.042 31.5845 37.2025 31.5845 36.167H30.3096C30.3096 37.8929 31.7366 39.2919 33.497 39.2919C35.2574 39.2919 36.6845 37.8929 36.6845 36.167H35.4095Z" fill="#A68D00"/>
</g>
</mask>
<g mask="url(#mask0)">
<rect width="67" height="67" rx="33.5" fill="#A68D00"/>
</g>
<defs>
<clipPath id="clip0">
<rect x="8" y="12" width="51" height="56" fill="white"/>
</clipPath>
</defs>
</svg>
