<svg width="67" height="69" viewBox="0 0 67 69" fill="none" xmlns="http://www.w3.org/2000/svg">
<rect width="67" height="67" rx="33.5" fill="#FED700"/>
<mask id="mask0" mask-type="alpha" maskUnits="userSpaceOnUse" x="9" y="13" width="49" height="56">
<g clip-path="url(#clip0)">
<path d="M45.6264 47.9932H38.7029V43.0287C41.9117 41.139 43.8904 37.6486 43.8955 33.8692H44.3282C46.0011 33.8692 47.3573 32.486 47.3573 30.7796C47.3573 29.0732 46.0011 27.69 44.3282 27.69H43.86L43.5338 19.7284C43.532 19.6948 43.5286 19.6611 43.5234 19.6278C42.8575 15.3423 38.9117 12.4188 34.7101 13.098C34.0825 13.1995 33.4695 13.3798 32.8854 13.6348L28.9995 15.3315C25.2494 15.4371 22.2623 18.5669 22.2595 22.3935C22.2594 22.4354 22.2623 22.4773 22.2681 22.5188L22.9925 27.69H22.6922C21.0193 27.69 19.6631 29.0732 19.6631 30.7796C19.6631 32.486 21.0193 33.8692 22.6922 33.8692H23.1249C23.13 37.6486 25.1087 41.139 28.3176 43.0287V47.9932H21.394C18.0499 47.9971 15.3397 50.7614 15.3359 54.1725V71.2345V72.1173C15.3359 72.6048 15.7234 73 16.2014 73H50.819C51.297 73 51.6845 72.6048 51.6845 72.1173V54.1725C51.6806 50.7614 48.9706 47.9971 45.6264 47.9932ZM43.8955 29.4555H44.3282C45.0451 29.4555 45.6264 30.0484 45.6264 30.7796C45.6264 31.5109 45.0451 32.1037 44.3282 32.1037H43.8955V29.4555ZM23.1248 32.1037H22.6921C21.9752 32.1037 21.3939 31.5109 21.3939 30.7796C21.3939 30.0484 21.9752 29.4555 22.6921 29.4555H23.1248V32.1037ZM24.1634 23.541L23.9904 22.3334C24.0258 19.4332 26.3394 17.1002 29.183 17.097C29.3003 17.0972 29.4164 17.0729 29.524 17.0255L33.5673 15.26C36.5995 13.9368 40.1091 15.3714 41.4063 18.4642C41.5937 18.9109 41.7279 19.379 41.8063 19.8582L41.8617 21.2079C40.5335 18.9331 37.6486 18.1872 35.4184 19.5421C35.3068 19.6098 35.1979 19.6823 35.0922 19.7593C34.1158 20.4729 32.8135 20.5141 31.7958 19.8635L31.4176 19.6216C29.2187 18.2189 26.3214 18.9 24.9462 21.1428C24.694 21.5543 24.5044 22.0025 24.3841 22.472L24.1634 23.541ZM24.8557 33.8692V28.6663L26.0673 22.886C26.5012 21.2739 28.1342 20.3258 29.7147 20.7684C29.9924 20.8462 30.2577 20.9648 30.5018 21.1205L30.8809 21.3624C32.4926 22.3935 34.5553 22.3283 36.1012 21.1973C37.435 20.2258 39.2884 20.5411 40.2409 21.9016C40.3675 22.0824 40.4742 22.2771 40.5591 22.4817L42.1645 28.6866V33.8692C42.1645 38.7446 38.2898 42.6967 33.5101 42.6967C28.7305 42.6967 24.8557 38.7446 24.8557 33.8692ZM36.972 43.8443V48.5105L33.5102 52.0415L30.0484 48.5105V43.8443C31.1592 44.2507 32.3302 44.4597 33.5102 44.4622C34.6902 44.4597 35.8612 44.2507 36.972 43.8443ZM49.9536 71.2345H17.0668V54.1725C17.0696 51.7361 19.0054 49.7616 21.394 49.7587H28.8247L32.8983 53.9139C33.2363 54.2585 33.7841 54.2585 34.1221 53.9139L38.1957 49.7587H45.6264C48.015 49.7616 49.9508 51.7361 49.9536 54.1725V71.2345Z" fill="#A68D00"/>
<path d="M29.1825 29.6763C28.346 29.6763 27.668 30.3679 27.668 31.2211C27.668 32.0743 28.346 32.7659 29.1825 32.7659C30.0189 32.7659 30.697 32.0743 30.697 31.2211C30.6961 30.3683 30.0186 29.6773 29.1825 29.6763ZM28.9661 31.2211C28.9661 31.0992 29.063 31.0004 29.1825 31.0004C29.302 31.0004 29.3989 31.0992 29.3989 31.2211C29.3989 31.4638 28.9661 31.4638 28.9661 31.2211Z" fill="#A68D00"/>
<path d="M37.8373 29.6763C37.0008 29.6763 36.3228 30.3679 36.3228 31.2211C36.3237 32.0738 37.0013 32.7649 37.8373 32.7659C38.6737 32.7659 39.3518 32.0743 39.3518 31.2211C39.3518 30.3679 38.6737 29.6763 37.8373 29.6763ZM37.6209 31.2211C37.6209 31.0992 37.7177 31.0004 37.8373 31.0004C37.9568 31.0004 38.0536 31.0992 38.0536 31.2211C38.0536 31.4638 37.6209 31.4638 37.6209 31.2211Z" fill="#A68D00"/>
<path d="M35.4573 35.6348C35.4573 36.7317 34.5855 37.621 33.5101 37.621C32.4346 37.621 31.5628 36.7317 31.5628 35.6348H30.2646C30.2646 37.4631 31.7176 38.9451 33.5101 38.9451C35.3025 38.9451 36.7555 37.4631 36.7555 35.6348H35.4573Z" fill="#A68D00"/>
</g>
</mask>
<g mask="url(#mask0)">
<rect width="67" height="67" rx="33.5" fill="#A68D00"/>
</g>
<defs>
<clipPath id="clip0">
<rect x="9" y="13" width="49" height="56" fill="white"/>
</clipPath>
</defs>
</svg>
