<svg width="20" height="20" viewBox="0 0 20 20" fill="none" xmlns="http://www.w3.org/2000/svg">
<path d="M11.7617 9.99473L19.6217 2.13473C20.11 1.64681 20.11 0.855143 19.6217 0.367227C19.1333 -0.121107 18.3425 -0.121107 17.8542 0.367227L9.99417 8.22723L2.13375 0.367227C1.64542 -0.121107 0.854583 -0.121107 0.36625 0.367227C-0.122083 0.855143 -0.122083 1.64681 0.36625 2.13473L8.22667 9.99473L0.36625 17.8547C-0.122083 18.3426 -0.122083 19.1343 0.36625 19.6222C0.610417 19.866 0.930417 19.9881 1.25 19.9881C1.56958 19.9881 1.88958 19.866 2.13375 19.6218L9.99417 11.7618L17.8542 19.6218C18.0983 19.866 18.4183 19.9881 18.7379 19.9881C19.0575 19.9881 19.3775 19.866 19.6217 19.6218C20.11 19.1339 20.11 18.3422 19.6217 17.8543L11.7617 9.99473Z" fill="#98A6BC"/>
</svg>
