<svg width="165" height="18" viewBox="0 0 165 18" fill="none" xmlns="http://www.w3.org/2000/svg">
<g clip-path="url(#clip0)">
<path fill-rule="evenodd" clip-rule="evenodd" d="M68.1826 9L62.5909 2.37073L61.0126 14.7512L68.1826 9Z" fill="#FED700"/>
<path fill-rule="evenodd" clip-rule="evenodd" d="M8.92867 18C7.1249 18 5.5466 17.6927 4.19377 17.0341C2.84094 16.4195 1.80377 15.4976 1.08226 14.3561C0.360754 13.2146 0 11.8976 0 10.4049C0 8.42927 0.450943 6.62927 1.39792 5.04878C2.3449 3.46829 3.65264 2.23902 5.36622 1.31707C7.0798 0.439024 8.97376 0 11.1383 0C12.7617 0 14.2498 0.263415 15.5124 0.834146C16.7751 1.40488 17.7221 2.19512 18.3534 3.24878L14.7007 6.05854C13.8439 4.69756 12.5362 4.03902 10.7775 4.03902C9.65018 4.03902 8.6581 4.30244 7.80131 4.82927C6.94452 5.3561 6.26811 6.05854 5.77207 6.98049C5.27603 7.90244 5.05056 8.9122 5.05056 10.0537C5.05056 11.239 5.45641 12.161 6.22301 12.8634C6.98961 13.5659 8.07188 13.9171 9.37961 13.9171C11.0932 13.9171 12.5362 13.2585 13.7087 11.8976L16.6849 14.7512C15.7379 15.8927 14.6105 16.7268 13.3028 17.2098C12.0853 17.7366 10.5972 18 8.92867 18ZM30.4837 14.3122L31.2052 17.6927H36.2107L31.9268 0.35122H26.9664L15.5575 17.6488H20.8787L22.953 14.2683H30.4837V14.3122ZM29.7171 10.6683H25.1175L28.4996 5.04878L29.7171 10.6683ZM55.962 5.88293C55.962 7.46341 55.5111 8.82439 54.6543 9.96585C53.7975 11.1073 52.5799 11.9415 51.0016 12.4683L54.023 17.6488H48.7469L46.0864 13.039H43.5611L42.6141 17.6488H37.6537L41.2162 0.35122H48.792C51.0467 0.35122 52.8054 0.834146 54.068 1.8C55.3307 2.76585 55.962 4.12683 55.962 5.88293ZM50.8664 6.32195C50.8664 5.61951 50.6409 5.09268 50.1448 4.74146C49.6488 4.39024 48.9724 4.21463 48.0705 4.21463H45.4099L44.3277 9.26341H47.3039C48.4313 9.26341 49.2881 9 49.8743 8.51707C50.5958 7.99024 50.8664 7.2878 50.8664 6.32195ZM60.0205 0.35122H67.7316C69.5805 0.35122 71.1588 0.658537 72.4665 1.22927C73.8193 1.8 74.8114 2.63415 75.5329 3.73171C76.2544 4.82927 76.6152 6.10244 76.6152 7.59512C76.6152 9.61463 76.1642 11.3707 75.2173 12.9073C74.2703 14.4439 72.9626 15.5854 71.2941 16.4195C69.6256 17.2537 67.6865 17.6488 65.522 17.6488H56.4129L60.0205 0.35122ZM65.7024 13.7415C66.9199 13.7415 67.9571 13.478 68.859 12.9951C69.7609 12.5122 70.4373 11.8098 70.8882 10.9317C71.3392 10.0537 71.5646 9.0439 71.5646 7.94634C71.5646 6.76098 71.2039 5.88293 70.4373 5.22439C69.6707 4.60976 68.5884 4.25854 67.1454 4.25854H64.2143L62.2752 13.7415H65.7024ZM84.0557 18C85.7693 18 87.2574 17.7366 88.5652 17.2537C89.8729 16.7268 90.865 16.0244 91.5414 15.1024C92.2629 14.1805 92.5786 13.0829 92.5786 11.8537C92.5786 10.8439 92.308 10.0537 91.7669 9.43902C91.2257 8.82439 90.5944 8.38537 89.8278 8.07805C89.0612 7.77073 88.1142 7.50732 86.9869 7.2C85.9497 6.93658 85.1831 6.67317 84.6871 6.45366C84.191 6.23415 83.9656 5.88293 83.9656 5.4439C83.9656 4.96098 84.2361 4.56585 84.8223 4.21463C85.4086 3.90732 86.1752 3.73171 87.1673 3.73171C88.0691 3.73171 88.9259 3.86341 89.7376 4.08293C90.5944 4.30244 91.361 4.60976 92.0374 5.04878L93.8863 1.40488C93.0746 0.921951 92.1276 0.570732 91.0454 0.307317C89.9631 0.131707 88.7456 0 87.4829 0C85.7693 0 84.2361 0.263415 82.9735 0.746341C81.7108 1.22927 80.6737 1.97561 79.9973 2.89756C79.3208 3.81951 78.9601 4.91707 78.9601 6.14634C78.9601 7.1561 79.2307 7.99024 79.7718 8.60488C80.3129 9.21951 80.9893 9.70244 81.7559 10.0098C82.5225 10.3171 83.4695 10.6244 84.642 10.9317C85.6791 11.1951 86.4007 11.4585 86.8967 11.678C87.3927 11.8976 87.6182 12.2488 87.6182 12.6439C87.6182 13.1268 87.3476 13.478 86.8065 13.7854C86.2654 14.0488 85.5439 14.1805 84.5518 14.1805C83.5146 14.1805 82.5225 14.0488 81.4854 13.7415C80.4482 13.4341 79.5012 13.039 78.5993 12.4683L76.6152 16.1122C77.4269 16.639 78.5092 17.122 79.862 17.4293C81.1697 17.8244 82.5676 18 84.0557 18ZM98.4859 14.9268H106.648L106.062 17.6488H92.9844L93.4354 15.4976L101.823 9.0439C102.905 8.20976 103.672 7.50732 104.078 6.89268C104.483 6.27805 104.709 5.66341 104.709 5.04878C104.709 4.34634 104.438 3.81951 103.942 3.42439C103.446 3.02927 102.68 2.85366 101.688 2.85366C100.876 2.85366 100.109 3.02927 99.3878 3.33659C98.6663 3.6439 98.035 4.12683 97.4488 4.69756L95.194 2.98537C95.9606 2.10732 96.9076 1.40488 98.1252 0.878049C99.3427 0.351219 100.65 0.0878049 102.093 0.0878049C103.311 0.0878049 104.393 0.263415 105.25 0.658537C106.152 1.05366 106.828 1.58049 107.324 2.23902C107.82 2.94146 108.046 3.6878 108.046 4.56585C108.046 5.61951 107.73 6.62927 107.144 7.55122C106.558 8.47317 105.521 9.52683 104.033 10.6683L98.4859 14.9268ZM117.606 11.7659L116.388 17.6927H113.863L115.126 11.6341L110.391 0.35122H112.871L116.704 9.52683L124.28 0.35122H126.986L117.606 11.7659ZM133.795 17.8683C135.914 17.8683 137.808 17.3854 139.477 16.4634C141.1 15.5415 142.408 14.2683 143.31 12.6878C144.212 11.1073 144.662 9.35122 144.662 7.41951C144.662 5.97073 144.347 4.69756 143.67 3.6C142.994 2.50244 142.047 1.66829 140.784 1.05366C139.522 0.439024 138.034 0.131707 136.275 0.131707C134.156 0.131707 132.262 0.614634 130.638 1.53659C129.015 2.45854 127.752 3.73171 126.85 5.3122C125.948 6.89268 125.497 8.64878 125.497 10.5805C125.497 12.0293 125.813 13.3024 126.489 14.4C127.166 15.4976 128.113 16.3317 129.376 16.9463C130.548 17.561 132.036 17.8683 133.795 17.8683ZM134.02 15.6732C132.081 15.6732 130.593 15.1902 129.556 14.2683C128.519 13.3024 127.978 12.0293 127.978 10.4488C127.978 9 128.293 7.63902 128.97 6.40976C129.646 5.18049 130.593 4.17073 131.811 3.46829C133.028 2.72195 134.426 2.37073 136.049 2.37073C137.989 2.37073 139.477 2.85366 140.514 3.77561C141.551 4.74146 142.092 6.01463 142.092 7.59512C142.092 9.0439 141.776 10.4049 141.1 11.6341C140.424 12.8634 139.522 13.8293 138.259 14.5756C137.042 15.278 135.599 15.6732 134.02 15.6732ZM154.448 17.8683C152.328 17.8683 150.705 17.3415 149.533 16.3317C148.36 15.322 147.774 13.8732 147.774 12.0732C147.774 11.5463 147.864 10.8878 147.999 10.1854L150.029 0.35122H152.554L150.525 10.1854C150.389 10.7561 150.344 11.2829 150.344 11.8098C150.344 13.0829 150.705 14.0488 151.472 14.7073C152.238 15.3659 153.321 15.6732 154.718 15.6732C156.297 15.6732 157.605 15.2341 158.552 14.3561C159.498 13.478 160.175 12.0732 160.581 10.1854L162.61 0.395122H165.09L163.061 10.361C162.52 12.8634 161.573 14.7512 160.13 16.0244C158.642 17.2098 156.748 17.8683 154.448 17.8683Z" fill="#FED700"/>
</g>
<defs>
<clipPath id="clip0">
<rect width="165" height="18" fill="white"/>
</clipPath>
</defs>
</svg>