<svg width="60" height="60" viewBox="0 0 60 60" fill="none" xmlns="http://www.w3.org/2000/svg">
<circle cx="30" cy="30" r="29.5" stroke="#DC793E"/>
<path d="M30.0033 22.3084C25.7468 22.3084 22.3134 25.7425 22.3134 30C22.3134 34.2575 25.7468 37.6916 30.0033 37.6916C34.2599 37.6916 37.6933 34.2575 37.6933 30C37.6933 25.7425 34.2599 22.3084 30.0033 22.3084ZM30.0033 35.0006C27.2527 35.0006 25.0039 32.758 25.0039 30C25.0039 27.242 27.246 24.9994 30.0033 24.9994C32.7607 24.9994 35.0028 27.242 35.0028 30C35.0028 32.758 32.754 35.0006 30.0033 35.0006ZM39.8015 21.9938C39.8015 22.9912 38.9983 23.7878 38.0078 23.7878C37.0106 23.7878 36.2142 22.9845 36.2142 21.9938C36.2142 21.003 37.0173 20.1997 38.0078 20.1997C38.9983 20.1997 39.8015 21.003 39.8015 21.9938ZM44.8946 23.8146C44.7808 21.4114 44.232 19.2826 42.4718 17.5287C40.7184 15.7749 38.5901 15.2259 36.1874 15.1054C33.7111 14.9649 26.2889 14.9649 23.8126 15.1054C21.4166 15.2192 19.2883 15.7682 17.5282 17.522C15.768 19.2759 15.2259 21.4047 15.1054 23.8079C14.9649 26.2847 14.9649 33.7086 15.1054 36.1854C15.2192 38.5886 15.768 40.7174 17.5282 42.4713C19.2883 44.2251 21.4099 44.7741 23.8126 44.8946C26.2889 45.0351 33.7111 45.0351 36.1874 44.8946C38.5901 44.7808 40.7184 44.2318 42.4718 42.4713C44.2253 40.7174 44.7741 38.5886 44.8946 36.1854C45.0351 33.7086 45.0351 26.2914 44.8946 23.8146ZM41.6955 38.843C41.1735 40.1551 40.1629 41.1659 38.8444 41.6947C36.8701 42.478 32.1852 42.2972 30.0033 42.2972C27.8215 42.2972 23.1299 42.4713 21.1623 41.6947C19.8505 41.1726 18.8399 40.1618 18.3112 38.843C17.5282 36.8682 17.7089 32.1823 17.7089 30C17.7089 27.8177 17.5349 23.1251 18.3112 21.157C18.8332 19.8449 19.8438 18.8341 21.1623 18.3053C23.1366 17.522 27.8215 17.7028 30.0033 17.7028C32.1852 17.7028 36.8767 17.5287 38.8444 18.3053C40.1562 18.8274 41.1668 19.8382 41.6955 21.157C42.4785 23.1318 42.2978 27.8177 42.2978 30C42.2978 32.1823 42.4785 36.8749 41.6955 38.843Z" fill="#DC793E"/>
</svg>
