<svg width="31" height="30" viewBox="0 0 31 30" fill="none" xmlns="http://www.w3.org/2000/svg">
<path d="M15.3367 7.30838C11.0802 7.30838 7.64682 10.7425 7.64682 15C7.64682 19.2575 11.0802 22.6916 15.3367 22.6916C19.5933 22.6916 23.0266 19.2575 23.0266 15C23.0266 10.7425 19.5933 7.30838 15.3367 7.30838ZM15.3367 20.0006C12.586 20.0006 10.3373 17.758 10.3373 15C10.3373 12.242 12.5793 9.99944 15.3367 9.99944C18.0941 9.99944 20.3362 12.242 20.3362 15C20.3362 17.758 18.0874 20.0006 15.3367 20.0006ZM25.1348 6.99375C25.1348 7.99119 24.3317 8.7878 23.3412 8.7878C22.344 8.7878 21.5475 7.98449 21.5475 6.99375C21.5475 6.00301 22.3507 5.19971 23.3412 5.19971C24.3317 5.19971 25.1348 6.00301 25.1348 6.99375ZM30.228 8.81457C30.1142 6.41136 29.5654 4.28261 27.8052 2.52873C26.0517 0.774852 23.9234 0.225929 21.5208 0.105434C19.0445 -0.0351444 11.6223 -0.0351444 9.14598 0.105434C6.74999 0.219235 4.62172 0.768158 2.86154 2.52203C1.10136 4.27591 0.559252 6.40466 0.438784 8.80788C0.298237 11.2847 0.298237 18.7086 0.438784 21.1854C0.55256 23.5886 1.10136 25.7174 2.86154 27.4713C4.62172 29.2251 6.7433 29.7741 9.14598 29.8946C11.6223 30.0351 19.0445 30.0351 21.5208 29.8946C23.9234 29.7808 26.0517 29.2318 27.8052 27.4713C29.5587 25.7174 30.1075 23.5886 30.228 21.1854C30.3685 18.7086 30.3685 11.2914 30.228 8.81457ZM27.0289 23.843C26.5068 25.1551 25.4962 26.1659 24.1778 26.6947C22.2034 27.478 17.5185 27.2972 15.3367 27.2972C13.1549 27.2972 8.46332 27.4713 6.49567 26.6947C5.1839 26.1726 4.17331 25.1618 3.64458 23.843C2.86154 21.8682 3.04224 17.1823 3.04224 15C3.04224 12.8177 2.86823 8.12507 3.64458 6.15698C4.16661 4.84492 5.17721 3.8341 6.49567 3.30525C8.47002 2.52203 13.1549 2.70278 15.3367 2.70278C17.5185 2.70278 22.2101 2.52873 24.1778 3.30525C25.4895 3.8274 26.5001 4.83822 27.0289 6.15698C27.8119 8.13176 27.6312 12.8177 27.6312 15C27.6312 17.1823 27.8119 21.8749 27.0289 23.843Z" fill="#F5F7FA"/>
</svg>
