<svg width="60" height="60" viewBox="0 0 60 60" fill="none" xmlns="http://www.w3.org/2000/svg">
<circle cx="30" cy="30" r="29.5" stroke="#DC793E"/>
<path d="M37.5982 34.5642C35.9078 35.5834 33.582 35.9876 32.0458 36.1399L33.3352 37.3466L38.0424 41.8159C39.7637 43.4911 36.9628 46.1095 35.223 44.4928C34.0447 43.3564 32.3173 41.7163 30.5158 40.0059L25.8086 44.4869C24.0689 46.0977 21.268 43.456 23.0077 41.81C24.2046 40.6737 25.9135 39.0335 27.7149 37.3407L28.9858 36.134C27.4682 35.9818 25.1053 35.601 23.3964 34.5584C21.3852 33.3283 20.503 32.6078 21.2803 31.1024C21.7368 30.2472 22.9892 29.5267 24.6488 30.7685C24.6488 30.7685 26.8882 32.4614 30.5035 32.4614C34.1187 32.4614 36.3582 30.7685 36.3582 30.7685C38.0178 29.5326 39.264 30.2472 39.7267 31.1024C40.4917 32.6078 39.6094 33.3283 37.5982 34.5642ZM22.4957 22.5972C22.4957 18.3974 26.0924 15 30.4973 15C34.9022 15 38.499 18.3974 38.499 22.5972C38.499 26.7795 34.9022 30.1769 30.4973 30.1769C26.0924 30.1769 22.4957 26.7795 22.4957 22.5972ZM26.5674 22.5972C26.5674 24.6532 28.3319 26.3285 30.4973 26.3285C32.6628 26.3285 34.4272 24.6532 34.4272 22.5972C34.4272 20.5237 32.6628 18.8484 30.4973 18.8484C28.3319 18.8484 26.5674 20.5237 26.5674 22.5972Z" fill="#DC793E"/>
</svg>
