<svg width="19" height="30" viewBox="0 0 19 30" fill="none" xmlns="http://www.w3.org/2000/svg">
<path d="M16.6826 19.5642C15.0515 20.5834 12.8073 20.9876 11.325 21.1399L12.5692 22.3466L17.1112 26.8159C18.7721 28.4911 16.0694 31.1095 14.3907 29.4928C13.2537 28.3564 11.5869 26.7163 9.84869 25.0059L5.30664 29.4869C3.62792 31.0977 0.925316 28.456 2.60403 26.81C3.75889 25.6737 5.40784 24.0335 7.14608 22.3407L8.37237 21.134C6.90796 20.9818 4.62801 20.601 2.97906 19.5584C1.03842 18.3283 0.187159 17.6078 0.937222 16.1024C1.37774 15.2472 2.58617 14.5267 4.1875 15.7685C4.1875 15.7685 6.34839 17.4614 9.83678 17.4614C13.3252 17.4614 15.4861 15.7685 15.4861 15.7685C17.0874 14.5326 18.2899 15.2472 18.7363 16.1024C19.4745 17.6078 18.6232 18.3283 16.6826 19.5642ZM2.10994 7.59724C2.10994 3.39738 5.58047 0 9.83083 0C14.0812 0 17.5517 3.39738 17.5517 7.59724C17.5517 11.7795 14.0812 15.1769 9.83083 15.1769C5.58047 15.1769 2.10994 11.7795 2.10994 7.59724ZM6.03884 7.59724C6.03884 9.65324 7.74137 11.3285 9.83083 11.3285C11.9203 11.3285 13.6228 9.65324 13.6228 7.59724C13.6228 5.52367 11.9203 3.84841 9.83083 3.84841C7.74137 3.84841 6.03884 5.52367 6.03884 7.59724Z" fill="#F5F7FA"/>
</svg>
