<svg width="17" height="16" viewBox="0 0 17 16" fill="none" xmlns="http://www.w3.org/2000/svg">
<g clip-path="url(#clip0)">
<path d="M14.156 2.34502C11.0304 -0.780625 5.97102 -0.781094 2.84493 2.34502C-0.280743 5.47063 -0.281244 10.5301 2.84493 13.6562C5.97058 16.7818 11.03 16.7823 14.156 13.6562C17.2817 10.5305 17.2822 5.4711 14.156 2.34502ZM8.50046 14.6849C4.81474 14.6849 1.81617 11.6863 1.81617 8.00057C1.81617 4.31486 4.81474 1.31632 8.50046 1.31632C12.1862 1.31632 15.1847 4.31489 15.1847 8.00061C15.1847 11.6863 12.1862 14.6849 8.50046 14.6849Z" fill="#DC793E"/>
<path d="M9.5009 4.0061H7.16504C6.80222 4.0061 6.50809 4.30023 6.50809 4.66306V7.34303H5.8303C5.46747 7.34303 5.17334 7.63716 5.17334 7.99999C5.17334 8.36282 5.46747 8.65695 5.8303 8.65695H6.50809V9.34519H5.8303C5.46747 9.34519 5.17334 9.63932 5.17334 10.0021C5.17334 10.365 5.46747 10.6591 5.8303 10.6591H6.50809V11.3369C6.50809 11.6997 6.80222 11.9939 7.16504 11.9939C7.52787 11.9939 7.822 11.6997 7.822 11.3369V10.6591H9.16719C9.53002 10.6591 9.82415 10.365 9.82415 10.0021C9.82415 9.63932 9.53002 9.34519 9.16719 9.34519H7.822V8.65695H9.5009C10.7831 8.65695 11.8263 7.61376 11.8263 6.33154C11.8263 5.04929 10.7831 4.0061 9.5009 4.0061ZM9.5009 7.343H7.822V5.31998H9.5009C10.0586 5.31998 10.5124 5.77372 10.5124 6.33148C10.5124 6.88923 10.0587 7.343 9.5009 7.343Z" fill="#DC793E"/>
</g>
<defs>
<clipPath id="clip0">
<rect x="0.5" width="16" height="16" fill="white"/>
</clipPath>
</defs>
</svg>
