<svg width="16" height="16" viewBox="0 0 16 16" fill="none" xmlns="http://www.w3.org/2000/svg">
<g clip-path="url(#clip0)">
<path d="M14.0406 0H9.32658C8.79256 0 8.29028 0.208008 7.91219 0.585612L0.626221 7.87175C-0.153076 8.65169 -0.153076 9.92041 0.626221 10.7L5.34025 15.4141C5.71818 15.792 6.22062 16 6.75464 16C7.28898 16 7.79126 15.792 8.16886 15.4141L15.4548 8.12793C15.8326 7.75033 16.0406 7.24805 16.0406 6.71403V2C16.0406 0.896973 15.1436 0 14.0406 0ZM14.7073 6.71403C14.7073 6.89193 14.6379 7.05973 14.5123 7.18571L7.22599 14.4714C6.9742 14.7233 6.53491 14.7233 6.28296 14.4714L1.56925 9.75732C1.30933 9.4974 1.30933 9.07438 1.56925 8.81429L8.8549 1.52865C8.98088 1.40267 9.14852 1.33333 9.32658 1.33333H14.0406C14.4083 1.33333 14.7073 1.63232 14.7073 2V6.71403Z" fill="#DC793E"/>
<path d="M12.9928 2.95896C12.6184 2.56296 12.1124 2.34096 11.5681 2.33363C11.0278 2.32305 10.5118 2.53399 10.1264 2.91892C9.3554 3.68991 9.33815 4.91469 10.0875 5.707L10.2548 5.88392C10.6292 6.2796 11.135 6.5016 11.6798 6.50892H11.7084C12.2424 6.50892 12.7431 6.30157 13.1213 5.92331C13.8925 5.15232 13.9094 3.92771 13.1601 3.13571L12.9928 2.95896ZM12.1788 4.98093C12.0504 5.10935 11.8801 5.17966 11.6985 5.17592C11.517 5.17364 11.3484 5.09958 11.2237 4.96758L11.0564 4.79034C10.8067 4.52634 10.8124 4.1183 11.0694 3.8613C11.1951 3.73565 11.3617 3.66664 11.5398 3.66664H11.5494C11.7307 3.66924 11.8995 3.74297 12.024 3.87497L12.1915 4.05238C12.4412 4.31605 12.4358 4.72393 12.1788 4.98093Z" fill="#DC793E"/>
<path d="M5.85635 7.22394L6.17406 7.32501C6.24145 7.34633 6.30948 7.35659 6.37637 7.35659C6.65909 7.35659 6.92113 7.1756 7.01147 6.89191C7.12312 6.54132 6.92911 6.16632 6.57836 6.05466L6.26081 5.95359C5.91006 5.84193 5.53506 6.03562 5.42341 6.3867C5.31176 6.73728 5.50577 7.11228 5.85635 7.22394Z" fill="#DC793E"/>
<path d="M8.22421 10.7758L7.90666 10.6747C7.55526 10.5647 7.18058 10.7574 7.06925 11.1085C6.95792 11.4594 7.15194 11.8341 7.50252 11.9457L7.82023 12.0468C7.88762 12.0678 7.95565 12.0784 8.02222 12.0784C8.30493 12.0784 8.56731 11.897 8.65764 11.613C8.76929 11.2621 8.57528 10.8874 8.22421 10.7758Z" fill="#DC793E"/>
<path d="M8.40889 7.54165L5.05928 9.2744C4.73213 9.44367 4.6042 9.84569 4.77348 10.1727C4.8918 10.402 5.12488 10.533 5.36625 10.533C5.4696 10.533 5.57426 10.5093 5.67191 10.4583L9.02152 8.72606C9.34851 8.55662 9.4766 8.15428 9.30717 7.82729C9.13822 7.50031 8.73653 7.3727 8.40889 7.54165Z" fill="#DC793E"/>
</g>
<defs>
<clipPath id="clip0">
<rect width="16" height="16" fill="white"/>
</clipPath>
</defs>
</svg>
