<svg width="24" height="24" viewBox="0 0 24 24" fill="none" xmlns="http://www.w3.org/2000/svg">
<path fill-rule="evenodd" clip-rule="evenodd" d="M9.375 14.25C6.68261 14.25 4.5 12.0674 4.5 9.375C4.5 6.68261 6.68261 4.5 9.375 4.5C12.0674 4.5 14.25 6.68261 14.25 9.375C14.25 12.0674 12.0674 14.25 9.375 14.25ZM9.375 15.75C5.85418 15.75 3 12.8958 3 9.375C3 5.85418 5.85418 3 9.375 3C12.8958 3 15.75 5.85418 15.75 9.375C15.75 12.8958 12.8958 15.75 9.375 15.75Z" fill="#98A6BC"/>
<path d="M9.375 3C12.723 3 15.5156 5.61413 15.7335 8.95125C15.7605 9.3645 15.4474 9.7215 15.0338 9.7485C14.6224 9.77887 14.2635 9.46237 14.2369 9.04875C14.0704 6.498 11.9347 4.5 9.375 4.5C6.687 4.5 4.5 6.687 4.5 9.375C4.5 12.063 6.687 14.25 9.375 14.25C10.2116 14.25 11.037 14.034 11.7623 13.6241C11.7713 13.6185 11.7806 13.6136 11.79 13.6084C12.5516 13.1726 13.1831 12.5392 13.6166 11.7757C13.7321 11.5721 13.9361 11.4341 14.1683 11.403C14.4011 11.3692 14.634 11.4502 14.799 11.6156L20.3419 17.1585C20.766 17.5834 21 18.1485 21 18.75C21 19.3515 20.766 19.9166 20.3415 20.3415C19.9028 20.7802 19.3264 20.9996 18.75 20.9996C18.1736 20.9996 17.5973 20.7802 17.1585 20.3415L12.0004 15.1837C11.1795 15.5554 10.2825 15.75 9.375 15.75C5.85975 15.75 3 12.8902 3 9.375C3 5.85975 5.85975 3 9.375 3ZM18.219 19.281C18.5115 19.5731 18.9878 19.5739 19.281 19.281C19.422 19.1396 19.5 18.951 19.5 18.75C19.5 18.549 19.422 18.3604 19.281 18.219L14.3813 13.3193C14.07 13.7137 13.7137 14.0704 13.3193 14.3812L18.219 19.281Z" fill="#98A6BC"/>
</svg>