<svg width="60" height="60" viewBox="0 0 60 60" fill="none" xmlns="http://www.w3.org/2000/svg">
<circle cx="30" cy="30" r="29.5" stroke="#DC793E"/>
<path d="M41.9163 23.9812C41.9354 24.2437 41.9354 24.5063 41.9354 24.7687C41.9354 32.775 35.7488 42 24.4417 42C20.9581 42 17.7221 41.0062 15 39.2813C15.4949 39.3375 15.9708 39.3563 16.4848 39.3563C19.3591 39.3563 22.0051 38.4 24.118 36.7688C21.415 36.7125 19.1497 34.9688 18.3693 32.5687C18.75 32.625 19.1307 32.6625 19.5305 32.6625C20.0825 32.6625 20.6346 32.5874 21.1485 32.4563C18.3312 31.8937 16.2182 29.4562 16.2182 26.5125V26.4375C17.0367 26.8875 17.9886 27.1688 18.9974 27.2062C17.3413 26.1187 16.2563 24.2625 16.2563 22.1625C16.2563 21.0375 16.5608 20.0062 17.0939 19.1062C20.1205 22.7812 24.6701 25.1812 29.7715 25.4437C29.6764 24.9937 29.6193 24.525 29.6193 24.0563C29.6193 20.7187 32.3604 18 35.7678 18C37.5381 18 39.137 18.7312 40.2602 19.9125C41.6497 19.65 42.9822 19.1437 44.1625 18.45C43.7055 19.8563 42.7348 21.0375 41.4594 21.7875C42.6967 21.6563 43.896 21.3187 45 20.85C44.1626 22.05 43.1156 23.1187 41.9163 23.9812Z" fill="#DC793E"/>
</svg>
