<svg width="31" height="24" viewBox="0 0 31 24" fill="none" xmlns="http://www.w3.org/2000/svg">
<path d="M27.2497 6.14833C27.2687 6.40353 27.2687 6.65878 27.2687 6.91398C27.2687 14.6978 21.0822 23.6666 9.77503 23.6666C6.2915 23.6666 3.05547 22.7004 0.333374 21.0234C0.828317 21.078 1.30416 21.0963 1.81815 21.0963C4.69247 21.0963 7.33846 20.1666 9.45142 18.5807C6.74836 18.526 4.48312 16.8307 3.70265 14.4973C4.08339 14.552 4.46407 14.5884 4.86386 14.5884C5.41587 14.5884 5.96795 14.5155 6.48187 14.3879C3.66462 13.841 1.5516 11.4713 1.5516 8.60928V8.53639C2.3701 8.9739 3.32196 9.24733 4.33077 9.28375C2.67467 8.22643 1.58969 6.42177 1.58969 4.38009C1.58969 3.28636 1.8942 2.28375 2.42723 1.40875C5.4539 4.98166 10.0034 7.31495 15.1049 7.57021C15.0098 7.1327 14.9526 6.67702 14.9526 6.22128C14.9526 2.97645 17.6938 0.333252 21.1011 0.333252C22.8714 0.333252 24.4704 1.04419 25.5935 2.19263C26.9831 1.93743 28.3156 1.44522 29.4958 0.770755C29.0389 2.13797 28.0681 3.28641 26.7928 4.01553C28.0301 3.88799 29.2293 3.55979 30.3334 3.10411C29.4959 4.27072 28.4489 5.30975 27.2497 6.14833Z" fill="#F5F7FA"/>
</svg>
