<svg width="40" height="40" viewBox="0 0 40 40" fill="none" xmlns="http://www.w3.org/2000/svg">
<path opacity="0.5" fill-rule="evenodd" clip-rule="evenodd" d="M20 40C31.0457 40 40 31.0457 40 20C40 8.9543 31.0457 0 20 0C8.9543 0 0 8.9543 0 20C0 31.0457 8.9543 40 20 40ZM28.9923 23.386C28.9923 23.2155 28.9303 23.0604 28.8062 22.9364L20.4496 14.5798C20.2016 14.3318 19.7985 14.3318 19.5504 14.5798L11.1938 22.9364C10.9458 23.1845 10.9458 23.5876 11.1938 23.8356C11.4419 24.0837 11.845 24.0837 12.093 23.8356L20 15.9287L27.907 23.8356C28.1551 24.0837 28.5582 24.0837 28.8062 23.8356C28.9303 23.7116 28.9923 23.5566 28.9923 23.386Z" fill="#98A6BC"/>
</svg>
