<svg width="24" height="24" viewBox="0 0 24 24" fill="none" xmlns="http://www.w3.org/2000/svg">
<g clip-path="url(#clip0)">
<path d="M20.4838 3.51618C15.7954 -1.17234 8.20628 -1.17309 3.51716 3.51618C-1.17136 8.2046 -1.17211 15.7937 3.51716 20.4828C8.20558 25.1714 15.7947 25.1721 20.4838 20.4828C25.1723 15.7945 25.173 8.20535 20.4838 3.51618ZM12.0004 22.0259C6.47187 22.0259 1.97401 17.5281 1.97401 11.9995C1.97401 6.47094 6.47187 1.97308 12.0004 1.97308C17.529 1.97308 22.0269 6.47094 22.0269 11.9995C22.0269 17.5281 17.5291 22.0259 12.0004 22.0259Z" fill="#DC793E"/>
<path d="M14.4731 11.6718C15.8094 9.70384 14.3973 7.01031 11.9999 7.01031C9.60188 7.01031 8.19041 9.70426 9.52666 11.672C8.02453 12.5329 7.01028 14.1524 7.01028 16.0043C7.01028 16.5486 7.45148 16.9898 7.99572 16.9898C8.53996 16.9898 8.98115 16.5486 8.98115 16.0043C8.98115 14.3397 10.3354 12.9855 12 12.9855C13.6646 12.9855 15.0189 14.3397 15.0189 16.0043C15.0189 16.5486 15.4601 16.9898 16.0043 16.9898C16.5485 16.9898 16.9897 16.5486 16.9897 16.0043C16.9897 14.1523 15.9754 12.5327 14.4731 11.6718ZM11.9999 8.98114C12.5604 8.98114 13.0166 9.43726 13.0166 9.99783C13.0166 10.5584 12.5604 11.0146 11.9999 11.0146C11.4393 11.0146 10.9831 10.5584 10.9831 9.99783C10.9831 9.43726 11.4392 8.98114 11.9999 8.98114Z" fill="#DC793E"/>
</g>
<defs>
<clipPath id="clip0">
<rect width="24" height="24" fill="white"/>
</clipPath>
</defs>
</svg>
