<svg width="60" height="60" viewBox="0 0 60 60" fill="none" xmlns="http://www.w3.org/2000/svg">
<circle cx="30" cy="30" r="29.5" stroke="#DC793E"/>
<path d="M45.2707 23.1528C45.4905 22.4887 45.2707 22 44.2133 22H40.7143C39.8233 22 39.4134 22.4197 39.1936 22.8872C39.1936 22.8872 37.4114 26.7706 34.8927 29.2888C34.0788 30.0166 33.7046 30.2503 33.259 30.2503C33.0392 30.2503 32.7006 30.0166 32.7006 29.3525V23.1528C32.7006 22.3559 32.4511 22 31.7145 22H26.2136C25.6552 22 25.3226 22.3719 25.3226 22.7172C25.3226 23.4716 26.5819 23.6469 26.7126 25.7719V30.3831C26.7126 31.3925 26.5107 31.5784 26.0651 31.5784C24.877 31.5784 21.9899 27.6791 20.2791 23.2166C19.9345 22.3506 19.5959 22 18.6989 22H15.2C14.202 22 14 22.4197 14 22.8872C14 23.7159 15.1881 27.8331 19.5306 33.2731C22.4236 36.9866 26.4988 39 30.2056 39C32.4333 39 32.7066 38.5538 32.7066 37.7834C32.7066 34.2347 32.5046 33.9 33.6214 33.9C34.1382 33.9 35.0293 34.1338 37.1085 35.9241C39.4847 38.0491 39.8767 39 41.2074 39H44.7064C45.7044 39 46.2093 38.5538 45.9182 37.6719C45.2529 35.8178 40.7559 32.0034 40.554 31.7484C40.0371 31.1534 40.1856 30.8878 40.554 30.3566C40.5599 30.3513 44.8311 24.975 45.2707 23.1528Z" fill="#DC793E"/>
</svg>
