<svg width="33" height="18" viewBox="0 0 33 18" fill="none" xmlns="http://www.w3.org/2000/svg">
<path d="M31.6117 1.79696C31.8292 1.14591 31.6117 0.666748 30.5653 0.666748H27.1028C26.221 0.666748 25.8154 1.07821 25.5979 1.53654C25.5979 1.53654 23.8343 5.34383 21.3418 7.81258C20.5364 8.52612 20.1661 8.75529 19.7252 8.75529C19.5077 8.75529 19.1726 8.52612 19.1726 7.87508V1.79696C19.1726 1.01571 18.9257 0.666748 18.1967 0.666748H12.7532C12.2006 0.666748 11.8714 1.03133 11.8714 1.36987C11.8714 2.10946 13.1176 2.28133 13.247 4.36466V8.8855C13.247 9.87508 13.0471 10.0574 12.6062 10.0574C11.4305 10.0574 8.57347 6.23446 6.88043 1.85946C6.53947 1.0105 6.20439 0.666748 5.31672 0.666748H1.85423C0.866621 0.666748 0.666748 1.07821 0.666748 1.53654C0.666748 2.34904 1.84247 6.3855 6.13973 11.7188C9.00261 15.3595 13.0353 17.3334 16.7036 17.3334C18.9081 17.3334 19.1785 16.8959 19.1785 16.1407C19.1785 12.6615 18.9786 12.3334 20.0838 12.3334C20.5952 12.3334 21.477 12.5626 23.5345 14.3178C25.886 16.4011 26.2739 17.3334 27.5907 17.3334H31.0532C32.0409 17.3334 32.5405 16.8959 32.2525 16.0313C31.5941 14.2136 27.144 10.474 26.9441 10.224C26.4327 9.64071 26.5796 9.38029 26.9441 8.85946C26.95 8.85425 31.1767 3.58341 31.6117 1.79696Z" fill="#F5F7FA"/>
</svg>
