<svg width="268" height="29" viewBox="0 0 268 29" fill="none" xmlns="http://www.w3.org/2000/svg">
<rect y="11" width="6" height="6" fill="white"/>
<path d="M32.512 23.288C31.184 23.288 29.896 23.112 28.648 22.76C27.416 22.392 26.424 21.92 25.672 21.344L26.992 18.416C27.712 18.944 28.568 19.368 29.56 19.688C30.552 20.008 31.544 20.168 32.536 20.168C33.64 20.168 34.456 20.008 34.984 19.688C35.512 19.352 35.776 18.912 35.776 18.368C35.776 17.968 35.616 17.64 35.296 17.384C34.992 17.112 34.592 16.896 34.096 16.736C33.616 16.576 32.96 16.4 32.128 16.208C30.848 15.904 29.8 15.6 28.984 15.296C28.168 14.992 27.464 14.504 26.872 13.832C26.296 13.16 26.008 12.264 26.008 11.144C26.008 10.168 26.272 9.288 26.8 8.504C27.328 7.704 28.12 7.072 29.176 6.608C30.248 6.144 31.552 5.912 33.088 5.912C34.16 5.912 35.208 6.04 36.232 6.296C37.256 6.552 38.152 6.92 38.92 7.4L37.72 10.352C36.168 9.472 34.616 9.032 33.064 9.032C31.976 9.032 31.168 9.208 30.64 9.56C30.128 9.912 29.872 10.376 29.872 10.952C29.872 11.528 30.168 11.96 30.76 12.248C31.368 12.52 32.288 12.792 33.52 13.064C34.8 13.368 35.848 13.672 36.664 13.976C37.48 14.28 38.176 14.76 38.752 15.416C39.344 16.072 39.64 16.96 39.64 18.08C39.64 19.04 39.368 19.92 38.824 20.72C38.296 21.504 37.496 22.128 36.424 22.592C35.352 23.056 34.048 23.288 32.512 23.288ZM47.9423 9.368H42.5663V6.2H57.2063V9.368H51.8303V23H47.9423V9.368ZM72.4023 23L69.1622 18.32H68.9702H65.5862V23H61.6982V6.2H68.9702C70.4582 6.2 71.7463 6.448 72.8343 6.944C73.9383 7.44 74.7863 8.144 75.3783 9.056C75.9703 9.968 76.2663 11.048 76.2663 12.296C76.2663 13.544 75.9623 14.624 75.3542 15.536C74.7622 16.432 73.9142 17.12 72.8102 17.6L76.5782 23H72.4023ZM72.3302 12.296C72.3302 11.352 72.0262 10.632 71.4183 10.136C70.8102 9.624 69.9222 9.368 68.7542 9.368H65.5862V15.224H68.7542C69.9222 15.224 70.8102 14.968 71.4183 14.456C72.0262 13.944 72.3302 13.224 72.3302 12.296ZM94.7547 19.88V23H81.7467V6.2H94.4427V9.32H85.6107V12.968H93.4107V15.992H85.6107V19.88H94.7547ZM111.312 19.4H103.512L102.024 23H98.0402L105.528 6.2H109.368L116.88 23H112.8L111.312 19.4ZM110.088 16.448L107.424 10.016L104.76 16.448H110.088ZM136.311 23L136.287 12.92L131.343 21.224H129.591L124.671 13.136V23H121.023V6.2H124.239L130.527 16.64L136.719 6.2H139.911L139.959 23H136.311Z" fill="white"/>
<path d="M151.865 23.288C150.537 23.288 149.249 23.112 148.001 22.76C146.769 22.392 145.777 21.92 145.025 21.344L146.345 18.416C147.065 18.944 147.921 19.368 148.913 19.688C149.905 20.008 150.897 20.168 151.889 20.168C152.993 20.168 153.809 20.008 154.337 19.688C154.865 19.352 155.129 18.912 155.129 18.368C155.129 17.968 154.969 17.64 154.649 17.384C154.345 17.112 153.945 16.896 153.449 16.736C152.969 16.576 152.313 16.4 151.481 16.208C150.201 15.904 149.153 15.6 148.337 15.296C147.521 14.992 146.817 14.504 146.225 13.832C145.649 13.16 145.361 12.264 145.361 11.144C145.361 10.168 145.625 9.288 146.153 8.504C146.681 7.704 147.473 7.072 148.529 6.608C149.601 6.144 150.905 5.912 152.441 5.912C153.513 5.912 154.561 6.04 155.585 6.296C156.609 6.552 157.505 6.92 158.273 7.4L157.073 10.352C155.521 9.472 153.969 9.032 152.417 9.032C151.329 9.032 150.521 9.208 149.993 9.56C149.481 9.912 149.225 10.376 149.225 10.952C149.225 11.528 149.521 11.96 150.113 12.248C150.721 12.52 151.641 12.792 152.873 13.064C154.153 13.368 155.201 13.672 156.017 13.976C156.833 14.28 157.529 14.76 158.105 15.416C158.697 16.072 158.993 16.96 158.993 18.08C158.993 19.04 158.721 19.92 158.177 20.72C157.649 21.504 156.849 22.128 155.777 22.592C154.705 23.056 153.401 23.288 151.865 23.288ZM167.295 9.368H161.919V6.2H176.559V9.368H171.183V23H167.295V9.368ZM191.272 19.4H183.472L181.984 23H178L185.488 6.2H189.328L196.84 23H192.76L191.272 19.4ZM190.048 16.448L187.384 10.016L184.72 16.448H190.048ZM203.619 9.368H198.243V6.2H212.883V9.368H207.507V23H203.619V9.368ZM217.375 6.2H221.263V23H217.375V6.2ZM235.786 23.288C234.042 23.288 232.466 22.912 231.058 22.16C229.666 21.408 228.57 20.376 227.77 19.064C226.986 17.736 226.594 16.248 226.594 14.6C226.594 12.952 226.986 11.472 227.77 10.16C228.57 8.832 229.666 7.792 231.058 7.04C232.466 6.288 234.042 5.912 235.786 5.912C237.53 5.912 239.098 6.288 240.49 7.04C241.882 7.792 242.978 8.832 243.778 10.16C244.578 11.472 244.978 12.952 244.978 14.6C244.978 16.248 244.578 17.736 243.778 19.064C242.978 20.376 241.882 21.408 240.49 22.16C239.098 22.912 237.53 23.288 235.786 23.288ZM235.786 19.976C236.778 19.976 237.674 19.752 238.474 19.304C239.274 18.84 239.898 18.2 240.346 17.384C240.81 16.568 241.042 15.64 241.042 14.6C241.042 13.56 240.81 12.632 240.346 11.816C239.898 11 239.274 10.368 238.474 9.92C237.674 9.456 236.778 9.224 235.786 9.224C234.794 9.224 233.898 9.456 233.098 9.92C232.298 10.368 231.666 11 231.202 11.816C230.754 12.632 230.53 13.56 230.53 14.6C230.53 15.64 230.754 16.568 231.202 17.384C231.666 18.2 232.298 18.84 233.098 19.304C233.898 19.752 234.794 19.976 235.786 19.976ZM265.708 6.2V23H262.516L254.14 12.8V23H250.3V6.2H253.516L261.868 16.4V6.2H265.708Z" fill="url(#paint0_linear_302_27183)"/>
<defs>
<linearGradient id="paint0_linear_302_27183" x1="147" y1="14" x2="268" y2="14" gradientUnits="userSpaceOnUse">
<stop stop-color="#4B71FB"/>
<stop offset="1" stop-color="#B458E7"/>
</linearGradient>
</defs>
</svg>
