<svg width="28" height="28" viewBox="0 0 28 28" fill="none" xmlns="http://www.w3.org/2000/svg">
<path d="M14.3819 13.8739L10.7401 9.41442C12.851 8.64145 14.0804 7.11532 14.0804 5.03424C14.0804 1.92252 11.3664 0 7.02859 0H0V13.8739H3.75786V10.009H7.21416L10.3457 13.8739H14.3819ZM10.2761 5.03424C10.2761 6.54055 9.11629 7.45226 6.81982 7.45226H3.75786V2.61622H6.81982C9.11629 2.61622 10.2761 3.50811 10.2761 5.03424Z" fill="white"/>
<path d="M19.1017 13.8739H22.8355V2.61622H27.9982V0H13.939V2.61622H19.1017V13.8739Z" fill="#8A38F4"/>
<path d="M14.4221 27.9998L14.3856 15.0817H11.9545L7.23848 23.1094L2.44938 15.0817H0V27.9998H2.77841V20.415L6.5256 26.6342H7.85996L11.6254 20.2489L11.6437 27.9998H14.4221Z" fill="#8A38F4"/>
<path d="M21.6016 15.0817H15.2241V27.9998H18.6339V24.4381H21.6016C25.5376 24.4381 28.0002 22.648 28.0002 19.7691C28.0002 16.8718 25.5376 15.0817 21.6016 15.0817ZM21.4122 22.0021H18.6339V17.5177H21.4122C23.496 17.5177 24.5484 18.3481 24.5484 19.7691C24.5484 21.1717 23.496 22.0021 21.4122 22.0021Z" fill="white"/>
</svg>
