<svg version="1.1" width="79" height="24" xmlns="http://www.w3.org/2000/svg" xmlns:xlink="http://www.w3.org/1999/xlink" x="0px" y="0px"
	 viewBox="0 0 78.9999 23.019" enable-background="new 0 0 78.9999 23.019" xml:space="preserve">
	<path fill="#FF004F" d="M15.097,8.3094c1.4863,1.0619,3.3071,1.6867,5.2736,1.6867V6.2138
		c-0.3722,0.0001-0.7434-0.0387-1.1075-0.1158v2.9772c-1.9664,0-3.7869-0.6248-5.2736-1.6866v7.7185
		c0,3.8612-3.1317,6.9911-6.9947,6.9911c-1.4414,0-2.781-0.4355-3.8939-1.1825c1.2702,1.298,3.0415,2.1033,5.0012,2.1033
		c3.8632,0,6.995-3.1299,6.995-6.9913V8.3094H15.097z M16.4633,4.4935c-0.7596-0.8294-1.2583-1.9013-1.3662-3.0863V0.9207h-1.0495
		C14.3117,2.4269,15.2128,3.7136,16.4633,4.4935L16.4633,4.4935z M5.5443,17.9527c-0.4244-0.5562-0.6537-1.2365-0.6527-1.9361
		c0-1.766,1.4324-3.1978,3.1997-3.1978c0.3294-0.0001,0.6567,0.0503,0.9706,0.1499V9.1019c-0.3668-0.0502-0.737-0.0716-1.107-0.0638
		v3.0097c-0.3141-0.0995-0.6416-0.1501-0.9711-0.1498c-1.7672,0-3.1996,1.4317-3.1996,3.1979
		C3.7842,16.3448,4.5002,17.426,5.5443,17.9527z"/>
	<path fill="#FFFFFF" d="M13.9895,7.3885c1.4867,1.0618,3.3073,1.6866,5.2736,1.6866V6.0979
		c-1.0976-0.2337-2.0693-0.807-2.7999-1.6044c-1.2506-0.78-2.1516-2.0667-2.4157-3.5728h-2.7568v15.1068
		c-0.0062,1.7611-1.4362,3.1872-3.1997,3.1872c-1.0392,0-1.9624-0.4951-2.547-1.262c-1.0441-0.5267-1.76-1.608-1.76-2.8566
		c0-1.766,1.4323-3.1979,3.1996-3.1979c0.3386,0,0.6649,0.0527,0.9711,0.1498V9.0382c-3.7951,0.0784-6.8472,3.1777-6.8472,6.9894
		c0,1.9028,0.7601,3.6278,1.9936,4.8881c1.1129,0.7469,2.4526,1.1825,3.8939,1.1825c3.863,0,6.9947-3.1301,6.9947-6.9912
		L13.9895,7.3885L13.9895,7.3885z"/>
	<path fill="#00F2EA" d="M19.2632,6.0979v-0.805c-0.9898,0.0015-1.9601-0.2756-2.7999-0.7995
		C17.2067,5.3069,18.1855,5.8678,19.2632,6.0979z M14.0475,0.9207c-0.0252-0.1439-0.0446-0.2888-0.058-0.4343V0h-3.8064v15.107
		c-0.0061,1.7609-1.436,3.1869-3.1996,3.1869c-0.5178,0-1.0066-0.1228-1.4395-0.3411c0.5847,0.7669,1.5079,1.2619,2.547,1.2619
		c1.7633,0,3.1935-1.4259,3.1997-3.187V0.9207H14.0475z M7.9548,9.0382v-0.857C7.6368,8.1378,7.3161,8.116,6.995,8.1161
		C3.1317,8.1161,0,11.2461,0,15.107c0,2.4206,1.2308,4.5538,3.1011,5.8086c-1.2336-1.2603-1.9936-2.9853-1.9936-4.888
		C1.1075,12.2159,4.1596,9.1166,7.9548,9.0382z"/>
	<path fill="#FF004F" d="M63.3679,18.933c2.7641,0,5.005-2.2227,5.005-4.9644c0-2.7415-2.2408-4.9647-5.005-4.9647h-0.7541
		c2.7642,0,5.005,2.2231,5.005,4.9647s-2.2408,4.9644-5.005,4.9644H63.3679z"/>
	<path fill="#00F2EA" d="M62.5455,9.004h-0.754c-2.764,0-5.0053,2.2231-5.0053,4.9647s2.2412,4.9644,5.0053,4.9644h0.754
		c-2.7644,0-5.0053-2.2227-5.0053-4.9644C57.5402,11.2272,59.7811,9.004,62.5455,9.004z"/>
	<path fill="#FFFFFF" d="M24.4949,6.7602v2.5164h2.9476v9.5885h2.9488V9.3445h2.3994l0.8227-2.5842L24.4949,6.7602L24.4949,6.7602z
		 M48.6279,6.7602v2.5164h2.9476v9.5885h2.9488V9.3445h2.3993l0.8226-2.5842L48.6279,6.7602L48.6279,6.7602z M34.1623,8.1882
		c0-0.7885,0.6435-1.428,1.4386-1.428c0.7958,0,1.44,0.6395,1.44,1.428c0,0.7886-0.6439,1.4281-1.44,1.4281
		C34.8058,9.6159,34.1623,8.9768,34.1623,8.1882z M34.1623,10.6366h2.8786v8.2285h-2.8786V10.6366z M38.2752,6.7602V18.865h2.8797
		v-3.1279l0.8914-0.8168l2.8106,4.0126h3.0849l-4.0454-5.8484l3.6338-3.5367h-3.4964l-2.8789,2.8561V6.7602H38.2752z
		 M69.3322,6.7602V18.865h2.8801v-3.1279l0.891-0.8168l2.8114,4.0126h3.0854l-4.0454-5.8484l3.6336-3.5367H75.092l-2.8797,2.8561
		V6.7602H69.3322z"/>
	<path fill="#FFFFFF" d="M62.6136,18.933c2.764,0,5.0053-2.2227,5.0053-4.9644c0-2.7415-2.2412-4.9647-5.0053-4.9647h-0.0683
		c-2.7642,0-5.005,2.2231-5.005,4.9647s2.2408,4.9644,5.005,4.9644H62.6136z M60.1455,13.9687c0-1.3336,1.0902-2.4138,2.4345-2.4138
		c1.3434,0,2.4335,1.0802,2.4335,2.4138s-1.0901,2.4145-2.4335,2.4145C61.2357,16.3829,60.1455,15.3023,60.1455,13.9687z"/>
</svg>