<svg version="1.1" width="72" height="45" xmlns="http://www.w3.org/2000/svg" xmlns:xlink="http://www.w3.org/1999/xlink" x="0px" y="0px" viewBox="0 0 71.998 44.3448" enable-background="new 0 0 71.998 44.3448" xml:space="preserve">
	<path fill-rule="evenodd" clip-rule="evenodd" fill="#6441A4" d="M44.8431,0l-0.9965,3.2387l0.0224,14.9477h3.7146v1.993h1.993
	l1.993-1.993h3.4878l6.4773-6.4773V0H44.8431z M59.7907,10.7125l-2.7404,2.7404H52.566l-2.4913,2.4913v-2.4913h-3.7369V1.7439
	h13.4529V10.7125z M55.3064,4.9826h1.7439v4.9826h-1.7439V4.9826z M50.8221,4.9826h1.7439v4.9826h-1.7439V4.9826z M71.998,28.1515
	v11.709l-6.4773,4.4843h-3.9861v-1.993l-2.9895,1.993h-3.4878v-1.993l-2.2422,1.993h-6.4773l-1.993-1.993l-0.4983,1.993
	L38.13,44.3302l-2.2555-1.9785l-0.2491,1.993l-6.479-0.0146l-0.2475-1.9785l-1.7434,1.9785l-9.9656,0.0146l-1.993-0.9965v0.9965
	H9.716l-5.9791-3.7369L0,36.871l0-16.4425h7.723l3.7369,3.7369h16.9407v-3.7369h13.9512v3.7369h3.4878v1.993l1.993-1.993h4.2352
	l3.7369-3.7369h7.9721v3.7369h4.2352L71.998,28.1515z M9.716,25.9093H6.2282v-3.7369H1.7439v13.9512l2.7404,2.9895H9.716v-4.7334
	H6.2282v-3.986H9.716V25.9093z M28.4006,25.9093h-4.4843v8.4704h-1.7439v-8.4704h-4.2352v8.4704h-1.7439v-8.4704h-4.7334v13.2038
	h13.9512l2.9895-2.9895V25.9093z M34.3797,25.9093h-4.2352v13.2038h4.2352V25.9093z M34.3797,22.1724h-4.2352v1.993h4.2352V22.1724z
	 M44.0957,25.9093h-3.4878v-3.7369h-4.4843v13.9512l2.7404,2.9895h5.2317v-4.7334h-3.4878v-3.986h3.4878V25.9093z M55.5556,25.9093
	H48.58l-2.7404,2.7404v7.4738l2.9895,2.9895h6.7265v-4.7334H50.573v-3.986h4.9826V25.9093z M70.2541,28.6497l-2.9895-2.7404h-5.2317
	v-3.7369h-4.7334v16.9407h4.7334v-8.7195h3.4878v8.7195h4.7334V28.6497z"/>
</svg>
