<svg version="1.1" width="32" height="32" xmlns="http://www.w3.org/2000/svg" xmlns:xlink="http://www.w3.org/1999/xlink" x="0px" y="0px"
	 viewBox="0 0 32 32" enable-background="new 0 0 32 32" xml:space="preserve">
<path fill="#0077FF" d="M0,15.36C0,8.1192,0,4.4988,2.2494,2.2494S8.1192,0,15.36,0h1.28c7.2408,0,10.8611,0,13.1106,2.2494
	C32,4.4988,32,8.1192,32,15.36v1.28c0,7.2408,0,10.8611-2.2494,13.1106C27.5011,32,23.8808,32,16.64,32h-1.28
	c-7.2408,0-10.8612,0-13.1106-2.2494C0,27.5011,0,23.8808,0,16.64V15.36z"/>
<path fill="#FFFFFF" d="M17.0267,23.0534c-7.2933,0-11.4533-5-11.6266-13.32h3.6533c0.12,6.1067,2.8133,8.6933,4.9466,9.2267V9.7334
	h3.4401v5.2667c2.1067-0.2267,4.3197-2.6267,5.0664-5.2667h3.4401c-0.5733,3.2533-2.9733,5.6533-4.68,6.64
	c1.7067,0.8,4.4401,2.8933,5.4801,6.68h-3.7868c-0.8133-2.5333-2.8398-4.4933-5.5198-4.76v4.76H17.0267z"/>
</svg>