<svg version="1.1" width="76" height="32" xmlns="http://www.w3.org/2000/svg" xmlns:xlink="http://www.w3.org/1999/xlink" x="0px" y="0px" viewBox="0 0 75.9999 31.7146" enable-background="new 0 0 75.9999 31.7146" xml:space="preserve">
	<g id="XMLID_7_">
		<path id="lozenge_2_" fill="#FF0000" d="M75.5472,6.842c0,0-0.4424-3.1073-1.8005-4.4759
			c-1.7224-1.7956-3.6531-1.805-4.5383-1.9099C62.8696,0,53.3617,0,53.3617,0h-0.0198c0,0-9.5079,0-15.8462,0.4562
			c-0.8857,0.1049-2.8158,0.1143-4.5387,1.9099c-1.3582,1.3686-1.8,4.4759-1.8,4.4759s-0.4532,3.6486-0.4532,7.2977v3.421
			c0,3.6491,0.4532,7.2977,0.4532,7.2977s0.4419,3.1073,1.8,4.4759c1.7229,1.7961,3.9865,1.7392,4.9944,1.9272
			c3.6239,0.3464,15.4004,0.4532,15.4004,0.4532s9.5178-0.0138,15.8566-0.47c0.8852-0.1054,2.8159-0.1143,4.5383-1.9104
			c1.3582-1.3686,1.8005-4.4759,1.8005-4.4759s0.4527-3.6486,0.4527-7.2977v-3.421C75.9999,10.4906,75.5472,6.842,75.5472,6.842z"/>
		<path id="u_3_" fill="#FFFFFF" d="M28.3659,25.6653h-2.8822v-1.6685c-1.0925,1.2523-2.0188,1.8846-3.0286,1.8846
			c-0.8857,0-1.5012-0.4176-1.8089-1.1726c-0.1871-0.4592-0.3197-1.1761-0.3197-2.2291V10.3446h2.8817v11.3767
			c0,0.6437,0,0.9104,0,1.0618c0.0673,0.4255,0.2484,0.5813,0.6145,0.5813c0.5517,0,1.0509-0.4795,1.661-1.3399v-11.68h2.8822
			V25.6653z"/>
		<path id="o_2_" fill="#FFFFFF" d="M18.2029,15.3504c0-1.6373-0.329-2.8668-0.9104-3.6407
			c-0.7679-1.048-1.9717-1.4769-3.1855-1.4769c-1.3735,0-2.419,0.4289-3.1855,1.4769c-0.5908,0.7739-0.9074,2.0168-0.9074,3.654
			l-0.0025,5.4477c0,1.6279,0.2816,2.7525,0.8718,3.5189c0.7669,1.045,2.0103,1.5982,3.2236,1.5982
			c1.2137,0,2.4784-0.5532,3.2463-1.5982c0.5814-0.7664,0.8496-1.8911,0.8496-3.5189V15.3504z M15.3207,21.1147
			c0.1514,1.517-0.3191,2.2696-1.2142,2.2696c-0.8946,0-1.3646-0.7526-1.2127-2.2696v-6.0676
			c-0.1519-1.517,0.3181-2.228,1.2132-2.228c0.8951,0,1.3666,0.711,1.2152,2.228L15.3207,21.1147z"/>
		<path id="y_2_" fill="#FFFFFF" d="M6.8262,17.3221v8.3432H3.7921v-8.3432c0,0-3.1439-10.2283-3.7921-12.1348h3.1855l2.1286,7.9904
			l2.1187-7.9904h3.1855L6.8262,17.3221z"/>
		<path id="e_2_" fill="#FFFFFF" d="M72.2093,18.5359l-0.0005-3.1009c0-1.6199-0.3191-2.8055-0.8936-3.5719
			c-0.7694-1.037-1.8629-1.5863-3.2404-1.5863c-1.4022,0-2.4957,0.5492-3.2898,1.5863c-0.5834,0.7664-0.9238,2.0188-0.9238,3.6392
			v5.3091c0,1.6105,0.3741,2.7382,0.9575,3.4967c0.7941,1.0356,1.8876,1.5527,3.324,1.5527c1.4349,0,2.5621-0.5423,3.3215-1.6432
			c0.334-0.4859,0.5497-1.0366,0.6423-1.6451c0.0247-0.2751,0.0975-0.9015,0.0975-1.7862v-0.43h-2.8822
			c0,1.1019,0.0054,1.757-0.0203,1.9064c-0.1568,0.7343-0.5507,1.1019-1.2266,1.1019c-0.9431,0-1.3414-0.7051-1.3315-2.1043v-2.7243
			H72.2093z M66.7433,14.5859c0-1.4181,0.3884-1.8045,1.3058-1.8045c0.9104,0,1.2726,0.4216,1.2726,1.8233v1.6556l-2.5784,0.0029
			V14.5859z"/>
		<path id="b_2_" fill="#FFFFFF" d="M59.4783,10.253c-1.0103,0-2.0142,0.6215-2.9014,1.713l0.0029-6.6272h-2.7302v20.3265h2.7302
			l0.004-1.5274c0.9178,1.1355,1.9183,1.7229,2.8945,1.7229c1.0935,0,1.8926-0.5854,2.2592-1.7125
			c0.1831-0.6427,0.3033-1.6318,0.3033-3.0336v-6.0676c0-1.4359-0.1841-2.4176-0.3676-3.0271
			C61.3071,10.8849,60.5718,10.253,59.4783,10.253z M59.1587,21.2661c0,1.5171-0.3578,2.0984-1.1494,2.0984
			c-0.4522,0-0.9733-0.2325-1.4324-0.6917l0.0029-9.1996c0.4592-0.4533,0.9773-0.6918,1.4295-0.6918
			c0.7917,0,1.1494,0.4453,1.1494,1.9624V21.2661z"/>
		<path id="u_2_" fill="#FFFFFF" d="M51.5741,25.6653h-2.8817v-1.6685c-1.093,1.2523-2.0188,1.8846-3.0286,1.8846
			c-0.8857,0-1.5012-0.4176-1.8089-1.1726c-0.1875-0.4592-0.3201-1.1761-0.3201-2.2291V10.4965h2.8821v11.2248
			c0,0.6437,0,0.9104,0,1.0618c0.0673,0.4255,0.2479,0.5813,0.6145,0.5813c0.5517,0,1.051-0.4795,1.6611-1.3399V10.4965h2.8817
			V25.6653z"/>
		<polygon id="T_2_" fill="#FFFFFF" points="40.6525,25.6653 37.619,25.6653 37.619,8.221 34.4335,8.221 34.4335,5.3422 
			43.9899,5.3388 43.9899,8.221 40.6525,8.221 	"/>
	</g>
</svg>