<?xml version="1.0" encoding="UTF-8"?>
<svg width="48px" height="48px" viewBox="0 0 48 48" version="1.1" xmlns="http://www.w3.org/2000/svg" xmlns:xlink="http://www.w3.org/1999/xlink">
    <!-- Generator: Sketch 55 (78076) - https://sketchapp.com -->
    <title>OK</title>
    <desc>Created with Sketch.</desc>
    <g id="Design" stroke="none" stroke-width="1" fill="none" fill-rule="evenodd">
        <g id="LK-MAIN" transform="translate(-761.000000, -554.000000)">
            <g id="Nick-Copy-3" transform="translate(521.000000, 520.000000)">
                <g id="SN-icons" transform="translate(0.000000, 34.000000)">
                    <g id="OK" transform="translate(240.000000, 0.000000)">
                        <path d="M0,24 C0,10.7451653 10.7451653,0 24,0 C37.2548347,0 48,10.7451653 48,24 C48,37.2548347 37.2548347,48 24,48 C10.7451653,48 0,37.2548347 0,24 Z" id="back" fill="#F68634"></path>
                        <path d="M23.9836999,15.6296601 C25.4486173,15.6296601 26.6402062,16.7795157 26.6402062,18.1935823 C26.6402062,19.6065373 25.4486173,20.757134 23.9836999,20.757134 C22.5199342,20.757134 21.3271935,19.6065373 21.3271935,18.1935823 C21.3271935,16.7795157 22.5199342,15.6296601 23.9836999,15.6296601 L23.9836999,15.6296601 Z M23.9836999,24.3853118 C20.4454023,24.3853118 17.5677764,21.6079456 17.5677764,18.1935823 C17.5677764,14.7781074 20.4454023,12 23.9836999,12 C27.5227652,12 30.3996234,14.7781074 30.3996234,18.1935823 C30.3996234,21.6079456 27.5227652,24.3853118 23.9836999,24.3853118 Z M26.5959623,29.4403019 L30.1826297,32.9028383 C30.9173917,33.6106127 30.9173917,34.7600977 30.1826297,35.4686133 C29.4486355,36.1771289 28.258966,36.1771289 27.5257395,35.4686133 L23.9993425,32.0661081 L20.4760166,35.4686133 C20.1086356,35.8225005 19.6272398,35.9996294 19.145844,35.9996294 C18.665216,35.9996294 18.1845879,35.8225005 17.8172069,35.4686133 C17.0832127,34.7600977 17.0832127,33.6113539 17.8164391,32.9028383 L21.4034905,29.4403019 C20.0975028,29.1531159 18.8379656,28.6535976 17.6778555,27.951011 C16.7999032,27.4166598 16.536172,26.2971904 17.0893549,25.4489727 C17.6410022,24.5996434 18.8011124,24.3439552 19.6806002,24.8783064 C22.3071633,26.4732076 25.6907539,26.4735782 28.3188525,24.8783064 C29.1983404,24.3439552 30.3580666,24.5996434 30.9108656,25.4489727 C31.4640485,26.2964493 31.1995496,27.4166598 30.3215973,27.951011 C29.1614871,28.6543387 27.9019499,29.1531159 26.5959623,29.4403019 Z" id="Shape" fill="#FFFFFF"></path>
                    </g>
                </g>
            </g>
        </g>
    </g>
</svg>