<svg xmlns="http://www.w3.org/2000/svg" viewBox="0 0 24 24" width="34" height="34"><defs><style>.cls-1{fill:#FEB801;}</style></defs><title>edit-icon</title><g id="Layer_2" data-name="Layer 2"><g id="Layer_1-2" data-name="Layer 1"><polygon class="cls-1" points="20 4 20 6 22 6 22 22 6 22 6 20 4 20 4 24 24 24 24 4 20 4"/><path class="cls-1" d="M20,20V0H0V20H20ZM2,2H18V18H2Z"/><path class="cls-1" d="M14.74,16.27H5.41c-.3,0-.53.17-.53.37s.25.37.53.37h9.34c.3,0,.54-.18.54-.37s-.25-.37-.55-.37Z"/><path class="cls-1" d="M3.88,11.92v2.53a.58.58,0,0,0,.15.39A.55.55,0,0,0,4.4,15H6.91a.52.52,0,0,0,.38-.15L16,6.14a.57.57,0,0,0,0-.77L13.49,2.86a.55.55,0,0,0-.77,0L11,4.61,4,11.55a.57.57,0,0,0-.16.37ZM13.11,4l1.75,1.75-1,1L12.13,5ZM5,12.15l6.4-6.4L13.11,7.5l-6.4,6.39-1.77,0Z"/></g></g></svg>