<?xml version="1.0" encoding="UTF-8"?>
<svg width="48px" height="48px" viewBox="0 0 48 48" version="1.1" xmlns="http://www.w3.org/2000/svg" xmlns:xlink="http://www.w3.org/1999/xlink">
    <!-- Generator: Sketch 55 (78076) - https://sketchapp.com -->
    <title>WhatsApp</title>
    <desc>Created with Sketch.</desc>
    <g id="Design" stroke="none" stroke-width="1" fill="none" fill-rule="evenodd">
        <g id="LK-MAIN" transform="translate(-701.000000, -554.000000)">
            <g id="Nick-Copy-3" transform="translate(521.000000, 520.000000)">
                <g id="SN-icons" transform="translate(0.000000, 34.000000)">
                    <g id="WhatsApp" transform="translate(180.000000, 0.000000)">
                        <circle id="Oval" fill="#25D366" cx="24" cy="24" r="24"></circle>
                        <path d="M24.791075,37.3525167 L24.7851708,37.3525167 C22.3967046,37.3516929 20.0498015,36.7524275 17.9653481,35.6154517 L10.4,37.6 L12.4246147,30.2048447 C11.1757332,28.0405195 10.5185789,25.5854866 10.5196499,23.0702443 C10.5227805,15.2016935 16.9248172,8.8 24.7909377,8.8 C28.6086389,8.80164769 32.1918188,10.2878654 34.8862063,12.9854111 C37.5805939,15.6828194 39.0636535,19.2683334 39.0621431,23.0815035 C39.0589851,30.9482694 32.6594885,37.3493037 24.791075,37.3525167 L24.791075,37.3525167 Z M18.315867,33.0318851 L18.7490039,33.2889525 C20.5701836,34.3696733 22.6577951,34.9415184 24.7862692,34.9423422 L24.791075,34.9423422 C31.3288403,34.9423422 36.6499228,29.6211362 36.6525316,23.0806797 C36.6537674,19.9112077 35.4211568,16.931083 33.1816694,14.6889868 C30.942182,12.4468906 27.9639796,11.2115338 24.7957435,11.2104354 C18.2529252,11.2104354 12.9317741,16.5311059 12.929179,23.0710681 C12.9282591,25.312368 13.5553704,27.4951199 14.7427381,29.3836352 L15.024768,29.8324252 L13.8264844,34.2095452 L18.315867,33.0318851 Z M31.9807769,26.4751302 C31.8916643,26.3263848 31.6539848,26.2371486 31.2973969,26.0585937 C30.940809,25.8801213 29.1876652,25.0175685 28.8607357,24.8984541 C28.5339436,24.7795045 28.2961268,24.7200641 28.0584473,25.0769266 C27.8207678,25.4338578 27.1373877,26.2371486 26.9293667,26.4751302 C26.7213456,26.7130431 26.5133246,26.7429212 26.156874,26.5643664 C25.8002861,26.3858939 24.6512958,26.0093827 23.2892454,24.7944848 C22.2291756,23.8489158 21.5135282,22.6812518 21.3055209,22.324252 C21.0975136,21.9672521 21.2833457,21.7743349 21.4618594,21.5965215 C21.6222896,21.4366955 21.8184747,21.1799302 21.996755,20.9717718 C22.1750352,20.7636135 22.2344619,20.614772 22.3533291,20.3769552 C22.4721826,20.1388638 22.4127696,19.9307054 22.323602,19.7522055 C22.2344619,19.5737056 21.5213273,17.8185022 21.2241799,17.1045025 C20.9347079,16.4091767 20.640746,16.5033698 20.4218777,16.4923851 C20.2141175,16.4819498 19.9761359,16.4797528 19.7384427,16.4797528 C19.5007357,16.4797528 19.1143933,16.5690028 18.7875462,16.9260026 C18.4606991,17.2830025 17.539516,18.1457063 17.539516,19.9007724 C17.539516,21.6559757 18.8172458,23.3515876 18.9955535,23.5895417 C19.1738337,23.8276332 21.5099857,27.4292946 25.0871102,28.9738818 C25.9378683,29.3413033 26.6020253,29.5607071 27.1199497,29.7250232 C27.9741404,29.9964941 28.7515762,29.9581853 29.3658905,29.8663264 C30.0510556,29.7639911 31.4756222,29.0037737 31.7728932,28.1708519 C32.0698896,27.3377653 32.0698896,26.6238069 31.9807769,26.4751302 L31.9807769,26.4751302 Z" id="Page-1" fill="#FDFDFD"></path>
                    </g>
                </g>
            </g>
        </g>
    </g>
</svg>