<?xml version="1.0" encoding="UTF-8"?>
<svg width="117px" height="54px" viewBox="0 0 117 54" version="1.1" xmlns="http://www.w3.org/2000/svg" xmlns:xlink="http://www.w3.org/1999/xlink">
    <!-- Generator: Sketch 55 (78076) - https://sketchapp.com -->
    <title>LOGO</title>
    <desc>Created with Sketch.</desc>
    <g id="Symbols" stroke="none" stroke-width="1" fill="none" fill-rule="evenodd">
        <g id="HEADER" transform="translate(-182.000000, -23.000000)" fill-rule="nonzero">
            <g id="LOGO" transform="translate(182.000000, 23.000000)">
                <path d="M78.9625532,48.3271277 C79.4161702,46.988617 79.8587234,45.7621277 80.2404255,44.5126596 C80.3870213,44.0301064 80.6387234,43.8951064 81.0868085,43.8721277 C82.8708511,43.7744681 82.8625532,43.7658511 83.0506383,45.5754255 C83.2248936,47.2270213 83.4212766,48.8757447 83.6038298,50.5244681 C83.6038298,50.6135106 83.6204255,50.7025532 83.6259574,50.8117021 C83.6342417,50.9581256 83.5851179,51.1017993 83.4897706,51.210012 C83.3944232,51.3182246 83.2609671,51.3817663 83.1197872,51.3861702 C82.7090849,51.4097319 82.2971784,51.3953134 81.8889362,51.3430851 C81.7119149,51.317234 81.5017021,50.9237234 81.4574468,50.6709574 C81.3053191,49.7575532 81.2168085,48.8355319 80.9706383,47.8962766 C80.6719149,48.8154255 80.34,49.7259574 80.0855319,50.6594681 C79.9306383,51.2195745 79.6678723,51.4464894 79.103617,51.4091489 C78.5393617,51.3718085 77.9529787,51.5010638 77.7482979,50.6623404 C77.5187234,49.7144681 77.1757447,48.7953191 76.8217021,47.6779787 C76.7442553,47.9939362 76.697234,48.1289362 76.6806383,48.2696809 C76.6253191,48.7953191 76.5810638,49.3238298 76.5257447,49.8494681 C76.3625532,51.4321277 76.1965957,51.5728723 74.6808511,51.4034043 C74.2880851,51.3631915 74.1497872,51.1937234 74.1940426,50.8002128 C74.4319149,48.6746809 74.6642553,46.5462766 74.9048936,44.4178723 C74.9120898,44.2975758 74.9503035,44.1815019 75.0155319,44.0818085 C75.3751064,43.6107447 77.3997872,43.9123404 77.5989362,44.4810638 C78.0082979,45.6529787 78.3844681,46.836383 78.777234,48.0140426 C78.8320355,48.122685 78.8939541,48.2272926 78.9625532,48.3271277 Z" id="Path" fill="#21242A"></path>
                <path d="M50.2048936,51.0615957 C50.2048936,51.5326596 50.2048936,52.1329787 50.2048936,52.7332979 C50.1882979,53.5432979 50.0251064,53.7012766 49.2617021,53.7185106 L49.1925532,53.7185106 C47.9091489,53.7185106 47.842766,53.6610638 47.8455319,52.3541489 C47.8565957,50.0218085 47.8639716,47.6885106 47.8676596,45.3542553 C47.8676596,45.1876596 47.8676596,44.5815957 47.8510638,44.153617 C47.8479795,43.8977245 48.0444586,43.6872723 48.2908511,43.6825532 C48.747234,43.6825532 49.4193617,43.7285106 49.6489362,44.1105319 C49.7541769,44.3157343 49.8465671,44.5277699 49.9255319,44.7453191 C50.0057447,44.7280851 50.0582979,44.7453191 50.0887234,44.7079787 C51.6514894,43.2574468 53.5434043,43.4498936 54.7687234,45.2364894 C55.6262589,46.3947957 55.7935584,47.9517633 55.2029787,49.2778723 C54.6497872,50.6020213 53.6485106,51.4723404 52.2129787,51.5096809 C51.5602128,51.5269149 50.9074468,51.2281915 50.2048936,51.0615957 Z M53.2861702,47.5602128 C53.3057421,47.1121422 53.1486778,46.6751304 52.8511938,46.3499455 C52.5537098,46.0247605 52.1414858,45.8394734 51.7095745,45.8368085 C51.0725295,45.8305171 50.4827925,46.1851799 50.1709874,46.7621017 C49.8591823,47.3390234 49.8748508,48.046539 50.2118656,48.6079656 C50.5488804,49.1693921 51.1536943,49.4955265 51.7897872,49.4588298 C52.6942553,49.4301064 53.2917021,48.6804255 53.2861702,47.5602128 Z" id="Shape" fill="#21242A"></path>
                <path d="M106.378723,47.4568085 C107.075745,47.9565957 107.617872,48.9935106 107.103404,50.0103191 C106.564043,51.0817021 105.615319,51.4637234 104.495106,51.4637234 C103.374894,51.4637234 102.177234,51.443617 101.021064,51.4637234 C100.537021,51.4637234 100.307447,51.3057447 100.312979,50.7571277 C100.329574,48.6890426 100.312979,46.6209574 100.312979,44.55 C100.312979,44.1507447 100.38766,43.8232979 100.86617,43.8376596 C102.229787,43.875 103.598936,43.8376596 104.959787,43.9669149 C106.008085,44.0559574 106.895957,45.0181915 106.895957,45.9919149 C106.861869,46.5215035 106.682375,47.0298611 106.378723,47.4568085 L106.378723,47.4568085 Z M102.705532,49.8609574 C103.166715,49.8847418 103.628958,49.8732213 104.088511,49.8264894 C104.398298,49.7891489 104.757872,49.6742553 104.757872,49.0164894 C104.757872,48.5540426 104.36234,48.3989362 104.080213,48.3185106 C103.659787,48.1978723 103.184043,48.2869149 102.697234,48.2869149 L102.705532,49.8609574 Z M104.50617,46.1441489 C104.50617,45.1761702 102.661277,45.4117021 102.661277,45.4117021 L102.661277,46.7559574 C102.661277,46.7559574 104.572553,47.0518085 104.495106,46.1441489 L104.50617,46.1441489 Z" id="Shape" fill="#21242A"></path>
                <path d="M70.1419149,47.7296809 C69.4753191,48.7838298 68.7589362,49.8121277 68.1614894,50.8892553 C67.9319149,51.2971277 67.7548936,51.4924468 67.2791489,51.4637234 C65.6665957,51.3861702 65.6693617,51.4062766 65.6748936,49.7087234 C65.6748936,48.1203191 65.6748936,46.5290426 65.6748936,44.9406383 C65.6748936,43.9697872 65.7523404,43.9065957 66.6568085,43.8979787 C67.9651064,43.883617 68.0397872,43.9554255 68.0204255,45.3025532 C68.0204255,45.9718085 68.0204255,46.6410638 68.0204255,47.3131915 L68.1946809,47.4051064 C68.7478723,46.5434043 69.3010638,45.6817021 69.8210638,44.8056383 C70.4461702,43.7457447 70.6314894,43.6567021 71.8014894,43.8031915 C72.2523404,43.8635106 72.476383,44.0904255 72.4791489,44.55 C72.4791489,46.6439362 72.4791489,48.7407447 72.5012766,50.8346809 C72.5012766,51.2712766 72.2717021,51.435 71.8761702,51.4091489 L70.3687234,51.308617 L70.3687234,47.8043617 L70.1419149,47.7296809 Z" id="Path" fill="#21242A"></path>
                <path d="M61.4761702,47.7526596 C60.8095745,48.8039362 60.0931915,49.832234 59.4929787,50.912234 C59.2606383,51.3258511 59.0753191,51.5039362 58.6023404,51.4867021 C57.0008511,51.4062766 57.003617,51.426383 57.0091489,49.7202128 C57.0091489,48.1318085 57.0091489,46.5434043 57.0091489,44.9521277 C57.0091489,43.9898936 57.0893617,43.9295745 57.9965957,43.9209574 C58.1819149,43.9209574 58.37,43.9209574 58.5497872,43.9209574 C59.1029787,43.8778723 59.3187234,44.1651064 59.3187234,44.6907447 C59.3187234,45.3657447 59.3187234,46.0407447 59.3187234,46.701383 C59.3187234,46.9311702 59.3408511,47.1609574 59.3519149,47.3907447 L59.5317021,47.4568085 C60.1678723,46.4084043 60.8123404,45.3628723 61.4346809,44.297234 C61.7112766,43.8089362 62.4082979,43.6394681 63.2851064,43.8347872 C63.8770213,43.9697872 63.8051064,44.4408511 63.8106383,44.8544681 C63.827234,46.7559574 63.8106383,48.6603191 63.8410638,50.5618085 C63.8410638,51.2052128 63.6585106,51.4780851 63.0112766,51.4235106 C61.683617,51.3028723 61.6780851,51.3287234 61.6587234,49.9356383 C61.6587234,49.2261702 61.6587234,48.5167021 61.6587234,47.807234 L61.4761702,47.7526596 Z" id="Path" fill="#21242A"></path>
                <path d="M43.5638298,45.9574468 L41.4368085,45.9574468 C41.4368085,45.9574468 41.4589362,48.8297872 41.467234,49.95 C41.467234,51.4895745 41.467234,51.4637234 40.0206383,51.4579787 C39.3982979,51.4579787 39.13,51.2023404 39.13,50.5732979 C39.13,48.6229787 39.13,46.6697872 39.13,44.7194681 C39.13,44.1134043 39.3817021,43.7945745 40.0123404,43.7917021 C41.6082979,43.7917021 43.2042553,43.7256383 44.8002128,43.7141489 C45.8097872,43.7141489 45.9729787,43.9037234 45.9646809,44.9320213 C45.9646809,46.8105319 45.9646809,48.6890426 45.9453191,50.5704255 C45.9453191,51.4464894 45.7904255,51.5556383 44.6619149,51.5728723 C43.7657447,51.587234 43.5914894,51.4493617 43.5804255,50.5876596 C43.5610638,49.3094681 43.5804255,48.0341489 43.5804255,46.7559574 L43.5638298,45.9574468 Z" id="Path" fill="#21242A"></path>
                <path d="M113.998936,44.6993617 C114.383404,44.3460638 114.648936,43.892234 114.978085,43.8376596 C116.084468,43.6452128 116.217234,43.8376596 116.22,45.0009574 C116.22,46.71 116.244894,48.4219149 116.22,50.1338298 C116.22,50.607766 116.496596,51.2454255 115.708298,51.417766 C114.720851,51.6331915 114.325319,51.4752128 114.007234,50.8432979 C113.315745,51.0989362 112.640851,51.5498936 111.974255,51.5355319 C111.239443,51.4745247 110.534606,51.2063763 109.935745,50.76 C108.641277,49.8494681 108.171064,48.1375532 108.619149,46.5089362 C109.085967,45.0038693 110.35882,43.9225937 111.871915,43.7457447 C112.693508,43.650067 113.502554,44.0127903 113.998936,44.6993617 L113.998936,44.6993617 Z M112.234255,49.4358511 C113.163528,49.448633 113.927198,48.6774417 113.940851,47.7124468 C113.961811,47.2358949 113.798075,46.7704821 113.486228,46.4201934 C113.174381,46.0699048 112.74041,45.8639332 112.281277,45.8482979 C111.340851,45.8080851 110.646596,46.5319149 110.621702,47.5717021 C110.613404,48.6890426 111.238511,49.4157447 112.234255,49.4358511 Z" id="Shape" fill="#21242A"></path>
                <path d="M32.7268085,48.3759574 C33.0753191,49.4645745 34.2923404,49.8523404 35.2797872,49.2721277 C36.0542553,48.8182979 36.5576596,48.9676596 36.9393617,49.8465957 C36.9937469,50.0826 36.9338706,50.331317 36.7789362,50.5129787 C35.5204255,51.7768085 33.4846809,51.8371277 31.98,50.6824468 C30.5566686,49.5687032 30.0829203,47.5696279 30.8459574,45.8971277 C31.7255319,44.1019149 33.41,43.3120213 35.1968085,43.8606383 C36.6157447,44.297234 37.7885106,46.0378723 37.6861702,47.5745745 C37.6585106,48.0169149 37.4676596,48.312766 37.0168085,48.3414894 C36.5659574,48.3702128 36.137234,48.3817021 35.7002128,48.3845745 C34.7182979,48.3788298 33.7502128,48.3759574 32.7268085,48.3759574 Z M35.4485106,46.5462766 C35.2198457,45.931642 34.6177579,45.5574423 33.9880851,45.638617 C33.4523186,45.6364295 32.9822499,46.0090258 32.8429787,46.5462766 L35.4485106,46.5462766 Z" id="Shape" fill="#21242A"></path>
                <path d="M8.5993617,44.5701064 C10.1621277,43.2775532 12.6514894,43.6279787 13.8712766,45.2910638 C14.4885672,46.1305998 14.7535439,47.193273 14.6061969,48.2384189 C14.45885,49.2835649 13.911646,50.2227578 13.0885106,50.8432979 C11.9370277,51.7727893 10.3615854,51.8961143 9.08893617,51.156383 C7.66920612,50.3803011 6.88206064,48.7523877 7.1306383,47.106383 C7.25286924,46.5432038 7.45515748,46.0020594 7.73085106,45.5007447 C7.99120899,45.1625672 8.28202895,44.8509438 8.5993617,44.5701064 L8.5993617,44.5701064 Z M9.28808511,47.6808511 C9.28808511,48.8068085 9.91319149,49.4789362 10.9891489,49.4789362 C11.7359574,49.4789362 12.3721277,48.6861702 12.3721277,47.7411702 C12.3721277,46.6784043 11.7276596,45.8626596 10.8646809,45.8569149 C10.0017021,45.8511702 9.30191489,46.6324468 9.28808511,47.672234 L9.28808511,47.6808511 Z" id="Shape" fill="#21242A"></path>
                <path d="M85.0034043,47.7124468 C84.9974788,46.3511527 85.674901,45.0849794 86.7910786,44.371096 C87.9072561,43.6572125 89.3009454,43.5987467 90.4689362,44.2168085 C90.8423404,44.4121277 91.3512766,44.5873404 91.0719149,45.2192553 C90.5353191,46.431383 90.3582979,46.5462766 89.5810638,46.1384043 C88.9867299,45.7608005 88.2223296,45.8444204 87.7168085,46.3423404 C87.163617,46.853617 87.0059574,47.7009574 87.3185106,48.5368085 C87.5293679,49.1493686 88.1103819,49.5382534 88.7346809,49.4846809 C89.0285612,49.4653276 89.3134281,49.3716502 89.5644681,49.2118085 C90.026383,48.9245745 90.3417021,48.9532979 90.6708511,49.4473404 C91.4397872,50.5962766 91.4010638,50.7973404 90.1176596,51.3315957 C88.9650847,51.8201017 87.6534448,51.6760985 86.6247173,50.9481102 C85.5959899,50.2201219 84.9871682,49.0050931 85.0034043,47.7124468 Z" id="Path" fill="#21242A"></path>
                <path d="M15.6857447,47.7124468 C15.6798192,46.3511527 16.3572415,45.0849794 17.473419,44.371096 C18.5895965,43.6572125 19.9832858,43.5987467 21.1512766,44.2168085 C21.5274468,44.4121277 22.033617,44.5873404 21.7542553,45.2192553 C21.2204255,46.431383 21.0434043,46.5462766 20.2661702,46.1384043 C19.6707577,45.7613603 18.9059851,45.844897 18.3991489,46.3423404 C17.8459574,46.853617 17.6882979,47.7009574 18.0008511,48.5368085 C18.2119736,49.1504731 18.794503,49.5396122 19.4197872,49.4846809 C19.7135234,49.4645308 19.9982106,49.3709125 20.2495745,49.2118085 C20.7087234,48.9245745 21.0240426,48.9532979 21.3559574,49.4473404 C22.1276596,50.5962766 22.0889362,50.7973404 20.8165957,51.3315957 C19.6622423,51.8276679 18.3450205,51.6874547 17.311586,50.9585009 C16.2781516,50.2295472 15.6671422,49.0096437 15.6857447,47.7124468 Z" id="Path" fill="#21242A"></path>
                <path d="M2.72723404,46.0062766 C2.72723404,47.5487234 2.72723404,48.9906383 2.72723404,50.4296809 C2.72723404,51.3804255 2.66361702,51.4378723 1.73148936,51.4493617 C0.295957447,51.4665957 0.295957447,51.4493617 0.326382979,49.9155319 C0.362340426,48.2294681 0.326382979,46.5462766 0.345744681,44.8602128 C0.345744681,43.8031915 0.345744681,43.7917021 1.38851064,43.7773404 C2.87106383,43.7601064 4.35638298,43.7773404 5.83893617,43.748617 C6.39212766,43.748617 6.56085106,43.9697872 6.54978723,44.5298936 C6.51659574,46.0120213 6.53595745,46.0120213 5.11702128,46.0062766 L2.72723404,46.0062766 Z" id="Path" fill="#21242A"></path>
                <path d="M27.2778723,45.9545745 C27.2778723,47.5659574 27.2446809,49.0538298 27.2917021,50.5503191 C27.3138298,51.2770213 27.0870213,51.5843617 26.39,51.4809574 C26.3439422,51.4780848 26.2977599,51.4780848 26.2517021,51.4809574 C25.0817021,51.4809574 25.0789362,51.4809574 25.0955319,50.228617 C25.1148936,48.8412766 25.0955319,47.4510638 25.0955319,45.9631915 C24.5644681,45.9631915 24.0859574,45.9631915 23.6102128,45.9631915 C23.1344681,45.9631915 22.9546809,45.7965957 22.9325532,45.2881915 C22.8717021,43.8520213 22.8523404,43.8376596 24.2214894,43.8232979 C25.7510638,43.8232979 27.2778723,43.8405319 28.8046809,43.8232979 C29.313617,43.8232979 29.5514894,43.9726596 29.4989362,44.5097872 C29.4989362,44.5356383 29.4989362,44.558617 29.4989362,44.5815957 C29.5542553,45.9718085 29.5321277,45.9919149 28.1934043,45.9746809 L27.2778723,45.9545745 Z" id="Path" fill="#21242A"></path>
                <path d="M94.5321277,45.9488298 L92.9665957,45.9488298 C92.5793617,45.9488298 92.3470213,45.7879787 92.3885106,45.342766 C92.3912126,45.318912 92.3912126,45.2948114 92.3885106,45.2709574 C92.3082979,43.8347872 92.3082979,43.8347872 93.6691489,43.8146809 C95.1765957,43.8003191 96.6868085,43.8405319 98.1914894,43.8003191 C98.7944681,43.7830851 98.9853191,44.0301064 98.9410638,44.5930851 C98.9410638,44.6419149 98.9410638,44.6907447 98.9410638,44.7395745 C98.9576596,45.917234 98.9134043,45.9631915 97.7931915,45.9574468 L96.7282979,45.9574468 L96.7282979,47.9192553 C96.7282979,48.8096809 96.6923404,49.7029787 96.7282979,50.5934043 C96.7531915,51.2281915 96.5651064,51.4867021 95.8985106,51.4838298 C94.5155319,51.4838298 94.5155319,51.5039362 94.5155319,50.0735106 C94.5431915,48.7292553 94.5321277,47.3878723 94.5321277,45.9488298 Z" id="Path" fill="#21242A"></path>
                <path d="M50.5810638,10.5960638 L41.9429787,10.4754255 C41.9429787,10.4754255 42.0729787,21.1978723 41.9070213,25.9142553 C41.727234,30.9695745 39.0387234,34.2239362 34.4997872,35.3642553 C31.0755319,36.2259574 30.1461702,35.4820213 30.3508511,31.8226596 C30.4531915,30.0992553 29.9442553,28.0196809 32.6880851,27.4997872 C33.3048936,27.3820213 33.9189362,26.2043617 33.9134043,23.903617 C33.8995745,17.9492553 34.0129787,11.9920213 34.0406383,6.03191489 C34.0406383,3.01882979 34.2978723,2.69138298 37.0555319,2.7287234 L56.356383,10.4093617 C58.0712766,10.4323404 58.9093617,10.9551064 58.8734043,12.9571277 C58.76,19.2274468 58.9895745,29.8321277 58.9923404,32.526383 C58.9923404,35.5078723 58.2538298,35.5796809 56.0742553,35.6141489 C53.2751064,35.6601064 51.4053191,35.6974468 51.0014894,35.3757447 C50.3874468,34.8817021 50.5478723,32.8509574 50.5644681,29.6511702 C50.6031915,23.7082979 50.5810638,10.5960638 50.5810638,10.5960638 Z" id="Path" fill="#21242A"></path>
                <path d="M96.4987234,10.5242553 L96.4987234,14.3415957 C98.7446809,14.3415957 105.626383,14.192234 107.761702,14.3731915 C112.488723,14.7667021 116.380426,18.9459574 116.764894,23.8318085 C117.182553,29.1628723 114.15383,34.3905319 109.341064,35.0684043 C105.230851,35.6428723 92.9002128,35.5107447 90.283617,35.4446809 C90.1500165,35.4346843 90.0181056,35.4076733 89.8908511,35.3642553 C88.9632124,35.0506864 88.2632377,34.2528462 88.0487234,33.2645745 C88.0190001,33.1402467 88.0004806,33.0133167 87.9934043,32.8854255 C87.8744681,25.5494681 87.9131915,18.2135106 87.9076596,10.8775532 C87.9076596,9.15414894 87.943617,7.45085106 87.9076596,5.73893617 C87.8717021,4.02702128 88.4442553,3.19978723 90.2255319,3.21702128 C95.8017021,3.26297872 106.082766,3.21702128 111.658936,3.16819149 C113.382128,3.15095745 113.965745,3.92074468 113.949149,5.69585106 C113.902128,10.53 113.949149,10.53 109.374255,10.5242553 C106.705106,10.521383 99.3476596,10.5242553 96.4987234,10.5242553 Z M96.592766,21.3587234 L96.592766,28.3241489 C96.592766,28.3241489 106.190638,29.3897872 107.656596,26.8334043 C108.209787,25.8769149 108.284468,23.8806383 107.595745,23.0103191 C105.41617,20.25 96.592766,21.3587234 96.592766,21.3587234 L96.592766,21.3587234 Z" id="Shape" fill="#21242A"></path>
                <path d="M8.48042553,5.15585106 L8.50531915,15.4962766 L9.18574468,15.7117021 C10.7955319,13.2185106 12.5048936,10.7798936 13.9819149,8.21202128 C15.8682979,4.96340426 18.6646809,3.57606383 22.166383,3.27159574 C23.8757447,3.12223404 26.3402128,3.03031915 26.3734043,4.54404255 C26.3955319,5.46319149 26.6085106,9.35521277 26.127234,9.92393617 C25.5740426,10.5702128 23.6378723,10.7482979 22.8080851,11.0728723 C19.4612766,12.3884043 18.462766,16.0334043 16.6040426,18.7908511 C16.4021277,19.0780851 25.023617,28.9388298 28.0053191,32.94 L28.1380851,33.1209574 C28.5063685,33.6321098 28.5673605,34.3146111 28.2959449,34.8874124 C28.0245294,35.4602136 27.4666027,35.8264543 26.8519149,35.8353191 C25.5380851,35.8554255 24.1468085,35.8726596 22.8053191,35.8353191 C20.5068085,35.7893617 19.2510638,35.0626596 18.006383,33.2674468 C18.006383,33.2674468 13.4370213,28.1202128 11.4621277,25.7993617 C11.0417021,25.3024468 10.0791489,24.8715957 9.56744681,25.0209574 C8.66297872,25.2852128 8.59659574,26.1698936 8.55234043,26.8247872 C8.40297872,29.0192553 8.41404255,31.5153191 8.43617021,33.7184043 C8.45276596,35.1402128 7.93553191,35.8094681 6.5,35.783617 C-0.713617021,35.6514894 0.0110638298,36.4787234 0.0414893617,29.177234 C0.0774468085,21.4219149 0.193617021,13.6665957 0.177021277,5.93138298 C0.177021277,3.97531915 0.705319149,3.05904255 2.73276596,3.23425532 C3.85851064,3.33765957 5.26638298,3.31180851 6.66042553,3.28882979 C7.14129575,3.28190351 7.60473358,3.47563772 7.94686636,3.82660979 C8.28899913,4.17758186 8.4812128,4.65643847 8.48042553,5.15585106 Z" id="Path" fill="#21242A"></path>
                <path d="M76.2131915,5.43446809 C76.5755319,3.9006383 77.3195745,3.24 78.8519149,3.32904255 C80.3842553,3.41808511 82.937234,3.30606383 84.5082979,3.35202128 C85.8470213,3.39510638 86.3808511,4.1706383 85.8719149,5.46893617 C82.5306383,13.9969149 79.2751064,22.5679787 75.7291489,31.0069149 C73.1678723,36.5620213 70.2497872,37.0847872 66.952766,37.7712766 C65.2046809,38.1360638 63.5534043,38.4175532 63.3570213,35.6888298 C63.3570213,35.6888298 63.1661702,33.5374468 63.3570213,32.5292553 C63.4925532,31.8140426 63.9987234,30.8920213 64.5851064,30.6019149 C65.9017021,29.9556383 68.2970213,28.9991489 69.2180851,25.9745745 C69.6053191,24.7279787 75.4580851,8.66585106 76.2131915,5.43446809 Z" id="Path" fill="#21242A"></path>
                <path d="M85.2993617,0.0890425532 C84.1819756,-0.117941327 83.0300535,0.0851532083 82.0410638,0.663510638 C74.4678723,4.79680851 68.6068085,7.87595745 60.19,7.8587234 C51.2531915,7.83861702 45.9204255,4.79680851 38.3389362,0.663510638 C37.3499465,0.0851532083 36.1980244,-0.117941327 35.0806383,0.0890425532 C33.5012766,0.433723404 32.3395745,1.52521277 34.643617,5.90553191 C38.6597872,13.5373404 48.0004255,21.1289362 60.1817021,21.1289362 C72.5925532,21.1289362 81.8059574,13.7211702 85.7170213,5.90553191 C87.9546809,1.485 86.8787234,0.433723404 85.2993617,0.0890425532 Z" id="Path" fill="#FFCC00"></path>
            </g>
        </g>
    </g>
</svg>