<?xml version="1.0" encoding="UTF-8"?>
<svg width="70px" height="25px" viewBox="0 0 70 25" version="1.1" xmlns="http://www.w3.org/2000/svg" xmlns:xlink="http://www.w3.org/1999/xlink">
    <!-- Generator: Sketch 55 (78076) - https://sketchapp.com -->
    <title>Logo litres</title>
    <desc>Created with Sketch.</desc>
    <g id="Symbols" stroke="none" stroke-width="1" fill="none" fill-rule="evenodd">
        <g id="FOOTER" transform="translate(-1048.000000, -47.000000)" fill-rule="nonzero">
            <g id="Footer-Copy">
                <g id="Logo-litres" transform="translate(1048.000000, 47.000000)">
                    <path d="M6.02125,2.74083333 C5.96583333,4.05583333 5.90333333,5.25291667 5.83416667,6.33291667 C5.76458333,7.4125 5.67125,8.38541667 5.55416667,9.25 C5.43625,10.115 5.28041667,10.88 5.08666667,11.5441667 C4.89291667,12.20875 4.64375,12.7829167 4.33916667,13.2675 C4.14541667,13.58625 3.92708333,13.8491667 3.685,14.0566667 C3.44291667,14.26375 3.19,14.43 2.9275,14.555 C2.66416667,14.6795833 2.40458333,14.7658333 2.14875,14.8145833 C1.8925,14.8629167 1.65375,14.8870833 1.4325,14.8870833 C1.11416667,14.8870833 0.8475,14.8629167 0.632916667,14.8145833 C0.418333333,14.7658333 0.207916667,14.6933333 1.11910481e-13,14.59625 L0.31125,12.1466667 C0.394166667,12.1745833 0.477083333,12.195 0.560416667,12.20875 C0.643333333,12.2225 0.726666667,12.2295833 0.809583333,12.2295833 C1.03083333,12.2295833 1.24916667,12.1745833 1.46333333,12.0629167 C1.67791667,11.9529167 1.86125,11.7658333 2.01416667,11.5025 C2.22125,11.19875 2.40125,10.7525 2.55375,10.16375 C2.70583333,9.57541667 2.84083333,8.82458333 2.95833333,7.91083333 C3.07583333,6.99708333 3.16958333,5.9075 3.23875,4.64083333 C3.3075,3.37416667 3.35583333,1.89708333 3.38416667,0.208333333 L11.9591667,0.208333333 L11.9591667,14.7416667 L9.11458333,14.7416667 L9.11458333,2.74083333 L6.02125,2.74083333 Z" id="Fill-1" fill="#000000"></path>
                    <polygon id="Fill-2" fill="#000000" points="20.4829167 8.53375 20.4208333 8.53375 19.5279167 10.0491667 15.8320833 14.7416667 14.1295833 14.7416667 14.1295833 4.36041667 16.82875 4.36041667 16.82875 9.30166667 16.7041667 10.71375 16.7870833 10.71375 17.63875 9.23958333 21.3758333 4.36041667 23.0783333 4.36041667 23.0783333 14.7416667 20.3795833 14.7416667 20.3795833 10.0075"></polygon>
                    <polygon id="Fill-3" fill="#000000" points="30.4058333 6.74791667 30.4058333 14.74125 27.62375 14.74125 27.62375 6.74791667 24.655 6.74791667 24.655 4.36 33.2920833 4.36 33.2920833 6.74791667"></polygon>
                    <path d="M39.2991667,2.45 C39.0225,2.45 38.7591667,2.46041667 38.5104167,2.48125 C38.26125,2.50166667 38.0604167,2.52625 37.9083333,2.55416667 L37.9083333,7.26708333 C37.9633333,7.28083333 38.04625,7.295 38.1575,7.30833333 C38.2679167,7.3225 38.38625,7.33291667 38.5104167,7.33958333 C38.6345833,7.34666667 38.7558333,7.35 38.87375,7.35 L39.1329167,7.35 C39.5070833,7.35 39.8775,7.31583333 40.24375,7.24625 C40.6108333,7.1775 40.9395833,7.04916667 41.2304167,6.8625 C41.52125,6.67541667 41.7525,6.41583333 41.9258333,6.08333333 C42.0983333,5.75125 42.1854167,5.31541667 42.1854167,4.77583333 C42.1854167,4.31875 42.1025,3.94166667 41.93625,3.64375 C41.7704167,3.34666667 41.5516667,3.1075 41.2820833,2.92791667 C41.0125,2.74791667 40.70375,2.62291667 40.3583333,2.55416667 C40.0125,2.48458333 39.65875,2.45 39.2991667,2.45 L39.2991667,2.45 Z M36.9845833,0.09375 C37.6829167,0.03125 38.37875,5.32907052e-14 39.0708333,5.32907052e-14 C39.7904167,5.32907052e-14 40.5141667,0.0591666667 41.2404167,0.176666667 C41.9670833,0.294166667 42.6216667,0.529583333 43.2025,0.8825 C43.7841667,1.23541667 44.2579167,1.72666667 44.6245833,2.35625 C44.9908333,2.98666667 45.1745833,3.80666667 45.1745833,4.81666667 C45.1745833,5.73041667 45.01625,6.5025 44.6970833,7.13208333 C44.37875,7.76208333 43.9570833,8.27708333 43.4308333,8.67875 C42.9045833,9.08041667 42.30625,9.37125 41.6354167,9.55083333 C40.96375,9.73125 40.2679167,9.82083333 39.5491667,9.82083333 L39.2158333,9.82083333 C39.0633333,9.82083333 38.905,9.81708333 38.7383333,9.81041667 C38.5725,9.80333333 38.4095833,9.79333333 38.2504167,9.77958333 C38.09125,9.76583333 37.9766667,9.75166667 37.9079167,9.73791667 L37.9079167,14.7416667 L35.06375,14.7416667 L35.06375,0.352916667 C35.6445833,0.2425 36.2854167,0.155833333 36.9845833,0.09375 Z" id="Fill-4" fill="#FF4C00"></path>
                    <path d="M50.5891667,6.18625 C49.7454167,6.21083333 49.35125,6.42333333 48.99875,6.8375 C48.64875,7.24958333 48.4466667,7.81208333 48.37875,8.51791667 L52.2554167,8.55416667 C52.3104167,7.80708333 52.2433333,7.23 51.9616667,6.82875 C51.6795833,6.42708333 51.195,6.16833333 50.5891667,6.18625 L50.5891667,6.18625 Z M52.7429167,14.6895833 C52.0308333,14.9183333 51.2725,15.0325 50.4695833,15.0325 C48.7945833,15.0325 47.57,14.5445833 46.7945833,13.5683333 C46.0195833,12.5925 45.6325,11.2533333 45.6325,9.55083333 C45.6325,7.72416667 46.0683333,6.35333333 46.94,5.44 C47.8120833,4.52625 49.0370833,4.06958333 50.615,4.06958333 C51.1408333,4.06958333 51.6533333,4.13875 52.1516667,4.27708333 C52.65,4.41541667 53.0925,4.64416667 53.4804167,4.96208333 C53.8683333,5.28083333 54.1795833,5.71 54.4145833,6.24958333 C54.65,6.78916667 54.7679167,7.46125 54.7679167,8.26416667 C54.7679167,8.55416667 54.7504167,8.86583333 54.7158333,9.19791667 C54.68125,9.53 54.6295833,9.87583333 54.5604167,10.23625 L48.3025,10.23625 C48.3441667,11.1083333 48.6175,11.7654167 49.0245833,12.2083333 C49.43125,12.6516667 50.0904167,12.8725 51.0004167,12.8725 C51.5654167,12.8725 52.0645833,12.7625 52.52125,12.6133333 C53.0904167,12.4275 53.62625,12.1741667 53.62625,12.1741667 L54.4354167,13.84875 C54.02,14.1808333 53.4558333,14.46125 52.7429167,14.6895833 Z" id="Fill-5" fill="#FF4C00"></path>
                    <path d="M63.5420833,6.36625 C63.5420833,6.36625 62.7158333,6.19833333 62.065,6.19833333 C60.2120833,6.19833333 59.0091667,7.25916667 59.0091667,9.60041667 C59.0091667,11.7966667 59.9266667,12.8816667 61.8616667,12.8816667 C62.4925,12.8816667 63.7083333,12.7129167 63.7083333,12.7129167 L64.0804167,14.5891667 C63.5720833,14.75125 62.57375,14.99625 61.3725,14.99625 C57.6058333,14.99625 56.2208333,12.2475 56.2208333,9.45791667 C56.2208333,6.64833333 57.8495833,4.12333333 61.5966667,4.12333333 C62.28875,4.12333333 63.1429167,4.20458333 63.9379167,4.40833333 L63.5420833,6.36625" id="Fill-6" fill="#FF4C00"></path>
                    <path d="M67.80625,7.32 C66.9595833,7.32 66.2741667,6.63458333 66.2741667,5.78833333 C66.2741667,4.94208333 66.9595833,4.25625 67.80625,4.25625 C68.6516667,4.25625 69.3379167,4.94208333 69.3379167,5.78833333 C69.3379167,6.63458333 68.6516667,7.32 67.80625,7.32 Z" id="Fill-7" fill="#FF4C00"></path>
                    <path d="M69.3379167,13.36375 C69.3379167,14.2095833 68.6516667,14.8954167 67.80625,14.8954167 C66.9595833,14.8954167 66.2741667,14.2095833 66.2741667,13.36375 C66.2741667,12.5170833 66.9595833,11.83125 67.80625,11.83125 C68.6516667,11.83125 69.3379167,12.5175 69.3379167,13.36375" id="Fill-8" fill="#FF4C00"></path>
                    <path d="M1.83166667,23.6570833 C2.52083333,23.6570833 2.86541667,23.2020833 2.86541667,22.2920833 C2.86541667,21.39375 2.52541667,20.9445833 1.845,20.9445833 C1.16666667,20.9445833 0.8275,21.3958333 0.8275,22.29875 C0.8275,23.2041667 1.16208333,23.6570833 1.83166667,23.6570833 L1.83166667,23.6570833 Z M1.82166667,24.135 C1.30875,24.135 0.899166667,23.96875 0.592916667,23.6358333 C0.286666667,23.3029167 0.13375,22.8570833 0.13375,22.29875 C0.13375,21.7341667 0.287083333,21.2875 0.594583333,20.95875 C0.901666667,20.6304167 1.31875,20.46625 1.845,20.46625 C2.37125,20.46625 2.78791667,20.6304167 3.09541667,20.95875 C3.4025,21.2875 3.55625,21.7325 3.55625,22.2920833 C3.55625,22.8658333 3.40208333,23.3158333 3.09375,23.6441667 C2.78541667,23.97125 2.36125,24.135 1.82166667,24.135 L1.82166667,24.135 Z" id="Fill-9" fill="#FF4C00"></path>
                    <path d="M5.22916667,23.5466667 L6.94375,23.5466667 L6.94375,21.0220833 L5.86333333,21.0220833 L5.86333333,21.0833333 C5.86333333,21.5233333 5.81083333,21.9479167 5.705,22.3591667 C5.59916667,22.7691667 5.44083333,23.1654167 5.22916667,23.5466667 L5.22916667,23.5466667 Z M4.235,24.8529167 L4.235,23.5466667 L4.56208333,23.5466667 C4.80666667,23.19125 4.99,22.7866667 5.11208333,22.3329167 C5.23416667,21.8791667 5.29541667,21.3754167 5.29541667,20.8216667 L5.29541667,20.5433333 L7.59791667,20.5433333 L7.59791667,23.5466667 L8.24833333,23.5466667 L8.24833333,24.8529167 L7.59791667,24.8529167 L7.59791667,24.0541667 L4.88583333,24.0541667 L4.88583333,24.8529167 L4.235,24.8529167 L4.235,24.8529167 Z" id="Fill-11" fill="#FF4C00"></path>
                    <polyline id="Fill-13" fill="#FF4C00" points="9.25416667 24.0541667 9.25416667 20.5433333 9.86541667 20.5433333 9.86541667 23.2008333 11.5366667 20.5433333 12.1875 20.5433333 12.1875 24.0541667 11.5766667 24.0541667 11.5766667 21.3970833 9.90833333 24.0541667 9.25416667 24.0541667"></polyline>
                    <polyline id="Fill-14" fill="#FF4C00" points="13.5604167 24.0541667 13.5604167 20.5433333 14.2108333 20.5433333 14.2108333 21.9691667 15.8429167 21.9691667 15.8429167 20.5433333 16.49375 20.5433333 16.49375 24.0541667 15.8429167 24.0541667 15.8429167 22.4479167 14.2108333 22.4479167 14.2108333 24.0541667 13.5604167 24.0541667"></polyline>
                    <path d="M20.0745833,24.0541667 L20.0745833,20.5433333 L20.725,20.5433333 L20.72875,22.0791667 C21.0325,22.0791667 21.2270833,22.0495833 21.3129167,21.9920833 C21.3991667,21.9333333 21.5345833,21.73875 21.7195833,21.4066667 L21.8054167,21.2579167 C21.9770833,20.9520833 22.1266667,20.7566667 22.2545833,20.67125 C22.3825,20.58625 22.5925,20.5433333 22.8854167,20.5433333 L22.8854167,21.0220833 L22.8491667,21.0220833 C22.7083333,21.0220833 22.6008333,21.0533333 22.5270833,21.1154167 C22.4533333,21.1783333 22.3558333,21.3191667 22.235,21.5395833 L22.17875,21.6429167 C22.04875,21.8775 21.9520833,22.0275 21.8879167,22.0920833 C21.8241667,22.1566667 21.7008333,22.2266667 21.5179167,22.3020833 C21.6895833,22.3475 21.8095833,22.3995833 21.8779167,22.4591667 C21.94625,22.5183333 22.0716667,22.6795833 22.2545833,22.9425 L22.41,23.1620833 L22.5454167,23.3558333 L22.7170833,23.605 C22.77,23.6825 22.845,23.7870833 22.9416667,23.91875 L23.0408333,24.0541667 L22.3341667,24.0541667 L22.235,23.9220833 C22.09375,23.7341667 21.9454167,23.5283333 21.7891667,23.3045833 C21.5929167,23.02625 21.40125,22.7770833 21.2141667,22.5575 L20.725,22.5575 L20.725,24.0541667 L20.0745833,24.0541667" id="Fill-15" fill="#FF4C00"></path>
                    <path d="M23.4158333,24.0541667 L23.4158333,23.5754167 C23.7020833,23.5545833 23.9129167,23.4179167 24.0483333,23.1654167 C24.18375,22.9133333 24.2516667,22.5283333 24.2516667,22.0116667 L24.2779167,21.3033333 L24.29125,20.8891667 L24.29125,20.5433333 L26.6133333,20.5433333 L26.6133333,24.0541667 L25.9625,24.0541667 L25.9625,21.0545833 L24.8825,21.0545833 L24.8825,21.1120833 C24.8825,21.1641667 24.8779167,21.2645833 24.8691667,21.4133333 L24.82625,22.2408333 C24.79125,22.8466667 24.65625,23.2995833 24.4216667,23.6016667 C24.1870833,23.90375 23.8516667,24.0541667 23.4158333,24.0541667" id="Fill-16" fill="#FF4C00"></path>
                    <polyline id="Fill-17" fill="#FF4C00" points="27.9858333 24.0541667 27.9858333 20.5433333 28.5970833 20.5433333 28.5970833 23.2008333 30.26875 20.5433333 30.9191667 20.5433333 30.9191667 24.0541667 30.3083333 24.0541667 30.3083333 21.3970833 28.64 24.0541667 27.9858333 24.0541667"></polyline>
                    <path d="M32.2920833,24.0541667 L32.2920833,20.5433333 L32.9425,20.5433333 L32.9458333,22.0791667 C33.2495833,22.0791667 33.4445833,22.0495833 33.5304167,21.9920833 C33.6166667,21.9333333 33.7516667,21.73875 33.9370833,21.4066667 L34.0229167,21.2579167 C34.1945833,20.9520833 34.3441667,20.7566667 34.4720833,20.67125 C34.6,20.58625 34.81,20.5433333 35.1033333,20.5433333 L35.1033333,21.0220833 L35.0666667,21.0220833 C34.9258333,21.0220833 34.8183333,21.0533333 34.7445833,21.1154167 C34.6708333,21.1783333 34.5733333,21.3191667 34.4525,21.5395833 L34.39625,21.6429167 C34.26625,21.8775 34.1691667,22.0275 34.1054167,22.0920833 C34.0416667,22.1566667 33.9183333,22.2266667 33.7354167,22.3020833 C33.9070833,22.3475 34.0270833,22.3995833 34.0954167,22.4591667 C34.16375,22.5183333 34.2891667,22.6795833 34.4720833,22.9425 L34.6270833,23.1620833 L34.7629167,23.3558333 L34.9345833,23.605 C34.9875,23.6825 35.0625,23.7870833 35.1591667,23.91875 L35.2583333,24.0541667 L34.55125,24.0541667 L34.4525,23.9220833 C34.31125,23.7341667 34.1625,23.5283333 34.00625,23.3045833 C33.8104167,23.02625 33.61875,22.7770833 33.43125,22.5575 L32.9425,22.5575 L32.9425,24.0541667 L32.2920833,24.0541667" id="Fill-18" fill="#FF4C00"></path>
                    <path d="M39.1745833,23.5466667 L40.88875,23.5466667 L40.88875,21.0220833 L39.8083333,21.0220833 L39.8083333,21.0833333 C39.8083333,21.5233333 39.7558333,21.9479167 39.65,22.3591667 C39.5441667,22.7691667 39.3858333,23.1654167 39.1745833,23.5466667 L39.1745833,23.5466667 Z M38.18,24.8529167 L38.18,23.5466667 L38.5075,23.5466667 C38.75125,23.19125 38.935,22.7866667 39.0570833,22.3329167 C39.1795833,21.8791667 39.2404167,21.3754167 39.2404167,20.8216667 L39.2404167,20.5433333 L41.5429167,20.5433333 L41.5429167,23.5466667 L42.19375,23.5466667 L42.19375,24.8529167 L41.5429167,24.8529167 L41.5429167,24.0541667 L38.8308333,24.0541667 L38.8308333,24.8529167 L38.18,24.8529167 L38.18,24.8529167 Z" id="Fill-20" fill="#000000"></path>
                    <path d="M44.5458333,23.6570833 C45.235,23.6570833 45.5795833,23.2020833 45.5795833,22.2920833 C45.5795833,21.39375 45.2395833,20.9445833 44.55875,20.9445833 C43.8808333,20.9445833 43.5416667,21.3958333 43.5416667,22.29875 C43.5416667,23.2041667 43.8758333,23.6570833 44.5458333,23.6570833 L44.5458333,23.6570833 Z M44.5358333,24.135 C44.0225,24.135 43.6129167,23.96875 43.3070833,23.6358333 C43.00125,23.3029167 42.8475,22.8570833 42.8475,22.29875 C42.8475,21.7341667 43.00125,21.2875 43.30875,20.95875 C43.6154167,20.6304167 44.0325,20.46625 44.55875,20.46625 C45.0854167,20.46625 45.5020833,20.6304167 45.8095833,20.95875 C46.11625,21.2875 46.27,21.7325 46.27,22.2920833 C46.27,22.8658333 46.1158333,23.3158333 45.8079167,23.6441667 C45.4995833,23.97125 45.0754167,24.135 44.5358333,24.135 L44.5358333,24.135 Z" id="Fill-22" fill="#000000"></path>
                    <path d="M49.4279167,24.0541667 L49.4279167,20.5433333 L50.07875,20.5433333 L50.0820833,22.0791667 C50.3858333,22.0791667 50.5808333,22.0495833 50.6666667,21.9920833 C50.7525,21.9333333 50.8879167,21.73875 51.0733333,21.4066667 L51.1591667,21.2579167 C51.3308333,20.9520833 51.4804167,20.7566667 51.6083333,20.67125 C51.73625,20.58625 51.94625,20.5433333 52.2395833,20.5433333 L52.2395833,21.0220833 L52.2029167,21.0220833 C52.0620833,21.0220833 51.9545833,21.0533333 51.8808333,21.1154167 C51.8070833,21.1783333 51.7095833,21.3191667 51.5883333,21.5395833 L51.5320833,21.6429167 C51.4025,21.8775 51.3054167,22.0275 51.2416667,22.0920833 C51.1779167,22.1566667 51.0545833,22.2266667 50.87125,22.3020833 C51.0429167,22.3475 51.1633333,22.3995833 51.2320833,22.4591667 C51.3,22.5183333 51.4254167,22.6795833 51.6083333,22.9425 L51.7633333,23.1620833 L51.8991667,23.3558333 L52.0708333,23.605 C52.12375,23.6825 52.19875,23.7870833 52.2954167,23.91875 L52.3945833,24.0541667 L51.6875,24.0541667 L51.5883333,23.9220833 C51.4475,23.7341667 51.29875,23.5283333 51.1425,23.3045833 C50.94625,23.02625 50.755,22.7770833 50.5679167,22.5575 L50.07875,22.5575 L50.07875,24.0541667 L49.4279167,24.0541667" id="Fill-23" fill="#000000"></path>
                    <polyline id="Fill-24" fill="#000000" points="53.2304167 24.0541667 53.2304167 20.5433333 53.8808333 20.5433333 53.8808333 21.9691667 55.5129167 21.9691667 55.5129167 20.5433333 56.1633333 20.5433333 56.1633333 24.0541667 55.5129167 24.0541667 55.5129167 22.4479167 53.8808333 22.4479167 53.8808333 24.0541667 53.2304167 24.0541667"></polyline>
                    <polyline id="Fill-25" fill="#000000" points="57.46875 24.0541667 57.46875 20.5433333 58.0795833 20.5433333 58.0795833 23.2008333 59.75125 20.5433333 60.4016667 20.5433333 60.4016667 24.0541667 59.7908333 24.0541667 59.7908333 21.3970833 58.1229167 24.0541667 57.46875 24.0541667"></polyline>
                    <polyline id="Fill-26" fill="#000000" points="61.7070833 24.0541667 61.7070833 20.5433333 64.3166667 20.5433333 64.3166667 21.1025 62.3575 21.1025 62.3575 24.0541667 61.7070833 24.0541667"></polyline>
                </g>
            </g>
        </g>
    </g>
</svg>