<?xml version="1.0" encoding="UTF-8"?>
<svg width="120px" height="24px" viewBox="0 0 120 24" version="1.1" xmlns="http://www.w3.org/2000/svg" xmlns:xlink="http://www.w3.org/1999/xlink">
    <!-- Generator: Sketch 55 (78076) - https://sketchapp.com -->
    <title>Logo Yandex.Music</title>
    <desc>Created with Sketch.</desc>
    <g id="Symbols" stroke="none" stroke-width="1" fill="none" fill-rule="evenodd">
        <g id="FOOTER" transform="translate(-1137.000000, -47.000000)" fill-rule="nonzero">
            <g id="Footer-Copy">
                <g id="Logo-Yandex.Music" transform="translate(1137.000000, 47.000000)">
                    <path d="M7.79166668,1.8287495 L6.70833335,1.8287495 C5.07083335,1.8287495 3.48666668,2.91208283 3.48666668,6.05458283 C3.48666668,9.09208283 4.93916668,10.0695828 6.70833335,10.0695828 L7.79166668,10.0695828 L7.79166668,1.8287495 Z M6.10166668,11.7595828 L2.87916668,18.9962495 L0.52833335,18.9962495 L4.06750002,11.2570828 C2.40333335,10.4129162 1.29416668,8.88041617 1.29416668,6.05458283 C1.29416668,2.09291617 3.80333335,0.112082833 6.78833335,0.112082833 L9.82500002,0.112082833 L9.82500002,18.9962495 L7.79166668,18.9962495 L7.79166668,11.7595828 L6.10166668,11.7595828 Z" id="Fill-1" fill="#FA0B00"></path>
                    <path d="M49.2158334,12.3406662 C49.2158334,8.16733283 50.8275,5.49983283 53.9441667,5.49983283 C55.1325,5.49983283 55.8191667,5.81733283 56.4,6.1864995 L56.1091667,8.1414995 C55.5541667,7.6664995 54.7625,7.21733283 53.9175,7.21733283 C52.4383334,7.21733283 51.3825,8.88066617 51.3825,12.2348328 C51.3825,15.5623328 52.1741667,17.4639995 53.8383334,17.4639995 C54.8416667,17.4639995 55.6075,17.0681662 56.0825,16.6456662 L56.5583334,18.1773328 C55.845,18.7839995 55,19.1806662 53.785,19.1806662 C50.9333334,19.1806662 49.2158334,16.8831662 49.2158334,12.3406662 L49.2158334,12.3406662 L49.2158334,12.3406662 Z M43.1941667,12.3664995 L43.1941667,18.9956662 L41.135,18.9956662 L41.135,5.68566617 L43.1941667,5.68566617 L43.1941667,11.8381662 L46.39,5.68566617 L48.4766667,5.68566617 L45.175,11.9439995 L48.9525,18.9956662 L46.7066667,18.9956662 L43.1941667,12.3664995 L43.1941667,12.3664995 Z M33.5025,11.1256662 L36.9083334,11.1256662 C36.9083334,8.8539995 36.5391667,7.18983283 35.3508334,7.18983283 C34.0833334,7.18983283 33.6341667,8.74816617 33.5025,11.1256662 L33.5025,11.1256662 L33.5025,11.1256662 Z M35.7733334,19.1806662 C33.0266667,19.1806662 31.3366667,16.9889995 31.3366667,12.8948328 C31.3366667,8.6164995 32.525,5.49983283 35.3508334,5.49983283 C37.5691667,5.49983283 39.0225,7.1639995 39.0225,11.6798328 L39.0225,12.8156662 L33.475,12.8156662 C33.475,15.8273328 34.3208334,17.4114995 35.9583334,17.4114995 C37.12,17.4114995 38.045,16.8831662 38.5733334,16.5131662 L39.0483334,18.0981662 C38.2033334,18.7581662 37.0933334,19.1806662 35.7733334,19.1806662 L35.7733334,19.1806662 L35.7733334,19.1806662 Z M27.005,7.3489995 L24.7075,7.3489995 L24.7075,7.5864995 C24.7075,10.3856662 24.5758334,14.4798328 23.4666667,17.3056662 L27.005,17.3056662 L27.005,7.3489995 Z M30.095,21.6106662 L28.2466667,21.6106662 L28.2466667,18.9956662 L22.5416667,18.9956662 L22.5416667,21.6106662 L20.6925,21.6106662 L20.6925,17.3056662 L21.5116667,17.3056662 C22.7266667,14.4798328 22.8583334,10.3598328 22.8583334,6.82066617 L22.8583334,5.68566617 L29.0383334,5.68566617 L29.0383334,17.3056662 L30.095,17.3056662 L30.095,21.6106662 Z M19.505,5.68566617 L19.505,18.9956662 L17.4708334,18.9956662 L17.4708334,13.0273328 L14.4066667,13.0273328 L14.4066667,18.9956662 L12.3475,18.9956662 L12.3475,5.68566617 L14.4066667,5.68566617 L14.4066667,11.3373328 L17.4708334,11.3373328 L17.4708334,5.68566617 L19.505,5.68566617 Z" id="Fill-4" fill="#1D1C1B"></path>
                    <path d="M75.63025,23.1690828 L75.4985834,22.0065828 C75.71025,22.0599162 75.9735834,22.1115828 76.3169167,22.1115828 C77.21525,22.1115828 77.8485834,21.2415828 78.24525,19.7615828 L78.3510834,19.3657495 L75.0494167,5.6857495 L76.2910834,5.6857495 L78.4035834,14.3740828 C78.6410834,15.3774162 78.8260834,16.3549162 78.95775,17.3849162 L79.03775,17.3849162 C79.22275,16.3282495 79.4335834,15.3507495 79.6719167,14.3740828 L81.7310834,5.6857495 L82.84025,5.6857495 L79.4335834,19.6824162 C78.9844167,21.4790828 78.1919167,23.2215828 76.3169167,23.2215828 C76.0269167,23.2215828 75.81525,23.1949162 75.63025,23.1690828" id="Fill-9" fill="#1D1C1B"></path>
                    <path d="M83.883,17.7809162 L84.3063334,16.7509162 C84.3063334,16.7509162 85.2038334,18.1775828 87.0255,18.1775828 C88.3996667,18.1775828 89.5088334,17.2000828 89.5088334,15.2717495 C89.5088334,13.6084162 88.6905,12.4725828 86.7096667,12.4725828 L85.6005,12.4725828 L85.6005,11.4692495 L86.5771667,11.4692495 C88.1088334,11.4692495 89.1913334,10.5442495 89.1913334,8.72258283 C89.1913334,7.37591617 88.4788334,6.5042495 87.1846667,6.5042495 C85.9696667,6.5042495 85.098,7.19008283 84.5171667,8.00841617 L84.2005,6.82091617 C84.7813334,6.05508283 85.7588334,5.42091617 87.1846667,5.42091617 C89.2713334,5.42091617 90.3805,6.7417495 90.3805,8.69591617 C90.3805,9.9892495 89.8521667,11.1784162 88.3996667,11.8917495 C90.063,12.4992495 90.7763334,13.7934162 90.7763334,15.2459162 C90.7763334,17.8334162 89.0863334,19.2600828 87.053,19.2600828 C84.913,19.2600828 83.883,17.7809162 83.883,17.7809162" id="Fill-11" fill="#1D1C1B"></path>
                    <path d="M100.616,18.9961662 L101.831,18.9961662 L101.831,5.68533283 L100.616,5.68533283 L100.616,18.9961662 Z M94.0401667,11.6011662 L94.0401667,18.0186662 L94.8326667,18.0186662 C96.7076667,18.0186662 97.9751667,17.0936662 97.9751667,14.7969995 C97.9751667,12.5511662 96.8651667,11.6011662 94.9643333,11.6011662 L94.0401667,11.6011662 L94.0401667,11.6011662 Z M92.7993333,5.68533283 L94.0401667,5.68533283 L94.0401667,10.6236662 L95.0176667,10.6236662 C97.5526667,10.6236662 99.1901667,11.9969995 99.1901667,14.7694995 C99.1901667,17.5961662 97.4468333,18.9961662 94.9376667,18.9961662 L92.7993333,18.9961662 L92.7993333,5.68533283 L92.7993333,5.68533283 Z" id="Fill-13" fill="#1D1C1B"></path>
                    <polygon id="Fill-15" fill="#1D1C1B" points="110.369083 18.9959162 105.747417 12.1034162 105.747417 18.9959162 104.506583 18.9959162 104.506583 5.68508283 105.747417 5.68508283 105.747417 11.9442495 110.209917 5.68508283 111.424917 5.68508283 107.041583 11.8650828 111.742417 18.9959162"></polygon>
                    <path d="M118.389,15.6414162 L118.389,11.9705828 L116.963167,11.9705828 C114.770667,11.9705828 113.714833,12.9747495 113.714833,15.2989162 C113.714833,17.1739162 114.533167,18.2564162 115.8015,18.2564162 C117.042333,18.2564162 117.914,17.0680828 118.389,15.6414162 M118.4415,17.1997495 C117.808167,18.4680828 116.857333,19.2605828 115.5365,19.2605828 C113.7415,19.2605828 112.499833,17.8339162 112.499833,15.4039162 C112.499833,12.5514162 114.058167,11.0730828 116.9365,11.0730828 L118.389,11.0730828 L118.389,9.40891617 C118.389,7.37558283 117.623167,6.50391617 116.170667,6.50391617 C115.035667,6.50391617 114.004833,7.0322495 113.3715,7.95641617 L113.027333,6.76808283 C113.555667,6.08058283 114.664833,5.42058283 116.170667,5.42058283 C118.363167,5.42058283 119.604,6.63558283 119.604,9.27641617 L119.604,16.5397495 C119.604,17.4647495 119.735667,18.4939162 119.894833,18.9955828 L118.759,18.9955828 C118.653167,18.6522495 118.5215,18.1505828 118.4415,17.1997495" id="Fill-16" fill="#1D1C1B"></path>
                    <path d="M64.8353183,5.99166583 C64.5695358,5.01416583 64.3574133,4.16916583 64.1972725,3.2983325 L64.1184558,3.2983325 C64.1712808,4.1958325 64.1972725,5.14666583 64.1972725,6.09749917 L64.1972725,19.3291653 L63.0285,19.3291653 L63.0285,0.445832517 L64.5695358,0.445832517 L67.7849192,12.5149995 C67.9173908,13.0174995 68.1035225,13.9941653 68.1831733,14.7074987 L68.2628233,14.7074987 C68.3693042,13.9941653 68.582265,12.9899995 68.7147375,12.5149995 L71.9561117,0.445832517 L73.445165,0.445832517 L73.445165,19.3291653 L72.1690733,19.3291653 L72.1690733,6.09749917 C72.1690733,5.19999917 72.2227317,4.2483325 72.2755542,3.2983325 L72.1690733,3.2983325 C71.93012,4.35416583 71.7439883,5.11999917 71.5310267,5.91249917 L68.6887458,16.4241653 L67.6516067,16.4241653 L64.8353167,5.99166583 L64.8353183,5.99166583 Z" id="path3439" fill="#1D1C1B"></path>
                </g>
            </g>
        </g>
    </g>
</svg>