<svg width="126" height="64" viewBox="0 0 126 64" fill="none" xmlns="http://www.w3.org/2000/svg">
<path d="M88.8906 21.901C87.2523 24.8755 90.5987 28.0424 93.8057 27.255C92.3242 29.3896 92.0802 31.5767 87.8449 33.5188C87.3743 33.7463 86.9385 33.9737 86.5551 34.2012C80.9951 37.4905 84.7947 41.5848 82.1106 46.0289C83.5921 45.679 85.091 45.6615 86.5551 45.7315C91.017 45.9239 95.1303 46.8337 97.065 41.3398C98.0236 38.6278 97.919 36.0733 98.2676 33.6063C98.8254 29.7745 101.143 27.6574 103.845 26.4852C106.425 25.3654 109.318 25.0854 111.357 24.9804C111.723 24.9629 112.072 24.9455 112.385 24.9455C112.054 24.7705 111.706 24.578 111.357 24.4206C109.701 23.5982 107.871 22.9158 106.006 22.5309C105.135 21.7786 105.257 20.5713 105.78 19.9589C106.547 19.0841 107.784 19.2241 108.307 19.8889C108.08 20.0114 107.941 20.0639 107.767 20.4838C107.592 20.9037 107.854 21.7086 108.499 21.9185C109.126 22.1285 109.841 21.8311 110.067 21.2537C110.695 19.644 109.475 18.5417 108.011 18.2967C105.518 17.8943 103.915 20.7288 105.553 22.4084C104.995 22.3035 104.403 22.2335 103.845 22.1985C102.381 22.0935 100.934 22.1985 99.5051 22.6184C97.0127 21.936 95.9495 19.469 96.333 17.8068C96.8907 15.3748 99.4703 14.5175 101.196 15.3573C100.865 15.8297 100.655 16.0222 100.795 16.9845C100.934 17.9643 102.311 19.329 103.775 19.1541H103.828C105.274 18.9616 106.303 17.7543 106.111 16.4071C105.884 14.7624 105.013 13.6601 103.828 12.9952C102.329 12.1729 100.377 12.0854 98.6511 12.5753C93.2828 14.115 93.5094 21.1487 98.6511 22.8808C97.1347 23.5282 96.0018 24.3856 94.0846 26.7476C92.7425 27.0276 91.2436 26.4152 90.651 25.6103C89.6227 24.1756 90.407 22.6009 91.6793 22.1985C91.7665 22.5659 91.9931 22.9158 92.3591 23.1783C93.1783 23.7557 94.3286 23.6157 94.956 22.8634C95.5835 22.111 95.4266 21.0262 94.6075 20.4663C92.4114 18.9266 89.919 20.0639 88.8906 21.901ZM103.758 22.8459C103.793 22.8459 103.845 22.8459 103.862 22.8459C104.298 22.8459 104.699 23.1433 104.769 23.5807C104.821 24.0356 104.472 24.4555 103.967 24.508C103.932 24.5255 103.897 24.5255 103.862 24.5255C103.409 24.5255 103.026 24.2106 102.956 23.7907C102.904 23.3183 103.27 22.8983 103.758 22.8459Z" fill="#FFC425"/>
<path d="M66.3892 53.9205C66.1103 54.4979 65.8314 55.0228 65.5177 55.4952C65.8314 55.0228 66.1277 54.4979 66.3892 53.9205Z" fill="#FFC425"/>
<path d="M75.6963 47.272C74.8597 47.237 73.9708 47.2195 72.925 47.3245C74.3194 46.4497 74.2671 45.1899 75.644 44.3676C73.7268 44.4201 72.9076 43.3003 71.5655 43.1428C72.7856 42.5304 72.193 42.0055 73.2039 41.5156C72.1058 41.5331 70.7638 41.5156 69.3171 41.4281C68.8291 41.4106 68.3411 41.3757 67.8531 41.3407C65.779 41.1832 63.5829 40.9732 61.6308 40.7108C60.341 40.5358 59.1558 40.3434 58.1798 40.1334C58.9467 41.6031 59.7484 42.373 61.6308 42.8629C62.3977 43.0553 63.3389 43.1953 64.5415 43.3353C63.4957 43.5102 62.5371 43.7202 61.6308 44.0001C59.8704 44.525 58.3192 45.2424 56.8726 46.1522C58.3541 46.7646 59.9401 47.202 61.6308 47.482C63.548 47.8144 65.5698 47.9369 67.6962 47.9369C65.5175 48.5668 63.3563 49.3191 61.6308 50.3339C60.6024 50.9113 59.731 51.6112 59.0512 52.416C59.731 52.556 60.6199 52.731 61.6308 52.8185C63.3737 52.9584 65.535 52.8534 67.8531 51.9786C68.1842 51.8561 68.5154 51.7162 68.8465 51.5762C68.4457 51.8911 68.1145 52.2761 67.8531 52.6785C66.8247 54.2707 66.7724 56.5277 67.3825 59.8171C67.5219 59.4672 67.6788 59.1347 67.8531 58.7848C68.2888 57.8225 68.7943 56.8952 69.3171 56.0203C71.0949 53.0809 73.3433 50.6139 75.6963 48.9342C76.6549 48.2343 77.6484 47.6744 78.6244 47.272C77.5612 47.342 76.6549 47.2895 75.6963 47.272Z" fill="#FFC425"/>
<path d="M123.697 42.4077C126.625 39.2933 126.904 32.5746 123.662 34.2368C125.841 31.0874 123.767 25.576 120.055 25.296C117.458 25.1385 114.861 27.0632 116.447 30.0376C116.464 30.0551 116.464 30.0726 116.482 30.0901V30.1076C117.039 31.1224 118.347 31.6473 119.567 31.2799C120.909 30.8774 121.641 29.5302 121.205 28.2879C121.135 28.113 121.048 27.938 120.943 27.798C123.488 29.2502 122.059 32.1022 118.155 35.4266C116.028 36.8613 113.763 38.0336 111.375 38.9434C109.004 39.8357 106.495 40.4656 103.863 40.868C102.05 41.148 100.168 41.3229 98.2504 41.3754C98.1982 41.3754 98.1633 41.3754 98.1284 41.3754V41.3929H98.0936L98.111 41.4454C96.9084 47.3943 93.0042 48.2341 87.758 46.9393C87.3397 46.8344 86.9562 46.7644 86.5728 46.6769C82.8777 45.942 80.9082 46.5544 80.4376 48.759C81.6925 47.2193 83.9932 47.0618 86.5728 50.0887C86.7471 50.2987 86.9214 50.5087 87.0956 50.7186C91.9584 57.5073 98.4422 60.6392 103.88 61.514C106.843 62.004 109.492 61.8115 111.392 61.1991C113.362 60.5692 114.529 59.4494 114.425 58.1547C120.49 57.0874 123.366 52.5558 121.519 51.8034C125.353 49.7388 127.846 41.7253 123.697 42.4077ZM111.375 58.8721C110.991 59.3445 109.789 59.8344 108.15 59.6769C106.564 59.5194 105.118 58.9945 103.863 58.2422C102.364 57.3498 101.144 56.1076 100.272 54.6904C101.161 55.5477 102.433 56.2476 103.863 56.8074C106.007 57.6298 108.516 58.0847 110.8 58.1197C111.061 58.1372 111.253 58.2072 111.375 58.2947C111.566 58.4346 111.549 58.6621 111.375 58.8721ZM116.046 55.1978C114.495 55.6702 112.926 55.8451 111.375 55.7926C108.673 55.6877 106.076 54.8303 103.863 53.4481C103.741 53.3781 103.619 53.3081 103.497 53.2206C103.619 53.2731 103.723 53.3081 103.863 53.3431C105.972 54.0255 108.638 54.113 111.375 53.763C113.78 53.4656 116.203 52.8357 118.347 51.9784C120.455 51.296 119.636 54.113 116.046 55.1978ZM120.333 48.0941C117.597 49.7738 114.442 50.3687 111.392 50.0712C110.137 49.9488 108.882 49.6863 107.68 49.2664C108.83 49.3714 110.085 49.2839 111.392 49.0389C114.913 48.3741 118.73 46.5544 121.606 44.4023C123.436 43.2301 123.471 46.152 120.333 48.0941ZM122.268 40.0632C119.41 43.0201 115.366 44.3498 111.375 44.2449C111.044 44.2274 110.695 44.2099 110.364 44.1924C110.695 44.1399 111.044 44.0699 111.375 43.9824C115.349 43.0201 119.723 39.7132 122.495 36.2139C123.941 34.6392 124.778 37.4562 122.268 40.0632Z" fill="#FFC425"/>
<path d="M56.9945 54.2353C57.9008 52.1007 59.6263 50.5435 61.6133 49.5112C62.5022 49.0563 63.4259 48.7063 64.3845 48.4439C63.4956 48.5664 62.5719 48.6363 61.6133 48.6363C59.2952 48.6538 56.8376 48.3214 54.7112 47.604C54.5544 47.5516 54.3975 47.4991 54.2407 47.4466C54.3801 47.2191 54.5369 47.0092 54.7112 46.8167C56.2973 44.9795 58.964 43.8948 61.439 43.5798C59.0163 43.0549 57.0468 42.5825 54.7112 41.7952L54.659 41.7777C53.6481 41.3577 52.672 41.1128 51.7483 40.9903C50.7025 40.8503 49.709 40.8678 48.7504 40.9903C47.5652 41.1478 46.4323 41.4977 45.3517 41.9001C42.5978 42.9499 40.1751 44.5246 37.125 44.6471C39.7568 44.8396 42.1098 45.5744 44.3408 46.3443C45.8397 46.8517 47.2689 47.3941 48.7504 47.744C49.4127 47.9015 50.0925 48.0415 50.7896 48.1114C50.0227 48.3039 49.3604 48.5489 48.7504 48.8638C47.7744 49.3537 46.9377 49.9836 46.1186 50.6135C44.7939 51.6633 43.4693 52.7481 41.4475 53.3079C43.8353 53.0105 46.0314 53.6229 48.1229 54.2178L48.7504 54.4102C49.7613 54.6902 50.7548 54.9701 51.7483 55.0926C52.55 55.1976 53.3692 55.2326 54.1884 55.1101C53.0555 55.775 52.6546 56.2649 52.0445 56.7723C51.9574 56.8598 51.8528 56.9298 51.7483 57.0172C51.1731 57.4547 50.3888 57.9271 48.855 58.5394C49.7613 58.7319 50.7373 58.9069 51.7483 59.0119C52.7243 59.1168 53.7003 59.1868 54.7112 59.1868C56.1579 59.2043 57.5871 59.0993 58.964 58.8194C59.8703 58.6444 60.7767 58.3995 61.6133 58.0495C63.7222 57.1747 65.5523 55.6175 66.7724 52.7481C65.0643 53.5004 63.3736 53.9903 61.6133 54.2178C60.1492 54.4802 58.6329 54.4627 56.9945 54.2353ZM49.5347 46.1518C49.2907 46.2393 49.0293 46.2743 48.7678 46.2568C47.9138 46.2218 47.0946 45.7494 46.7286 44.9446C46.2406 43.8598 46.8855 42.74 47.9835 42.39C48.2275 42.3201 48.489 42.3026 48.7504 42.3026C49.6393 42.3376 50.5108 42.8275 50.8245 43.6498C51.2428 44.7171 50.5631 45.8194 49.5347 46.1518ZM51.7483 52.7306C51.5914 52.9405 51.3648 53.098 51.1208 53.203C50.3016 53.5354 49.3779 53.133 49.0816 52.2931C48.733 51.4708 49.1338 50.4735 49.9705 50.1411C50.6153 49.8961 51.3299 50.1236 51.7483 50.6135C51.8703 50.7534 51.9748 50.9109 52.0271 51.1034C52.2363 51.6633 52.1143 52.2756 51.7483 52.7306ZM54.9901 58.1895C54.903 58.242 54.7984 58.2595 54.7112 58.277C54.3452 58.312 54.0141 58.067 53.8921 57.6646C53.7352 57.1747 53.9618 56.5798 54.4672 56.3524C54.5544 56.3174 54.6415 56.2824 54.7287 56.2824C55.1295 56.2474 55.4607 56.5098 55.5827 56.9123C55.7047 57.3847 55.4607 57.9795 54.9901 58.1895Z" fill="#FFC425"/>
<path d="M61.6134 59.012C59.487 60.0618 57.0643 60.3942 54.7114 60.5517H54.6417C53.6656 60.6217 52.6896 60.6392 51.7484 60.6217C50.6678 60.6042 49.6569 60.5342 48.7505 60.4467C46.6939 60.2718 45.2647 60.0093 45.1775 60.0268C45.2124 59.5719 45.5958 59.1345 46.1187 58.837C46.6416 58.5396 47.3213 58.3821 47.9662 58.4871C43.2777 56.2825 39.879 56.6325 36.9683 57.6648C34.0227 58.6971 31.6349 60.3593 28.1316 60.3418C32.6981 58.4871 34.5456 56.0901 36.8114 53.833C39.0598 51.5585 41.7265 49.4589 47.4782 48.2866C44.0795 48.1116 40.1927 49.0039 35.8005 49.1439C31.3386 49.3014 26.9115 49.0214 24.4017 47.1143C26.4061 46.5194 27.8876 45.7671 29.2645 45.0322C31.6174 43.755 33.8833 42.7052 36.428 41.8653C38.3626 41.2179 40.3844 40.6755 42.3888 40.3606C44.4629 40.0457 46.6416 39.9232 48.7331 40.0807C49.0294 40.0982 49.3083 40.1331 49.5871 40.1681C50.2495 40.2556 50.9466 40.3781 51.7135 40.5706C52.585 40.7805 53.561 41.0955 54.6765 41.5329L54.8857 41.6029L54.6765 41.4629C53.5959 40.728 52.6199 40.1506 51.7135 39.7132C51.0163 39.3808 50.354 39.1358 49.6917 38.9259C49.378 38.8384 49.0468 38.7509 48.7331 38.6809C41.7788 37.1062 33.3778 40.1331 27.4344 43.1951C26.2143 43.8249 25.0814 44.3848 24.0008 44.8747C20.3406 46.5369 17.2382 47.3068 13.8395 46.3445C17.2208 47.9366 20.6544 49.0914 24.0008 49.7913C25.4649 50.0887 26.9115 50.3337 28.3407 50.4912C32.8549 50.9811 37.2471 50.7361 41.1687 49.6863C36.4802 50.8586 34.2667 53.0107 31.6 55.2502C29.7002 56.8424 27.5913 58.4696 24.0008 59.7644C22.5367 60.3068 20.8112 60.7792 18.7546 61.1991C20.5846 62.5113 22.345 63.2812 24.0008 63.6836C27.6087 64.5235 30.8331 63.5611 33.6915 62.3189C37.8746 60.4992 41.5348 58.1722 43.1208 58.837C41.2733 59.4494 39.8093 60.2193 38.7461 61.0766C37.6829 61.934 37.038 62.8963 36.7591 63.8586C39.2341 61.7765 44.5675 61.9689 48.7331 62.0914C49.8486 62.1264 50.8595 62.1614 51.731 62.1264L52.1144 62.1089C52.9859 62.0564 53.8399 61.9864 54.6939 61.8815C56.646 61.619 58.4936 61.1816 60.2016 60.3418C60.6897 60.1143 61.1428 59.8519 61.6134 59.5719C62.9903 58.6796 64.2801 57.4723 65.3956 55.7401C64.3498 57.2449 63.06 58.2947 61.6134 59.012Z" fill="#FFC425"/>
<path d="M61.6137 34.3241C63.252 35.8113 65.3087 37.0886 67.8359 38.0334C68.3065 38.2083 68.7946 38.3658 69.3 38.5233C71.1824 39.1007 73.2913 39.5031 75.6792 39.7305L75.9232 39.748C75.9232 40.0805 75.836 40.4129 75.6792 40.7104C75.2609 41.5502 74.3371 42.2501 73.3262 42.74C74.0931 43.0374 74.8774 43.2299 75.6792 43.3349C76.8121 43.4748 77.9798 43.4573 79.1999 43.3523C77.823 43.9997 76.7772 44.5946 75.6792 45.7144C75.47 45.9244 75.2783 46.1343 75.0866 46.3793L75.6792 46.4493C80.786 46.9567 82.5289 46.3093 81.762 40.7104C81.518 38.9957 81.5529 37.5085 83.0692 35.7938L84.5856 34.814C79.165 26.0832 76.4461 17.0374 80.1237 7.27428C81.6923 2.86513 84.4636 0.643058 86.5551 1.50039C86.9385 1.64037 87.3046 1.90282 87.6183 2.27024C87.4266 2.25275 87.2174 2.25275 87.0257 2.27024C86.8688 2.28774 86.712 2.32273 86.5551 2.35773C85.4048 2.69016 84.6204 3.75746 84.7599 4.91224C84.8819 5.87455 85.6139 6.6444 86.5551 6.90685C86.7643 6.95934 86.9908 6.99434 87.2348 7.01183C87.2697 7.01183 87.2871 7.01183 87.3046 7.01183C90.9124 7.08182 91.7142 4.0549 90.4593 1.95531C89.7098 0.713044 88.2109 0.100662 86.5551 0.0131785C84.1324 -0.126795 81.3786 0.853017 80.0888 2.72516C80.2457 0.643057 77.945 0.957997 75.6617 2.37522C74.1802 3.30255 72.7162 4.68478 72.0016 6.17199C71.6181 4.84225 70.5549 4.66728 69.2826 5.15719C68.812 5.34965 68.3065 5.6296 67.8185 5.96204C65.8316 7.36177 63.8795 9.88128 63.6703 12.0159C62.9383 11.421 62.2237 11.491 61.5962 12.0159C60.1845 13.1707 59.2607 16.6175 59.6441 19.7319C57.3435 18.8396 56.0711 22.8988 56.594 25.9607C57.4655 29.0926 59.0341 31.997 61.6137 34.3241ZM74.4417 7.06432C74.8251 6.43444 75.2609 5.90955 75.6966 5.50712C77.3698 3.96742 79.165 4.12489 78.2936 5.54212C77.3001 6.92435 76.3938 8.53404 75.6966 10.1787C74.4417 13.1532 73.8317 16.3025 74.372 18.7871C72.4896 15.2178 72.2282 10.8611 74.4417 7.06432ZM67.6094 10.9136C67.6791 10.6161 67.7488 10.3362 67.8534 10.0737C68.2194 9.05894 68.7771 8.30658 69.3174 7.86917C70.2238 7.11681 71.0778 7.25679 70.7989 8.41156C69.3697 12.9257 69.2477 18.6821 71.2695 22.1464C70.5375 21.4116 69.8752 20.5892 69.3174 19.7144C68.6726 18.7346 68.1845 17.6498 67.8534 16.5475C67.3131 14.7453 67.1911 12.8382 67.6094 10.9136ZM61.6137 15.7427C62.1888 13.888 63.6006 13.2931 63.7052 14.8328C63.7052 19.277 65.1518 24.4735 67.8359 27.3954C67.9928 27.5704 68.1497 27.7453 68.324 27.8853C68.1671 27.7978 67.9928 27.7104 67.8359 27.6054C64.7509 25.7507 62.3806 22.8813 61.6137 19.382C61.5265 18.9445 61.4568 18.5071 61.4045 18.0522C61.3174 17.1599 61.4219 16.3725 61.6137 15.7427ZM60.167 22.7938C60.533 24.0186 61.0211 25.2783 61.6311 26.5031C63.1474 29.5825 65.3784 32.4344 67.8534 33.9742C68.0277 34.0791 68.1845 34.1841 68.3588 34.2716C68.1845 34.2366 68.0277 34.1841 67.8534 34.1316C65.5178 33.4318 63.3392 32.242 61.6311 30.5623C60.4633 29.4075 59.5047 28.0428 58.8772 26.4681C57.5526 23.1787 59.435 20.8342 60.167 22.7938Z" fill="#FFC425"/>
<path d="M8.36681 54.7601C13.6828 57.822 18.441 60.1491 24.0358 58.172C24.9421 57.857 25.8833 57.4196 26.8419 56.8597C29.2646 55.4425 31.4782 53.4829 34.1971 51.4182C30.7461 52.2056 27.3823 51.9606 24.0358 51.3483C20.916 50.7884 17.8484 49.8785 14.746 49.1962C8.4191 47.779 1.42991 48.7063 0.14014 53.7803C-0.330453 55.6349 0.419011 57.4721 1.86565 58.102C3.76545 58.9068 5.71754 57.717 5.40381 55.8974C5.10751 54.2877 2.82426 53.5878 1.53449 55.145C2.00508 52.2406 5.52582 53.1329 8.36681 54.7601Z" fill="#FFC425"/>
</svg>
