<svg width="24" height="24" viewBox="0 0 24 24" fill="none" xmlns="http://www.w3.org/2000/svg">
<path d="M0.293256 23.7068C0.684232 24.0977 1.31623 24.0977 1.70721 23.7068L12 13.414L22.2928 23.7068C22.6838 24.0977 23.3158 24.0977 23.7068 23.7068C24.0977 23.3158 24.0977 22.6838 23.7068 22.2928L12.707 11.293C12.512 11.098 12.256 11 12 11C11.744 11 11.488 11.098 11.293 11.293L0.293209 22.2928C-0.0977201 22.6838 -0.0977198 23.3158 0.293256 23.7068Z" fill="white"/>
<path d="M23.7067 0.293232C23.3158 -0.097744 22.6838 -0.097744 22.2928 0.293232L12 10.586L1.70719 0.293232C1.31621 -0.097744 0.684208 -0.097744 0.293232 0.293232C-0.097744 0.684208 -0.097744 1.31621 0.293232 1.70719L11.293 12.707C11.488 12.902 11.744 13 12 13C12.256 13 12.512 12.902 12.707 12.707L23.7068 1.70719C24.0977 1.31621 24.0977 0.684208 23.7067 0.293232Z" fill="white"/>
</svg>
