<svg width="41" height="44" viewBox="0 0 41 44" fill="none" xmlns="http://www.w3.org/2000/svg">
<path d="M40.9984 19.7937L40.2095 7.39428C40.1816 6.96446 39.8405 6.62404 39.4223 6.62404C39.2567 6.62404 39.1009 6.67734 38.9746 6.77018L36.3326 8.68717C32.572 3.89899 26.8796 0.838684 20.5 0.838684C10.0237 0.838684 1.24476 9.07057 0.01312 19.7043C0.00656 19.7524 0 19.8006 0 19.8504C0 20.306 0.3526 20.6774 0.78884 20.6774C1.11684 20.6774 1.39728 20.4676 1.51536 20.1702C4.5428 12.2598 11.8736 6.62404 20.5 6.62404C24.9985 6.62404 29.028 8.70608 31.7734 11.9968L28.7246 14.2095C28.5196 14.3591 28.3835 14.6084 28.3835 14.8903C28.3835 15.2325 28.5819 15.5264 28.8656 15.652L39.9045 20.6121C39.9996 20.6533 40.1029 20.6774 40.2112 20.6774C40.6458 20.6774 41 20.3077 41 19.8504C41 19.8315 41 19.8126 40.9984 19.7937Z" fill="#CE0E2D"/>
<path d="M0.00164 24.2063L0.79048 36.6057C0.81836 37.0355 1.15948 37.3759 1.57768 37.3759C1.74332 37.3759 1.89912 37.3226 2.0254 37.2298L4.66744 35.3128C8.42796 40.101 14.1204 43.1613 20.5 43.1613C30.9763 43.1613 39.7552 34.9294 40.9869 24.2957C40.9934 24.2475 41 24.1994 41 24.1495C41 23.6939 40.6474 23.3226 40.2112 23.3226C39.8832 23.3226 39.6027 23.5323 39.4846 23.8298C36.4588 31.7384 29.1264 37.3742 20.5 37.3742C16.0015 37.3742 11.972 35.2922 9.22664 32.0015L12.2754 29.7888C12.4804 29.6392 12.6165 29.3899 12.6165 29.1079C12.6165 28.7658 12.4181 28.4718 12.1344 28.3463L1.09552 23.3879C1.0004 23.3466 0.89708 23.3226 0.78884 23.3226C0.3526 23.3226 0 23.6922 0 24.1495C0 24.1685 0 24.1874 0.00164 24.2063Z" fill="#CE0E2D"/>
</svg>
