<svg width="170" height="131" viewBox="0 0 170 131" fill="none" xmlns="http://www.w3.org/2000/svg">
<g clip-path="url(#clip0)">
<path fill-rule="evenodd" clip-rule="evenodd" d="M29.8483 76.7498C34.9298 78.6234 40.3776 77.3141 43.6966 73.8378C37.9742 94.0185 24.6752 109.955 -8.01086e-05 120.858C34.9527 120.926 53.4935 95.576 46.8097 65.9822C46.6952 61.1515 43.5135 56.5239 38.3862 54.5826C31.7939 52.0995 24.5378 55.0792 22.1802 61.1515C19.8225 67.3141 23.2331 74.2667 29.8483 76.7498Z" fill="#FFE297"/>
<path fill-rule="evenodd" clip-rule="evenodd" d="M97.3964 104.944C97.0988 98.9395 92.1775 94.2893 86.3864 94.5602C80.5724 94.8311 76.1775 99.9101 76.4522 105.937C76.7498 111.942 81.6482 116.592 87.4164 116.321C93.2076 116.028 97.694 110.926 97.3964 104.944Z" fill="#FFE297"/>
<path fill-rule="evenodd" clip-rule="evenodd" d="M75.971 82.7995C69.6534 81.716 63.9081 77.8333 60.7722 71.7837C55.4159 61.5353 59.5361 48.9619 69.9052 43.7248C75.6048 40.8354 81.991 40.7451 87.5075 42.9348C86.4546 29.7293 81.2815 15.3725 71.4388 0C84.5776 13.7472 91.3301 29.6841 92.0168 45.3953C94.6262 47.2463 96.8237 49.7294 98.3573 52.7091C103.714 62.98 99.6162 75.5534 89.2471 80.813C86.6377 82.1449 83.868 82.8672 81.0983 83.0478C68.9896 100.723 46.9696 114.448 15.6563 118.736C43.0783 111.197 63.931 98.8944 75.971 82.7995ZM85.539 65.6662C89.8423 65.6662 93.3444 62.2125 93.3444 57.9687C93.3444 53.7249 89.8423 50.2711 85.539 50.2711C81.2128 50.2711 77.7106 53.7249 77.7106 57.9687C77.7106 62.2125 81.2128 65.6662 85.539 65.6662Z" fill="#FFE297"/>
</g>
<path d="M117.005 31.5282C124.787 31.5282 132.164 35.4057 137.149 42.1078L160.528 73.5659L137.133 105.024C132.148 111.726 124.772 115.604 116.989 115.604" stroke="#CE0E2D" stroke-width="4" stroke-miterlimit="10" stroke-linejoin="round"/>
<path d="M117.001 34.5309C123.174 34.5309 129.024 38.1314 132.978 44.3548L151.52 73.5659L132.965 102.777C129.011 109 123.161 112.601 116.989 112.601" stroke="white" stroke-width="2" stroke-linejoin="round"/>
<defs>
<clipPath id="clip0">
<rect width="100.715" height="120.858" fill="white" transform="matrix(-1 0 0 1 100.715 0)"/>
</clipPath>
</defs>
</svg>
