<svg width="32" height="32" viewBox="0 0 32 32" fill="none" xmlns="http://www.w3.org/2000/svg">
<path fill-rule="evenodd" clip-rule="evenodd" d="M29.3367 16.0033C29.3367 23.3671 23.3672 29.3367 16.0034 29.3367C8.63958 29.3367 2.67004 23.3671 2.67004 16.0033C2.67004 8.63952 8.63958 2.66998 16.0034 2.66998C23.3672 2.66998 29.3367 8.63952 29.3367 16.0033ZM21.9395 21.4097H23.7868C24.3145 21.4097 24.5784 21.1458 24.4263 20.625C24.2597 20.1059 23.6617 19.3529 22.8682 18.4602C22.6499 18.2023 22.3763 17.9343 22.1341 17.6971C21.8986 17.4664 21.6926 17.2647 21.5961 17.1295C21.322 16.7774 21.4004 16.6206 21.5961 16.3075C21.5961 16.3075 23.8467 13.1373 24.0815 12.0609C24.199 11.6695 24.0815 11.3819 23.5229 11.3819H21.6756C21.2059 11.3819 20.9895 11.6303 20.872 11.9043C20.872 11.9043 19.9327 14.194 18.6019 15.6813C18.1713 16.1118 17.9757 16.2489 17.7408 16.2489C17.6234 16.2489 17.4534 16.1118 17.4534 15.7205V12.0609C17.4534 11.5912 17.3171 11.3819 16.9256 11.3819H14.0229C13.7293 11.3819 13.5528 11.5999 13.5528 11.8065C13.5528 11.9765 13.6498 12.0966 13.7735 12.2498C13.9739 12.4978 14.2443 12.8326 14.2868 13.6069V16.327C14.2868 16.9236 14.1791 17.0316 13.9442 17.0316C13.318 17.0316 11.7947 14.7318 10.8913 12.1001C10.7142 11.5885 10.5366 11.3819 10.0645 11.3819H8.21732C7.68954 11.3819 7.58398 11.6303 7.58398 11.9043C7.58398 12.3935 8.21019 14.8202 10.5 18.0298C12.0263 20.2215 14.177 21.4097 16.134 21.4097C17.3082 21.4097 17.4534 21.1458 17.4534 20.6912V19.0347C17.4534 18.5069 17.5648 18.4016 17.9365 18.4016C18.2104 18.4016 18.6802 18.5386 19.7762 19.5953C20.1491 19.9682 20.4292 20.2799 20.6574 20.5337C21.1957 21.1325 21.4448 21.4097 21.9395 21.4097Z" fill="white"/>
</svg>
