<svg width="32" height="32" viewBox="0 0 32 32" fill="none" xmlns="http://www.w3.org/2000/svg">
<path fill-rule="evenodd" clip-rule="evenodd" d="M29.3367 16.0033C29.3367 23.3671 23.3672 29.3367 16.0034 29.3367C8.63958 29.3367 2.67004 23.3671 2.67004 16.0033C2.67004 8.63954 8.63958 2.67 16.0034 2.67C23.3672 2.67 29.3367 8.63954 29.3367 16.0033ZM22.6432 13.0479C22.6432 17.5672 19.2028 22.7785 12.9126 22.7785V22.7758C11.0544 22.7783 9.23461 22.2459 7.67065 21.2423C7.94082 21.2746 8.21266 21.2911 8.48476 21.2916C10.025 21.2932 11.521 20.7765 12.732 19.8248C12.0183 19.8114 11.3266 19.5753 10.7538 19.1494C10.1809 18.7236 9.75542 18.1294 9.53689 17.4498C10.0493 17.5485 10.5776 17.5285 11.0811 17.3912C10.3071 17.2348 9.6111 16.8156 9.11102 16.2045C8.61095 15.5935 8.33762 14.8283 8.3374 14.0387V13.9954C8.81298 14.2605 9.34536 14.4073 9.8896 14.4235C9.16552 13.9399 8.65295 13.1986 8.45624 12.3505C8.25953 11.5023 8.39347 10.6111 8.8308 9.85821C9.68946 10.9146 10.7607 11.7787 11.975 12.3943C13.1892 13.0098 14.5193 13.3632 15.879 13.4313C15.7088 12.6982 15.785 11.9294 16.0958 11.2439C16.4066 10.5584 16.9347 9.99445 17.5983 9.63931C18.2619 9.28417 19.024 9.15763 19.7667 9.27928C20.5095 9.40093 21.1915 9.76399 21.7071 10.3123C22.4729 10.1613 23.2074 9.88052 23.8787 9.48217C23.6234 10.2741 23.0891 10.9463 22.3752 11.3737C23.0531 11.2936 23.7152 11.1122 24.3394 10.8357C23.8803 11.5223 23.3025 12.1218 22.6332 12.6059C22.6432 12.7526 22.6432 12.8999 22.6432 13.0479Z" fill="white"/>
</svg>
