<svg width="33" height="34" viewBox="0 0 33 34" fill="none" xmlns="http://www.w3.org/2000/svg">
<path d="M31.9987 14.112L31.383 4.88064C31.3613 4.56064 31.095 4.3072 30.7686 4.3072C30.6394 4.3072 30.5178 4.34688 30.4192 4.416L28.3571 5.8432C25.4221 2.2784 20.9792 0 16 0C7.82336 0 0.97152 6.12864 0.01024 14.0454C0.00512 14.0813 0 14.1171 0 14.1542C0 14.4934 0.2752 14.7699 0.61568 14.7699C0.87168 14.7699 1.09056 14.6138 1.18272 14.3923C3.5456 8.50304 9.2672 4.3072 16 4.3072C19.511 4.3072 22.656 5.85728 24.7987 8.3072L22.4192 9.95456C22.2592 10.0659 22.153 10.2515 22.153 10.4614C22.153 10.7162 22.3078 10.935 22.5293 11.0285L31.145 14.7213C31.2192 14.752 31.2998 14.7699 31.3843 14.7699C31.7235 14.7699 32 14.4947 32 14.1542C32 14.1402 32 14.1261 31.9987 14.112Z" fill="#CE0E2D"/>
<g filter="url(#filter0_d)">
<path d="M0.00128 17.888L0.61696 27.1194C0.63872 27.4394 0.90496 27.6928 1.23136 27.6928C1.36064 27.6928 1.48224 27.6531 1.5808 27.584L3.64288 26.1568C6.57792 29.7216 11.0208 32 16 32C24.1766 32 31.0285 25.8714 31.9898 17.9546C31.9949 17.9187 32 17.8829 32 17.8458C32 17.5066 31.7248 17.2301 31.3843 17.2301C31.1283 17.2301 30.9094 17.3863 30.8173 17.6077C28.4557 23.4957 22.7328 27.6915 16 27.6915C12.489 27.6915 9.344 26.1415 7.20128 23.6915L9.5808 22.0442C9.7408 21.9328 9.84704 21.7472 9.84704 21.5373C9.84704 21.2826 9.69216 21.0637 9.47072 20.9703L0.85504 17.2787C0.7808 17.248 0.70016 17.2301 0.61568 17.2301C0.2752 17.2301 0 17.5053 0 17.8458C0 17.8599 0 17.8739 0.00128 17.888Z" fill="#FFC629"/>
</g>
<defs>
<filter id="filter0_d" x="0" y="17.2301" width="33" height="16.7699" filterUnits="userSpaceOnUse" color-interpolation-filters="sRGB">
<feFlood flood-opacity="0" result="BackgroundImageFix"/>
<feColorMatrix in="SourceAlpha" type="matrix" values="0 0 0 0 0 0 0 0 0 0 0 0 0 0 0 0 0 0 127 0"/>
<feOffset dx="1" dy="2"/>
<feColorMatrix type="matrix" values="0 0 0 0 0 0 0 0 0 0 0 0 0 0 0 0 0 0 1 0"/>
<feBlend mode="normal" in2="BackgroundImageFix" result="effect1_dropShadow"/>
<feBlend mode="normal" in="SourceGraphic" in2="effect1_dropShadow" result="shape"/>
</filter>
</defs>
</svg>
