<svg width="69" height="50" viewBox="0 0 69 50" fill="none" xmlns="http://www.w3.org/2000/svg">
<g clip-path="url(#clip0)">
<path fill-rule="evenodd" clip-rule="evenodd" d="M56.9727 29.2119C55.0386 29.925 52.9652 29.4267 51.7019 28.1035C53.8799 35.7845 58.9417 41.8503 68.3333 46.0001C55.0299 46.0258 47.9731 36.3774 50.5171 25.1136C50.5606 23.275 51.7716 21.5137 53.7231 20.7748C56.2322 19.8297 58.994 20.9638 59.8913 23.275C60.7886 25.6205 59.4905 28.2668 56.9727 29.2119Z" fill="#FFE297"/>
<path fill-rule="evenodd" clip-rule="evenodd" d="M31.2631 39.9428C31.3764 37.6574 33.2495 35.8875 35.4537 35.9906C37.6665 36.0937 39.3393 38.0268 39.2347 40.3208C39.1215 42.6062 37.2571 44.3761 35.0616 44.273C32.8575 44.1613 31.1499 42.2196 31.2631 39.9428Z" fill="#FFE297"/>
<path fill-rule="evenodd" clip-rule="evenodd" d="M39.4179 31.5144C41.8225 31.102 44.0092 29.6242 45.2028 27.3216C47.2414 23.421 45.6732 18.6354 41.7266 16.6421C39.5573 15.5424 37.1266 15.508 35.027 16.3414C35.4278 11.3153 37.3967 5.85095 41.1429 0C36.1422 5.23235 33.5721 11.2981 33.3107 17.2779C32.3176 17.9824 31.4812 18.9275 30.8975 20.0616C28.8588 23.9709 30.4183 28.7564 34.3649 30.7583C35.3581 31.2652 36.4122 31.5402 37.4664 31.6089C42.0751 38.3362 50.4562 43.56 62.3744 45.1924C51.9372 42.3227 44.0005 37.6403 39.4179 31.5144ZM35.7763 24.9933C34.1384 24.9933 32.8054 23.6787 32.8054 22.0635C32.8054 20.4483 34.1384 19.1337 35.7763 19.1337C37.4229 19.1337 38.7558 20.4483 38.7558 22.0635C38.7558 23.6787 37.4229 24.9933 35.7763 24.9933Z" fill="#FFE297"/>
</g>
<path d="M21.5655 44C18.6033 44 15.7958 42.5242 13.8984 39.9733L5 28L13.9043 16.0267C15.8018 13.4758 18.6093 12 21.5714 12" stroke="#CE0E2D" stroke-width="2" stroke-miterlimit="10"/>
<path d="M21.5669 42.8571C19.2176 42.8571 16.9909 41.4867 15.486 39.118L8.42871 28L15.4908 16.8819C16.9956 14.5132 19.2223 13.1428 21.5716 13.1428" stroke="white"/>
<defs>
<clipPath id="clip0">
<rect width="38.3333" height="46" fill="white" transform="translate(30)"/>
</clipPath>
</defs>
</svg>
