<svg width="32" height="32" viewBox="0 0 32 32" fill="none" xmlns="http://www.w3.org/2000/svg">
<path fill-rule="evenodd" clip-rule="evenodd" d="M29.3333 16C29.3333 23.3638 23.3638 29.3333 16 29.3333C8.63616 29.3333 2.66663 23.3638 2.66663 16C2.66663 8.63621 8.63616 2.66667 16 2.66667C23.3638 2.66667 29.3333 8.63621 29.3333 16ZM21.0867 10.5665C21.0867 10.5665 18.0809 11.7996 17.1946 12.185C14.8824 13.1484 8.21575 15.8844 8.21575 15.8844C6.63579 16.501 7.56064 17.079 7.56064 17.079C7.56064 17.079 8.90939 17.5414 10.0655 17.8883C11.2215 18.2351 11.8381 17.8497 11.8381 17.8497C11.8381 17.8497 14.5356 16.0771 17.2716 14.1888C19.1984 12.8786 18.736 13.9576 18.2735 14.42C17.2716 15.422 15.6146 17.0019 14.2273 18.2736C13.6107 18.8131 13.919 19.2755 14.1888 19.5068C14.9729 20.1703 16.8194 21.3767 17.6588 21.9252C17.8919 22.0776 18.0474 22.1791 18.0809 22.2042C18.2735 22.3584 19.3525 23.052 20.0077 22.8979C20.6628 22.7437 20.7398 21.8574 20.7398 21.8574C20.7398 21.8574 21.2408 18.6975 21.7032 15.8073C21.7888 15.2401 21.8745 14.6848 21.9543 14.1669C22.1619 12.8202 22.3305 11.7269 22.3583 11.3372C22.4739 10.027 21.0867 10.5665 21.0867 10.5665Z" fill="white"/>
</svg>
