<svg width="70" height="50" viewBox="0 0 70 50" fill="none" xmlns="http://www.w3.org/2000/svg">
<g clip-path="url(#clip0)">
<path fill-rule="evenodd" clip-rule="evenodd" d="M12.0273 29.2119C13.9614 29.925 16.0348 29.4267 17.2981 28.1035C15.1201 35.7845 10.0583 41.8503 0.666656 46.0001C13.9701 46.0258 21.0269 36.3774 18.4829 25.1136C18.4394 23.275 17.2284 21.5137 15.2769 20.7748C12.7678 19.8297 10.006 20.9638 9.1087 23.275C8.21135 25.6205 9.50946 28.2668 12.0273 29.2119Z" fill="#FFE297"/>
<path fill-rule="evenodd" clip-rule="evenodd" d="M37.7367 39.9428C37.6235 37.6574 35.7504 35.8875 33.5462 35.9906C31.3333 36.0937 29.6606 38.0268 29.7652 40.3208C29.8784 42.6062 31.7428 44.3761 33.9383 44.273C36.1424 44.1613 37.85 42.2196 37.7367 39.9428Z" fill="#FFE297"/>
<path fill-rule="evenodd" clip-rule="evenodd" d="M29.5819 31.5144C27.1774 31.102 24.9907 29.6242 23.7971 27.3216C21.7585 23.421 23.3266 18.6354 27.2732 16.6421C29.4426 15.5424 31.8732 15.508 33.9729 16.3414C33.5721 11.3153 31.6032 5.85095 27.8569 0C32.8577 5.23235 35.4278 11.2981 35.6891 17.2779C36.6823 17.9824 37.5187 18.9275 38.1024 20.0616C40.141 23.9709 38.5816 28.7564 34.635 30.7583C33.6418 31.2652 32.5876 31.5402 31.5335 31.6089C26.9248 38.3362 18.5437 43.56 6.62551 45.1924C17.0626 42.3227 24.9994 37.6403 29.5819 31.5144ZM33.2236 24.9933C34.8615 24.9933 36.1944 23.6787 36.1944 22.0635C36.1944 20.4483 34.8615 19.1337 33.2236 19.1337C31.577 19.1337 30.2441 20.4483 30.2441 22.0635C30.2441 23.6787 31.577 24.9933 33.2236 24.9933Z" fill="#FFE297"/>
</g>
<path d="M49.0061 12C51.9682 12 54.7757 13.4758 56.6732 16.0267L65.5715 28L56.6672 39.9733C54.7698 42.5242 51.9623 44 49.0001 44" stroke="#CE0E2D" stroke-width="2" stroke-miterlimit="10"/>
<path d="M49.0047 13.1429C51.354 13.1429 53.5806 14.5133 55.0855 16.882L62.1428 28L55.0808 39.1181C53.5759 41.4868 51.3493 42.8572 49 42.8572" stroke="white"/>
<defs>
<clipPath id="clip0">
<rect width="38.3333" height="46" fill="white" transform="matrix(-1 0 0 1 39 0)"/>
</clipPath>
</defs>
</svg>
