<svg width="170" height="131" viewBox="0 0 170 131" fill="none" xmlns="http://www.w3.org/2000/svg">
<g clip-path="url(#clip0)">
<path fill-rule="evenodd" clip-rule="evenodd" d="M139.687 76.7498C134.606 78.6234 129.158 77.3141 125.839 73.8378C131.562 94.0185 144.861 109.955 169.536 120.858C134.583 120.926 116.042 95.576 122.726 65.9822C122.841 61.1515 126.022 56.5239 131.15 54.5826C137.742 52.0995 144.998 55.0792 147.356 61.1515C149.713 67.3141 146.303 74.2667 139.687 76.7498Z" fill="#CE0E2D"/>
<path fill-rule="evenodd" clip-rule="evenodd" d="M72.1396 104.944C72.4372 98.9395 77.3585 94.2893 83.1496 94.5602C88.9636 94.8311 93.3585 99.9101 93.0838 105.937C92.7862 111.942 87.8878 116.592 82.1196 116.321C76.3284 116.028 71.842 110.926 72.1396 104.944Z" fill="#CE0E2D"/>
<path fill-rule="evenodd" clip-rule="evenodd" d="M93.5648 82.7995C99.8823 81.716 105.628 77.8333 108.764 71.7837C114.12 61.5353 110 48.9619 99.6306 43.7248C93.931 40.8354 87.5447 40.7451 82.0283 42.9348C83.0812 29.7293 88.2543 15.3725 98.0969 0C84.9582 13.7472 78.2057 29.6841 77.519 45.3953C74.9095 47.2463 72.7121 49.7294 71.1785 52.7091C65.8223 62.98 69.9195 75.5534 80.2886 80.813C82.8981 82.1449 85.6678 82.8672 88.4374 83.0478C100.546 100.723 122.566 114.448 153.879 118.736C126.457 111.197 105.605 98.8944 93.5648 82.7995ZM83.9968 65.6662C79.6935 65.6662 76.1914 62.2125 76.1914 57.9687C76.1914 53.7249 79.6935 50.2711 83.9968 50.2711C88.323 50.2711 91.8251 53.7249 91.8251 57.9687C91.8251 62.2125 88.323 65.6662 83.9968 65.6662Z" fill="#CE0E2D"/>
</g>
<path d="M56.6601 115.604C48.8775 115.604 41.5012 111.726 36.5159 105.024L13.1367 73.566L36.5315 42.1079C41.5168 35.4057 48.8931 31.5283 56.6758 31.5283" stroke="#CE0E2D" stroke-width="4" stroke-miterlimit="10" stroke-linejoin="round"/>
<path d="M56.6637 112.601C50.4913 112.601 44.6411 109.001 40.6873 102.777L22.1451 73.566L40.6997 44.3549C44.6535 38.1314 50.5037 34.5309 56.6761 34.5309" stroke="white" stroke-width="3" stroke-linejoin="round"/>
<defs>
<clipPath id="clip0">
<rect width="100.715" height="120.858" fill="white" transform="translate(68.8206)"/>
</clipPath>
</defs>
</svg>
