<svg width="170" height="131" viewBox="0 0 170 131" fill="none" xmlns="http://www.w3.org/2000/svg">
<g clip-path="url(#clip0)">
<path fill-rule="evenodd" clip-rule="evenodd" d="M29.8483 76.7498C34.9299 78.6234 40.3777 77.3141 43.6967 73.8378C37.9742 94.0185 24.6752 109.955 -1.90735e-05 120.858C34.9528 120.926 53.4936 95.576 46.8097 65.9822C46.6953 61.1515 43.5136 56.5239 38.3863 54.5826C31.794 52.0995 24.5379 55.0792 22.1802 61.1515C19.8226 67.3141 23.2332 74.2667 29.8483 76.7498Z" fill="#CE0E2D"/>
<path fill-rule="evenodd" clip-rule="evenodd" d="M97.3965 104.944C97.0989 98.9395 92.1776 94.2893 86.3865 94.5602C80.5724 94.8311 76.1776 99.9101 76.4523 105.937C76.7498 111.942 81.6483 116.592 87.4165 116.321C93.2076 116.028 97.694 110.926 97.3965 104.944Z" fill="#CE0E2D"/>
<path fill-rule="evenodd" clip-rule="evenodd" d="M75.9711 82.7995C69.6535 81.716 63.9081 77.8333 60.7722 71.7837C55.416 61.5353 59.5362 48.9619 69.9053 43.7248C75.6048 40.8354 81.9911 40.7451 87.5076 42.9348C86.4546 29.7293 81.2815 15.3725 71.4389 0C84.5777 13.7472 91.3302 29.6841 92.0169 45.3953C94.6263 47.2463 96.8237 49.7294 98.3573 52.7091C103.714 62.98 99.6163 75.5534 89.2472 80.813C86.6377 82.1449 83.8681 82.8672 81.0984 83.0478C68.9897 100.723 46.9696 114.448 15.6563 118.736C43.0784 111.197 63.931 98.8944 75.9711 82.7995ZM85.539 65.6662C89.8423 65.6662 93.3445 62.2125 93.3445 57.9687C93.3445 53.7249 89.8423 50.2711 85.539 50.2711C81.2129 50.2711 77.7107 53.7249 77.7107 57.9687C77.7107 62.2125 81.2129 65.6662 85.539 65.6662Z" fill="#CE0E2D"/>
</g>
<path d="M117.005 31.5282C124.788 31.5282 132.164 35.4057 137.149 42.1078L160.528 73.5659L137.133 105.024C132.148 111.726 124.772 115.604 116.989 115.604" stroke="#CE0E2D" stroke-width="4" stroke-miterlimit="10" stroke-linejoin="round"/>
<path d="M117.001 34.5309C123.174 34.5309 129.024 38.1314 132.978 44.3548L151.52 73.5659L132.965 102.777C129.012 109 123.161 112.601 116.989 112.601" stroke="white" stroke-width="2" stroke-linejoin="round"/>
<defs>
<clipPath id="clip0">
<rect width="100.715" height="120.858" fill="white" transform="matrix(-1 0 0 1 100.715 0)"/>
</clipPath>
</defs>
</svg>
