<svg width="153" height="34" viewBox="0 0 153 34" fill="none" xmlns="http://www.w3.org/2000/svg">
<path fill-rule="evenodd" clip-rule="evenodd" d="M13.4614 6.77137C13.3362 9.60909 13.2027 12.1881 13.0524 14.5167C12.9022 16.8453 12.6935 18.9402 12.4348 20.8097C12.1761 22.6709 11.8339 24.3235 11.4082 25.759C10.9826 27.1946 10.4317 28.4298 9.76401 29.4731C9.33835 30.1575 8.86262 30.7251 8.32846 31.1758C7.7943 31.6181 7.24344 31.977 6.66756 32.2524C6.09167 32.5195 5.51579 32.7031 4.95659 32.8116C4.39739 32.9118 3.87158 32.9702 3.3875 32.9702C2.68641 32.9702 2.10217 32.9201 1.63478 32.8116C1.1674 32.7031 0.700009 32.5529 0.240967 32.3442L0.925363 27.0611C1.10898 27.1195 1.2926 27.1612 1.47622 27.1946C1.65983 27.228 1.84344 27.2363 2.02706 27.2363C2.51114 27.2363 2.99522 27.1195 3.46261 26.8774C3.93 26.6437 4.33896 26.2348 4.67281 25.6672C5.12351 25.0162 5.52414 24.0481 5.85798 22.7794C6.19183 21.5108 6.49229 19.8916 6.74268 17.9219C7.00141 15.9522 7.21006 13.5986 7.36029 10.8694C7.51053 8.14015 7.61903 4.95189 7.67745 1.31293H26.5065V32.653H20.2636V6.77971H13.4614V6.77137Z" fill="black"/>
<path fill-rule="evenodd" clip-rule="evenodd" d="M45.2194 19.2662H45.0775L43.1162 22.5296L35.0036 32.6536H31.2645V10.269H37.1904V20.9188L36.9233 23.9651H37.0985L38.9681 20.7852L47.1808 10.269H50.9116V32.6536H44.9857V22.4461L45.2194 19.2662Z" fill="black"/>
<path fill-rule="evenodd" clip-rule="evenodd" d="M67.0029 15.4186V32.6536H60.8934V15.4186H54.375V10.269H73.3376V15.4186H67.0029Z" fill="black"/>
<path fill-rule="evenodd" clip-rule="evenodd" d="M86.5331 6.14591C85.9238 6.14591 85.3479 6.17095 84.8054 6.21268C84.2545 6.25441 83.8205 6.31284 83.4867 6.37126V16.537C83.6035 16.5704 83.7872 16.5954 84.0376 16.6288C84.2796 16.6622 84.5383 16.6789 84.8138 16.6955C85.0892 16.7122 85.3563 16.7206 85.615 16.7206H86.1826C87.0005 16.7206 87.8184 16.6455 88.6196 16.4952C89.4292 16.345 90.147 16.0696 90.7897 15.669C91.4323 15.2683 91.9331 14.7091 92.317 13.9914C92.6926 13.2736 92.8846 12.3388 92.8846 11.1703C92.8846 10.1855 92.701 9.36756 92.3337 8.73324C91.9665 8.09058 91.4908 7.57312 90.8982 7.18919C90.3056 6.79692 89.6296 6.52984 88.87 6.37961C88.0938 6.22103 87.3176 6.14591 86.5331 6.14591ZM81.4502 1.0714C82.9859 0.937863 84.5133 0.871094 86.0323 0.871094C87.6097 0.871094 89.2039 0.996286 90.798 1.25502C92.3922 1.50541 93.8277 2.01453 95.1047 2.77403C96.3817 3.53354 97.425 4.59351 98.2262 5.95395C99.0274 7.31438 99.4364 9.08379 99.4364 11.2622C99.4364 13.2319 99.0859 14.9011 98.3848 16.2532C97.6837 17.6136 96.7573 18.7237 95.6055 19.5917C94.4537 20.4597 93.135 21.0857 91.666 21.4696C90.1887 21.8619 88.6614 22.0538 87.0839 22.0538H86.3495C86.0156 22.0538 85.6651 22.0455 85.2978 22.0288C84.9306 22.0121 84.58 21.9954 84.2295 21.962C83.879 21.9286 83.6286 21.9036 83.4783 21.8702V32.6619H77.2354V1.62225C78.504 1.38856 79.9145 1.20494 81.4502 1.0714Z" fill="white"/>
<path fill-rule="evenodd" clip-rule="evenodd" d="M111.321 14.2C109.468 14.2501 108.6 14.7092 107.833 15.6022C107.065 16.4869 106.622 17.7055 106.472 19.2245L114.985 19.2996C115.102 17.6888 114.96 16.4452 114.343 15.5772C113.717 14.7259 112.648 14.1667 111.321 14.2ZM116.045 32.5367C114.485 33.0292 112.815 33.2795 111.054 33.2795C107.374 33.2795 104.686 32.2279 102.983 30.1247C101.281 28.0214 100.429 25.1336 100.429 21.4613C100.429 17.5219 101.389 14.5673 103.301 12.5976C105.212 10.6279 107.908 9.64301 111.371 9.64301C112.523 9.64301 113.65 9.79324 114.743 10.0937C115.837 10.3942 116.813 10.8866 117.665 11.571C118.516 12.2554 119.2 13.1818 119.718 14.3503C120.235 15.5104 120.494 16.9627 120.494 18.6903C120.494 19.3163 120.452 19.984 120.377 20.7018C120.302 21.4195 120.185 22.1624 120.035 22.9386H106.297C106.389 24.8165 106.99 26.2353 107.883 27.1868C108.776 28.1466 110.22 28.6223 112.223 28.6223C113.466 28.6223 114.56 28.3887 115.561 28.0631C116.813 27.6625 117.99 27.12 117.99 27.12L119.768 30.7339C118.85 31.4434 117.614 32.0443 116.045 32.5367Z" fill="white"/>
<path fill-rule="evenodd" clip-rule="evenodd" d="M139.757 14.5923C139.757 14.5923 137.946 14.2334 136.51 14.2334C132.445 14.2334 129.8 16.5203 129.8 21.5697C129.8 26.3021 131.811 28.6474 136.059 28.6474C137.445 28.6474 140.116 28.2801 140.116 28.2801L140.933 32.328C139.815 32.6786 137.628 33.2044 134.991 33.2044C126.72 33.2044 123.682 27.2786 123.682 21.2609C123.682 15.2016 127.254 9.75983 135.483 9.75983C137.002 9.75983 138.88 9.9351 140.625 10.3774L139.757 14.5923Z" fill="white"/>
<path fill-rule="evenodd" clip-rule="evenodd" d="M149.121 16.6455C147.26 16.6455 145.758 15.1682 145.758 13.3404C145.758 11.5126 147.26 10.0353 149.121 10.0353C150.974 10.0353 152.485 11.5126 152.485 13.3404C152.485 15.1682 150.974 16.6455 149.121 16.6455Z" fill="white"/>
<path fill-rule="evenodd" clip-rule="evenodd" d="M152.485 29.6821C152.485 31.51 150.974 32.9872 149.121 32.9872C147.26 32.9872 145.758 31.51 145.758 29.6821C145.758 27.8543 147.26 26.377 149.121 26.377C150.974 26.377 152.485 27.8543 152.485 29.6821Z" fill="white"/>
</svg>
