<svg width="129" height="112" viewBox="0 0 129 112" fill="none" xmlns="http://www.w3.org/2000/svg">
<path d="M64.2656 111.89C63.8306 111.89 63.4081 111.704 63.1098 111.393L62.8737 111.144C62.2647 110.498 61.5811 109.827 60.8603 109.156C60.3383 108.671 59.7791 108.162 59.1825 107.64L58.934 107.428C58.9091 107.403 58.8842 107.379 58.8594 107.354L58.76 107.267C53.2419 102.544 46.655 98.5671 40.9381 95.3109C38.701 94.0308 36.3397 92.7507 34.0405 91.5079L31.9899 90.3894C15.125 81.1802 0 71.6106 0 55.9388C0 40.3043 15.1374 30.6849 31.9899 21.4136L34.2145 20.1956C35.5692 19.4499 36.899 18.7167 38.1915 17.9959C46.2076 13.5217 54.5593 8.64994 60.8603 2.73418C61.5811 2.05063 62.2523 1.37952 62.8612 0.745685L63.1098 0.497123C63.4081 0.173993 63.8306 0 64.2656 0C64.7006 0 65.1231 0.173993 65.4214 0.497123L65.6575 0.745685C66.279 1.40437 66.9501 2.07549 67.6709 2.74661C68.1805 3.2313 68.7273 3.72842 69.3487 4.26283L69.5973 4.47411C69.6221 4.49896 69.6594 4.52382 69.6842 4.54868L69.7837 4.62325C75.3017 9.34591 81.8886 13.3105 87.6055 16.5791C89.7929 17.8219 92.0548 19.0522 94.441 20.3572C110.424 29.0568 128.544 38.9123 128.544 55.9512C128.544 72.928 110.535 82.8083 94.6523 91.5204L94.4907 91.6074C93.0863 92.3779 91.6944 93.136 90.3521 93.8941C82.3485 98.3682 73.9968 103.228 67.6833 109.156C66.9874 109.802 66.3162 110.473 65.67 111.144L65.4338 111.393C65.1231 111.704 64.7006 111.89 64.2656 111.89ZM61.1213 105.092L61.2829 105.229C61.9043 105.775 62.5008 106.31 63.0601 106.832C63.4702 107.229 63.8803 107.615 64.2656 108C64.6633 107.602 65.0734 107.205 65.4836 106.819C72.058 100.655 80.5961 95.6713 88.7862 91.1102C90.1409 90.3521 91.5328 89.594 92.9496 88.811L93.1112 88.724C108.224 80.4345 125.35 71.0389 125.35 55.9512C125.35 40.8138 108.112 31.4306 92.9123 23.1659C90.5013 21.861 88.2394 20.6182 86.0147 19.3629C80.1611 16.0322 73.4251 11.9558 67.6958 7.05915L67.5093 6.89758C67.4721 6.87273 67.4472 6.83544 67.4099 6.81059L67.2608 6.67388C66.6021 6.10219 66.0304 5.58021 65.496 5.07066C65.0859 4.68539 64.6757 4.28769 64.2905 3.90242C63.9052 4.28769 63.4951 4.68539 63.0725 5.08308C56.4981 11.2474 47.96 16.2311 39.7699 20.8046C38.4649 21.5379 37.1227 22.2711 35.768 23.0168L33.5434 24.2348C17.536 33.009 3.18159 42.0566 3.18159 55.9388C3.18159 69.8582 17.536 78.8437 33.5185 87.5807L35.5692 88.6992C37.8684 89.9544 40.2546 91.2469 42.5165 92.5395C48.3577 95.8702 55.1061 99.9466 60.8355 104.843L61.0219 105.005C61.0592 105.03 61.0964 105.055 61.1213 105.092Z" fill="url(#paint0_linear)"/>
<path d="M93.6583 21.7492C91.2472 20.4442 88.9853 19.2014 86.798 17.9586C81.0189 14.6652 74.345 10.6385 68.7275 5.82879L68.5411 5.66723L68.2926 5.45595C67.6587 4.90912 67.0995 4.39957 66.565 3.90244C65.8318 3.2189 65.1358 2.52293 64.4896 1.83938L64.2534 1.59082L64.0173 1.83938C63.3835 2.5105 62.6751 3.20647 61.9418 3.90244C55.5041 9.94249 47.053 14.864 38.9623 19.3878C37.5703 20.1708 36.1287 20.9538 34.6746 21.7492L32.7483 22.8055C16.3308 31.8532 1.59106 41.1867 1.59106 55.9388C1.59106 70.7282 16.3308 80.012 32.7607 88.9726L34.8113 90.0912C37.2348 91.4085 39.534 92.6513 41.7338 93.919C47.5128 97.2124 54.1867 101.239 59.8042 106.049L59.9906 106.21L60.2392 106.422C60.8481 106.944 61.4198 107.466 61.9667 107.975C62.6999 108.659 63.3959 109.355 64.0422 110.038L64.2783 110.287L64.5144 110.038C65.1731 109.342 65.8691 108.646 66.5899 107.975C73.0401 101.935 81.4787 97.0136 89.5694 92.4898C90.9738 91.7068 92.4155 90.9114 93.882 90.1036C109.38 81.6028 126.953 71.971 126.953 55.9264C126.941 39.8569 109.256 30.2375 93.6583 21.7492Z" fill="#231F20" stroke="#231F20" stroke-width="1.02689" stroke-miterlimit="22.9256"/>
<path d="M93.6583 21.7492C91.2472 20.4442 88.9853 19.2014 86.798 17.9586C81.0189 14.6652 74.345 10.6385 68.7275 5.82879L68.5411 5.66723L68.2926 5.45595C67.6587 4.90912 67.0995 4.39957 66.565 3.90244C65.8318 3.2189 65.1358 2.52293 64.4896 1.83938L64.2534 1.59082L64.0173 1.83938C63.3835 2.5105 62.6751 3.20647 61.9418 3.90244C55.5041 9.94249 47.053 14.864 38.9623 19.3878C37.5703 20.1708 36.1287 20.9538 34.6746 21.7492L32.7483 22.8055C16.3308 31.8532 1.59106 41.1867 1.59106 55.9388C1.59106 70.7282 16.3308 80.012 32.7607 88.9726L34.8113 90.0912C37.2348 91.4085 39.534 92.6513 41.7338 93.919C47.5128 97.2124 54.1867 101.239 59.8042 106.049L59.9906 106.21L60.2392 106.422C60.8481 106.944 61.4198 107.466 61.9667 107.975C62.6999 108.659 63.3959 109.355 64.0422 110.038L64.2783 110.287L64.5144 110.038C65.1731 109.342 65.8691 108.646 66.5899 107.975C73.0401 101.935 81.4787 97.0136 89.5694 92.4898C90.9738 91.7068 92.4155 90.9114 93.882 90.1036C109.38 81.6028 126.953 71.971 126.953 55.9264C126.941 39.8569 109.256 30.2375 93.6583 21.7492ZM60.7736 106.447C56.0758 99.8596 46.8168 93.9066 42.989 91.769L42.4297 91.4583C40.6401 90.4516 38.8504 89.4573 37.0484 88.4631C35.7186 87.7298 34.3888 86.9966 33.0714 86.2633C29.8774 84.4737 26.1117 82.336 22.4578 80.012C10.0049 72.0704 4.44952 64.6509 4.44952 55.9388C4.44952 48.7678 8.48865 42.1436 16.7906 35.6935C21.3766 32.1266 27.5906 29.0196 33.059 26.447C34.9605 25.5522 36.8992 24.6573 38.8504 23.7625C47.14 19.9719 55.2555 15.4854 61.7554 10.365C63.2716 9.17195 64.6511 7.954 65.8442 6.74847C66.3786 6.21407 66.8758 5.66723 67.3605 5.10797L67.4723 5.26953C72.2074 11.8316 81.7149 17.971 85.5427 20.1087L86.102 20.4194C87.9165 21.4385 89.731 22.4451 91.5579 23.4518C96.4049 26.1238 101.413 28.8953 106.074 31.8656C118.527 39.7947 124.082 47.2143 124.082 55.9264C124.082 63.0974 120.043 69.7215 111.754 76.1593C106.024 80.6085 98.0951 84.2375 89.6937 88.0902C81.4042 91.9057 73.0525 96.2928 66.5278 101.388C65.0115 102.569 63.632 103.787 62.4265 104.98C61.8672 105.539 61.3701 106.074 60.8979 106.608L60.7736 106.447Z" fill="url(#paint1_linear)"/>
<path d="M25.6893 27.379C28.0382 26.0119 30.4617 24.6573 32.9225 23.315L34.8613 22.2586C36.3278 21.4632 37.7695 20.6803 39.1614 19.9097C47.277 15.4232 55.7405 10.5265 62.2031 4.52378C62.9488 3.84023 63.6448 3.14426 64.2911 2.47314L65.3102 3.50467C64.6515 4.15093 63.6945 5.07061 62.9364 5.7293C56.2749 11.5208 47.6622 16.1316 39.3975 20.3571C37.9807 21.078 36.5142 21.8112 35.0228 22.5569L33.0592 23.5512C30.5363 24.8188 28.0755 26.0989 25.6893 27.379Z" fill="white"/>
<path d="M112.35 76.6066C106.62 81.0559 98.6912 84.6849 90.2899 88.5376C82.0128 92.3281 73.6611 96.7153 67.1363 101.811C65.6201 102.991 64.2406 104.209 63.0351 105.402C62.4758 105.962 62.1527 106.322 61.6804 106.857L62.7865 107.801C63.1469 107.379 63.3582 107.13 63.7808 106.67C64.9614 105.44 66.3037 104.197 67.795 102.967C74.1955 97.7095 82.4229 93.1111 90.6006 89.0969C98.9025 85.0453 106.757 81.2174 112.35 76.6066Z" fill="white"/>
<path d="M53.4912 92.466C53.4912 92.8139 53.2053 93.0998 52.8574 93.0998C52.5094 93.0998 52.2235 92.8139 52.2235 92.466V85.2328C52.2235 84.8848 52.5094 84.599 52.8574 84.599C53.2053 84.599 53.4912 84.8848 53.4912 85.2328V87.2213H53.9138C54.1996 87.2213 54.5103 86.8858 54.5973 86.4632L54.9204 85.0961C54.9826 84.8351 55.2436 84.599 55.517 84.599C55.865 84.599 56.1509 84.8724 56.1509 85.208C56.1509 85.2577 56.126 85.4068 56.1011 85.556L55.9644 86.1774C55.865 86.6745 55.6413 87.2089 55.3057 87.5445C55.7034 87.8179 55.9769 88.3771 56.0887 89.3092L56.4118 92.1304C56.4367 92.2795 56.4616 92.4287 56.4616 92.4784C56.4616 92.8139 56.1757 93.0874 55.8277 93.0874C55.5543 93.0874 55.2684 92.8637 55.2312 92.5902L54.821 89.185C54.7589 88.7003 54.473 88.3026 54.1872 88.3026H53.4912V92.466Z" fill="white"/>
<path d="M60.4995 92.9619H58.9584C58.6104 92.9619 58.3246 92.6761 58.3246 92.3281V85.3808C58.3246 85.0328 58.6104 84.7469 58.9584 84.7469H60.6735C61.7174 84.7469 62.3637 85.5921 62.3637 86.3999C62.3637 86.9467 61.966 87.4935 61.5434 87.7794C62.2021 88.3511 62.8111 89.2335 62.8111 90.3023C62.8111 91.8061 61.792 92.9619 60.4995 92.9619ZM59.5922 87.2201H60.2634C60.748 87.2201 61.0836 86.81 61.0836 86.3999C61.0836 86.0395 60.8972 85.853 60.4746 85.853H59.5798V87.2201H59.5922ZM59.5922 91.8558H60.1391C60.8102 91.8558 61.4937 91.2965 61.4937 90.3271C61.4937 89.2211 60.9469 88.8606 60.1888 88.3262H59.5922V91.8558Z" fill="white"/>
<path d="M65.6938 91.1226L65.408 92.6016C65.3583 92.8626 65.0849 93.0987 64.8114 93.0987C64.4635 93.0987 64.1776 92.8253 64.1776 92.4897C64.1776 92.44 64.2149 92.2909 64.2273 92.1417L65.4204 85.2069C65.4826 84.8713 65.7684 84.5979 66.0543 84.5979H67.0734C67.4462 84.5979 67.6575 84.9086 67.7072 85.2069L68.9127 92.1417C68.9376 92.2909 68.9625 92.44 68.9625 92.4897C68.9625 92.8253 68.6766 93.0987 68.3286 93.0987C68.0552 93.0987 67.7818 92.875 67.7321 92.6016L67.4462 91.1226H65.6938ZM66.5265 85.5797L65.8554 90.029H67.2971L66.6384 85.5797H66.5265Z" fill="white"/>
<path d="M73.2387 91.8559C73.5867 91.8559 73.8601 92.1293 73.8601 92.4773C73.8601 92.8253 73.5867 93.0987 73.2387 93.0987C71.0513 93.0987 70.1689 89.4448 70.1689 87.6055C70.1689 86.2881 70.6661 84.5979 72.6048 84.5979C72.9653 84.5979 73.5121 84.6849 73.8352 84.7843C74.0838 84.8713 74.2826 85.1323 74.2826 85.3809C74.2826 85.7289 74.0216 86.0023 73.6737 86.0023C73.5991 86.0023 73.4997 85.9898 73.4375 85.965C73.189 85.8656 72.8285 85.7661 72.6048 85.7661C71.5982 85.7661 71.4739 86.6485 71.4739 87.6055C71.4739 89.5318 72.2693 91.8559 73.2387 91.8559Z" fill="white"/>
<path fill-rule="evenodd" clip-rule="evenodd" d="M74.0829 31.9775V31.3188C74.1326 31.2567 74.1326 31.1945 74.0829 31.1572V30.4364C74.5303 30.4488 74.9777 30.3991 75.4127 30.2624C76.4442 29.9517 76.6679 29.1439 76.0714 29.3427C75.4624 29.5789 74.7664 29.7653 74.0829 29.8523V28.7959C74.9529 28.8829 75.8601 28.7089 76.6431 28.2366C77.5379 27.6898 77.5379 26.8571 77.0035 27.1927C76.1832 27.8017 75.0896 28.3236 74.0829 28.5101V27.143C75.2263 27.1803 76.3821 26.795 77.2023 25.9499C77.9232 25.2042 77.6746 24.4088 77.2645 24.8562C76.4691 25.8505 75.2139 26.795 74.0829 27.0684V25.6267C74.7664 25.3658 75.4127 25.0426 76.0217 24.6325C77.1402 23.688 77.5503 22.8801 76.8171 22.4576C76.8419 22.4949 76.8668 22.5446 76.8916 22.5943C77.0159 22.9547 76.8046 23.3276 76.4194 23.4518C76.0714 23.5637 75.6985 23.4145 75.537 23.1163C75.537 23.1163 75.537 23.1038 75.5246 23.1038C75.0771 22.2587 75.8104 21.7119 76.5561 21.7492C77.6249 21.8238 78.209 23.4021 77.5876 24.2969C78.5197 23.8247 78.4327 25.7386 77.6 26.621C78.7807 26.4221 78.0723 28.7089 76.9662 29.293C77.5006 29.5043 76.6679 30.7968 74.9404 31.1075C74.9777 31.4804 74.6422 31.8035 74.0829 31.9775ZM74.0829 21.6498V21.4882C74.1823 21.5379 74.2817 21.5876 74.3812 21.6373C74.2942 21.6498 74.1948 21.6498 74.0829 21.6498ZM74.0829 21.4882V21.6498C73.4988 21.687 72.6661 21.7616 71.9329 22.0847V21.5255C71.9453 21.5255 71.9577 21.5255 71.9577 21.5255C72.0944 21.5131 72.2063 21.3888 72.1814 21.2645C72.169 21.1402 72.0571 21.0532 71.9204 21.0532V20.8668C72.082 20.8792 72.2436 20.8916 72.4051 20.9289C71.9329 20.4442 72.3927 19.6488 73.1011 19.7607C73.5236 19.8353 73.8716 20.146 73.6852 20.6058C73.6231 20.7674 73.4242 20.8544 73.2378 20.7922C73.0514 20.7301 72.9768 20.494 73.0265 20.3821C73.0762 20.2578 73.1135 20.2454 73.1757 20.2205C73.0265 20.0341 72.6785 19.9844 72.4548 20.233C72.3057 20.407 72.2684 20.7425 72.517 20.9662C73.0887 21.0656 73.6106 21.2645 74.0829 21.4882ZM74.0829 25.6267V27.0684C73.9835 27.0933 73.8841 27.1181 73.7971 27.1305C73.8965 27.143 73.9959 27.143 74.0829 27.143V28.5101C73.7101 28.5846 73.3496 28.6095 73.0265 28.5722C73.3621 28.6841 73.7225 28.7586 74.0829 28.7959V29.8523C73.2999 29.9517 72.5418 29.9269 71.9329 29.728V26.1736C72.691 26.0742 73.3994 25.8877 74.0829 25.6267ZM74.0829 30.4364C73.3124 30.4116 72.5667 30.163 71.9329 29.7653V30.7223C72.5418 30.9584 73.2627 31.0827 73.9213 31.0951C73.9959 31.1075 74.058 31.12 74.0829 31.1448V30.4364ZM74.0829 31.3188V31.9775C73.5361 32.1515 72.778 32.2012 71.9329 32.0645V31.1324C72.2933 31.3437 72.7034 31.4928 73.1632 31.5425C73.6355 31.5922 73.9711 31.4555 74.0829 31.3188ZM71.9329 19.9968C72.3554 19.9471 72.6413 19.5991 72.5915 19.2139C72.5294 18.7416 72.2808 18.4309 71.9329 18.2445V19.9968ZM71.9329 18.2445V19.9968H71.9204C71.4979 20.0465 71.1002 19.6613 71.0629 19.3754C71.0256 19.102 71.0878 19.0399 71.1747 18.9156C70.6776 18.6795 69.9444 18.9156 69.7828 19.6116C69.671 20.0838 69.9692 20.7922 70.6901 20.9786C71.1002 20.8544 71.5103 20.8295 71.9329 20.8544V21.0408C71.9204 21.0408 71.908 21.0408 71.8956 21.0408C71.7589 21.0532 71.647 21.1775 71.6719 21.3018C71.6843 21.4261 71.7961 21.5131 71.9329 21.5131V22.0723C71.1623 22.4079 70.4912 23.0044 70.3421 24.0981C70.2426 24.8065 70.2675 25.5398 69.9941 26.3103C69.4348 27.8762 68.2666 27.6152 66.9865 27.5655V24.2845C67.0984 24.2224 67.2226 24.1602 67.3593 24.0857C68.5649 23.5264 68.6394 22.905 69.062 22.296C68.1423 22.5197 67.1854 21.6249 67.6576 20.7674C67.9435 20.2454 68.6643 19.9223 69.2981 20.3572C69.5342 20.5188 69.5715 20.8295 69.3975 21.0408C69.2235 21.2521 68.888 21.2893 68.6519 21.1278C68.5524 21.0532 68.4779 20.9538 68.453 20.8544C68.0802 20.9662 67.8565 21.4136 68.1547 21.8238C68.3163 22.0599 68.7513 22.2339 69.1365 22.1469C69.6834 21.4758 70.0065 21.2396 70.4415 21.0532C68.9626 20.5561 68.9004 18.5552 70.4415 18.1202C70.951 17.9835 71.5103 18.0083 71.9329 18.2445ZM71.9329 26.186C71.4109 26.273 70.8765 26.3103 70.3296 26.3351C70.3172 26.3351 70.3048 26.3351 70.2924 26.3351H70.2799V26.3476C69.9319 28.0378 68.8134 28.2864 67.3096 27.9135C67.1854 27.8887 67.0735 27.8638 66.9741 27.8389V28.8083C67.0238 28.8705 67.0735 28.9326 67.1232 28.9948C68.5151 30.9335 70.3669 31.8159 71.9204 32.0769V31.1448C71.4854 30.8963 71.1375 30.5358 70.8889 30.1381C71.1499 30.3867 71.5103 30.5856 71.9204 30.7471V29.7902C71.8831 29.7653 71.8583 29.7529 71.821 29.728C71.8583 29.7404 71.8831 29.7529 71.9204 29.7653V26.186H71.9329ZM66.9865 16.517V15.2244C67.0238 15.212 67.0735 15.1996 67.1232 15.1996C67.1854 15.1872 67.2351 15.1872 67.2972 15.1996C67.2102 15.1002 67.0984 15.0256 66.9865 14.9759V14.5533C67.4588 14.5782 67.8813 14.7522 68.105 15.1126C68.4654 15.7091 68.2293 16.5667 67.2102 16.5543C67.1978 16.5543 67.1978 16.5543 67.1854 16.5543C67.1108 16.5418 67.0486 16.5294 66.9865 16.517ZM66.9865 14.5409V14.9635C66.39 14.7149 65.5946 15.3487 65.1472 16.604C64.0908 19.3879 64.8737 21.9605 66.4272 24.4461L65.9923 24.7319C65.5573 25.2166 65.5449 25.6392 65.6194 26.1363C65.8431 27.7271 65.346 27.9135 63.8795 27.7768V27.5655C64.1902 27.2424 64.4885 27.0808 64.8862 26.8944C64.5382 26.9317 64.2026 26.9317 63.8795 26.8944V26.1487C63.9292 26.0617 63.9541 25.9747 63.9541 25.8753L63.8795 25.8629V17.4491C64.0783 16.9768 64.3393 16.517 64.6252 16.1193C64.8737 15.7091 64.3642 15.6719 63.8795 16.1068V15.212C64.5258 14.8143 65.1969 14.7273 65.1472 15.3114C65.5076 14.7895 66.2905 14.5036 66.9865 14.5409ZM66.9865 15.212C66.6509 15.3114 66.4272 15.6097 66.477 15.9453C66.5142 16.2187 66.7255 16.4424 66.9865 16.517V15.212ZM66.9865 24.2845C65.3957 25.229 66.477 26.3849 65.7188 27.6525C66.1414 27.5531 66.5764 27.5531 66.9865 27.5655V24.2845ZM66.9865 27.8389C65.9301 27.6277 65.3709 27.8017 65.2342 28.4355C65.5946 28.0005 66.2532 27.9508 66.9865 28.8083V27.8389ZM63.8671 28.4852V28.0129C64.1405 28.0254 64.4015 28.0378 64.7122 28.0129C64.4263 28.1248 64.1529 28.2864 63.8671 28.4852ZM63.8671 15.2244V16.1193C63.7428 16.2311 63.6185 16.3803 63.5067 16.5667C62.8728 17.6479 62.9474 18.8907 63.4818 19.9098C63.3327 19.2014 63.5067 18.3066 63.8671 17.4491V25.8629C63.1835 25.8007 62.5746 25.6889 62.0401 25.5149V20.1584C62.2017 20.407 62.3881 20.6431 62.5994 20.8544C62.0153 19.8601 62.0526 18.2196 62.4627 16.9395C62.5373 16.604 62.3011 16.5667 62.0401 16.778V16.0074C62.4006 15.8707 62.7113 15.9204 62.8107 16.2933C63.0344 15.8831 63.4445 15.4854 63.8671 15.2244ZM63.8671 26.1487V26.8944C63.6309 26.8696 63.4072 26.8074 63.196 26.7204C63.4818 26.5837 63.7552 26.3849 63.8671 26.1487ZM63.8671 27.5655V27.7768L63.6931 27.7644C63.7552 27.6898 63.8174 27.6277 63.8671 27.5655ZM63.8671 28.0129C63.6309 28.0005 63.37 28.0005 63.0717 28.0254C63.4694 27.7768 63.4569 27.4164 63.8546 27.1803C63.3078 27.1927 63.0717 26.8696 62.6864 26.8323C63.0344 26.6583 62.8728 26.5091 63.1587 26.3724C62.848 26.3849 62.4627 26.3724 62.0401 26.3476V30.511C62.5497 29.6783 63.196 28.9699 63.8671 28.4852V28.0129ZM62.0401 16.0074V16.778C61.8786 16.9022 61.7295 17.1135 61.6176 17.4118V16.2435C61.7667 16.1441 61.9034 16.0696 62.0401 16.0074ZM62.0401 20.1584V25.5149C61.891 25.4776 61.7543 25.4279 61.6176 25.3782V24.2721C61.6673 24.2845 61.717 24.2969 61.7667 24.3094C61.717 24.2845 61.6673 24.2597 61.6176 24.2224V22.4079C61.6673 22.4327 61.7046 22.4576 61.7543 22.4949C61.7046 22.4576 61.6549 22.4079 61.6176 22.3582V19.2636C61.717 19.5743 61.8662 19.8725 62.0401 20.1584ZM62.0401 26.3476V30.511C61.891 30.7595 61.7419 31.0205 61.6176 31.294V29.554C61.6922 29.4422 61.7916 29.3303 61.9034 29.2433C61.804 29.2806 61.717 29.3303 61.6176 29.3552V26.3227C61.7667 26.3351 61.9034 26.3351 62.0401 26.3476ZM61.63 16.2435V17.4118C61.6052 17.4864 61.5803 17.5609 61.5679 17.6479C61.4436 18.1948 61.4809 18.7416 61.63 19.2511V22.3457C60.8595 21.5131 60.4494 20.0341 60.4494 18.7664C60.4245 18.3315 60.0144 18.5055 59.8528 19.0274V17.9711C60.0268 17.8219 60.2381 17.8095 60.4494 17.9711C60.4991 17.3621 61.0583 16.6412 61.63 16.2435ZM61.63 22.4079C60.7476 21.8859 60.0641 21.0656 59.8528 20.059V22.0972C60.2878 22.9796 60.9216 23.7874 61.63 24.2224V22.4079ZM61.63 24.2721V25.3782C60.9092 25.1048 60.3251 24.7444 59.8528 24.3218V23.253C60.3375 23.7253 60.9589 24.0732 61.63 24.2721ZM61.63 26.3227V29.3552C60.9713 29.6037 60.3499 29.6286 59.8528 29.5913V28.8829C60.3499 28.5971 60.9589 28.3858 61.5927 28.1994C60.9838 28.1994 60.3997 28.1621 59.8528 28.0751V27.0808C60.1138 27.0063 60.3872 26.9441 60.6855 26.8944C60.3375 26.8571 60.0765 26.8198 59.8528 26.7577V26.1487C60.3997 26.2109 61.0335 26.273 61.63 26.3227ZM61.63 29.5416C61.3318 29.989 61.3193 30.6353 61.4933 31.5798C61.5306 31.4804 61.5803 31.3809 61.63 31.2815V29.5416ZM59.8404 31.5052V31.3561C60.3997 31.0827 60.8719 30.6353 61.2075 29.902C60.8346 30.6974 60.3624 31.1821 59.8404 31.5052ZM59.8404 31.1075C60.4494 30.859 60.9713 30.4116 61.3193 29.5913C60.8346 29.8026 60.3499 29.9517 59.8404 30.0139V31.1075ZM59.8404 28.6468C60.089 28.5225 60.3624 28.4106 60.6358 28.3361C60.3872 28.3734 60.1138 28.3858 59.8404 28.3982V28.6468ZM59.8404 17.9711V19.0274C59.7782 19.2014 59.7534 19.4251 59.7783 19.6861C59.7907 19.8228 59.8155 19.9347 59.8404 20.0714V22.1096C59.6664 21.7616 59.5297 21.4012 59.4178 21.0532C59.2066 20.494 58.6722 21.1651 59.045 22.0972C59.2314 22.5446 59.4924 22.9423 59.828 23.2654V24.3467C59.0947 23.6755 58.6473 22.8553 58.3987 21.9729C58.2496 21.0905 58.61 19.9347 59.2687 20.1957C59.1693 19.276 59.4427 18.2942 59.8404 17.9711ZM59.8404 26.1363V26.7453C59.2936 26.6086 59.0699 26.3849 58.8461 25.9747C59.132 26.0369 59.48 26.0866 59.8404 26.1363ZM59.8404 27.0684V28.0627C59.3557 27.9757 58.9083 27.8514 58.4733 27.6774C58.8959 27.4288 59.3433 27.23 59.8404 27.0684ZM59.8404 28.3982V28.6468C59.2687 28.945 58.7716 29.3925 58.523 29.989C58.9953 30.0511 59.4303 30.0636 59.8404 30.0014V31.0951C59.6043 31.1945 59.3433 31.2691 59.0823 31.3188C58.6846 31.3934 58.2745 31.4307 57.8643 31.4182V31.1324C57.8892 31.1324 57.914 31.12 57.9513 31.1075C58.088 31.0454 58.1502 30.8714 58.1129 30.7347C58.0756 30.6228 57.9886 30.5483 57.8768 30.5607V28.0999C58.4733 28.3112 59.1817 28.4106 59.8404 28.3982ZM59.8404 28.8829C59.5421 29.0445 59.2936 29.2433 59.1071 29.4795C59.306 29.5167 59.5545 29.5665 59.8404 29.5913V28.8829ZM59.8404 31.3561C59.2314 31.6544 58.5354 31.7538 57.8643 31.7911V32.1639C58.4236 32.0893 58.958 31.9651 59.4427 31.7289C59.5794 31.6668 59.7161 31.5922 59.8404 31.5052V31.3561ZM57.8643 27.8887C58.3242 27.3667 59.0823 27.056 59.7907 26.969C59.0947 26.8198 58.5354 26.6831 57.8643 26.4594V27.8887ZM57.8643 26.3724V26.36L57.9265 26.3973L57.8643 26.3724ZM57.8643 26.3476V26.36C57.5412 26.2357 57.2678 26.1487 57.0192 26.0866V25.838C57.2802 25.9747 57.5536 26.1487 57.8643 26.3476ZM57.8643 26.447H57.8519C57.5661 26.3227 57.2802 26.2606 57.0192 26.2233V28.9699C57.0565 29.0072 57.0814 29.0569 57.0938 29.1066C57.1559 29.2682 57.1187 29.4422 57.0192 29.5665V30.25C57.2554 30.2873 57.4791 30.2873 57.7152 30.25C57.3921 30.4364 57.2802 30.5856 57.1062 30.7223C57.0814 30.7471 57.0565 30.772 57.0192 30.7968V31.3685C57.2926 31.3934 57.5785 31.4182 57.8643 31.4182V31.1324C57.7525 31.1448 57.6655 31.0702 57.6282 30.9584C57.5785 30.8217 57.6531 30.6477 57.7898 30.5856C57.8146 30.5731 57.8395 30.5731 57.8643 30.5607V28.0999C57.8146 28.0875 57.7773 28.0627 57.7276 28.0502C57.7649 27.9881 57.8146 27.9259 57.8643 27.8762V26.447ZM57.8643 31.8035V32.1763C57.6282 32.2012 57.3796 32.2261 57.1311 32.2385H57.0192V31.8159C57.2802 31.8159 57.5661 31.8159 57.8395 31.8035H57.8643ZM57.0192 25.8505V26.099C56.7955 26.0493 56.5967 26.012 56.4103 25.9872C56.3233 25.9747 56.2487 25.9747 56.1617 25.9623V25.5646C56.2611 25.5895 56.3481 25.6143 56.4351 25.6392C56.634 25.6889 56.8204 25.7635 57.0192 25.8505ZM57.0192 26.2233V28.9699C56.8949 28.8332 56.6837 28.7586 56.5097 28.8332C56.2735 28.9326 56.1493 29.2185 56.2611 29.4422C56.3481 29.6783 56.6091 29.7902 56.8452 29.7032C56.9198 29.6659 56.9819 29.6286 57.0317 29.5665V30.25C56.7458 30.2127 56.46 30.1257 56.1741 30.0511V28.4728C56.3481 28.3858 56.5345 28.3112 56.7582 28.2615C56.5594 28.2366 56.373 28.1994 56.1741 28.1621V27.7271C56.2487 27.7271 56.3233 27.7147 56.3978 27.6898C56.6961 27.5904 56.8825 27.2797 56.7707 26.9814C56.6837 26.7453 56.4351 26.6086 56.1741 26.5961V26.2233C56.4351 26.186 56.721 26.186 57.0192 26.2233ZM57.0192 30.8093V31.3809C56.7334 31.3437 56.4475 31.3064 56.1866 31.2442C56.634 31.0702 56.8577 30.9335 57.0192 30.8093ZM57.0192 31.8159V32.2385C56.7707 32.2385 56.4848 32.2385 56.1617 32.2261V31.7662C56.4227 31.7911 56.7085 31.8159 57.0192 31.8159ZM51.9983 29.1936C51.2278 29.7777 50.5815 30.337 49.898 30.7471C49.6246 30.9087 49.3511 31.033 49.0902 31.12V29.1688C50.0471 29.3552 51.0041 29.4173 51.9983 29.1936ZM56.1617 25.5522C54.1732 25.1048 51.7622 25.9623 50.072 26.8447C49.724 27.0187 49.4009 27.1803 49.0902 27.3294V28.7213C49.5127 28.8083 49.9228 28.8705 50.333 28.9202C51.6255 29.0569 52.8807 28.9948 53.9992 28.6965C52.657 29.032 52.0232 29.641 51.2651 30.2873C50.7182 30.7347 50.1217 31.207 49.0902 31.5798V32.6983C50.1217 32.9345 51.0414 32.661 51.8616 32.3131C53.0547 31.7911 54.1111 31.1324 54.5585 31.3188C54.0365 31.4928 53.614 31.7165 53.3157 31.9526C53.0174 32.2012 52.831 32.4746 52.744 32.748C53.4524 32.1515 54.981 32.2136 56.1741 32.2385V31.7786C55.59 31.7289 55.1799 31.6544 55.155 31.6544C55.1675 31.5301 55.2669 31.3934 55.4284 31.3188C55.5776 31.2318 55.7764 31.1945 55.9504 31.2194C54.6082 30.5856 53.6388 30.6974 52.8061 30.9832C51.961 31.2815 51.2775 31.7538 50.2832 31.7538C51.5882 31.2318 52.1226 30.5483 52.7688 29.902C53.4151 29.2557 54.1732 28.6592 55.8261 28.3236C54.8568 28.2739 53.7382 28.5225 52.483 28.5598C51.2029 28.5971 49.9353 28.5225 49.2144 27.9881C49.7861 27.8141 50.2087 27.6028 50.6064 27.3915C51.2775 27.0311 51.9237 26.7328 52.657 26.4843C53.2038 26.2979 53.7879 26.1487 54.3596 26.0617C54.9562 25.9747 55.5776 25.9374 56.1741 25.9872V25.5522H56.1617ZM56.1617 26.2233V26.5961C56.0871 26.5961 56.0126 26.5961 55.938 26.621C55.6149 26.7204 55.4409 27.0311 55.5776 27.3418C55.677 27.5655 55.9131 27.7022 56.1617 27.7147V28.1496C55.7391 28.0502 55.329 27.9011 54.9065 27.7519C54.2726 27.5407 53.5891 27.317 52.8434 27.2673C53.7134 27.23 54.4093 26.7826 55.1923 26.4843C55.503 26.3724 55.8261 26.273 56.1617 26.2233ZM56.1617 28.4728V30.0511L55.9753 30.0014C55.3787 29.8274 54.7449 29.6534 54.0614 29.7404C54.6455 29.5789 55.0183 29.2682 55.4036 28.9699C55.6397 28.7959 55.8883 28.6219 56.1617 28.4728ZM49.0902 31.12C47.4869 31.6792 46.1323 31.0205 44.6036 30.1506C43.7958 29.6907 42.7892 29.4297 42.6524 30.2624C43.0253 29.815 43.6715 30.0139 43.7585 30.4737C43.8455 30.9957 43.2863 31.3312 42.7394 31.1075C42.3293 30.9335 42.1056 30.4116 42.2423 29.8772C42.6027 28.4355 44.6036 28.1745 46.4181 28.5722C47.3005 28.7711 48.1829 29.0196 49.0777 29.1812V31.12H49.0902ZM49.0902 27.3294C48.0462 27.8017 47.1638 28.0254 46.182 27.7519C47.1514 28.2118 48.1332 28.5349 49.0902 28.7338V27.3294ZM49.0902 31.5674C48.6676 31.7165 48.1829 31.8532 47.5864 31.9775C48.1083 32.3503 48.6055 32.574 49.0902 32.6859V31.5674Z" fill="url(#paint2_linear)"/>
<path fill-rule="evenodd" clip-rule="evenodd" d="M74.0829 31.9775V31.3188C74.1326 31.2567 74.1326 31.1945 74.0829 31.1572V30.4364C74.5303 30.4488 74.9777 30.3991 75.4127 30.2624C76.4442 29.9517 76.6679 29.1439 76.0714 29.3427C75.4624 29.5789 74.7664 29.7653 74.0829 29.8523V28.7959C74.9529 28.8829 75.8601 28.7089 76.6431 28.2366C77.5379 27.6898 77.5379 26.8571 77.0035 27.1927C76.1832 27.8017 75.0896 28.3236 74.0829 28.5101V27.143C75.2263 27.1803 76.3821 26.795 77.2023 25.9499C77.9232 25.2042 77.6746 24.4088 77.2645 24.8562C76.4691 25.8505 75.2139 26.795 74.0829 27.0684V25.6267C74.7664 25.3658 75.4127 25.0426 76.0217 24.6325C77.1402 23.688 77.5503 22.8801 76.8171 22.4576C76.8419 22.4949 76.8668 22.5446 76.8916 22.5943C77.0159 22.9547 76.8046 23.3276 76.4194 23.4518C76.0714 23.5637 75.6985 23.4145 75.537 23.1163C75.537 23.1163 75.537 23.1038 75.5246 23.1038C75.0771 22.2587 75.8104 21.7119 76.5561 21.7492C77.6249 21.8238 78.209 23.4021 77.5876 24.2969C78.5197 23.8247 78.4327 25.7386 77.6 26.621C78.7807 26.4221 78.0723 28.7089 76.9662 29.293C77.5006 29.5043 76.6679 30.7968 74.9404 31.1075C74.9777 31.4804 74.6422 31.8035 74.0829 31.9775ZM74.0829 21.6498V21.4882C74.1823 21.5379 74.2817 21.5876 74.3812 21.6373C74.2942 21.6498 74.1948 21.6498 74.0829 21.6498ZM74.0829 21.4882V21.6498C73.4988 21.687 72.6661 21.7616 71.9329 22.0847V21.5255C71.9453 21.5255 71.9577 21.5255 71.9577 21.5255C72.0944 21.5131 72.2063 21.3888 72.1814 21.2645C72.169 21.1402 72.0571 21.0532 71.9204 21.0532V20.8668C72.082 20.8792 72.2436 20.8916 72.4051 20.9289C71.9329 20.4442 72.3927 19.6488 73.1011 19.7607C73.5236 19.8353 73.8716 20.146 73.6852 20.6058C73.6231 20.7674 73.4242 20.8544 73.2378 20.7922C73.0514 20.7301 72.9768 20.494 73.0265 20.3821C73.0762 20.2578 73.1135 20.2454 73.1757 20.2205C73.0265 20.0341 72.6785 19.9844 72.4548 20.233C72.3057 20.407 72.2684 20.7425 72.517 20.9662C73.0887 21.0656 73.6106 21.2645 74.0829 21.4882ZM74.0829 25.6267V27.0684C73.9835 27.0933 73.8841 27.1181 73.7971 27.1305C73.8965 27.143 73.9959 27.143 74.0829 27.143V28.5101C73.7101 28.5846 73.3496 28.6095 73.0265 28.5722C73.3621 28.6841 73.7225 28.7586 74.0829 28.7959V29.8523C73.2999 29.9517 72.5418 29.9269 71.9329 29.728V26.1736C72.691 26.0742 73.3994 25.8877 74.0829 25.6267ZM74.0829 30.4364C73.3124 30.4116 72.5667 30.163 71.9329 29.7653V30.7223C72.5418 30.9584 73.2627 31.0827 73.9213 31.0951C73.9959 31.1075 74.058 31.12 74.0829 31.1448V30.4364ZM74.0829 31.3188V31.9775C73.5361 32.1515 72.778 32.2012 71.9329 32.0645V31.1324C72.2933 31.3437 72.7034 31.4928 73.1632 31.5425C73.6355 31.5922 73.9711 31.4555 74.0829 31.3188ZM71.9329 19.9968C72.3554 19.9471 72.6413 19.5991 72.5915 19.2139C72.5294 18.7416 72.2808 18.4309 71.9329 18.2445V19.9968ZM71.9329 18.2445V19.9968H71.9204C71.4979 20.0465 71.1002 19.6613 71.0629 19.3754C71.0256 19.102 71.0878 19.0399 71.1747 18.9156C70.6776 18.6795 69.9444 18.9156 69.7828 19.6116C69.671 20.0838 69.9692 20.7922 70.6901 20.9786C71.1002 20.8544 71.5103 20.8295 71.9329 20.8544V21.0408C71.9204 21.0408 71.908 21.0408 71.8956 21.0408C71.7589 21.0532 71.647 21.1775 71.6719 21.3018C71.6843 21.4261 71.7961 21.5131 71.9329 21.5131V22.0723C71.1623 22.4079 70.4912 23.0044 70.3421 24.0981C70.2426 24.8065 70.2675 25.5398 69.9941 26.3103C69.4348 27.8762 68.2666 27.6152 66.9865 27.5655V24.2845C67.0984 24.2224 67.2226 24.1602 67.3593 24.0857C68.5649 23.5264 68.6394 22.905 69.062 22.296C68.1423 22.5197 67.1854 21.6249 67.6576 20.7674C67.9435 20.2454 68.6643 19.9223 69.2981 20.3572C69.5342 20.5188 69.5715 20.8295 69.3975 21.0408C69.2235 21.2521 68.888 21.2893 68.6519 21.1278C68.5524 21.0532 68.4779 20.9538 68.453 20.8544C68.0802 20.9662 67.8565 21.4136 68.1547 21.8238C68.3163 22.0599 68.7513 22.2339 69.1365 22.1469C69.6834 21.4758 70.0065 21.2396 70.4415 21.0532C68.9626 20.5561 68.9004 18.5552 70.4415 18.1202C70.951 17.9835 71.5103 18.0083 71.9329 18.2445ZM71.9329 26.186C71.4109 26.273 70.8765 26.3103 70.3296 26.3351C70.3172 26.3351 70.3048 26.3351 70.2924 26.3351H70.2799V26.3476C69.9319 28.0378 68.8134 28.2864 67.3096 27.9135C67.1854 27.8887 67.0735 27.8638 66.9741 27.8389V28.8083C67.0238 28.8705 67.0735 28.9326 67.1232 28.9948C68.5151 30.9335 70.3669 31.8159 71.9204 32.0769V31.1448C71.4854 30.8963 71.1375 30.5358 70.8889 30.1381C71.1499 30.3867 71.5103 30.5856 71.9204 30.7471V29.7902C71.8831 29.7653 71.8583 29.7529 71.821 29.728C71.8583 29.7404 71.8831 29.7529 71.9204 29.7653V26.186H71.9329ZM66.9865 16.517V15.2244C67.0238 15.212 67.0735 15.1996 67.1232 15.1996C67.1854 15.1872 67.2351 15.1872 67.2972 15.1996C67.2102 15.1002 67.0984 15.0256 66.9865 14.9759V14.5533C67.4588 14.5782 67.8813 14.7522 68.105 15.1126C68.4654 15.7091 68.2293 16.5667 67.2102 16.5543C67.1978 16.5543 67.1978 16.5543 67.1854 16.5543C67.1108 16.5418 67.0486 16.5294 66.9865 16.517ZM66.9865 14.5409V14.9635C66.39 14.7149 65.5946 15.3487 65.1472 16.604C64.0908 19.3879 64.8737 21.9605 66.4272 24.4461L65.9923 24.7319C65.5573 25.2166 65.5449 25.6392 65.6194 26.1363C65.8431 27.7271 65.346 27.9135 63.8795 27.7768V27.5655C64.1902 27.2424 64.4885 27.0808 64.8862 26.8944C64.5382 26.9317 64.2026 26.9317 63.8795 26.8944V26.1487C63.9292 26.0617 63.9541 25.9747 63.9541 25.8753L63.8795 25.8629V17.4491C64.0783 16.9768 64.3393 16.517 64.6252 16.1193C64.8737 15.7091 64.3642 15.6719 63.8795 16.1068V15.212C64.5258 14.8143 65.1969 14.7273 65.1472 15.3114C65.5076 14.7895 66.2905 14.5036 66.9865 14.5409ZM66.9865 15.212C66.6509 15.3114 66.4272 15.6097 66.477 15.9453C66.5142 16.2187 66.7255 16.4424 66.9865 16.517V15.212ZM66.9865 24.2845C65.3957 25.229 66.477 26.3849 65.7188 27.6525C66.1414 27.5531 66.5764 27.5531 66.9865 27.5655V24.2845ZM66.9865 27.8389C65.9301 27.6277 65.3709 27.8017 65.2342 28.4355C65.5946 28.0005 66.2532 27.9508 66.9865 28.8083V27.8389ZM63.8671 28.4852V28.0129C64.1405 28.0254 64.4015 28.0378 64.7122 28.0129C64.4263 28.1248 64.1529 28.2864 63.8671 28.4852ZM63.8671 15.2244V16.1193C63.7428 16.2311 63.6185 16.3803 63.5067 16.5667C62.8728 17.6479 62.9474 18.8907 63.4818 19.9098C63.3327 19.2014 63.5067 18.3066 63.8671 17.4491V25.8629C63.1835 25.8007 62.5746 25.6889 62.0401 25.5149V20.1584C62.2017 20.407 62.3881 20.6431 62.5994 20.8544C62.0153 19.8601 62.0526 18.2196 62.4627 16.9395C62.5373 16.604 62.3011 16.5667 62.0401 16.778V16.0074C62.4006 15.8707 62.7113 15.9204 62.8107 16.2933C63.0344 15.8831 63.4445 15.4854 63.8671 15.2244ZM63.8671 26.1487V26.8944C63.6309 26.8696 63.4072 26.8074 63.196 26.7204C63.4818 26.5837 63.7552 26.3849 63.8671 26.1487ZM63.8671 27.5655V27.7768L63.6931 27.7644C63.7552 27.6898 63.8174 27.6277 63.8671 27.5655ZM63.8671 28.0129C63.6309 28.0005 63.37 28.0005 63.0717 28.0254C63.4694 27.7768 63.4569 27.4164 63.8546 27.1803C63.3078 27.1927 63.0717 26.8696 62.6864 26.8323C63.0344 26.6583 62.8728 26.5091 63.1587 26.3724C62.848 26.3849 62.4627 26.3724 62.0401 26.3476V30.511C62.5497 29.6783 63.196 28.9699 63.8671 28.4852V28.0129ZM62.0401 16.0074V16.778C61.8786 16.9022 61.7295 17.1135 61.6176 17.4118V16.2435C61.7667 16.1441 61.9034 16.0696 62.0401 16.0074ZM62.0401 20.1584V25.5149C61.891 25.4776 61.7543 25.4279 61.6176 25.3782V24.2721C61.6673 24.2845 61.717 24.2969 61.7667 24.3094C61.717 24.2845 61.6673 24.2597 61.6176 24.2224V22.4079C61.6673 22.4327 61.7046 22.4576 61.7543 22.4949C61.7046 22.4576 61.6549 22.4079 61.6176 22.3582V19.2636C61.717 19.5743 61.8662 19.8725 62.0401 20.1584ZM62.0401 26.3476V30.511C61.891 30.7595 61.7419 31.0205 61.6176 31.294V29.554C61.6922 29.4422 61.7916 29.3303 61.9034 29.2433C61.804 29.2806 61.717 29.3303 61.6176 29.3552V26.3227C61.7667 26.3351 61.9034 26.3351 62.0401 26.3476ZM61.63 16.2435V17.4118C61.6052 17.4864 61.5803 17.5609 61.5679 17.6479C61.4436 18.1948 61.4809 18.7416 61.63 19.2511V22.3457C60.8595 21.5131 60.4494 20.0341 60.4494 18.7664C60.4245 18.3315 60.0144 18.5055 59.8528 19.0274V17.9711C60.0268 17.8219 60.2381 17.8095 60.4494 17.9711C60.4991 17.3621 61.0583 16.6412 61.63 16.2435ZM61.63 22.4079C60.7476 21.8859 60.0641 21.0656 59.8528 20.059V22.0972C60.2878 22.9796 60.9216 23.7874 61.63 24.2224V22.4079ZM61.63 24.2721V25.3782C60.9092 25.1048 60.3251 24.7444 59.8528 24.3218V23.253C60.3375 23.7253 60.9589 24.0732 61.63 24.2721ZM61.63 26.3227V29.3552C60.9713 29.6037 60.3499 29.6286 59.8528 29.5913V28.8829C60.3499 28.5971 60.9589 28.3858 61.5927 28.1994C60.9838 28.1994 60.3997 28.1621 59.8528 28.0751V27.0808C60.1138 27.0063 60.3872 26.9441 60.6855 26.8944C60.3375 26.8571 60.0765 26.8198 59.8528 26.7577V26.1487C60.3997 26.2109 61.0335 26.273 61.63 26.3227ZM61.63 29.5416C61.3318 29.989 61.3193 30.6353 61.4933 31.5798C61.5306 31.4804 61.5803 31.3809 61.63 31.2815V29.5416ZM59.8404 31.5052V31.3561C60.3997 31.0827 60.8719 30.6353 61.2075 29.902C60.8346 30.6974 60.3624 31.1821 59.8404 31.5052ZM59.8404 31.1075C60.4494 30.859 60.9713 30.4116 61.3193 29.5913C60.8346 29.8026 60.3499 29.9517 59.8404 30.0139V31.1075ZM59.8404 28.6468C60.089 28.5225 60.3624 28.4106 60.6358 28.3361C60.3872 28.3734 60.1138 28.3858 59.8404 28.3982V28.6468ZM59.8404 17.9711V19.0274C59.7782 19.2014 59.7534 19.4251 59.7783 19.6861C59.7907 19.8228 59.8155 19.9347 59.8404 20.0714V22.1096C59.6664 21.7616 59.5297 21.4012 59.4178 21.0532C59.2066 20.494 58.6722 21.1651 59.045 22.0972C59.2314 22.5446 59.4924 22.9423 59.828 23.2654V24.3467C59.0947 23.6755 58.6473 22.8553 58.3987 21.9729C58.2496 21.0905 58.61 19.9347 59.2687 20.1957C59.1693 19.276 59.4427 18.2942 59.8404 17.9711ZM59.8404 26.1363V26.7453C59.2936 26.6086 59.0699 26.3849 58.8461 25.9747C59.132 26.0369 59.48 26.0866 59.8404 26.1363ZM59.8404 27.0684V28.0627C59.3557 27.9757 58.9083 27.8514 58.4733 27.6774C58.8959 27.4288 59.3433 27.23 59.8404 27.0684ZM59.8404 28.3982V28.6468C59.2687 28.945 58.7716 29.3925 58.523 29.989C58.9953 30.0511 59.4303 30.0636 59.8404 30.0014V31.0951C59.6043 31.1945 59.3433 31.2691 59.0823 31.3188C58.6846 31.3934 58.2745 31.4307 57.8643 31.4182V31.1324C57.8892 31.1324 57.914 31.12 57.9513 31.1075C58.088 31.0454 58.1502 30.8714 58.1129 30.7347C58.0756 30.6228 57.9886 30.5483 57.8768 30.5607V28.0999C58.4733 28.3112 59.1817 28.4106 59.8404 28.3982ZM59.8404 28.8829C59.5421 29.0445 59.2936 29.2433 59.1071 29.4795C59.306 29.5167 59.5545 29.5665 59.8404 29.5913V28.8829ZM59.8404 31.3561C59.2314 31.6544 58.5354 31.7538 57.8643 31.7911V32.1639C58.4236 32.0893 58.958 31.9651 59.4427 31.7289C59.5794 31.6668 59.7161 31.5922 59.8404 31.5052V31.3561ZM57.8643 27.8887C58.3242 27.3667 59.0823 27.056 59.7907 26.969C59.0947 26.8198 58.5354 26.6831 57.8643 26.4594V27.8887ZM57.8643 26.3724V26.36L57.9265 26.3973L57.8643 26.3724ZM57.8643 26.3476V26.36C57.5412 26.2357 57.2678 26.1487 57.0192 26.0866V25.838C57.2802 25.9747 57.5536 26.1487 57.8643 26.3476ZM57.8643 26.447H57.8519C57.5661 26.3227 57.2802 26.2606 57.0192 26.2233V28.9699C57.0565 29.0072 57.0814 29.0569 57.0938 29.1066C57.1559 29.2682 57.1187 29.4422 57.0192 29.5665V30.25C57.2554 30.2873 57.4791 30.2873 57.7152 30.25C57.3921 30.4364 57.2802 30.5856 57.1062 30.7223C57.0814 30.7471 57.0565 30.772 57.0192 30.7968V31.3685C57.2926 31.3934 57.5785 31.4182 57.8643 31.4182V31.1324C57.7525 31.1448 57.6655 31.0702 57.6282 30.9584C57.5785 30.8217 57.6531 30.6477 57.7898 30.5856C57.8146 30.5731 57.8395 30.5731 57.8643 30.5607V28.0999C57.8146 28.0875 57.7773 28.0627 57.7276 28.0502C57.7649 27.9881 57.8146 27.9259 57.8643 27.8762V26.447ZM57.8643 31.8035V32.1763C57.6282 32.2012 57.3796 32.2261 57.1311 32.2385H57.0192V31.8159C57.2802 31.8159 57.5661 31.8159 57.8395 31.8035H57.8643ZM57.0192 25.8505V26.099C56.7955 26.0493 56.5967 26.012 56.4103 25.9872C56.3233 25.9747 56.2487 25.9747 56.1617 25.9623V25.5646C56.2611 25.5895 56.3481 25.6143 56.4351 25.6392C56.634 25.6889 56.8204 25.7635 57.0192 25.8505ZM57.0192 26.2233V28.9699C56.8949 28.8332 56.6837 28.7586 56.5097 28.8332C56.2735 28.9326 56.1493 29.2185 56.2611 29.4422C56.3481 29.6783 56.6091 29.7902 56.8452 29.7032C56.9198 29.6659 56.9819 29.6286 57.0317 29.5665V30.25C56.7458 30.2127 56.46 30.1257 56.1741 30.0511V28.4728C56.3481 28.3858 56.5345 28.3112 56.7582 28.2615C56.5594 28.2366 56.373 28.1994 56.1741 28.1621V27.7271C56.2487 27.7271 56.3233 27.7147 56.3978 27.6898C56.6961 27.5904 56.8825 27.2797 56.7707 26.9814C56.6837 26.7453 56.4351 26.6086 56.1741 26.5961V26.2233C56.4351 26.186 56.721 26.186 57.0192 26.2233ZM57.0192 30.8093V31.3809C56.7334 31.3437 56.4475 31.3064 56.1866 31.2442C56.634 31.0702 56.8577 30.9335 57.0192 30.8093ZM57.0192 31.8159V32.2385C56.7707 32.2385 56.4848 32.2385 56.1617 32.2261V31.7662C56.4227 31.7911 56.7085 31.8159 57.0192 31.8159ZM51.9983 29.1936C51.2278 29.7777 50.5815 30.337 49.898 30.7471C49.6246 30.9087 49.3511 31.033 49.0902 31.12V29.1688C50.0471 29.3552 51.0041 29.4173 51.9983 29.1936ZM56.1617 25.5522C54.1732 25.1048 51.7622 25.9623 50.072 26.8447C49.724 27.0187 49.4009 27.1803 49.0902 27.3294V28.7213C49.5127 28.8083 49.9228 28.8705 50.333 28.9202C51.6255 29.0569 52.8807 28.9948 53.9992 28.6965C52.657 29.032 52.0232 29.641 51.2651 30.2873C50.7182 30.7347 50.1217 31.207 49.0902 31.5798V32.6983C50.1217 32.9345 51.0414 32.661 51.8616 32.3131C53.0547 31.7911 54.1111 31.1324 54.5585 31.3188C54.0365 31.4928 53.614 31.7165 53.3157 31.9526C53.0174 32.2012 52.831 32.4746 52.744 32.748C53.4524 32.1515 54.981 32.2136 56.1741 32.2385V31.7786C55.59 31.7289 55.1799 31.6544 55.155 31.6544C55.1675 31.5301 55.2669 31.3934 55.4284 31.3188C55.5776 31.2318 55.7764 31.1945 55.9504 31.2194C54.6082 30.5856 53.6388 30.6974 52.8061 30.9832C51.961 31.2815 51.2775 31.7538 50.2832 31.7538C51.5882 31.2318 52.1226 30.5483 52.7688 29.902C53.4151 29.2557 54.1732 28.6592 55.8261 28.3236C54.8568 28.2739 53.7382 28.5225 52.483 28.5598C51.2029 28.5971 49.9353 28.5225 49.2144 27.9881C49.7861 27.8141 50.2087 27.6028 50.6064 27.3915C51.2775 27.0311 51.9237 26.7328 52.657 26.4843C53.2038 26.2979 53.7879 26.1487 54.3596 26.0617C54.9562 25.9747 55.5776 25.9374 56.1741 25.9872V25.5522H56.1617ZM56.1617 26.2233V26.5961C56.0871 26.5961 56.0126 26.5961 55.938 26.621C55.6149 26.7204 55.4409 27.0311 55.5776 27.3418C55.677 27.5655 55.9131 27.7022 56.1617 27.7147V28.1496C55.7391 28.0502 55.329 27.9011 54.9065 27.7519C54.2726 27.5407 53.5891 27.317 52.8434 27.2673C53.7134 27.23 54.4093 26.7826 55.1923 26.4843C55.503 26.3724 55.8261 26.273 56.1617 26.2233ZM56.1617 28.4728V30.0511L55.9753 30.0014C55.3787 29.8274 54.7449 29.6534 54.0614 29.7404C54.6455 29.5789 55.0183 29.2682 55.4036 28.9699C55.6397 28.7959 55.8883 28.6219 56.1617 28.4728ZM49.0902 31.12C47.4869 31.6792 46.1323 31.0205 44.6036 30.1506C43.7958 29.6907 42.7892 29.4297 42.6524 30.2624C43.0253 29.815 43.6715 30.0139 43.7585 30.4737C43.8455 30.9957 43.2863 31.3312 42.7394 31.1075C42.3293 30.9335 42.1056 30.4116 42.2423 29.8772C42.6027 28.4355 44.6036 28.1745 46.4181 28.5722C47.3005 28.7711 48.1829 29.0196 49.0777 29.1812V31.12H49.0902ZM49.0902 27.3294C48.0462 27.8017 47.1638 28.0254 46.182 27.7519C47.1514 28.2118 48.1332 28.5349 49.0902 28.7338V27.3294ZM49.0902 31.5674C48.6676 31.7165 48.1829 31.8532 47.5864 31.9775C48.1083 32.3503 48.6055 32.574 49.0902 32.6859V31.5674Z" fill="url(#paint3_linear)"/>
<path d="M71.0379 72.2944C70.9384 72.0458 68.6765 63.5201 68.5398 63.0976C67.8811 61.0967 66.5762 58.524 63.842 58.3873C63.4195 58.3625 62.9845 58.4743 62.6241 58.6732C61.7168 59.1579 61.3564 60.1148 61.8287 61.0221C62.2264 61.7802 63.3449 61.8423 63.8047 61.2458C64.2024 60.7114 63.8669 59.6799 63.0342 59.7171C63.7799 59.1703 64.4759 60.0651 64.5504 61.3079C64.4137 61.5565 63.9539 62.0288 63.8917 62.0785C63.755 62.24 63.5438 62.4265 63.2952 62.6377C62.9099 62.9857 62.5619 63.3337 62.2512 63.6817C61.8038 64.0918 61.3813 64.5641 60.9339 65.0364C60.4865 65.5459 60.0639 66.043 59.6289 66.5899C59.2064 67.1367 58.846 67.7084 58.5228 68.3298C58.2246 68.9139 58.0754 69.5105 58.0506 70.0697C58.0257 70.6663 58.1003 71.2753 58.2743 71.9215C58.4483 72.5678 58.7838 73.127 59.2685 73.5869C59.7532 74.0467 60.3995 74.3201 61.2073 74.3699C62.0027 74.4196 62.7111 74.258 63.3946 73.8603C64.625 73.1643 65.6192 71.76 66.3773 69.6099C66.5513 70.1195 67.0485 72.4062 67.0733 72.5056C67.1976 73.2638 67.4089 73.1892 67.471 73.1892L70.5407 73.2638C70.926 73.2762 71.1497 72.5554 71.0379 72.2944ZM65.5198 69.1873C65.3085 69.585 64.9854 69.933 64.5753 70.1816C64.2646 70.368 63.929 70.4799 63.5313 70.5047C63.3946 70.5296 63.2579 70.5296 63.0963 70.5171C62.4998 70.4923 62.04 70.2686 61.7541 69.7963C61.4434 69.3489 61.3316 68.8766 61.3564 68.3174C61.3813 67.783 61.6174 67.0249 62.0897 66.0803C62.4501 65.3595 63.0218 64.589 63.8172 63.6817C64.103 63.3586 64.5007 62.8739 64.8487 62.5259C64.9108 62.7372 66.0294 67.6587 66.0045 68.0688C65.9921 68.3919 65.7311 68.8021 65.5198 69.1873Z" fill="white"/>
<path d="M79.4638 58.3998C79.265 58.3998 79.0786 58.4247 78.8673 58.462C77.8109 58.6857 76.6551 59.5059 75.3999 60.8979C73.7096 62.7994 72.6408 64.937 72.5165 67.2984C72.4668 68.3299 72.442 69.5975 72.5538 71.0889C72.5663 71.1386 73.1007 76.1969 73.1007 76.1969C73.6972 80.932 72.5041 81.1308 71.6839 80.8201C72.5165 80.584 72.5414 79.4654 71.9946 79.0926C71.3732 78.6576 70.2919 79.0926 70.1304 79.9501C69.9315 80.9692 70.5778 81.7895 71.6093 81.9511C72.0319 82.0132 72.4917 81.9884 72.9018 81.8268C72.9267 81.8144 72.9515 81.8144 72.9764 81.8019C75.5117 80.8201 76.5681 78.4712 76.8291 76.1969C76.9161 75.3642 76.9658 74.2084 76.7048 72.8661C76.9658 73.1023 77.2392 73.326 77.5623 73.5248C77.7488 73.6367 77.9228 73.7361 78.0968 73.8231C78.7306 74.1338 79.352 74.2954 79.9734 74.2954C81.2908 74.2954 82.4341 73.7361 83.4035 72.6176C84.3605 71.499 84.8949 69.9828 84.9943 68.044C85.1062 65.7697 84.5345 63.5948 83.2668 61.5193C82.0116 59.4438 80.7439 58.3998 79.4638 58.3998ZM80.5326 71.9837C80.2095 72.2696 79.8118 72.4187 79.3644 72.4187C78.9667 72.4187 78.569 72.3069 78.1962 72.0832C77.6618 71.7849 77.1398 71.2629 76.6427 70.5297C75.7851 69.2744 75.3999 67.7955 75.4869 66.1053C75.5366 65.0737 75.6733 64.2162 75.897 63.5202C76.1207 62.8367 76.5308 62.091 77.1274 61.308C77.6742 61.5566 78.1837 61.9294 78.6684 62.4265C79.1904 62.9734 79.7621 63.6321 80.1474 64.5145C82.0737 69.0507 81.0173 71.5612 80.5326 71.9837Z" fill="white"/>
<path d="M95.9436 39.5588C95.9436 39.5588 93.8308 39.5713 93.6319 39.5713C93.2591 39.5713 92.7123 39.534 92.6128 40.4661C92.5383 41.1621 92.4761 43.1878 92.4264 44.1821V44.1572C91.9666 45.9593 88.8968 50.2594 88.3127 51.0672C88.2879 49.986 88.2754 48.7805 88.2879 47.5749C88.3252 44.7165 88.5737 40.8514 88.6856 40.4537C88.7353 40.2921 88.8098 39.5837 88.0145 39.5588C88.0145 39.5588 85.9017 39.5713 85.6904 39.5713C85.33 39.5713 84.7707 39.534 84.6713 40.4661C84.3233 43.685 84.199 52.0863 84.634 54.5595C84.8204 55.6159 85.2181 55.6408 85.5537 55.6408C85.5537 55.6408 86.7965 55.6656 87.8156 55.6408C88.3997 55.6283 88.5489 55.2306 88.4494 54.5471C88.437 54.4725 88.4122 54.0003 88.3749 53.2919C89.046 52.5089 91.5937 48.6438 92.3146 47.1897C92.2524 50.1103 92.3146 53.1303 92.5631 54.5471C92.7495 55.6035 93.1473 55.6283 93.4828 55.6283C93.4828 55.6283 94.7256 55.6532 95.7447 55.6283C96.3288 55.6159 96.478 55.2182 96.3785 54.5347C96.3413 54.3234 96.1673 50.856 96.2046 47.5501C96.2418 44.6916 96.4904 40.8265 96.6023 40.4288C96.6644 40.3045 96.739 39.5837 95.9436 39.5588Z" fill="white"/>
<path d="M111.515 40.4537C111.565 40.2921 111.64 39.5837 110.857 39.5588C110.857 39.5588 108.732 39.5713 108.533 39.5713C108.172 39.5713 107.613 39.534 107.514 40.4661C107.439 41.1621 107.377 43.1878 107.327 44.1821V44.1572C106.867 45.9593 103.798 50.2594 103.214 51.0672C103.189 49.986 103.176 48.7805 103.189 47.5749C103.226 44.7165 103.474 40.8514 103.586 40.4537C103.636 40.2921 103.711 39.5837 102.928 39.5588C102.928 39.5588 100.815 39.5713 100.604 39.5713C100.243 39.5713 99.684 39.534 99.5845 40.4661C99.249 43.685 99.1123 52.0863 99.5472 54.5595C99.7337 55.6159 100.131 55.6408 100.467 55.6408C100.467 55.6408 101.71 55.6656 102.729 55.6408C103.313 55.6283 103.462 55.2306 103.363 54.5471C103.35 54.4725 103.325 54.0003 103.288 53.2919C103.959 52.5089 106.507 48.6438 107.228 47.1897C107.166 50.1103 107.228 53.1303 107.476 54.5471C107.663 55.6035 108.06 55.6283 108.396 55.6283C108.396 55.6283 109.639 55.6532 110.658 55.6283C111.242 55.6159 111.391 55.2182 111.292 54.5347C111.267 54.3234 111.08 50.856 111.118 47.5501C111.143 44.7165 111.391 40.8514 111.515 40.4537Z" fill="white"/>
<path d="M45.423 47.5625C45.423 48.2957 45.5473 49.029 45.7834 49.7747C46.1438 50.9305 46.7901 52.1236 47.7346 53.3291C49.1142 55.1063 50.2576 56.0011 51.1772 56.0011C51.8235 56.0011 52.6438 55.5289 53.6505 54.5843C54.7566 53.5404 55.7135 52.2478 56.5214 50.7192L55.4153 49.9238C55.1294 50.3339 54.856 50.7192 54.595 51.0796C54.3464 51.44 53.9736 51.8377 53.5137 52.2603C52.1591 51.788 50.9784 50.7689 49.9717 49.2154C49.052 47.7986 48.6046 46.4066 48.6046 45.0396C48.6046 44.6916 48.6419 44.2566 48.7164 43.747C48.791 43.2375 48.9402 42.7776 49.1639 42.3675C53.0663 41.6964 54.421 45.9344 53.6007 46.3818C53.986 45.6361 53.1782 44.9153 52.5319 45.0644C51.7987 45.2384 51.3761 46.2699 51.9105 46.9411C52.5319 47.724 53.5759 47.7862 54.3837 47.1648C54.7069 46.9162 55.0051 46.5682 55.1543 46.1705C55.9124 44.3063 55.1418 42.6161 54.073 41.2987C53.8244 40.988 52.6438 39.7079 50.8292 39.6085C50.009 39.5588 48.9526 40.3915 47.6601 41.9698C46.7652 43.0635 46.1314 44.182 45.7834 45.313C45.5473 46.0587 45.423 46.8043 45.423 47.5625Z" fill="white"/>
<path d="M59.604 53.3416C60.9835 55.1188 62.1269 56.0136 63.0466 56.0136C63.6929 56.0136 64.5131 55.5414 65.5198 54.5968C66.6383 53.5529 67.5828 52.2604 68.3907 50.7317L67.2846 49.9363C66.9987 50.3464 66.7253 50.7317 66.4643 51.0921C66.2033 51.4525 65.8429 51.8502 65.3831 52.2728C64.0284 51.8005 62.8477 50.7814 61.8411 49.2279C60.9338 47.8111 60.474 46.4192 60.474 45.0521C60.474 44.7041 60.5113 44.2691 60.5858 43.7596C60.6604 43.25 60.8095 42.7902 61.0332 42.38C64.9357 41.7089 66.2903 45.9469 65.4701 46.3943C65.8553 45.6486 65.0475 44.9278 64.4013 45.0769C63.668 45.2509 63.2579 46.2825 63.7798 46.9536C64.4013 47.7365 65.4328 47.7987 66.253 47.1773C66.5886 46.9287 66.862 46.5807 67.0236 46.183C67.7817 44.3188 67.0112 42.6286 65.9423 41.3112C65.6938 41.0005 64.5007 39.7204 62.6986 39.621C61.8783 39.5713 60.822 40.404 59.5294 41.9823C58.6346 43.076 58.0008 44.1945 57.6528 45.3255C57.4167 46.0712 57.3048 46.8169 57.3048 47.575C57.3048 48.3082 57.4167 49.0415 57.6528 49.7872C58.0256 50.943 58.6719 52.1237 59.604 53.3416Z" fill="white"/>
<path d="M50.7919 40.1553C50.7794 40.1553 50.5557 40.1553 50.0586 40.553C51.7116 40.5654 52.9917 41.3235 53.8368 42.3302C53.6752 42.0319 53.4639 41.7212 53.2029 41.4105C53.1657 41.3732 52.2335 40.2423 50.7919 40.1553Z" fill="url(#paint4_linear)"/>
<path d="M62.6603 40.1553C62.6603 40.1553 62.4365 40.1553 61.927 40.553C63.5799 40.5654 64.86 41.3235 65.7051 42.3302C65.5435 42.0319 65.3323 41.7336 65.0713 41.4105C65.0464 41.3732 64.1143 40.2423 62.6603 40.1553Z" fill="url(#paint5_linear)"/>
<path d="M71.0873 55.6157C71.0873 55.6157 72.3301 55.6406 73.3368 55.6157C73.9209 55.6033 74.07 55.2056 73.9706 54.5221C73.9458 54.3605 73.8215 51.2411 73.7966 48.6312C73.8463 48.5566 74.2192 48.743 74.2689 48.7057C77.6369 50.1598 78.047 54.9695 78.1092 55.1186C78.2086 55.3175 78.3702 55.6282 78.569 55.6282C78.6063 55.6282 82.2602 55.6779 82.4217 55.6157C82.5833 55.5536 82.3472 54.0622 82.111 53.4657C81.9122 52.8318 81.0795 49.961 78.8549 48.569C77.612 47.786 76.1828 47.5251 75.1637 47.4256C74.9151 47.4132 74.6666 47.4008 74.4677 47.3883C77.3883 42.8769 79.5136 39.8321 81.0174 41.4353C80.0852 41.137 79.4017 42.1934 79.7124 42.9142C80.048 43.7345 81.3156 44.0203 81.9867 43.2871C82.7821 42.4171 82.6454 41.2116 81.7755 40.3913C81.4275 40.0558 80.9676 39.7948 80.4829 39.6829C79.0661 39.3598 77.5002 39.4095 75.8348 42.0318C75.3128 42.8645 74.7536 44.1819 73.8339 46.332C73.9085 43.7221 74.1073 40.789 74.2067 40.4535C74.2565 40.2919 74.331 39.5835 73.5356 39.5587C73.5356 39.5587 71.4228 39.5711 71.224 39.5711C70.8512 39.5711 70.3043 39.5338 70.2049 40.4659C69.8693 43.6848 69.7326 52.0613 70.1676 54.5345C70.354 55.5909 70.7517 55.6157 71.0873 55.6157Z" fill="white"/>
<path d="M104.233 38.0922C105.203 38.0798 108.384 37.6821 109.379 38.1419C108.695 37.3465 108.732 36.663 107.589 35.9794C106.023 35.0597 104.457 35.445 102.667 36.0167C101.71 36.3274 100.592 36.3771 100.642 35.4823C100.94 36.0291 101.661 35.967 101.847 35.4947C102.058 34.9727 101.536 34.488 100.915 34.6123C100.443 34.7118 100.107 35.2089 100.12 35.793C100.207 37.4086 102.245 38.117 104.233 38.0922Z" fill="white"/>
<path d="M104.855 35.6813C104.109 35.6813 103.302 35.8925 102.245 36.2405C102.084 36.2902 101.897 36.3524 101.686 36.3897C102.208 36.5512 102.829 36.6258 103.451 36.6258H103.538C103.774 36.6258 104.122 36.6009 104.557 36.5637C105.253 36.514 106.123 36.4518 106.918 36.4518C106.794 36.34 106.657 36.2281 106.458 36.1163C105.974 35.818 105.452 35.6813 104.855 35.6813Z" fill="url(#paint6_linear)"/>
<path d="M56.8695 72.431C56.8446 72.3937 56.8322 72.3564 56.8073 72.3316C56.7825 72.2943 56.77 72.257 56.7452 72.2197C56.6706 72.1452 56.5712 72.083 56.4469 72.0333C56.3475 71.996 56.2481 71.9712 56.1362 71.9587C56.1238 71.9587 56.1113 71.9587 56.0865 71.9587H55.5024C55.4899 71.9587 55.4775 71.9587 55.4651 71.9587C55.3781 71.9339 55.3035 71.909 55.2414 71.8593C55.0798 71.7972 54.881 71.5362 54.6573 71.1509C54.4336 70.7656 54.1726 70.1442 53.8867 69.3364C53.6009 68.5286 53.2032 67.3604 52.7185 65.869C51.8734 63.1472 51.426 61.0096 51.3638 59.5307C51.3638 59.2075 51.2395 58.8223 50.7797 58.8223C50.5187 58.8223 46.3926 58.8223 46.3926 58.8223C46.3926 58.8223 46.7033 65.521 43.3228 71.1633C43.298 71.2006 43.2731 71.2503 43.2483 71.2876C43.0867 71.5113 42.863 71.6729 42.602 71.8096C42.3783 71.9463 41.993 71.9712 41.5083 71.9712H40.9242C40.6011 71.996 40.4022 72.0954 40.278 72.2322C40.1412 72.3937 40.0791 72.518 40.0791 72.6547C40.0791 73.0773 40.3401 73.7235 40.9242 74.5314C41.2722 75.0036 41.6202 75.5505 41.9557 76.147H41.9806C42.1794 76.495 42.3659 76.843 42.5523 77.2407C42.9624 78.1106 44.4165 77.5762 44.2549 76.9673C44.1804 76.669 44.1058 76.3956 44.0685 76.147C44.0561 76.0849 44.0561 76.0227 44.0437 75.9606C44.0188 75.7866 44.0064 75.6375 44.0064 75.5007C44.0064 74.7178 44.2922 74.1461 44.8515 73.7608C44.8515 73.7608 44.8515 73.7484 44.8639 73.7484C44.9758 73.6738 45.0876 73.6117 45.2119 73.5495C45.2865 73.5122 45.361 73.475 45.448 73.4377C45.9203 73.2388 46.4671 73.1394 47.1258 73.1394H49.4499C50.9661 73.1394 51.9107 73.5992 52.3332 73.9472C52.5321 74.0964 52.6936 74.2952 52.8428 74.5065C52.9795 74.7923 53.054 75.1279 53.054 75.5007C53.054 75.8612 52.9546 76.3459 52.793 76.9548C52.6315 77.5762 54.0856 78.0982 54.4957 77.2282C54.7318 76.7187 54.9928 76.2589 55.2538 75.8239C55.2787 75.7866 55.3035 75.7493 55.316 75.712C55.5769 75.277 55.8504 74.8793 56.1238 74.5189C56.7079 73.7111 56.9689 73.0648 56.9689 72.6423C56.9689 72.5801 56.9565 72.518 56.9316 72.4683C56.8695 72.4434 56.8695 72.431 56.8695 72.431ZM47.71 72.083H44.2549C44.5035 71.5983 47.014 66.6271 47.275 61.6186H48.0704C48.1325 61.979 48.1698 62.2648 48.1946 62.4264C48.2319 62.588 48.2319 62.7868 48.2568 62.9484C48.5178 64.7877 49.1268 67.0621 50.1334 69.7838C50.4566 70.6911 50.7797 71.4368 51.165 72.083H47.71Z" fill="white"/>
<path fill-rule="evenodd" clip-rule="evenodd" d="M44.2677 39.4966C43.9197 39.3972 43.5717 39.4221 43.348 39.683C42.0555 41.1123 40.4274 53.0805 40.3031 54.9696H39.1598C39.0728 54.4352 38.936 53.5652 38.8988 52.1981C38.9485 49.029 38.7496 42.9143 38.3519 40.3293C38.2028 39.3723 37.6062 39.4593 37.221 39.4966C37.0097 39.5215 34.7726 39.4966 34.7726 39.4966C33.9275 39.6085 34.0394 40.3293 34.1015 40.4909C34.2506 40.8886 34.3998 44.5673 34.5738 47.55C34.6483 48.7928 34.7229 54.9199 34.7105 54.9944C34.6608 55.4543 34.7105 55.7898 34.9342 55.9514C34.9963 56.0757 35.0958 56.1378 35.2449 56.1378C35.568 56.113 40.154 56.1005 40.154 56.1005C40.0173 56.9456 39.4083 63.4704 39.4829 65.5583C39.4953 65.8317 39.5326 66.0181 39.5947 66.13C39.6569 66.2294 39.8433 66.2791 40.1416 66.2916C41.8194 66.3661 41.8815 66.043 41.8691 65.8441C41.6702 64.8126 41.7945 56.2497 42.5402 51.1169C43.2113 46.5309 44.6281 39.9316 44.6406 39.8943L44.6654 39.7949C44.653 39.6582 44.5163 39.5588 44.2677 39.4966Z" fill="white"/>
<path d="M32.6854 41.3099C32.5736 39.6073 31.8528 38.2526 30.3987 37.2335C28.9446 36.2144 27.0555 35.7048 24.7439 35.7048C24.6818 35.7048 24.6196 35.7048 24.5575 35.7048C22.9294 35.7297 21.5872 36.1771 20.2698 36.9104C19.2755 37.4696 17.8587 38.4266 17.5729 40.4399C17.4486 41.4093 16.8396 44.7525 17.0012 48.456C17.1379 51.6998 17.5232 55.2045 17.8836 57.6031C18.0576 58.7341 18.7287 58.6968 19.1761 58.6968C19.4122 58.6968 22.7678 58.7092 22.7678 58.7092C23.7372 58.6719 23.6005 57.8144 23.5384 57.6155C23.3892 57.2054 22.5193 53.6261 22.2956 50.4445L22.134 47.6482C22.0346 44.4542 22.2086 40.6636 22.2334 40.4524C22.2583 39.6818 22.3826 38.9983 22.5317 38.5509C22.8673 37.4572 23.5632 36.8979 24.5948 36.8979H24.632C25.6636 36.9104 26.3968 37.3826 26.8194 38.3272C27.1052 38.961 27.2792 39.9428 27.3414 41.2726C27.4035 42.6024 27.2295 44.9389 26.8194 45.5479C26.4714 46.0574 26.0737 46.2687 25.5642 46.1941C23.1158 45.8337 22.6311 47.4245 22.482 47.6979C22.3328 47.9838 22.2831 48.3069 22.3328 48.978C22.4323 50.3824 23.9361 51.0535 24.7688 50.7428C25.4274 50.631 25.9246 50.0468 25.8873 49.3509C25.85 48.5679 25.1913 47.9341 24.4083 47.9341C24.0852 47.9341 23.7994 48.0459 23.5757 48.2199C23.6751 47.8346 23.9734 47.5364 24.7812 47.5861C25.154 47.6109 25.7754 47.7104 26.2104 47.9216C26.6827 48.1081 27.2295 48.3193 27.8385 48.3193C29.4169 48.3193 30.6597 47.6358 31.5669 46.5173C32.76 45.0135 32.8097 43.2487 32.6854 41.3099Z" fill="white"/>
<path d="M24.4064 49.1649C24.4064 49.5622 24.096 49.8726 23.6988 49.8726C23.3015 49.8726 22.9911 49.5622 22.9911 49.1649C22.9911 48.78 23.3015 48.4572 23.6988 48.4572C24.0836 48.4572 24.4064 48.7676 24.4064 49.1649Z" fill="url(#paint7_linear)"/>
<path d="M67.2845 69.4731C67.4461 70.0945 67.8189 71.5237 68.0177 72.3812L69.1238 72.4061C68.9001 71.5734 68.5273 70.1939 67.9183 67.8947C67.3591 65.8316 66.7377 63.4827 66.6507 63.2093C66.3151 62.1778 65.6067 61.3948 65.2588 60.8231C65.2588 60.8604 65.2588 60.8853 65.2463 60.9101C65.383 61.0965 65.4825 61.3078 65.5446 61.5315C65.557 61.5812 66.775 67.1739 66.9862 68.1184C67.0235 68.28 67.2224 69.2245 67.2845 69.4731Z" fill="url(#paint8_linear)"/>
<path d="M59.567 70.4177C59.2562 69.9703 59.0574 69.4732 58.9704 68.9388C58.8337 69.2495 58.7467 69.585 58.7343 69.9082C58.7218 70.3307 58.7715 70.7906 58.9083 71.2753C59.0077 71.6357 59.1941 71.9464 59.48 72.2322C59.6912 72.4435 60.0144 72.5553 60.4245 72.5802C60.8843 72.6051 61.3193 72.5181 61.7419 72.2819C61.9283 72.1701 62.1147 72.0458 62.2887 71.8718C62.2514 71.8718 62.2017 71.8718 62.1644 71.8718C61.021 71.8097 60.1138 71.3001 59.567 70.4177Z" fill="url(#paint9_linear)"/>
<path d="M74.2444 71.1513C74.2569 71.3253 74.4309 72.9534 74.4806 73.7612C74.5551 74.8424 74.6173 76.0355 74.5054 77.1913C74.4433 77.8625 74.3066 78.6206 74.058 79.3414C74.0332 78.6951 73.9834 77.9867 73.8965 77.2038C73.4739 72.6924 73.3745 71.6235 73.3496 71.3501C73.2626 70.1198 73.2626 69.0509 73.275 68.1934C73.275 68.1934 73.2502 65.9688 74.2817 63.595C74.2817 63.5826 74.0456 66.6523 74.2444 71.1513Z" fill="url(#paint10_linear)"/>
<path d="M81.2659 62.203C79.961 60.0654 79.1035 59.8292 78.7928 59.8292C78.7182 59.8292 78.6188 59.8417 78.5193 59.8665C78.3453 59.9038 78.1092 59.9908 77.8234 60.1399C78.2832 60.4258 78.7182 60.7862 79.1159 61.2087C79.7373 61.855 80.4333 62.6628 80.9055 63.7814C82.1981 66.8387 82.3223 69.2621 81.9495 70.9151C82.4218 70.1321 82.6952 69.1006 82.7449 67.8578C82.8692 65.8817 82.372 64.0299 81.2659 62.203Z" fill="url(#paint11_linear)"/>
<path d="M86.138 51.6139C86.1131 50.2095 86.1007 48.8797 86.1131 47.6493C86.138 46.0088 86.2623 42.4544 86.4238 40.4783C86.138 40.4783 85.6533 40.4783 85.4048 40.4908C85.1065 44.3932 85.0319 52.3472 85.3675 54.9446C85.5787 54.9446 86.0013 54.9446 86.2498 54.9446C86.2374 54.7458 86.225 54.4724 86.2126 54.1492C86.2001 53.7018 86.1504 52.0986 86.138 51.6139Z" fill="url(#paint12_linear)"/>
<path d="M94.0797 51.6139C94.0424 50.2095 94.0424 48.8797 94.0549 47.6493C94.0797 46.0088 94.204 42.4544 94.3656 40.4783C94.0797 40.4783 93.595 40.4783 93.3464 40.4908C93.0481 44.3932 92.9736 52.3472 93.3091 54.9446C93.5204 54.9446 93.9306 54.9446 94.1916 54.9446C94.1791 54.7458 94.1667 54.4724 94.1543 54.1492C94.1294 53.7018 94.0921 52.0986 94.0797 51.6139Z" fill="url(#paint13_linear)"/>
<path d="M100.965 51.6139C100.94 50.2095 100.928 48.8797 100.94 47.6493C100.952 46.0088 101.077 42.4544 101.251 40.4783C100.965 40.4783 100.48 40.4783 100.232 40.4908C99.9334 44.3932 99.8588 52.3472 100.182 54.9446C100.393 54.9446 100.816 54.9446 101.064 54.9446C101.052 54.7458 101.039 54.4724 101.027 54.1492C101.027 53.7018 100.977 52.0986 100.965 51.6139Z" fill="url(#paint14_linear)"/>
<path d="M108.907 51.6139C108.87 50.2095 108.87 48.8797 108.882 47.6493C108.895 46.0088 109.019 42.4544 109.193 40.4783C108.907 40.4783 108.422 40.4783 108.174 40.4908C107.876 44.3932 107.801 52.3472 108.137 54.9446C108.348 54.9446 108.77 54.9446 109.019 54.9446C109.007 54.7458 108.994 54.4724 108.982 54.1492C108.957 53.7018 108.92 52.0986 108.907 51.6139Z" fill="url(#paint15_linear)"/>
<path d="M46.2192 47.0901C46.2192 47.7364 46.3311 48.4075 46.5424 49.091C46.8903 50.222 47.5366 51.4027 48.4687 52.6206C50.0719 54.721 50.8549 54.9571 50.9543 54.982C51.0413 54.9571 51.5011 54.8204 52.4457 53.938C50.7803 53.1923 49.3138 51.8625 48.1083 49.961C47.2011 48.5318 46.6169 47.0777 46.3932 45.636C46.2689 46.1207 46.2192 46.6054 46.2192 47.0901Z" fill="url(#paint16_linear)"/>
<path d="M58.0509 47.0901C58.0509 47.7364 58.1628 48.4075 58.374 49.091C58.722 50.222 59.3683 51.4027 60.2879 52.6206C61.8912 54.721 62.6741 54.9571 62.7735 54.982C62.8605 54.9571 63.3204 54.8204 64.2649 53.938C62.5995 53.1923 61.1455 51.8625 59.9275 49.961C59.0203 48.5318 58.4362 47.0777 58.2125 45.636C58.1006 46.1207 58.0509 46.6054 58.0509 47.0901Z" fill="url(#paint17_linear)"/>
<path d="M71.672 46.2201C71.672 46.1704 71.7715 42.5414 71.9579 40.4783C71.672 40.4783 71.1873 40.4783 70.9387 40.4908C70.6404 44.3808 70.5783 52.285 70.9014 54.8701C71.1127 54.8701 71.5229 54.8701 71.7963 54.8701C71.7342 53.5278 71.672 50.7936 71.6472 48.8424C71.6347 48.5069 71.6596 46.7297 71.672 46.2201Z" fill="url(#paint18_linear)"/>
<path d="M80.3348 54.9694C80.3224 54.9446 80.3224 54.9197 80.31 54.8949C80.2975 54.8451 80.2851 54.8079 80.2727 54.7581L80.2478 54.6587C79.5519 52.024 78.3463 50.0976 76.6934 49.2525C76.6188 49.2152 76.768 49.3022 76.6934 49.2525C77.9238 50.7439 78.5825 52.4217 79.005 54.9694C79.4027 54.9694 79.875 54.9694 80.3348 54.9694Z" fill="url(#paint19_linear)"/>
<path d="M41.1614 73.189C41.3727 73.4873 41.5964 73.798 41.8201 74.146C41.9941 73.624 42.2427 73.1393 42.5534 72.7043C42.0811 72.8908 41.5716 72.9902 41.0496 73.0275C41.0868 73.0772 41.1241 73.1269 41.1614 73.189Z" fill="url(#paint20_linear)"/>
<path d="M53.0802 72.9776C53.1299 73.0273 53.4531 73.4126 53.6022 73.5617C53.7513 73.3504 53.8881 73.1392 54.0496 72.9279C54.0869 72.8657 54.1242 72.816 54.1615 72.7663C53.9875 72.7166 54.1863 72.642 54.0496 72.555C53.5276 72.2692 53.1797 71.7721 52.8938 71.2625C52.6204 70.7902 52.3345 70.1191 51.999 69.1995C51.7131 68.4041 51.3279 67.2607 50.8183 65.6823C50.0726 63.2588 49.6128 61.2579 49.4512 59.7044C49.1902 59.7044 48.544 59.7044 48.2333 59.7044C48.544 59.9281 48.7677 60.2761 48.8423 60.6738C48.8795 60.8851 48.9168 61.0839 48.9417 61.2455C48.9541 61.3325 48.9665 61.3946 48.9665 61.4443C49.0038 61.5935 49.0162 61.7426 49.0287 61.8793C49.0287 61.9166 49.0287 61.9539 49.0411 61.9912C49.0411 61.9912 49.0535 62.0533 49.0535 62.0657C49.3021 63.8305 49.9111 66.0179 50.8556 68.5781C51.1663 69.448 51.4024 70.1191 51.7007 70.7654C51.8623 71.101 52.3097 72.0206 52.434 72.1325C52.6204 72.5053 52.782 72.642 53.0802 72.9776Z" fill="url(#paint21_linear)"/>
<path fill-rule="evenodd" clip-rule="evenodd" d="M36.0913 40.4161C35.8303 40.4161 35.3829 40.4161 34.9728 40.4161C35.0349 41.224 35.1095 42.5662 35.2213 44.9648C35.2586 45.8099 35.3083 46.6799 35.3456 47.5001C35.3953 48.3825 35.4823 53.5029 35.4823 55.3671C35.8552 55.3671 36.2777 55.3547 36.7252 55.3547C36.6506 54.7333 36.576 53.8882 36.5512 52.7821C36.6009 49.2525 36.4145 43.287 36.0913 40.4161Z" fill="url(#paint22_linear)"/>
<path d="M20.1205 37.6572C19.2754 38.1916 18.48 38.8752 18.306 40.1926C18.2935 40.3168 18.2687 40.5033 18.2438 40.7394C18.0574 42.1935 17.6721 45.2135 17.8337 48.5069C18.0326 52.5336 18.5545 56.4485 18.7534 57.8901C19.2256 57.8901 19.7973 57.8901 20.6176 57.8777C20.2572 56.3242 19.6855 53.4409 19.4866 50.8061L19.3002 47.7737C19.1635 44.5051 19.2754 40.6275 19.3126 39.857C19.3499 39.0865 19.6482 38.2413 20.1205 37.6572Z" fill="url(#paint23_linear)"/>
<path d="M27.1176 46.27C27.7265 46.27 28.5841 45.6361 28.9942 44.8159C29.5038 43.8092 29.6529 42.7777 29.5783 40.9508C29.5286 39.6707 29.2055 38.7758 28.5592 38.0426C28.3355 37.794 28.0124 37.5827 27.5774 37.4088C27.9005 38.2041 28.087 39.2978 28.1491 40.727C28.1491 40.7643 28.2858 44.5673 27.3661 45.9344C27.2791 46.0587 27.1921 46.1705 27.1176 46.27Z" fill="url(#paint24_linear)"/>
<defs>
<linearGradient id="paint0_linear" x1="-27.2778" y1="-12.2735" x2="109.013" y2="89.2607" gradientUnits="userSpaceOnUse">
<stop stop-color="#D38C15"/>
<stop offset="0.0377" stop-color="#DD9913"/>
<stop offset="0.1267" stop-color="#F0B10E"/>
<stop offset="0.2085" stop-color="#FBC00B"/>
<stop offset="0.2761" stop-color="#FFC50A"/>
<stop offset="0.3379" stop-color="#FFC50C"/>
<stop offset="0.3601" stop-color="#FFC713"/>
<stop offset="0.376" stop-color="#FFC91E"/>
<stop offset="0.3888" stop-color="#FFCD2F"/>
<stop offset="0.3998" stop-color="#FFD145"/>
<stop offset="0.4096" stop-color="#FFD761"/>
<stop offset="0.4181" stop-color="#FFDD80"/>
<stop offset="0.4233" stop-color="#FFE297"/>
<stop offset="0.4787" stop-color="#FFE194"/>
<stop offset="0.5187" stop-color="#FFDF8B"/>
<stop offset="0.5538" stop-color="#FFDC7B"/>
<stop offset="0.5862" stop-color="#FFD765"/>
<stop offset="0.6167" stop-color="#FFD048"/>
<stop offset="0.6453" stop-color="#FFC925"/>
<stop offset="0.6626" stop-color="#FFC30C"/>
<stop offset="0.6708" stop-color="#FFC926"/>
<stop offset="0.6817" stop-color="#FFCF41"/>
<stop offset="0.6941" stop-color="#FFD457"/>
<stop offset="0.7087" stop-color="#FFD768"/>
<stop offset="0.7267" stop-color="#FFDA73"/>
<stop offset="0.752" stop-color="#FFDC7A"/>
<stop offset="0.8221" stop-color="#FFDC7C"/>
<stop offset="0.9158" stop-color="#EAB946"/>
<stop offset="1" stop-color="#D59812"/>
</linearGradient>
<linearGradient id="paint1_linear" x1="-27.279" y1="-12.2715" x2="109.012" y2="89.2627" gradientUnits="userSpaceOnUse">
<stop stop-color="#D38C15"/>
<stop offset="0.0377" stop-color="#DD9913"/>
<stop offset="0.1267" stop-color="#F0B10E"/>
<stop offset="0.2085" stop-color="#FBC00B"/>
<stop offset="0.2761" stop-color="#FFC50A"/>
<stop offset="0.3379" stop-color="#FFC50C"/>
<stop offset="0.3601" stop-color="#FFC713"/>
<stop offset="0.376" stop-color="#FFC91E"/>
<stop offset="0.3888" stop-color="#FFCD2F"/>
<stop offset="0.3998" stop-color="#FFD145"/>
<stop offset="0.4096" stop-color="#FFD761"/>
<stop offset="0.4181" stop-color="#FFDD80"/>
<stop offset="0.4233" stop-color="#FFE297"/>
<stop offset="0.4787" stop-color="#FFE194"/>
<stop offset="0.5187" stop-color="#FFDF8B"/>
<stop offset="0.5538" stop-color="#FFDC7B"/>
<stop offset="0.5862" stop-color="#FFD765"/>
<stop offset="0.6167" stop-color="#FFD048"/>
<stop offset="0.6453" stop-color="#FFC925"/>
<stop offset="0.6626" stop-color="#FFC30C"/>
<stop offset="0.6708" stop-color="#FFC926"/>
<stop offset="0.6817" stop-color="#FFCF41"/>
<stop offset="0.6941" stop-color="#FFD457"/>
<stop offset="0.7087" stop-color="#FFD768"/>
<stop offset="0.7267" stop-color="#FFDA73"/>
<stop offset="0.752" stop-color="#FFDC7A"/>
<stop offset="0.8221" stop-color="#FFDC7C"/>
<stop offset="0.9158" stop-color="#EAB946"/>
<stop offset="1" stop-color="#D59812"/>
</linearGradient>
<linearGradient id="paint2_linear" x1="-14.6924" y1="-29.1683" x2="121.599" y2="72.366" gradientUnits="userSpaceOnUse">
<stop stop-color="#D38C15"/>
<stop offset="0.0377" stop-color="#DD9913"/>
<stop offset="0.1267" stop-color="#F0B10E"/>
<stop offset="0.2085" stop-color="#FBC00B"/>
<stop offset="0.2761" stop-color="#FFC50A"/>
<stop offset="0.3379" stop-color="#FFC50C"/>
<stop offset="0.3601" stop-color="#FFC713"/>
<stop offset="0.376" stop-color="#FFC91E"/>
<stop offset="0.3888" stop-color="#FFCD2F"/>
<stop offset="0.3998" stop-color="#FFD145"/>
<stop offset="0.4096" stop-color="#FFD761"/>
<stop offset="0.4181" stop-color="#FFDD80"/>
<stop offset="0.4233" stop-color="#FFE297"/>
<stop offset="0.4787" stop-color="#FFE194"/>
<stop offset="0.5187" stop-color="#FFDF8B"/>
<stop offset="0.5538" stop-color="#FFDC7B"/>
<stop offset="0.5862" stop-color="#FFD765"/>
<stop offset="0.6167" stop-color="#FFD048"/>
<stop offset="0.6453" stop-color="#FFC925"/>
<stop offset="0.6626" stop-color="#FFC30C"/>
<stop offset="0.6708" stop-color="#FFC926"/>
<stop offset="0.6817" stop-color="#FFCF41"/>
<stop offset="0.6941" stop-color="#FFD457"/>
<stop offset="0.7087" stop-color="#FFD768"/>
<stop offset="0.7267" stop-color="#FFDA73"/>
<stop offset="0.752" stop-color="#FFDC7A"/>
<stop offset="0.8221" stop-color="#FFDC7C"/>
<stop offset="0.9158" stop-color="#EAB946"/>
<stop offset="1" stop-color="#D59812"/>
</linearGradient>
<linearGradient id="paint3_linear" x1="-14.6924" y1="-29.1683" x2="121.599" y2="72.366" gradientUnits="userSpaceOnUse">
<stop stop-color="#D38C15"/>
<stop offset="0.0377" stop-color="#DD9913"/>
<stop offset="0.1267" stop-color="#F0B10E"/>
<stop offset="0.2085" stop-color="#FBC00B"/>
<stop offset="0.2761" stop-color="#FFC50A"/>
<stop offset="0.3379" stop-color="#FFC50C"/>
<stop offset="0.3601" stop-color="#FFC713"/>
<stop offset="0.376" stop-color="#FFC91E"/>
<stop offset="0.3888" stop-color="#FFCD2F"/>
<stop offset="0.3998" stop-color="#FFD145"/>
<stop offset="0.4096" stop-color="#FFD761"/>
<stop offset="0.4181" stop-color="#FFDD80"/>
<stop offset="0.4233" stop-color="#FFE297"/>
<stop offset="0.4787" stop-color="#FFE194"/>
<stop offset="0.5187" stop-color="#FFDF8B"/>
<stop offset="0.5538" stop-color="#FFDC7B"/>
<stop offset="0.5862" stop-color="#FFD765"/>
<stop offset="0.6167" stop-color="#FFD048"/>
<stop offset="0.6453" stop-color="#FFC925"/>
<stop offset="0.6626" stop-color="#FFC30C"/>
<stop offset="0.6708" stop-color="#FFC926"/>
<stop offset="0.6817" stop-color="#FFCF41"/>
<stop offset="0.6941" stop-color="#FFD457"/>
<stop offset="0.7087" stop-color="#FFD768"/>
<stop offset="0.7267" stop-color="#FFDA73"/>
<stop offset="0.752" stop-color="#FFDC7A"/>
<stop offset="0.8221" stop-color="#FFDC7C"/>
<stop offset="0.9158" stop-color="#EAB946"/>
<stop offset="1" stop-color="#D59812"/>
</linearGradient>
<linearGradient id="paint4_linear" x1="-24.6032" y1="-15.8638" x2="111.686" y2="85.6702" gradientUnits="userSpaceOnUse">
<stop stop-color="#D38C15"/>
<stop offset="0.0377" stop-color="#DD9913"/>
<stop offset="0.1267" stop-color="#F0B10E"/>
<stop offset="0.2085" stop-color="#FBC00B"/>
<stop offset="0.2761" stop-color="#FFC50A"/>
<stop offset="0.3379" stop-color="#FFC50C"/>
<stop offset="0.3601" stop-color="#FFC713"/>
<stop offset="0.376" stop-color="#FFC91E"/>
<stop offset="0.3888" stop-color="#FFCD2F"/>
<stop offset="0.3998" stop-color="#FFD145"/>
<stop offset="0.4096" stop-color="#FFD761"/>
<stop offset="0.4181" stop-color="#FFDD80"/>
<stop offset="0.4233" stop-color="#FFE297"/>
<stop offset="0.4787" stop-color="#FFE194"/>
<stop offset="0.5187" stop-color="#FFDF8B"/>
<stop offset="0.5538" stop-color="#FFDC7B"/>
<stop offset="0.5862" stop-color="#FFD765"/>
<stop offset="0.6167" stop-color="#FFD048"/>
<stop offset="0.6453" stop-color="#FFC925"/>
<stop offset="0.6626" stop-color="#FFC30C"/>
<stop offset="0.6708" stop-color="#FFC926"/>
<stop offset="0.6817" stop-color="#FFCF41"/>
<stop offset="0.6941" stop-color="#FFD457"/>
<stop offset="0.7087" stop-color="#FFD768"/>
<stop offset="0.7267" stop-color="#FFDA73"/>
<stop offset="0.752" stop-color="#FFDC7A"/>
<stop offset="0.8221" stop-color="#FFDC7C"/>
<stop offset="0.9158" stop-color="#EAB946"/>
<stop offset="1" stop-color="#D59812"/>
</linearGradient>
<linearGradient id="paint5_linear" x1="-20.3669" y1="-21.5558" x2="115.927" y2="79.9794" gradientUnits="userSpaceOnUse">
<stop stop-color="#D38C15"/>
<stop offset="0.0377" stop-color="#DD9913"/>
<stop offset="0.1267" stop-color="#F0B10E"/>
<stop offset="0.2085" stop-color="#FBC00B"/>
<stop offset="0.2761" stop-color="#FFC50A"/>
<stop offset="0.3379" stop-color="#FFC50C"/>
<stop offset="0.3601" stop-color="#FFC713"/>
<stop offset="0.376" stop-color="#FFC91E"/>
<stop offset="0.3888" stop-color="#FFCD2F"/>
<stop offset="0.3998" stop-color="#FFD145"/>
<stop offset="0.4096" stop-color="#FFD761"/>
<stop offset="0.4181" stop-color="#FFDD80"/>
<stop offset="0.4233" stop-color="#FFE297"/>
<stop offset="0.4787" stop-color="#FFE194"/>
<stop offset="0.5187" stop-color="#FFDF8B"/>
<stop offset="0.5538" stop-color="#FFDC7B"/>
<stop offset="0.5862" stop-color="#FFD765"/>
<stop offset="0.6167" stop-color="#FFD048"/>
<stop offset="0.6453" stop-color="#FFC925"/>
<stop offset="0.6626" stop-color="#FFC30C"/>
<stop offset="0.6708" stop-color="#FFC926"/>
<stop offset="0.6817" stop-color="#FFCF41"/>
<stop offset="0.6941" stop-color="#FFD457"/>
<stop offset="0.7087" stop-color="#FFD768"/>
<stop offset="0.7267" stop-color="#FFDA73"/>
<stop offset="0.752" stop-color="#FFDC7A"/>
<stop offset="0.8221" stop-color="#FFDC7C"/>
<stop offset="0.9158" stop-color="#EAB946"/>
<stop offset="1" stop-color="#D59812"/>
</linearGradient>
<linearGradient id="paint6_linear" x1="-3.64154" y1="-44.0082" x2="132.654" y2="57.5299" gradientUnits="userSpaceOnUse">
<stop stop-color="#D38C15"/>
<stop offset="0.0377" stop-color="#DD9913"/>
<stop offset="0.1267" stop-color="#F0B10E"/>
<stop offset="0.2085" stop-color="#FBC00B"/>
<stop offset="0.2761" stop-color="#FFC50A"/>
<stop offset="0.3379" stop-color="#FFC50C"/>
<stop offset="0.3601" stop-color="#FFC713"/>
<stop offset="0.376" stop-color="#FFC91E"/>
<stop offset="0.3888" stop-color="#FFCD2F"/>
<stop offset="0.3998" stop-color="#FFD145"/>
<stop offset="0.4096" stop-color="#FFD761"/>
<stop offset="0.4181" stop-color="#FFDD80"/>
<stop offset="0.4233" stop-color="#FFE297"/>
<stop offset="0.4787" stop-color="#FFE194"/>
<stop offset="0.5187" stop-color="#FFDF8B"/>
<stop offset="0.5538" stop-color="#FFDC7B"/>
<stop offset="0.5862" stop-color="#FFD765"/>
<stop offset="0.6167" stop-color="#FFD048"/>
<stop offset="0.6453" stop-color="#FFC925"/>
<stop offset="0.6626" stop-color="#FFC30C"/>
<stop offset="0.6708" stop-color="#FFC926"/>
<stop offset="0.6817" stop-color="#FFCF41"/>
<stop offset="0.6941" stop-color="#FFD457"/>
<stop offset="0.7087" stop-color="#FFD768"/>
<stop offset="0.7267" stop-color="#FFDA73"/>
<stop offset="0.752" stop-color="#FFDC7A"/>
<stop offset="0.8221" stop-color="#FFDC7C"/>
<stop offset="0.9158" stop-color="#EAB946"/>
<stop offset="1" stop-color="#D59812"/>
</linearGradient>
<linearGradient id="paint7_linear" x1="-38.4647" y1="2.85696" x2="97.7042" y2="104.3" gradientUnits="userSpaceOnUse">
<stop stop-color="#D38C15"/>
<stop offset="0.0377" stop-color="#DD9913"/>
<stop offset="0.1267" stop-color="#F0B10E"/>
<stop offset="0.2085" stop-color="#FBC00B"/>
<stop offset="0.2761" stop-color="#FFC50A"/>
<stop offset="0.3379" stop-color="#FFC50C"/>
<stop offset="0.3601" stop-color="#FFC713"/>
<stop offset="0.376" stop-color="#FFC91E"/>
<stop offset="0.3888" stop-color="#FFCD2F"/>
<stop offset="0.3998" stop-color="#FFD145"/>
<stop offset="0.4096" stop-color="#FFD761"/>
<stop offset="0.4181" stop-color="#FFDD80"/>
<stop offset="0.4233" stop-color="#FFE297"/>
<stop offset="0.4787" stop-color="#FFE194"/>
<stop offset="0.5187" stop-color="#FFDF8B"/>
<stop offset="0.5538" stop-color="#FFDC7B"/>
<stop offset="0.5862" stop-color="#FFD765"/>
<stop offset="0.6167" stop-color="#FFD048"/>
<stop offset="0.6453" stop-color="#FFC925"/>
<stop offset="0.6626" stop-color="#FFC30C"/>
<stop offset="0.6708" stop-color="#FFC926"/>
<stop offset="0.6817" stop-color="#FFCF41"/>
<stop offset="0.6941" stop-color="#FFD457"/>
<stop offset="0.7087" stop-color="#FFD768"/>
<stop offset="0.7267" stop-color="#FFDA73"/>
<stop offset="0.752" stop-color="#FFDC7A"/>
<stop offset="0.8221" stop-color="#FFDC7C"/>
<stop offset="0.9158" stop-color="#EAB946"/>
<stop offset="1" stop-color="#D59812"/>
</linearGradient>
<linearGradient id="paint8_linear" x1="-31.5456" y1="-6.54205" x2="104.745" y2="94.9897" gradientUnits="userSpaceOnUse">
<stop stop-color="#D38C15"/>
<stop offset="0.0377" stop-color="#DD9913"/>
<stop offset="0.1267" stop-color="#F0B10E"/>
<stop offset="0.2085" stop-color="#FBC00B"/>
<stop offset="0.2761" stop-color="#FFC50A"/>
<stop offset="0.3379" stop-color="#FFC50C"/>
<stop offset="0.3601" stop-color="#FFC713"/>
<stop offset="0.376" stop-color="#FFC91E"/>
<stop offset="0.3888" stop-color="#FFCD2F"/>
<stop offset="0.3998" stop-color="#FFD145"/>
<stop offset="0.4096" stop-color="#FFD761"/>
<stop offset="0.4181" stop-color="#FFDD80"/>
<stop offset="0.4233" stop-color="#FFE297"/>
<stop offset="0.4787" stop-color="#FFE194"/>
<stop offset="0.5187" stop-color="#FFDF8B"/>
<stop offset="0.5538" stop-color="#FFDC7B"/>
<stop offset="0.5862" stop-color="#FFD765"/>
<stop offset="0.6167" stop-color="#FFD048"/>
<stop offset="0.6453" stop-color="#FFC925"/>
<stop offset="0.6626" stop-color="#FFC30C"/>
<stop offset="0.6708" stop-color="#FFC926"/>
<stop offset="0.6817" stop-color="#FFCF41"/>
<stop offset="0.6941" stop-color="#FFD457"/>
<stop offset="0.7087" stop-color="#FFD768"/>
<stop offset="0.7267" stop-color="#FFDA73"/>
<stop offset="0.752" stop-color="#FFDC7A"/>
<stop offset="0.8221" stop-color="#FFDC7C"/>
<stop offset="0.9158" stop-color="#EAB946"/>
<stop offset="1" stop-color="#D59812"/>
</linearGradient>
<linearGradient id="paint9_linear" x1="-36.0962" y1="-0.433478" x2="100.192" y2="101.1" gradientUnits="userSpaceOnUse">
<stop stop-color="#D38C15"/>
<stop offset="0.0377" stop-color="#DD9913"/>
<stop offset="0.1267" stop-color="#F0B10E"/>
<stop offset="0.2085" stop-color="#FBC00B"/>
<stop offset="0.2761" stop-color="#FFC50A"/>
<stop offset="0.3379" stop-color="#FFC50C"/>
<stop offset="0.3601" stop-color="#FFC713"/>
<stop offset="0.376" stop-color="#FFC91E"/>
<stop offset="0.3888" stop-color="#FFCD2F"/>
<stop offset="0.3998" stop-color="#FFD145"/>
<stop offset="0.4096" stop-color="#FFD761"/>
<stop offset="0.4181" stop-color="#FFDD80"/>
<stop offset="0.4233" stop-color="#FFE297"/>
<stop offset="0.4787" stop-color="#FFE194"/>
<stop offset="0.5187" stop-color="#FFDF8B"/>
<stop offset="0.5538" stop-color="#FFDC7B"/>
<stop offset="0.5862" stop-color="#FFD765"/>
<stop offset="0.6167" stop-color="#FFD048"/>
<stop offset="0.6453" stop-color="#FFC925"/>
<stop offset="0.6626" stop-color="#FFC30C"/>
<stop offset="0.6708" stop-color="#FFC926"/>
<stop offset="0.6817" stop-color="#FFCF41"/>
<stop offset="0.6941" stop-color="#FFD457"/>
<stop offset="0.7087" stop-color="#FFD768"/>
<stop offset="0.7267" stop-color="#FFDA73"/>
<stop offset="0.752" stop-color="#FFDC7A"/>
<stop offset="0.8221" stop-color="#FFDC7C"/>
<stop offset="0.9158" stop-color="#EAB946"/>
<stop offset="1" stop-color="#D59812"/>
</linearGradient>
<linearGradient id="paint10_linear" x1="-31.1809" y1="-7.02811" x2="105.107" y2="94.5032" gradientUnits="userSpaceOnUse">
<stop stop-color="#D38C15"/>
<stop offset="0.0377" stop-color="#DD9913"/>
<stop offset="0.1267" stop-color="#F0B10E"/>
<stop offset="0.2085" stop-color="#FBC00B"/>
<stop offset="0.2761" stop-color="#FFC50A"/>
<stop offset="0.3379" stop-color="#FFC50C"/>
<stop offset="0.3601" stop-color="#FFC713"/>
<stop offset="0.376" stop-color="#FFC91E"/>
<stop offset="0.3888" stop-color="#FFCD2F"/>
<stop offset="0.3998" stop-color="#FFD145"/>
<stop offset="0.4096" stop-color="#FFD761"/>
<stop offset="0.4181" stop-color="#FFDD80"/>
<stop offset="0.4233" stop-color="#FFE297"/>
<stop offset="0.4787" stop-color="#FFE194"/>
<stop offset="0.5187" stop-color="#FFDF8B"/>
<stop offset="0.5538" stop-color="#FFDC7B"/>
<stop offset="0.5862" stop-color="#FFD765"/>
<stop offset="0.6167" stop-color="#FFD048"/>
<stop offset="0.6453" stop-color="#FFC925"/>
<stop offset="0.6626" stop-color="#FFC30C"/>
<stop offset="0.6708" stop-color="#FFC926"/>
<stop offset="0.6817" stop-color="#FFCF41"/>
<stop offset="0.6941" stop-color="#FFD457"/>
<stop offset="0.7087" stop-color="#FFD768"/>
<stop offset="0.7267" stop-color="#FFDA73"/>
<stop offset="0.752" stop-color="#FFDC7A"/>
<stop offset="0.8221" stop-color="#FFDC7C"/>
<stop offset="0.9158" stop-color="#EAB946"/>
<stop offset="1" stop-color="#D59812"/>
</linearGradient>
<linearGradient id="paint11_linear" x1="-25.9867" y1="-14.0027" x2="110.301" y2="87.5292" gradientUnits="userSpaceOnUse">
<stop stop-color="#D38C15"/>
<stop offset="0.0377" stop-color="#DD9913"/>
<stop offset="0.1267" stop-color="#F0B10E"/>
<stop offset="0.2085" stop-color="#FBC00B"/>
<stop offset="0.2761" stop-color="#FFC50A"/>
<stop offset="0.3379" stop-color="#FFC50C"/>
<stop offset="0.3601" stop-color="#FFC713"/>
<stop offset="0.376" stop-color="#FFC91E"/>
<stop offset="0.3888" stop-color="#FFCD2F"/>
<stop offset="0.3998" stop-color="#FFD145"/>
<stop offset="0.4096" stop-color="#FFD761"/>
<stop offset="0.4181" stop-color="#FFDD80"/>
<stop offset="0.4233" stop-color="#FFE297"/>
<stop offset="0.4787" stop-color="#FFE194"/>
<stop offset="0.5187" stop-color="#FFDF8B"/>
<stop offset="0.5538" stop-color="#FFDC7B"/>
<stop offset="0.5862" stop-color="#FFD765"/>
<stop offset="0.6167" stop-color="#FFD048"/>
<stop offset="0.6453" stop-color="#FFC925"/>
<stop offset="0.6626" stop-color="#FFC30C"/>
<stop offset="0.6708" stop-color="#FFC926"/>
<stop offset="0.6817" stop-color="#FFCF41"/>
<stop offset="0.6941" stop-color="#FFD457"/>
<stop offset="0.7087" stop-color="#FFD768"/>
<stop offset="0.7267" stop-color="#FFDA73"/>
<stop offset="0.752" stop-color="#FFDC7A"/>
<stop offset="0.8221" stop-color="#FFDC7C"/>
<stop offset="0.9158" stop-color="#EAB946"/>
<stop offset="1" stop-color="#D59812"/>
</linearGradient>
<linearGradient id="paint12_linear" x1="-15.6215" y1="-27.9183" x2="120.67" y2="73.6129" gradientUnits="userSpaceOnUse">
<stop stop-color="#D38C15"/>
<stop offset="0.0377" stop-color="#DD9913"/>
<stop offset="0.1267" stop-color="#F0B10E"/>
<stop offset="0.2085" stop-color="#FBC00B"/>
<stop offset="0.2761" stop-color="#FFC50A"/>
<stop offset="0.3379" stop-color="#FFC50C"/>
<stop offset="0.3601" stop-color="#FFC713"/>
<stop offset="0.376" stop-color="#FFC91E"/>
<stop offset="0.3888" stop-color="#FFCD2F"/>
<stop offset="0.3998" stop-color="#FFD145"/>
<stop offset="0.4096" stop-color="#FFD761"/>
<stop offset="0.4181" stop-color="#FFDD80"/>
<stop offset="0.4233" stop-color="#FFE297"/>
<stop offset="0.4787" stop-color="#FFE194"/>
<stop offset="0.5187" stop-color="#FFDF8B"/>
<stop offset="0.5538" stop-color="#FFDC7B"/>
<stop offset="0.5862" stop-color="#FFD765"/>
<stop offset="0.6167" stop-color="#FFD048"/>
<stop offset="0.6453" stop-color="#FFC925"/>
<stop offset="0.6626" stop-color="#FFC30C"/>
<stop offset="0.6708" stop-color="#FFC926"/>
<stop offset="0.6817" stop-color="#FFCF41"/>
<stop offset="0.6941" stop-color="#FFD457"/>
<stop offset="0.7087" stop-color="#FFD768"/>
<stop offset="0.7267" stop-color="#FFDA73"/>
<stop offset="0.752" stop-color="#FFDC7A"/>
<stop offset="0.8221" stop-color="#FFDC7C"/>
<stop offset="0.9158" stop-color="#EAB946"/>
<stop offset="1" stop-color="#D59812"/>
</linearGradient>
<linearGradient id="paint13_linear" x1="-12.7965" y1="-31.7225" x2="123.499" y2="69.8188" gradientUnits="userSpaceOnUse">
<stop stop-color="#D38C15"/>
<stop offset="0.0377" stop-color="#DD9913"/>
<stop offset="0.1267" stop-color="#F0B10E"/>
<stop offset="0.2085" stop-color="#FBC00B"/>
<stop offset="0.2761" stop-color="#FFC50A"/>
<stop offset="0.3379" stop-color="#FFC50C"/>
<stop offset="0.3601" stop-color="#FFC713"/>
<stop offset="0.376" stop-color="#FFC91E"/>
<stop offset="0.3888" stop-color="#FFCD2F"/>
<stop offset="0.3998" stop-color="#FFD145"/>
<stop offset="0.4096" stop-color="#FFD761"/>
<stop offset="0.4181" stop-color="#FFDD80"/>
<stop offset="0.4233" stop-color="#FFE297"/>
<stop offset="0.4787" stop-color="#FFE194"/>
<stop offset="0.5187" stop-color="#FFDF8B"/>
<stop offset="0.5538" stop-color="#FFDC7B"/>
<stop offset="0.5862" stop-color="#FFD765"/>
<stop offset="0.6167" stop-color="#FFD048"/>
<stop offset="0.6453" stop-color="#FFC925"/>
<stop offset="0.6626" stop-color="#FFC30C"/>
<stop offset="0.6708" stop-color="#FFC926"/>
<stop offset="0.6817" stop-color="#FFCF41"/>
<stop offset="0.6941" stop-color="#FFD457"/>
<stop offset="0.7087" stop-color="#FFD768"/>
<stop offset="0.7267" stop-color="#FFDA73"/>
<stop offset="0.752" stop-color="#FFDC7A"/>
<stop offset="0.8221" stop-color="#FFDC7C"/>
<stop offset="0.9158" stop-color="#EAB946"/>
<stop offset="1" stop-color="#D59812"/>
</linearGradient>
<linearGradient id="paint14_linear" x1="-10.33" y1="-35.021" x2="125.962" y2="66.5104" gradientUnits="userSpaceOnUse">
<stop stop-color="#D38C15"/>
<stop offset="0.0377" stop-color="#DD9913"/>
<stop offset="0.1267" stop-color="#F0B10E"/>
<stop offset="0.2085" stop-color="#FBC00B"/>
<stop offset="0.2761" stop-color="#FFC50A"/>
<stop offset="0.3379" stop-color="#FFC50C"/>
<stop offset="0.3601" stop-color="#FFC713"/>
<stop offset="0.376" stop-color="#FFC91E"/>
<stop offset="0.3888" stop-color="#FFCD2F"/>
<stop offset="0.3998" stop-color="#FFD145"/>
<stop offset="0.4096" stop-color="#FFD761"/>
<stop offset="0.4181" stop-color="#FFDD80"/>
<stop offset="0.4233" stop-color="#FFE297"/>
<stop offset="0.4787" stop-color="#FFE194"/>
<stop offset="0.5187" stop-color="#FFDF8B"/>
<stop offset="0.5538" stop-color="#FFDC7B"/>
<stop offset="0.5862" stop-color="#FFD765"/>
<stop offset="0.6167" stop-color="#FFD048"/>
<stop offset="0.6453" stop-color="#FFC925"/>
<stop offset="0.6626" stop-color="#FFC30C"/>
<stop offset="0.6708" stop-color="#FFC926"/>
<stop offset="0.6817" stop-color="#FFCF41"/>
<stop offset="0.6941" stop-color="#FFD457"/>
<stop offset="0.7087" stop-color="#FFD768"/>
<stop offset="0.7267" stop-color="#FFDA73"/>
<stop offset="0.752" stop-color="#FFDC7A"/>
<stop offset="0.8221" stop-color="#FFDC7C"/>
<stop offset="0.9158" stop-color="#EAB946"/>
<stop offset="1" stop-color="#D59812"/>
</linearGradient>
<linearGradient id="paint15_linear" x1="-7.50196" y1="-38.8286" x2="128.797" y2="62.7082" gradientUnits="userSpaceOnUse">
<stop stop-color="#D38C15"/>
<stop offset="0.0377" stop-color="#DD9913"/>
<stop offset="0.1267" stop-color="#F0B10E"/>
<stop offset="0.2085" stop-color="#FBC00B"/>
<stop offset="0.2761" stop-color="#FFC50A"/>
<stop offset="0.3379" stop-color="#FFC50C"/>
<stop offset="0.3601" stop-color="#FFC713"/>
<stop offset="0.376" stop-color="#FFC91E"/>
<stop offset="0.3888" stop-color="#FFCD2F"/>
<stop offset="0.3998" stop-color="#FFD145"/>
<stop offset="0.4096" stop-color="#FFD761"/>
<stop offset="0.4181" stop-color="#FFDD80"/>
<stop offset="0.4233" stop-color="#FFE297"/>
<stop offset="0.4787" stop-color="#FFE194"/>
<stop offset="0.5187" stop-color="#FFDF8B"/>
<stop offset="0.5538" stop-color="#FFDC7B"/>
<stop offset="0.5862" stop-color="#FFD765"/>
<stop offset="0.6167" stop-color="#FFD048"/>
<stop offset="0.6453" stop-color="#FFC925"/>
<stop offset="0.6626" stop-color="#FFC30C"/>
<stop offset="0.6708" stop-color="#FFC926"/>
<stop offset="0.6817" stop-color="#FFCF41"/>
<stop offset="0.6941" stop-color="#FFD457"/>
<stop offset="0.7087" stop-color="#FFD768"/>
<stop offset="0.7267" stop-color="#FFDA73"/>
<stop offset="0.752" stop-color="#FFDC7A"/>
<stop offset="0.8221" stop-color="#FFDC7C"/>
<stop offset="0.9158" stop-color="#EAB946"/>
<stop offset="1" stop-color="#D59812"/>
</linearGradient>
<linearGradient id="paint16_linear" x1="-30.1864" y1="-8.37049" x2="106.105" y2="93.164" gradientUnits="userSpaceOnUse">
<stop stop-color="#D38C15"/>
<stop offset="0.0377" stop-color="#DD9913"/>
<stop offset="0.1267" stop-color="#F0B10E"/>
<stop offset="0.2085" stop-color="#FBC00B"/>
<stop offset="0.2761" stop-color="#FFC50A"/>
<stop offset="0.3379" stop-color="#FFC50C"/>
<stop offset="0.3601" stop-color="#FFC713"/>
<stop offset="0.376" stop-color="#FFC91E"/>
<stop offset="0.3888" stop-color="#FFCD2F"/>
<stop offset="0.3998" stop-color="#FFD145"/>
<stop offset="0.4096" stop-color="#FFD761"/>
<stop offset="0.4181" stop-color="#FFDD80"/>
<stop offset="0.4233" stop-color="#FFE297"/>
<stop offset="0.4787" stop-color="#FFE194"/>
<stop offset="0.5187" stop-color="#FFDF8B"/>
<stop offset="0.5538" stop-color="#FFDC7B"/>
<stop offset="0.5862" stop-color="#FFD765"/>
<stop offset="0.6167" stop-color="#FFD048"/>
<stop offset="0.6453" stop-color="#FFC925"/>
<stop offset="0.6626" stop-color="#FFC30C"/>
<stop offset="0.6708" stop-color="#FFC926"/>
<stop offset="0.6817" stop-color="#FFCF41"/>
<stop offset="0.6941" stop-color="#FFD457"/>
<stop offset="0.7087" stop-color="#FFD768"/>
<stop offset="0.7267" stop-color="#FFDA73"/>
<stop offset="0.752" stop-color="#FFDC7A"/>
<stop offset="0.8221" stop-color="#FFDC7C"/>
<stop offset="0.9158" stop-color="#EAB946"/>
<stop offset="1" stop-color="#D59812"/>
</linearGradient>
<linearGradient id="paint17_linear" x1="-25.9659" y1="-14.041" x2="110.33" y2="87.4962" gradientUnits="userSpaceOnUse">
<stop stop-color="#D38C15"/>
<stop offset="0.0377" stop-color="#DD9913"/>
<stop offset="0.1267" stop-color="#F0B10E"/>
<stop offset="0.2085" stop-color="#FBC00B"/>
<stop offset="0.2761" stop-color="#FFC50A"/>
<stop offset="0.3379" stop-color="#FFC50C"/>
<stop offset="0.3601" stop-color="#FFC713"/>
<stop offset="0.376" stop-color="#FFC91E"/>
<stop offset="0.3888" stop-color="#FFCD2F"/>
<stop offset="0.3998" stop-color="#FFD145"/>
<stop offset="0.4096" stop-color="#FFD761"/>
<stop offset="0.4181" stop-color="#FFDD80"/>
<stop offset="0.4233" stop-color="#FFE297"/>
<stop offset="0.4787" stop-color="#FFE194"/>
<stop offset="0.5187" stop-color="#FFDF8B"/>
<stop offset="0.5538" stop-color="#FFDC7B"/>
<stop offset="0.5862" stop-color="#FFD765"/>
<stop offset="0.6167" stop-color="#FFD048"/>
<stop offset="0.6453" stop-color="#FFC925"/>
<stop offset="0.6626" stop-color="#FFC30C"/>
<stop offset="0.6708" stop-color="#FFC926"/>
<stop offset="0.6817" stop-color="#FFCF41"/>
<stop offset="0.6941" stop-color="#FFD457"/>
<stop offset="0.7087" stop-color="#FFD768"/>
<stop offset="0.7267" stop-color="#FFDA73"/>
<stop offset="0.752" stop-color="#FFDC7A"/>
<stop offset="0.8221" stop-color="#FFDC7C"/>
<stop offset="0.9158" stop-color="#EAB946"/>
<stop offset="1" stop-color="#D59812"/>
</linearGradient>
<linearGradient id="paint18_linear" x1="-20.7785" y1="-21.014" x2="115.521" y2="80.5328" gradientUnits="userSpaceOnUse">
<stop stop-color="#D38C15"/>
<stop offset="0.0377" stop-color="#DD9913"/>
<stop offset="0.1267" stop-color="#F0B10E"/>
<stop offset="0.2085" stop-color="#FBC00B"/>
<stop offset="0.2761" stop-color="#FFC50A"/>
<stop offset="0.3379" stop-color="#FFC50C"/>
<stop offset="0.3601" stop-color="#FFC713"/>
<stop offset="0.376" stop-color="#FFC91E"/>
<stop offset="0.3888" stop-color="#FFCD2F"/>
<stop offset="0.3998" stop-color="#FFD145"/>
<stop offset="0.4096" stop-color="#FFD761"/>
<stop offset="0.4181" stop-color="#FFDD80"/>
<stop offset="0.4233" stop-color="#FFE297"/>
<stop offset="0.4787" stop-color="#FFE194"/>
<stop offset="0.5187" stop-color="#FFDF8B"/>
<stop offset="0.5538" stop-color="#FFDC7B"/>
<stop offset="0.5862" stop-color="#FFD765"/>
<stop offset="0.6167" stop-color="#FFD048"/>
<stop offset="0.6453" stop-color="#FFC925"/>
<stop offset="0.6626" stop-color="#FFC30C"/>
<stop offset="0.6708" stop-color="#FFC926"/>
<stop offset="0.6817" stop-color="#FFCF41"/>
<stop offset="0.6941" stop-color="#FFD457"/>
<stop offset="0.7087" stop-color="#FFD768"/>
<stop offset="0.7267" stop-color="#FFDA73"/>
<stop offset="0.752" stop-color="#FFDC7A"/>
<stop offset="0.8221" stop-color="#FFDC7C"/>
<stop offset="0.9158" stop-color="#EAB946"/>
<stop offset="1" stop-color="#D59812"/>
</linearGradient>
<linearGradient id="paint19_linear" x1="-20.5863" y1="-21.2596" x2="115.708" y2="80.2771" gradientUnits="userSpaceOnUse">
<stop stop-color="#D38C15"/>
<stop offset="0.0377" stop-color="#DD9913"/>
<stop offset="0.1267" stop-color="#F0B10E"/>
<stop offset="0.2085" stop-color="#FBC00B"/>
<stop offset="0.2761" stop-color="#FFC50A"/>
<stop offset="0.3379" stop-color="#FFC50C"/>
<stop offset="0.3601" stop-color="#FFC713"/>
<stop offset="0.376" stop-color="#FFC91E"/>
<stop offset="0.3888" stop-color="#FFCD2F"/>
<stop offset="0.3998" stop-color="#FFD145"/>
<stop offset="0.4096" stop-color="#FFD761"/>
<stop offset="0.4181" stop-color="#FFDD80"/>
<stop offset="0.4233" stop-color="#FFE297"/>
<stop offset="0.4787" stop-color="#FFE194"/>
<stop offset="0.5187" stop-color="#FFDF8B"/>
<stop offset="0.5538" stop-color="#FFDC7B"/>
<stop offset="0.5862" stop-color="#FFD765"/>
<stop offset="0.6167" stop-color="#FFD048"/>
<stop offset="0.6453" stop-color="#FFC925"/>
<stop offset="0.6626" stop-color="#FFC30C"/>
<stop offset="0.6708" stop-color="#FFC926"/>
<stop offset="0.6817" stop-color="#FFCF41"/>
<stop offset="0.6941" stop-color="#FFD457"/>
<stop offset="0.7087" stop-color="#FFD768"/>
<stop offset="0.7267" stop-color="#FFDA73"/>
<stop offset="0.752" stop-color="#FFDC7A"/>
<stop offset="0.8221" stop-color="#FFDC7C"/>
<stop offset="0.9158" stop-color="#EAB946"/>
<stop offset="1" stop-color="#D59812"/>
</linearGradient>
<linearGradient id="paint20_linear" x1="-43.5419" y1="9.55412" x2="92.7508" y2="111.092" gradientUnits="userSpaceOnUse">
<stop stop-color="#D38C15"/>
<stop offset="0.0377" stop-color="#DD9913"/>
<stop offset="0.1267" stop-color="#F0B10E"/>
<stop offset="0.2085" stop-color="#FBC00B"/>
<stop offset="0.2761" stop-color="#FFC50A"/>
<stop offset="0.3379" stop-color="#FFC50C"/>
<stop offset="0.3601" stop-color="#FFC713"/>
<stop offset="0.376" stop-color="#FFC91E"/>
<stop offset="0.3888" stop-color="#FFCD2F"/>
<stop offset="0.3998" stop-color="#FFD145"/>
<stop offset="0.4096" stop-color="#FFD761"/>
<stop offset="0.4181" stop-color="#FFDD80"/>
<stop offset="0.4233" stop-color="#FFE297"/>
<stop offset="0.4787" stop-color="#FFE194"/>
<stop offset="0.5187" stop-color="#FFDF8B"/>
<stop offset="0.5538" stop-color="#FFDC7B"/>
<stop offset="0.5862" stop-color="#FFD765"/>
<stop offset="0.6167" stop-color="#FFD048"/>
<stop offset="0.6453" stop-color="#FFC925"/>
<stop offset="0.6626" stop-color="#FFC30C"/>
<stop offset="0.6708" stop-color="#FFC926"/>
<stop offset="0.6817" stop-color="#FFCF41"/>
<stop offset="0.6941" stop-color="#FFD457"/>
<stop offset="0.7087" stop-color="#FFD768"/>
<stop offset="0.7267" stop-color="#FFDA73"/>
<stop offset="0.752" stop-color="#FFDC7A"/>
<stop offset="0.8221" stop-color="#FFDC7C"/>
<stop offset="0.9158" stop-color="#EAB946"/>
<stop offset="1" stop-color="#D59812"/>
</linearGradient>
<linearGradient id="paint21_linear" x1="-36.9607" y1="0.728093" x2="99.3273" y2="102.26" gradientUnits="userSpaceOnUse">
<stop stop-color="#D38C15"/>
<stop offset="0.0377" stop-color="#DD9913"/>
<stop offset="0.1267" stop-color="#F0B10E"/>
<stop offset="0.2085" stop-color="#FBC00B"/>
<stop offset="0.2761" stop-color="#FFC50A"/>
<stop offset="0.3379" stop-color="#FFC50C"/>
<stop offset="0.3601" stop-color="#FFC713"/>
<stop offset="0.376" stop-color="#FFC91E"/>
<stop offset="0.3888" stop-color="#FFCD2F"/>
<stop offset="0.3998" stop-color="#FFD145"/>
<stop offset="0.4096" stop-color="#FFD761"/>
<stop offset="0.4181" stop-color="#FFDD80"/>
<stop offset="0.4233" stop-color="#FFE297"/>
<stop offset="0.4787" stop-color="#FFE194"/>
<stop offset="0.5187" stop-color="#FFDF8B"/>
<stop offset="0.5538" stop-color="#FFDC7B"/>
<stop offset="0.5862" stop-color="#FFD765"/>
<stop offset="0.6167" stop-color="#FFD048"/>
<stop offset="0.6453" stop-color="#FFC925"/>
<stop offset="0.6626" stop-color="#FFC30C"/>
<stop offset="0.6708" stop-color="#FFC926"/>
<stop offset="0.6817" stop-color="#FFCF41"/>
<stop offset="0.6941" stop-color="#FFD457"/>
<stop offset="0.7087" stop-color="#FFD768"/>
<stop offset="0.7267" stop-color="#FFDA73"/>
<stop offset="0.752" stop-color="#FFDC7A"/>
<stop offset="0.8221" stop-color="#FFDC7C"/>
<stop offset="0.9158" stop-color="#EAB946"/>
<stop offset="1" stop-color="#D59812"/>
</linearGradient>
<linearGradient id="paint22_linear" x1="-33.5922" y1="-3.80006" x2="102.701" y2="97.7371" gradientUnits="userSpaceOnUse">
<stop stop-color="#D38C15"/>
<stop offset="0.0377" stop-color="#DD9913"/>
<stop offset="0.1267" stop-color="#F0B10E"/>
<stop offset="0.2085" stop-color="#FBC00B"/>
<stop offset="0.2761" stop-color="#FFC50A"/>
<stop offset="0.3379" stop-color="#FFC50C"/>
<stop offset="0.3601" stop-color="#FFC713"/>
<stop offset="0.376" stop-color="#FFC91E"/>
<stop offset="0.3888" stop-color="#FFCD2F"/>
<stop offset="0.3998" stop-color="#FFD145"/>
<stop offset="0.4096" stop-color="#FFD761"/>
<stop offset="0.4181" stop-color="#FFDD80"/>
<stop offset="0.4233" stop-color="#FFE297"/>
<stop offset="0.4787" stop-color="#FFE194"/>
<stop offset="0.5187" stop-color="#FFDF8B"/>
<stop offset="0.5538" stop-color="#FFDC7B"/>
<stop offset="0.5862" stop-color="#FFD765"/>
<stop offset="0.6167" stop-color="#FFD048"/>
<stop offset="0.6453" stop-color="#FFC925"/>
<stop offset="0.6626" stop-color="#FFC30C"/>
<stop offset="0.6708" stop-color="#FFC926"/>
<stop offset="0.6817" stop-color="#FFCF41"/>
<stop offset="0.6941" stop-color="#FFD457"/>
<stop offset="0.7087" stop-color="#FFD768"/>
<stop offset="0.7267" stop-color="#FFDA73"/>
<stop offset="0.752" stop-color="#FFDC7A"/>
<stop offset="0.8221" stop-color="#FFDC7C"/>
<stop offset="0.9158" stop-color="#EAB946"/>
<stop offset="1" stop-color="#D59812"/>
</linearGradient>
<linearGradient id="paint23_linear" x1="-39.3681" y1="3.95178" x2="96.9272" y2="105.489" gradientUnits="userSpaceOnUse">
<stop stop-color="#D38C15"/>
<stop offset="0.0377" stop-color="#DD9913"/>
<stop offset="0.1267" stop-color="#F0B10E"/>
<stop offset="0.2085" stop-color="#FBC00B"/>
<stop offset="0.2761" stop-color="#FFC50A"/>
<stop offset="0.3379" stop-color="#FFC50C"/>
<stop offset="0.3601" stop-color="#FFC713"/>
<stop offset="0.376" stop-color="#FFC91E"/>
<stop offset="0.3888" stop-color="#FFCD2F"/>
<stop offset="0.3998" stop-color="#FFD145"/>
<stop offset="0.4096" stop-color="#FFD761"/>
<stop offset="0.4181" stop-color="#FFDD80"/>
<stop offset="0.4233" stop-color="#FFE297"/>
<stop offset="0.4787" stop-color="#FFE194"/>
<stop offset="0.5187" stop-color="#FFDF8B"/>
<stop offset="0.5538" stop-color="#FFDC7B"/>
<stop offset="0.5862" stop-color="#FFD765"/>
<stop offset="0.6167" stop-color="#FFD048"/>
<stop offset="0.6453" stop-color="#FFC925"/>
<stop offset="0.6626" stop-color="#FFC30C"/>
<stop offset="0.6708" stop-color="#FFC926"/>
<stop offset="0.6817" stop-color="#FFCF41"/>
<stop offset="0.6941" stop-color="#FFD457"/>
<stop offset="0.7087" stop-color="#FFD768"/>
<stop offset="0.7267" stop-color="#FFDA73"/>
<stop offset="0.752" stop-color="#FFDC7A"/>
<stop offset="0.8221" stop-color="#FFDC7C"/>
<stop offset="0.9158" stop-color="#EAB946"/>
<stop offset="1" stop-color="#D59812"/>
</linearGradient>
<linearGradient id="paint24_linear" x1="-33.679" y1="-3.68767" x2="102.618" y2="97.8526" gradientUnits="userSpaceOnUse">
<stop stop-color="#D38C15"/>
<stop offset="0.0377" stop-color="#DD9913"/>
<stop offset="0.1267" stop-color="#F0B10E"/>
<stop offset="0.2085" stop-color="#FBC00B"/>
<stop offset="0.2761" stop-color="#FFC50A"/>
<stop offset="0.3379" stop-color="#FFC50C"/>
<stop offset="0.3601" stop-color="#FFC713"/>
<stop offset="0.376" stop-color="#FFC91E"/>
<stop offset="0.3888" stop-color="#FFCD2F"/>
<stop offset="0.3998" stop-color="#FFD145"/>
<stop offset="0.4096" stop-color="#FFD761"/>
<stop offset="0.4181" stop-color="#FFDD80"/>
<stop offset="0.4233" stop-color="#FFE297"/>
<stop offset="0.4787" stop-color="#FFE194"/>
<stop offset="0.5187" stop-color="#FFDF8B"/>
<stop offset="0.5538" stop-color="#FFDC7B"/>
<stop offset="0.5862" stop-color="#FFD765"/>
<stop offset="0.6167" stop-color="#FFD048"/>
<stop offset="0.6453" stop-color="#FFC925"/>
<stop offset="0.6626" stop-color="#FFC30C"/>
<stop offset="0.6708" stop-color="#FFC926"/>
<stop offset="0.6817" stop-color="#FFCF41"/>
<stop offset="0.6941" stop-color="#FFD457"/>
<stop offset="0.7087" stop-color="#FFD768"/>
<stop offset="0.7267" stop-color="#FFDA73"/>
<stop offset="0.752" stop-color="#FFDC7A"/>
<stop offset="0.8221" stop-color="#FFDC7C"/>
<stop offset="0.9158" stop-color="#EAB946"/>
<stop offset="1" stop-color="#D59812"/>
</linearGradient>
</defs>
</svg>
